<?xml version="1.0" encoding="UTF-8"?>
<svg id="Layer_2" data-name="Layer 2" xmlns="http://www.w3.org/2000/svg" viewBox="0 0 640 233.09">
  <defs>
    <style>
      .cls-1 {
        fill: #2b183e;
      }

      .cls-2 {
        fill: #2d1a40;
      }

      .cls-3 {
        fill: #2e1b40;
      }

      .cls-4 {
        fill: #3c2654;
      }

      .cls-5 {
        fill: #2d1b40;
      }

      .cls-6 {
        fill: #4a3974;
      }
    </style>
  </defs>
  <g id="Layer_13" data-name="Layer 13">
    <g>
      <path class="cls-4" d="M640,232.96c-.34,.13-.67,.12-1.01,.12-212.91,0-425.82,0-638.86,0C0,229.63,0,226.17,.1,222.57c.44-.31,.84-.42,1.1-.68,2.76-2.71,5.45-5.51,8.27-8.16,1.91-1.79,3.87-3.58,6.03-5.02,3.17-2.11,6.55-3.89,9.82-5.84,3.21-1.92,6.71-3.13,10.23-4.31,6.24-2.09,12.62-3.66,19.11-4.71,3.85-.62,7.74-1.02,11.62-1.29,2.32-.16,4.67,.12,7.01,.26,.99,.06,2,.19,2.96,.43,3.51,.85,6.98,1.9,10.53,2.6,4.98,.98,9.61,2.79,13.78,5.63,3.51,2.4,6.88,5,9.73,8.21,.46,.51,1.08,.88,1.48,1.2,2.86-3.01,5.55-5.9,8.3-8.73,3.82-3.93,8.85-5.78,13.82-7.53,7.86-2.76,16.12-3.78,24.39-4.37,5.77-.41,11.53,.17,17.15,1.62,4.09,1.06,8.14,2.25,12.18,3.49,2.46,.75,4.92,1.55,7.27,2.58,3.23,1.42,6.34,3.09,9.53,4.61,3.88,1.85,7.51,4.07,10.9,6.75,2.23,1.77,4.4,3.53,7.71,3.45,4.16-.1,7.98-1.05,11.23-3.47,5.27-3.92,7.86-9.5,8.96-15.88,.58-3.35,.65-6.83,2.27-9.95,1.14-2.19,2.08-4.49,4.09-6.12,1.92-1.56,3.81-3.18,5.64-4.85,.43-.39,.83-1.09,.83-1.64-.01-3.11,.23-6.21,1.33-9.11,1.64-4.31,4.32-8.05,7.15-11.66,1.84-2.35,3.74-4.67,5.79-6.83,4.1-4.35,8.18-8.74,13.07-12.26,2.05-1.48,4.02-3.06,6.13-4.45,3.3-2.18,6.59-4.4,10.06-6.3,3.12-1.71,6.37-3.27,9.73-4.42,3.72-1.28,7.58-2.21,11.45-2.95,3.94-.76,7.94-1.28,11.94-1.57,3.56-.26,7.17-.24,10.74,.02,3.64,.27,7.25,.99,10.88,1.49,4.57,.63,9.18,1,13.69,1.9,5.39,1.07,10.73,2.45,16.03,3.91,5.17,1.42,10.27,3.1,15.4,4.69,2.59,.8,5.16,1.67,7.75,2.48,4.87,1.51,9.71,3.1,14.62,4.48,4.26,1.19,8.58,2.16,12.88,3.16,3.29,.77,6.61,1.4,9.9,2.16,3.48,.81,6.92,1.76,10.4,2.55,4.19,.95,8.39,1.84,12.6,2.7,3.4,.69,6.81,1.3,10.22,1.92,5.51,1,11.01,2.12,16.55,2.94,4.84,.72,9.72,1.28,14.6,1.59,3.28,.21,6.61,.03,9.88-.29,2.53-.25,5.02-.92,7.5-1.53,3.33-.81,6.04-2.8,8.61-4.93,1.65-1.37,3.41-2.82,4.49-4.62,2.34-3.85,3.96-8,4.95-12.5,1.18-5.32,3.06-10.5,4.98-15.62,1.72-4.59,3.95-8.97,7.27-12.7,3.59-4.01,6.98-8.21,10.68-12.11,3.68-3.89,7.78-7.38,11.43-11.3,2.65-2.86,5.94-4.51,9.44-5.67,5.6-1.86,11.37-1.6,17.1-.35,1.65,.36,2.44-.18,2.83-1.82,.75-3.2,2.37-5.78,5.33-7.4,1.92-1.06,3.75-2.35,5.77-3.18,3.43-1.41,6.93-2.73,10.5-3.72,3.38-.94,6.88-1.41,10.33-2.08V232.96Zm-310.13-98.01c1.15-.44,2.28-.97,3.46-1.3,4.99-1.41,9.98-2.83,15-4.1,2.57-.65,5.23-.96,7.83-1.54,.47-.1,1.14-.7,1.17-1.11,.04-.53-.33-1.44-.75-1.61-3.27-1.35-6.69-2.22-10.22-2.38-4.59-.22-9.13,.42-13.7,.73-6.35,.44-12.58,1.26-18.73,2.85-5.89,1.52-11.46,3.85-16.82,6.71-2.26,1.21-4.64,2.33-6.62,3.91-3.53,2.81-6.89,5.85-10.17,8.96-3.92,3.72-7.26,7.94-10.47,12.29-1.39,1.89-2.15,3.89-2.22,6.19-.03,.85,.34,1.13,1.18,1.23,1.34,.16,2.25-.55,3.25-1.22,4.39-2.95,8.79-5.88,13.2-8.8,1.66-1.1,3.31-2.24,5.03-3.25,3.24-1.89,6.51-3.75,9.82-5.53,2.26-1.22,4.57-2.37,6.92-3.4,3.13-1.37,6.3-2.68,9.5-3.88,4.35-1.64,8.74-3.17,13.34-4.75Zm255.48-12.21c.62-.44,1.26-.87,1.86-1.33,3.32-2.55,6.55-5.2,9.95-7.63,4.76-3.41,9.73-6.54,14.44-10.01,2.15-1.58,3.91-3.69,5.78-5.63,.24-.25,.29-1.13,.08-1.3-.75-.63-1.59-1.26-2.51-1.56-2.47-.8-4.89-.17-7.28,.57-.86,.27-1.75,.4-2.7,.61-.35-3.93,2.26-6.34,3.97-9.61-1.56-.3-2.86-.89-4.02-.68-1.45,.27-2.9,1.02-4.13,1.88-4.46,3.12-8.09,7.17-11.34,11.45-4.88,6.43-8.15,13.74-10.55,21.45-.39,1.27-.15,2.24,.82,3.09,1.04,.91,2.16,1.21,3.39,.36,.7-.49,1.38-1.01,2.23-1.66Z"/>
      <path class="cls-2" d="M640,47.36c-3.45,.8-6.96,1.27-10.33,2.21-3.57,.99-7.07,2.31-10.5,3.72-2.02,.83-3.84,2.12-5.77,3.18-2.96,1.62-4.57,4.21-5.33,7.4-.38,1.63-1.18,2.18-2.83,1.82-5.73-1.25-11.49-1.51-17.1,.35-3.5,1.16-6.78,2.81-9.44,5.67-3.64,3.92-7.74,7.41-11.43,11.3-3.7,3.91-7.09,8.1-10.68,12.11-3.33,3.73-5.55,8.11-7.27,12.7-1.92,5.12-3.8,10.3-4.98,15.62-1,4.5-2.62,8.65-4.95,12.5-1.09,1.79-2.84,3.25-4.49,4.62-2.56,2.13-5.28,4.12-8.61,4.93-2.48,.6-4.98,1.28-7.5,1.53-3.28,.32-6.6,.5-9.88,.29-4.88-.31-9.76-.87-14.6-1.59-5.54-.83-11.04-1.94-16.55-2.94-3.41-.62-6.82-1.23-10.22-1.92-4.21-.86-8.41-1.74-12.6-2.7-3.48-.79-6.93-1.74-10.4-2.55-3.29-.77-6.61-1.4-9.9-2.16-4.31-1-8.63-1.97-12.88-3.16-4.91-1.37-9.75-2.96-14.62-4.48-2.59-.81-5.16-1.67-7.75-2.48-5.13-1.59-10.23-3.27-15.4-4.69-5.3-1.46-10.64-2.84-16.03-3.91-4.51-.89-9.13-1.27-13.69-1.9-3.63-.5-7.24-1.23-10.88-1.49-3.56-.26-7.17-.27-10.74-.02-4,.29-8,.81-11.94,1.57-3.87,.74-7.73,1.67-11.45,2.95-3.35,1.15-6.61,2.71-9.73,4.42-3.46,1.9-6.76,4.12-10.06,6.3-2.1,1.39-4.08,2.98-6.13,4.45-4.89,3.52-8.96,7.91-13.07,12.26-2.05,2.17-3.95,4.49-5.79,6.83-2.83,3.6-5.51,7.34-7.15,11.66-1.1,2.9-1.34,6-1.33,9.11,0,.56-.4,1.25-.83,1.64-1.83,1.67-3.71,3.29-5.64,4.85-2.01,1.63-2.95,3.93-4.09,6.12-1.62,3.13-1.7,6.6-2.27,9.95-1.1,6.38-3.7,11.96-8.96,15.88-3.25,2.42-7.07,3.37-11.23,3.47-3.3,.08-5.48-1.68-7.71-3.45-3.38-2.69-7.01-4.9-10.9-6.75-3.19-1.52-6.3-3.2-9.53-4.61-2.35-1.03-4.81-1.83-7.27-2.58-4.04-1.23-8.09-2.43-12.18-3.49-5.62-1.46-11.37-2.04-17.15-1.62-8.27,.59-16.53,1.61-24.39,4.37-4.96,1.74-10,3.59-13.82,7.53-2.75,2.83-5.44,5.71-8.3,8.73-.4-.32-1.02-.68-1.48-1.2-2.85-3.21-6.22-5.81-9.73-8.21-4.16-2.84-8.79-4.65-13.78-5.63-3.54-.7-7.01-1.75-10.53-2.6-.97-.23-1.97-.37-2.96-.43-2.34-.14-4.69-.42-7.01-.26-3.89,.26-7.78,.67-11.62,1.29-6.49,1.04-12.86,2.62-19.11,4.71-3.52,1.18-7.02,2.38-10.23,4.31-3.27,1.96-6.65,3.74-9.82,5.84-2.17,1.44-4.13,3.23-6.03,5.02-2.82,2.65-5.51,5.45-8.27,8.16-.26,.25-.66,.36-1.1,.55C0,222.23,0,222.02,0,221.69c3.04-3.09,6.05-6.09,9.13-9.04,4.38-4.2,9.21-7.77,14.71-10.39,2.99-1.42,5.87-3.15,8.98-4.23,5.13-1.77,10.36-3.27,15.62-4.6,4.18-1.06,8.43-1.99,12.7-2.45,5.92-.63,11.9-.57,17.76,.82,4.16,.98,8.3,2.06,12.41,3.22,4.73,1.33,8.92,3.71,12.62,6.93,2.55,2.22,5.07,4.48,7.03,6.21,2.24-1.92,4.79-3.72,6.87-5.96,3.93-4.24,8.84-6.72,14.07-8.85,5.29-2.16,10.79-3.34,16.42-3.97,4.63-.52,9.29-1.27,13.93-1.24,4.19,.02,8.48,.56,12.55,1.58,6.45,1.61,12.9,3.42,19.07,5.86,5.65,2.23,10.99,5.31,16.34,8.23,2.31,1.26,4.37,3.01,6.45,4.65,2.48,1.96,5.3,2.42,8.32,2.2,3.12-.22,6.02-1.1,8.69-2.79,2.75-1.75,3.69-4.73,5.19-7.35,1.93-3.38,2.05-7.17,2.56-10.87,.98-7.16,4.73-12.52,10.62-16.44,1.75-1.16,1.79-2.73,1.76-4.4-.09-4.63,1.33-8.82,3.96-12.52,2.97-4.19,6.09-8.29,9.43-12.19,4.72-5.5,9.83-10.62,15.75-14.87,3.91-2.8,7.68-5.83,11.77-8.33,5.98-3.66,12.08-7.27,19.04-8.75,5.47-1.16,11.03-1.91,16.56-2.8,4.6-.75,9.22-.8,13.84-.26,4.72,.55,9.42,1.27,14.12,1.94,4.01,.57,8.04,.99,12,1.79,4.4,.89,8.74,2.06,13.08,3.23,4.33,1.16,8.63,2.41,12.91,3.74,3.72,1.15,7.36,2.56,11.08,3.69,6.55,2,13.09,4,19.71,5.75,4.85,1.28,9.81,2.1,14.7,3.24,5.03,1.17,10.01,2.57,15.04,3.72,6.45,1.48,12.92,2.91,19.41,4.18,5.7,1.12,11.47,1.91,17.19,2.98,7.98,1.51,16,1.95,24.1,1.46,3.9-.24,7.69-.82,11.31-2.36,3.96-1.68,6.94-4.37,9.19-8.03,2.52-4.1,3.3-8.73,4.51-13.26,.91-3.43,2.06-6.81,3.28-10.14,1.03-2.84,2.09-5.71,3.55-8.34,1.69-3.05,3.62-6.03,5.82-8.73,6.5-8,13.83-15.23,21.26-22.34,2.32-2.23,4.71-4.6,7.52-6.07,5.24-2.74,10.94-4.02,16.95-2.97,1.59,.28,3.2,.48,4.83,.72,2.17-5.76,6.86-8.91,12.1-11.44,2.6-1.25,5.21-2.63,7.96-3.42,4.6-1.31,9.33-2.18,14.12-3.25,.12,.68,.12,1.36,.12,2.17Z"/>
      <path class="cls-4" d="M640,2.02c0,5.38,0,10.76-.11,16.27-4.97,2.43-9.95,4.5-14.65,7.1-3.77,2.09-7.32,4.64-10.74,7.29-4.36,3.39-8.56,7.02-11.77,11.62-.32,.46-1.08,.84-1.65,.85-4.2,.07-8.31,.88-12.15,2.36-5.43,2.08-10.7,4.64-15.88,7.29-2.6,1.34-4.82,3.4-7.28,5.03-3.72,2.46-7.1,5.3-10.08,8.62-.23,.26-.58,.42-.87,.52,1.56-2.66,3.05-5.26,4.67-7.78,2.61-4.06,5.61-7.84,9.16-11.1,2.41-2.21,5.05-4.19,7.71-6.1,5.45-3.92,11.41-6.81,17.91-8.56,1.38-.37,2.67-1.23,4.05-1.34,1.37-.11,1.91-.81,2.21-1.82,.98-3.37,3.39-5.78,5.75-8.06,3.16-3.07,6.61-5.9,10.17-8.51,3.71-2.72,7.62-5.2,11.61-7.51,3.87-2.24,7.95-4.13,11.94-6.17Z"/>
      <path class="cls-5" d="M554.82,69.07c.3-.21,.64-.36,.88-.63,2.98-3.32,6.36-6.15,10.08-8.62,2.46-1.63,4.68-3.7,7.28-5.03,5.18-2.66,10.45-5.21,15.88-7.29,3.83-1.47,7.95-2.28,12.15-2.36,.56,0,1.33-.39,1.65-.85,3.21-4.6,7.41-8.23,11.77-11.62,3.41-2.65,6.96-5.2,10.74-7.29,4.69-2.6,9.68-4.67,14.65-6.96,.11,.49,.11,.99,.11,1.6-2.95,1.39-5.94,2.57-8.83,3.94-5.06,2.41-9.96,5.14-14.31,8.68-3.22,2.63-6.2,5.57-9.09,8.57-1.54,1.6-2.73,3.56-3.94,5.45-.82,1.29-1.95,.59-2.78,.47-3.95-.61-7.62,.67-11.28,1.63-5.78,1.51-11.18,4.12-16.26,7.16-5.77,3.45-11.23,7.43-16.01,12.2-1.28,1.27-2.17,2.93-3.27,4.39-.41,.54-.88,1.03-1.43,1.67-1.24-2.65,.32-4.57,1.3-6.36,1.86-3.41,3.95-6.73,6.28-9.83,2.44-3.25,5.16-6.3,7.94-9.28,4.1-4.39,9.16-7.56,14.29-10.54,2.69-1.56,5.67-2.64,8.56-3.83,1.48-.61,3.01-1.17,4.57-1.46,2.45-.47,3.37-2.46,4.63-4.16,3.94-5.27,8.63-9.71,13.88-13.71,5.44-4.14,11.34-7.5,17.19-10.95,2.65-1.56,5.54-2.7,8.43-4.03,.11,.59,.11,1.18,.11,1.89-3.99,2.17-8.07,4.05-11.94,6.29-3.98,2.31-7.89,4.79-11.61,7.51-3.56,2.61-7.01,5.43-10.17,8.51-2.35,2.29-4.77,4.7-5.75,8.06-.3,1.01-.84,1.71-2.21,1.82-1.38,.11-2.67,.97-4.05,1.34-6.5,1.75-12.46,4.64-17.91,8.56-2.66,1.91-5.3,3.89-7.71,6.1-3.55,3.26-6.55,7.05-9.16,11.1-1.62,2.51-3.11,5.11-4.73,7.81-.07,.24-.06,.34-.06,.44,.03-.12,.07-.25,.1-.37Z"/>
      <path class="cls-3" d="M29.71,182.45c-1.31,.67-2.5,1.32-3.8,2.04-.83-.52-.97-.96,.04-1.7,1.95-1.43,3.91-2.94,6.09-3.92,3.66-1.65,7.44-3.09,11.28-4.3,5.65-1.78,11.52-2.56,17.42-2.64,4.02-.05,8.05,.34,12.06,.63,3.46,.25,6.94,.47,10.36,1.01,6.13,.98,12.23,2.17,18.34,3.31,2.42,.45,4.83,.98,7.22,1.56,1.23,.3,2.4,.83,3.62,1.15,.39,.1,1.06,.03,1.28-.23,2.69-3.17,6.1-5.4,9.57-7.58,8.73-5.47,18.48-6.44,28.41-6.25,6.35,.12,12.72,.49,18.91,2.16,2.28,.61,4.57,1.17,6.82,1.88,1.19,.38,2.36,1,1.76,2.92-1.69-.28-3.44-.49-5.15-.86-5.86-1.28-11.79-2.14-17.76-1.47-5.6,.63-11.02,2.08-16.22,4.4-5.29,2.37-10.07,5.47-14.44,9.21-3.35,2.86-6.2,6.19-8.58,9.92-.14,.23-.18,.52-.32,.92-.47-.13-1.05-.1-1.3-.38-2.6-2.94-5.98-4.7-9.55-6-4.65-1.69-9.38-3.27-14.17-4.5-3.7-.95-7.55-1.33-11.33-1.92-3-.47-6-.91-9.01-1.3-1.07-.14-2.17-.09-3.25-.1-6.41-.08-12.83-.36-19.24-.18-5.18,.15-10.35,.83-15.52,1.36-1.16,.12-2.29,.55-3.54,.85Zm71.72,2.31c5.42,1.37,10.11,4.14,14.4,7.78,4.51-6.77,10.23-12.05,16.91-16.29,6.68-4.24,13.97-7,21.81-8.28-15.68-.95-30.16,1.64-41.24,13.86-.78-.33-1.36-.66-1.99-.82-2.3-.57-4.61-1.12-6.93-1.61-3.12-.66-6.24-1.3-9.37-1.88-2.8-.52-5.62-.99-8.44-1.39-3.11-.44-6.22-.85-9.34-1.15-3.54-.34-7.08-.58-10.63-.79-4.78-.27-9.55-.2-14.27,.66-3.46,.63-6.91,1.32-10.32,2.17-1.8,.45-3.5,1.29-5.24,1.95,.79,.28,1.5,.33,2.2,.28,5.05-.36,10.1-.98,15.16-1.06,5.53-.09,11.08,.24,16.61,.54,3.22,.18,6.46,.52,9.64,1.05,3.82,.64,7.61,1.49,11.38,2.39,3.17,.75,6.3,1.71,9.68,2.59Z"/>
      <path class="cls-1" d="M329.75,134.96c-4.49,1.58-8.88,3.11-13.23,4.75-3.2,1.21-6.37,2.51-9.5,3.88-2.35,1.03-4.66,2.18-6.92,3.4-3.31,1.78-6.57,3.63-9.82,5.53-1.72,1.01-3.37,2.14-5.03,3.25-4.41,2.92-8.81,5.85-13.2,8.8-1,.67-1.91,1.38-3.25,1.22-.84-.1-1.21-.39-1.18-1.23,.07-2.31,.83-4.3,2.22-6.19,3.2-4.35,6.55-8.58,10.47-12.29,3.28-3.11,6.64-6.15,10.17-8.96,1.99-1.58,4.36-2.7,6.62-3.91,5.35-2.86,10.93-5.19,16.82-6.71,6.15-1.59,12.38-2.42,18.73-2.85,4.57-.31,9.12-.95,13.7-.73,3.53,.17,6.95,1.04,10.22,2.38,.43,.18,.79,1.08,.75,1.61-.03,.41-.7,1.01-1.17,1.11-2.6,.57-5.26,.88-7.83,1.54-5.02,1.27-10.01,2.69-15,4.1-1.18,.33-2.3,.86-3.57,1.31Zm-30.66,10.61c2.83-1.37,5.62-2.83,8.5-4.08,4.15-1.8,8.32-3.59,12.57-5.13,5.56-2.02,11.16-3.95,16.82-5.62,4.46-1.32,9.05-2.2,13.59-3.27,1.27-.3,2.54-.58,3.8-.87,0-.13,0-.26,.01-.39-1.22-.3-2.42-.68-3.65-.89-2.25-.38-4.54-1.05-6.77-.92-6.48,.37-12.95,1.01-19.41,1.67-4.89,.5-9.62,1.72-14.24,3.41-5.15,1.89-10.06,4.21-14.87,6.89-4.65,2.59-8.58,5.98-12.44,9.54-4.26,3.92-8.11,8.2-11.65,12.78-1.22,1.58-2.03,3.24-2.22,5.42,.45-.19,.76-.26,1.02-.43,3.32-2.16,6.58-4.4,9.94-6.49,6.24-3.88,12.53-7.69,18.99-11.61Z"/>
      <path class="cls-1" d="M585.27,122.81c-.77,.58-1.45,1.1-2.15,1.59-1.22,.85-2.34,.54-3.39-.36-.97-.84-1.21-1.82-.82-3.09,2.4-7.7,5.67-15.01,10.55-21.45,3.25-4.29,6.88-8.33,11.34-11.45,1.23-.86,2.68-1.61,4.13-1.88,1.16-.21,2.46,.38,4.02,.68-1.71,3.27-4.32,5.68-3.97,9.61,.94-.21,1.84-.35,2.7-.61,2.39-.74,4.81-1.37,7.28-.57,.92,.3,1.76,.93,2.51,1.56,.21,.17,.16,1.05-.08,1.3-1.87,1.94-3.64,4.04-5.78,5.63-4.71,3.48-9.68,6.61-14.44,10.01-3.4,2.43-6.63,5.09-9.95,7.63-.6,.46-1.24,.89-1.94,1.4Zm28.97-22.95c.34-.4,.75-.76,1.02-1.2,.23-.37,.3-.84,.44-1.27-.43-.14-.89-.44-1.29-.39-2.43,.34-4.9,.58-7.26,1.21-1.67,.45-2.94-.03-4.08-.98-1.03-.86-.31-1.95,0-2.92,.21-.63,.45-1.26,.77-1.85,.7-1.31,1.45-2.6,2.37-4.23-2.51,.41-4.49,1.34-6.2,2.63-1.85,1.4-3.54,3.05-5.1,4.76-2.14,2.35-4.47,4.66-6.03,7.38-2.94,5.15-5.48,10.54-7.98,15.93-.54,1.16-.25,2.72-.35,4.17,2.22,.13,3.41-1.11,4.67-2.05,5.16-3.84,10.22-7.82,15.41-11.62,4.42-3.24,8.97-6.3,13.62-9.59Z"/>
      <path class="cls-4" d="M554.76,69.1c.02,.09-.01,.21-.04,.34,0-.1,0-.2,.04-.34Z"/>
      <path class="cls-4" d="M101.31,184.75c-3.26-.88-6.39-1.83-9.56-2.58-3.77-.9-7.56-1.75-11.38-2.39-3.18-.53-6.41-.87-9.64-1.05-5.53-.3-11.07-.63-16.61-.54-5.06,.08-10.11,.7-15.16,1.06-.7,.05-1.41,0-2.2-.28,1.75-.66,3.45-1.5,5.24-1.95,3.41-.85,6.86-1.54,10.32-2.17,4.72-.86,9.5-.93,14.27-.66,3.55,.2,7.1,.45,10.63,.79,3.12,.3,6.24,.71,9.34,1.15,2.82,.4,5.63,.87,8.44,1.39,3.13,.58,6.25,1.22,9.37,1.88,2.32,.49,4.63,1.04,6.93,1.61,.63,.16,1.22,.49,1.99,.82,11.07-12.22,25.55-14.82,41.24-13.86-7.84,1.28-15.12,4.04-21.81,8.28-6.68,4.23-12.39,9.52-16.91,16.29-4.3-3.64-8.98-6.41-14.52-7.79Z"/>
      <path class="cls-6" d="M298.99,145.62c-6.37,3.88-12.66,7.68-18.89,11.56-3.36,2.09-6.63,4.33-9.94,6.49-.25,.17-.57,.24-1.02,.43,.2-2.18,1.01-3.84,2.22-5.42,3.54-4.58,7.39-8.86,11.65-12.78,3.86-3.56,7.79-6.95,12.44-9.54,4.8-2.67,9.71-5,14.87-6.89,4.62-1.69,9.35-2.91,14.24-3.41,6.46-.66,12.93-1.3,19.41-1.67,2.23-.13,4.52,.54,6.77,.92,1.23,.21,2.44,.59,3.65,.89,0,.13,0,.26-.01,.39-1.27,.29-2.54,.57-3.8,.87-4.54,1.07-9.13,1.95-13.59,3.27-5.67,1.68-11.27,3.6-16.82,5.62-4.25,1.54-8.42,3.33-12.57,5.13-2.88,1.25-5.67,2.71-8.59,4.12Z"/>
      <path class="cls-6" d="M614.17,99.93c-4.57,3.22-9.12,6.28-13.54,9.52-5.19,3.8-10.25,7.78-15.41,11.62-1.26,.94-2.45,2.17-4.67,2.05,.1-1.45-.19-3,.35-4.17,2.51-5.38,5.04-10.78,7.98-15.93,1.56-2.72,3.89-5.02,6.03-7.38,1.56-1.72,3.25-3.37,5.1-4.76,1.7-1.29,3.69-2.21,6.2-2.63-.92,1.63-1.67,2.91-2.37,4.23-.31,.59-.56,1.22-.77,1.85-.31,.97-1.04,2.06,0,2.92,1.15,.95,2.41,1.43,4.08,.98,2.36-.63,4.83-.88,7.26-1.21,.4-.06,.86,.25,1.29,.39-.14,.43-.22,.89-.44,1.27-.27,.44-.67,.8-1.09,1.27Z"/>
    </g>
  </g>
</svg>