<?xml version="1.0" encoding="UTF-8"?>
<svg id="Layer_2" data-name="Layer 2" xmlns="http://www.w3.org/2000/svg" viewBox="0 0 640 338.4">
  <defs>
    <style>
      .cls-1 {
        fill: #514961;
      }

      .cls-2 {
        fill: #25173d;
      }

      .cls-3 {
        fill: #2e2145;
      }

      .cls-4 {
        fill: #3c2654;
      }

      .cls-5 {
        fill: #3d2d4e;
      }

      .cls-6 {
        fill: #3a2655;
      }

      .cls-7 {
        fill: #4a3974;
      }

      .cls-8 {
        fill: #6e6586;
      }

      .cls-9 {
        fill: #2c193f;
      }

      .cls-10 {
        fill: #292347;
      }
    </style>
  </defs>
  <g id="Layer_12" data-name="Layer 12">
    <g>
      <path class="cls-4" d="M0,189.12c.1-.11,.21-.11,.39-.15,.49-.14,.82-.44,1.3-.62,.17-.1,.26-.16,.42-.23,.19-.05,.29-.1,.48-.15,.3,0,.52,.07,.82-.01,.23-.1,.39-.17,.62-.3,.57-.3,1.11-.48,1.53-1.01,.33-.37,.62-.63,1.13-.71,.56,.06,.93-.12,1.33-.48,.54-.27,1.06-.32,1.59-.62,.82-.42,1.63-.66,2.28-1.34,.26-.25,.49-.38,.85-.43,.77,.08,1.29-.19,1.79-.76,.27-.25,.5-.37,.87-.42,2.05-.38,3.82-1.25,5.67-2.15,.28-.24,.51-.37,.88-.43,1.14-.01,2.1-.27,2.96-1.07,.3-.26,.56-.36,.96-.41,1.75-.2,3.24-.89,4.78-1.4,5.88-1.95,11.88-3.45,18-4.34,3.87-.57,7.78-.9,11.71-1.09,3.78-.18,7.57-.23,11.34-.29,2.84-.05,5.73,0,8.6,.25,3.24,.28,6.48,.65,9.72,.93,4.11,.35,8.17,1.06,12.24,1.68,8.39,1.28,16.65,3.2,24.88,5.25,6.86,1.7,13.53,3.92,20.05,6.63,4.48,1.87,8.72,4.21,13.01,6.45,7.1,3.7,14.11,7.56,20.91,11.8,6.82,4.25,13,9.32,19.25,14.33,6.47,5.2,13.23,10,20.1,14.66,3.29,2.23,6.53,4.55,9.83,6.78,8.78,5.94,17.65,11.7,27.04,16.67,7.16,3.79,14.4,7.43,21.76,10.82,7.05,3.25,14.3,6.04,21.6,8.69,8.75,3.18,17.77,5.4,26.83,7.5,5.8,1.34,11.69,1.93,17.59,2.55,5.15,.54,10.3,.87,15.48,.8,4.12-.06,8.21-.52,12.31-.75,3.78-.22,7.53-.64,11.4-1.09,.26-.07,.41-.1,.67-.13,4.32-.67,8.51-1.45,12.72-2.1,4.78-.75,9.54-1.58,14.15-3.09,4.24-1.39,8.32-3.14,12.42-4.89,4.49-1.92,9.08-3.61,13.52-5.66,6.55-3.03,12.41-7.02,17.11-12.57,.4-.48,.84-.92,1.28-1.36,.69-.7,1.38-.87,2.3-.31,1.18,.72,1.94,.37,1.87-.97-.31-5.81,3.39-9.32,7.36-12.43,4.26-3.33,9.37-4.9,14.75-5.58,2.32-.29,4.68-.26,6.96-.93,1.9-.56,3.32-1.71,4.46-3.22,2.76-3.65,5.95-6.88,9.37-9.89,1.94-1.71,3.65-3.66,5.63-5.35,3.66-3.12,7.62-5.79,11.61-8.45,6.02-4.02,12.25-7.67,18.62-11.11,4.76-2.57,9.6-4.98,14.6-7.07,4.2-1.75,8.38-3.54,12.69-5,5.68-1.91,11.48-3.37,17.34-4.63,6.61-1.42,13.27-2.48,19.98-3.22,4.56-.5,9.12-1.13,13.74-.97,1.14,.04,2.29-.14,3.54-.25,.36-.04,.6-.05,.97-.04,5.51,.31,10.91,.57,16.21,1.71,.57,.12,1.13,.21,1.64,.74,.09,28.16,.07,56.2,.08,84.36-.23,1.1-1.02,.88-1.63,.82-6.44-.64-12.83-.05-19.2,.81-9.01,1.21-17.77,3.47-26.2,6.89-4.33,1.76-8.35,4.07-11.53,7.64-1.27,1.43-2.11,3.07-2.85,4.79-1.4,3.24-3.68,4.32-7.05,3.33-2.48-.73-4.95-1.51-7.43-2.26-8.34-2.5-16.87-4.03-25.51-4.99-4.67-.52-9.32-1.16-13.99-1.64-4.61-.47-9.25-.47-13.87,.25,1.57,.41,3.17,.67,4.67,1.31,1.62,.69,3.03,1.66,4.13,3.03,1.39,1.74,1.27,3.24-.27,4.84-1.01,1.04-2.2,1.86-3.33,2.74-2.2,1.71-4.12,3.73-6.29,5.47-5,4.02-10.35,7.43-16.47,9.52-3.37,1.15-6.87,1.75-10.33,2.53-6.74,1.51-13.47,3.05-20.26,4.31-7.87,1.46-15.7,3.15-23.66,4.06-1.52,.17-3.06,.25-4.58,.32-5.98,.28-11.98,.65-17.96,.29-7.31-.44-14.63-.64-21.93-1.3-8.65-.78-17.26-1.75-25.81-3.22-7.13-1.23-14.3-2.22-21.43-3.51-3.4-.61-6.75-1.47-10.12-2.18-4.79-1.01-9.6-1.82-14.41-2.72-3.87-.72-7.76-1.28-11.71-1.11-3.5,.14-6.99,.38-10.37,1.4-.91,.27-1.76,.35-2.61-.22-3.93-2.66-8.32-4.32-12.72-5.97-5.3-1.98-10.66-3.77-16.15-5.19-4.57-1.18-9.21-1.85-13.87-2.38-4.52-.51-9.05-.91-13.59-1.19-9.3-.57-18.6-.38-27.89-.18-8.77,.18-17.51,1.25-26.06,3.27-5.72,1.36-11.08,3.7-15.75,7.43-1.96,1.56-3.25,3.62-4.71,5.57-.85,1.14-1.33,1.27-2.22,.23-2.07-2.4-4.38-4.57-6.64-6.79-8.16-8.01-17.46-14.39-27.99-18.83-5.98-2.53-12.2-4.34-18.85-3.93-1.15,.07-2.29,.2-3.43,.36-1.59,.23-2.7-.38-3.44-1.75-1.1-2.02-2.35-3.96-3.63-5.87-3.32-4.94-7.81-8.66-12.53-12.15-3.97-2.94-8.02-5.75-12.35-8.15-5.23-2.89-10.74-5.09-16.43-6.85-3.71-1.14-7.45-2.21-11.26-2.96-4.19-.83-8.39-1.49-12.69-1.47-4.65,.02-9.28,0-13.9,.78-4.9,.83-9.59,2.3-14.23,4.01-1.94,.71-3.8,1.6-5.7,2.38-.5,.2-1.01,.64-1.62,.03-.03-18.07,0-36.01-.11-54.08-.06-.25-.06-.38-.06-.61Z"/>
      <path class="cls-1" d="M2.94,188.15c-.23,0-.38,0-.65-.02,1.11-1.05,2.6-1.6,4-2.32,9.8-5.02,20.04-8.92,30.63-11.87,8.52-2.38,17.22-3.65,26.09-3.86,6.94-.17,13.86-.53,20.8,.11,9.79,.9,19.51,2.22,29.14,4.15,9.59,1.92,19.07,4.26,28.35,7.39,8.13,2.74,15.57,6.94,23.1,10.94,8.12,4.33,16.15,8.81,23.68,14.14,4.07,2.88,7.89,6.09,11.77,9.21,5.49,4.41,11.18,8.56,16.97,12.57,7.33,5.08,14.66,10.14,22.1,15.04,9.78,6.44,20.05,12,30.53,17.19,8.2,4.07,16.55,7.8,25.09,11.1,.81,.31,1.26,.28,1.79-.46,3.72-5.17,8.81-8.35,14.8-10.36,7.3-2.46,14.78-3.13,22.38-2.5,3.84,.32,7.46,1.67,10.96,3.28,.09,.04,.18,.08,.26,.11,.84,.35,1.68,.99,2.51,.97,1.09-.03,.8-1.42,1.34-2.12,3.05-3.95,7.23-6,11.85-7.42,10.22-3.14,20.78-4.41,31.33-5.68,3.24-.39,6.39-1.16,9.54-2.01,2.25-.6,2.74-2.24,3.03-4.19,.51-3.5,.95-7.03,2.28-10.35,2.69-6.71,7.41-11.88,12.58-16.75,6.69-6.31,14.39-10.96,22.94-14.22,4.72-1.8,9.67-2.69,14.67-3.3,2.43-.29,4.87-.23,7.31-.24,1.09,0,1.44-.22,1.08-1.41-.71-2.38-1.2-4.79-1.28-7.32-.11-3.22,.93-5.99,2.84-8.39,3.41-4.27,6.93-8.48,11.41-11.7,6.97-5.02,14.56-8.59,23.16-9.89,7.57-1.14,15.16-2.21,22.59-4.15,5.07-1.33,9.86-3.34,14.49-5.81,3.34-1.78,6.63-3.64,9.83-5.66,4.49-2.83,6.78-7.78,5.82-12.33-.49-2.32-1.95-4.02-3.56-5.62-2.1-2.09-4.28-4.1-5.78-6.73-3.06-5.37-3.67-11.13-2.87-17.11,.57-4.27,1.93-8.31,4.35-11.92,2.57-3.84,5.88-6.65,10.64-7.41,5.29-.84,10.59-1.71,15.87-2.63,2.52-.44,4.81-1.58,7.14-2.57,.73-.31,.88-.69,.35-1.42-1.29-1.79-1.17-2.85,.11-4.68,2.34-3.35,5.52-5.4,9.48-6.26,.73-.16,1.28-.32,.68-1.16-2.08-2.92-1.75-6.21-1.33-9.43,1.68-12.92,7.86-23.66,16.32-33.28,5.69-6.48,12.87-10.78,20.53-14.43,4.47-2.13,9.07-3.88,13.89-5.4,.11,91.67,.11,183.38-.03,275.25-.19,.1-.26,.04-.38-.14-.36-2.32-.15-4.54-.19-6.88,.06-1.87-.29-3.62,.33-5.44,.08-28.32,.08-56.53,.07-84.87-.23-.39-.32-.7-.36-1.16-.02-33.74-.01-67.35-.01-100.97,0-23.93,0-47.86,0-71.79,0-.38,0-.77,0-1.15-.02-1.73-.05-1.72-1.71-1.17-6.81,2.26-13.28,5.25-19.45,8.89-3.4,2.01-6.68,4.24-9.4,7.08-4.05,4.21-7.77,8.7-10.79,13.77-3.27,5.49-5.76,11.25-7.19,17.47-.72,3.1-.99,6.23-.81,9.41,.08,1.39,.61,2.59,1.23,3.79,.77,1.51,.51,2.09-1.12,2.44-3.68,.8-6.61,2.71-8.85,5.73-.99,1.34-1.26,2.61-.23,4.08,.78,1.11,.51,1.88-.94,2.59-2.15,1.05-4.4,1.89-6.74,2.47-3.59,.9-7.3,1.03-10.92,1.78-1.97,.41-3.96,.66-5.94,1.07-4.31,.89-7.34,3.47-9.59,7.02-4.2,6.64-5.25,13.95-3.8,21.57,.79,4.16,2.8,7.83,5.85,10.86,1.09,1.08,2.19,2.15,3.25,3.26,3.22,3.35,3.76,7.25,2.11,11.44-1.07,2.71-2.79,4.97-5.35,6.57-6.02,3.78-12.16,7.33-18.83,9.85-4.26,1.61-8.7,2.66-13.19,3.49-6.27,1.15-12.59,2.05-18.84,3.28-4.22,.83-8.22,2.23-11.95,4.41-3.19,1.86-6.5,3.54-9.28,6.02-3.77,3.35-7.18,7.05-10.09,11.19-2.17,3.09-2.23,6.55-1.66,10.08,.21,1.32,.66,2.6,.99,3.9,.43,1.69,.03,2.2-1.71,2.27-4.79,.21-9.56,.49-14.28,1.44-7.1,1.42-13.55,4.44-19.71,8.12-6.66,3.97-12.27,9.21-17.25,15.07-4.07,4.79-6.76,10.32-7.4,16.72-.15,1.47-.48,2.93-.82,4.38-.4,1.7-1.4,2.75-3.06,3.29-3.44,1.12-6.96,1.78-10.54,2.2-8.71,1.04-17.4,2.25-25.95,4.26-2.79,.66-5.54,1.55-8.23,2.59-3.08,1.19-5.49,3.29-7.63,5.73-.35,.4-.54,.9-.75,1.38-.63,1.49-.92,1.57-2.38,.98-2.36-.95-4.65-2.04-7.08-2.83-2.94-.96-5.99-1.31-9.03-1.68-1.25-.15-2.48,.17-3.72,.26-4.11,.31-8.25,.46-12.23,1.62-5.29,1.53-10.28,3.69-14.4,7.51-1.41,1.31-2.32,3.06-3.85,4.41-.7,.25-1.23,.02-1.77-.18-6.78-2.56-13.4-5.47-19.95-8.56-7.68-3.63-15.21-7.53-22.62-11.67-5.27-2.95-10.37-6.19-15.4-9.55-8.69-5.8-17.3-11.73-25.82-17.78-6.22-4.41-12.12-9.23-18.07-13.99-7.09-5.69-14.83-10.42-22.82-14.72-5.82-3.13-11.6-6.36-17.55-9.27-6.61-3.24-13.5-5.7-20.62-7.57-8.81-2.32-17.66-4.45-26.67-5.89-6.43-1.03-12.89-1.84-19.37-2.51-6.17-.64-12.35-.68-18.51-.47-5.44,.19-10.88,.41-16.31,1.16-8.23,1.15-16.16,3.3-23.97,6.01-.18,.06-.36,.12-.67,.15-.33,.07-.55,.15-.85,.26-.85,.74-1.89,.8-2.9,1.18-.33,.08-.54,.15-.84,.26-1.87,.96-3.8,1.57-5.77,2.33-.33,.08-.55,.15-.85,.27-.53,.45-1.07,.7-1.74,.89-.32,.08-.55,.15-.85,.27-.71,.64-1.62,.8-2.34,1.44-.48,.49-.99,.63-1.66,.61-.38,.28-.71,.48-1.19,.57-.5,0-.76,.28-1.13,.54-.54,.52-1.22,.65-1.77,1.16-.19,.14-.31,.22-.51,.3-.23,.02-.39,.02-.63,.02Z"/>
      <path class="cls-8" d="M639.63,275.48c.1-.1,.23-.11,.3-.12,.07,20.91,.07,41.83,.07,62.88-.72,.14-1.44,.16-2.16,.16-211.85,0-423.71,0-635.56,0-.67,0-1.34-.01-2.15-.02-.13-49.5-.13-99.01-.13-148.64,.48,.4,.26,1.06,.26,1.65,.02,17.44,.02,34.88,.03,52.46,.42,.6,.45,1.18,.45,1.75,0,5.3,.06,10.61-.03,16.06,.06,4.19,.06,8.24,.01,12.43,.07,9.69,.02,19.23,.03,28.77,0,10.55,0,21.1,0,31.65,0,.48,.02,.96,0,1.44-.03,.99,.47,1.38,1.41,1.37,.43,0,.86,.01,1.29,.01,211.02,0,422.04,0,633.05,0q2.72,0,2.72-2.8c0-18.8,0-37.6,0-56.4,0-.86-.13-1.74,.38-2.66Z"/>
      <path class="cls-3" d="M592.33,32.06c-1.67,3.52-2.86,7.11-4.27,10.62-.34,.84-.64,1.71-1.24,2.41-.66,.76-1.4,.65-1.69-.31-.24-.82-.41-1.67-.27-2.55,1.74-11.2,6.37-20.94,14.27-29.18,4.15-4.33,8.5-8.27,13.9-10.95,1.55-.77,3.13-1.44,4.81-1.85,.89-.22,1.65-.02,2.13,.77,.46,.77-.2,1.27-.63,1.73-2.21,2.35-4.9,4.13-7.42,6.11-7.9,6.21-14.9,13.2-19.26,22.46-.1,.22-.19,.44-.33,.76Z"/>
      <path class="cls-3" d="M327.59,249.39c1.36,.51,2.61,.98,3.85,1.48,.44,.18,.87,.4,1.27,.66,.72,.47,.96,1.27,.89,2-.07,.68-.89,.64-1.42,.74-2.76,.51-5.55,.24-8.31,.12-7.9-.34-15.3,1.33-22.22,5.15-.96,.53-1.83,1.22-2.74,1.84-.16,.11-.28,.26-.44,.37-.69,.45-1.5,.28-2.04-.05-.66-.41,0-1.07,.25-1.49,2.92-4.8,6.72-8.56,12.27-10.23,6.12-1.84,12.27-2.52,18.62-.59Z"/>
      <path class="cls-8" d="M1.68,188.3c-.11,.52-.57,.58-1.11,.66,.14-.47,.6-.53,1.11-.66Z"/>
      <path class="cls-7" d="M639.72,275.36c0,20.15,0,40.29,0,60.43q0,2.02-2,2.02c-211.82,0-423.64,0-635.46,0q-1.97,0-1.97-2.04c0-20.43,0-40.86,0-61.42,1.88-2.06,4.19-3.32,6.63-4.31,5.85-2.35,11.86-2.64,18.06-1.56,4.73,.83,9.42,1.73,13.93,3.43,3.92,1.48,7.55,3.53,11.13,5.68,5.65,3.4,10.77,7.52,15.77,11.78,3.2,2.74,6.4,5.51,8.77,9.07,.73,1.09,1.75,1.57,3.05,1.57,2.49,0,5-.13,7.48,.03,5.45,.35,10.94,.58,16.19,2.24,4.86,1.53,9.47,3.65,13.91,6.17,6.19,3.53,11.96,7.62,17.3,12.32,1.04,.92,2.23,1.67,3.3,2.54,1.79,1.46,3.45,3.04,4.66,5.04,.37,.61,.88,1.13,1.34,1.69,.24,.29,.54,.66,.96,.46,.46-.22,.25-.68,.15-1.02-.41-1.43-.92-2.84-1.66-4.13-2.04-3.58-4.12-7.12-7.02-10.13-1.95-2.03-3.54-4.39-5.39-6.53-2.96-3.43-6.59-5.97-10.31-8.43-5.44-3.6-11.23-6.44-17.55-8.09-6.21-1.62-12.49-2.56-18.89-1.11-1.02,.23-1.73,0-2.35-.87-5.52-7.81-12.6-14-20.35-19.48-4.31-3.05-8.83-5.78-13.62-8.01-5.57-2.59-11.44-4.07-17.53-4.83-2.71-.34-5.44-.77-8.14-.73-5.6,.09-11.21,.44-16.41,2.97-1.11,.54-1.87,1.67-3.28,1.8-.1-5.92-.11-11.79-.12-17.79,4.88-2.31,9.84-4.27,14.98-5.76,7.73-2.24,15.66-2.5,23.59-2.07,6.44,.35,12.7,1.95,18.89,3.76,5.29,1.54,10.42,3.52,15.4,5.85,3.07,1.44,5.95,3.23,8.78,5.1,3.5,2.31,6.9,4.77,10.17,7.39,4.02,3.21,7.59,6.84,10.28,11.29,.91,1.51,1.87,2.99,2.69,4.56,.92,1.75,2.52,1.24,3.93,1.06,4.22-.52,8.37-.3,12.49,.78,3.7,.97,7.34,2.1,10.83,3.66,2.48,1.11,4.83,2.52,7.23,3.82,4.28,2.32,8.16,5.24,12.07,8.1,2.07,1.52,3.95,3.32,5.78,5.14,2.67,2.67,5.53,5.17,7.91,8.14,.36,.44,.81,.96,1.29,.05,1.95-3.66,4.84-6.38,8.38-8.51,3.88-2.33,8.02-4.08,12.38-5.09,4.25-.99,8.59-1.67,12.94-2.23,12.82-1.64,25.7-1.14,38.56-1.08,4.22,.02,8.44,.76,12.67,1.06,5,.36,9.95,1.01,14.84,2.08,3.3,.72,6.55,1.69,9.79,2.7,4.19,1.31,8.29,2.86,12.39,4.4,3.43,1.29,6.77,2.8,9.77,4.96,.49,.35,.98,.32,1.5,.15,4.9-1.56,9.96-1.77,15.02-1.56,4.09,.17,8.09,1.16,12.13,1.84,8.88,1.49,17.58,3.84,26.47,5.26,7.47,1.2,14.95,2.32,22.42,3.52,4.94,.79,9.91,1.26,14.89,1.72,3.84,.36,7.68,.73,11.55,.89,3.91,.17,7.83,.3,11.72,.6,4.12,.31,8.24,.3,12.34,.17,5.76-.19,11.52-.39,17.24-1.3,5.32-.84,10.57-1.97,15.87-2.88,9.07-1.56,17.97-3.9,27-5.6,8.15-1.53,15.26-5.2,21.66-10.23,3.67-2.88,7.13-6.05,10.66-9.11,1.71-1.48,1.62-2.96,.05-4.66-1.94-2.11-4.45-3.03-7.17-3.57-.76-.15-2.13-.05-2.11-.66,.02-1.04,1.39-.61,2-.62,3.04-.04,6.05-.57,9.14-.28,3.32,.3,6.65,.54,9.95,.99,4.48,.62,8.99,.92,13.46,1.61,4.71,.72,9.38,1.59,14.02,2.66,4.38,1.01,8.66,2.35,12.91,3.75,3.12,1.03,5.74,.38,7.01-2.97,1.53-4.02,4.42-6.83,7.93-9.12,4.05-2.65,8.51-4.35,13.09-5.88,3.25-1.08,6.57-2.02,9.87-2.81,3.11-.75,6.33-1.29,9.55-1.7,5.84-.75,11.67-1.26,17.56-1.07,1.14,.04,2.28,.18,3.55,.27,.13,1.74,.13,3.49,.12,5.38-.49,.55-1.09,.48-1.65,.49-4.07,.03-8.14-.07-12.2,.29-9.89,.87-19.2,3.51-27.64,8.87-3.2,2.03-6.36,4.11-9.02,6.86-.58,.6-1.04,1.24-1.25,2.06-.2,.8,.14,.96,.83,.73,.18-.06,.35-.16,.52-.25,9.12-4.81,18.75-8.25,28.72-10.78,3.53-.9,7.15-1.31,10.8-1.38,2.06-.04,4.1-.38,6.16-.27,1.53,.08,3.05,.19,4.64,.6,.09,.07,.11,.09,.12,.1Z"/>
      <path class="cls-2" d="M295.76,272.87c.69-.88,1.32-1.65,1.94-2.43,3.3-4.13,7.67-6.63,12.52-8.51,4.56-1.77,9.31-2.25,14.12-2.79,5.13-.57,10.08-.25,14.98,1.26,2.56,.79,4.99,1.93,7.44,2.99,.59,.26,1.1,.68,1.44-.31,1.17-3.35,3.86-5.3,6.75-6.92,3.48-1.95,7.39-2.85,11.23-3.83,5.51-1.4,11.14-2.17,16.75-3.03,4.09-.63,8.24-.99,12.34-1.6,2.61-.39,5.17-1.03,7.58-2.09,1.73-.76,1.74-2.63,2-4.21,.78-4.67,1.51-9.31,3.87-13.55,2.91-5.24,6.93-9.46,11.33-13.41,2.46-2.21,4.88-4.49,7.64-6.27,5.32-3.42,10.89-6.42,16.97-8.28,5.26-1.61,10.67-2.56,16.17-2.68,1.23-.03,2.45-.21,3.7-.15,1.39,.06,1.59-.28,1.22-1.63-.52-1.93-1.11-3.84-1.32-5.86-.44-4.23,.91-7.83,3.66-10.95,3.23-3.65,6.24-7.55,10.32-10.34,6.35-4.34,12.93-8.12,20.75-9.29,7.02-1.06,14.02-2.35,20.99-3.72,4.54-.9,8.98-2.29,13.21-4.21,5.67-2.57,11.16-5.49,16.24-9.11,5.07-3.61,7.73-11.87,1.71-17.38-2.07-1.89-4.12-3.83-5.62-6.3-2.02-3.33-3.25-6.87-3.53-10.75-.48-6.73,.81-13.08,4.54-18.76,2.29-3.49,5.32-6.04,9.64-6.88,4.78-.93,9.58-1.64,14.4-2.32,3.22-.45,6.29-1.59,9.24-3.02,1.06-.51,1.62-1.08,.55-2.24-1.03-1.12-.93-2.41-.07-3.68,2.4-3.54,5.62-5.81,9.88-6.51,.75-.12,1.31-.4,.84-1.19-2.99-5-1.61-10.15-.51-15.24,1.41-6.48,4.34-12.31,7.82-17.92,2.43-3.92,5.4-7.4,8.48-10.8,5.76-6.35,13.13-10.25,20.72-13.84,3.47-1.64,7.11-2.83,10.67-4.22,1.04-.4,1.38-.29,1.38,.95-.03,58.17-.03,116.34-.04,174.65-.43,.53-.96,.58-1.48,.49-3.14-.5-6.28-.98-9.45-1.24-2.22-.18-4.45-.25-6.78-.05-.32,.08-.54,.08-.86,.07-.66-.4-1.31-.26-1.91-.26-6.67-.1-13.29,.75-19.87,1.62-7.14,.95-14.23,2.31-21.26,3.98-10.6,2.51-20.71,6.33-30.47,11.01-8.46,4.06-16.71,8.56-24.56,13.74-4.76,3.14-9.61,6.15-13.96,9.88-2.11,1.81-4.17,3.68-6.12,5.66-3.38,3.45-7.01,6.67-9.85,10.64-1.42,1.99-3.64,2.8-6,2.99-4.21,.35-8.42,.66-12.37,2.31-3.44,1.43-7.02,2.7-9.51,5.71-1.67,2.01-3.7,3.76-4.56,6.38-.36,1.08-.39,2.15-.45,3.25-.08,1.44-.59,1.86-1.93,1.4-.95-.32-1.53-.02-2.15,.62-2.79,2.89-5.44,5.93-8.73,8.3-4.65,3.36-9.73,5.89-15.04,8.03-4.22,1.69-8.41,3.45-12.56,5.3-5.97,2.65-12.18,4.51-18.66,5.46-4.97,.73-9.9,1.67-14.85,2.51-.38,.06-.74,.21-1.16,.46-.21,.07-.34,.08-.56,.08-2.97,0-5.79,.55-8.64,.72-5.19,.32-10.38,.77-15.59,.9-7.01,.17-13.92-.71-20.86-1.41-3.44-.34-6.84-.83-10.19-1.55-6.63-1.43-13.22-3.09-19.73-5.03-4.17-1.25-8.29-2.64-12.38-4.15-.67-.25-1.41-.44-1.4-1.46Z"/>
      <path class="cls-2" d="M565.81,200.28c-5.18,1.61-10.14,3.49-14.92,5.77-3.08,1.47-6.01,3.24-9.03,4.84-2.38,1.26-4.61,2.85-7.34,3.36-.6,.11-1.31,.34-1.7-.32-.44-.74-.05-1.38,.55-1.88,1.73-1.42,3.4-2.93,5.22-4.23,2.83-2.03,5.65-4.1,8.67-5.84,4.82-2.77,9.72-5.41,14.89-7.54,6.61-2.72,13.4-4.95,20.23-7,5.81-1.75,11.72-3.28,17.92-3.38,3.41-.06,6.73-.03,9.94,1.22,.84,.33,1.53,.66,1.59,1.76,.06,1.18-.61,1.56-1.55,1.9-4.05,1.47-8.25,2.22-12.47,3.01-5.84,1.1-11.73,1.98-17.46,3.65-4.85,1.42-9.71,2.81-14.54,4.67Z"/>
      <path class="cls-9" d="M295.72,272.76c.18,.88,.91,.96,1.53,1.19,5.06,1.88,10.18,3.53,15.38,4.98,3.99,1.12,8,2.17,12.01,3.17,4.1,1.02,8.25,2.03,12.45,2.36,4.56,.36,9.05,1.32,13.65,1.3,2.42-.01,4.83,.63,7.26,.52,5.65-.25,11.31-.38,16.93-.94,2.97-.3,5.99-.33,8.92-1,.27-.06,.46,.04,.58,.41-1.69,.72-3.52,.79-5.29,.91-7.85,.54-15.69,1.49-23.58,1.19-4.42-.17-8.83-.59-13.24-1.05-4.31-.46-8.62-.9-12.85-1.82-3.91-.84-7.77-1.88-11.67-2.79-4.42-1.03-8.76-2.34-13.07-3.72-3.9-1.24-7.73-2.73-11.56-4.2-3.5-1.35-6.97-2.75-10.41-4.25-5.97-2.62-11.84-5.47-17.66-8.42-5.45-2.76-10.89-5.54-16.13-8.68-5.55-3.32-10.96-6.85-16.35-10.43-5.16-3.43-10.19-7.05-15.35-10.47-3.49-2.32-6.77-4.96-10.2-7.38-3.51-2.47-6.85-5.17-10.17-7.88-3.25-2.66-6.51-5.3-9.96-7.69-3.96-2.75-8.01-5.34-12.18-7.74-3.67-2.12-7.4-4.14-11.14-6.15-4.53-2.43-9.07-4.85-13.73-7.05-6.62-3.12-13.51-5.49-20.57-7.36-7.36-1.95-14.78-3.73-22.28-5.02-5.7-.98-11.43-1.87-17.2-2.47-5.46-.57-10.91-1.02-16.4-1.12-5.58-.1-11.17,.02-16.72,.4-10.03,.7-19.78,2.95-29.25,6.33-.48,.17-.93,.49-1.56,.27,3.87-1.68,7.93-2.88,12.03-3.97,4.76-1.26,9.58-2.19,14.44-2.9,2.5-.36,5.03-.51,7.56-.63,6.22-.3,12.45-.52,18.67-.29,4.7,.17,9.38,.75,14.06,1.31,5.21,.63,10.38,1.47,15.56,2.32,5.61,.92,11.14,2.17,16.65,3.55,6.77,1.7,13.52,3.42,20.02,6.02,5.02,2.01,9.82,4.48,14.59,7.05,7.03,3.79,14.16,7.43,20.94,11.67,6.36,3.99,12.38,8.46,18.13,13.3,5.3,4.46,10.96,8.45,16.63,12.41,5.88,4.1,11.79,8.16,17.71,12.19,10.08,6.87,20.54,13.07,31.42,18.6,9.22,4.68,18.6,8.98,28.18,12.88,1.01,.41,2.07,.73,3.21,1.09Z"/>
      <path class="cls-5" d="M75.68,184.13c-4.72-.41-9.32-.27-13.91-.29-5.26-.02-10.41,.92-15.6,1.61-4.59,.61-9.05,1.78-13.54,2.84-.8,.19-1.16-.14-1.58-.61-.49-.55,.1-.88,.32-1.23,1.19-1.88,3.26-2.39,5.12-3.21,4.66-2.04,9.61-3.14,14.55-4.13,3.72-.75,7.46-1.61,11.33-1.32,1.76,.13,3.5-.34,5.28-.3,5.91,.14,11.78,.53,17.65,1.37,5.62,.8,11.15,1.91,16.65,3.25,4.97,1.2,9.73,2.91,14.25,5.39,1.97,1.08,3.97,2.05,5.65,3.56,.37,.33,.94,.68,.6,1.3-.33,.6-.82,1.08-1.61,.98-.37-.05-.76-.11-1.11-.24-5.09-1.95-10.39-3.24-15.67-4.44-5.24-1.19-10.38-2.81-15.71-3.58-2.3-.33-4.64-.58-6.97-.6-1.87-.02-3.7-.44-5.71-.33Z"/>
      <path class="cls-9" d="M385.15,284.85c-.01-.67,.52-.76,1.05-.85,5.38-.95,10.75-2.03,16.15-2.8,4.56-.66,8.96-1.86,13.25-3.45,2.82-1.05,5.53-2.37,8.3-3.54,4.57-1.93,9.22-3.7,13.7-5.81,3.75-1.76,7.29-3.92,10.6-6.49,2.87-2.22,5.14-4.98,7.67-7.5,.81-.81,1.55-1.2,2.64-.6,.96,.53,1.37,.02,1.32-.91-.2-3.48,1.63-5.95,3.7-8.53,4.69-5.84,11.28-7.74,18.09-9.22,1.44-.31,3.03-.29,4.55-.38,2.95-.17,5.37-1.19,7.23-3.68,3.87-5.19,8.75-9.44,13.45-13.85,6.6-6.19,14.37-10.74,21.99-15.45,4.95-3.06,10.17-5.69,15.35-8.37,6.77-3.5,13.78-6.4,20.95-8.91,4.17-1.46,8.41-2.72,12.75-3.71,2.96-.68,5.93-1.38,8.91-1.96,3.44-.67,6.96-1.07,10.4-1.72,4.08-.78,8.21-.81,12.29-1.49,3.61-.6,7.33-.57,11.02-.38,.15,0,.29,.2,.46,.42-1.05,.21-2.12,.39-3.19,.39-6.5-.02-12.91,.89-19.35,1.66-3.98,.48-7.93,1.1-11.83,1.9-5.68,1.16-11.36,2.44-16.92,4.17-4.84,1.51-9.54,3.36-14.21,5.28-6.51,2.68-12.8,5.85-18.95,9.28-3.03,1.69-6.09,3.35-9.01,5.22-5.81,3.73-11.66,7.4-17.12,11.64-1.24,.96-2.36,2.09-3.5,3.18-2.19,2.07-4.38,4.14-6.53,6.25-2.25,2.2-4.43,4.47-6.26,7.06-2.09,2.96-5.29,3.74-8.67,3.94-5.26,.31-10.22,1.55-14.9,4.07-4.39,2.36-7.5,5.78-9.56,10.24-.55,1.18-.2,2.46-.22,3.68-.02,.75-.18,1.28-.85,1.66-.71,.4-1.24-.01-1.65-.44-.71-.73-1.22-.47-1.79,.15-1.42,1.55-2.83,3.12-4.32,4.6-2.69,2.66-5.75,4.89-9,6.8-3.78,2.22-7.84,3.86-11.9,5.52-3.75,1.53-7.48,3.12-11.2,4.72-6.09,2.62-12.4,4.6-18.99,5.62-5.26,.81-10.51,1.72-15.89,2.58Z"/>
      <path class="cls-5" d="M135.13,269.12c-1.67-.59-3.24-1.15-4.82-1.66-4.08-1.33-8.18-1.19-12.32-.75-.19,.02-.4,.05-.57,0-.66-.2-1.66-.12-1.83-.85-.15-.63,.7-1.05,1.23-1.42,4.5-3.16,9.4-3.87,14.82-3.07,4.91,.72,9.14,2.62,12.88,5.71,4.55,3.75,8.65,7.94,11.71,13.04,.54,.89,.92,1.87,1.34,2.83,.28,.63,.03,1.13-.52,1.47-.55,.35-.89-.08-1.23-.41-1.29-1.28-2.65-2.51-3.85-3.87-3.15-3.59-7.28-5.79-11.26-8.23-1.76-1.08-3.61-1.93-5.6-2.77Z"/>
      <path class="cls-9" d="M622,175.79c-.07-.51,.28-.57,.7-.58,3.48,0,6.94,0,10.39,.68,2.09,.41,4.23,.52,6.48,.76,.13,.3,.13,.61,.13,1.02-5.02-.8-10.03-1.67-15.16-1.63-.79,0-1.58-.33-2.53-.25Z"/>
      <path class="cls-9" d="M15.57,182.17c1.69-1.09,3.63-1.66,5.63-2.35,.03,.15-.02,.43-.14,.46-1.84,.56-3.5,1.63-5.49,1.89Z"/>
      <path class="cls-9" d="M22.19,179.58c.72-.73,1.75-.81,2.76-1.2-.49,1.15-1.65,1.08-2.76,1.2Z"/>
      <path class="cls-9" d="M9.87,185c.24-.99,1.27-1,2.12-1.44-.26,.97-1.27,1-2.12,1.44Z"/>
      <path class="cls-9" d="M12.98,183.32c.39-.48,.93-.71,1.6-.91-.15,.8-.8,.97-1.6,.91Z"/>
      <path class="cls-9" d="M4.11,187.88c.07-.83,.87-.84,1.55-1.16-.07,.83-.87,.84-1.55,1.16Z"/>
      <path class="cls-9" d="M6.94,186.2c.27-.25,.6-.44,1.03-.63-.02,.59-.37,.84-1.03,.63Z"/>
      <path class="cls-9" d="M2.91,188.22c.09-.27,.25-.35,.53-.15-.08,.26-.24,.39-.53,.15Z"/>
      <path class="cls-6" d="M639.7,275.21c-1.3,.23-2.57-.07-3.85-.1-4.92-.12-9.84,.16-14.69,.92-4.22,.66-8.33,1.99-12.39,3.36-6.18,2.09-12.27,4.41-18.09,7.4-.72,.37-1.4,.83-2.14,1.15-.38,.17-.86,.18-1.22-.16-.41-.4,.08-.66,.16-1,.65-2.73,2.97-4.03,4.92-5.56,4.91-3.85,10.31-6.91,16.16-9.1,4.33-1.62,8.83-2.51,13.43-3.18,5.81-.84,11.62-.75,17.57-.76,.14,2.3,.14,4.6,.14,7.02Z"/>
      <path class="cls-6" d="M.3,261.98c2.04-1.45,4.04-2.84,6.42-3.51,3.09-.87,6.22-1.38,9.43-1.55,7.88-.42,15.57,.7,23.12,2.88,5.18,1.5,9.91,3.99,14.48,6.77,5.83,3.56,11.34,7.57,16.34,12.24,3.74,3.49,7.29,7.15,10.14,11.42,.39,.59,.79,.7,1.44,.54,5.51-1.4,10.96-.79,16.44,.33,4.9,1,9.57,2.62,13.97,4.93,5.29,2.78,10.41,5.9,14.79,10.01,2.39,2.24,4.42,4.87,6.47,7.45,2.22,2.8,4.66,5.42,6.47,8.54,1.43,2.48,2.89,4.93,3.57,7.76,.11,.48,.37,.95-.21,1.25-.56,.3-1.04,.03-1.38-.41-.88-1.13-1.74-2.27-2.58-3.43-1.6-2.2-3.86-3.66-5.91-5.36-3.93-3.26-7.87-6.5-12.15-9.3-5.31-3.47-10.84-6.48-16.76-8.82-5.24-2.07-10.7-2.57-16.21-3.11-3.54-.35-7.08-.15-10.61-.23-1.35-.03-2.46-.41-3.19-1.56-2.29-3.62-5.53-6.34-8.68-9.1-3.33-2.92-6.79-5.72-10.44-8.24-6.38-4.4-12.92-8.47-20.51-10.57-5.3-1.46-10.65-2.64-16.14-2.71-4.69-.06-9.32,.7-13.51,3.09-1.56,.89-3.08,1.87-4.71,2.85-.09-3.99-.08-8.03-.07-12.19Z"/>
      <path class="cls-6" d="M213.19,298.95c4.9-.61,9.73-.53,14.47-.16,4.76,.37,9.57,1.16,13.98,3.29,.22,.1,.45,.18,.64,.33,.7,.55,1.87,1.09,1.6,1.97-.29,.95-1.4,1.47-2.55,1.48-2.39,.03-4.77-.29-7.15-.38-1.32-.05-2.66-.18-3.99-.19-8.65-.06-17.26,.24-25.82,1.68-4.65,.78-9.31,1.45-13.83,2.83-.69,.21-1.29,.58-1.97,.8-.77,.25-1.29,.08-1.72-.57-.44-.66-.38-1.19,.22-1.76,1.9-1.82,4.28-2.87,6.56-4.02,2.88-1.45,5.91-2.63,9.05-3.46,3.41-.9,6.85-1.63,10.52-1.84Z"/>
      <path class="cls-10" d="M384.53,272.41s-13.16,3.19-20.42,5.11c1.08-3.37,3.51-4.76,6.21-5.67,5.18-1.74,10.56-2.28,15.99-2.26,1.6,0,3.22-.16,5.01,.24-1.95,1.96-4.39,2.05-6.8,2.58Z"/>
      <path class="cls-10" d="M611.66,130.46c-.45-1.8,.38-3.35,1.89-3.96,1.1-.45,2.13-1.06,3.19-1.59,.7-.35,1.42-.52,2.33-.1-.64,.59-1.38,.73-2.06,.99-2.16,.83-2.99,2.09-2.94,4.35,.02,.64,.44,1.58-.16,1.86-.75,.35-1.32-.52-1.88-1.01-.14-.12-.22-.31-.38-.55Z"/>
      <path class="cls-10" d="M107.98,188.42c-9.6-2.28-18.92-5.35-28.84-5.44-5.36-.05-10.69-.67-16.08-.55-7.18,.16-14.21,1.22-21.26,2.34-2.66,.43-5.2,1.33-7.84,1.8-.36,.06-.72,.29-1.35-.09,1.51-.97,3.05-1.55,4.57-2.14,10.05-3.92,20.5-5.41,31.26-5.25,6.48,.1,12.94,.52,19.3,1.64,8.11,1.42,16.25,2.8,23.92,5.98,2.75,1.14,5.36,2.55,7.93,4.03,.44,.25,.96,.45,1.31,1.45-4.38-1.59-8.56-2.82-12.93-3.78Z"/>
      <path class="cls-10" d="M118.68,264.48c7.27-3.65,14.4-2.45,21.02,1.05,6.46,3.41,11.4,8.77,15.41,14.91,.25,.39,.58,.77,.53,1.38-10.59-10.16-22.05-18.2-37.78-16.46,.04-.46,.48-.56,.81-.88Z"/>
    </g>
  </g>
</svg>