<?xml version="1.0" encoding="UTF-8"?>
<svg id="Layer_2" data-name="Layer 2" xmlns="http://www.w3.org/2000/svg" viewBox="0 0 640 335.18">
  <defs>
    <style>
      .cls-1 {
        fill: #25173d;
      }

      .cls-2 {
        fill: #292247;
      }

      .cls-3 {
        fill: #3c2654;
      }

      .cls-4 {
        fill: #28051a;
      }

      .cls-5 {
        fill: #18061d;
      }

      .cls-6 {
        fill: #15021a;
      }

      .cls-7 {
        fill: #29071b;
      }

      .cls-8 {
        fill: #2a032e;
      }

      .cls-9 {
        fill: #4a3974;
      }

      .cls-10 {
        fill: #3b2552;
      }

      .cls-11 {
        fill: #140119;
      }

      .cls-12 {
        fill: #240117;
      }

      .cls-13 {
        fill: #29022d;
      }

      .cls-14 {
        fill: #483670;
      }

      .cls-15 {
        fill: #2b091e;
      }

      .cls-16 {
        fill: #3c2553;
      }
    </style>
  </defs>
  <g id="Layer_18" data-name="Layer 18">
    <g>
      <path class="cls-3" d="M0,192.03c.61-.5,1.22-.86,2.03-1.26,.74-.21,1.3-.33,1.8-.58,1.83-.94,3.58-2.04,5.47-2.86,5.83-2.54,11.66-5.08,17.57-7.42,7.88-3.11,16-5.49,24.44-6.41,6.49-.71,13.02-1.24,19.54-1.38,5.38-.11,10.79,.32,16.16,.8,5.74,.51,11.48,1.14,17.16,2.1,6.38,1.08,12.69,2.56,19.02,3.93,6.72,1.46,13.41,3.1,19.75,5.79,5.98,2.54,11.91,5.21,17.71,8.11,5.04,2.51,9.95,5.29,14.78,8.2,5.15,3.1,10.24,6.33,15.13,9.81,4.27,3.04,8.14,6.64,12.35,9.77,6.06,4.5,12.21,8.88,18.42,13.15,7.51,5.17,15.09,10.24,22.72,15.24,9.79,6.42,20.27,11.58,30.8,16.62,5.9,2.82,11.98,5.24,18.02,7.75,3.62,1.5,7.27,2.94,10.98,4.16,4.13,1.35,8.33,2.49,12.53,3.6,4.29,1.13,8.58,2.25,12.93,3.08,4.16,.79,8.38,1.27,12.58,1.76,4.07,.47,8.15,.92,12.24,1.11,6.94,.32,13.87-.07,20.76-.83,5.16-.57,10.3-1.27,15.43-2,3.54-.5,7.08-1.03,10.57-1.76,4.24-.89,8.57-1.62,12.6-3.11,7.39-2.73,14.64-5.87,21.86-9.03,3.83-1.68,7.56-3.62,11.19-5.71,2.64-1.52,4.96-3.56,7.53-5.2,2.83-1.8,4.98-4.09,6.09-7.28,.34-.98,.34-2.14,.85-3,2.52-4.21,5.84-7.58,10.38-9.72,4.5-2.12,9.24-2.9,14.12-3.3,3.01-.24,5.76-1.14,7.8-3.67,1.98-2.45,4.08-4.81,6.25-7.09,2.04-2.14,4.17-4.21,6.41-6.14,3.11-2.67,6.22-5.4,9.59-7.71,4.8-3.28,9.8-6.24,14.79-9.24,3.85-2.31,7.7-4.65,11.73-6.63,5.35-2.63,10.83-4.98,16.31-7.32,5.81-2.48,11.81-4.43,17.99-5.74,6.01-1.28,12.03-2.53,18.08-3.61,3.37-.6,6.8-.88,10.21-1.23,2.7-.27,5.42-.39,8.13-.63,6.7-.61,13.36-.18,19.99,.79,2.4,.35,4.78,.85,7.16,1.28,0,26.96,0,53.92-.13,81.02-7.22-.1-14.31,.15-21.32,1.08-5.17,.69-10.29,1.89-15.36,3.16-7.63,1.91-14.94,4.63-21.35,9.41-3.22,2.41-5.74,5.39-7.27,9.05-.61,1.46-1.46,1.68-2.59,1.38-3.46-.91-6.85-2.06-10.32-2.93-4.53-1.13-9.07-2.22-13.66-3.07-3.83-.71-7.73-1.08-11.61-1.56-2.88-.36-5.78-.57-8.65-1.03-6.76-1.09-13.53-1.13-20.23,.15-3.14,.6-6.15,1.92-9.17,3.03-.45,.16-.66,.95-.99,1.45,.76,.47,1.71,1.49,2.24,1.31,2.71-.94,5.48-.81,8.18-.51,2.87,.33,5.54,1.42,7.52,3.73,.68,.8,.95,1.42-.19,2.19-1.58,1.06-3.12,2.24-4.47,3.57-3.19,3.13-6.63,5.98-10.56,8.07-3.14,1.67-6.47,3.16-9.88,4.13-4.8,1.37-9.76,2.18-14.64,3.26-4.23,.93-8.43,2-12.68,2.83-5.14,1-10.29,1.95-15.47,2.68-5.7,.8-11.43,1.53-17.16,1.91-4.66,.31-9.35,.14-14.03,.05-4.87-.1-9.74-.37-14.61-.57-.14,0-.29-.02-.43-.04-3.94-.36-7.87-.72-11.81-1.1-3.13-.3-6.27-.54-9.38-.99-5.13-.74-10.24-1.64-15.37-2.46-4.23-.67-8.47-1.27-12.69-1.99-2.95-.5-5.88-1.17-8.82-1.73-6.87-1.32-13.73-2.71-20.62-3.92-3.46-.6-7-1.24-10.48-1.17-4.06,.08-8.17,.49-12.1,1.8-.29,.1-.76-.21-1.11-.4-1.96-1.08-3.83-2.4-5.89-3.24-4.38-1.78-8.81-3.48-13.31-4.92-4.8-1.53-9.66-2.98-14.59-3.98-4.56-.92-9.23-1.31-13.87-1.74-5.36-.5-10.74-.87-16.12-1.11-2.75-.13-5.51,.15-8.27,.24-6.12,.19-12.25,.18-18.34,.64-5.4,.4-10.8,1.07-16.12,2.06-7.96,1.48-15.27,4.58-21.44,9.98-1.33,1.16-2.92,2.25-2.85,4.37-1.04-.97-2.04-1.88-3.03-2.82-3.01-2.86-5.79-6.02-9.08-8.52-4.65-3.54-9.54-6.79-14.57-9.78-3.49-2.08-7.35-3.55-11.08-5.2-1.39-.61-2.88-1-4.34-1.44-3.29-1.01-6.57-2.02-10.07-1.96-2.14,.04-4.27,.05-6.41,0-.47,0-1.16-.14-1.38-.47-.88-1.29-1.5-2.77-2.42-4.03-1.69-2.29-3.32-4.7-5.35-6.66-2.98-2.87-6.21-5.5-9.48-8.04-2.63-2.04-5.39-3.96-8.26-5.65-2.89-1.7-5.95-3.13-8.99-4.55-2.53-1.19-5.08-2.41-7.74-3.24-4.86-1.52-9.79-2.81-14.72-4.09-4.87-1.26-9.85-1.81-14.87-1.81-2.96,0-5.94,0-8.88,.33-3.11,.34-6.27,.76-9.26,1.65-4.6,1.36-9.1,3.05-13.57,4.79-1.07,.42-2.95,.61-2.55,2.7-.72,.21-1.33,.41-1.95,.6,0-17.66,0-35.31,0-53.1Zm73.99-13.89c-4.3,.08-8.61,.15-12.91,.26-1.05,.03-2.11,.1-3.13,.31-6.35,1.29-12.8,2.24-18.81,4.82-1.91,.82-3.77,1.81-5.51,2.93-.49,.31-.47,1.4-.69,2.13,.8,.14,1.64,.51,2.4,.39,5.58-.9,11.12-2.13,16.73-2.77,4.26-.49,8.6-.29,12.9-.35,1.26-.02,2.53,.12,3.79,.23,2.28,.19,4.55,.45,6.83,.61,4.85,.32,9.71,.53,14.56,.91,2.18,.17,4.34,.57,6.49,.98,2.93,.56,5.84,1.24,8.75,1.88,3.34,.73,6.75,.99,10.01,2.2,2.15,.79,4.49,1.11,6.78,1.45,.53,.08,1.37-.47,1.67-.97,.19-.31-.18-1.27-.58-1.6-4.52-3.67-9.75-6.04-15.27-7.63-5.35-1.53-10.82-2.69-16.29-3.74-3.87-.74-7.83-1.07-11.76-1.53-1.89-.22-3.8-.29-5.96-.51Zm529.52,6.28c-3.86,.21-7.83-.08-11.55,.73-8.23,1.81-16.34,4.15-24.49,6.33-5.02,1.34-9.62,3.7-14.07,6.3-4.37,2.55-8.74,5.13-12.92,7.98-3.06,2.09-5.83,4.62-8.67,7.02-.33,.28-.57,1.2-.37,1.46,.34,.44,1.05,.82,1.61,.83,.78,.01,1.61-.25,2.35-.56,5.28-2.17,10.54-4.4,15.82-6.57,5.15-2.11,10.25-4.37,15.5-6.18,5.47-1.89,11.05-3.48,16.66-4.89,5.16-1.3,10.42-2.22,15.65-3.25,3.51-.69,6.93-1.65,10.16-3.2,1.83-.88,2.12-2.94,.54-4.18-.55-.43-1.23-.76-1.91-.94-1.33-.36-2.7-.58-4.31-.88Zm-447.87,92.57c-3.13-3.25-6.07-6.69-9.43-9.68-3.38-3.01-7.42-4.87-11.98-5.74-5.96-1.13-11.47-.59-16.41,3.19-.46,.35-.82,.86-1.22,1.29,.61,.31,1.21,.66,1.85,.91,.29,.12,.67,.06,1,.03,1.14-.08,2.28-.22,3.42-.28,4.52-.21,8.79,.79,12.95,2.52,4.92,2.05,9.54,4.62,13.7,7.92,2.57,2.04,4.79,4.54,7.18,6.81,.48,.46,.87,1.27,1.77,.55,.8-.64,.79-1.34,.31-2.15-1.02-1.73-2.03-3.46-3.13-5.38Z"/>
      <path class="cls-9" d="M0,245.27c.61-.33,1.23-.52,2.05-.72,1.56-.58,2.89-1.23,4.28-1.71,4.31-1.51,8.59-3.17,13-4.36,3.06-.83,6.29-1.08,9.46-1.4,6.55-.65,13.09-.5,19.55,.86,3.82,.8,7.59,1.86,11.38,2.81,5.67,1.42,11.03,3.66,16.21,6.3,2.97,1.51,5.86,3.23,8.56,5.17,4.3,3.08,8.55,6.25,12.57,9.68,3.96,3.38,6.79,7.74,9.16,12.36,.65,1.26,1.56,1.81,3,1.53,1.12-.22,2.27-.33,3.41-.38,4.53-.21,8.93,.51,13.27,1.8,5.34,1.59,10.37,3.89,15.07,6.83,4.11,2.57,8.32,5.09,12,8.21,4.69,3.97,8.87,8.54,13.31,12.8,.29,.28,1.14,.42,1.39,.21,.69-.56,1.44-1.25,1.72-2.05,.9-2.57,3.04-3.86,5.04-5.3,5.1-3.68,10.93-5.66,16.99-6.93,3.68-.77,7.44-1.15,11.18-1.56,4.03-.45,8.07-.9,12.11-1.04,5.12-.18,10.26-.1,15.39-.05,4.84,.05,9.68,.05,14.5,.34,4.66,.29,9.31,.82,13.94,1.44,3.49,.47,7.02,.96,10.39,1.94,6.55,1.92,13.05,4.04,19.46,6.38,3.26,1.18,6.34,2.9,9.38,4.6,1.01,.56,1.78,.82,2.88,.51,5.92-1.69,11.96-2.02,18-1.05,6.82,1.1,13.6,2.53,20.39,3.84,4.54,.88,9.05,1.87,13.6,2.67,4.22,.75,8.48,1.31,12.71,1.97,4.99,.78,9.96,1.74,14.98,2.33,6.86,.82,13.75,1.5,20.64,2.01,6.34,.46,12.7,.68,19.05,.87,2.9,.09,5.8-.09,8.7-.26,4.29-.24,8.61-.34,12.85-.94,6.22-.87,12.41-2.06,18.58-3.25,5.24-1.01,10.46-2.18,15.68-3.31,4.56-.98,9.14-1.93,13.67-3.03,5.23-1.27,9.97-3.71,14.29-6.84,3.2-2.32,6.19-4.94,9.23-7.48,2.15-1.81,4.23-3.71,6.32-5.59,.24-.22,.54-.71,.45-.89-.48-.96-.86-2.31-1.68-2.71-2.15-1.06-4.49-1.74-6.78-2.48-1.07-.34-2.21-.48-3.31-.71,.7-.42,1.35-.51,1.99-.66,4.1-.99,8.29-.87,12.42-.55,5.36,.41,10.71,1.13,16.04,1.93,5.98,.9,11.97,1.84,17.88,3.12,4.52,.98,8.92,2.49,13.37,3.8,3.06,.91,6.05-.03,6.91-2.47,1.86-5.27,5.71-8.71,10.47-11.05,4.14-2.03,8.53-3.59,12.89-5.12,2.87-1.01,5.86-1.74,8.85-2.36,3.5-.72,7.04-1.26,10.58-1.71,3.26-.42,6.55-.8,9.83-.85,3.57-.05,7.15,.31,10.72,.5,0,1.64,0,3.27-.13,5.05-1.26,.03-2.4-.17-3.54-.16-3.97,.06-7.95,.01-11.9,.34-3.69,.31-7.4,.83-11.02,1.62-8.08,1.75-15.27,5.52-21.83,10.44-2.11,1.58-3.85,3.66-5.64,5.62-.33,.36-.1,1.22-.13,1.85,.67-.01,1.43,.18,1.99-.07,2.77-1.27,5.43-2.81,8.24-3.98,7.9-3.28,15.89-6.38,24.42-7.56,4.42-.61,8.92-.77,13.38-.99,2.04-.1,4.1,.14,6.16,.23v59.43c-.52,.11-1.05,.06-1.57,.06-10.12,0-20.24,0-30.36,0-202.22,0-404.44,0-606.66,0-.38,0-.77,0-1.28,.04C0,315.16,0,295.1,.12,274.91c.71-.23,1.3-.32,1.95-.35,.89-.34,1.81-.63,2.54-1.17,4.19-3.1,8.96-4.37,14.07-4.65,5.66-.31,11.11,.95,16.56,2.2,4.42,1.01,8.54,2.82,12.43,5.08,3.47,2.01,6.88,4.15,10.17,6.45,2.66,1.85,5.21,3.9,7.61,6.08,3.18,2.87,6.32,5.82,9.19,9,1.51,1.68,2.71,3.21,5.28,3.15,3.68-.08,7.38,0,11.05,.29,3.32,.26,6.69,.57,9.89,1.4,7.66,2,14.68,5.55,21.17,10.05,4.23,2.94,8.2,6.25,12.32,9.35,2.77,2.08,5.34,4.34,7.28,7.25,.44,.67,1,1.3,1.64,1.78,.34,.26,1.03,.31,1.42,.14,.24-.11,.36-.87,.25-1.26-.34-1.19-.75-2.38-1.27-3.51-2.31-5.04-5.48-9.55-9.16-13.65-2.9-3.23-5.82-6.52-9.18-9.24-5.33-4.32-11.22-7.85-17.75-10.12-7.89-2.74-15.88-4.6-24.3-2.68-.37,.08-1-.22-1.27-.55-1.52-1.84-2.85-3.85-4.46-5.6-3.86-4.19-7.96-8.12-12.57-11.51-5.84-4.3-11.83-8.37-18.54-11.16-8.98-3.73-18.4-5.29-28.14-4.78-4.28,.22-8.47,.85-12.37,2.7-1.67,.79-3.39,1.62-4.09,3.65-.68,.4-1.27,.78-1.86,1.16,0-6.34,0-12.67,0-19.15Zm225.47,60.28c4.93,.11,9.86,.16,14.78,.37,1.47,.06,2.78,.16,4.03-.84,.75-.6,.74-1.17,.21-1.66-.83-.76-1.74-1.58-2.77-1.97-4.58-1.74-9.38-2.83-14.24-2.99-5.48-.19-11.02,0-16.46,.59-4.93,.54-10.05,.83-14.53,3.37-2.64,1.5-5.17,3.23-7.6,5.06-.66,.49-.77,1.7-1.14,2.58,.94,.08,1.93,.37,2.82,.19,4.76-.94,9.49-2.07,14.25-2.99,6.72-1.29,13.52-1.76,20.64-1.71Z"/>
      <path class="cls-1" d="M638.54,2.08c.41-.06,.82-.12,1.34-.15,.12,35.73,.12,71.42,0,107.24-2.09,.3-4.02,.6-5.57,1.96-3.23,2.83-4.98,6.43-5.35,10.86-.89-.06-1.72,.02-2.47-.19-2.33-.66-4.64-1.4-6.94-2.15-2.93-.96-5.85-.99-8.82-.18-2.84,.77-5.16,2.42-7.35,4.24-2.19,1.81-3.68,4.09-3.95,7.06-.33,3.64,1.75,5.93,4.34,7.88,2.72,2.05,5.01,4.41,6.13,7.7,.68,2.01,.74,4.03,.55,6.18-.56,6.2-3.53,11.24-7.75,15.37-3.58,3.51-7.9,6.24-12.02,9.32-.4,.02-.7,0-.98,.06-2.47,.64-4.92,1.34-7.41,1.92-2.68,.63-5.43,.99-8.08,1.73-3.93,1.1-7.81,2.35-11.67,3.67-3.81,1.31-7.66,2.6-11.33,4.27-5.25,2.39-10.37,5.08-15.52,7.71-2.59,1.32-5.16,2.68-7.65,4.17-2.98,1.79-5.84,3.77-8.79,5.6-5.82,3.6-11.44,7.46-16.34,12.28-1.95,1.92-3.92,3.81-5.8,5.8-2.04,2.17-3.97,4.46-5.97,6.66-.25,.28-.71,.36-1.18,.51-2.34-.68-4.53-1.62-6.8-1.94-3.25-.46-6.56-.58-9.84-.62-2.75-.03-5.27,.81-7.14,3-.77,.91-1.59,1.08-2.78,.82-2.13-.45-4.35-.98-6.48-.83-4.32,.29-8.59,1.13-12.51,3.14-4.59,2.35-8.2,5.6-9.44,10.86-.33,1.39-.39,2.84-.76,4.21-.21,.79-.59,1.75-1.21,2.17-1.44,.98-2.99,1.97-4.64,2.43-4.71,1.31-9.46,2.52-14.25,3.45-3.82,.75-7.72,1.14-11.6,1.5-5.07,.48-10.17,.78-15.25,1.15-1.47,.11-2.96,.11-4.42,.34-3.8,.6-7.64,1.08-11.35,2.04-2.88,.75-5.77,1.83-8.31,3.34-3.66,2.18-5.83,5.7-6.97,9.82-.32,1.14-1.06,1.62-2.28,1.39-4.58-.88-9.14-1.88-13.75-2.55-4.42-.65-8.93-.6-13.1,1.17-1.72,.73-3.02,2.45-4.63,3.72-3.94-.96-7.8-1.78-11.56-2.94-4.4-1.35-8.7-3.01-13-4.62,2.39-2.83,4.8-5.52,7.93-7.42,.61-.37,1.29-.63,1.95-.89,3.72-1.5,7.42-3,11.52-3.14,2.33-.08,4.65-.5,6.98-.56,2.85-.08,5.75-.26,8.54,.18,4.52,.72,8.77,2.5,12.93,4.42,1.3,.6,2.22,.23,2.15-1.15-.13-2.59,1.57-4.07,3.29-5.22,3.55-2.37,7.73-3.39,11.81-4.5,2.69-.73,5.48-1.13,8.24-1.61,3.8-.66,7.58-1.45,11.41-1.84,5.44-.55,10.88-1.1,16.12-2.7,2.69-.82,4.63-2.68,5.29-5.52,.64-2.72,1.1-5.49,1.69-8.22,1.2-5.6,4.26-10.23,8.15-14.19,4.67-4.76,9.62-9.22,15.61-12.43,3.99-2.14,7.94-4.26,12.29-5.57,1.04-.31,2.1-.57,3.17-.77,3.4-.64,6.8-1.39,10.23-1.8,2.79-.33,5.63-.22,8.45-.34,1.3-.05,1.87-.89,1.55-2.11-.48-1.8-1.15-3.58-1.37-5.41-.42-3.57-.64-7.19,1.68-10.33,1.3-1.76,2.63-3.51,4.06-5.16,4.62-5.37,10.6-8.83,16.88-11.87,3.26-1.58,6.76-2.28,10.27-2.94,4.63-.88,9.29-1.58,13.91-2.48,4.34-.84,8.73-1.59,12.96-2.82,6.12-1.77,11.63-4.97,17.22-7.98,4.32-2.32,8.08-5.23,10.71-9.38,.93-1.47,1.58-3.27,1.85-4.99,.48-3.11-.94-5.63-3.11-7.81-1.81-1.82-3.74-3.6-5.17-5.7-4.08-6.01-5.22-12.7-3.71-19.8,.46-2.18,.93-4.4,1.77-6.44,1.54-3.72,3.54-7.31,7.77-8.44,3.84-1.02,7.8-1.71,11.74-2.27,4.69-.67,9.31-1.52,13.56-3.69,1-.51,1.87-1.26,2.78-1.93,.65-.48,.72-1,.19-1.7-.37-.5-.66-1.18-.7-1.8-.16-2.32,1.31-4.54,3.82-5.43,1.99-.71,4.07-1.18,6.15-1.57,1.9-.35,2.21-.98,1.21-2.7-.68-1.17-1.53-2.43-1.63-3.7-.24-2.91-.52-5.83,.42-8.75,1.02-3.16,1.41-6.54,2.61-9.62,1.32-3.39,3.29-6.51,4.89-9.79,2.06-4.21,5.08-7.7,8.2-11.1,3.79-4.13,8.55-7.02,13.41-9.7,2.58-1.43,5.27-2.69,7.98-3.86,3.05-1.32,6.15-2.55,9.3-3.6,1.35-.45,1.99-.99,1.72-2.4Zm-88.05,104.17c-.95,3.77-.99,7.35,1.95,10.43,1.24,1.3,2.6,2.23,4.44,2.4,1.38,.12,2.28-.66,2.26-2.06,0-.89,0-1.78,0-2.67-.01-5.05,1.98-9.47,4.31-13.79,1.35-2.51,2.7-5.02,4.06-7.53,.36-.67,.92-1.48,.1-2.01-.54-.35-1.47-.41-2.12-.22-1.63,.47-3.23,1.11-4.8,1.76-6,2.49-9.3,7.05-10.19,13.69Z"/>
      <path class="cls-1" d="M640,111.61c0,21.68,0,43.37-.12,65.19-.85-.06-1.57-.32-2.31-.45-3-.5-6-1.04-9.01-1.4-2.55-.3-5.13-.58-7.68-.48-5.09,.2-10.17,.62-15.24,1.03-3.03,.25-6.05,.67-9.07,.97-.48,.05-.98-.08-1.38-.17,.74-.61,1.35-1.21,2.04-1.73,4.53-3.39,8.63-7.13,11.85-11.89,2.52-3.72,3.48-7.77,3.86-12.07,.33-3.66-1.69-6.48-3.73-9.15-1.49-1.95-3.45-3.55-5.21-5.3-2.17-2.15-2.63-4.94-1.36-7.73,1.03-2.25,2.59-3.96,4.78-5.13,4.11-2.19,8.28-2.47,12.68-.86,2.48,.91,5.09,1.52,7.68,2.04,1.82,.36,3.5-.72,3.57-2.06,.13-2.44,.96-4.62,1.98-6.81,1.36-2.91,3.68-3.96,6.67-4.04Zm-26.16,26.42c1.45-1.37,1.45-1.45,.26-2.85-1.39-1.62-1.14-3.39,.66-4.61,.59-.4,1.2-.84,1.87-1.05,1.8-.56,3.65-.98,5.46-1.54,.44-.13,.78-.57,1.17-.87-.29-.33-.52-.83-.88-.96-1.07-.39-2.17-.8-3.28-.9-5.13-.42-9.54,.72-11.83,6.36-.46,1.13-.38,2.12,.36,3.08,1.51,1.99,3.78,2.63,6.21,3.34Z"/>
      <path class="cls-13" d="M640,263.14c-3.57-.05-7.15-.41-10.72-.36-3.28,.04-6.57,.43-9.83,.85-3.54,.45-7.08,.99-10.58,1.71-2.99,.61-5.98,1.35-8.85,2.36-4.36,1.53-8.75,3.09-12.89,5.12-4.76,2.34-8.61,5.78-10.47,11.05-.86,2.44-3.85,3.38-6.91,2.47-4.44-1.31-8.85-2.83-13.37-3.8-5.91-1.28-11.9-2.23-17.88-3.12-5.32-.8-10.67-1.52-16.04-1.93-4.13-.32-8.32-.44-12.42,.55-.64,.15-1.29,.24-1.99,.66,1.11,.23,2.24,.36,3.31,.71,2.29,.74,4.63,1.42,6.78,2.48,.82,.4,1.2,1.74,1.68,2.71,.09,.18-.21,.67-.45,.89-2.09,1.88-4.17,3.78-6.32,5.59-3.03,2.55-6.02,5.16-9.23,7.48-4.33,3.13-9.06,5.57-14.29,6.84-4.54,1.1-9.11,2.04-13.67,3.03-5.22,1.13-10.43,2.3-15.68,3.31-6.18,1.18-12.36,2.37-18.58,3.25-4.24,.6-8.56,.7-12.85,.94-2.9,.17-5.8,.34-8.7,.26-6.35-.19-12.71-.4-19.05-.87-6.89-.5-13.78-1.19-20.64-2.01-5.01-.6-9.99-1.55-14.98-2.33-4.24-.66-8.49-1.23-12.71-1.97-4.55-.81-9.07-1.8-13.6-2.67-6.79-1.31-13.56-2.74-20.39-3.84-6.04-.97-12.08-.63-18,1.05-1.1,.31-1.87,.06-2.88-.51-3.04-1.7-6.13-3.41-9.38-4.6-6.41-2.33-12.91-4.46-19.46-6.38-3.37-.99-6.9-1.48-10.39-1.94-4.63-.62-9.28-1.15-13.94-1.44-4.82-.3-9.67-.3-14.5-.34-5.13-.05-10.27-.13-15.39,.05-4.04,.14-8.08,.59-12.11,1.04-3.74,.41-7.51,.8-11.18,1.56-6.06,1.26-11.89,3.25-16.99,6.93-2,1.44-4.15,2.74-5.04,5.3-.28,.8-1.03,1.49-1.72,2.05-.25,.21-1.1,.07-1.39-.21-4.44-4.27-8.63-8.83-13.31-12.8-3.68-3.12-7.89-5.64-12-8.21-4.7-2.94-9.74-5.24-15.07-6.83-4.33-1.29-8.74-2.01-13.27-1.8-1.14,.05-2.29,.17-3.41,.38-1.45,.28-2.36-.27-3-1.53-2.37-4.62-5.2-8.98-9.16-12.36-4.02-3.43-8.27-6.6-12.57-9.68-2.7-1.93-5.6-3.66-8.56-5.17-5.18-2.64-10.54-4.88-16.21-6.3-3.79-.95-7.56-2.01-11.38-2.81-6.46-1.35-13-1.51-19.55-.86-3.17,.32-6.4,.57-9.46,1.4-4.4,1.19-8.68,2.85-13,4.36-1.38,.48-2.71,1.13-4.17,1.69-.62-2.09,1.26-2.27,2.33-2.69,4.47-1.74,8.97-3.43,13.57-4.79,2.99-.88,6.15-1.31,9.26-1.65,2.94-.32,5.92-.33,8.88-.33,5.03,0,10.01,.55,14.87,1.81,4.93,1.28,9.86,2.58,14.72,4.09,2.66,.83,5.21,2.05,7.74,3.24,3.04,1.42,6.1,2.85,8.99,4.55,2.87,1.69,5.63,3.6,8.26,5.65,3.27,2.54,6.5,5.17,9.48,8.04,2.03,1.96,3.66,4.36,5.35,6.66,.92,1.25,1.54,2.73,2.42,4.03,.22,.32,.9,.46,1.38,.47,2.14,.04,4.27,.03,6.41,0,3.5-.06,6.78,.96,10.07,1.96,1.46,.45,2.95,.83,4.34,1.44,3.73,1.65,7.59,3.12,11.08,5.2,5.02,2.99,9.92,6.24,14.57,9.78,3.28,2.5,6.06,5.66,9.08,8.52,.99,.94,1.99,1.85,3.03,2.82-.07-2.12,1.52-3.22,2.85-4.37,6.17-5.4,13.49-8.5,21.44-9.98,5.32-.99,10.73-1.66,16.12-2.06,6.1-.45,12.23-.44,18.34-.64,2.76-.09,5.52-.36,8.27-.24,5.38,.25,10.76,.62,16.12,1.11,4.64,.43,9.32,.82,13.87,1.74,4.93,1,9.79,2.45,14.59,3.98,4.5,1.44,8.93,3.14,13.31,4.92,2.06,.84,3.93,2.16,5.89,3.24,.35,.19,.81,.5,1.11,.4,3.93-1.32,8.04-1.72,12.1-1.8,3.49-.07,7.02,.57,10.48,1.17,6.89,1.2,13.75,2.59,20.62,3.92,2.94,.57,5.87,1.23,8.82,1.73,4.22,.72,8.46,1.32,12.69,1.99,5.12,.82,10.23,1.72,15.37,2.46,3.11,.45,6.25,.68,9.38,.99,3.93,.38,7.87,.73,11.81,1.1,.14,.01,.29,.03,.43,.04,4.87,.2,9.74,.47,14.61,.57,4.68,.1,9.37,.27,14.03-.05,5.74-.38,11.46-1.11,17.16-1.91,5.18-.73,10.33-1.68,15.47-2.68,4.25-.83,8.45-1.9,12.68-2.83,4.88-1.08,9.84-1.89,14.64-3.26,3.41-.98,6.74-2.46,9.88-4.13,3.93-2.09,7.36-4.94,10.56-8.07,1.36-1.33,2.89-2.51,4.47-3.57,1.14-.77,.88-1.39,.19-2.19-1.98-2.31-4.66-3.4-7.52-3.73-2.7-.31-5.47-.43-8.18,.51-.53,.18-1.48-.84-2.24-1.31,.32-.5,.54-1.29,.99-1.45,3.03-1.11,6.04-2.43,9.17-3.03,6.7-1.28,13.47-1.23,20.23-.15,2.86,.46,5.77,.67,8.65,1.03,3.87,.49,7.77,.85,11.61,1.56,4.58,.85,9.13,1.94,13.66,3.07,3.47,.87,6.86,2.02,10.32,2.93,1.12,.3,1.98,.08,2.59-1.38,1.53-3.67,4.05-6.65,7.27-9.05,6.4-4.78,13.71-7.5,21.35-9.41,5.07-1.27,10.19-2.47,15.36-3.16,7.01-.94,14.1-1.19,21.32-.95,.13,.87,.13,1.74,.13,2.74Z"/>
      <path class="cls-5" d="M595.1,176.36c.49,.05,.99,.17,1.47,.12,3.03-.31,6.04-.73,9.07-.97,5.08-.41,10.15-.83,15.24-1.03,2.55-.1,5.14,.18,7.68,.48,3.02,.35,6.01,.9,9.01,1.4,.74,.12,1.46,.38,2.31,.58,.12,.68,.12,1.36,.12,2.17-2.39-.3-4.77-.8-7.16-1.15-6.63-.97-13.29-1.4-19.99-.79-2.71,.25-5.43,.36-8.13,.63-3.41,.34-6.84,.62-10.21,1.23-6.05,1.08-12.07,2.33-18.08,3.61-6.18,1.31-12.18,3.26-17.99,5.74-5.48,2.34-10.96,4.7-16.31,7.32-4.02,1.98-7.88,4.32-11.73,6.63-4.98,2.99-9.99,5.96-14.79,9.24-3.38,2.31-6.48,5.04-9.59,7.71-2.24,1.93-4.37,4-6.41,6.14-2.18,2.28-4.28,4.64-6.25,7.09-2.04,2.53-4.79,3.42-7.8,3.67-4.88,.4-9.63,1.18-14.12,3.3-4.53,2.14-7.85,5.51-10.38,9.72-.52,.86-.51,2.02-.85,3-1.11,3.18-3.26,5.47-6.09,7.28-2.57,1.64-4.9,3.69-7.53,5.2-3.62,2.09-7.36,4.03-11.19,5.71-7.22,3.16-14.47,6.3-21.86,9.03-4.04,1.49-8.37,2.22-12.6,3.11-3.49,.73-7.03,1.26-10.57,1.76-5.14,.73-10.28,1.43-15.43,2-6.9,.76-13.83,1.15-20.76,.83-4.09-.19-8.17-.64-12.24-1.11-4.21-.49-8.43-.97-12.58-1.76-4.35-.83-8.65-1.96-12.93-3.08-4.2-1.1-8.4-2.24-12.53-3.6-3.72-1.22-7.37-2.66-10.98-4.16-6.04-2.5-12.13-4.93-18.02-7.75-10.53-5.03-21.01-10.2-30.8-16.62-7.63-5-15.21-10.07-22.72-15.24-6.21-4.28-12.36-8.66-18.42-13.15-4.21-3.13-8.08-6.73-12.35-9.77-4.89-3.48-9.98-6.71-15.13-9.81-4.82-2.91-9.74-5.69-14.78-8.2-5.81-2.9-11.74-5.57-17.71-8.11-6.34-2.69-13.03-4.34-19.75-5.79-6.33-1.37-12.64-2.85-19.02-3.93-5.68-.96-11.42-1.59-17.16-2.1-5.37-.48-10.78-.91-16.16-.8-6.52,.13-13.05,.67-19.54,1.38-8.44,.92-16.56,3.3-24.44,6.41-5.91,2.33-11.74,4.88-17.57,7.42-1.88,.82-3.63,1.93-5.47,2.86-.49,.25-1.06,.37-1.7,.55-.28-.85,.16-1.28,.88-1.67,9.4-5.12,19.22-9.3,29.38-12.63,9.13-2.99,18.46-5.11,28.1-5.53,5.83-.26,11.68-.66,17.51-.51,5.63,.14,11.27,.71,16.86,1.43,6.83,.88,13.65,1.92,20.41,3.27,6.47,1.29,12.84,3.08,19.26,4.65,11.86,2.91,22.54,8.55,33.05,14.5,7.29,4.12,14.49,8.42,21.5,12.99,4.24,2.76,8.01,6.24,12.06,9.29,5.86,4.4,11.71,8.82,17.71,13.01,7.69,5.38,15.46,10.65,23.31,15.79,10.23,6.71,21.04,12.38,32.11,17.55,6.89,3.22,13.95,6.08,20.94,9.09,.28,.12,.62,.08,1.08,.16,.62,.24,1.1,.43,1.57,.62,4.35,1.52,8.65,3.18,13.05,4.53,3.76,1.16,7.63,1.97,11.66,2.98,.64,.11,1.05,.18,1.54,.33,.48,.22,.87,.4,1.29,.48,3.96,.78,7.91,1.69,11.9,2.27,4,.58,8.04,.83,12.07,1.2,1.61,.15,3.23,.28,4.85,.32,3.73,.1,7.46,.32,11.18,.17,4.32-.18,8.63-.66,12.94-1.08,2.93-.28,5.87-.58,8.78-1.04,4.6-.73,9.17-1.65,13.77-2.39,4.81-.77,9.55-1.78,14.07-3.62,3.62-1.47,7.18-3.09,10.76-4.65,5.59-2.45,11.2-4.85,16.76-7.39,3.61-1.65,6.74-4,9.75-6.61,2.82-2.45,5.37-4.78,6.19-8.69,.92-4.36,4.08-7.47,7.6-9.66,5.69-3.56,11.99-5.79,18.89-5.77,.96,0,1.93-.53,3-.82,1.26-.01,1.84-.72,2.18-1.71,.36-.17,.83-.26,1.08-.53,2.01-2.2,3.93-4.49,5.97-6.66,1.87-1.99,3.85-3.88,5.8-5.8,4.9-4.82,10.52-8.68,16.34-12.28,2.95-1.83,5.81-3.81,8.79-5.6,2.49-1.49,5.06-2.86,7.65-4.17,5.15-2.62,10.26-5.32,15.52-7.71,3.66-1.67,7.51-2.96,11.33-4.27,3.85-1.33,7.74-2.58,11.67-3.67,2.65-.74,5.4-1.11,8.08-1.73,2.48-.58,4.94-1.29,7.41-1.92,.27-.07,.57-.04,1.1-.06,1.6-.28,2.96-.57,4.32-.86Z"/>
      <path class="cls-16" d="M2.01,274.5c-.59,.09-1.18,.19-1.89,.28C0,271.41,0,268.05,0,264.55c.59-.52,1.18-.9,1.88-1.2,.32,1.22,.79,.52,1.12,.2,3.97-3.8,8.9-4.99,14.18-5.18,4.64-.17,9.29-.06,13.84,.9,4.14,.88,8.34,1.72,12.3,3.15,5.94,2.15,11.3,5.49,16.48,9.11,5.47,3.82,10.71,7.88,15.2,12.83,2.2,2.43,4.11,5.12,6.22,7.64,.3,.35,1.17,.63,1.54,.45,3.94-1.85,8.06-.95,12.02-.51,3.56,.4,7.02,1.66,10.5,2.64,6.08,1.71,11.27,5.15,16.46,8.57,3.7,2.44,6.92,5.43,9.72,8.85,2.57,3.14,5.06,6.34,7.53,9.55,.78,1.02,1.37,2.2,2.04,3.3-.12,.09-.23,.19-.35,.28-.37-.33-.74-.66-1.11-1-2.57-2.37-5-4.91-7.73-7.07-6.8-5.38-13.98-10.2-22.04-13.54-3.17-1.31-6.41-2.68-9.76-3.31-4.34-.81-8.81-.94-13.23-1.27-2.57-.19-5.16-.16-7.73-.34-.58-.04-1.27-.42-1.68-.86-1.94-2.09-3.72-4.33-5.72-6.36-5.69-5.78-12.06-10.72-18.97-14.95-4.79-2.93-9.71-5.64-15.19-7.01-3.87-.97-7.8-1.86-11.76-2.31-3.21-.37-6.54-.34-9.76,.04-3.89,.46-7.66,1.68-11.08,3.65-1.37,.79-3.41,1.31-2.94,3.67Z"/>
      <path class="cls-12" d="M595.19,176.32c-1.45,.33-2.81,.61-4.29,.9,3.87-3.08,8.2-5.82,11.78-9.33,4.22-4.13,7.19-9.17,7.75-15.37,.19-2.15,.14-4.17-.55-6.18-1.12-3.29-3.4-5.65-6.13-7.7-2.59-1.95-4.67-4.24-4.34-7.88,.27-2.97,1.76-5.24,3.95-7.06,2.19-1.82,4.51-3.47,7.35-4.24,2.98-.81,5.89-.78,8.82,.18,2.3,.75,4.61,1.5,6.94,2.15,.75,.21,1.58,.13,2.47,.19,.37-4.43,2.12-8.03,5.35-10.86,1.55-1.36,3.48-1.66,5.57-1.82,.12,.68,.12,1.37,.12,2.18-2.99,.21-5.3,1.26-6.67,4.17-1.03,2.19-1.85,4.37-1.98,6.81-.07,1.34-1.75,2.42-3.57,2.06-2.6-.52-5.2-1.13-7.68-2.04-4.41-1.61-8.58-1.33-12.68,.86-2.19,1.17-3.75,2.87-4.78,5.13-1.27,2.79-.81,5.59,1.36,7.73,1.76,1.75,3.72,3.34,5.21,5.3,2.03,2.67,4.05,5.49,3.73,9.15-.38,4.3-1.35,8.35-3.86,12.07-3.22,4.75-7.32,8.5-11.85,11.89-.69,.51-1.3,1.12-2.04,1.73Z"/>
      <path class="cls-13" d="M640,275.52c-2.05,.03-4.11-.21-6.16-.11-4.47,.22-8.96,.38-13.38,.99-8.53,1.18-16.52,4.28-24.42,7.56-2.81,1.17-5.47,2.71-8.24,3.98-.56,.26-1.32,.06-1.99,.07,.03-.63-.2-1.5,.13-1.85,1.79-1.96,3.54-4.04,5.64-5.62,6.57-4.92,13.76-8.69,21.83-10.44,3.62-.79,7.32-1.31,11.02-1.62,3.95-.33,7.93-.29,11.9-.34,1.14-.02,2.28,.19,3.54,.29,.13,.68,.13,1.36,0,2.17-1.58-.16-3.04-.44-4.61-.74-.82-.12-1.52-.33-2.22-.31-1.99,.06-3.97,.23-6.09,.34-1.13,.18-2.13,.39-3.14,.55-2.96,.45-5.98,.65-8.87,1.37-3.4,.85-6.73,2.04-10.01,3.29-5.57,2.12-10.47,5.43-15.22,8.98-.15,.11-.19,.36-.4,.78,.51-.19,.77-.26,1.01-.38,.3-.15,.56-.37,.87-.49,6.24-2.38,12.42-4.89,18.73-7.07,4.82-1.66,9.81-2.87,14.94-2.97,5.04-.1,10.09,.15,15.14,.24v1.32Z"/>
      <path class="cls-10" d="M640,274.07c-5.05,.04-10.1-.21-15.14-.11-5.13,.1-10.12,1.31-14.94,2.97-6.31,2.18-12.49,4.69-18.73,7.07-.31,.12-.57,.34-.87,.49-.24,.12-.5,.19-1.01,.38,.21-.42,.25-.67,.4-.78,4.75-3.55,9.65-6.86,15.22-8.98,3.28-1.25,6.61-2.43,10.01-3.29,2.89-.72,5.91-.92,8.87-1.37,1.01-.15,2-.37,3.22-.46,2.25,.13,4.28,.2,6.31,.2,.68,0,1.35-.19,2.03-.29,1.46,.28,2.91,.57,4.49,.85,.12,1.06,.12,2.13,.12,3.32Z"/>
      <path class="cls-15" d="M297.88,272.68c-.52-.1-.99-.29-1.52-.58,2.59-4.35,6.44-7.14,10.86-9.3,6.12-3,12.69-3.78,19.36-4.3,6.03-.47,11.7,.66,17.17,3.15,1.21,.55,2.49,.97,3.73,1.45,2.46-5.31,7.15-7.68,12.37-9.35,9.26-2.97,18.85-4.15,28.43-5.47,4.2-.58,8.36-1.52,12.54-2.3,2.36-.44,2.77-2.25,3.14-4.22,.64-3.37,1.11-6.84,2.26-10.05,2.05-5.73,5.89-10.31,10.17-14.61,7.32-7.35,15.74-13.01,25.49-16.48,4.02-1.43,8.32-2.16,12.54-2.9,2.66-.47,5.42-.4,8.13-.55,.65-.04,1.3,0,2.08,0-.49-2.08-1.02-3.91-1.34-5.78-.78-4.56,.36-8.63,3.41-12.14,3.45-3.98,6.8-8.08,11.19-11.11,6.93-4.79,14.39-8.23,22.86-9.47,7.37-1.08,14.7-2.54,21.99-4.11,5.11-1.1,9.92-3.16,14.47-5.77,3.28-1.88,6.64-3.62,9.83-5.64,3.85-2.44,5.99-5.96,5.85-10.67-.09-2.91-1.7-5.04-3.68-6.9-3.03-2.84-5.73-5.87-7.25-9.85-2.08-5.43-2.15-10.96-.9-16.52,1.02-4.53,2.83-8.72,6.09-12.19,2.18-2.32,4.74-3.91,7.85-4.46,4.81-.84,9.64-1.55,14.45-2.33,3.38-.55,6.52-1.75,9.68-3.34-.25-.41-.43-.72-.63-1.02-.91-1.28-.94-2.67-.08-4,2.54-3.89,6.09-6.28,10.87-7.05-.43-.8-.82-1.43-1.13-2.1-1.22-2.6-.92-5.36-.61-8.06,.98-8.44,4.23-16.05,8.7-23.2,4.13-6.61,9.04-12.54,15.36-17.11,7.03-5.08,14.84-8.72,23.04-11.52,.91-.31,1.8-.67,2.71-.94,.32-.09,.69,.02,1.12,.13,.34,1.49-.3,2.04-1.65,2.48-3.15,1.05-6.24,2.29-9.3,3.6-2.71,1.17-5.4,2.43-7.98,3.86-4.86,2.68-9.62,5.57-13.41,9.7-3.11,3.4-6.14,6.89-8.2,11.1-1.6,3.28-3.58,6.41-4.89,9.79-1.2,3.08-1.59,6.46-2.61,9.62-.94,2.92-.66,5.85-.42,8.75,.1,1.27,.95,2.54,1.63,3.7,1,1.72,.69,2.35-1.21,2.7-2.08,.39-4.17,.86-6.15,1.57-2.51,.9-3.98,3.11-3.82,5.43,.04,.62,.33,1.3,.7,1.8,.53,.71,.46,1.23-.19,1.7-.91,.67-1.78,1.42-2.78,1.93-4.26,2.18-8.87,3.02-13.56,3.69-3.94,.56-7.9,1.24-11.74,2.27-4.24,1.13-6.24,4.72-7.77,8.44-.84,2.04-1.31,4.26-1.77,6.44-1.51,7.1-.37,13.79,3.71,19.8,1.43,2.1,3.36,3.88,5.17,5.7,2.17,2.19,3.59,4.71,3.11,7.81-.27,1.73-.91,3.52-1.85,4.99-2.63,4.15-6.39,7.06-10.71,9.38-5.59,3-11.1,6.2-17.22,7.98-4.24,1.23-8.62,1.98-12.96,2.82-4.62,.9-9.28,1.6-13.91,2.48-3.51,.66-7.01,1.36-10.27,2.94-6.27,3.04-12.26,6.49-16.88,11.87-1.43,1.66-2.76,3.4-4.06,5.16-2.32,3.14-2.1,6.76-1.68,10.33,.22,1.83,.88,3.61,1.37,5.41,.33,1.22-.25,2.05-1.55,2.11-2.82,.12-5.66,0-8.45,.34-3.43,.41-6.83,1.17-10.23,1.8-1.07,.2-2.13,.46-3.17,.77-4.34,1.31-8.3,3.43-12.29,5.57-5.99,3.21-10.94,7.68-15.61,12.43-3.89,3.97-6.95,8.6-8.15,14.19-.58,2.74-1.05,5.5-1.69,8.22-.67,2.84-2.6,4.7-5.29,5.52-5.24,1.6-10.68,2.15-16.12,2.7-3.83,.39-7.61,1.18-11.41,1.84-2.76,.48-5.54,.88-8.24,1.61-4.08,1.1-8.25,2.13-11.81,4.5-1.72,1.15-3.42,2.63-3.29,5.22,.07,1.38-.85,1.75-2.15,1.15-4.16-1.92-8.41-3.7-12.93-4.42-2.79-.44-5.69-.25-8.54-.18-2.33,.06-4.65,.48-6.98,.56-4.1,.14-7.8,1.64-11.52,3.14-.66,.27-1.34,.52-1.95,.89-3.13,1.9-5.53,4.59-7.93,7.42Z"/>
      <path class="cls-7" d="M586.39,26.04c2.08-4.78,5.38-8.57,8.69-12.35,4.14-4.72,8.72-8.89,14.44-11.64,1.54-.74,3.19-1.28,4.79-1.9,.18-.07,.4-.19,.55-.14,.78,.29,1.7,.47,2.25,1.02,.25,.25-.05,1.45-.46,1.88-1.39,1.45-2.92,2.78-4.45,4.08-3.15,2.69-6.56,5.11-9.43,8.06-3.09,3.17-5.85,6.7-8.48,10.28-3.95,5.36-6.92,11.28-9.22,17.54-.24,.66-.62,1.29-.99,1.9-.36,.6-.84,1.41-1.6,.9-.56-.37-1.12-1.22-1.12-1.86,0-1.65,.22-3.33,.54-4.96,.89-4.44,2.37-8.69,4.5-12.81Zm28.64-24.33c-2.86,.73-5.3,2.22-7.72,3.88-4.92,3.39-9.03,7.65-13.13,11.9-1.81,1.87-3.41,3.99-4.84,6.17-3.09,4.72-5.05,9.94-6.16,15.45-.32,1.59-.27,3.26-.39,4.89,1.34-2.68,2.58-5.31,3.6-8.03,3.24-8.57,8.46-15.83,14.93-22.16,3.05-2.98,6.65-5.4,9.93-8.17,1.43-1.21,2.67-2.64,4.07-4.01-.03,0-.06,.02-.3,.06Z"/>
      <path class="cls-4" d="M296.6,262.75c-.94-.78-.55-1.6-.12-2.24,2.54-3.82,5.52-7.22,9.69-9.35,8.63-4.41,17.29-3.71,25.94-.03,.63,.27,1.17,.81,1.65,1.32,1.01,1.08,.87,1.89-.61,2.16-1.8,.32-3.68,.24-5.53,.29-3.38,.1-6.82-.14-10.14,.36-3.13,.47-6.22,1.5-9.19,2.65-3.64,1.41-7.14,3.21-10.7,4.82-.26,.12-.6,.07-.98,.02Zm2.6-2.96c3.57-1.42,7.09-2.99,10.72-4.21,3-1.01,6.1-2.08,9.22-2.27,4.16-.26,8.41-.62,12.57,.43,.15,.04,.34-.07,.93-.2-1.25-.77-2.14-1.49-3.16-1.9-6.57-2.64-13.28-2.67-19.87-.32-3.02,1.08-6.1,2.42-8.11,5.25-.79,1.11-1.67,2.16-2.59,3.27,.03,0,.06-.02,.29-.05Z"/>
      <path class="cls-6" d="M74.12,178.19c2.03,.18,3.94,.25,5.84,.47,3.93,.45,7.88,.78,11.76,1.53,5.47,1.05,10.94,2.2,16.29,3.74,5.52,1.58,10.75,3.96,15.27,7.63,.4,.33,.77,1.29,.58,1.6-.31,.5-1.15,1.05-1.67,.97-2.28-.34-4.63-.66-6.78-1.45-3.26-1.2-6.68-1.47-10.01-2.2-2.92-.64-5.82-1.31-8.75-1.88-2.15-.41-4.31-.81-6.49-.98-4.85-.38-9.71-.59-14.56-.91-2.28-.15-4.55-.42-6.83-.61-1.26-.11-2.53-.24-3.79-.23-4.3,.06-8.64-.14-12.9,.35-5.61,.65-11.15,1.88-16.73,2.77-.76,.12-1.6-.25-2.4-.39,.22-.73,.2-1.82,.69-2.13,1.74-1.13,3.6-2.11,5.51-2.93,6.01-2.58,12.46-3.53,18.81-4.82,1.02-.21,2.08-.29,3.13-.31,4.3-.11,8.61-.18,13.04-.22Zm12.88,7.1c3.27,.58,6.54,1.2,9.82,1.72,4.53,.72,9.1,1.24,13.6,2.09,2.94,.56,5.8,1.56,8.69,2.36,.52,.14,1.03,.31,1.81,.54-.23-.42-.26-.58-.35-.64-4.42-2.5-8.97-4.8-13.91-5.99-6.33-1.51-12.75-2.73-19.17-3.85-5.96-1.05-11.98-1.73-18.06-1.46-4.03,.17-8.07,.23-12.07,.66-6.42,.69-12.61,2.41-18.65,4.67-.98,.37-1.89,.9-2.84,1.36,.27,.22,.47,.27,.64,.21,5.25-1.64,10.67-2.29,16.11-2.81,1.08-.1,2.17-.13,3.26-.14,2.07-.02,4.15-.02,6.23,0,4.57,.05,9.14,.01,13.69,.23,3.65,.17,7.29,.68,11.2,1.04Z"/>
      <path class="cls-11" d="M603.64,184.43c1.48,.29,2.85,.51,4.18,.87,.67,.18,1.36,.51,1.91,.94,1.58,1.25,1.3,3.3-.54,4.18-3.23,1.55-6.65,2.51-10.16,3.2-5.23,1.03-10.49,1.95-15.65,3.25-5.61,1.41-11.2,3.01-16.66,4.89-5.25,1.81-10.35,4.07-15.5,6.18-5.28,2.17-10.54,4.4-15.82,6.57-.74,.3-1.57,.57-2.35,.56-.56,0-1.27-.38-1.61-.83-.2-.26,.04-1.18,.37-1.46,2.84-2.4,5.6-4.93,8.67-7.02,4.18-2.85,8.55-5.43,12.92-7.98,4.45-2.6,9.05-4.96,14.07-6.3,8.15-2.17,16.26-4.52,24.49-6.33,3.73-.82,7.7-.52,11.69-.73Zm-30.09,12.78c5.26-1.34,10.49-2.82,15.79-3.97,4.74-1.03,9.56-1.63,14.33-2.53,1.93-.37,3.96-.73,5.18-2.65-1.31-1.53-3.09-1.96-4.9-1.88-2.7,.12-5.41,.4-8.09,.81-5.25,.81-10.57,1.42-15.7,2.73-5.93,1.52-11.81,3.41-17.49,5.69-4.62,1.86-8.98,4.41-13.32,6.88-3.45,1.97-6.74,4.24-10.04,6.47-1.88,1.27-3.63,2.73-5.43,4.1,.06,.11,.13,.22,.19,.34,1.06-.35,2.16-.62,3.17-1.08,5.52-2.47,11.06-4.92,16.52-7.52,6.31-3.01,12.92-5.19,19.77-7.4Z"/>
      <path class="cls-8" d="M155.68,277.09c1.06,1.82,2.06,3.56,3.08,5.29,.48,.81,.49,1.51-.31,2.15-.9,.72-1.29-.1-1.77-.55-2.39-2.27-4.61-4.77-7.18-6.81-4.15-3.3-8.78-5.87-13.7-7.92-4.16-1.73-8.43-2.73-12.95-2.52-1.14,.05-2.28,.19-3.42,.28-.33,.02-.71,.08-1-.03-.64-.25-1.23-.6-1.85-.91,.4-.43,.76-.93,1.22-1.29,4.94-3.77,10.44-4.32,16.41-3.19,4.56,.87,8.6,2.73,11.98,5.74,3.35,2.99,6.3,6.44,9.47,9.78Zm.32,3.81s.05,.03,.08,.04c-.04-.04-.08-.08-.11-.33-.87-1.29-1.62-2.7-2.64-3.86-3.13-3.55-6.34-7.08-10.31-9.68-5.37-3.53-11.4-4.81-17.77-4.01-1.76,.22-3.43,1.14-5.15,1.75,.04,.16,.09,.33,.13,.49,.74-.04,1.48-.09,2.22-.11,1.57-.05,3.17-.29,4.72-.09,8.2,1.04,15.27,4.81,21.83,9.57,2.5,1.81,4.66,4.09,7,6.25Z"/>
      <path class="cls-8" d="M2.07,274.57c-.53-2.44,1.51-2.95,2.88-3.74,3.42-1.98,7.19-3.2,11.08-3.65,3.22-.38,6.54-.41,9.76-.04,3.96,.46,7.89,1.34,11.76,2.31,5.48,1.38,10.4,4.08,15.19,7.01,6.91,4.23,13.28,9.17,18.97,14.95,2,2.03,3.77,4.28,5.72,6.36,.41,.44,1.09,.82,1.68,.86,2.57,.18,5.16,.15,7.73,.34,4.42,.33,8.89,.46,13.23,1.27,3.34,.62,6.58,1.99,9.76,3.31,8.06,3.33,15.24,8.16,22.04,13.54,2.73,2.16,5.16,4.7,7.73,7.07,.37,.34,.74,.67,1.11,1,.12-.09,.23-.19,.35-.28-.68-1.11-1.26-2.28-2.04-3.3-2.46-3.22-4.96-6.42-7.53-9.55-2.8-3.42-6.02-6.41-9.72-8.85-5.19-3.42-10.38-6.87-16.46-8.57-3.48-.98-6.95-2.24-10.5-2.64-3.96-.45-8.07-1.34-12.02,.51-.38,.18-1.24-.1-1.54-.45-2.12-2.51-4.02-5.21-6.22-7.64-4.49-4.94-9.73-9.01-15.2-12.83-5.19-3.62-10.54-6.96-16.48-9.11-3.96-1.43-8.16-2.27-12.3-3.15-4.55-.97-9.2-1.07-13.84-.9-5.28,.19-10.21,1.38-14.18,5.18-.34,.32-.81,1.02-1.03-.22,.59-2.11,2.31-2.93,3.98-3.73,3.9-1.86,8.09-2.48,12.37-2.7,9.74-.51,19.16,1.05,28.14,4.78,6.7,2.78,12.7,6.86,18.54,11.16,4.61,3.39,8.71,7.32,12.57,11.51,1.61,1.75,2.94,3.76,4.46,5.6,.27,.32,.9,.63,1.27,.55,8.42-1.91,16.41-.05,24.3,2.68,6.54,2.27,12.43,5.8,17.75,10.12,3.35,2.72,6.28,6.01,9.18,9.24,3.68,4.11,6.85,8.61,9.16,13.65,.52,1.13,.92,2.31,1.27,3.51,.11,.39-.01,1.16-.25,1.26-.39,.17-1.08,.12-1.42-.14-.63-.48-1.19-1.11-1.64-1.78-1.94-2.91-4.51-5.17-7.28-7.25-4.12-3.1-8.09-6.41-12.32-9.35-6.48-4.5-13.5-8.05-21.17-10.05-3.2-.84-6.57-1.15-9.89-1.4-3.67-.29-7.37-.37-11.05-.29-2.56,.06-3.76-1.48-5.28-3.15-2.87-3.18-6.01-6.13-9.19-9-2.41-2.17-4.95-4.22-7.61-6.08-3.29-2.29-6.7-4.44-10.17-6.45-3.9-2.25-8.01-4.07-12.43-5.08-5.45-1.25-10.9-2.5-16.56-2.2-5.11,.28-9.88,1.55-14.07,4.65-.73,.54-1.65,.83-2.54,1.17Zm140.51,52.98c.02-.06,.03-.12,.05-.18-.04,.04-.08,.08-.05,.18Z"/>
      <path class="cls-13" d="M225.32,305.55c-6.98-.04-13.78,.42-20.5,1.71-4.77,.92-9.49,2.05-14.25,2.99-.89,.18-1.88-.12-2.82-.19,.36-.88,.48-2.09,1.14-2.58,2.43-1.83,4.96-3.56,7.6-5.06,4.48-2.54,9.6-2.82,14.53-3.37,5.45-.6,10.98-.78,16.46-.59,4.85,.17,9.66,1.25,14.24,2.99,1.03,.39,1.93,1.21,2.77,1.97,.53,.48,.54,1.06-.21,1.66-1.25,1-2.56,.91-4.03,.84-4.92-.21-9.85-.26-14.93-.37Zm-16.46-1.12c.62-.01,1.25,0,1.87-.04,5.37-.37,10.74-.91,16.12-1.06,4.7-.13,9.42,.17,14.13,.28-.34-.3-.74-.49-1.17-.61-1.42-.38-2.84-.83-4.28-1.07-3.42-.57-6.86-1.42-10.3-1.44-5.57-.04-11.16,.41-16.73,.8-3.81,.26-7.63,.75-11.1,2.47-2.29,1.13-4.4,2.63-6.59,3.96l.24,.42c1.26-.37,2.51-.85,3.79-1.1,4.58-.9,9.17-1.73,14.01-2.6Z"/>
      <path class="cls-12" d="M324.02,280.53c-.42-.07-.84-.14-1.35-.26,1.39-1.31,2.69-3.03,4.41-3.76,4.17-1.77,8.67-1.82,13.1-1.17,4.61,.68,9.17,1.67,13.75,2.55,1.22,.23,1.97-.24,2.28-1.39,1.14-4.12,3.31-7.64,6.97-9.82,2.54-1.51,5.44-2.6,8.31-3.34,3.71-.96,7.55-1.44,11.35-2.04,1.45-.23,2.94-.23,4.42-.34,5.08-.38,10.18-.68,15.25-1.15,3.88-.37,7.78-.76,11.6-1.5,4.79-.94,9.54-2.14,14.25-3.45,1.65-.46,3.2-1.45,4.64-2.43,.62-.42,1-1.38,1.21-2.17,.36-1.37,.43-2.82,.76-4.21,1.24-5.26,4.85-8.52,9.44-10.86,3.92-2,8.19-2.85,12.51-3.14,2.14-.14,4.35,.38,6.48,.83,1.2,.25,2.01,.09,2.78-.82,1.86-2.2,4.39-3.03,7.14-3,3.29,.04,6.6,.16,9.84,.62,2.28,.32,4.47,1.26,6.8,1.94-.23,1.01-.81,1.71-2.15,1.65-1.48-.41-2.75-.92-4.06-1.02-3.69-.3-7.39-.56-11.09-.58-2.63-.02-4.95,.94-6.34,3.42-.46,.82-1.04,.77-1.92,.58-2.41-.51-4.87-1.14-7.3-1.08-3.91,.11-7.71,1.01-11.35,2.61-4.66,2.06-7.97,4.95-8.47,10.45-.18,1.94-.72,3.95-2.28,5.59-2.88,3.05-6.64,4.29-10.43,5.34-4.06,1.13-8.23,1.93-12.4,2.61-4.17,.67-8.39,1.1-12.61,1.47-5.41,.48-10.83,.8-16.25,1.18-5.76,.4-11.43,1.21-16.8,3.46-2.67,1.12-5.12,2.58-6.38,5.43-.73,1.65-1.43,3.32-2.32,4.88-.78,1.36-1.74,2.87-3.61,2.58-2.81-.44-5.59-1.15-8.38-1.72-1.91-.39-3.81-.94-5.74-1.05-2.94-.18-5.9-.12-8.84-.02-2.79,.09-5.32,.96-7.24,3.14Z"/>
      <path class="cls-12" d="M550.49,106.12c.88-6.51,4.18-11.07,10.18-13.56,1.57-.65,3.17-1.29,4.8-1.76,.65-.19,1.58-.13,2.12,.22,.82,.53,.26,1.34-.1,2.01-1.36,2.51-2.7,5.02-4.06,7.53-2.33,4.32-4.32,8.74-4.31,13.79,0,.89,0,1.78,0,2.67,.01,1.4-.89,2.18-2.26,2.06-1.84-.16-3.2-1.09-4.44-2.4-2.94-3.07-2.89-6.65-1.94-10.55Zm11.27-6.12c1.26-2.25,2.52-4.5,3.78-6.75-1.82,.17-3.45,.42-4.89,1.08-2.56,1.17-4.99,2.66-6.13,5.44-1.57,3.82-2.32,7.83-2.3,11.97,.02,3.57,1.16,4.9,4.81,5.47,.02-.28,.11-.57,.06-.83-.46-2.44-.08-4.86,.71-7.1,1.09-3.09,2.57-6.05,3.96-9.26Z"/>
      <path class="cls-12" d="M613.73,138.05c-2.32-.73-4.59-1.37-6.1-3.36-.73-.97-.81-1.96-.36-3.08,2.29-5.64,6.71-6.78,11.83-6.36,1.11,.09,2.22,.51,3.28,.9,.36,.13,.59,.63,.88,.96-.39,.3-.73,.74-1.17,.87-1.81,.56-3.66,.97-5.46,1.54-.67,.21-1.28,.65-1.87,1.05-1.81,1.22-2.05,2.99-.66,4.61,1.19,1.4,1.18,1.48-.37,2.87Zm-1.84-2.12c.18,.03,.36,.05,.53,.08,0-.06,.02-.12,.02-.19-.21-.02-.42-.04-.64-.29-.96-2.43-.35-4.61,1.89-6.16,1.31-.9,2.73-1.64,4.29-2.56-2.95,.24-5.54,.94-7.74,2.65-1.08,.84-1.68,2.09-1.23,3.43,.44,1.32,1.02,2.73,2.88,3.03Z"/>
      <path class="cls-1" d="M324.09,280.61c1.85-2.26,4.37-3.13,7.17-3.22,2.95-.1,5.9-.16,8.84,.02,1.93,.12,3.83,.66,5.74,1.05,2.8,.57,5.57,1.28,8.38,1.72,1.87,.29,2.83-1.22,3.61-2.58,.89-1.56,1.59-3.23,2.32-4.88,1.26-2.84,3.7-4.3,6.38-5.43,5.36-2.25,11.04-3.06,16.8-3.46,5.42-.38,10.84-.7,16.25-1.18,4.21-.37,8.43-.8,12.61-1.47,4.17-.67,8.34-1.47,12.4-2.61,3.78-1.06,7.54-2.29,10.43-5.34,1.56-1.65,2.1-3.65,2.28-5.59,.5-5.5,3.81-8.39,8.47-10.45,3.64-1.61,7.44-2.51,11.35-2.61,2.42-.07,4.89,.57,7.3,1.08,.89,.19,1.46,.24,1.92-.58,1.38-2.49,3.71-3.44,6.34-3.42,3.7,.02,7.4,.29,11.09,.58,1.31,.11,2.58,.62,3.95,1.02-.88,.37-1.85,.9-2.81,.9-6.9-.02-13.2,2.21-18.89,5.77-3.51,2.2-6.68,5.31-7.6,9.66-.82,3.91-3.37,6.25-6.19,8.69-3.01,2.61-6.14,4.96-9.75,6.61-5.55,2.53-11.17,4.94-16.76,7.39-3.58,1.57-7.14,3.19-10.76,4.65-4.52,1.83-9.26,2.85-14.07,3.62-4.6,.73-9.17,1.66-13.77,2.39-2.91,.46-5.85,.76-8.78,1.04-4.31,.42-8.62,.9-12.94,1.08-3.72,.15-7.45-.07-11.18-.17-1.62-.04-3.24-.18-4.85-.32-4.03-.37-8.07-.62-12.07-1.2-3.99-.58-7.94-1.49-11.9-2.27-.42-.08-.81-.26-1.29-.48Zm67.29-8.83c.24-.16,.55-.27,.7-.49,.37-.52,1.02-1.2,.89-1.61-.17-.55-.95-.92-1.51-1.31-.22-.15-.54-.19-.82-.2-6.17-.17-12.32-.09-18.36,1.43-4.09,1.03-7.21,3.43-9.6,6.81-.3,.43-.52,1.26-.31,1.63,.31,.53,1.08,1.17,1.61,1.14,1.21-.08,2.4-.56,3.6-.86,5.54-1.38,11.09-2.7,16.61-4.14,2.38-.62,4.69-1.5,7.2-2.4Z"/>
      <path class="cls-9" d="M635.26,269.88c-.56,.12-1.23,.3-1.91,.3-2.03,0-4.07-.06-6.19-.19,1.9-.2,3.89-.37,5.88-.43,.7-.02,1.4,.19,2.22,.31Z"/>
      <path class="cls-1" d="M615.25,1.68c-1.32,1.33-2.56,2.77-3.99,3.98-3.27,2.77-6.88,5.18-9.93,8.17-6.47,6.33-11.7,13.59-14.93,22.16-1.02,2.71-2.26,5.35-3.6,8.03,.12-1.63,.07-3.3,.39-4.89,1.1-5.52,3.06-10.74,6.16-15.45,1.43-2.18,3.03-4.3,4.84-6.17,4.1-4.26,8.21-8.51,13.13-11.9,2.42-1.67,4.86-3.16,7.83-3.9,.11-.01,.11-.01,.11-.01Z"/>
      <path class="cls-1" d="M615.25,1.68s.06-.02,.04-.02c-.04,.01-.04,.01-.04,.02Z"/>
      <path class="cls-1" d="M298.99,259.81c.84-1.08,1.72-2.13,2.51-3.24,2.01-2.83,5.09-4.18,8.11-5.25,6.59-2.35,13.3-2.32,19.87,.32,1.02,.41,1.9,1.13,3.16,1.9-.59,.13-.78,.23-.93,.2-4.16-1.05-8.41-.69-12.57-.43-3.11,.2-6.22,1.26-9.22,2.27-3.64,1.22-7.16,2.79-10.83,4.22-.1,0-.11,0-.11,0Z"/>
      <path class="cls-1" d="M298.99,259.81s-.06,.02-.04,.01c.04-.02,.04-.01,.04-.01Z"/>
      <path class="cls-2" d="M86.86,185.28c-3.78-.36-7.41-.86-11.06-1.04-4.56-.22-9.13-.17-13.69-.23-2.07-.02-4.15-.03-6.23,0-1.09,0-2.18,.04-3.26,.14-5.44,.52-10.86,1.17-16.11,2.81-.17,.05-.37,0-.64-.21,.94-.46,1.86-.99,2.84-1.36,6.04-2.27,12.23-3.99,18.65-4.67,4-.43,8.05-.49,12.07-.66,6.08-.26,12.1,.42,18.06,1.46,6.42,1.13,12.83,2.34,19.17,3.85,4.94,1.18,9.49,3.48,13.91,5.99,.1,.05,.13,.22,.35,.64-.77-.23-1.29-.39-1.81-.54-2.89-.8-5.75-1.8-8.69-2.36-4.5-.85-9.07-1.37-13.6-2.09-3.28-.52-6.55-1.14-9.95-1.72Z"/>
      <path class="cls-1" d="M573.44,197.26c-6.75,2.16-13.35,4.35-19.67,7.36-5.46,2.6-11,5.05-16.52,7.52-1.02,.46-2.11,.72-3.17,1.08-.06-.11-.13-.22-.19-.34,1.81-1.37,3.56-2.83,5.43-4.1,3.3-2.23,6.58-4.5,10.04-6.47,4.34-2.48,8.7-5.03,13.32-6.88,5.68-2.28,11.56-4.18,17.49-5.69,5.13-1.31,10.45-1.92,15.7-2.73,2.68-.41,5.38-.69,8.09-.81,1.81-.08,3.59,.35,4.9,1.88-1.22,1.92-3.25,2.28-5.18,2.65-4.76,.9-9.59,1.5-14.33,2.53-5.3,1.15-10.53,2.63-15.9,4.02Z"/>
      <path class="cls-14" d="M155.98,280.82c-2.31-2.07-4.47-4.35-6.97-6.16-6.56-4.76-13.62-8.53-21.83-9.57-1.54-.2-3.14,.04-4.72,.09-.74,.02-1.48,.07-2.22,.11-.04-.16-.09-.33-.13-.49,1.71-.6,3.39-1.53,5.15-1.75,6.37-.8,12.39,.48,17.77,4.01,3.97,2.61,7.18,6.14,10.31,9.68,1.02,1.16,1.77,2.57,2.64,3.96,0,.1,0,.1,0,.1Z"/>
      <path class="cls-14" d="M155.97,280.82s.08,.08,.12,.12c-.03-.01-.05-.03-.1-.09-.01-.04-.02-.04-.02-.04Z"/>
      <path class="cls-16" d="M142.55,327.51c0-.07,.04-.11,.08-.15-.02,.06-.03,.12-.08,.15Z"/>
      <path class="cls-10" d="M208.73,304.43c-4.72,.86-9.31,1.69-13.88,2.59-1.29,.25-2.53,.73-3.79,1.1l-.24-.42c2.19-1.33,4.3-2.83,6.59-3.96,3.47-1.71,7.29-2.21,11.1-2.47,5.57-.38,11.15-.84,16.73-.8,3.44,.03,6.88,.87,10.3,1.44,1.45,.24,2.86,.69,4.28,1.07,.42,.11,.83,.31,1.17,.61-4.71-.11-9.43-.41-14.13-.28-5.38,.15-10.75,.7-16.12,1.06-.62,.04-1.25,.03-2,.04Z"/>
      <path class="cls-2" d="M561.72,100.11c-1.35,3.11-2.83,6.07-3.92,9.16-.79,2.25-1.17,4.67-.71,7.1,.05,.26-.04,.55-.06,.83-3.65-.56-4.79-1.9-4.81-5.47-.02-4.14,.73-8.15,2.3-11.97,1.14-2.78,3.57-4.27,6.13-5.44,1.44-.66,3.07-.9,4.89-1.08-1.26,2.25-2.52,4.5-3.82,6.85Z"/>
      <path class="cls-2" d="M611.79,135.8c-1.75-.17-2.33-1.57-2.77-2.89-.45-1.34,.15-2.59,1.23-3.43,2.2-1.71,4.79-2.42,7.74-2.65-1.56,.92-2.98,1.66-4.29,2.56-2.23,1.55-2.85,3.72-1.89,6.28,0,.12-.02,.14-.02,.14Z"/>
      <path class="cls-2" d="M611.81,135.77c.22,.01,.43,.04,.64,.06,0,.06-.02,.12-.02,.19-.18-.03-.36-.05-.58-.15-.05-.07-.04-.09-.03-.09Z"/>
      <path class="cls-12" d="M391.3,271.85c-2.43,.83-4.74,1.71-7.12,2.33-5.52,1.45-11.07,2.77-16.61,4.14-1.2,.3-2.39,.77-3.6,.86-.53,.04-1.3-.6-1.61-1.14-.21-.37,0-1.2,.31-1.63,2.39-3.39,5.51-5.78,9.6-6.81,6.04-1.53,12.19-1.6,18.36-1.43,.28,0,.61,.05,.82,.2,.56,.39,1.34,.77,1.51,1.31,.13,.41-.53,1.09-.89,1.61-.15,.22-.46,.33-.78,.55Zm-2.32-.65c.37-.27,.75-.54,1.46-1.06-.8-.12-1.23-.24-1.66-.23-2.1,.06-4.21,.03-6.29,.29-3.77,.47-7.57,.9-11.26,1.78-2.73,.65-5.43,1.81-6.59,5.09,1.03-.25,1.9-.44,2.76-.68,2.52-.72,5-1.57,7.55-2.16,4.59-1.06,9.22-1.97,14.03-3.03Z"/>
      <path class="cls-2" d="M388.88,271.24c-4.71,1.02-9.34,1.92-13.93,2.98-2.55,.59-5.03,1.44-7.55,2.16-.86,.24-1.73,.43-2.76,.68,1.16-3.28,3.87-4.44,6.59-5.09,3.68-.88,7.49-1.31,11.26-1.78,2.08-.26,4.19-.22,6.29-.29,.43-.01,.86,.11,1.66,.23-.71,.52-1.08,.79-1.56,1.1Z"/>
    </g>
  </g>
</svg>