<?xml version="1.0" encoding="UTF-8"?>
<svg id="Layer_2" data-name="Layer 2" xmlns="http://www.w3.org/2000/svg" viewBox="0 0 422.84 187.66">
  <defs>
    <style>
      .cls-1 {
        fill: #500e56;
      }

      .cls-2 {
        fill: #1e1032;
      }
    </style>
  </defs>
  <g id="Layer_8" data-name="Layer 8">
    <g>
      <path class="cls-1" d="M195.29,187.66c-.3-4.43-.51-8.74-.59-13.06-.13-6.83-1.91-13.28-5.49-19.12-1.34-2.19-2.33-4.54-3.53-6.78-1.03-1.93-2.22-3.74-3.46-5.52-1.83-2.61-3.76-5.14-5.9-7.51-1.65-1.81-3.35-3.56-5.25-5.11-1.4-1.14-2.44-2.66-3.79-3.87-2.02-1.82-3.92-3.82-6.34-5.08-2.47-1.29-4.83-2.89-7.73-3.26-.99-.13-1.95-.06-2.82,.21-3.42,1.08-6.6,2.59-9.36,4.98-3.97,3.43-7.31,7.44-10.67,11.43-.95,1.12-1.64,2.46-2.5,3.75-.64-.44-1.16-.95-.73-1.6,.89-1.35,.76-2.86,.87-4.32,.23-3.3,.33-6.6,.51-9.9,.19-3.52-.9-6.73-2.35-9.84-2.09-4.49-4.72-8.59-8.54-11.82-3.93-3.32-8.36-5.62-13.44-6.6-1.09-.21-2.19-.51-3.23-.9-5.12-1.94-10.42-2.58-15.86-2.42-2.04,.06-4.06,.35-5.97,1-4.08,1.38-8.24,2.6-12.06,4.67-2.58,1.4-5.02,3.02-7.45,4.65-1.5,1.01-3.02,2.01-4.48,3.07-.99,.71-2.01,.85-3.2,.54,.18-1.14,.73-2.03,1.35-2.9,3.83-5.5,6.97-11.34,8.86-17.8,.82-2.81,1.37-5.69,1.61-8.6,.24-2.86-.74-5.46-2.2-7.88-1.42-2.34-3.22-4.38-5.22-6.24-3.2-2.98-6.43-5.92-10.46-7.79-4.19-1.95-8.33-4.06-12.87-5.15-4.04-.97-8.1-1.81-12.21-2.4-3.26-.47-6.51-1.07-9.78-1.48-1.74-.22-3.52-.28-5.27-.17-1.75,.11-3.34-.63-5.04-.7-.65-.03-.82-.54-.55-1.19,.3-.73,.78-1.23,1.48-1.59,1.57-.81,3.2-1.44,4.9-1.92,7.9-2.22,15.68-4.77,23.34-7.71,4.78-1.83,9.73-3.15,14.65-4.53,7.59-2.13,15.18-4.28,22.81-6.25,7.84-2.02,15.73-3.84,23.6-5.76,.67-.16,1.34-.35,2.01-.52,.31-.08,.65-.26,.93-.19,2.18,.56,4.15-.43,6.16-.91,3.2-.77,6.39-1.59,9.61-2.28,3.58-.77,7.13-1.67,10.67-2.62,3.84-1.02,7.64-2.17,11.46-3.25,4.41-1.24,8.91-2.02,13.41-2.84,2.28-.42,4.55-.92,6.81-1.45,1.76-.41,3.53-.78,5.32-1.07,.64-.1,1.38-.11,2.04,.54-1.17,1.03-2.27,2.12-3.49,3.03-3.56,2.67-6.53,5.94-9.48,9.23-2.85,3.18-5.19,6.75-7.7,10.19-3.52,4.82-5.14,10.28-5.17,16.18-.02,3.16,.73,6.24,2.08,9.13,2.89,6.2,6.95,11.52,12.48,15.55,3.39,2.47,6.6,5.24,10.44,7.06,1.64,.78,3.34,1.38,5.11,1.79,1.31,.3,2.52,.2,3.73-.36,5.54-2.54,9.64-6.45,12.24-12.06,2.69-5.83,4.19-11.92,5.04-18.23,.29-2.16,.78-4.3,1.2-6.44,.06-.28,0-.73,.44-.74,.43,0,.67,.36,.69,.74,.04,.69,0,1.38,0,2.07-.06,2.55-.6,5.08-.21,7.65,1.17,7.62,4.54,13.93,10.98,18.37,1.9,1.31,4.04,2.09,6.33,2.55,1.74,.35,3.07-.21,4.12-1.44,1.69-1.98,3.22-4.07,4.46-6.39,2.48-4.66,3.86-9.69,5.21-14.73,.65-2.41,1.14-4.87,1.75-7.3,.1-.41-.12-1.21,.81-1.05,1.04,.18,1.66,.69,1.55,1.43-.22,1.58-.19,3.19-.47,4.77-.43,2.41-.97,4.81-1.03,7.27-.1,4.43,.56,8.72,2.54,12.73,.74,1.48,1.73,2.81,2.8,4.07,.93,1.1,1.99,2.08,2.98,3.13,3.24,3.43,7.37,5.32,11.7,6.97,5.22,2,10.23,1.25,15.24-.67,1.55-.59,3.01-1.35,4.36-2.31,1.44-1.01,2.93-1.93,4.47-2.78,3.29-1.83,6.21-4.1,8.32-7.3,.7-1.07,1.46-2.11,2.46-2.92,2.98-2.44,4.79-5.66,6.24-9.15,.67-1.62,1.28-3.28,1.57-5,.26-1.54,.58-3.14,0-4.7-.13-.36-.06-.62,.1-.9,1.03-1.8,.75-3.77,.48-5.62-.16-1.09-.01-2.2-.36-3.29-.71-2.29-1.92-4.27-3.43-6.07-2.8-3.34-6.23-5.89-9.93-8.17-4.44-2.73-9.27-4.49-14.19-6.02-3.85-1.2-7.66-2.56-11.63-3.36-.2-.04-.44,0-.56-.24,.01-.47,.37-.43,.67-.41,5.63,.4,11.28,.33,16.89,1.21,6.88,1.08,13.81,1.83,20.74,2.56,3.39,.36,6.76,.8,10.12,1.43,3.08,.58,6.23,.79,9.32,1.41,6.53,1.3,13.08,2.47,19.53,4.14,8.56,2.21,16.97,4.96,25.55,7.11,5.99,1.51,11.98,3.01,17.91,4.76,5.77,1.7,11.59,3.24,17.43,4.7,3.71,.93,7.49,1.63,11.27,2.29,4.93,.87,9.88,1.61,14.82,2.41,2,.32,4.03,.5,6.05,.54,3.21,.07,6.08,1.23,8.98,2.48-1.99,.39-3.98,.71-6,.71-3.41-.02-6.83-.24-10.23-.1-4.9,.19-9.81-.27-14.69,.36-3.75,.49-7.43,1.35-11.09,2.32-5.01,1.32-9.81,3.17-14.37,5.62-.37,.2-.75,.33-1.18,.43-4.55,.99-8.01,3.7-11.05,7.08-2.6,2.89-4.51,6.19-5.93,9.78-1.06,2.67-1.69,5.48-2.32,8.28-.76,3.42-1.17,6.9-1.61,10.37-.46,3.66,.14,7.21,1.87,10.53,.34,.66,.57,1.38,.92,2.03,.56,1.05,1.39,1.85,2.33,2.59,1.47,1.15,2.85,2.39,4.59,3.15,.13,.06,.21,.22,.41,.44-.52,.4-1.07,.4-1.64,.39-2.3-.04-4.57-.31-6.83-.67-4.38-.7-8.77-.97-13.21-.66-2.44,.17-4.89,.31-7.34,.39-1.99,.06-3.91,.49-5.86,.72-3.44,.41-6.89,.69-10.26,1.6-1.93,.52-3.74,1.26-5.4,2.33-1.65,1.07-3.29,2.19-4.82,3.43-3.37,2.71-6.02,6.01-7.79,9.98-.52,1.17-.87,2.4-1.04,3.68-.5,3.77-.76,7.55,.25,11.26,.5,1.83,.84,3.75,1.89,5.4,.4,.64,.59,1.37,.75,2.1,.11,.5-.09,.79-.64,.87-1.13,.16-1.79-.12-2.37-1.16-.55-.98-1-2-1.24-3.11-.14-.64-.41-1.2-.9-1.66-1.72-1.65-3.28-3.41-4.34-5.58-.17-.35-.6-.59-.95-.82-3.97-2.61-8.05-5.05-12.48-6.78-3.63-1.42-7.37-2.47-11.36-2.26-2.55,.14-5.11,.1-7.67,.24-2.85,.16-5.56,1.02-8.19,2.05-4.48,1.75-8.79,3.87-12.81,6.49-3.61,2.36-6.99,5.07-10.02,8.17-1.53,1.56-3.07,3.11-4.59,4.68-1.71,1.78-3.06,3.81-4.27,5.96-.92,1.62-1.86,3.25-3,4.72-1.98,2.55-3.49,5.37-4.85,8.25-2.79,5.9-4.74,12.09-5.97,18.5-.15,.78-.25,1.58-.42,2.36-.29,1.3-.3,1.3-1.83,1.3ZM267.13,13.99c3.07,1.9,6.27,3.58,9.05,5.94,1.91,1.62,3.83,3.21,5.15,5.38,.69,1.14,1.44,2.24,2.11,3.38,1.38,2.37,1.99,4.9,1.42,7.64-.1,.48-.07,.94,0,1.42,.29,1.9,.28,3.8,0,5.71-.34,2.26-.81,4.47-1.65,6.62-1.26,3.25-2.88,6.25-5.08,8.96-1.01,1.25-2.17,2.34-3.19,3.56-1.64,1.97-3.37,3.83-5.51,5.28-1.67,1.14-3.29,2.34-4.96,3.48-4.55,3.09-9.18,5.91-14.86,6.57-2.33,.27-4.57,.17-6.79-.31-3.58-.78-6.84-2.43-9.82-4.48-3.32-2.29-6.37-4.94-8.94-8.12-2.73-3.38-4.64-7.08-5.32-11.41-.15-.98-.13-2.01-.42-2.99-.68,1.45-1.37,2.81-2.19,4.11-1.56,2.47-3.06,4.97-4.54,7.49-1.38,2.36-3.09,4.3-5.84,5.09-.59,.17-1.09,.2-1.69,0-2.83-.93-5.56-2.1-8.2-3.45-1.1-.56-2.37-1.12-2.9-2.39-.24-.58-.6-1-1.02-1.4-2.38-2.24-3.86-5.05-5.13-8.01-.62-1.44-1.03-2.96-1.54-4.41-.32,.05-.34,.2-.37,.35-.54,2.38-.97,4.79-1.64,7.13-1.5,5.28-3.55,10.26-8.14,13.74-3.07,2.33-6.28,4.33-10.12,5.2-1.02,.23-1.92,.16-2.77-.27-2.09-1.05-4.19-2.08-6.19-3.29-3.68-2.22-7.28-4.58-10.69-7.21-1.94-1.5-3.86-3.04-5.19-5.14-1.53-2.41-3.04-4.85-4.37-7.38-.68-1.3-1.4-2.62-1.67-4.12-.42-2.29-1.1-4.56-1.3-6.87-.16-1.81-.51-3.67-.09-5.52,.3-1.3,.78-2.53,1.23-3.78,1.11-3.06,2.52-5.99,4.19-8.76,2.53-4.2,5.67-7.95,9.13-11.44,1.39-1.4,2.81-2.76,4.12-4.24,1.04-1.19,2.04-2.44,3.41-3.32,.44-.29,.91-.68,1.13-1.44-2.92,.66-5.64,1.59-8.51,1.8-1.97,.14-3.85,.72-5.76,1.12-1.4,.3-2.83,.47-4.2,.84-4.36,1.17-8.72,2.34-12.96,3.93-2.28,.85-4.67,1.42-7.03,2.04-3.18,.84-6.3,1.9-9.54,2.48-3.8,.69-7.64,1.21-11.42,1.99-5.24,1.08-10.48,2.19-15.69,3.41-5.42,1.27-10.83,2.6-16.19,4.1-2.91,.81-5.81,1.7-8.71,2.53-4.23,1.2-8.39,2.65-12.65,3.77-3.38,.9-6.7,2-10.12,2.74-1.14,.25-2.28,.56-3.36,.97-4.02,1.54-8.04,3.07-12.18,4.29-3.05,.9-6.04,2.04-9.05,3.09-1.46,.51-2.9,1.05-4.27,1.77-.28,.15-.61,.23-.65,.62,.09,.21,.24,.37,.46,.39,2.64,.21,5.22,.86,7.87,1.06,1.43,.11,2.92,.01,4.27,.38,2.73,.73,5.54,.87,8.3,1.42,4.73,.95,9.5,1.8,13.97,3.64,4.49,1.85,9.08,3.49,12.98,6.62,2.91,2.34,5.69,4.81,8.25,7.49,3.49,3.64,5.1,8.16,5.13,13.2,.01,2.96-1.06,5.73-1.83,8.53-.67,2.43-1.41,4.86-2.67,7.11-1.51,2.68-2.62,5.59-4.61,8.01-.47,.58-.97,1.13-1.45,1.69-.15,.17-.25,.37-.12,.57,.14,.2,.39,.18,.58,.1,.29-.12,.59-.26,.84-.45,.54-.43,1.02-.94,1.57-1.35,2.1-1.53,4.16-3.12,6.35-4.53,2.09-1.34,4.11-2.82,6.57-3.52,1.74-.49,3.5-.88,5.25-1.3,3.21-.77,6.47-1.1,9.76-1.26,2.21-.11,4.4-.15,6.61-.06,2.35,.1,4.66,.44,6.93,.89,3.16,.63,6.29,1.43,9.32,2.68,3.96,1.64,7.78,3.56,11.1,6.2,3.63,2.9,6.6,6.44,8.3,10.93,1.6,4.23,2.44,8.61,2.37,13.08-.04,2.54-.18,5.1-.22,7.65,0,.33-.21,.75,.33,1.02,.66-.66,1.36-1.26,1.83-2.15,1.02-1.94,2.35-3.64,3.91-5.2,1.51-1.51,3.16-2.85,4.7-4.32,3.23-3.11,6.96-4.96,11.58-4.8,4.36,.15,8.18,1.5,11.56,4.3,2.13,1.76,4.24,3.53,6.34,5.33,2.69,2.3,5.01,4.9,7.25,7.6,1.7,2.04,3.35,4.13,5.11,6.11,2.03,2.28,3.77,4.75,5.27,7.38,1.76,3.09,3.21,6.34,4.55,9.65,2.48,6.13,3.95,12.43,3.82,19.07-.03,1.65,0,3.31-.01,4.96,0,.54,0,1.08,.34,1.53,.26,.36,.55,.25,.76-.06,.23-.33,.21-.72,.07-1.07-.25-.62-.3-1.28-.15-1.89,.71-2.94,1.27-5.94,2.28-8.77,1.45-4.07,3.59-7.84,5.81-11.53,1.51-2.5,3.34-4.82,4.76-7.37,1.44-2.59,3.21-4.9,5.2-7.02,5-5.32,10.39-10.21,16.34-14.46,2.99-2.14,6.05-4.11,9.5-5.48,3.75-1.49,7.64-2.15,11.62-2.49,1.19-.1,2.31,.33,3.48,.33,1.8,0,3.6-.03,5.41,.27,2.31,.39,4.58,.9,6.77,1.73,3.54,1.35,6.91,3.06,10.18,4.96,2.99,1.74,6,3.45,8.32,6.11,.18,.2,.35,.58,.82,.32-.01-.29,0-.61-.05-.92-.54-3.45-.42-6.9,.26-10.3,.84-4.19,3.14-7.64,5.97-10.74,3.13-3.43,6.97-5.94,11.2-7.76,2.82-1.21,5.75-2.19,8.9-2.29,1.15-.04,2.34-.14,3.47-.36,3.14-.59,6.33-.63,9.5-.84,2.39-.16,4.83,.2,7.19-.13,2.17-.31,4.24,.1,6.33,.22,2.58,.14,5.12,.77,7.69,1.13,.76,.11,1.54,.02,2.31,.02,0-.58-.39-.62-.63-.78-1.04-.64-2.03-1.35-2.99-2.11-1.02-.81-1.79-1.76-2.29-2.99-.61-1.49-.8-3.08-1.28-4.58-1.02-3.2-.3-6.35-.12-9.5,.16-2.95,.68-5.89,1.24-8.8,.42-2.23,.62-4.51,1.55-6.64,.71-1.62,1.6-3.13,2.46-4.66,1.69-3.01,4-5.52,6.59-7.75,2.21-1.91,4.67-3.52,7.18-5.01,2.01-1.19,4.04-2.37,6.13-3.41,1.81-.9,3.72-1.58,5.58-2.37,3.28-1.4,6.65-2.53,10.08-3.48,1.62-.45,3.33-.62,4.99-.92,1.93-.35,3.88-.62,5.84-.65,2.27-.04,4.54,0,6.81,0-1.68-.57-3.36-1.04-5.07-1.26-3.84-.49-7.55-1.65-11.38-2.23-2.72-.41-5.36-1.31-8.03-1.99-5.71-1.46-11.39-3.01-17.01-4.8-3.29-1.05-6.64-1.88-9.98-2.73-4.63-1.18-9.22-2.49-13.84-3.71-4.21-1.11-8.3-2.63-12.53-3.67-4.89-1.21-9.71-2.68-14.69-3.51-2.3-.38-4.57-.91-6.85-1.41-3-.65-6.06-1-9.08-1.53-3.76-.66-7.51-1.32-11.31-1.71-1.31-.14-2.64-.18-3.94-.47-1.6-.36-3.24-.53-4.87-.74-2.57-.34-5.15-.6-7.72-.98-1.16-.17-2.31-.36-3.48-.32-.48,.02-.95-.1-1.42-.16-1.56-.2-3.13-.32-4.7-.46,3.87,1.79,7.87,3.19,11.82,5.28Z"/>
      <path class="cls-2" d="M267.02,13.93c-3.85-2.03-7.85-3.44-11.72-5.23,1.57,.15,3.14,.26,4.7,.46,.47,.06,.94,.18,1.42,.16,1.18-.04,2.32,.15,3.48,.32,2.56,.38,5.15,.64,7.72,.98,1.63,.21,3.27,.39,4.87,.74,1.31,.29,2.64,.33,3.94,.47,3.8,.4,7.55,1.05,11.31,1.71,3.02,.53,6.08,.88,9.08,1.53,2.28,.49,4.55,1.03,6.85,1.41,4.98,.82,9.8,2.3,14.69,3.51,4.23,1.05,8.32,2.56,12.53,3.67,4.62,1.22,9.21,2.52,13.84,3.71,3.34,.85,6.69,1.68,9.98,2.73,5.62,1.79,11.3,3.34,17.01,4.8,2.67,.68,5.32,1.58,8.03,1.99,3.83,.58,7.53,1.74,11.38,2.23,1.71,.22,3.39,.68,5.07,1.26-2.27,0-4.54-.03-6.81,0-1.96,.03-3.91,.3-5.84,.65-1.67,.31-3.37,.47-4.99,.92-3.43,.96-6.8,2.08-10.08,3.48-1.86,.79-3.77,1.47-5.58,2.37-2.09,1.04-4.12,2.22-6.13,3.41-2.52,1.49-4.97,3.1-7.18,5.01-2.59,2.23-4.9,4.74-6.59,7.75-.86,1.53-1.75,3.04-2.46,4.66-.93,2.13-1.13,4.42-1.55,6.64-.55,2.91-1.07,5.85-1.24,8.8-.17,3.15-.9,6.3,.12,9.5,.48,1.49,.67,3.09,1.28,4.58,.5,1.23,1.27,2.18,2.29,2.99,.96,.76,1.95,1.47,2.99,2.11,.25,.15,.64,.2,.63,.78-.77,0-1.55,.09-2.31-.02-2.57-.36-5.12-.99-7.69-1.13-2.09-.11-4.17-.53-6.33-.22-2.35,.34-4.8-.03-7.19,.13-3.17,.21-6.35,.25-9.5,.84-1.14,.21-2.32,.32-3.47,.36-3.15,.1-6.08,1.08-8.9,2.29-4.24,1.82-8.07,4.33-11.2,7.76-2.83,3.1-5.13,6.55-5.97,10.74-.68,3.4-.8,6.85-.26,10.3,.05,.31,.04,.63,.05,.92-.47,.25-.64-.12-.82-.32-2.32-2.66-5.33-4.38-8.32-6.11-3.27-1.9-6.64-3.61-10.18-4.96-2.19-.84-4.45-1.34-6.77-1.73-1.81-.31-3.6-.27-5.41-.27-1.18,0-2.29-.43-3.48-.33-3.98,.34-7.87,1-11.62,2.49-3.45,1.37-6.51,3.34-9.5,5.48-5.95,4.25-11.34,9.15-16.34,14.46-2,2.12-3.77,4.43-5.2,7.02-1.41,2.55-3.25,4.86-4.76,7.37-2.22,3.7-4.36,7.47-5.81,11.53-1.01,2.84-1.57,5.84-2.28,8.77-.15,.61-.1,1.27,.15,1.89,.14,.35,.16,.74-.07,1.07-.21,.31-.5,.42-.76,.06-.33-.45-.34-.99-.34-1.53,0-1.65-.02-3.31,.01-4.96,.13-6.64-1.35-12.95-3.82-19.07-1.34-3.31-2.79-6.55-4.55-9.65-1.5-2.63-3.24-5.11-5.27-7.38-1.76-1.98-3.41-4.07-5.11-6.11-2.25-2.7-4.56-5.31-7.25-7.6-2.1-1.79-4.22-3.56-6.34-5.33-3.37-2.8-7.2-4.15-11.56-4.3-4.62-.15-8.35,1.69-11.58,4.8-1.53,1.48-3.19,2.81-4.7,4.32-1.56,1.56-2.89,3.27-3.91,5.2-.47,.88-1.17,1.49-1.83,2.15-.55-.27-.34-.7-.33-1.02,.04-2.55,.18-5.11,.22-7.65,.07-4.47-.77-8.84-2.37-13.08-1.7-4.49-4.66-8.04-8.3-10.93-3.32-2.65-7.14-4.57-11.1-6.2-3.02-1.25-6.15-2.05-9.32-2.68-2.27-.45-4.58-.79-6.93-.89-2.22-.1-4.41-.05-6.61,.06-3.29,.16-6.55,.49-9.76,1.26-1.75,.42-3.51,.81-5.25,1.3-2.47,.7-4.48,2.18-6.57,3.52-2.18,1.4-4.25,2.99-6.35,4.53-.56,.41-1.03,.92-1.57,1.35-.25,.2-.55,.33-.84,.45-.19,.08-.44,.11-.58-.1-.14-.2-.03-.4,.12-.57,.49-.56,.98-1.11,1.45-1.69,1.99-2.42,3.1-5.33,4.61-8.01,1.27-2.25,2-4.68,2.67-7.11,.78-2.8,1.85-5.57,1.83-8.53-.02-5.04-1.64-9.56-5.13-13.2-2.57-2.68-5.34-5.15-8.25-7.49-3.9-3.13-8.5-4.76-12.98-6.62-4.47-1.85-9.24-2.69-13.97-3.64-2.75-.56-5.57-.69-8.3-1.42-1.35-.36-2.84-.27-4.27-.38-2.65-.2-5.23-.85-7.87-1.06-.22-.02-.37-.18-.46-.39,.04-.4,.38-.48,.65-.62,1.37-.72,2.81-1.26,4.27-1.77,3.01-1.05,5.99-2.18,9.05-3.09,4.14-1.22,8.16-2.75,12.18-4.29,1.09-.42,2.23-.73,3.36-.97,3.42-.75,6.75-1.85,10.12-2.74,4.26-1.13,8.41-2.57,12.65-3.77,2.91-.83,5.8-1.72,8.71-2.53,5.36-1.5,10.77-2.84,16.19-4.1,5.21-1.22,10.45-2.33,15.69-3.41,3.78-.78,7.62-1.31,11.42-1.99,3.24-.58,6.36-1.64,9.54-2.48,2.36-.62,4.75-1.19,7.03-2.04,4.24-1.59,8.6-2.76,12.96-3.93,1.38-.37,2.81-.55,4.2-.84,1.92-.41,3.8-.98,5.76-1.12,2.86-.2,5.58-1.13,8.51-1.8-.22,.76-.69,1.15-1.13,1.44-1.37,.88-2.36,2.13-3.41,3.32-1.3,1.49-2.73,2.84-4.12,4.24-3.46,3.49-6.6,7.24-9.13,11.44-1.67,2.77-3.08,5.7-4.19,8.76-.45,1.25-.94,2.47-1.23,3.78-.42,1.86-.07,3.71,.09,5.52,.2,2.31,.89,4.57,1.3,6.87,.27,1.5,.99,2.83,1.67,4.12,1.32,2.53,2.84,4.97,4.37,7.38,1.33,2.09,3.25,3.64,5.19,5.14,3.41,2.63,7.01,4.99,10.69,7.21,2,1.2,4.1,2.24,6.19,3.29,.86,.43,1.75,.5,2.77,.27,3.84-.87,7.05-2.87,10.12-5.2,4.59-3.48,6.63-8.46,8.14-13.74,.67-2.34,1.1-4.75,1.64-7.13,.03-.15,.05-.3,.37-.35,.52,1.45,.93,2.97,1.54,4.41,1.27,2.96,2.75,5.76,5.13,8.01,.42,.4,.78,.82,1.02,1.4,.52,1.27,1.8,1.83,2.9,2.39,2.64,1.34,5.37,2.52,8.2,3.45,.6,.2,1.09,.16,1.69,0,2.75-.79,4.46-2.73,5.84-5.09,1.48-2.52,2.98-5.02,4.54-7.49,.83-1.31,1.52-2.67,2.19-4.11,.29,.98,.27,2.01,.42,2.99,.68,4.34,2.59,8.03,5.32,11.41,2.57,3.18,5.61,5.83,8.94,8.12,2.98,2.05,6.24,3.71,9.82,4.48,2.22,.48,4.46,.58,6.79,.31,5.67-.66,10.31-3.47,14.86-6.57,1.67-1.14,3.29-2.34,4.96-3.48,2.14-1.45,3.87-3.31,5.51-5.28,1.02-1.23,2.18-2.32,3.19-3.56,2.2-2.71,3.82-5.72,5.08-8.96,.83-2.15,1.3-4.36,1.65-6.62,.29-1.91,.3-3.81,0-5.71-.07-.48-.1-.94,0-1.42,.57-2.74-.04-5.27-1.42-7.64-.67-1.15-1.42-2.25-2.11-3.38-1.32-2.18-3.24-3.76-5.15-5.38-2.78-2.36-5.98-4.04-9.15-6Z"/>
    </g>
  </g>
</svg>