<?xml version="1.0" encoding="UTF-8"?>
<svg id="Layer_2" data-name="Layer 2" xmlns="http://www.w3.org/2000/svg" xmlns:xlink="http://www.w3.org/1999/xlink" viewBox="0 0 640.42 319.02">
  <defs>
    <style>
      .cls-1 {
        fill: #85608c;
      }

      .cls-2 {
        fill: #a29adc;
      }

      .cls-3 {
        fill: #734577;
      }

      .cls-4 {
        fill: #774b7d;
      }

      .cls-5 {
        fill: #703f74;
      }

      .cls-6 {
        fill: #6d3a79;
      }

      .cls-7 {
        fill: #d9d3d9;
      }

      .cls-8 {
        clip-path: url(#clippath);
      }

      .cls-9 {
        fill: none;
      }

      .cls-10 {
        fill: #724276;
      }

      .cls-11 {
        fill: #a49ee0;
      }
    </style>
    <clipPath id="clippath">
      <path class="cls-9" d="M640.42,319.02H0V0H640.42V319.02Z"/>
    </clipPath>
  </defs>
  <g id="Layer_19" data-name="Layer 19">
    <g class="cls-8">
      <g>
        <path class="cls-11" d="M418.65-31.06c1.78-.04,3.57-.08,5.69-.12,.79-.1,1.24-.21,1.69-.31,1.48-.03,2.97-.06,4.76-.11,.5-.12,.7-.22,.89-.32,2.5-.19,5.01-.37,7.83-.57,.63-.11,.95-.21,1.26-.31,1.05-.03,2.11-.05,3.51-.09,.94-.12,1.53-.23,2.13-.35,.91-.03,1.83-.07,3.04-.11,.49-.11,.68-.22,.88-.32,1.64-.04,3.28-.08,5.28-.12,1.37-.1,2.37-.21,3.38-.32,2.94-.03,5.87-.07,9.2-.1,2.38-.03,4.36-.06,6.35-.1,4.66,.08,9.32,.16,14.32,.35,1.01,.06,1.96,.1,2.87,.12,2.34,.07,4.68,.26,6.99,.6s4.64,.68,6.95,1.05c3.95,.63,7.9,1.33,11.85,2,3.95,.67,7.9,1.35,11.85,2.02,3.81,.64,7.63,1.26,11.45,1.89,3.74,.62,7.48,1.25,11.22,1.88,3.95,.67,7.9,1.35,11.85,2.02,4.8,.81,9.6,1.63,14.4,2.43,2.19,.36,4.39,.7,6.8,1.1,.22,.05,.34,.12,.34,.12l.13-.05c1.04,.25,1.62,.62,1.19,1.93-1.24,3.76-2.65,7.43-4.68,10.86-1.06,1.78-1.93,3.68-3.1,5.69-.37,.57-.52,.96-.68,1.36,0,0,0-.03-.15-.03-.33,.21-.58,.39-.71,.63-1.98,3.86-4.82,6.98-8.2,9.67-5.48,4.36-11.33,7.96-18.3,9.4-.24,.05-.43,.29-1.07,.73,1.04,.17,1.66,.41,2.23,.33,4.35-.64,8.76-1.08,12.82-2.91,3.68-1.66,7.35-3.36,10.92-5.26,4.54-2.41,8.11-5.99,11.11-10.13,.73-1,1.67-2.07,.89-3.52,.21-.6,.33-1.25,.63-1.8,2.38-4.42,4.81-8.82,7.19-13.24,.98-1.82,1.01-1.81,2.99-1.46,3.88,.69,7.77,1.3,11.65,1.95,5.44,.91,10.88,1.82,16.32,2.74,1.05,.18,2.09,.48,3.15,.64,.83,.13,1.14,.59,1.02,1.34-.25,1.55-.47,3.12-.86,4.63-.52,2.01-1.21,3.98-2,6.19-.29,.3-.46,.38-.49,.49-.92,3.63-2.94,6.35-6.46,7.85-.5,.21-.92,.62-1.6,1.09,.69,.25,1.14,.41,1.58,.58,.59,.22,1.24,.36,1.77,.68,2.53,1.54,3.3,3.86,2.79,6.68-.35,1.99-.93,3.95-1.06,5.95-.29,4.45-1.98,8.25-4.99,11.46-1.76,1.88-3.65,3.62-5.35,5.59-1.67,1.94-3.78,3.54-5.85,5.09-1.66,1.24-3.44,2.44-5.35,3.2-3.81,1.51-7.67,2.98-11.82,3.31-3.84,.31-7.63,.22-11.19-1.58-1.27-.64-1.7-.55-2.5,.69-1.32,2.06-2.59,4.16-3.83,6.27-2.23,3.79-4.33,7.71-7.37,10.91-4.17,4.4-8.69,8.45-13.83,11.71-3.47,2.2-7.01,4.35-11.36,4.3-.47,0-.96,.29-1.42,.48-6.29,2.49-12.84,3.93-19.57,4.12-3.65,.1-7.12,.91-10.86,1.44-3.16,.09-6.09-.09-9.12-.87-3.89-1.01-7.22-2.9-10.68-4.52-4.25-1.99-7.43-4.86-8.84-9.48-.28-.92-1.02-1.71-1.58-2.54-.08-.12-.41-.2-.55-.13-.14,.06-.25,.33-.25,.5-.03,1.37,.07,2.75-.06,4.1-.32,3.4-1.9,5.97-5.15,7.38-2.78,1.21-5.65,.98-8.5,.6-2.43-.32-4.58-1.23-5.74-3.67-.26-.55-.83-1.01-1.36-1.36-.24-.17-.92-.13-1.05,.05-1.78,2.53-4.26,4.25-6.72,6.02-1.09,.78-1.4,3.05-.46,4.06,1.61,1.74,3.17,3.58,5.59,4.49,.33,.25,.62,.39,.91,.52,0,0-.02,.01-.04,.15,.29,.48,.6,.82,.91,1.17,0,0-.03,0-.04,.15,.3,1.51,.61,2.86,.9,4.38-.18,1.24-.29,2.3-.5,3.35-.14,.7-.25,1.48-.64,2.04-1.07,1.53-2.14,3.1-3.45,4.41-1.67,1.66-3.1,3.58-5.14,4.88-.52,.33-.84,.97-1.27,1.45-.99,1.14-1.9,2.37-3,3.4-1.53,1.42-3.17,2.73-4.83,3.99-3.13,2.37-6.57,4.3-10.35,5.24-4.55,1.13-9.25,1.29-13.91,.33-6.32-1.3-11.83-4.1-16.2-8.92-1.16-1.28-2.23-2.64-3.29-4.01-.57-.73-1.21-1.3-2.17-1.17-2.35,.31-4.74,.49-7.01,1.11-1.32,.36-2.62,1.28-3.59,2.28-2.58,2.65-4.08,5.9-4.56,9.76-.05,2.44-.1,4.74,.06,7.02,.27,3.8,1.9,7.13,4.38,9.9,4.58,5.13,8.39,10.62,10.17,17.39,1.3,4.94,1.88,9.89,1.1,15.11-1.31,4.29-3.58,7.79-6.66,10.83-.98,.96-2.18,1.85-2.44,3.37,0,0,0-.02-.15-.06-1.96,1.34-3.78,2.71-5.75,4.15-3.38,1.96-6.54,3.98-9.86,5.71-5.69,2.98-11.42,5.89-17.23,8.62-5.93,2.79-12.13,4.58-18.81,4.1-2.48-.18-4.89-.42-6.82-2.24-.29-.27-.69-.45-1.07-.6-.77-.3-1.63,.08-1.93,.85-.69,1.75-1.25,3.61-2.28,5.16-1.83,2.76-3.92,5.34-5.97,7.95-1.91,2.42-3.46,4.95-3.34,8.2,.06,1.57-.22,1.83-1.89,1.96-2.23,.17-4.46,.43-6.69,.38-11.04-.23-22.08,.47-33.11-.68-4.61-.48-9.17-1.06-13.6-2.34-2.2-.64-4.34-1.55-6.41-2.54-1.82-.86-3.48-2.05-5.25-3-4.02-2.16-6.86-5.26-7.76-9.83-.36-1.82-.5-3.72-.49-5.58,.02-2.95,.2-5.91,.44-8.85,.19-2.37,.65-4.71,.86-7.07,.26-2.98,1.37-5.97-.61-8.98-.63-.96-.94-2.07-1.11-3.21-.23-1.54-1.1-2.24-2.24-2.87-1.8-.99-3.7-1.13-5.67-1.02-1.55,.09-2.91-.17-4.29-1.05-3.23-2.06-6.77-3.17-10.69-2.72-2.95,.34-5.94,.66-8.47,2.32-3.8,2.49-6.68,5.93-9.2,9.66-.68,1.01-.73,2.12-.09,3.27,1.33,2.43,1.95,5.05,1.99,7.84,.07,4.74,.46,9.44-.63,14.18-.75,3.24-1.19,6.52-3.04,9.38-.9,1.4-1.71,2.85-2.64,4.22-2.05,3.05-4.83,5.15-8.46,5.93-1.33,.29-2.71,.32-4.07,.51-4.64,.66-9.28,.33-13.73-.89-6.18-1.7-11.95-4.33-15.95-9.74-.25-.35-.8-.56-1.21-.45-3.99,1.09-6.83,3.63-8.68,7.27-.28,.56-.24,1.41-.07,2.05,1.06,4.04,2.28,8.05,3.29,12.11,.59,2.37,1.06,4.8,1.23,7.23,.26,3.75-.86,7.2-2.54,10.58-2.38,4.79-5.6,8.71-10.2,11.46-.37,.22-.78,.44-1.04,.76-2.32,2.98-5.67,4.51-8.8,6.34-.74,.43-2,.99-2.83,1.21-3.77,1-7.55,1.98-11.36,2.83-1.87,.42-3.75,1.08-5.74,.53-.31-.09-.86,.16-1.11,.43-1.17,1.27-2.28,2.6-3.55,3.96-3.07,1.92-6.3,2.46-9.86,2.22-2.52-.65-5.01-.92-6.92-2.7-.46-.43-.93-.3-1.28,.21-.2,.3-.4,.6-.6,.9-2.9,4.27-6.29,7.99-10.62,10.95-4.56,3.12-9.48,4.43-14.88,4.21-2.72-.11-4.95-1.35-6.72-3.44-2.68-3.16-4.03-6.99-5.22-10.84-1.64-5.33-.05-10.35,2.32-15.03,1.88-3.7,3.51-7.44,4.56-11.44,.16-.6,.2-1.59,.1-2.2-.59-3.64-3-5.72-6.28-6.93-4.54-1.67-9.09-1.29-13.54,.36-1.89,.7-3.68,1.67-5.51,2.53-6.15,2.89-11.69,6.59-15.9,12.03-1.22,1.58-2.77,2.99-3.02,5.32,.14,1.25-.45,1.89-1.33,2.34-.46-.01-.93-.02-1.71-.03-1.23,.41-2.15,.82-3.06,1.22,0-10.71,0-21.41,.12-32.35,.25-.34,.38-.44,.51-.54,1.46-.1,2.92-.21,4.66-.45,.52-.35,.76-.5,.92-.74,1.38-2.06,2.8-4.09,4.67-5.72,5.82-5.08,11.76-10.03,19.27-11.95,2.69-.69,5.39-1.12,8.14-.27,.61,.19,1.25,.28,1.88,.18,1.9-.32,3.78-.73,5.65-1.16,.45-.1,1.11-.31,1.25-.65,.55-1.32,1.01-2.65,.22-4.14-.74-1.39-1.19-2.93-1.79-4.39-.59-1.43-.42-2.83,.11-4.22,.64-1.66,1.74-2.95,3.07-4.12,2.89-2.53,6.46-3.74,9.9-5.19,.49-.21,1.37-.33,1.65-.06,1.19,1.16,2.2,.47,3.34,.01,.86-.34,1.81-.48,2.72-.7,1.88-.47,3.67-.43,5.44,.55,1.55,.86,2.51,2.03,2.54,3.93,.46-.23,.67-.3,.83-.42,8.21-6.36,17.41-10.69,27.35-13.59,2.09-.61,3.98-1.9,5.97-2.91,0-.02,.06-.01,.11-.1,.06-.09,.25-.18,.38-.08,1.02,.23,1.66-.04,.79-.87-1.5-1.44-3.12-2.78-4.79-4.04-2.77-2.1-3.7-3.58-2.51-6.77,.15-.4,.2-.84,.35-1.25,.78-2.16,1.99-3.98,4.12-5.05,.56-.28,1.11-.59,1.86-.99-1.97-.93-2.14-2.49-2.12-4.21,.03-2.88,1.49-5.09,3.35-7.02,3.62-3.75,8.11-6.16,12.91-8.08,.98-.39,2.13-.87,2.69-1.66,1.37-1.92,2.62-3.97,3.57-6.13,.91-2.07-.27-4.21-2.46-4.89-1.37-.42-2.79-.75-4.21-.9-2.79-.3-5.6-.45-8.54-.72-1.9-.33-2.6-.93-2.94-2.49-.34-1.57-.04-3.11,.95-4.3,2.11-2.54,4.13-5.18,7.14-6.8,2.99-1.61,6.09-2.89,9.43-3.57,.49-.1,.97-.28,1.41-.51,.52-.27,.74-.69,.25-1.2-1.88-1.96-2.3-4.39-2.27-6.97,.03-2.09,.08-4.18,.22-6.4,.85-2.59,1.58-5.07,2.38-7.51,.36-1.08,.88-2.1,1.43-3.24,.2-.35,.31-.6,.53-.93,3.29-4.86,7.73-8.06,12.85-10.43,2.54-1.18,5.3-1.86,7.61-3.55,.61-.44,1.47-.57,2.23-.77,3.25-.87,6.45-.39,9.61,.48,.92,.25,1.56,.22,2.34-.45,2.91-2.48,8.51-5.17,12.18-6.22,4.73-1.36,9.56-2.31,14.46-2.84,.72-.08,1.44-.09,2.16-.09,.62,0,1.25,.05,1.87,.08-5.41,1.53-10.78,2.76-15.68,5.57-4.29,2.46-8.24,5.29-11.75,8.74-3.34,3.28-5.72,7.24-7.69,11.43-1.49,3.17-1.4,6.4,.35,9.54,1.31,2.34,3.4,3.85,5.41,5.5,2.68,2.19,2.58,1.75,0,3.84-3.7,2.99-7.59,5.79-10.95,9.13-4.85,4.81-8.4,10.6-11.04,16.93-1.44,3.44-2.23,7.04-2.26,10.73-.03,2.94,.4,5.89,.73,8.82,.67,5.97,3.06,11.07,7.78,14.95,.34,.28,.49,.8,.72,1.21-.38,.17-.75,.37-1.14,.51-.43,.15-.93,.11-1.35,.24-1.54,.47-3.1,.77-4.71,.72-6.3-.21-11.62,2.26-17.13,4.88-2.55,1.3-4.97,2.55-7.33,3.9-1.04,.6-1.97,1.41-3.08,2.18-3.25,2.62-6.39,5.18-8.6,8.63-2.32,3.63-3.77,7.57-4.31,11.88-.43,3.37-.1,6.61,.81,9.83,1.33,4.72,2.63,9.44,4.03,14.14,.47,1.56,.5,3.06-.45,4.33-1.79,2.42-3.63,4.84-6.31,6.37-1.62,.93-3.26,1.85-4.99,2.53-1.72,.68-3.56,1.05-5.34,1.55,1.43,0,2.89,.03,4.27-.31,2.74-.66,5.41-1.59,7.61-3.47,1.42-1.21,2.87-2.41,4.18-3.74,2.36-2.37,3.29-5.21,2.3-8.5-1.02-3.38-2.17-6.72-3.14-10.12-.79-2.76-1.77-5.55-1.99-8.38-.41-5.18,.95-10.09,4.06-14.28,2.61-3.52,5.62-6.75,8.6-10.16,1.9-1.15,3.63-2.31,5.43-3.35,1.61-.93,3.29-1.73,5.1-2.61,.65-.15,1.15-.26,1.62-.41,2.81-.91,5.57-2.09,8.45-2.68,4.5-.93,9.09-1.44,13.63-2.18,.8-.13,2.03-.32,2.25-.82,.42-.99-.77-1.54-1.41-2.16-1.09-1.04-2.48-1.85-3.3-3.06-2.68-3.96-4.67-8.26-5.61-13.01-.55-2.76-.03-5.46,.12-8.18,.23-4.3,1.25-8.39,3.02-12.31,3.32-7.36,8.95-12.86,14.79-18.15,2.51-2.27,5.26-4.27,7.86-6.44,1.21-1.01,1.2-1.11,.03-2.13-1.68-1.47-3.46-2.83-5.09-4.35-3.66-3.42-4.07-6.97-2.5-10.55,1.29-2.95,2.87-5.89,4.88-8.38,5.69-7.07,13.04-11.91,21.53-15.08,3.7-1.38,7.56-1.81,11.4-2.43,6.07-.99,12.14-1.67,18.37-.44,3.14,1.08,5.86,2.68,8.46,4.48,1.81,1.25,2.58,3.55,1.9,5.64-.78,2.4-1.6,4.79-2.36,7.2-.79,2.5,.13,5.17,2.43,6.03,2.61,.98,5.38,1.53,8.21,2.37,1.23,.37,2.35,.66,3.47,.91,5.49,1.22,10.99,1.49,16.5,.2,.81-.19,1.87-.39,2.29-.96,.48-.66,.95-.71,1.58-.81,5.82-1,11.64-1.97,17.44-3.05,3.96-.73,7.93-1.48,11.84-2.48,8.52-2.17,16.99-4.5,25.49-6.75,.42-.11,.87-.1,1.69-.18-3.21,3.23-7.01,4.98-10.12,7.66,1.36-.48,2.6-1.15,3.82-1.85,3.53-2.01,6.82-4.4,9.5-7.44,1.33-1.51,2.91-2.48,4.49-3.58,2.36-1.64,4.55-3.52,6.81-5.31,.08-.06,.05-.27,.07-.39,0,.01-.02,.01,.13,.02,.63-.43,1.12-.88,1.6-1.32,0,.01-.02,0,.14,.03,1.45-.87,2.84-1.65,4-2.69,1.18-1.06,1.14-2.27,0-3.35-.98-.94-2.02-1.88-3.2-2.53-3.22-1.77-6.53-3.37-9.35-5.79-4.27-3.67-4.68-6.39-2.47-10.35,.51-.92,1.41-1.62,2.14-2.41,.61-.66,1.23-1.32,2.06-2.2-1.12-.3-1.87-.51-2.63-.69-3.07-.73-5.92-1.93-8.26-4.08-2.29-2.09-3.97-4.62-4.11-7.82-.29-6.62,2.04-12.17,6.84-16.8,4.37-4.21,9.34-7.5,14.82-9.98,4.31-1.96,8.8-3.52,13.22-5.26,1.56-.65,3.14-1.28,4.69-1.96,.65-.28,1.25-.65,2.25-1.18-1.84-1-3.38-2-5.04-2.71-1.67-.71-2.54-1.68-2.12-3.54,.06-.27,.03-.57,.12-1.15,.09-.62,.1-.96,.11-1.29,.09-1.15,.17-2.3,.27-3.44,.14-1.63,.25-3.28,.5-4.89,.07-.47,.5-1.03,.92-1.28,4.17-2.53,8.68-4.03,13.58-4.36,2.72-.18,5.41-.64,8.12-.93,1.86-.2,3.72-.33,5.88-.5,.49-.11,.68-.2,.87-.3,1.2-.04,2.4-.07,3.89-.12,.49-.11,.68-.21,.87-.31,1.21-.05,2.43-.09,3.98-.14,.92-.1,1.5-.2,2.09-.3,1.93-.04,3.85-.07,6.11-.11,.79-.11,1.24-.21,1.69-.32,3.22-.04,6.45-.08,10.06-.11,2.54-.1,4.7-.22,6.85-.33,1.92-.03,3.84-.06,6.12-.09,1.09-.12,1.82-.23,2.55-.34ZM52.99,213.12c.12-.09,.2-.21,.54-.39,.47-.32,1.01-.58,1.4-.97,1.02-1.03,.88-1.65-.47-2.24-1.33-.58-2.68-.46-4,.02-4.13,1.48-5.79,4.9-6.83,8.79-.05,.2-.09,.46-.01,.64,.19,.43,.37,1.09,.69,1.18,.45,.13,1.16,0,1.52-.31,.65-.55,1.12-1.3,1.92-2.11,.95-.94,1.89-1.88,3.11-2.85,.47-.39,.94-.78,1.62-1.3,.11-.12,.22-.24,.52-.47ZM594.24-1.63l-.08-.03s.15,.08,.24,.27c.09,.12,.2,.2,.4,.6,.85,2.81,.34,5.57-.4,8.29-.98,3.57-2.71,6.78-4.48,10.03-2.23,4.09-5.31,7.12-9.35,9.31-3.15,1.71-6.67,2.28-9.98,3.49-3.81,1.38-7.71,1.76-11.7,1.64-.94-.03-1.88-.14-2.81-.1-2.81,.11-5.61,.27-8.41,.42-.8,.04-1.12,.41-.56,1.08,1.12,1.34,.91,2.72,.46,4.27-.85,2.92-2.68,5.25-4.37,7.66-.94,1.35-2.07,2.61-3.29,3.71-6.51,5.9-13.81,10.66-21.73,14.42-6.5,3.09-13.28,5.2-20.82,4.99-1.59-.44-3.18-.88-4.77-1.33,1.49,1.18,3.12,1.94,5.34,2.1,.86,.1,1.71,.29,2.56,.28,4.82-.07,9.39-1.35,13.88-2.98,7.12-2.57,13.5-6.51,19.65-10.82,4.92-3.45,9.51-7.3,12.58-12.6,1.7-2.93,3.87-5.81,1.92-9.57,2.93-.62,5.74-.59,8.54-.44,3.31,.18,6.66,.46,9.91-.18,4.75-.94,9.36-2.51,13.56-4.95,9.28-5.39,14.43-13.65,15.97-24.16,.24-1.64,.42-3.01,1.92-3.89,.03-.02-.05-.24-.08-.36q-1.93,.62-3.71-.84c-.09-.12-.2-.2-.41-.31Zm-157.82,122.47c.19-.15,.38-.29,.83-.57,1.68-1.59,2.92-3.39,2.71-5.85-.08-.9,.47-1.12,1.21-1.07,1.59,.09,2.69-.73,3.77-1.78,2.12-2.08,3.47-4.58,4.34-7.37,.23-.75,.34-1.55,.42-2.33,.02-.23-.21-.68-.36-.69-.28-.02-.68,.11-.86,.33-.74,.87-1.31,1.9-2.12,2.69-3.38,3.3-7.44,5.43-12.01,6.52-1.09,.26-1.64,.76-1.83,1.79-.08,.42-.23,.84-.25,1.27-.09,1.48-.87,2.54-1.96,3.47-2.3,1.97-5.03,3.08-7.88,3.92-3.82,1.13-7.77,1.49-11.72,1.78-.57,.04-1.16,.05-1.7,.22-.67,.21-.69,.73-.2,1.14,.37,.31,.85,.56,1.32,.7,1.52,.43,3.04,.92,4.59,1.17,3.93,.65,7.87,1.07,12.1-.24,2.58-.69,5.12-1.46,7.45-3.36,.49-.41,.99-.82,1.66-1.35,.11-.09,.2-.2,.5-.38ZM101.45,274.68c-.09,.12-.18,.23-.57,.4-1.6,.98-3.17,2.02-4.82,2.91-3.82,2.08-7.83,3.29-12.25,2.61-.71-.11-1.44-.12-2.16-.14-2.98-.1-5.7-1.09-7.98-2.93-.94-.75-1.68-2.03-2-3.2-.71-2.6-.6-5.28-.09-7.93,.35-1.81,.19-2.25-1.49-3.11-1.35-.69-2.74-1.31-4.16-1.81-3.54-1.24-7.03-2.47-10.35-4.34-2.84-1.6-4.93-3.63-6.34-6.52-1.01-2.07-2.18-4.07-3.29-6.09-.61-1.12-1.57-1.81-2.71-2.38-3.48-1.76-7.14-1.51-10.81-1.05-1.4,.18-2.78,.48-4.17,.72,.79-.89,1.7-1.43,2.65-1.88,5.27-2.52,10.46-5.22,16.19-6.64,5.28-1.31,10.67-1.73,16.07-2.01,3.17-.16,5.74,1.2,7.16,4.24,.36,.78,.69,1.58,1.05,2.36,.97,2.08,1.72,4.26,3.35,6.01,2.83,3.06,6.45,4.53,10.35,5.52,.33,.08,.71,.01,1.46,.01-.59-.4-.75-.55-.93-.63-1.83-.83-3.79-1.45-5.49-2.49-4.39-2.69-7.51-6.46-8.97-11.49-.42-1.43-1.18-2.5-2.67-3.17-2.32-1.05-4.71-1.38-7.18-1.2-3.45,.26-6.93,.42-10.33,1.02-9.51,1.69-18.21,5.36-25.9,11.29-.44,.34-1.03,.49-1.55,.73-2.28,1.07-4.63,2.04-6.83,3.25-2.52,1.39-4.96,2.94-7.35,4.55-2.27,1.52-4.47,3.15-6.63,4.83-1.33,1.04-2.26,2.44-2.69,4.09-.09,.37,.1,.81,.16,1.22,.8-2.19,2.1-3.73,3.92-4.94,1.38-.92,2.68-1.96,3.98-2.98,8.25-6.5,17.69-10.17,28-11.72,3.07-.46,5.65,.47,7.75,2.85,1.84,2.07,3.33,4.33,4.52,6.83,2.04,4.29,5.56,6.88,9.91,8.47,2.37,.87,4.78,1.63,7.13,2.54,1.2,.46,2.34,1.11,3.47,1.75,.88,.5,1.26,1.28,1.21,2.35-.09,1.95-.2,3.91-.03,5.85,.12,1.32,.37,2.84,1.13,3.84,2.26,2.97,5.31,4.88,9.1,5.31,2,.23,4.03,.39,6.04,.34,5.92-.14,10.77-2.77,15.18-6.76,0,0,.17-.08,.44-.11,.21-.26,.43-.51,.93-.83,2.23-1.85,4.55-3.63,6.11-6.47,1.63-2.37,3.32-4.71,4.85-7.14,.78-1.25,1.59-2.1,3.19-2.19,1.13-.07,2.33-.36,3.33-.88,3.67-1.92,4.58-3.4,3.52-7-.76-2.58-1.72-5.03-2.94-7.42-2.99-5.87-4.61-12.02-4.3-18.72,.25-5.4,2.53-9.63,5.99-13.5,2.81-3.15,6.37-5.21,10.05-7.03,6.89-3.42,13.68-3.92,19.98,1.48,1.04,.89,2.1,1.76,3.17,2.61,.68,.53,1.34,1.15,2.12,1.46,2.53,1.03,4.05-.04,4.02-2.74,0-.43-.08-.86-.12-1.29-.15-1.43-.4-2.85-.44-4.28-.09-3.4,.41-6.75,1.02-10.1,.71-3.92,1.46-7.8,3.35-11.37,.2-.38,.3-.81,.44-1.22,1.55-4.85,4.24-8.98,7.97-12.43,2.75-2.54,5.48-5.12,8.38-7.48,1.83-1.48,3.85-2.89,6.01-3.79,6.39-2.65,12.84-5.29,19.86-5.71,3.51-.21,7.06-.55,10.54,.54,.55,.17,1.27,.02,1.86-.14,7-1.89,13.48-1.18,19.45,3.33,3.64,2.75,5.84,6.31,7.1,10.56,.8,2.69,1.39,5.45,2.18,8.15,.25,.85,.7,1.74,1.31,2.37,2.81,2.94,6.44,3.94,10.38,4.13,8.65,.43,17.11-1.06,25.58-2.44,4.69-.76,9.38-1.59,14.07-2.38,1.92-.32,3.85-.59,5.77-.9,1.43-.23,1.4-.35,.68-1.75-.45-.87-.88-1.9-.84-2.84,.19-3.99,.57-7.97,.9-12.17,1.47,1.09,2.78,2.06,4.26,3.27,2.68,1.81,5.28,3.76,8.07,5.39,2.61,1.52,5.4,2.86,8.47,3.11,2.87,.23,5.81,.55,8.63,.16,3.82-.52,7.39-1.99,9.86-5.25,1-1.32,1.99-2.65,2.9-4.03,2.11-3.19,3.25-6.73,3.79-10.8,.25-1.78,.49-3.56,.76-5.33,1.16-7.58-.32-14.78-3.19-21.75-1.29-3.12-2.06-6.3-1.7-9.7,.35-3.37,1.85-6.02,4.76-7.82,.67-.42,1.36-.82,1.99-1.3,4.71-3.61,9.98-5.7,15.93-6.02,.43-.02,.87-.08,1.28-.19,7.02-1.9,14.16-1.39,21.28-1.07,.29,.01,.59,.02,.86,.12,2.05,.74,4.16,.45,6.2,.14,5.48-.81,10.89-.79,16.32,.54,1.94,.47,4,.47,6.01,.6,1.53,.09,2.17-1.27,3.06-2.15,.74-.73,.05-1.51-.2-2.2-1.22-3.32-2.47-6.62-3.74-9.92-.8-2.07-.99-4.2-.8-6.38,.1-1.08,.26-2.15,.39-3.22,.57-4.76,2.79-8.53,6.64-11.42,2.78-2.09,5.93-3.27,9.21-4.15,7.74-2.06,15.64-2.42,23.97-1.78,2.92,.34,5.84,.67,8.98,1.23,2.96,.76,5.93,1.51,9.11,2.47,1.48,.47,2.61,1.44,3.7,2.51,1.85,1.81,3.73,3.59,5.64,5.32,.53,.48,1.25,.75,1.88,1.12-1.9-2.29-3.89-4.34-5.99-6.29-1.57-1.46-3.21-2.89-5.66-3.48-2.8-1.44-5.86-1.89-9.25-2.4-2.92-.4-5.85-.81-9.15-1.27-.65-.02-1.3-.02-1.95-.08-7.4-.66-14.7-.04-21.88,1.83-3.51,.92-6.87,2.21-9.77,4.49-3.11,2.45-5.29,5.51-5.94,9.49-.28,1.71-.39,3.45-.58,5.18-1.08-2.52-1.4-5.08-.92-7.74,.74-4.18,3.1-7.41,6.1-10.21,3.55-3.31,7.64-5.9,11.67-8.57,.83-.55,1.75-.99,2.67-1.4,5.95-2.7,12.24-4.46,18.65-5.37,3.97-.56,5.79-2.35,6.67-5.95,.38-1.56,.51-2.91-.34-4.34-.59-.98-.86-2.14-1.43-3.14-1.79-3.11-2.01-6.23-.25-9.42,.1-.19,.23-.39,.25-.6,.28-2.6,2.03-4.38,3.84-5.82,4.33-3.45,8.5-7.17,13.53-9.67,1.53-.76,2.95-1.75,4.79-2.86-2.77,0-4.76,.98-6.64,2.15-4.16,2.61-8.15,5.44-11.86,8.69-1.66,1.46-3.03,3.09-4.09,4.97-1.17,2.08-2.36,4.3-1.95,6.74,.45,2.75,1.28,5.46,2.11,8.14,.61,1.96,1.09,3.88,.72,5.94-.23,1.3-.88,2.32-2.15,2.74-1.43,.48-2.9,.83-4.36,1.2-4.96,1.24-9.95,2.36-14.87,3.74-1.98,.56-3.96,1.45-5.66,2.61-5.3,3.62-10.31,7.64-14.72,12.34-1.27,1.35-2.81,2.77-3.31,4.43-.93,3.08-1.23,6.38-.53,9.62,1.17,5.37,2.8,10.6,5.02,15.63,.56,1.27,.85,2.56,.71,3.98-.11,1.06-.44,1.62-1.56,1.56-2.09-.1-4.17-.15-6.26-.28-2.73-.17-5.47-.38-8.2-.6-4.82-.39-9.61,.33-14.45,.14-6.84-.27-13.71,.08-20.55,.45-3.14,.17-6.28,.89-9.36,1.62-4.96,1.17-9.06,4-12.87,7.26-.74,.63-1.39,1.51-1.78,2.4-1.34,3.11-2.59,6.27-2.16,9.79,.04,.3-.04,.61-.09,1.39-.47-.95-.75-1.44-.95-1.95-.15-.4-.23-.83-.3-1.25-.9-5.55-1-11.1,.62-16.51,1.07-3.58,2.44-7.1,4.85-10.07,1.81-2.24,3.58-4.51,5.63-6.89,2.7-2.42,5.58-4.57,8.94-5.99,5.84-2.46,11.72-4.84,17.54-7.37,3.5-1.52,7.11-2.92,10.3-4.96,4.66-2.99,9.01-6.46,13.42-9.82,2.12-1.61,4.13-3.37,6.09-5.18,1.5-1.39,1.36-1.88-.57-3.25l-.78-.22c.24,.2,.47,.41,.8,.9,.51,.67,.54,1.29-.15,1.89-.93,.8-1.77,1.71-2.73,2.46-3.99,3.08-7.95,6.22-12.06,9.14-3.22,2.29-6.32,4.8-10.06,6.29-4.89,1.95-9.75,3.97-14.62,5.97-4.54,1.86-9.04,3.81-13.16,6.52-.5,.33-1.21,.33-1.58,.26,3.36-3.32,5.91-7.22,8.11-11.37,.98-1.86,.82-2.18-1.1-2.65-1.49-.37-1.97-.93-1.61-2.41,.32-1.31,.77-2.65,1.47-3.8,1.46-2.39,3.14-4.64,4.7-6.97,1.04-1.55,2.09-3.1,3-4.73,.65-1.17,.42-1.43-.83-1.82-1.94-.6-3.85-.16-6.17,.04-2.24,0-4.48,.14-6.7-.04-2-.16-4.1-.35-5.92-1.1-4.12-1.71-5.62-4.48-4.52-9.06,1.35-5.59,4.52-10.27,8.26-14.52,2.49-2.84,5.67-4.89,8.93-6.76,.85-.49,1.32-1,1.23-2.03-.16-1.83,.78-3.26,2.11-4.28,1.47-1.14,3.08-2.18,4.78-2.91,2.89-1.25,5.9-2.23,8.95-3.36-.75-.79-1.55-.61-2.39-.29-.87,.33-1.74,.74-2.65,.91-4.9,.9-8.53,3.69-11.43,7.57-.32,.43-.64,1.06-.58,1.56,.16,1.33-.6,1.95-1.55,2.57-5.31,3.48-9.88,7.72-13.16,13.22-1.97,3.3-3.57,6.67-3.67,10.69-.1,4.2,2.13,6.44,5.47,7.51,4.36,1.4,8.79,1.39,13.62,1.12,.93-.11,1.85-.28,2.78-.31,.53-.02,1.07,.19,1.6,.3-.12,.54-.1,1.15-.37,1.6-1.02,1.66-2.11,3.26-3.2,4.87-1.94,2.85-4.12,5.57-5.11,8.97-.77,2.64-.35,3.36,2.36,4.1,.66,.18,.81,.51,.61,1.09-.12,.34-.28,.66-.45,.98-2.11,3.96-4.75,7.53-7.7,10.92-3.97,4.57-7.65,9.36-10.06,15.02-2.12,4.97-3.59,10.03-3.26,15.5,.31,5.08,1.12,10.04,3.97,14.4,4.33,6.62,5.06,13.95,4.36,21.57-.17,1.85-.36,3.71-.64,5.89-.88,4.91-2.72,9.41-6.04,13.19-.88,1-1.9,2.01-3.06,2.6-1.71,.87-3.58,1.49-5.44,1.99-6.12,1.64-11.99,1.02-17.44-2.35-2.81-1.74-5.54-3.6-8.45-5.65-.79-.74-1.53-1.54-2.38-2.2-1.48-1.15-3.02-2.22-4.55-3.28-.2-.14-.54-.09-.82-.12,0,.32-.1,.7,.04,.94,1.03,1.8,.96,3.75,.86,5.7-.11,2.44-.39,4.89-.39,7.33,0,1.19,.36,2.4,.74,3.55,.39,1.2,.44,1.26-.83,1.41-2.79,.34-5.59,.58-8.37,1.02-5.13,.81-10.24,1.72-15.35,2.6-6.77,1.18-13.56,1.91-20.45,1.68-2.13-.07-4.14-.39-6.14-1.11-1.23-.44-2.2-1.18-2.72-2.32-.65-1.44-1.19-2.93-1.63-4.45-.62-2.15-1.03-4.36-1.65-6.5-.63-2.15-1.56-4.14-3.02-5.93-2.19-2.69-5.01-4.55-7.85-6.37-2.07-1.33-4.41-2.33-6.91-2.31-3.09,.02-6.17,.39-9.26,.6-.64,.04-1.35,.27-1.91,.08-2.62-.9-5.24-.65-7.92-.42-7.92,.69-15.48,2.64-22.66,6.06-5.07,2.41-9.5,5.74-13.52,9.63-.98,.94-2.05,1.79-3.2,2.58,0,0-.12-.1-.07-.4,.61-1.06,1.19-2.14,1.85-3.17,2.72-4.3,6.24-7.94,9.79-11.54,7.58-7.68,16.74-12.66,26.99-15.77,6.83-2.08,13.74-3.87,20.85-4.74,4-.49,8.02-.85,12.03-1.32,.77-.09,1.74,.45,2.29-.56-.8-.19-1.59-.37-2.39-.56-.07-.02-.14,0-.22,0-6.15,.75-12.34,1.27-18.44,2.32-4.67,.81-9.24,2.23-13.83,3.48-5.59,1.52-10.85,3.81-15.9,6.68-7.41,4.22-13.35,10.04-18.74,16.51-3.59,4.31-6.06,9.28-8.36,14.35-3.68,8.14-6.28,16.58-7.18,25.49-.19,1.86-.22,3.75-.42,5.61-.15,1.37-.9,2.6-.1,4.13,.56,1.07-.16,1.7-1.48,1.46-.64-.12-1.3-.54-1.81-.98-2.06-1.82-4.22-3.47-6.65-4.8-5.32-2.91-10.71-2.46-16.05-.28-3.82,1.56-7.27,3.85-10.38,6.53-5.51,4.76-9.5,10.37-8.55,18.18,.4,3.28,.85,6.59,1.72,9.77,.72,2.62,2.15,5.03,3.14,7.58,1.09,2.81,2.03,5.69,3.07,8.52,.46,1.24-.04,2.09-.99,2.8-1.9,1.41-4.01,2.28-6.41,2.33-.72,.02-1.37-.01-1.83,.8-1.77,3.14-3.62,6.23-5.68,9.46-1.22,1.32-2.45,2.64-3.66,3.97-.72,.79-1.41,1.6-2.35,2.44-.19,.15-.37,.29-.77,.53ZM249.17,129.61c.11,.08,.23,.17,.39,.55,.66,.82,.89,2.04,2.29,2.55,.71,.58,1.44,1.1,2.68,.7-.91-.85-1.82-1.01-2.8-1.28-.7-.79-1.4-1.58-2.2-2.57-.13-.05-.27-.11-.42-.43-.29-.18-.58-.36-1.21-.62h-1.55l.03,.4c.62,.08,1.24,.17,2.04,.41,.24,.04,.47,.07,.76,.32ZM411.03,41.59c.35,.13,.7,.26,1.05,.39-.23-.21-.45-.42-.77-.88-.26-.11-.53-.22-.79-.33,.13,.2,.27,.39,.52,.82Zm-104.34,58.5c-.24-.08-.47-.16-.78-.53-1.16-.58-2.32-1.16-3.78-1.88-.78-.24-1.57-.48-2.67-.82,1.03-1.11,1.85-1.98,2.67-2.86-2.65,1.27-5.64,1.98-7.43,4.53,2.68-.05,5.23-.11,7.94,.05,1.09,.45,2.18,.9,3.41,1.57,.24,.08,.48,.15,.75,.51,.28,.29,.54,.58,.84,.85,.03,.03,.21-.11,.31-.16-.31-.33-.61-.67-.93-.99-.04-.04-.13-.03-.33-.26Zm23.09,59.66s0-.03,.19,.23c1.05,.16,2.15,.58,3.15,.42,3.53-.55,6.86-1.76,9.64-4.06,2.48-2.04,4.47-4.49,4.94-7.86,.19-1.35-.02-1.87-1.15-2.47-1.34-.71-1.95-.58-2.97,.68-1.2,1.49-2.22,3.18-3.62,4.44-1.83,1.63-4.05,2.72-6.54,3.11-1.21,.19-2.41,.43-3.6,.69-1.6,.34-2.4,1.21-2.41,2.55,0,1.16,.72,1.84,2.36,2.25ZM152.52,87.36c-2.35,.79-4.7,1.57-7.38,2.44-1.41,.55-2.81,1.11-4.23,1.65-4.17,1.58-6.82,4.69-8.7,8.59-1.27,2.62-1.87,5.42-2.48,8.26-.58,2.69,.31,5.04,1.18,7.51,.67-1.59,1.35-3.19,1.52-4.84,.13-1.23,.48-2.21,1.2-3.14,2.03-2.62,4.03-5.26,6.1-7.85,2.91-3.65,6.45-6.58,10.52-8.86,1.38-.77,2.76-1.57,4.09-2.42,.29-.19,.39-.67,.58-1.01-.41-.17-.81-.39-1.23-.48-.26-.05-.56,.11-1.18,.15Zm157.26,18.21c.57,3.11-.68,5.32-3.38,6.81-3.92,2.15-7.73,4.54-11.79,6.38-6.69,3.04-13.53,5.76-20.33,8.53-5.68,2.31-11.5,4.23-17.55,5.38-.67,.13-1.33,.33-2.14,.53,.7,.96,1.41,.81,2.1,.64,4.39-1.14,8.85-2.05,13.14-3.48,5.12-1.71,10.15-3.73,15.13-5.84,6.83-2.9,13.69-5.77,20.04-9.67,1.35-.83,2.67-1.71,4-2.57,1.4-.9,1.88-2.29,2.12-3.84,.25-1.56-.46-2.79-1.25-4.29-.32-.79-.51-1.7-1.83-1.74,.56,.93,1.12,1.86,1.73,3.17Zm-67.85,110.53c.08,.43,.17,.85,.23,1.28,.55,3.48,1.98,6.44,4.93,8.56,3.1,2.23,6.57,3.58,10.23,4.52,.97,.25,1.99,.38,2.99,.41,.42,.01,1.03-.25,1.23-.58,.36-.61-.15-.99-.66-1.37-1.51-1.11-3.11-2.14-4.41-3.47-4.88-4.94-8.77-10.54-10.71-17.31-.58-2.01-.96-4.07-1.5-6.09-.11-.4-.52-.72-.79-1.07-.31,.34-.8,.62-.91,1.02-.77,2.71-1.39,5.46-1.14,8.32,.15,1.8,.31,3.59,.52,5.77ZM439.85,10.24c1.29-.81,1.5-2.03,1.27-3.41-.29-1.73,.44-2.98,1.92-3.76,1.91-1.01,3.86-1.92,5.81-2.86,.71-.34,1.46-.61,2.17-.98,.19-.1,.27-.42,.4-.64-.24-.14-.46-.33-.72-.4-.19-.05-.44,.01-.62,.1-2.81,1.32-5.67,2.52-8.38,4.02-1.67,.92-2.63,2.52-1.96,4.58,.42,1.3-.19,2.18-1.16,2.74-2.8,1.62-5.51,3.58-8.54,4.57-5.78,1.9-11.47,3.91-16.73,7-2.11,1.24-4.27,2.45-5.85,4.39-1.43,1.76-2.58,3.69-2.45,6.08,.18,3.54,2.14,6.19,4.48,8.62,.06,.06,.25,0,.66-.03-.87-1.25-1.75-2.36-2.46-3.55-1.37-2.32-2.02-4.81-1.01-7.45,.76-1.99,1.97-3.77,3.75-4.95,4.46-2.96,9.08-5.72,14.22-7.26,5.28-1.59,10.38-3.46,15.21-6.81ZM56.63,300.14c1.29-.64,2.58-1.28,3.88-1.92,3.75-1.85,5.89-5.18,7.86-8.66,.27-.48,.7-1.12-.04-1.48-.32-.15-.97,.06-1.31,.32-1.92,1.47-4.02,2.55-6.32,3.24-4.29,1.27-10.65,.55-13.52-5.26-.3-.6-.69-1.15-1.28-2.14-.23,1.02-.38,1.49-.44,1.97-.54,4.12,.5,7.79,2.8,11.27,2.43,3.67,3.46,4.2,7.67,2.95,.14-.04,.27-.11,.71-.29Z"/>
        <path class="cls-3" d="M95.47,291.42c1.13-1.31,2.24-2.64,3.41-3.91,.25-.27,.79-.51,1.11-.43,1.99,.55,3.87-.11,5.74-.53,3.93-.88,7.83-1.9,11.73-2.93,.89-.24,1.75-.7,2.55-1.17,3.1-1.81,6.42-3.34,8.71-6.28,.25-.33,.67-.54,1.04-.76,4.6-2.75,7.82-6.68,10.2-11.46,1.68-3.38,2.8-6.83,2.54-10.58-.17-2.43-.64-4.86-1.23-7.23-1-4.06-2.22-8.06-3.29-12.11-.17-.64-.21-1.49,.07-2.05,1.85-3.64,4.69-6.18,8.68-7.27,.35-.09,.99,.15,1.21,.45,4,5.42,9.77,8.04,15.95,9.74,4.45,1.22,9.09,1.55,13.73,.89,1.35-.19,2.74-.23,4.07-.51,3.63-.78,6.41-2.87,8.46-5.93,.93-1.38,1.74-2.83,2.64-4.22,1.84-2.87,2.29-6.14,3.04-9.38,1.09-4.73,.7-9.44,.63-14.18-.04-2.79-.66-5.41-1.99-7.84-.63-1.16-.59-2.27,.09-3.27,2.53-3.73,5.4-7.17,9.2-9.66,2.54-1.66,5.52-1.98,8.47-2.32,3.92-.45,7.46,.65,10.69,2.72,1.38,.88,2.74,1.15,4.29,1.05,1.97-.12,3.87,.02,5.67,1.02,.93,.51,1.68,1.07,2.05,2.1,.64,1.76,1.29,3.52,1.97,5.27,1.01,2.58,.17,5.14-.05,7.69-.2,2.36-.67,4.71-.86,7.07-.24,2.94-.41,5.9-.44,8.85-.02,1.86,.13,3.76,.49,5.58,.9,4.56,3.74,7.67,7.76,9.83,1.78,.96,3.44,2.14,5.25,3,2.07,.98,4.21,1.9,6.41,2.54,4.44,1.28,8.99,1.86,13.6,2.34,11.04,1.15,22.08,.44,33.11,.68,2.23,.05,4.46-.21,6.69-.38,1.66-.12,1.95-.38,1.89-1.96-.12-3.25,1.43-5.77,3.34-8.2,2.05-2.6,4.14-5.19,5.97-7.95,1.02-1.53,1.58-3.38,2.26-5.12,.46-1.16,.72-1.36,1.88-.91,.4,.15,.83,.34,1.13,.63,1.93,1.82,4.34,2.06,6.82,2.24,6.68,.48,12.88-1.31,18.81-4.1,5.81-2.73,11.54-5.64,17.23-8.62,3.32-1.74,6.48-3.76,9.89-5.53,.19,.24,.21,.36,.23,.48-1.98,1.95-4.2,3.58-6.6,4.96-1.1,.63-2.18,1.32-3.31,1.89-4.87,2.46-9.65,5.12-14.65,7.28-5.03,2.17-10.22,4.01-15.65,5.02-.7,.13-1.42,.3-2.12,.28-4.14-.11-8.31-.14-12.03-2.76-1.04,3.4-3.3,5.8-5.24,8.42-1.87,2.52-3.54,5.18-5.25,7.81-.98,1.5-.75,3.2-.54,4.84,.25,1.92,.11,2.35-1.77,2.58-2.64,.32-5.31,.58-7.97,.62-7.07,.12-14.15,.23-21.22,.12-4.61-.07-9.21-.52-13.82-.78-8.23-.46-15.96-2.66-23.18-6.62-3.06-1.68-5.75-3.79-7.66-6.77-.23-.36-.53-.69-.85-.98-1.81-1.62-2.71-3.61-2.54-6.35-.08-.37-.09-.45-.09-.52,.18-3.3,.35-6.61,.57-9.91,.05-.68,.3-1.35,.46-2.02,.03-.14,.13-.27,.13-.41,.03-3.42,1.55-6.71,.85-10.2-.14-.7-.16-1.44-.16-2.16-.02-3.31-1.39-6.08-3.46-8.54-.31-.36-.94-.59-1.44-.62-1.51-.09-3.05-.18-4.54-.01-1.42,.16-2.48-.51-3.58-1.09-1-.53-1.98-1.16-2.85-1.89-.89-.76-1.85-.92-2.96-.88-2.09,.06-4.19,.05-6.28,.03-3.27-.03-5.97,1.26-8.25,3.5-1.7,1.67-3.37,3.37-5,5.11-.58,.62-1.14,1.32-1.49,2.09-.37,.8-.44,1.54,.06,2.56,.85,1.75,1.4,3.76,1.6,5.71,.35,3.51,.45,7.06,.47,10.6,.03,6.16-1.63,11.9-4.7,17.22-1.03,1.79-2.15,3.57-3.49,5.12-1.04,1.2-2.4,2.23-3.8,3-2.64,1.46-5.45,2.58-8.56,2.45-2.88-.13-5.75-.42-8.63-.45-5.64-.07-10.58-2.28-15.4-4.87-.92-.49-1.7-1.25-2.48-1.97-1.3-1.2-2.51-2.5-3.84-3.66-.34-.3-1.12-.47-1.51-.29-2.7,1.22-4.81,3.09-5.92,5.9-.2,.51-.26,1.13-.19,1.68,.42,3.35,1.35,6.57,2.56,9.72,1.16,3.01,2.28,6,2.2,9.32-.08,3.64-.69,7.08-2.56,10.29-2.26,3.9-4.43,7.85-7.72,11.01-2.77,2.65-6.07,4.57-9.31,6.56-.54,.33-1.09,.66-1.59,1.05-.55,.42-.98,1.01-1.57,1.35-2.52,1.47-5.27,2.57-8.07,3.12-2.07,.41-4.06,1.17-6.13,1.38-2.14,.22-4.31,.1-6.77,.14-.46,.08-.52,.2-.48,.36-.29,.46-.57,.93-1.05,1.58-1.25,.9-2.3,1.61-3.38,2.17-.05-.25-.08-.35-.11-.45Z"/>
        <path class="cls-6" d="M215.73,72.06c-6.13-1.12-12.2-.43-18.27,.55-3.84,.62-7.71,1.05-11.4,2.43-8.49,3.18-15.84,8.02-21.53,15.08-2.01,2.49-3.59,5.43-4.88,8.38-1.57,3.58-1.17,7.14,2.5,10.55,1.63,1.52,3.41,2.88,5.09,4.35,1.17,1.02,1.18,1.12-.03,2.13-2.6,2.17-5.36,4.17-7.86,6.44-5.84,5.29-11.47,10.79-14.79,18.15-1.77,3.92-2.79,8.02-3.02,12.31-.15,2.73-.66,5.43-.12,8.18,.94,4.75,2.93,9.04,5.61,13.01,.82,1.21,2.21,2.02,3.3,3.06,.65,.62,1.84,1.16,1.41,2.16-.22,.51-1.45,.69-2.25,.82-4.54,.74-9.13,1.25-13.63,2.18-2.88,.59-5.63,1.77-8.45,2.68-.48,.15-.97,.26-1.73,.36-.37-.16-.47-.28-.57-.4,4.4-2.15,8.84-4.22,13.8-4.75,2.79-.3,5.58-.61,8.38-.93,.29-.03,.58-.05,.85-.15,.39-.14,.76-.34,1.14-.51-.24-.41-.38-.93-.72-1.21-4.72-3.89-7.12-8.98-7.78-14.95-.33-2.93-.76-5.88-.73-8.82,.04-3.69,.82-7.29,2.26-10.73,2.64-6.33,6.2-12.12,11.04-16.93,3.36-3.33,7.25-6.14,10.95-9.13,2.59-2.09,2.68-1.65,0-3.84-2.01-1.64-4.1-3.16-5.41-5.5-1.76-3.14-1.85-6.37-.35-9.54,1.97-4.19,4.36-8.15,7.69-11.43,3.51-3.45,7.47-6.28,11.75-8.74,4.9-2.82,10.26-4.04,15.68-5.57-.62-.03-1.25-.08-1.87-.08-.72,0-1.45,.01-2.16,.09-5.39,.59-10.68,1.68-15.86,3.26-3.97,1.21-7.62,3.11-10.79,5.81-.78,.66-1.41,.7-2.33,.45-3.16-.87-6.36-1.34-9.61-.48-.76,.2-1.62,.33-2.23,.77-2.32,1.69-5.07,2.38-7.61,3.55-5.12,2.37-9.56,5.57-12.87,10.41-.14,.07-.19,.03-.21-.14-.06-.27-.09-.38-.07-.62,.82-1.27,1.59-2.39,2.36-3.52,.95-.87,1.89-1.74,3.04-2.78,3.08-2.51,6.44-3.96,9.82-5.41,.84-.36,1.63-.87,2.44-1.3,.19-.05,.38-.1,.8-.27,3.86-2.32,7.85-2.8,11.91-2.13,2,.33,3.65,.31,5.17-1.08,.31-.29,.72-.48,1.08-.71,.07-.03,.14-.05,.42-.19,.88-.5,1.54-.9,2.21-1.29,.49-.17,.98-.35,1.73-.63,.89-.37,1.52-.63,2.15-.89,.47-.14,.94-.27,1.69-.51,.71-.35,1.14-.59,1.58-.84,.69-.08,1.39-.16,2.4-.31,2.22-.51,4.12-.95,6.02-1.39,0,0,.2,.02,.47-.04,1.01-.14,1.75-.21,2.49-.29,2.14-.25,4.27-.58,6.42-.72,3.24-.21,6.49-.41,9.73-.37,4.52,.05,9.02,.49,13.6,1.68,.16,.14,.18,.27,.18,.27Z"/>
        <path class="cls-5" d="M509.33,91.3c3.54-.56,7.01-1.37,10.66-1.47,6.73-.19,13.28-1.62,19.57-4.12,.47-.19,.95-.48,1.42-.48,4.36,.05,7.89-2.11,11.36-4.3,5.15-3.25,9.66-7.31,13.83-11.71,3.04-3.21,5.14-7.12,7.37-10.91,1.24-2.11,2.51-4.21,3.83-6.27,.79-1.23,1.22-1.33,2.5-.69,3.55,1.8,7.34,1.89,11.19,1.58,4.15-.34,8.01-1.8,11.82-3.31,1.91-.76,3.69-1.96,5.35-3.2,2.07-1.55,4.18-3.15,5.85-5.09,1.69-1.97,3.58-3.71,5.35-5.59,3.01-3.21,4.7-7,4.99-11.46,.13-2,.71-3.97,1.06-5.95,.5-2.82-.26-5.14-2.79-6.68-.53-.32-1.18-.46-1.77-.68-.44-.16-.89-.33-1.58-.58,.68-.47,1.1-.88,1.6-1.09,3.52-1.5,5.54-4.21,6.46-7.85,.03-.11,.2-.18,.44-.32,.46,2.72-.67,4.98-2.35,7.03-.32,.39-.69,.75-1.09,1.06-.76,.58-.71,1.08-.11,1.79,2.2,2.64,2.85,5.76,2.53,9.09-.15,1.56-.48,3.13-.97,4.62-1.63,4.99-3.53,9.86-7.24,13.77-1.43,1.51-2.65,3.25-4.23,4.56-3.27,2.72-6.54,5.52-10.15,7.74-2.73,1.68-5.95,2.54-9.18,3.24-2.96,.65-5.95,.74-8.92,1.11-1.67,.21-3.29,0-4.86-.7-.7-.31-1.53-.42-2.3-.43-.39,0-.92,.34-1.15,.68-3.84,5.89-7.2,12.11-12.12,17.25-2.45,2.56-5.1,4.85-7.95,6.94-3.08,2.26-6.54,3.81-9.94,5.51-2.74,1.37-5.8,1.78-8.44,3.31-2.41-.21-4.53,1.08-6.82,1.5-2.66,.49-5.34,.75-8,1.16-2.71,.42-5.44,.7-8.17,.98-2.23,.23-4.46,.36-6.86,.41-.19-.24-.2-.35-.19-.46Z"/>
        <path class="cls-3" d="M1.95,277.46c.26-2.15,1.81-3.57,3.03-5.14,4.21-5.44,9.76-9.14,15.9-12.03,1.83-.86,3.62-1.83,5.51-2.53,4.45-1.64,9-2.03,13.54-.36,3.31,1.22,5.74,3.33,6.29,7.04,.09,.62,.09,1.3-.07,1.9-1.05,4.07-2.7,7.87-4.61,11.63-2.37,4.68-3.96,9.7-2.32,15.03,1.19,3.85,2.54,7.68,5.22,10.84,1.77,2.09,4,3.33,6.72,3.44,5.4,.22,10.31-1.09,14.88-4.21,4.33-2.96,7.72-6.68,10.62-10.95,.2-.3,.4-.6,.6-.9,.35-.51,.82-.64,1.28-.21,1.91,1.78,4.4,2.04,6.83,2.82-.23,.27-.52,.36-.81,.46-.28,0-.55-.02-1.13-.07-.73-.15-1.17-.25-1.61-.35-.48-.16-.97-.32-1.71-.57q-1.71-1.27-2.8,.05c-.53,.65-1.03,1.32-1.54,1.99-.08,.04-.15,.09-.39,.29-.66,.8-1.15,1.45-1.65,2.09-.24,.23-.49,.46-.9,.88-2.7,2.81-5.47,5.13-8.54,7.1-.37,.21-.74,.43-1.35,.77-1.02,.5-1.8,.87-2.58,1.24,0,0-.18,0-.43,.08-1.81,.4-3.38,.71-4.94,1.03-.05-.16-.16-.23-.59-.25-1.34-.1-2.4-.17-3.47-.24-.07-.04-.13-.07-.46-.13-2.1-.36-3.92-.76-5.27-2.21-3.36-3.6-5.76-7.73-6.98-12.53-.63-2.48-.67-4.99-.49-7.52,0,0,.08-.16,.11-.4,.5-1.81,.85-3.44,1.47-4.94,1.48-3.57,3.13-7.07,4.61-10.64,.45-1.1,.57-2.34,.84-3.51,.02-.19,.05-.39,.08-.9-.1-1.16-.2-2-.3-2.84,.02-.15,.03-.29-.09-.66-.51-.55-.87-.91-1.28-1.2-2.7-1.87-5.99-2.13-8.96-3.28-.06-.02-.14,.02-.21,.03-.07-.02-.14-.05-.49-.05-1.18,.24-2.08,.45-2.99,.66l-.2-.07s-.21,.03-.47,.08c-1.13,.45-2.36,.15-2.79,1.38,.03-.07,.06-.15-.13-.32-1.73,.47-3.25,1.05-4.76,1.63-.63,.26-1.26,.53-2.15,.92-2.25,1.46-4.23,2.78-6.21,4.11-.36,.28-.72,.55-1.28,.99-1.32,1.2-2.45,2.25-3.57,3.29-1.12,1.06-2.24,2.13-3.53,3.41-1.03,1.35-1.87,2.49-2.76,3.6-.14,.17-.49,.17-.75,.25Z"/>
        <path class="cls-10" d="M591.68,63.5c1.58,.06,3.19,.3,4.75,.14,4.07-.43,8.14-.86,12.16-1.61,4.72-.88,9.04-2.93,13.12-5.42,1.91-1.16,3.7-2.52,5.57-3.77,.39-.26,.84-.5,1.29-.55,.59-.06,1.05,.28,.69,.93-1.74,3.1-2.94,6.59-6.18,8.64-.71,.45-1.3,1.1-1.95,1.65-3.72,3.08-8.27,4.28-12.78,5.55-1.96,.55-3.91,1.12-5.88,1.62-.61,.15-1.27,.13-1.91,.15-1.48,.04-2.53,.49-3.64,1.75-2.79,3.18-5.86,6.14-9.03,8.95-2.05,1.82-4.35,3.48-6.77,4.76-3.77,2-7.75,3.61-11.63,5.41-1.41,.66-2.75,1.48-4.19,2.06-2.7,1.09-5.41,2.16-8.18,3.01-1.19,.36-2.57,.14-3.86,.2-.64,.03-1.29,.12-1.93,.14-.25,0-.51-.09-.77-.14,.14-.28,.21-.72,.44-.82,1.83-.84,3.69-1.64,5.55-2.41,.44-.18,.94-.21,1.58-.32,.17-.01,.17-.02,.18,.14,.27,.86,.78,.67,1.26,.5,3.46-1.21,6.98-2.29,10.37-3.69,3.19-1.31,6.43-2.68,9.31-4.54,4.16-2.69,8.09-5.76,11.98-8.84,2.02-1.6,3.82-3.54,4.71-6.08,.29-.81,.82-1.14,1.57-1.27,2.84-.47,5.69-.87,8.52-1.39,4.55-.83,9.02-2.02,13.01-4.42,2.85-1.72,5.19-4.07,6.64-7.25,.07-.13,.06-.22,.04-.31-.08,.08-.15,.16-.37,.26-1.56,.9-2.92,1.86-4.37,2.63-5.14,2.73-10.61,4.5-16.39,5.13-2.57,.28-5.17,.44-7.75,.39-1.75-.03-3.59-.08-5.13-1.21,0,0-.01,.02-.01,.02Z"/>
        <path class="cls-4" d="M104.29,192.29c-1.98,.98-3.87,2.27-5.96,2.88-9.94,2.9-19.15,7.23-27.35,13.59-.16,.13-.37,.19-.83,.42-.03-1.91-.99-3.07-2.54-3.93-1.78-.99-3.56-1.02-5.44-.55-.91,.23-1.85,.36-2.72,.7-1.14,.46-2.16,1.15-3.34-.01-.28-.27-1.16-.15-1.65,.06-3.44,1.45-7.01,2.66-9.9,5.19-1.33,1.17-2.43,2.46-3.07,4.12-.53,1.39-.7,2.79-.11,4.22,.6,1.46,1.06,3,1.79,4.39,.79,1.49,.33,2.82-.22,4.14-.14,.34-.79,.54-1.25,.65-1.82,.42-3.65,.81-5.49,1.13-.6,.11-1.3,.09-1.87-.09-2.81-.92-5.57-.49-8.31,.22-5.06,1.3-9.41,3.97-13.5,7.13-3.96,3.07-7.46,6.59-10.48,10.59-.16,.21-.4,.37-.75,.57,0-.43,.14-.88,.42-1.55,.62-.91,1.09-1.6,1.56-2.29,.07-.04,.13-.07,.36-.28,1.98-2.07,3.78-3.99,5.62-5.87,.89-.92,1.85-1.77,2.78-2.65,.5-.39,1-.79,1.73-1.35,4.53-3.21,9.54-4.55,14.51-5.93,2.32-.65,4.69-.51,6.92,.63,.26,.14,.66,0,1,0,.43-.09,.86-.17,1.58-.37,1.06-.28,1.84-.42,2.6-.61,.33-.08,.82-.22,.9-.44,.42-1.28,1.12-2.63,.2-3.91-1.42-1.98-1.76-4.18-1.68-6.52,.06-.18,.13-.36,.24-.82,.52-3.67,2.75-5.75,5.46-7.39,2.82-1.71,5.78-3.19,9-4.05,1.05,.12,2.09,.28,3.14,.34,.54,.03,1.11-.05,1.63-.21,2.5-.81,5.01-1.11,7.86-.25,1.69,.96,3.1,1.8,4.61,2.71,3.48-2.66,7.37-5.09,11.6-7.02,6.78-3.1,13.95-5.1,20.96-7.57Z"/>
        <path class="cls-4" d="M344.12-1.33c-4.26,1.72-8.75,3.29-13.07,5.25-5.47,2.48-10.45,5.77-14.82,9.98-4.8,4.63-7.13,10.18-6.84,16.8,.14,3.2,1.83,5.73,4.11,7.82,2.34,2.14,5.19,3.35,8.26,4.08,.76,.18,1.51,.39,2.63,.69-.83,.88-1.45,1.54-2.06,2.2-.73,.79-1.63,1.49-2.14,2.41-2.21,3.96-1.8,6.69,2.47,10.35,2.81,2.42,6.13,4.02,9.35,5.79,1.18,.65,2.22,1.6,3.2,2.53,1.13,1.08,1.18,2.29,0,3.35-1.16,1.04-2.55,1.82-3.99,2.55-.02-.5,.11-.84,.24-1.17,0,0,.05,0,.15-.05,.23-.11,.33-.2,.41-.32,.35-.25,.8-.42,1.03-.75,1.37-1.97,1.9-3.05-.67-4.12-3.12-1.3-5.94-3.1-8.58-5.18-2.76-2.19-5.41-4.5-6.25-8.15-.16-.71-.16-1.53,0-2.25,.52-2.39,1.5-4.57,3.57-6.27-2.02-.85-4.04-1.39-5.72-2.48-3.22-2.08-5.92-4.8-6.8-8.68-1.09-4.81-.7-9.44,1.77-13.95,2.18-3.96,5.41-6.72,8.68-9.64,2.88-2.56,5.99-4.65,9.45-6.19,4.67-2.08,9.46-3.86,14.62-4.36,.28-.03,.56-.14,.99-.23Z"/>
        <path class="cls-4" d="M329.34,73.86c-.02,.14,0,.34-.07,.4-2.25,1.79-4.45,3.67-6.81,5.31-1.58,1.1-3.16,2.08-4.49,3.58-2.68,3.03-5.97,5.43-9.5,7.44-1.22,.7-2.46,1.37-3.82,1.85,3.12-2.68,6.91-4.44,10.12-7.66-.81,.08-1.27,.07-1.69,.18-8.5,2.25-16.97,4.58-25.49,6.75-3.9,.99-7.87,1.74-11.84,2.48-5.8,1.08-11.63,2.05-17.44,3.05-.63,.11-1.1,.15-1.58,.81-.42,.58-1.47,.77-2.29,.96-5.51,1.29-11.02,1.02-16.5-.2-1.12-.25-2.23-.53-3.46-1.01-.11-.21-.11-.41-.11-.41,.35,.03,.73,0,1.06,.1,1.22,.36,2.39,.57,3.72,.37,1.22-.18,2.57,.14,3.81,.45,3.04,.76,6.11,.47,9.16,.25,1.37-.1,2.77-.64,4.04-1.24,2.91-1.37,6-1.98,9.11-2.58,4.68-.9,9.3-2.22,14.02-2.83,7.77-1.01,15.19-3.48,22.82-5.05,3.53-.73,7.06-1.72,10.37-3.12,1.91-.81,3.96-1.53,5.68-2.89,1.7-1.34,3.61-2.4,5.42-3.62,1.4-.94,2.77-1.93,4.39-2.97,.38-.13,.44-.23,.45-.37,.09-.05,.18-.09,.48-.15,.29,.04,.36,.09,.43,.14Zm-14,10.67l-.16-.07s.04,.14,.16,.07Z"/>
        <path class="cls-4" d="M377.49,130.26c.37-3.72,1.88-6.96,4.46-9.62,.97-1,2.28-1.92,3.59-2.28,2.27-.62,4.67-.79,7.01-1.11,.96-.13,1.6,.43,2.17,1.17,1.06,1.37,2.13,2.73,3.29,4.01,4.38,4.82,9.88,7.62,16.2,8.92,4.66,.96,9.36,.8,13.91-.33,3.78-.94,7.22-2.87,10.35-5.24,1.67-1.26,3.3-2.57,4.83-3.99,1.1-1.02,2.01-2.25,3-3.4,.42-.49,.75-1.12,1.27-1.45,2.04-1.3,3.47-3.22,5.14-4.88,1.31-1.31,2.39-2.88,3.45-4.41,.39-.56,.5-1.34,.64-2.04,.21-1.05,.32-2.11,.6-3.29,.3,.12,.48,.36,.66,.6,.39,2.36-.44,4.51-1.32,6.59-.39,.93-1.39,1.6-2.14,2.37-2.91,2.99-5.72,6.09-8.77,8.94-3.01,2.82-5.72,5.96-9.45,8.01-3.69,2.03-7.53,3.58-11.66,3.96-3.78,.35-7.63,.17-11.43-.02-1.34-.06-2.68-.76-3.98-1.27-5.05-1.99-9.5-4.93-13.36-8.73-.64-.63-1.19-1.47-1.47-2.31-.49-1.5-1.48-1.86-2.92-2.01-6.83-.74-12.94,6.04-13.52,11.63-.29,.16-.42,.16-.54,.16Z"/>
        <path class="cls-10" d="M400.83,187.51c-1.48,5.53-4.09,10.47-7.67,14.94-1.62,2.03-3.75,3.43-5.74,4.97-3.08,2.4-6.38,4.47-9.99,6.05-4.86,2.12-9.81,3.95-14.96,5.21-3.09,.76-6.13,1.73-9.24,2.38-2.46,.52-4.91,1.26-7.47,1.09-.29-.02-.69,.1-.84-.05-.38-.37-.66-.86-.98-1.3,.32-.22,.61-.56,.96-.63,5.52-1.11,10.77-3.09,16.07-4.91,2.25-.77,4.43-1.71,6.81-2.47,.17,.33,.18,.55,.08,.88-3.12,1.53-6.14,2.96-9.16,4.38,.54,.12,1.03,.07,1.51-.04,8.42-1.93,16.32-5.23,23.67-9.7,4.87-2.96,9.31-6.57,11.93-11.88,1.46-2.96,2.85-5.95,4.4-8.93,.29,0,.46,0,.63,0Z"/>
        <path class="cls-3" d="M109.95,139.56c2.8,.21,5.61,.36,8.4,.66,1.42,.15,2.84,.48,4.21,.9,2.19,.67,3.38,2.81,2.46,4.89-.95,2.15-2.21,4.2-3.57,6.13-.57,.8-1.72,1.27-2.69,1.66-4.8,1.92-9.29,4.34-12.91,8.08-1.86,1.93-3.33,4.14-3.35,7.02-.02,1.71,.15,3.28,2.12,4.21-.75,.4-1.3,.71-1.86,.99-2.12,1.07-3.34,2.89-4.12,5.05-.15,.41-.2,.85-.35,1.25-1.19,3.19-.26,4.67,2.51,6.77,1.66,1.26,3.28,2.6,4.79,4.04,.87,.83,.23,1.1-.79,.87-.13-.11-.13-.13-.27-.24-1.67-1.47-3.21-2.84-4.75-4.2-1.41-1.25-2.51-2.7-2.99-4.56,0-1.01,0-2.02,.05-3.35,.8-1.82,1.57-3.31,2.33-4.81,0,0,.04-.04,.19-.13,.99-.74,1.82-1.4,2.61-2.01-.44-.94-.85-1.81-1.26-2.69,.21-1.52,.42-3.04,.77-4.81,1.11-1.61,2.08-2.96,3.06-4.31,0,0,.05-.06,.21-.12,1.58-1.24,3.01-2.42,4.43-3.6,0,0-.06,.03,.11,0,1.67-.98,3.16-1.92,4.65-2.86,.91-.44,1.81-.87,2.98-1.44,1.04-.47,1.86-.73,2.59-1.16,2.42-1.44,4.11-3.42,4.39-6.36,.03-.33,.05-.66,.05-1.31-.16-1.35-.91-1.83-1.77-2.01-1.74-.35-3.52-.56-5.28-.83-.77-.05-1.54-.11-2.64-.18-1.68-.27-3.03-.51-4.35-.95,.03-.33,.04-.46,.05-.59Z"/>
        <path class="cls-4" d="M454.61,95.79c-2.37-.79-3.93-2.63-5.54-4.37-.94-1.01-.63-3.28,.46-4.06,2.46-1.77,4.93-3.49,6.72-6.02,.13-.19,.81-.22,1.05-.05,.53,.36,1.1,.81,1.36,1.36,1.17,2.44,3.32,3.35,5.74,3.67,2.85,.38,5.73,.61,8.5-.6,3.25-1.42,4.82-3.98,5.15-7.38,.13-1.36,.03-2.74,.06-4.1,0-.18,.12-.45,.25-.5,.14-.06,.47,0,.55,.13,.56,.83,1.3,1.62,1.58,2.54,1.41,4.63,4.59,7.5,8.84,9.48,3.46,1.62,6.79,3.51,10.64,4.61,.01,.29-.09,.45-.2,.61-1.82,.27-3.38-.62-5.03-1.13-4.59-1.43-8.67-3.66-11.98-7.23-1.18-1.27-2.2-2.61-2.88-4.52-.26-.66-.47-1.03-.83-1.67-.07,1.1-.12,1.82-.17,2.54-.09,.49-.17,.99-.27,1.48-.75,3.83-3.57,6.53-7.49,6.78-2.79,.18-5.61,.04-8.41-.12-.79-.05-1.6-.59-2.31-1.05-.84-.54-1.61-1.21-2.38-1.85-1.42-1.19-1.84-1.2-3.24,.04-1.34,1.18-2.67,2.37-3.98,3.58-1.32,1.22-1.36,2.21-.08,3.46,1.23,1.2,2.53,2.33,3.86,3.78,.05,.4,.04,.51,.02,.61Z"/>
        <path class="cls-3" d="M587.66,0c.93,1.43-.02,2.5-.75,3.5-3,4.14-6.56,7.72-11.11,10.13-3.57,1.89-7.24,3.6-10.92,5.26-4.06,1.83-8.48,2.27-12.82,2.91-.57,.08-1.19-.17-2.23-.33,.64-.44,.84-.68,1.07-.73,6.97-1.45,12.82-5.04,18.3-9.4,3.38-2.69,6.22-5.81,8.2-9.67,.12-.24,.38-.42,.72-.63-1.31,3.66-3.25,6.99-6.4,9.48-2.38,1.88-4.75,3.77-7.15,5.62-.55,.42-1.21,.69-2.07,1.19-1.49,.81-2.74,1.47-3.98,2.13,1.52,.07,2.89-.24,4.12-1.03,5.87-2.54,11.89-4.89,16.87-9.02,2.35-1.94,4.31-4.37,6.31-6.69,.41-.47,1.46-1.1,.7-2.12,.33-.2,.66-.39,1.14-.6Z"/>
        <path class="cls-2" d="M221.81,67.83c-.2,0-.41,0-.77-.19-1.11-1.33-2.53-1.26-3.79-1.56-1.43-.34-2.89-.58-4.34-.86,.09-.17,.18-.34,.47-.49,5.02,.16,9.82,.4,14.51,1.78,3.73,1.09,6.39,3.23,7.48,7.07,1.06,3.7-.25,7.32-3.45,9.44-.07,.05-.39-.29-.56-.62,.16-1.67,.33-3.15,.38-4.64,.15-4.69-4.84-9.35-9.92-9.92Z"/>
        <path class="cls-5" d="M558.3,93.4c1.32-1.04,2.58-2.18,3.97-3.11,1.25-.84,2.65-1.44,3.97-2.17,1.13-.63,2.3-1.21,3.37-1.95,5.24-3.6,10.3-7.43,14.42-12.34,2.53-3.02,4.34-6.45,5.57-10.19,.1-.32,.43-.56,.74-.56,.11,.37,.13,.47,.16,.75,.27,2.99-.88,5.39-2.29,7.67-1.68,2.72-4.03,4.82-6.37,6.98-4.46,4.12-9.26,7.77-14.41,10.95-2.31,1.42-4.82,2.52-7.28,3.7-.54,.26-1.23,.19-1.86,.27,0,0,0,.01,0,.01Z"/>
        <path class="cls-4" d="M142.9,267.74c1.27-2.84,2.59-5.49,3.7-8.22,.46-1.15,.48-2.49,.65-3.74,.14-1.01,.79-1.4,1.56-.77,.46,.37,.85,.99,.99,1.57,1.9,8.13-.95,15.54-8.49,19.71-1.98,1.1-4.02,2.08-6.05,3.09-.38,.19-.82,.33-1.23,.33-.32,0-.65-.23-.98-.36,.12-.29,.17-.67,.39-.86,1.45-1.27,3.02-2.4,4.38-3.76,1.65-1.65,3.38-3.28,4.32-5.51,.19-.46,.49-.87,.77-1.46Zm-6.57,10.04c9.14-3.46,14.04-11.09,11.86-21.79-.24,.97-.39,1.48-.5,2.01-.19,.91-.24,1.87-.56,2.72-.94,2.49-1.91,4.97-2.99,7.41-.91,2.05-2.12,3.92-3.82,5.45-1.49,1.34-2.95,2.72-4.58,4.16,.01,.09,.02,.18,.03,.27,.08-.07,.16-.15,.56-.23Z"/>
        <path class="cls-10" d="M377.39,130.41c.23-.15,.35-.15,.57-.14,.27,2.5,.45,5.01,.61,7.52,.19,3.01,1.92,5.29,3.59,7.61,2.74,3.8,5.49,7.59,8.14,11.46,2.17,3.17,3.14,6.79,3.74,10.55,.64,4,.47,7.98-.2,12.13-.36,.17-.52,.17-.68,.17,.71-5.08,.14-10.03-1.16-14.97-1.78-6.77-5.59-12.26-10.17-17.39-2.48-2.77-4.11-6.1-4.38-9.9-.16-2.29-.11-4.58-.06-7.02Z"/>
        <path class="cls-3" d="M304.63,14.05c-1.47,1.66-2.98,3.3-4.42,5-2.06,2.43-2.38,5.3-1.9,8.32,.39,2.47,.81,4.93,1.22,7.39,.04,.25,.06,.51,.09,.76-.34,0-.78,.16-.99,0-.66-.52-1.35-1.08-1.83-1.77-1.17-1.69-2.24-3.46-3.32-5.21-1.45-2.36-1.69-4.96-1.37-7.63,.07-.57,.61-1.06,.88-1.62,1.5-3.07,4.02-5.04,7.21-6.48,.44,.22,.63,.33,.69,.54-1.98,1.79-3.98,3.36-5.67,5.21-1.62,1.77-2.4,4.09-1.67,6.44,.82,2.67,2.24,5.12,4.13,7.35,.05,.22,.11,.33,.16,.44,.06-.06,.19-.18,.18-.19-.1-.13-.22-.25-.32-.55-.22-1.23-.5-2.27-.68-3.33-.6-3.65-.58-7.24,2.02-10.21,1.56-1.78,3.38-3.32,5.19-4.92,.2,.18,.29,.31,.38,.44Z"/>
        <path class="cls-4" d="M400.87,187.34c-.21,.17-.38,.16-.66,0,.22-1.8,1.09-3.37,.54-5.37-.89,1.01-1.66,1.84-2.39,2.7-.32,.38-.57,.83-.82,1.27-5.26,9.57-12.85,16.99-21.72,23.16-2.47,1.72-5.24,3-7.88,4.49,0-.22-.02-.44-.03-.83,3.56-2.37,7.03-4.72,10.43-7.19,4.37-3.18,8.13-6.96,11.67-10.99,2.2-2.51,4.36-5.08,6.02-8.02,.45-.8,.87-1.62,1.38-2.38,.68-.99,1.42-1.94,2.17-2.87,.42-.52,.96-.94,1.67-.5,.67,.41,1.02,1.04,.83,1.84-.37,1.52-.78,3.03-1.22,4.71Z"/>
        <path class="cls-4" d="M109.81,139.5c.13,.19,.12,.32-.09,.62-2.03,.09-3.7-.34-4.87-1.91,.06-.5,.12-1,.23-1.79,1.97-6.24,6.22-10.03,11.69-12.57,1.73-.8,3.68-1.15,5.56-1.6,1.84-.44,2.07-.92,1.47-2.64-.54-1.54-1.01-3.15-1.18-4.77-.18-1.63,.05-3.3,.1-4.95,.03-.07,.06-.14,.12-.47,.21-1.03,.39-1.81,.67-2.52,.21,.2,.3,.33,.4,.47-.04,2.09-.1,4.18-.13,6.27-.03,2.58,.39,5.01,2.27,6.97,.49,.51,.28,.93-.25,1.2-.44,.23-.93,.41-1.41,.51-3.34,.68-6.44,1.96-9.43,3.57-3.01,1.62-5.03,4.26-7.14,6.8-.99,1.19-1.29,2.73-.95,4.3,.34,1.57,1.04,2.16,2.94,2.49Z"/>
        <path class="cls-3" d="M38.48,200.83c-.4,.35-.8,.7-1.36,1.26-1.77,2.27-3.19,4.42-3.52,7.1-.11,.58-.22,1.16-.36,2.04-.34,.79-.64,1.27-.95,1.76,0,0-.06-.03-.15-.17-1.81-3.91-1.31-7.48,.83-10.92,1.88-2.76,4.31-4.86,7.67-6.31,1.11-.41,1.94-.71,2.77-1.01,.53,.01,1.06,.02,1.9,0,.64-.09,.96-.13,1.29-.18,0,0,.15,.09,.25,.24-.28,.5-.62,.91-1.05,1.18-1.53,.99-3.09,1.94-4.64,2.9-.09-.02-.18,0-.42,.18-.87,.72-1.57,1.33-2.26,1.93Zm-5.93,4.95c-.08,.68-.17,1.35-.25,2.03,1.76-5.11,5.32-8.6,9.66-11.49-4.55,1.59-7.65,4.63-9.41,9.46Z"/>
        <path class="cls-3" d="M234.22,97.31c.15,.06,.15,.27,.14,.37-2.71-.63-5.48-1.18-8.09-2.16-2.3-.86-3.22-3.53-2.43-6.03,.76-2.41,1.58-4.79,2.36-7.2,.84-2.6,.4-4.04-1.85-5.61-2.61-1.81-5.34-3.42-8.51-4.51-.11-.12-.12-.25-.13-.32,4.52,.46,8.61,1.77,11.14,5.98,.93,1.55,1.27,3.09,.59,4.87-.82,2.12-1.48,4.3-2.19,6.46-.98,2.98-.29,4.57,2.61,5.76,2.04,.84,4.13,1.55,6.35,2.37Z"/>
        <path class="cls-4" d="M231.31,82.57c.21,.16,.53,.49,.6,.44,3.19-2.12,4.5-5.73,3.45-9.44-1.09-3.84-3.76-5.98-7.48-7.07-4.68-1.37-9.49-1.62-14.4-1.88,.68-.29,1.46-.45,2.24-.61,3.74,0,7.37,.66,11.02,1.45,2.83,.61,5.3,1.67,7.39,3.62,.56,.52,1.14,1.13,1.44,1.81,2.39,5.46-.12,12.41-5.4,15.15-.65,.34-.83,.17-.93-.55-.2-1.33,1.16-1.73,1.68-2.84,.21-.1,.42-.1,.42-.1Z"/>
        <path class="cls-1" d="M301.02,13.27c-.19-.11-.38-.22-.66-.47,3.43-2.29,7.27-3.81,11-5.53,2.43-1.12,4.8-2.36,7.21-3.54,1.13-.55,2.25-1.13,3.41-1.62,.41-.17,.92-.12,1.44-.02-5.69,3.24-11.42,6.37-16.9,10.19-.2-.02-.31-.14-.26-.26,.53-.67,1.02-1.21,1.64-1.78,.44-.2,.75-.37,1.14-.56,.02-.01-.03,0-.23,0-.5,.11-.86,.25-1.37,.4-.54,.19-.95,.33-1.32,.52-1.71,.88-3.41,1.77-5.11,2.66Z"/>
        <path class="cls-4" d="M393.09,179.84c.23-.15,.39-.14,.67-.14,.39,1.7-.68,3.01-1.28,4.41-1.76,4.07-4.66,7.26-8.34,9.91,.1-1.51,1.31-2.39,2.29-3.35,3.08-3.03,5.35-6.53,6.66-10.83Z"/>
        <path class="cls-1" d="M8.88,234.4c-.15,.63-.29,1.29-.66,1.76-1.19,1.51-2.44,2.97-3.71,4.41-.49,.55-1.01,1.41-1.92,.98-.85-.4-.68-1.32-.64-2.1,.01-.28,.1-.56,.18-1.02,.1-.39,.17-.59,.39-.95,.48-.3,.81-.43,1.15-.41q-.81,2.18-.47,3.67c1.4-1.78,2.7-3.42,4.07-5.11-.02-.05-.11-.07-.35-.08-1.19,.46-2.23,.9-3.29,1.2,.23-.45,.5-.75,.76-1.05,.18-.07,.36-.15,.73-.36,.89-.54,1.6-.93,2.3-1.33,.46,.1,.91,.21,1.47,.38Z"/>
        <path class="cls-1" d="M231.35,82.39c-.04,.18-.24,.18-.34,.18-.02-1.33,.06-2.65,.14-4.25,0-.41-.07-.52-.19-.6-.58-3.04-2.14-5.42-4.76-7.06-1.41-.88-2.85-1.7-4.33-2.69,5.03,.42,10.02,5.08,9.87,9.77-.05,1.49-.23,2.98-.38,4.64Z"/>
        <path class="cls-2" d="M207.92,187.99c.02,.15-.04,.26-.42,.36-.82,.07-1.36,.15-1.31,.92,0,0,0-.03-.18-.06-.31-.03-.46,0-.59-.02-.58-.12-1.16-.25-1.75-.38,.22-.62,.3-1.38,.7-1.85,1.38-1.59,3.16-2.35,5.31-2.07,0,0-.03,.02-.06,.17-.16,.78-.28,1.42-.41,2.06,0,0,0-.03-.08,.02-.17,.17-.27,.29-.36,.4,0,0,0-.02-.11,0-.33,.17-.53,.32-.74,.46Z"/>
        <path class="cls-4" d="M209.7,184.7c-2.16-.1-3.94,.66-5.32,2.25-.41,.47-.48,1.23-.7,1.85,.58,.13,1.16,.27,1.75,.38,.14,.03,.28,0,.61,.03-.86,.91-2.39,1.18-3.3,.65-.81-.48-1.25-1.56-.71-2.2,1.71-2.04,3.57-3.92,6.58-3.63,.39,.04,.75,.32,1.11,.67Z"/>
        <path class="cls-1" d="M215.52,63.97c-.59,.2-1.36,.36-2.24,.63-.19,.27-.28,.45-.37,.62,1.45,.28,2.91,.51,4.34,.86,1.26,.3,2.68,.24,3.64,1.54-3.19-.75-6.42-1.49-9.77-1.51-.34,0-.7-.09-1-.25-.29-.15-.5-.43-.75-.66,.29-.26,.55-.69,.87-.74,1.69-.23,3.39-.36,5.28-.49Z"/>
        <path class="cls-4" d="M401.87,173.28c-.54,1.48-1.66,1.24-2.61,1.08-1.04-.18-.85-1.16-.92-1.92-.01-.14,.02-.29,.02-.43,0-1.77,.24-2.24,1.18-2.27,1.07-.04,2.47,1.06,2.6,2.15,.05,.4-.12,.83-.28,1.39Zm-1.06-1.11c-.25-.44-.49-.88-.74-1.31-.39,.64-.49,1.17-.43,1.68,.03,.3,.32,.56,.5,.84,.22-.3,.45-.61,.67-1.21Z"/>
        <path class="cls-1" d="M124.42,102.54c.97-2.27,1.93-4.41,3.06-6.45,.19,.24,.22,.37,.24,.51-.45,1.05-.97,2.07-1.33,3.15-.81,2.45-1.53,4.92-2.38,7.51-.2,0-.29-.14-.51-.51,.06-1.14,.25-2.04,.43-2.94,.16-.38,.32-.77,.49-1.27Z"/>
        <path class="cls-4" d="M537.79,95.97c.58-.11,1.08-.2,1.5-.05,1.32,.46,1.88,1.25,1.66,2.15-.2,.83-1.86,1.63-2.89,1.36-.26-.07-.68-.28-.68-.44-.03-.97-.92-2.06,.41-3.03Zm1.82,1.21c-.99-.58-1.02,.22-1.15,.82,0,.04,.46,.3,.54,.24,.26-.2,.45-.5,.62-1.06Z"/>
        <path class="cls-1" d="M95.58,291.87c-2.38,1.93-5,3.02-8.07,2.79-.78-.06-1.56-.05-2.55-.07-.2,.01-.3-.15-.35-.23,.24-.18,.53-.27,.92-.49,3.5,.07,6.73-.47,9.8-2.39,.17,.04,.2,.14,.25,.39Z"/>
        <path class="cls-1" d="M230.72,89.64c1.49-.4,2.59-.09,3.3,1.12,.14,.24,.15,.7,0,.92-.49,.78-2.29,1.08-3.13,.58-.87-.51-.95-1.14-.18-2.62Zm.82,1.08c.29,.16,.58,.32,.89,.45,.02,0,.15-.26,.22-.39-.31-.08-.62-.17-1.11-.06Z"/>
        <path class="cls-1" d="M499.94,91.15c-.07-.22,.04-.38,.18-.63,2.91,.66,5.84,.83,9,.75,.19,.14,.2,.25,.23,.44-3.08-.11-6.16-.31-9.41-.56Z"/>
        <path class="cls-4" d="M378.5,198.78c-.17-.1-.18-.22-.24-.53,1.79-1.56,3.61-2.93,5.58-4.27-1.63,1.61-3.41,3.19-5.35,4.79Z"/>
        <path class="cls-1" d="M458.1,102.76c-.22-.06-.41-.3-.68-.6-.41-1.41-.72-2.76-1.02-4.28,1.4,1.16,1.85,2.83,1.7,4.88Z"/>
        <path class="cls-1" d="M304.76,14.01c-.22-.09-.32-.22-.44-.52,.61-.56,1.25-.95,1.89-1.34,0,0,.11,.12,.16,.17-.46,.59-.97,1.12-1.61,1.68Z"/>
        <path class="cls-7" d="M479.06,76.54c.36,.64,.57,1.01,.78,1.53"/>
        <path class="cls-4" d="M209.35,187.01c0-.55,.12-1.18,.29-1.98,.2-.01,.52,.18,.5,.27-.18,.55-.43,1.08-.79,1.71Z"/>
        <path class="cls-7" d="M331.33,71.33c0,.3-.13,.64-.27,1.11-.01,.14,0,.15-.13,.11-.32,0-.51,.04-.73,.03-.04-.04-.11-.11-.11-.11,.37-.37,.74-.74,1.24-1.15Z"/>
        <path class="cls-1" d="M454.65,95.9c-.03-.23-.02-.33,0-.6,.3,.18,.59,.51,.89,.99-.27,0-.56-.13-.89-.38Z"/>
        <path class="cls-3" d="M578.38,1.01c.04-.35,.19-.74,.48-1.17-.03,.35-.2,.73-.48,1.17Z"/>
        <path class="cls-4" d="M206.33,189.24c-.19-.74,.35-.83,1.07-.88-.2,.29-.57,.57-1.07,.88Z"/>
        <path class="cls-1" d="M456.41,97.6c-.28-.21-.59-.55-.88-1.04,.3,.2,.58,.55,.88,1.04Z"/>
        <path class="cls-10" d="M590.49,63.65c-.02-.1-.04-.2-.07-.45,.37-.09,.76-.03,1.21,.16,.06,.14,.07,.12-.08,.13-.45,.05-.75,.11-1.05,.16Z"/>
        <path class="cls-4" d="M208.05,187.95c.08-.1,.29-.25,.63-.42-.08,.11-.29,.25-.63,.42Z"/>
        <path class="cls-7" d="M230.94,77.81c.14-.01,.2,.1,.17,.33-.14,0-.19-.11-.17-.33Z"/>
        <path class="cls-7" d="M100.1,288.1c-.12-.14-.07-.26,.2-.3,.07,.14,0,.23-.2,.3Z"/>
        <path class="cls-7" d="M329.21,73.31c.06-.13,.15-.23,.39-.33,.12-.02,.18,.04,.13,.14-.15,.2-.26,.28-.43,.3-.03-.03-.09-.1-.09-.1Z"/>
        <path class="cls-7" d="M328.33,73.89c.09,.13,.02,.23-.22,.29-.07-.13,0-.22,.22-.29Z"/>
        <path class="cls-4" d="M208.87,187.46c0-.06,.09-.18,.28-.35,0,.06-.09,.18-.28,.35Z"/>
        <path class="cls-7" d="M233.76,217.87c.09,.04,.09,.12,.1,.32-.06-.02-.12-.15-.1-.32Z"/>
        <path class="cls-7" d="M331.91,70.91c.04,.13-.06,.23-.29,.31,0-.09,.08-.21,.29-.31Z"/>
        <path class="cls-7" d="M329.68,72.93c.04-.15,.14-.25,.33-.39,.08-.06,.16,.01,.14,.15-.11,.24-.23,.31-.37,.34,0,0-.06-.06-.09-.1Z"/>
        <path class="cls-7" d="M329.34,73.87c-.07-.06-.15-.11-.32-.24-.07-.16,0-.22,.13-.29,.06-.03,.12,.04,.12,.18,.02,.21,.03,.29,.05,.36,0,0,.02,0,.02-.01Z"/>
        <path class="cls-6" d="M108.48,267.63c1.82-3.11,3.67-6.21,5.43-9.35,.46-.82,1.1-.79,1.83-.8,2.4-.05,4.5-.92,6.41-2.33,.95-.71,1.45-1.55,.99-2.8-1.04-2.83-1.98-5.71-3.07-8.52-.99-2.55-2.43-4.96-3.14-7.58-.87-3.18-1.32-6.48-1.72-9.77-.95-7.8,3.04-13.42,8.55-18.18,3.11-2.68,6.56-4.97,10.38-6.53,5.35-2.18,10.74-2.62,16.05,.28,2.42,1.33,4.59,2.98,6.65,4.8,.51,.45,1.16,.87,1.81,.98,1.31,.24,2.04-.39,1.48-1.46-.8-1.53-.05-2.76,.1-4.13,.2-1.86,.23-3.74,.42-5.61,.9-8.91,3.5-17.35,7.18-25.49,2.29-5.07,4.77-10.05,8.36-14.35,5.39-6.47,11.33-12.29,18.74-16.51,5.05-2.88,10.31-5.16,15.9-6.68,4.59-1.25,9.16-2.68,13.83-3.48,6.1-1.05,12.29-1.57,18.44-2.32,.07,0,.15-.02,.22,0,.8,.18,1.59,.37,2.39,.56-.55,1.02-1.52,.47-2.29,.56-4.01,.47-8.02,.83-12.03,1.32-7.11,.87-14.02,2.65-20.85,4.74-10.24,3.12-19.41,8.09-26.99,15.77-3.55,3.6-7.07,7.23-9.79,11.54-.65,1.03-1.23,2.11-1.97,3.4-.13,.4-.14,.58-.15,.76,.16-.16,.31-.33,.47-.49,1.03-.89,2.11-1.73,3.08-2.68,4.03-3.89,8.45-7.22,13.52-9.63,7.18-3.41,14.74-5.37,22.66-6.06,2.68-.23,5.3-.48,7.92,.42,.56,.19,1.27-.03,1.91-.08,3.09-.21,6.17-.58,9.26-.6,2.5-.02,4.84,.98,6.91,2.31,2.84,1.82,5.66,3.69,7.85,6.37,1.46,1.79,2.39,3.78,3.02,5.93,.63,2.14,1.03,4.35,1.65,6.5,.44,1.51,.98,3.01,1.63,4.45,.52,1.15,1.48,1.88,2.72,2.32,1.99,.72,4.01,1.04,6.14,1.11,6.89,.24,13.69-.5,20.45-1.68,5.11-.89,10.22-1.8,15.35-2.6,2.77-.44,5.58-.68,8.37-1.02,1.27-.15,1.22-.21,.83-1.41-.38-1.15-.74-2.36-.74-3.55,0-2.44,.28-4.88,.39-7.33,.09-1.95,.16-3.9-.86-5.7-.14-.24-.03-.62-.04-.94,.28,.04,.62-.02,.82,.12,1.54,1.07,3.08,2.14,4.55,3.28,.85,.66,1.59,1.46,2.39,2.44-.13,.34-.28,.45-.42,.55-1.31-.97-2.62-1.94-4.09-3.03-.33,4.2-.7,8.18-.9,12.17-.05,.94,.39,1.97,.84,2.84,.72,1.4,.75,1.51-.68,1.75-1.92,.31-3.85,.58-5.77,.9-4.69,.78-9.37,1.61-14.07,2.38-8.47,1.37-16.93,2.86-25.58,2.44-3.94-.2-7.57-1.19-10.38-4.13-.61-.63-1.06-1.52-1.31-2.37-.79-2.7-1.38-5.45-2.18-8.15-1.26-4.24-3.46-7.81-7.1-10.56-5.97-4.52-12.45-5.22-19.45-3.33-.6,.16-1.31,.32-1.86,.14-3.47-1.09-7.03-.75-10.54-.54-7.02,.42-13.47,3.06-19.86,5.71-2.16,.9-4.18,2.31-6.01,3.79-2.91,2.35-5.64,4.93-8.38,7.48-3.72,3.45-6.41,7.58-7.97,12.43-.13,.41-.24,.84-.44,1.22-1.89,3.56-2.64,7.45-3.35,11.37-.61,3.35-1.11,6.69-1.02,10.1,.04,1.43,.29,2.85,.44,4.28,.05,.43,.12,.86,.12,1.29,.03,2.69-1.49,3.77-4.02,2.74-.78-.32-1.44-.93-2.12-1.46-1.08-.85-2.13-1.72-3.17-2.61-6.3-5.4-13.09-4.9-19.98-1.48-3.67,1.82-7.24,3.88-10.05,7.03-3.45,3.88-5.74,8.11-5.99,13.5-.31,6.71,1.32,12.85,4.3,18.72,1.22,2.39,2.18,4.84,2.94,7.42,1.06,3.6,.15,5.08-3.52,7-1,.52-2.2,.81-3.33,.88-1.59,.09-2.4,.94-3.19,2.19-1.53,2.43-3.22,4.77-5.03,7.14-.19,0-.31-.1-.31-.1Z"/>
        <path class="cls-6" d="M357.48,79.45c-1.79,2.26-3.56,4.53-5.37,6.77-2.41,2.98-3.78,6.49-4.85,10.07-1.62,5.42-1.52,10.97-.62,16.51,.07,.42,.15,.86,.3,1.25,.2,.52,.48,1,.95,1.95,.06-.78,.13-1.09,.09-1.39-.43-3.52,.82-6.68,2.16-9.79,.39-.9,1.04-1.77,1.78-2.4,3.81-3.26,7.91-6.09,12.87-7.26,3.08-.73,6.22-1.45,9.36-1.62,6.84-.37,13.72-.72,20.55-.45,4.84,.19,9.63-.52,14.45-.14,2.73,.22,5.46,.43,8.2,.6,2.08,.13,4.17,.18,6.26,.28,1.12,.05,1.46-.5,1.56-1.56,.14-1.43-.15-2.71-.71-3.98-2.22-5.04-3.85-10.26-5.02-15.63-.71-3.24-.41-6.54,.53-9.62,.5-1.66,2.05-3.08,3.31-4.43,4.41-4.7,9.42-8.72,14.72-12.34,1.7-1.16,3.68-2.05,5.66-2.61,4.92-1.39,9.91-2.5,14.87-3.74,1.46-.37,2.93-.71,4.36-1.2,1.26-.43,1.91-1.45,2.15-2.74,.37-2.06-.12-3.98-.72-5.94-.83-2.68-1.66-5.38-2.11-8.14-.4-2.44,.79-4.66,1.95-6.74,1.06-1.88,2.42-3.51,4.09-4.97,3.7-3.25,7.7-6.08,11.86-8.69,1.87-1.17,3.86-2.15,6.64-2.15-1.84,1.11-3.26,2.1-4.79,2.86-5.03,2.51-9.2,6.22-13.53,9.67-1.81,1.44-3.56,3.22-3.84,5.82-.02,.21-.14,.41-.25,.6-1.76,3.19-1.54,6.31,.25,9.42,.57,.99,.85,2.16,1.43,3.14,.86,1.43,.72,2.78,.34,4.34-.87,3.6-2.7,5.39-6.67,5.95-6.41,.9-12.7,2.66-18.65,5.37-.91,.42-1.83,.85-2.67,1.4-4.03,2.66-8.12,5.26-11.67,8.57-3,2.8-5.36,6.03-6.1,10.21-.47,2.66-.15,5.22,.92,7.74,.19-1.73,.3-3.47,.58-5.18,.65-3.98,2.83-7.04,5.94-9.49,2.89-2.28,6.26-3.58,9.77-4.49,7.18-1.88,14.48-2.5,21.88-1.83,.65,.06,1.3,.05,2.14,.21,.19,.27,.18,.41,.18,.55-7.96-.53-15.85-.17-23.59,1.89-3.28,.87-6.43,2.06-9.21,4.15-3.85,2.89-6.07,6.66-6.64,11.42-.13,1.07-.29,2.14-.39,3.22-.2,2.18,0,4.32,.8,6.38,1.27,3.3,2.53,6.6,3.74,9.92,.26,.7,.94,1.48,.2,2.2-.89,.88-1.53,2.25-3.06,2.15-2.01-.12-4.07-.12-6.01-.6-5.42-1.32-10.83-1.35-16.32-.54-2.05,.3-4.15,.6-6.2-.14-.26-.1-.57-.1-.86-.12-7.13-.33-14.27-.83-21.28,1.07-.41,.11-.85,.16-1.28,.19-5.95,.33-11.22,2.41-15.93,6.02-.63,.48-1.31,.89-1.99,1.3-2.92,1.8-4.41,4.45-4.76,7.82-.35,3.4,.42,6.57,1.7,9.7,2.87,6.98,4.35,14.17,3.19,21.75-.27,1.78-.51,3.56-.99,5.47-.39,.14-.55,.14-.72,.13,.18-1.85,.37-3.71,.54-5.56,.7-7.62-.02-14.95-4.36-21.57-2.85-4.36-3.66-9.32-3.97-14.4-.33-5.47,1.14-10.53,3.26-15.5,2.41-5.66,6.09-10.45,10.06-15.02,2.95-3.39,5.59-6.96,7.7-10.92,.17-.32,.33-.64,.45-.98,.2-.57,.05-.91-.61-1.09-2.71-.74-3.12-1.46-2.36-4.1,.98-3.39,3.16-6.11,5.11-8.97,1.09-1.61,2.19-3.22,3.2-4.87,.27-.44,.26-1.06,.37-1.6-.53-.11-1.07-.32-1.6-.3-.93,.03-1.86,.2-2.96,.17-.18-.3-.18-.45-.18-.61,1.92-.23,3.83-.67,5.77-.07,1.25,.39,1.48,.65,.83,1.82-.9,1.63-1.96,3.18-3,4.73-1.56,2.33-3.23,4.58-4.7,6.97-.7,1.14-1.15,2.48-1.47,3.8-.36,1.48,.12,2.05,1.61,2.41,1.92,.47,2.08,.79,1.1,2.65-2.2,4.15-4.75,8.05-8.23,11.5-.12,.12-.16,.16-.27,.3-.19,.5-.26,.85-.45,1.25-1.47,.54-1.58,.82-.78,1.81Z"/>
        <path class="cls-6" d="M101.31,275.17c-4.22,3.97-9.07,6.59-14.99,6.74-2.01,.05-4.04-.12-6.04-.34-3.79-.43-6.84-2.33-9.1-5.31-.76-1-1.02-2.52-1.13-3.84-.17-1.93-.06-3.9,.03-5.85,.05-1.07-.33-1.85-1.21-2.35-1.12-.64-2.26-1.28-3.47-1.75-2.35-.91-4.76-1.67-7.13-2.54-4.35-1.59-7.87-4.19-9.91-8.47-1.19-2.5-2.68-4.75-4.52-6.83-2.11-2.38-4.68-3.31-7.75-2.85-10.31,1.55-19.75,5.21-28,11.72-1.3,1.03-2.61,2.06-3.98,2.98-1.81,1.21-3.12,2.75-3.92,4.94-.06-.41-.25-.85-.16-1.22,.43-1.66,1.37-3.06,2.69-4.09,2.15-1.68,4.36-3.31,6.63-4.83,2.39-1.6,4.83-3.16,7.35-4.55,2.2-1.22,4.55-2.18,6.83-3.25,.52-.24,1.11-.39,1.55-.73,7.69-5.93,16.38-9.61,25.9-11.29,3.4-.6,6.88-.76,10.33-1.02,2.47-.19,4.86,.15,7.18,1.2,1.49,.67,2.25,1.74,2.67,3.17,1.46,5.03,4.58,8.8,8.97,11.49,1.7,1.04,3.65,1.67,5.49,2.49,.19,.08,.35,.23,.93,.63-.75,0-1.12,.07-1.46-.01-3.9-.99-7.52-2.46-10.35-5.52-1.62-1.76-2.37-3.93-3.35-6.01-.37-.78-.69-1.58-1.05-2.36-1.42-3.04-3.99-4.4-7.16-4.24-5.39,.27-10.79,.69-16.07,2.01-5.73,1.42-10.92,4.12-16.19,6.64-.95,.45-1.86,.99-2.65,1.88,1.39-.25,2.77-.55,4.17-.72,3.68-.47,7.33-.71,10.81,1.05,1.14,.57,2.09,1.26,2.71,2.38,1.11,2.03,2.28,4.02,3.29,6.09,1.41,2.89,3.5,4.91,6.34,6.52,3.31,1.87,6.81,3.1,10.35,4.34,1.42,.5,2.82,1.12,4.16,1.81,1.69,.86,1.84,1.3,1.49,3.11-.51,2.65-.62,5.34,.09,7.93,.32,1.18,1.06,2.45,2,3.2,2.29,1.84,5,2.83,7.98,2.93,.72,.02,1.45,.03,2.16,.14,4.42,.68,8.44-.53,12.25-2.61,1.65-.9,3.21-1.94,5-2.9,.18,0,.25,.08,.25,.08Z"/>
        <path class="cls-6" d="M497.6,68.63c7.3,0,14.08-2.11,20.58-5.2,7.92-3.76,15.22-8.52,21.73-14.42,1.22-1.11,2.34-2.37,3.29-3.71,1.69-2.41,3.52-4.74,4.37-7.66,.45-1.55,.66-2.93-.46-4.27-.56-.67-.24-1.04,.56-1.08,2.8-.15,5.61-.31,8.41-.42,.93-.04,1.87,.07,2.81,.1,3.99,.12,7.9-.26,11.7-1.64,3.31-1.2,6.83-1.78,9.98-3.49,4.04-2.19,7.12-5.22,9.35-9.31,1.77-3.24,3.5-6.46,4.48-10.03,.75-2.72,1.25-5.48,.37-8.46-.03-.17-.05-.16-.05-.16q1.7,1.26,3.63,.64c.03,.13,.11,.34,.08,.36-1.5,.89-1.68,2.25-1.92,3.89-1.53,10.51-6.69,18.77-15.97,24.16-4.2,2.44-8.81,4.01-13.56,4.95-3.25,.64-6.59,.37-9.91,.18-2.8-.16-5.61-.18-8.54,.44,1.94,3.76-.23,6.64-1.92,9.57-3.07,5.3-7.66,9.15-12.58,12.6-6.15,4.32-12.54,8.25-19.65,10.82-4.49,1.62-9.06,2.9-13.88,2.98-.85,.01-1.71-.18-2.73-.45-.17-.25-.17-.32-.17-.39Z"/>
        <path class="cls-5" d="M241.9,215.91c-.18-1.99-.34-3.78-.5-5.58-.25-2.86,.37-5.6,1.14-8.32,.11-.39,.6-.68,.91-1.02,.27,.36,.68,.67,.79,1.07,.54,2.02,.92,4.08,1.5,6.09,1.95,6.76,5.83,12.36,10.71,17.31,1.3,1.32,2.91,2.35,4.41,3.47,.51,.38,1.01,.76,.66,1.37-.2,.33-.81,.6-1.23,.58-1-.03-2.02-.16-2.99-.41-3.65-.94-7.13-2.29-10.23-4.52-2.94-2.12-4.38-5.08-4.93-8.56-.07-.43-.15-.85-.26-1.47Zm1.19-1.84c.21,3.79,1.27,7.25,4.17,9.89,2.48,2.26,7.67,4.66,9.65,4.5-6.73-6.42-11.76-13.82-13.74-23.08-.99,2.78-.07,5.54-.08,8.68Z"/>
        <path class="cls-10" d="M426.48,125.92c-3.89,1.32-7.84,.89-11.76,.25-1.55-.26-3.07-.74-4.59-1.17-.47-.13-.95-.38-1.32-.7-.49-.41-.47-.93,.2-1.14,.54-.17,1.13-.18,1.7-.22,3.95-.29,7.9-.65,11.72-1.78,2.85-.84,5.57-1.95,7.88-3.92,1.09-.93,1.86-1.99,1.96-3.47,.03-.43,.17-.85,.25-1.27,.19-1.03,.74-1.52,1.83-1.79,4.57-1.09,8.63-3.22,12.01-6.52,.81-.79,1.39-1.82,2.12-2.69,.18-.21,.58-.35,.86-.33,.14,.01,.38,.46,.36,.69-.08,.78-.19,1.58-.42,2.33-.87,2.79-2.22,5.3-4.34,7.37-1.08,1.05-2.18,1.88-3.77,1.78-.75-.04-1.29,.17-1.21,1.07,.21,2.47-1.03,4.26-3.03,5.87-.45,0-.58-.03-.63-.2,1.34-2.16,2.67-4.16,2.34-6.73-.11-.84,.38-.93,1.03-.97,2.25-.12,4.31-.83,5.72-2.65,1.01-1.3,1.75-2.8,2.55-4.25,.2-.36,.15-.86,.23-1.35-.26,.04-.36,.02-.4,.06-3.74,3.89-8.25,6.48-13.45,7.86-.75,.2-.89,.67-.79,1.29,.26,1.61-.57,2.79-1.54,3.88-.62,.69-1.36,1.29-2.1,1.85-3.95,2.94-8.57,4.01-13.33,4.7-1.07,.15-2.14,.28-3.21,.42,4.37,1,8.71,1.66,13.13,1.07,0,.3,.01,.47,.01,.64Zm21.77-22.31c.07,0,.14,.01,.21,.02-.03-.05-.06-.09-.21-.02Z"/>
        <path class="cls-6" d="M115.11,190.95c-2.83,3.36-5.84,6.59-8.46,10.11-3.11,4.19-4.47,9.1-4.06,14.28,.22,2.83,1.2,5.62,1.99,8.38,.97,3.4,2.12,6.74,3.14,10.12,.99,3.29,.06,6.13-2.3,8.5-1.31,1.32-2.76,2.52-4.18,3.74-2.2,1.87-4.87,2.8-7.61,3.47-1.38,.33-2.84,.31-4.27,.31,1.79-.5,3.62-.88,5.34-1.55,1.73-.68,3.38-1.6,4.99-2.53,2.68-1.54,4.52-3.95,6.31-6.37,.94-1.28,.91-2.77,.45-4.33-1.4-4.7-2.69-9.42-4.03-14.14-.91-3.22-1.24-6.47-.81-9.83,.55-4.31,1.99-8.25,4.31-11.88,2.21-3.45,5.35-6.01,8.7-8.58,.35,.07,.44,.18,.48,.32Z"/>
        <path class="cls-6" d="M309.89,104.42c.78,1.23,1.48,2.46,1.23,4.02-.25,1.55-.72,2.94-2.12,3.84-1.33,.86-2.65,1.74-4,2.57-6.35,3.9-13.21,6.76-20.04,9.67-4.97,2.11-10,4.13-15.13,5.84-4.29,1.43-8.75,2.35-13.14,3.48-.69,.18-1.4,.33-2.1-.64,.81-.2,1.47-.4,2.14-.53,6.05-1.15,11.86-3.06,17.55-5.38,6.81-2.77,13.64-5.49,20.33-8.53,4.06-1.84,7.87-4.23,11.79-6.38,2.7-1.48,3.95-3.7,3.4-7.19,.04-.51,.07-.64,.09-.77Z"/>
        <path class="cls-6" d="M439.72,10.33c-4.69,3.25-9.8,5.13-15.08,6.71-5.15,1.55-9.77,4.3-14.22,7.26-1.77,1.18-2.98,2.95-3.75,4.95-1.01,2.64-.37,5.12,1.01,7.45,.71,1.2,1.58,2.3,2.46,3.55-.41,.03-.6,.09-.66,.03-2.34-2.43-4.3-5.08-4.48-8.62-.12-2.39,1.02-4.32,2.45-6.08,1.58-1.94,3.74-3.15,5.85-4.39,5.26-3.09,10.95-5.1,16.73-7,3.02-.99,5.74-2.95,8.54-4.57,.97-.56,1.58-1.43,1.16-2.74-.67-2.06,.29-3.66,1.96-4.58,2.71-1.5,5.57-2.71,8.38-4.02,.19-.09,.44-.15,.62-.1,.26,.07,.48,.26,.72,.4-.13,.22-.21,.54-.4,.64-.7,.36-1.45,.63-2.17,.98-1.94,.94-3.9,1.86-5.81,2.86-1.48,.78-2.21,2.03-1.92,3.76,.23,1.38,.03,2.6-1.4,3.51Z"/>
        <path class="cls-3" d="M152.86,87.38c.28-.06,.58-.23,.84-.17,.43,.09,.82,.31,1.23,.48-.19,.35-.29,.83-.58,1.01-1.33,.85-2.71,1.64-4.09,2.42-4.07,2.28-7.61,5.21-10.52,8.86-2.06,2.59-4.07,5.23-6.1,7.85-.72,.93-1.07,1.91-1.2,3.14-.17,1.65-.85,3.25-1.52,4.84-.87-2.47-1.76-4.82-1.18-7.51,.61-2.83,1.21-5.63,2.48-8.26,1.89-3.9,4.53-7.01,8.7-8.59,1.41-.53,2.82-1.1,4.39-1.54,.16,.21,.16,.31,.04,.5-2.2,1.24-4.32,2.33-6.34,3.58-4.94,3.07-7.64,7.49-7.85,13.36-.02,.5-.05,1.01-.04,1.51,0,.5,.07,.99,.11,1.64,4.4-9.49,10.92-16.62,20.08-21.44,.97-.28,1.69-.62,1.55-1.68Z"/>
        <path class="cls-3" d="M366.87,42.27c.2,.18,.2,.33,.2,.61-4.47,.43-8.9,.43-13.26-.96-3.33-1.07-5.57-3.31-5.47-7.51,.1-4.03,1.7-7.4,3.67-10.69,3.28-5.5,7.85-9.74,13.16-13.22,.95-.62,1.71-1.24,1.55-2.57-.06-.49,.26-1.12,.58-1.56,2.9-3.88,6.53-6.67,11.43-7.57,.91-.17,1.78-.58,2.65-.91,.84-.32,1.64-.5,2.39,.29-3.04,1.12-6.05,2.1-8.95,3.36-1.7,.74-3.31,1.78-4.78,2.91-1.33,1.03-2.27,2.45-2.11,4.28,.09,1.02-.38,1.54-1.23,2.03-3.26,1.87-6.44,3.93-8.93,6.76-3.74,4.25-6.91,8.93-8.26,14.52-1.1,4.58,.4,7.35,4.52,9.06,1.82,.76,3.92,.94,5.92,1.1,2.22,.18,4.47,.04,6.91,.06Z"/>
        <path class="cls-3" d="M358.83,76.25s.03-.03,.04-.04c.61-.16,1.32-.17,1.82-.5,4.12-2.72,8.62-4.67,13.16-6.52,4.87-1.99,9.73-4.01,14.62-5.97,3.74-1.49,6.84-4,10.06-6.29,4.11-2.92,8.07-6.06,12.06-9.14,.97-.75,1.81-1.66,2.73-2.46,.69-.6,.67-1.21,.15-2.07,0-.18,.06-.26,.06-.26,1.85,1.13,2,1.62,.49,3.01-1.96,1.81-3.97,3.57-6.09,5.18-4.41,3.36-8.77,6.83-13.42,9.82-3.18,2.04-6.8,3.44-10.3,4.96-5.82,2.52-11.7,4.9-17.54,7.37-3.36,1.42-6.24,3.57-9.07,6.05-.93-.92-.82-1.2,.78-1.89,.31-.55,.38-.9,.44-1.25Z"/>
        <path class="cls-3" d="M56.48,300.21c-.29,.12-.42,.19-.56,.23-4.21,1.25-5.24,.72-7.67-2.95-2.3-3.48-3.34-7.15-2.8-11.27,.06-.48,.21-.95,.44-1.97,.59,.98,.99,1.54,1.28,2.14,2.87,5.81,9.23,6.53,13.52,5.26,2.31-.68,4.41-1.77,6.32-3.24,.34-.26,.99-.47,1.31-.32,.74,.36,.31,1,.04,1.48-1.96,3.48-4.1,6.8-7.86,8.66-1.29,.64-2.59,1.28-4.03,1.99Zm8.82-9.1c-3.68,1.89-7.55,2.21-11.57,1.49-2.64-.47-5.01-1.33-6.56-3.71-.06-.09-.25-.09-.57-.19,.17,1.06,.28,2.05,.5,3.02,.23,1.05,.43,2.15,.87,3.11,.6,1.3,1.29,2.59,2.17,3.71,1.45,1.84,3.06,2.21,5.17,1.24,1.83-.84,3.64-1.75,5.34-2.83,2.21-1.4,4.09-3.18,5.37-5.78-.03-.12-.06-.24-.1-.35-.1,.08-.21,.16-.63,.29Z"/>
        <path class="cls-3" d="M329.81,159.75c-1.68-.41-2.41-1.1-2.4-2.25,.01-1.34,.81-2.21,2.41-2.55,1.19-.25,2.39-.5,3.6-.69,2.49-.4,4.72-1.48,6.54-3.11,1.41-1.26,2.42-2.95,3.62-4.44,1.02-1.26,1.63-1.39,2.97-.68,1.12,.6,1.34,1.12,1.15,2.47-.47,3.36-2.47,5.81-4.94,7.86-2.78,2.29-6.11,3.51-9.64,4.06-1.01,.16-2.1-.26-3.06-.53,3.62-.13,6.91-1.1,9.82-3.04,3.4-2.27,5.9-5.22,6.07-9.63,.05-.12,.03-.21,0-.29-.07,.07-.14,.13-.36,.23-1.22,1.07-2.4,2.01-3.33,3.16-1.98,2.44-4.49,3.95-7.5,4.68-1.39,.33-2.82,.47-4.21,.81-1.45,.35-2.05,1.59-1.49,2.94,.16,.38,.49,.7,.74,1.04Z"/>
        <path class="cls-3" d="M352.37,147.77c.21-.16,.38-.16,.67-.17-.22,3.8-1.36,7.34-3.47,10.53-.91,1.38-1.9,2.71-2.9,4.03-2.48,3.26-6.04,4.73-9.86,5.25-2.82,.38-5.76,.07-8.63-.16-3.07-.25-5.86-1.59-8.47-3.11-2.79-1.63-5.39-3.58-8.16-5.51,.06-.22,.2-.33,.41-.55,2.83,1.69,5.56,3.55,8.37,5.29,5.45,3.37,11.32,3.98,17.44,2.35,1.86-.5,3.73-1.12,5.44-1.99,1.16-.59,2.18-1.6,3.06-2.6,3.32-3.78,5.16-8.27,6.09-13.35Z"/>
        <path class="cls-3" d="M47.49,217.88c-.54,.67-1.01,1.42-1.66,1.97-.36,.3-1.07,.44-1.52,.31-.32-.1-.51-.75-.69-1.18-.08-.18-.04-.44,.01-.64,1.03-3.89,2.7-7.31,6.83-8.79,1.32-.47,2.67-.6,4-.02,1.35,.59,1.5,1.21,.47,2.24-.39,.4-.93,.65-1.61,.93-.21-.04-.32-.15-.24-.27,.23-.28,.42-.41,.52-.59,.24-.41,.44-.85,.65-1.27-.53-.12-1.06-.37-1.59-.34-3.6,.15-8.03,4.76-8.1,8.36,0,.13,.05,.35,.13,.38,.17,.06,.43,.11,.55,.02,.75-.54,1.47-1.12,2.21-1.53,.02,.24,.03,.34,.03,.43Z"/>
        <path class="cls-6" d="M302.46,98.37c-2.54,.05-5.09,.1-7.77,.16,1.79-2.56,4.78-3.26,7.43-4.53-.82,.88-1.64,1.75-2.67,2.86,1.1,.34,1.89,.58,2.83,1.03,.16,.3,.17,.39,.18,.49Z"/>
        <path class="cls-4" d="M480.25,57.42c2.25,.36,3.89,1.79,5.47,3.25,2.09,1.95,4.09,4,5.99,6.29-.63-.37-1.35-.64-1.88-1.12-1.92-1.73-3.8-3.51-5.64-5.32-1.09-1.07-2.22-2.04-3.81-2.71-.12-.2-.12-.39-.12-.39Z"/>
        <path class="cls-4" d="M115.25,190.9c-.18-.09-.27-.2-.49-.33,.88-.76,1.81-1.57,2.85-2.16,2.36-1.35,4.78-2.6,7.33-3.9,.26,.11,.36,.23,.56,.4-1.54,.91-3.22,1.72-4.83,2.65-1.8,1.04-3.53,2.19-5.43,3.35Z"/>
        <path class="cls-4" d="M462.2,54.26c-.18-.19-.18-.33-.17-.57,2.92,.3,5.85,.7,8.94,1.26,.17,.23,.17,.31,.17,.38-2.92-.34-5.84-.67-8.94-1.06Z"/>
        <path class="cls-1" d="M471.25,55.43c-.11-.19-.12-.26-.12-.46,3.06,.32,6.11,.77,9.01,2.33,.1,.12,.1,.31,.11,.41-2.96-.66-5.92-1.42-9-2.28Z"/>
        <path class="cls-4" d="M108.66,267.8c-1.24,2.78-3.56,4.56-5.97,6.4-.18,0-.24-.08-.24-.08,.7-.8,1.4-1.61,2.12-2.4,1.21-1.33,2.44-2.65,3.79-4.03,.12-.06,.25,.04,.31,.11Z"/>
        <path class="cls-1" d="M145.47,90.33c0-.1,0-.2,0-.46,2.35-.94,4.7-1.73,7.22-2.5,.31,1.08-.41,1.41-1.43,1.53-.61-.13-1.05-.21-1.42-.09-1.47,.47-2.91,1-4.37,1.51Z"/>
        <path class="cls-1" d="M426.65,125.92c-.17-.17-.17-.34-.02-.7,2.47-1.09,4.79-2,7.17-2.82,.11,.14,.16,.2,.21,.25-2.07,1.82-4.61,2.58-7.36,3.27Z"/>
        <path class="cls-4" d="M497.48,68.53c.12,.18,.12,.25,.12,.43-1.89,.08-3.51-.68-5.01-1.86,1.59,.44,3.18,.88,4.89,1.43Z"/>
        <path class="cls-1" d="M302.55,98.47c-.09-.2-.1-.29-.12-.52,1.15,.44,2.31,1.02,3.49,1.77,.01,.17-.02,.21-.02,.21-1.09-.45-2.18-.9-3.35-1.46Z"/>
        <path class="cls-1" d="M47.62,217.81c-.14-.03-.14-.12-.09-.49,1-1.05,1.95-1.83,2.94-2.56,.04,.05,.13,.15,.13,.15-.95,.94-1.89,1.88-2.97,2.89Z"/>
        <path class="cls-1" d="M309.88,104.28c-.02,.27-.04,.4-.11,.73-.61-.74-1.17-1.67-1.73-2.6,1.32,.03,1.51,.94,1.84,1.87Z"/>
        <path class="cls-4" d="M249.63,129.75c.7,.79,1.4,1.58,2.1,2.53,0,.15,0,.16,0,.16-1.27-.24-1.5-1.46-2.15-2.45,0-.18,.06-.24,.06-.24Z"/>
        <path class="cls-4" d="M251.72,132.43c.99-.04,1.9,.12,2.81,.97-1.25,.4-1.97-.11-2.75-.83-.07-.14-.06-.14-.06-.14Z"/>
        <path class="cls-1" d="M52.27,213.72c-.47,.39-.94,.78-1.54,1.18-.14,.01-.22-.09-.19-.25,.59-.61,1.16-1.06,1.73-1.37,0,.24,0,.34,0,.43Z"/>
        <path class="cls-1" d="M435.75,121.32c-.49,.41-.99,.82-1.61,1.28-.18-.01-.22-.07-.25-.32,.53-.56,1.04-.92,1.63-1.21,.13,.14,.18,.19,.23,.24Z"/>
        <path class="cls-1" d="M306.81,100.32c.07,.01,.16,0,.2,.04,.32,.32,.62,.66,.93,.99-.11,.06-.28,.19-.31,.16-.29-.27-.56-.56-.84-1.01,0-.16,.02-.19,.02-.19Z"/>
        <path class="cls-4" d="M329.47,73.89c-.17-.08-.19-.16-.17-.34,.17-.16,.28-.24,.43-.44,.19-.12,.31-.2,.46-.4,.24-.13,.42-.16,.74-.18-.34,.47-.82,.91-1.46,1.35Z"/>
        <path class="cls-6" d="M248.22,129.14c-.62-.08-1.24-.17-1.86-.25l-.03-.4c.52,0,1.04,0,1.72,.18,.17,.28,.16,.37,.16,.46Z"/>
        <path class="cls-4" d="M411.4,41.34c.23,.21,.45,.42,.68,.64-.35-.13-.7-.26-.99-.51,.14-.12,.23-.13,.31-.13Z"/>
        <path class="cls-4" d="M248.31,129.22c-.09-.17-.08-.27-.07-.5,.29,.04,.58,.22,.87,.54,0,.14,0,.15,0,.15-.24-.04-.47-.07-.8-.18Z"/>
        <path class="cls-4" d="M101.66,274.59c.19-.15,.37-.29,.68-.46,.12-.02,.18,.06,.22,.1-.18,.29-.4,.55-.75,.7-.14-.18-.14-.26-.15-.34Z"/>
        <path class="cls-4" d="M413.44,43.12c-.27-.17-.51-.37-.75-.58,.26,.07,.52,.15,.82,.34,.04,.12-.03,.2-.07,.23Z"/>
        <path class="cls-6" d="M411.35,41.22c-.03,.13-.12,.13-.32,.13-.26-.19-.39-.39-.52-.59,.26,.11,.53,.22,.84,.45Z"/>
        <path class="cls-1" d="M305.96,99.87c.25,.06,.49,.14,.79,.33,.06,.11,.04,.14,.02,.16-.25-.06-.49-.14-.8-.32-.07-.11-.03-.15-.02-.17Z"/>
        <path class="cls-6" d="M127.82,96.5c-.12-.04-.14-.17-.22-.51-.06-.2-.03-.33,.13-.38,.25-.04,.32-.04,.4-.04,0,0,.05,.04,.07,.06-.08,.27-.18,.52-.39,.87Z"/>
        <path class="cls-1" d="M436.22,120.23c.13,.03,.26,.05,.58,.12,0,.19-.19,.34-.57,.43-.25-.11-.3-.16-.32-.29,.1-.19,.19-.25,.32-.26Z"/>
        <path class="cls-4" d="M104.41,192.16s.06,0,.18-.13c.06-.09,.07-.06,.07-.06,0,0-.19,.1-.25,.19Z"/>
        <path class="cls-4" d="M249.54,129.83c-.14-.06-.26-.14-.4-.33-.03-.11-.02-.11-.02-.11,.14,.05,.27,.1,.46,.26,.05,.1,0,.16-.04,.19Z"/>
        <path class="cls-1" d="M436.1,120.81c.02,.21-.07,.32-.27,.46-.14,0-.19-.05-.27-.28,.06-.29,.17-.37,.3-.41,.05,.05,.11,.1,.24,.24Z"/>
        <path class="cls-3" d="M52.37,213.66c-.11-.03-.11-.13-.05-.44,.05-.21,.23-.27,.29-.2,.07,.07,.2,.22,.2,.22-.11,.12-.22,.24-.44,.42Z"/>
        <path class="cls-3" d="M53.17,212.72c.02,.2-.06,.32-.27,.46-.09,.06-.22-.09-.24-.26,.08-.29,.2-.35,.35-.37,0,0,.11,.11,.16,.16Z"/>
        <path class="cls-6" d="M101.55,274.64c.11,.03,.11,.11,.12,.31,0,.12-.17,.2-.27,.21s-.16-.06-.19-.1c.06-.15,.15-.27,.34-.43Z"/>
        <path class="cls-1" d="M128.11,95.41c-.05,.16-.13,.15-.33,.15-.08-.16-.03-.32,.11-.55,.13,.03,.16,.14,.22,.4Z"/>
        <path class="cls-2" d="M590.5,63.83c.29-.23,.59-.28,1.04-.35,1.68,1.13,3.53,1.18,5.28,1.21,2.58,.05,5.18-.11,7.75-.39,5.79-.64,11.25-2.41,16.39-5.13,1.46-.77,2.82-1.73,4.4-2.6,.17,0,.23,.05,.23,.05-1.37,3.15-3.71,5.5-6.56,7.22-3.98,2.41-8.45,3.59-13.01,4.42-2.83,.51-5.68,.92-8.52,1.39-.75,.12-1.28,.45-1.57,1.27-.89,2.53-2.69,4.47-4.71,6.08-3.89,3.08-7.82,6.15-11.98,8.84-2.88,1.86-6.12,3.22-9.31,4.54-3.39,1.4-6.9,2.48-10.37,3.69-.48,.17-.99,.35-1.26-.5,.61-.24,1.3-.18,1.84-.43,2.46-1.17,4.97-2.27,7.28-3.7,5.15-3.17,9.95-6.83,14.41-10.95,2.34-2.16,4.69-4.27,6.37-6.98,1.41-2.28,2.57-4.68,2.29-7.67Z"/>
        <path class="cls-2" d="M625.52,56.54c.05-.11,.12-.19,.2-.27,.01,.09,.02,.18-.04,.31-.08,.03-.13-.02-.16-.04Z"/>
        <path class="cls-11" d="M315.28,84.57c-.06,.04-.1-.11-.1-.11,0,0,.16,.07,.1,.11Z"/>
        <path class="cls-2" d="M367.85,213.68c2.74-1.59,5.51-2.87,7.98-4.59,8.87-6.17,16.45-13.58,21.72-23.16,.24-.44,.5-.89,.82-1.27,.72-.87,1.49-1.7,2.39-2.7,.54,2-.32,3.57-.67,5.38-1.43,3.15-2.82,6.14-4.28,9.1-2.62,5.31-7.07,8.92-11.93,11.88-7.34,4.47-15.25,7.77-23.67,9.7-.48,.11-.97,.16-1.51,.04,3.02-1.42,6.03-2.85,9.16-4.38Z"/>
        <path class="cls-2" d="M135.89,277.67c1.47-1.36,2.93-2.74,4.42-4.09,1.69-1.53,2.91-3.4,3.82-5.45,1.08-2.43,2.06-4.91,2.99-7.41,.32-.86,.37-1.82,.56-2.72,.11-.52,.26-1.04,.5-2.01,2.18,10.7-2.72,18.33-12.05,21.76-.19-.03-.25-.08-.25-.08Z"/>
        <path class="cls-2" d="M135.99,277.75c-.05,.1-.13,.18-.21,.25-.01-.09-.02-.18,.04-.3,.08-.04,.14,.02,.17,.05Z"/>
        <path class="cls-2" d="M306.26,12.03c-.69,.51-1.33,.9-2.05,1.41-1.78,1.77-3.61,3.32-5.16,5.1-2.6,2.97-2.62,6.56-2.02,10.21,.18,1.06,.46,2.1,.67,3.33-.02,.18-.02,.19-.02,.19-1.89-2.12-3.3-4.57-4.13-7.24-.72-2.35,.05-4.67,1.67-6.44,1.69-1.85,3.69-3.41,5.67-5.21,1.82-.99,3.52-1.88,5.23-2.76,.38-.19,.78-.34,1.36-.47,.2,.03,.28,.13,.28,.13-.48,.55-.97,1.09-1.5,1.76Z"/>
        <path class="cls-2" d="M297.69,32.26c.12,.12,.24,.24,.34,.37,0,.01-.12,.12-.18,.19-.05-.11-.1-.22-.16-.44,0-.11,0-.11,0-.12Z"/>
        <path class="cls-2" d="M32.61,205.62c1.7-4.67,4.8-7.71,9.35-9.3-4.33,2.88-7.9,6.38-9.66,11.49,.08-.68,.17-1.35,.3-2.18Z"/>
        <path class="cls-2" d="M308.96,9.71c-.31,.17-.62,.34-1.06,.54-.13,.02-.21-.08-.26-.13,.31-.19,.67-.32,1.17-.44,.15,.02,.15,.02,.15,.02Z"/>
        <path class="cls-2" d="M308.96,9.71c.05-.02,.1-.04,.08-.03-.08,.03-.08,.03-.08,.03Z"/>
        <path class="cls-2" d="M3.66,236.92c1.02-.46,2.06-.91,3.28-1.33,.19,.02,.25,.08,.25,.08-1.3,1.65-2.6,3.29-4,5.07q-.34-1.49,.47-3.67c-.01-.16,.01-.14,0-.15Z"/>
        <path class="cls-2" d="M7.1,235.59c.06-.02,.14,0,.16,.05-.07,.04-.13-.02-.16-.05Z"/>
        <path class="cls-2" d="M400.81,172.32c-.22,.45-.45,.76-.67,1.06-.17-.28-.46-.54-.5-.84-.06-.51,.04-1.05,.43-1.68,.25,.44,.49,.88,.74,1.47Z"/>
        <path class="cls-2" d="M539.62,97.33c-.19,.41-.38,.71-.64,.91-.08,.06-.55-.19-.54-.24,.13-.6,.17-1.41,1.17-.68Z"/>
        <path class="cls-2" d="M231.63,90.63c.4-.01,.71,.07,1.02,.15-.08,.14-.21,.4-.22,.39-.3-.13-.59-.29-.8-.55Z"/>
        <path class="cls-11" d="M172.05,165.91c-.09,.21-.25,.38-.4,.54,0-.18,.02-.36,.13-.61,.1-.07,.22,.03,.28,.07Z"/>
        <path class="cls-11" d="M358.72,76.4c.05,.21-.01,.56-.2,1.06-.06-.21,.02-.56,.2-1.06Z"/>
      </g>
    </g>
  </g>
</svg>