<?xml version="1.0" encoding="UTF-8"?>
<svg id="Layer_2" data-name="Layer 2" xmlns="http://www.w3.org/2000/svg" viewBox="0 0 468.52 253.18">
  <defs>
    <style>
      .cls-1 {
        fill: #85608c;
      }

      .cls-2 {
        fill: #a29adc;
      }

      .cls-3 {
        fill: #734577;
      }

      .cls-4 {
        fill: #774b7d;
      }

      .cls-5 {
        fill: #703f74;
      }

      .cls-6 {
        fill: #6d3a79;
      }

      .cls-7 {
        fill: #d9d3d9;
      }

      .cls-8 {
        fill: #724276;
      }

      .cls-9 {
        fill: #a49ee0;
      }
    </style>
  </defs>
  <g id="Layer_6" data-name="Layer 6">
    <g>
      <path class="cls-9" d="M311.99,2.39c1.32-.03,2.63-.06,4.2-.09,.58-.08,.91-.15,1.25-.23,1.09-.02,2.19-.05,3.51-.08,.37-.09,.51-.16,.66-.24,1.85-.14,3.7-.28,5.78-.42,.47-.08,.7-.15,.93-.23,.78-.02,1.56-.04,2.59-.06,.69-.09,1.13-.17,1.57-.26,.67-.02,1.35-.05,2.24-.08,.36-.08,.5-.16,.65-.23,1.21-.03,2.42-.06,3.9-.09,1.01-.08,1.75-.15,2.49-.23,2.17-.03,4.33-.05,6.79-.07,1.75-.02,3.22-.05,4.68-.07,3.44,.06,6.88,.12,10.57,.26,.75,.04,1.44,.07,2.11,.09,1.73,.05,3.45,.19,5.16,.44s3.42,.5,5.13,.78c2.92,.47,5.83,.98,8.74,1.47,2.91,.5,5.83,1,8.74,1.49,2.81,.47,5.63,.93,8.45,1.4,2.76,.46,5.52,.92,8.28,1.39,2.91,.49,5.83,.99,8.74,1.49,3.54,.6,7.08,1.2,10.62,1.79,1.62,.27,3.24,.52,5.02,.81,.16,.04,.25,.09,.25,.09l.1-.04c.77,.18,1.2,.46,.88,1.43-.91,2.78-1.95,5.49-3.46,8.01-.78,1.32-1.43,2.71-2.29,4.2-.27,.42-.38,.71-.5,1,0,0,0-.02-.11-.02-.24,.15-.43,.28-.52,.46-1.46,2.85-3.55,5.15-6.05,7.14-4.04,3.22-8.36,5.87-13.5,6.94-.17,.04-.32,.21-.79,.54,.77,.12,1.22,.31,1.64,.24,3.21-.47,6.47-.8,9.46-2.15,2.72-1.22,5.43-2.48,8.06-3.88,3.35-1.78,5.98-4.42,8.2-7.47,.54-.74,1.23-1.53,.66-2.59,.15-.45,.24-.92,.46-1.33,1.76-3.26,3.55-6.51,5.31-9.77,.72-1.34,.75-1.34,2.21-1.08,2.86,.51,5.73,.96,8.6,1.44,4.01,.67,8.03,1.34,12.04,2.02,.78,.13,1.54,.35,2.32,.47,.61,.09,.84,.44,.75,.99-.18,1.14-.34,2.3-.64,3.42-.39,1.48-.89,2.94-1.48,4.57-.21,.22-.34,.28-.36,.36-.68,2.68-2.17,4.68-4.76,5.79-.37,.16-.68,.46-1.18,.81,.51,.19,.84,.31,1.17,.43,.44,.16,.91,.26,1.31,.5,1.87,1.14,2.43,2.85,2.06,4.93-.26,1.46-.69,2.92-.78,4.39-.21,3.29-1.46,6.09-3.68,8.45-1.3,1.39-2.69,2.67-3.94,4.12-1.23,1.43-2.79,2.61-4.32,3.76-1.22,.92-2.54,1.8-3.95,2.36-2.81,1.11-5.66,2.2-8.72,2.45-2.84,.23-5.63,.16-8.26-1.17-.94-.48-1.26-.4-1.84,.51-.98,1.52-1.91,3.07-2.83,4.62-1.65,2.8-3.19,5.69-5.44,8.05-3.08,3.25-6.41,6.24-10.21,8.64-2.56,1.62-5.17,3.21-8.38,3.18-.35,0-.71,.22-1.05,.35-4.64,1.84-9.48,2.9-14.44,3.04-2.69,.08-5.25,.67-8.01,1.06-2.33,.06-4.49-.07-6.73-.65-2.87-.75-5.33-2.14-7.88-3.33-3.14-1.47-5.48-3.59-6.53-7-.21-.68-.75-1.26-1.16-1.87-.06-.09-.3-.14-.41-.1-.1,.04-.18,.24-.19,.37-.02,1.01,.05,2.03-.04,3.03-.24,2.51-1.4,4.4-3.8,5.45-2.05,.89-4.17,.72-6.27,.45-1.79-.24-3.38-.91-4.24-2.71-.19-.41-.62-.74-1-1.01-.18-.12-.68-.1-.78,.04-1.31,1.87-3.14,3.14-4.96,4.44-.8,.58-1.03,2.25-.34,3,1.19,1.28,2.34,2.64,4.12,3.31,.24,.19,.46,.29,.67,.38,0,0-.02,0-.03,.11,.22,.35,.44,.61,.67,.86,0,0-.02,0-.03,.11,.22,1.11,.45,2.11,.67,3.24-.13,.91-.22,1.7-.37,2.47-.1,.52-.19,1.09-.47,1.5-.79,1.13-1.58,2.29-2.55,3.25-1.23,1.23-2.29,2.65-3.79,3.6-.38,.24-.62,.71-.93,1.07-.73,.84-1.4,1.75-2.21,2.51-1.13,1.05-2.34,2.02-3.57,2.94-2.31,1.75-4.85,3.17-7.64,3.86-3.36,.83-6.83,.95-10.27,.24-4.66-.96-8.73-3.03-11.96-6.58-.86-.94-1.65-1.95-2.43-2.96-.42-.54-.89-.96-1.6-.86-1.73,.23-3.5,.36-5.18,.82-.97,.26-1.93,.94-2.65,1.68-1.9,1.96-3.01,4.35-3.36,7.2-.04,1.8-.07,3.5,.04,5.18,.2,2.81,1.4,5.26,3.23,7.31,3.38,3.78,6.19,7.84,7.5,12.83,.96,3.65,1.39,7.3,.81,11.15-.97,3.17-2.64,5.75-4.92,7.99-.72,.71-1.61,1.36-1.8,2.49,0,0,0-.02-.11-.04-1.45,.99-2.79,2-4.24,3.06-2.49,1.44-4.83,2.94-7.27,4.22-4.2,2.2-8.42,4.35-12.71,6.36-4.38,2.06-8.95,3.38-13.88,3.03-1.83-.13-3.61-.31-5.03-1.65-.21-.2-.51-.33-.79-.44-.57-.22-1.2,.06-1.42,.63-.51,1.29-.93,2.67-1.68,3.81-1.35,2.03-2.89,3.94-4.41,5.87-1.41,1.79-2.55,3.65-2.46,6.05,.04,1.16-.17,1.35-1.39,1.44-1.64,.12-3.29,.32-4.93,.28-8.14-.17-16.29,.35-24.44-.5-3.41-.35-6.76-.78-10.04-1.73-1.62-.47-3.2-1.15-4.73-1.87-1.34-.64-2.57-1.51-3.88-2.22-2.97-1.59-5.06-3.89-5.73-7.25-.27-1.34-.37-2.74-.36-4.12,.02-2.18,.14-4.36,.32-6.53,.14-1.75,.48-3.47,.63-5.22,.19-2.2,1.01-4.4-.45-6.62-.47-.71-.7-1.53-.82-2.37-.17-1.14-.81-1.66-1.65-2.12-1.33-.73-2.73-.84-4.18-.75-1.14,.07-2.15-.13-3.16-.78-2.38-1.52-5-2.34-7.89-2-2.18,.25-4.38,.49-6.25,1.71-2.81,1.84-4.93,4.38-6.79,7.13-.5,.74-.54,1.56-.07,2.42,.98,1.79,1.44,3.73,1.47,5.79,.05,3.5,.34,6.97-.47,10.46-.55,2.39-.88,4.81-2.24,6.92-.66,1.03-1.26,2.1-1.94,3.11-1.52,2.25-3.56,3.8-6.25,4.38-.98,.21-2,.24-3,.38-3.42,.49-6.85,.25-10.13-.66-4.56-1.25-8.82-3.19-11.77-7.19-.19-.25-.59-.42-.9-.33-2.94,.81-5.04,2.68-6.41,5.36-.21,.41-.18,1.04-.05,1.51,.78,2.98,1.69,5.94,2.43,8.93,.43,1.75,.78,3.54,.91,5.34,.19,2.77-.63,5.31-1.88,7.81-1.76,3.53-4.13,6.43-7.53,8.46-.27,.16-.58,.32-.77,.56-1.71,2.2-4.19,3.33-6.5,4.68-.54,.32-1.48,.73-2.08,.89-2.78,.74-5.57,1.46-8.38,2.09-1.38,.31-2.77,.8-4.24,.39-.23-.06-.63,.12-.82,.31-.87,.94-1.68,1.92-2.62,2.93-2.26,1.42-4.65,1.82-7.28,1.64-1.86-.48-3.7-.68-5.11-1.99-.34-.32-.68-.22-.94,.16-.15,.22-.29,.45-.44,.67-2.14,3.15-4.64,5.89-7.84,8.08-3.37,2.3-6.99,3.27-10.98,3.11-2.01-.08-3.65-1-4.96-2.54-1.98-2.34-2.98-5.16-3.85-8-1.21-3.93-.04-7.64,1.71-11.09,1.38-2.73,2.59-5.49,3.36-8.44,.12-.44,.14-1.18,.07-1.63-.43-2.69-2.22-4.22-4.63-5.11-3.35-1.23-6.71-.95-9.99,.26-1.39,.51-2.72,1.23-4.06,1.86-4.53,2.14-8.63,4.86-11.73,8.88-.9,1.16-2.04,2.21-2.23,3.93,.1,.92-.33,1.39-.98,1.72-.34,0-.68-.02-1.26-.03-.91,.3-1.58,.6-2.26,.9,0-7.9,0-15.8,.09-23.87,.19-.25,.28-.32,.38-.4,1.08-.08,2.16-.15,3.44-.33,.38-.26,.56-.37,.68-.55,1.02-1.52,2.07-3.02,3.45-4.22,4.29-3.75,8.68-7.4,14.22-8.82,1.98-.51,3.98-.83,6.01-.2,.45,.14,.92,.21,1.39,.13,1.4-.24,2.79-.54,4.17-.86,.34-.08,.82-.23,.92-.48,.41-.98,.75-1.96,.16-3.06-.54-1.02-.88-2.16-1.32-3.24-.44-1.05-.31-2.09,.08-3.11,.47-1.22,1.28-2.18,2.26-3.04,2.13-1.87,4.77-2.76,7.31-3.83,.36-.15,1.01-.24,1.22-.04,.88,.86,1.63,.34,2.47,0,.64-.25,1.33-.35,2-.52,1.39-.35,2.7-.32,4.02,.41,1.15,.63,1.85,1.5,1.88,2.9,.34-.17,.5-.22,.61-.31,6.06-4.7,12.85-7.89,20.18-10.03,1.54-.45,2.94-1.41,4.4-2.15,0-.02,.04,0,.08-.08,.04-.07,.19-.14,.28-.06,.75,.17,1.22-.03,.58-.64-1.11-1.06-2.31-2.05-3.53-2.98-2.04-1.55-2.73-2.64-1.85-5,.11-.3,.15-.62,.26-.92,.58-1.6,1.47-2.94,3.04-3.73,.41-.21,.82-.44,1.38-.73-1.45-.68-1.58-1.84-1.56-3.1,.02-2.12,1.1-3.76,2.48-5.18,2.67-2.76,5.99-4.55,9.53-5.97,.72-.29,1.57-.64,1.99-1.23,1.01-1.42,1.94-2.93,2.64-4.52,.67-1.53-.2-3.11-1.82-3.61-1.01-.31-2.06-.55-3.1-.67-2.06-.22-4.13-.33-6.3-.53-1.4-.24-1.92-.68-2.17-1.84-.25-1.16-.03-2.29,.7-3.17,1.55-1.87,3.05-3.82,5.27-5.02,2.21-1.19,4.49-2.13,6.96-2.63,.36-.07,.72-.21,1.04-.38,.39-.2,.55-.51,.18-.89-1.39-1.44-1.7-3.24-1.67-5.14,.02-1.54,.06-3.08,.16-4.72,.63-1.91,1.16-3.74,1.76-5.54,.26-.8,.65-1.55,1.05-2.39,.15-.26,.23-.44,.39-.69,2.42-3.58,5.71-5.94,9.48-7.69,1.87-.87,3.91-1.37,5.62-2.62,.45-.33,1.08-.42,1.64-.57,2.4-.64,4.76-.29,7.09,.35,.68,.19,1.15,.16,1.72-.33,2.15-1.83,6.28-3.81,8.99-4.59,3.49-1,7.05-1.7,10.67-2.1,.53-.06,1.06-.06,1.6-.07,.46,0,.92,.04,1.38,.06-4,1.13-7.95,2.04-11.57,4.11-3.16,1.82-6.08,3.9-8.67,6.45-2.46,2.42-4.22,5.34-5.68,8.43-1.1,2.34-1.04,4.73,.26,7.04,.97,1.73,2.51,2.84,3.99,4.06,1.97,1.61,1.91,1.29,0,2.83-2.73,2.2-5.6,4.27-8.08,6.73-3.58,3.55-6.2,7.82-8.15,12.49-1.06,2.54-1.64,5.2-1.67,7.92-.02,2.17,.3,4.35,.54,6.51,.49,4.41,2.26,8.17,5.74,11.04,.25,.21,.36,.59,.53,.89-.28,.13-.55,.28-.84,.38-.32,.11-.69,.08-1,.17-1.13,.34-2.29,.57-3.48,.53-4.65-.16-8.57,1.67-12.64,3.6-1.88,.96-3.67,1.88-5.41,2.88-.77,.44-1.45,1.04-2.27,1.61-2.4,1.93-4.72,3.82-6.35,6.37-1.72,2.68-2.78,5.59-3.18,8.77-.31,2.49-.07,4.88,.6,7.26,.98,3.48,1.94,6.97,2.97,10.43,.34,1.15,.37,2.26-.33,3.2-1.32,1.78-2.68,3.57-4.65,4.7-1.19,.69-2.41,1.37-3.69,1.87-1.27,.5-2.62,.77-3.94,1.15,1.06,0,2.14,.02,3.15-.23,2.02-.49,3.99-1.17,5.62-2.56,1.05-.89,2.11-1.78,3.09-2.76,1.74-1.75,2.43-3.85,1.69-6.27-.75-2.5-1.6-4.96-2.32-7.47-.58-2.04-1.3-4.1-1.47-6.19-.3-3.82,.7-7.45,3-10.54,1.93-2.6,4.15-4.98,6.34-7.5,1.4-.85,2.68-1.7,4.01-2.47,1.19-.69,2.43-1.28,3.77-1.92,.48-.11,.85-.19,1.2-.3,2.08-.67,4.11-1.54,6.23-1.98,3.32-.68,6.71-1.06,10.06-1.61,.59-.1,1.5-.23,1.66-.61,.31-.73-.57-1.13-1.04-1.59-.8-.77-1.83-1.37-2.43-2.26-1.98-2.93-3.44-6.1-4.14-9.6-.4-2.03-.02-4.03,.09-6.04,.17-3.17,.92-6.19,2.23-9.09,2.45-5.43,6.61-9.49,10.92-13.39,1.85-1.68,3.88-3.15,5.8-4.75,.89-.75,.88-.82,.02-1.57-1.24-1.09-2.55-2.09-3.76-3.21-2.7-2.52-3-5.14-1.84-7.79,.95-2.18,2.12-4.34,3.6-6.19,4.2-5.21,9.63-8.79,15.89-11.13,2.73-1.02,5.58-1.33,8.41-1.79,4.48-.73,8.96-1.23,13.56-.32,2.32,.8,4.33,1.98,6.24,3.3,1.33,.92,1.9,2.62,1.4,4.16-.57,1.77-1.18,3.53-1.74,5.31-.58,1.85,.1,3.82,1.8,4.45,1.93,.72,3.97,1.13,6.06,1.75,.91,.28,1.73,.48,2.56,.67,4.05,.9,8.11,1.1,12.18,.15,.6-.14,1.38-.29,1.69-.71,.35-.49,.7-.52,1.17-.6,4.29-.74,8.59-1.45,12.87-2.25,2.92-.54,5.85-1.09,8.73-1.83,6.29-1.6,12.54-3.32,18.81-4.98,.31-.08,.65-.07,1.25-.13-2.37,2.38-5.17,3.67-7.47,5.65,1-.35,1.92-.85,2.82-1.36,2.61-1.49,5.03-3.25,7.01-5.49,.98-1.11,2.14-1.83,3.31-2.64,1.74-1.21,3.36-2.6,5.02-3.92,.06-.05,.04-.2,.05-.29,0,0-.02,0,.1,.02,.47-.32,.82-.65,1.18-.97,0,0-.01,0,.1,.02,1.07-.64,2.1-1.22,2.95-1.99,.87-.78,.84-1.68,0-2.47-.73-.69-1.49-1.39-2.36-1.87-2.37-1.31-4.82-2.49-6.9-4.27-3.15-2.7-3.45-4.72-1.82-7.64,.38-.68,1.04-1.19,1.58-1.78,.45-.49,.91-.97,1.52-1.62-.83-.22-1.38-.38-1.94-.51-2.26-.54-4.37-1.43-6.09-3.01-1.69-1.55-2.93-3.41-3.04-5.77-.22-4.89,1.5-8.98,5.04-12.4,3.22-3.11,6.89-5.54,10.93-7.37,3.18-1.44,6.5-2.6,9.75-3.89,1.15-.48,2.31-.95,3.46-1.45,.48-.21,.92-.48,1.66-.87-1.36-.74-2.49-1.48-3.72-2-1.23-.52-1.87-1.24-1.56-2.62,.05-.2,.02-.42,.09-.85,.07-.46,.07-.71,.08-.95,.07-.85,.12-1.69,.2-2.54,.11-1.21,.18-2.42,.37-3.61,.05-.35,.37-.76,.68-.95,3.08-1.87,6.4-2.97,10.02-3.22,2-.14,3.99-.47,5.99-.68,1.37-.15,2.75-.24,4.34-.37,.36-.08,.5-.15,.65-.22,.88-.03,1.77-.05,2.87-.09,.36-.08,.5-.16,.65-.23,.9-.03,1.79-.07,2.94-.1,.68-.07,1.11-.15,1.54-.22,1.42-.03,2.84-.05,4.51-.08,.58-.08,.92-.16,1.25-.24,2.38-.03,4.76-.06,7.42-.08,1.88-.08,3.46-.16,5.05-.24,1.42-.02,2.83-.04,4.52-.07,.81-.09,1.35-.17,1.89-.25ZM42.16,182.58c.09-.07,.15-.15,.4-.28,.35-.24,.74-.42,1.03-.72,.76-.76,.65-1.22-.35-1.65-.98-.43-1.98-.34-2.95,.01-3.04,1.09-4.28,3.61-5.04,6.49-.04,.15-.07,.34,0,.47,.14,.32,.27,.8,.51,.87,.33,.1,.85,0,1.12-.23,.48-.4,.82-.96,1.41-1.55,.7-.69,1.4-1.39,2.3-2.11,.35-.29,.69-.57,1.19-.96,.08-.09,.16-.17,.38-.35ZM441.56,24.11l-.06-.02s.11,.06,.18,.2c.06,.09,.15,.15,.29,.44,.63,2.07,.25,4.11-.3,6.12-.72,2.63-2,5.01-3.3,7.4-1.64,3.02-3.92,5.25-6.9,6.87-2.32,1.26-4.92,1.69-7.37,2.57-2.81,1.02-5.69,1.3-8.64,1.21-.69-.02-1.39-.1-2.08-.07-2.07,.08-4.14,.2-6.21,.31-.59,.03-.82,.3-.41,.8,.83,.99,.67,2.01,.34,3.15-.62,2.16-1.98,3.88-3.22,5.65-.7,.99-1.53,1.92-2.43,2.74-4.8,4.36-10.19,7.86-16.04,10.64-4.8,2.28-9.8,3.84-15.36,3.68-1.17-.33-2.35-.65-3.52-.98,1.1,.87,2.3,1.43,3.94,1.55,.63,.07,1.26,.21,1.89,.21,3.56-.05,6.93-1,10.25-2.2,5.25-1.9,9.96-4.8,14.5-7.99,3.63-2.55,7.02-5.39,9.29-9.3,1.25-2.16,2.85-4.28,1.42-7.06,2.16-.46,4.24-.44,6.3-.32,2.44,.14,4.91,.34,7.31-.14,3.51-.69,6.91-1.85,10-3.65,6.85-3.97,10.65-10.07,11.78-17.83,.18-1.21,.31-2.22,1.42-2.87,.02-.01-.04-.18-.06-.27q-1.43,.46-2.74-.62c-.06-.09-.15-.15-.3-.23Zm-116.46,90.37c.14-.11,.28-.22,.61-.42,1.24-1.18,2.15-2.5,2-4.32-.06-.67,.35-.82,.9-.79,1.17,.07,1.98-.54,2.78-1.32,1.57-1.53,2.56-3.38,3.2-5.44,.17-.55,.25-1.14,.31-1.72,.02-.17-.16-.5-.27-.51-.21-.02-.5,.08-.63,.24-.54,.64-.97,1.4-1.57,1.98-2.49,2.44-5.49,4.01-8.87,4.81-.81,.19-1.21,.56-1.35,1.32-.06,.31-.17,.62-.19,.94-.07,1.09-.64,1.87-1.45,2.56-1.7,1.46-3.71,2.27-5.81,2.89-2.82,.84-5.73,1.1-8.65,1.32-.42,.03-.86,.04-1.26,.16-.49,.15-.51,.54-.15,.84,.28,.23,.63,.41,.98,.51,1.12,.32,2.24,.68,3.39,.87,2.9,.48,5.81,.79,8.93-.18,1.9-.51,3.78-1.07,5.5-2.48,.36-.3,.73-.61,1.22-.99,.08-.06,.15-.15,.37-.28ZM77.91,228.01c-.07,.09-.13,.17-.42,.3-1.18,.72-2.34,1.49-3.55,2.15-2.82,1.53-5.78,2.43-9.04,1.93-.52-.08-1.06-.09-1.59-.1-2.2-.07-4.2-.81-5.89-2.16-.69-.55-1.24-1.5-1.48-2.36-.53-1.92-.44-3.9-.07-5.85,.26-1.34,.14-1.66-1.1-2.29-.99-.51-2.02-.97-3.07-1.34-2.61-.92-5.19-1.83-7.63-3.2-2.1-1.18-3.64-2.68-4.68-4.81-.75-1.53-1.61-3-2.43-4.5-.45-.83-1.16-1.33-2-1.76-2.57-1.3-5.27-1.12-7.98-.77-1.03,.13-2.05,.35-3.07,.53,.58-.66,1.26-1.05,1.96-1.39,3.89-1.86,7.72-3.85,11.95-4.9,3.9-.97,7.88-1.28,11.86-1.48,2.34-.12,4.24,.88,5.29,3.13,.27,.58,.51,1.17,.78,1.74,.72,1.54,1.27,3.14,2.47,4.44,2.09,2.26,4.76,3.34,7.64,4.07,.25,.06,.52,0,1.07,0-.43-.3-.55-.41-.69-.47-1.35-.61-2.79-1.07-4.05-1.84-3.24-1.98-5.54-4.77-6.62-8.48-.31-1.06-.87-1.85-1.97-2.34-1.71-.77-3.47-1.02-5.3-.88-2.55,.19-5.12,.31-7.62,.75-7.02,1.24-13.43,3.96-19.11,8.33-.33,.25-.76,.36-1.14,.54-1.68,.79-3.41,1.5-5.04,2.4-1.86,1.03-3.66,2.17-5.42,3.36-1.67,1.12-3.3,2.32-4.89,3.56-.98,.77-1.67,1.8-1.99,3.02-.07,.27,.07,.6,.12,.9,.59-1.61,1.55-2.75,2.89-3.65,1.02-.68,1.98-1.44,2.94-2.2,6.09-4.8,13.05-7.5,20.66-8.65,2.27-.34,4.17,.35,5.72,2.1,1.36,1.53,2.46,3.2,3.33,5.04,1.5,3.16,4.11,5.08,7.31,6.25,1.75,.64,3.53,1.2,5.26,1.88,.89,.34,1.73,.82,2.56,1.29,.65,.37,.93,.94,.89,1.73-.07,1.44-.15,2.89-.02,4.31,.09,.97,.27,2.1,.84,2.83,1.67,2.19,3.92,3.6,6.71,3.92,1.48,.17,2.97,.29,4.46,.25,4.37-.11,7.95-2.04,11.2-4.99,0,0,.13-.06,.33-.08,.16-.19,.32-.38,.69-.62,1.65-1.37,3.36-2.68,4.51-4.77,1.2-1.75,2.45-3.47,3.58-5.27,.58-.92,1.18-1.55,2.35-1.62,.83-.05,1.72-.26,2.46-.65,2.71-1.42,3.38-2.51,2.6-5.17-.56-1.9-1.27-3.71-2.17-5.47-2.2-4.33-3.4-8.87-3.18-13.82,.18-3.98,1.87-7.1,4.42-9.96,2.07-2.32,4.7-3.84,7.41-5.19,5.08-2.52,10.1-2.89,14.75,1.09,.77,.66,1.55,1.3,2.34,1.92,.5,.39,.99,.85,1.56,1.08,1.86,.76,2.99-.03,2.96-2.02,0-.32-.06-.63-.09-.95-.11-1.05-.3-2.1-.33-3.16-.07-2.51,.3-4.98,.75-7.45,.52-2.89,1.08-5.76,2.47-8.39,.15-.28,.22-.6,.32-.9,1.15-3.58,3.13-6.63,5.88-9.17,2.03-1.88,4.04-3.78,6.19-5.52,1.35-1.09,2.84-2.14,4.43-2.8,4.72-1.96,9.48-3.9,14.66-4.21,2.59-.16,5.21-.4,7.78,.4,.41,.13,.93,.01,1.37-.11,5.17-1.4,9.95-.87,14.35,2.46,2.69,2.03,4.31,4.66,5.24,7.79,.59,1.99,1.03,4.02,1.61,6.01,.18,.63,.52,1.28,.96,1.75,2.07,2.17,4.75,2.91,7.66,3.05,6.38,.32,12.63-.78,18.88-1.8,3.46-.56,6.92-1.18,10.38-1.75,1.42-.24,2.84-.43,4.26-.66,1.06-.17,1.04-.26,.5-1.29-.33-.64-.65-1.4-.62-2.09,.14-2.94,.42-5.88,.66-8.98,1.08,.8,2.05,1.52,3.14,2.41,1.98,1.33,3.9,2.77,5.96,3.97,1.93,1.12,3.98,2.11,6.25,2.3,2.12,.17,4.29,.4,6.37,.12,2.82-.38,5.45-1.47,7.28-3.87,.74-.97,1.47-1.95,2.14-2.97,1.56-2.35,2.4-4.96,2.79-7.97,.19-1.31,.36-2.63,.56-3.94,.86-5.59-.23-10.9-2.35-16.05-.95-2.3-1.52-4.65-1.26-7.15,.26-2.49,1.36-4.44,3.51-5.77,.5-.31,1-.61,1.46-.96,3.47-2.66,7.37-4.2,11.76-4.45,.32-.02,.64-.06,.94-.14,5.18-1.4,10.45-1.03,15.71-.79,.21,0,.44,.01,.63,.09,1.52,.55,3.07,.33,4.58,.1,4.05-.6,8.04-.58,12.04,.39,1.43,.35,2.95,.35,4.44,.44,1.13,.07,1.6-.94,2.26-1.59,.54-.54,.04-1.11-.15-1.63-.9-2.45-1.83-4.88-2.76-7.32-.59-1.53-.73-3.1-.59-4.71,.07-.79,.19-1.58,.29-2.38,.42-3.51,2.06-6.29,4.9-8.43,2.05-1.54,4.38-2.42,6.8-3.06,5.71-1.52,11.54-1.78,17.68-1.31,2.15,.25,4.31,.5,6.63,.91,2.19,.56,4.37,1.12,6.72,1.82,1.09,.35,1.93,1.06,2.73,1.85,1.36,1.33,2.75,2.65,4.16,3.93,.39,.35,.92,.56,1.39,.83-1.4-1.69-2.87-3.2-4.42-4.64-1.16-1.08-2.37-2.13-4.18-2.57-2.07-1.06-4.32-1.39-6.83-1.77-2.16-.3-4.31-.6-6.75-.93-.48-.02-.96-.02-1.44-.06-5.46-.49-10.85-.03-16.15,1.35-2.59,.68-5.07,1.63-7.21,3.32-2.29,1.81-3.9,4.07-4.38,7-.21,1.26-.29,2.55-.43,3.82-.79-1.86-1.03-3.75-.68-5.71,.55-3.09,2.29-5.47,4.5-7.54,2.62-2.44,5.64-4.36,8.61-6.32,.62-.41,1.29-.73,1.97-1.04,4.39-1.99,9.03-3.29,13.76-3.96,2.93-.41,4.27-1.73,4.92-4.39,.28-1.15,.38-2.15-.25-3.2-.43-.72-.64-1.58-1.06-2.31-1.32-2.3-1.48-4.6-.18-6.95,.08-.14,.17-.29,.18-.44,.2-1.92,1.5-3.23,2.83-4.29,3.2-2.55,6.27-5.29,9.98-7.14,1.13-.56,2.17-1.29,3.53-2.11-2.05,0-3.52,.72-4.9,1.59-3.07,1.92-6.02,4.01-8.75,6.41-1.23,1.08-2.24,2.28-3.02,3.67-.86,1.53-1.74,3.18-1.44,4.97,.34,2.03,.95,4.03,1.56,6,.45,1.44,.81,2.86,.53,4.38-.17,.96-.65,1.71-1.58,2.02-1.05,.36-2.14,.61-3.22,.88-3.66,.92-7.34,1.74-10.97,2.76-1.46,.41-2.92,1.07-4.18,1.93-3.91,2.67-7.61,5.64-10.86,9.11-.93,1-2.07,2.04-2.45,3.27-.69,2.28-.91,4.71-.39,7.1,.86,3.96,2.07,7.82,3.71,11.54,.41,.94,.63,1.89,.52,2.94-.08,.79-.33,1.19-1.15,1.15-1.54-.08-3.08-.11-4.62-.21-2.02-.12-4.03-.28-6.05-.44-3.55-.29-7.09,.24-10.66,.1-5.04-.2-10.12,.06-15.17,.33-2.32,.13-4.63,.66-6.91,1.2-3.66,.86-6.69,2.95-9.5,5.36-.55,.47-1.03,1.11-1.31,1.77-.99,2.3-1.91,4.63-1.6,7.22,.03,.22-.03,.45-.07,1.02-.35-.7-.55-1.06-.7-1.44-.11-.29-.17-.61-.22-.93-.67-4.09-.74-8.19,.46-12.18,.79-2.65,1.8-5.24,3.58-7.43,1.34-1.65,2.64-3.33,4.16-5.08,1.99-1.79,4.11-3.38,6.6-4.42,4.31-1.82,8.65-3.57,12.94-5.44,2.58-1.12,5.25-2.15,7.6-3.66,3.44-2.21,6.65-4.77,9.91-7.25,1.56-1.19,3.05-2.49,4.49-3.82,1.11-1.02,1-1.39-.42-2.4l-.58-.16c.17,.15,.35,.3,.59,.67,.38,.5,.4,.95-.11,1.39-.68,.59-1.3,1.26-2.02,1.82-2.95,2.27-5.87,4.59-8.9,6.74-2.38,1.69-4.67,3.54-7.43,4.64-3.61,1.44-7.19,2.93-10.79,4.4-3.35,1.37-6.67,2.81-9.71,4.81-.37,.24-.89,.25-1.16,.19,2.48-2.45,4.36-5.33,5.98-8.39,.73-1.37,.6-1.61-.81-1.96-1.1-.27-1.46-.69-1.19-1.78,.24-.97,.57-1.96,1.08-2.8,1.08-1.76,2.32-3.43,3.46-5.15,.76-1.15,1.54-2.29,2.21-3.49,.48-.86,.31-1.05-.61-1.34-1.43-.44-2.84-.12-4.56,.03-1.65,0-3.31,.1-4.95-.03-1.47-.12-3.03-.26-4.37-.81-3.04-1.26-4.15-3.31-3.34-6.69,.99-4.13,3.33-7.58,6.09-10.72,1.84-2.09,4.18-3.61,6.59-4.99,.63-.36,.98-.74,.91-1.49-.12-1.35,.58-2.41,1.56-3.16,1.09-.84,2.27-1.61,3.53-2.15,2.13-.92,4.36-1.65,6.6-2.48-.55-.58-1.14-.45-1.76-.22-.64,.25-1.29,.55-1.96,.67-3.62,.66-6.29,2.72-8.44,5.58-.24,.32-.47,.78-.43,1.15,.12,.98-.44,1.44-1.14,1.89-3.92,2.57-7.29,5.7-9.71,9.76-1.45,2.43-2.64,4.92-2.71,7.89-.08,3.1,1.57,4.75,4.03,5.54,3.22,1.03,6.49,1.03,10.05,.83,.68-.08,1.37-.2,2.05-.23,.39-.01,.79,.14,1.18,.22-.09,.4-.08,.85-.28,1.18-.75,1.22-1.56,2.41-2.36,3.59-1.43,2.1-3.04,4.11-3.77,6.62-.56,1.95-.26,2.48,1.74,3.03,.49,.13,.6,.38,.45,.8-.09,.25-.21,.49-.33,.72-1.56,2.92-3.5,5.56-5.68,8.06-2.93,3.37-5.65,6.91-7.42,11.08-1.56,3.67-2.65,7.4-2.4,11.44,.23,3.75,.82,7.41,2.93,10.63,3.2,4.89,3.73,10.29,3.21,15.92-.13,1.37-.27,2.74-.47,4.35-.65,3.63-2.01,6.94-4.46,9.73-.65,.74-1.4,1.48-2.26,1.92-1.26,.64-2.64,1.1-4.02,1.47-4.52,1.21-8.85,.76-12.87-1.73-2.07-1.28-4.09-2.65-6.24-4.17-.58-.55-1.13-1.14-1.76-1.63-1.09-.85-2.23-1.63-3.36-2.42-.15-.1-.4-.06-.61-.09,0,.23-.07,.51,.03,.69,.76,1.33,.7,2.77,.64,4.21-.08,1.8-.29,3.6-.29,5.41,0,.87,.27,1.77,.54,2.62,.29,.88,.32,.93-.61,1.04-2.06,.25-4.13,.43-6.18,.75-3.78,.6-7.55,1.27-11.33,1.92-4.99,.87-10.01,1.41-15.09,1.24-1.57-.05-3.06-.29-4.53-.82-.91-.33-1.62-.87-2-1.71-.48-1.06-.88-2.16-1.2-3.28-.46-1.58-.76-3.21-1.22-4.8-.46-1.59-1.15-3.05-2.23-4.38-1.62-1.98-3.7-3.36-5.79-4.7-1.53-.98-3.26-1.72-5.1-1.7-2.28,.02-4.56,.29-6.83,.44-.47,.03-1,.2-1.41,.06-1.93-.66-3.87-.48-5.84-.31-5.84,.51-11.42,1.95-16.72,4.47-3.74,1.78-7.01,4.23-9.98,7.11-.72,.7-1.51,1.32-2.36,1.9,0,0-.09-.07-.05-.29,.45-.78,.88-1.58,1.36-2.34,2.01-3.18,4.6-5.86,7.22-8.51,5.59-5.67,12.36-9.34,19.91-11.64,5.04-1.54,10.14-2.85,15.39-3.49,2.95-.36,5.92-.63,8.87-.97,.57-.07,1.28,.33,1.69-.42-.59-.14-1.18-.28-1.76-.41-.05-.01-.11,0-.16,0-4.54,.55-9.11,.93-13.61,1.71-3.45,.6-6.82,1.65-10.21,2.57-4.13,1.12-8.01,2.81-11.74,4.93-5.47,3.11-9.85,7.41-13.83,12.18-2.65,3.18-4.47,6.85-6.17,10.59-2.71,6.01-4.63,12.23-5.3,18.81-.14,1.38-.17,2.76-.31,4.14-.11,1.01-.67,1.92-.07,3.05,.41,.79-.12,1.26-1.09,1.08-.48-.09-.96-.4-1.33-.73-1.52-1.34-3.12-2.56-4.9-3.54-3.92-2.15-7.9-1.82-11.85-.21-2.82,1.15-5.37,2.84-7.66,4.82-4.07,3.51-7.01,7.66-6.31,13.41,.29,2.42,.63,4.86,1.27,7.21,.53,1.93,1.59,3.71,2.32,5.59,.81,2.08,1.5,4.2,2.27,6.29,.34,.92-.03,1.54-.73,2.06-1.4,1.04-2.96,1.68-4.73,1.72-.53,.01-1.01-.01-1.35,.59-1.3,2.32-2.67,4.6-4.19,6.98-.9,.98-1.81,1.95-2.7,2.93-.53,.58-1.04,1.18-1.74,1.8-.14,.11-.27,.22-.56,.39Zm109.01-107.05c.08,.06,.17,.12,.29,.4,.48,.6,.65,1.5,1.69,1.88,.52,.43,1.06,.81,1.98,.51-.67-.63-1.34-.75-2.07-.94-.52-.58-1.03-1.17-1.63-1.9-.1-.04-.2-.08-.31-.32-.21-.13-.42-.26-.89-.46h-1.15l.02,.29c.46,.06,.91,.12,1.5,.3,.17,.03,.35,.05,.56,.23Zm119.44-64.95c.26,.09,.52,.19,.77,.28-.17-.16-.33-.31-.57-.65-.2-.08-.39-.16-.59-.24,.1,.14,.2,.29,.38,.61Zm-77,43.17c-.17-.06-.35-.12-.57-.39-.86-.43-1.71-.86-2.79-1.39-.58-.18-1.16-.36-1.97-.61,.76-.82,1.37-1.46,1.97-2.11-1.96,.94-4.16,1.46-5.48,3.34,1.98-.04,3.86-.08,5.86,.04,.8,.33,1.61,.67,2.51,1.16,.18,.06,.35,.11,.55,.38,.2,.21,.4,.43,.62,.63,.02,.02,.15-.08,.23-.12-.23-.24-.45-.49-.69-.73-.03-.03-.1-.02-.24-.19Zm17.04,44.02s0-.03,.14,.17c.78,.12,1.59,.43,2.33,.31,2.6-.41,5.06-1.3,7.11-2.99,1.83-1.51,3.3-3.32,3.65-5.8,.14-.99-.02-1.38-.85-1.82-.99-.53-1.44-.43-2.19,.5-.89,1.1-1.64,2.35-2.67,3.28-1.35,1.21-2.99,2.01-4.83,2.3-.89,.14-1.78,.32-2.66,.51-1.18,.25-1.77,.89-1.78,1.89,0,.85,.53,1.36,1.74,1.66ZM115.6,89.78c-1.73,.58-3.47,1.16-5.44,1.8-1.04,.41-2.07,.82-3.12,1.22-3.08,1.16-5.03,3.46-6.42,6.34-.94,1.94-1.38,4-1.83,6.09-.43,1.99,.23,3.72,.87,5.54,.49-1.18,.99-2.35,1.12-3.57,.09-.91,.35-1.63,.89-2.32,1.5-1.93,2.98-3.88,4.5-5.79,2.15-2.69,4.76-4.85,7.76-6.54,1.02-.57,2.04-1.16,3.02-1.79,.22-.14,.29-.49,.43-.75-.3-.12-.6-.29-.91-.35-.19-.04-.41,.08-.87,.11Zm116.05,13.44c.42,2.3-.5,3.93-2.49,5.02-2.89,1.59-5.7,3.35-8.7,4.71-4.94,2.24-9.98,4.25-15.01,6.29-4.19,1.71-8.49,3.12-12.95,3.97-.5,.09-.98,.24-1.58,.39,.52,.71,1.04,.6,1.55,.47,3.24-.84,6.53-1.51,9.7-2.57,3.78-1.26,7.49-2.75,11.16-4.31,5.04-2.14,10.1-4.26,14.79-7.13,1-.61,1.97-1.26,2.95-1.89,1.03-.66,1.39-1.69,1.57-2.83,.18-1.15-.34-2.06-.92-3.17-.24-.59-.38-1.26-1.35-1.28,.41,.69,.83,1.37,1.28,2.34Zm-50.07,81.56c.06,.31,.12,.63,.17,.94,.41,2.57,1.46,4.75,3.64,6.32,2.28,1.65,4.85,2.64,7.55,3.34,.71,.18,1.47,.28,2.2,.3,.31,.01,.76-.19,.91-.43,.26-.45-.11-.73-.48-1.01-1.11-.82-2.3-1.58-3.26-2.56-3.6-3.65-6.47-7.78-7.91-12.77-.43-1.48-.71-3-1.11-4.49-.08-.29-.38-.53-.58-.79-.23,.25-.59,.46-.67,.75-.57,2-1.02,4.03-.84,6.14,.11,1.32,.23,2.65,.39,4.26ZM327.63,32.86c.95-.6,1.11-1.5,.93-2.52-.21-1.28,.33-2.2,1.42-2.77,1.41-.74,2.85-1.42,4.28-2.11,.53-.25,1.08-.45,1.6-.72,.14-.07,.2-.31,.3-.47-.18-.1-.34-.24-.53-.3-.14-.04-.32,0-.46,.07-2.07,.97-4.19,1.86-6.18,2.97-1.23,.68-1.94,1.86-1.45,3.38,.31,.96-.14,1.61-.85,2.02-2.07,1.19-4.07,2.64-6.3,3.37-4.27,1.4-8.46,2.88-12.35,5.16-1.56,.92-3.15,1.81-4.32,3.24-1.06,1.3-1.9,2.72-1.81,4.49,.13,2.62,1.58,4.57,3.31,6.36,.04,.04,.18,0,.48-.02-.65-.93-1.29-1.74-1.81-2.62-1.01-1.71-1.49-3.55-.74-5.49,.56-1.47,1.46-2.78,2.76-3.65,3.29-2.19,6.7-4.22,10.5-5.36,3.9-1.17,7.66-2.56,11.22-5.03ZM44.84,246.79c.95-.47,1.91-.95,2.86-1.42,2.77-1.37,4.35-3.82,5.8-6.39,.2-.36,.52-.83-.03-1.09-.24-.11-.72,.04-.97,.23-1.41,1.08-2.96,1.88-4.67,2.39-3.17,.94-7.86,.41-9.98-3.88-.22-.44-.51-.85-.95-1.58-.17,.75-.28,1.1-.33,1.46-.4,3.04,.37,5.75,2.07,8.32,1.79,2.71,2.55,3.1,5.66,2.18,.1-.03,.2-.08,.53-.22Z"/>
      <path class="cls-3" d="M73.5,240.36c.83-.97,1.65-1.95,2.52-2.88,.18-.2,.58-.38,.82-.31,1.47,.41,2.86-.08,4.24-.39,2.9-.65,5.78-1.4,8.66-2.16,.66-.17,1.29-.51,1.88-.86,2.29-1.34,4.73-2.46,6.43-4.64,.19-.24,.49-.4,.77-.56,3.4-2.03,5.77-4.93,7.53-8.46,1.24-2.5,2.07-5.04,1.88-7.81-.12-1.79-.47-3.59-.91-5.34-.74-2.99-1.64-5.95-2.43-8.93-.12-.47-.15-1.1,.05-1.51,1.36-2.69,3.46-4.56,6.41-5.36,.26-.07,.73,.11,.9,.34,2.95,4,7.21,5.93,11.77,7.19,3.28,.9,6.71,1.14,10.13,.66,1-.14,2.02-.17,3-.38,2.68-.58,4.73-2.12,6.25-4.38,.68-1.02,1.28-2.09,1.94-3.11,1.36-2.12,1.69-4.53,2.24-6.92,.81-3.49,.52-6.96,.47-10.46-.03-2.06-.49-3.99-1.47-5.79-.47-.85-.44-1.67,.07-2.42,1.87-2.75,3.99-5.29,6.79-7.13,1.87-1.22,4.07-1.46,6.25-1.71,2.89-.33,5.51,.48,7.89,2,1.02,.65,2.02,.85,3.16,.78,1.45-.09,2.86,.02,4.18,.75,.69,.38,1.24,.79,1.51,1.55,.47,1.3,.95,2.6,1.46,3.89,.75,1.9,.12,3.79-.04,5.68-.15,1.75-.49,3.47-.63,5.22-.18,2.17-.3,4.35-.32,6.53-.01,1.37,.09,2.77,.36,4.12,.67,3.37,2.76,5.66,5.73,7.25,1.31,.7,2.54,1.58,3.88,2.22,1.53,.73,3.11,1.4,4.73,1.87,3.27,.95,6.63,1.37,10.04,1.73,8.14,.85,16.29,.33,24.44,.5,1.64,.03,3.29-.16,4.93-.28,1.23-.09,1.44-.28,1.39-1.44-.09-2.4,1.05-4.26,2.46-6.05,1.51-1.92,3.06-3.83,4.41-5.87,.75-1.13,1.16-2.5,1.67-3.78,.34-.86,.53-1,1.39-.67,.29,.11,.61,.25,.83,.46,1.42,1.35,3.2,1.52,5.03,1.65,4.93,.35,9.51-.97,13.88-3.03,4.29-2.02,8.51-4.16,12.71-6.36,2.45-1.28,4.78-2.77,7.3-4.08,.14,.18,.16,.27,.17,.36-1.46,1.44-3.1,2.64-4.87,3.66-.81,.47-1.61,.97-2.44,1.4-3.59,1.82-7.12,3.78-10.81,5.37-3.71,1.6-7.54,2.96-11.55,3.71-.52,.1-1.05,.22-1.57,.21-3.06-.08-6.13-.1-8.88-2.04-.77,2.51-2.43,4.28-3.87,6.21-1.38,1.86-2.61,3.82-3.88,5.76-.72,1.11-.55,2.36-.4,3.57,.18,1.41,.08,1.74-1.31,1.9-1.95,.24-3.92,.43-5.88,.46-5.22,.09-10.44,.17-15.66,.09-3.4-.05-6.8-.39-10.2-.58-6.07-.34-11.78-1.96-17.11-4.89-2.26-1.24-4.24-2.79-5.65-4.99-.17-.27-.39-.51-.63-.72-1.33-1.2-2-2.66-1.87-4.69-.06-.27-.06-.33-.06-.39,.14-2.44,.26-4.88,.42-7.32,.03-.5,.22-1,.34-1.49,.02-.1,.1-.2,.1-.3,.02-2.52,1.14-4.95,.63-7.52-.1-.52-.11-1.06-.12-1.59-.01-2.44-1.02-4.49-2.55-6.3-.23-.27-.7-.44-1.06-.46-1.12-.06-2.25-.13-3.35,0-1.04,.12-1.83-.37-2.64-.81-.74-.39-1.46-.86-2.1-1.4-.66-.56-1.36-.68-2.18-.65-1.54,.05-3.09,.04-4.64,.02-2.41-.03-4.4,.93-6.09,2.59-1.25,1.23-2.49,2.49-3.69,3.77-.43,.46-.84,.98-1.1,1.54-.27,.59-.33,1.13,.04,1.89,.63,1.3,1.04,2.78,1.18,4.21,.26,2.59,.33,5.21,.34,7.82,.02,4.54-1.2,8.78-3.47,12.71-.76,1.32-1.59,2.63-2.58,3.78-.77,.89-1.77,1.64-2.8,2.21-1.95,1.07-4.02,1.91-6.32,1.81-2.12-.09-4.25-.31-6.37-.34-4.16-.05-7.81-1.69-11.36-3.59-.68-.36-1.26-.93-1.83-1.45-.96-.88-1.85-1.85-2.84-2.7-.25-.22-.82-.35-1.11-.22-1.99,.9-3.55,2.28-4.37,4.36-.15,.38-.19,.83-.14,1.24,.31,2.47,1,4.85,1.89,7.17,.85,2.22,1.68,4.43,1.63,6.88-.06,2.68-.51,5.23-1.89,7.59-1.67,2.87-3.27,5.79-5.7,8.12-2.04,1.95-4.48,3.37-6.87,4.84-.4,.25-.81,.49-1.18,.77-.4,.31-.73,.74-1.16,1-1.86,1.09-3.89,1.9-5.95,2.31-1.53,.3-2.99,.87-4.53,1.02-1.58,.16-3.18,.08-4.99,.1-.34,.06-.38,.14-.35,.27-.21,.34-.42,.68-.77,1.16-.92,.66-1.7,1.19-2.5,1.6-.04-.18-.06-.26-.08-.33Z"/>
      <path class="cls-6" d="M162.25,78.48c-4.52-.82-9-.32-13.48,.41-2.84,.46-5.69,.77-8.41,1.79-6.27,2.35-11.69,5.92-15.89,11.13-1.48,1.84-2.65,4.01-3.6,6.19-1.16,2.64-.86,5.27,1.84,7.79,1.2,1.12,2.52,2.12,3.76,3.21,.86,.75,.87,.83-.02,1.57-1.92,1.6-3.95,3.07-5.8,4.75-4.31,3.91-8.47,7.96-10.92,13.39-1.3,2.89-2.06,5.92-2.23,9.09-.11,2.01-.49,4.01-.09,6.04,.7,3.5,2.16,6.67,4.14,9.6,.6,.89,1.63,1.49,2.43,2.26,.48,.46,1.36,.86,1.04,1.59-.16,.37-1.07,.51-1.66,.61-3.35,.55-6.74,.92-10.06,1.61-2.12,.44-4.16,1.31-6.23,1.98-.35,.11-.72,.2-1.28,.26-.28-.12-.35-.21-.42-.3,3.25-1.59,6.52-3.12,10.18-3.5,2.06-.22,4.12-.45,6.18-.68,.21-.02,.43-.04,.63-.11,.29-.1,.56-.25,.84-.38-.17-.3-.28-.69-.53-.89-3.48-2.87-5.25-6.63-5.74-11.04-.24-2.16-.56-4.34-.54-6.51,.03-2.72,.61-5.38,1.67-7.92,1.95-4.67,4.57-8.94,8.15-12.49,2.48-2.46,5.35-4.53,8.08-6.73,1.91-1.54,1.98-1.22,0-2.83-1.48-1.21-3.03-2.33-3.99-4.06-1.3-2.32-1.36-4.7-.26-7.04,1.46-3.09,3.22-6.01,5.68-8.43,2.59-2.55,5.51-4.63,8.67-6.45,3.62-2.08,7.57-2.98,11.57-4.11-.46-.02-.92-.06-1.38-.06-.53,0-1.07,0-1.6,.07-3.98,.44-7.88,1.24-11.7,2.4-2.93,.89-5.62,2.3-7.96,4.29-.57,.49-1.04,.52-1.72,.33-2.33-.64-4.69-.99-7.09-.35-.56,.15-1.2,.24-1.64,.57-1.71,1.25-3.74,1.75-5.62,2.62-3.78,1.75-7.06,4.11-9.5,7.68-.1,.05-.14,.02-.16-.1-.04-.2-.06-.28-.05-.46,.6-.93,1.17-1.77,1.74-2.6,.7-.64,1.4-1.28,2.24-2.05,2.28-1.85,4.76-2.93,7.24-3.99,.62-.27,1.2-.64,1.8-.96,.14-.04,.28-.07,.59-.2,2.85-1.71,5.79-2.07,8.79-1.57,1.48,.25,2.69,.23,3.81-.8,.23-.21,.53-.35,.8-.52,.05-.02,.1-.04,.31-.14,.65-.37,1.14-.66,1.63-.95,.36-.13,.72-.26,1.28-.46,.65-.27,1.12-.47,1.59-.66,.35-.1,.7-.2,1.24-.38,.52-.26,.84-.44,1.17-.62,.51-.06,1.02-.12,1.77-.23,1.64-.38,3.04-.7,4.44-1.03,0,0,.15,.01,.34-.03,.74-.1,1.29-.16,1.84-.22,1.58-.18,3.15-.43,4.74-.53,2.39-.15,4.79-.3,7.18-.27,3.34,.04,6.66,.36,10.04,1.24,.12,.1,.13,.2,.13,.2Z"/>
      <path class="cls-5" d="M378.9,92.69c2.61-.41,5.17-1.01,7.87-1.08,4.96-.14,9.8-1.2,14.44-3.04,.34-.14,.7-.36,1.05-.35,3.21,.04,5.82-1.55,8.38-3.18,3.8-2.4,7.13-5.39,10.21-8.64,2.24-2.37,3.79-5.25,5.44-8.05,.92-1.56,1.85-3.1,2.83-4.62,.59-.91,.9-.98,1.84-.51,2.62,1.33,5.42,1.4,8.26,1.17,3.06-.25,5.91-1.33,8.72-2.45,1.41-.56,2.72-1.44,3.95-2.36,1.53-1.14,3.09-2.32,4.32-3.76,1.25-1.45,2.64-2.74,3.94-4.12,2.22-2.37,3.47-5.17,3.68-8.45,.1-1.47,.52-2.93,.78-4.39,.37-2.08-.19-3.79-2.06-4.93-.39-.24-.87-.34-1.31-.5-.33-.12-.66-.24-1.17-.43,.5-.35,.81-.65,1.18-.81,2.6-1.11,4.09-3.11,4.76-5.79,.02-.08,.15-.13,.33-.23,.34,2.01-.49,3.67-1.73,5.19-.23,.29-.51,.56-.8,.78-.56,.42-.52,.79-.08,1.32,1.62,1.94,2.1,4.25,1.86,6.7-.11,1.15-.36,2.31-.71,3.41-1.2,3.68-2.61,7.27-5.34,10.16-1.05,1.11-1.95,2.4-3.12,3.37-2.41,2.01-4.83,4.07-7.49,5.71-2.02,1.24-4.39,1.87-6.77,2.39-2.19,.48-4.39,.54-6.58,.82-1.23,.15-2.43,0-3.59-.52-.51-.23-1.13-.31-1.7-.32-.29,0-.68,.25-.85,.5-2.83,4.35-5.31,8.93-8.94,12.73-1.81,1.89-3.77,3.58-5.87,5.12-2.27,1.67-4.83,2.81-7.34,4.06-2.02,1.01-4.28,1.32-6.23,2.44-1.78-.15-3.34,.8-5.03,1.11-1.96,.36-3.94,.55-5.9,.86-2,.31-4.02,.52-6.03,.72-1.64,.17-3.29,.27-5.06,.3-.14-.18-.15-.26-.14-.34Z"/>
      <path class="cls-3" d="M4.49,230.06c.19-1.59,1.34-2.63,2.24-3.79,3.11-4.01,7.2-6.74,11.73-8.88,1.35-.64,2.67-1.35,4.06-1.86,3.29-1.21,6.64-1.5,9.99-.26,2.44,.9,4.24,2.46,4.65,5.2,.07,.46,.07,.96-.05,1.4-.77,3-1.99,5.81-3.4,8.58-1.75,3.45-2.92,7.16-1.71,11.09,.88,2.84,1.88,5.66,3.85,8,1.3,1.54,2.95,2.46,4.96,2.54,3.98,.16,7.61-.81,10.98-3.11,3.2-2.18,5.7-4.93,7.84-8.08,.15-.22,.29-.45,.44-.67,.26-.38,.6-.47,.94-.16,1.41,1.31,3.25,1.51,5.04,2.08-.17,.2-.38,.27-.6,.34-.2,0-.41-.01-.83-.05-.54-.11-.86-.18-1.18-.26-.36-.12-.71-.24-1.26-.42q-1.27-.94-2.06,.03c-.39,.48-.76,.98-1.14,1.46-.06,.03-.11,.06-.29,.21-.48,.59-.85,1.07-1.22,1.54-.18,.17-.36,.34-.66,.65-2,2.07-4.04,3.79-6.3,5.24-.27,.16-.54,.32-.99,.57-.75,.37-1.33,.64-1.9,.92,0,0-.13,0-.32,.06-1.34,.29-2.49,.53-3.64,.76-.04-.12-.12-.17-.44-.19-.99-.07-1.77-.13-2.56-.18-.05-.03-.1-.05-.34-.1-1.55-.27-2.89-.56-3.89-1.63-2.48-2.65-4.25-5.7-5.15-9.24-.46-1.83-.49-3.68-.36-5.55,0,0,.06-.12,.08-.3,.37-1.34,.62-2.54,1.08-3.65,1.09-2.63,2.31-5.22,3.4-7.85,.34-.81,.42-1.72,.62-2.59,.02-.14,.04-.29,.06-.67-.07-.86-.15-1.47-.22-2.09,.01-.11,.02-.22-.06-.49-.38-.4-.64-.67-.94-.88-1.99-1.38-4.42-1.57-6.61-2.42-.04-.02-.1,.02-.16,.02-.05-.02-.1-.04-.36-.04-.87,.17-1.54,.33-2.2,.49l-.15-.05s-.15,.02-.35,.06c-.84,.33-1.74,.11-2.06,1.01,.02-.05,.04-.11-.1-.24-1.28,.35-2.4,.78-3.51,1.2-.46,.19-.93,.39-1.59,.68-1.66,1.08-3.12,2.05-4.59,3.03-.27,.2-.53,.41-.94,.73-.98,.89-1.81,1.66-2.64,2.43-.83,.78-1.65,1.57-2.6,2.52-.76,1-1.38,1.84-2.04,2.66-.1,.13-.36,.13-.55,.18Z"/>
      <path class="cls-8" d="M439.67,72.17c1.17,.04,2.35,.22,3.5,.1,3-.31,6.01-.63,8.97-1.19,3.48-.65,6.67-2.16,9.68-4,1.41-.86,2.73-1.86,4.11-2.78,.28-.19,.62-.37,.95-.41,.44-.05,.78,.21,.51,.68-1.28,2.29-2.17,4.86-4.56,6.37-.53,.33-.96,.81-1.44,1.22-2.75,2.28-6.1,3.16-9.43,4.1-1.44,.41-2.88,.83-4.34,1.19-.45,.11-.94,.1-1.41,.11-1.09,.03-1.87,.36-2.69,1.29-2.06,2.34-4.32,4.53-6.66,6.61-1.52,1.35-3.21,2.57-5,3.51-2.78,1.48-5.72,2.66-8.59,3.99-1.04,.48-2.03,1.1-3.09,1.52-1.99,.8-3.99,1.59-6.04,2.22-.88,.27-1.89,.1-2.85,.15-.48,.02-.95,.09-1.42,.1-.19,0-.38-.07-.57-.1,.11-.21,.16-.53,.32-.61,1.35-.62,2.72-1.21,4.1-1.78,.32-.13,.69-.16,1.17-.24,.13,0,.12-.02,.13,.1,.2,.63,.58,.49,.93,.37,2.56-.89,5.15-1.69,7.65-2.72,2.35-.97,4.74-1.97,6.87-3.35,3.07-1.98,5.97-4.25,8.84-6.53,1.49-1.18,2.82-2.61,3.48-4.48,.21-.6,.6-.84,1.16-.94,2.09-.34,4.2-.64,6.28-1.02,3.36-.61,6.66-1.49,9.6-3.26,2.11-1.27,3.83-3,4.9-5.35,.05-.09,.04-.16,.03-.23-.06,.06-.11,.12-.28,.19-1.15,.66-2.15,1.37-3.23,1.94-3.79,2.01-7.83,3.32-12.1,3.79-1.9,.21-3.82,.32-5.72,.29-1.29-.02-2.65-.06-3.78-.89,0,0,0,.02,0,.02Z"/>
      <path class="cls-4" d="M80.01,167.21c-1.46,.72-2.86,1.68-4.4,2.13-7.34,2.14-14.13,5.33-20.18,10.03-.12,.09-.27,.14-.61,.31-.02-1.41-.73-2.27-1.88-2.9-1.31-.73-2.63-.76-4.02-.41-.67,.17-1.37,.27-2,.52-.84,.34-1.59,.85-2.47,0-.2-.2-.85-.11-1.22,.04-2.54,1.07-5.17,1.96-7.31,3.83-.98,.86-1.8,1.81-2.26,3.04-.39,1.03-.52,2.06-.08,3.11,.45,1.08,.78,2.21,1.32,3.24,.59,1.1,.24,2.08-.16,3.06-.1,.25-.59,.4-.92,.48-1.34,.31-2.7,.6-4.05,.84-.45,.08-.96,.07-1.38-.07-2.07-.68-4.11-.36-6.13,.16-3.74,.96-6.95,2.93-9.96,5.26-2.92,2.26-5.5,4.87-7.73,7.82-.12,.16-.3,.27-.55,.42,0-.32,.1-.65,.31-1.14,.46-.67,.81-1.18,1.15-1.69,.05-.03,.1-.05,.26-.2,1.46-1.53,2.79-2.94,4.15-4.33,.66-.68,1.37-1.3,2.05-1.95,.37-.29,.74-.58,1.28-1,3.35-2.37,7.04-3.36,10.7-4.38,1.71-.48,3.46-.38,5.1,.47,.19,.1,.49,0,.74,0,.32-.06,.64-.13,1.17-.28,.78-.21,1.36-.31,1.92-.45,.24-.06,.61-.16,.66-.32,.31-.94,.83-1.94,.15-2.89-1.05-1.46-1.3-3.09-1.24-4.81,.05-.13,.09-.26,.17-.6,.38-2.7,2.03-4.25,4.03-5.46,2.08-1.26,4.26-2.35,6.64-2.99,.77,.09,1.54,.21,2.32,.25,.4,.02,.82-.03,1.2-.16,1.84-.6,3.7-.82,5.8-.18,1.25,.71,2.28,1.33,3.4,2,2.57-1.96,5.44-3.76,8.56-5.18,5.01-2.29,10.3-3.77,15.47-5.59Z"/>
      <path class="cls-4" d="M256.99,24.32c-3.14,1.27-6.46,2.43-9.64,3.87-4.04,1.83-7.71,4.26-10.93,7.37-3.54,3.41-5.26,7.51-5.04,12.4,.1,2.36,1.35,4.23,3.04,5.77,1.73,1.58,3.83,2.47,6.09,3.01,.56,.13,1.11,.29,1.94,.51-.61,.65-1.07,1.13-1.52,1.62-.54,.58-1.2,1.1-1.58,1.78-1.63,2.92-1.33,4.93,1.82,7.64,2.08,1.78,4.52,2.96,6.9,4.27,.87,.48,1.63,1.18,2.36,1.87,.83,.79,.87,1.69,0,2.47-.86,.77-1.89,1.34-2.94,1.89-.01-.37,.08-.62,.18-.87,0,0,.04,0,.11-.03,.17-.08,.25-.15,.3-.24,.26-.18,.59-.31,.76-.56,1.01-1.45,1.4-2.25-.49-3.04-2.3-.96-4.39-2.28-6.33-3.83-2.04-1.62-3.99-3.32-4.61-6.02-.12-.53-.12-1.13,0-1.66,.38-1.77,1.11-3.37,2.64-4.63-1.49-.63-2.98-1.03-4.22-1.83-2.37-1.53-4.37-3.54-5.02-6.4-.81-3.55-.52-6.97,1.31-10.3,1.61-2.92,3.99-4.96,6.4-7.11,2.12-1.89,4.42-3.43,6.97-4.57,3.44-1.53,6.98-2.85,10.79-3.22,.21-.02,.41-.1,.73-.17Z"/>
      <path class="cls-4" d="M246.08,79.81c-.02,.1,0,.25-.05,.3-1.66,1.32-3.28,2.7-5.02,3.92-1.17,.81-2.33,1.53-3.31,2.64-1.98,2.24-4.4,4-7.01,5.49-.9,.51-1.82,1.01-2.82,1.36,2.3-1.98,5.1-3.27,7.47-5.65-.6,.06-.94,.05-1.25,.13-6.27,1.66-12.52,3.38-18.81,4.98-2.88,.73-5.81,1.28-8.73,1.83-4.28,.79-8.58,1.51-12.87,2.25-.46,.08-.81,.11-1.17,.6-.31,.42-1.09,.57-1.69,.71-4.07,.95-8.13,.75-12.18-.15-.83-.18-1.65-.39-2.56-.74-.08-.15-.08-.31-.08-.31,.26,.02,.54,0,.78,.08,.9,.27,1.76,.42,2.75,.28,.9-.13,1.89,.1,2.81,.33,2.25,.56,4.51,.35,6.76,.18,1.01-.07,2.05-.48,2.98-.92,2.15-1.01,4.42-1.46,6.73-1.9,3.46-.67,6.87-1.64,10.35-2.09,5.74-.74,11.21-2.57,16.84-3.73,2.6-.54,5.21-1.27,7.66-2.3,1.41-.6,2.92-1.13,4.19-2.13,1.25-.99,2.67-1.77,4-2.67,1.03-.7,2.04-1.43,3.24-2.19,.28-.09,.33-.17,.33-.28,.07-.03,.13-.07,.36-.11,.21,.03,.27,.06,.32,.1Zm-10.33,7.87l-.11-.05s.03,.11,.11,.05Z"/>
      <path class="cls-4" d="M281.61,121.43c.28-2.75,1.39-5.14,3.29-7.1,.72-.74,1.68-1.42,2.65-1.68,1.68-.46,3.44-.59,5.18-.82,.71-.09,1.18,.32,1.6,.86,.78,1.01,1.57,2.02,2.43,2.96,3.23,3.56,7.29,5.62,11.96,6.58,3.44,.71,6.91,.59,10.27-.24,2.79-.69,5.33-2.12,7.64-3.86,1.23-.93,2.44-1.9,3.57-2.94,.81-.75,1.48-1.66,2.21-2.51,.31-.36,.55-.83,.93-1.07,1.5-.96,2.56-2.37,3.79-3.6,.97-.97,1.76-2.12,2.55-3.25,.29-.41,.37-.99,.47-1.5,.15-.77,.24-1.56,.44-2.43,.22,.09,.35,.27,.49,.44,.29,1.74-.33,3.33-.97,4.86-.29,.68-1.03,1.18-1.58,1.75-2.15,2.21-4.22,4.49-6.47,6.6-2.22,2.08-4.22,4.4-6.97,5.91-2.72,1.5-5.55,2.64-8.61,2.92-2.79,.26-5.63,.12-8.44-.01-.99-.05-1.98-.56-2.93-.94-3.73-1.47-7.01-3.64-9.86-6.44-.47-.46-.88-1.08-1.09-1.7-.36-1.11-1.09-1.37-2.16-1.49-5.04-.54-9.55,4.45-9.98,8.58-.21,.12-.31,.12-.4,.12Z"/>
      <path class="cls-8" d="M298.83,163.68c-1.09,4.08-3.02,7.72-5.66,11.02-1.2,1.5-2.77,2.53-4.23,3.67-2.27,1.77-4.71,3.3-7.37,4.46-3.59,1.57-7.24,2.91-11.04,3.85-2.28,.56-4.53,1.28-6.82,1.76-1.81,.38-3.62,.93-5.52,.81-.21-.01-.51,.07-.62-.04-.28-.27-.49-.63-.72-.96,.24-.16,.45-.41,.71-.46,4.07-.82,7.95-2.28,11.86-3.62,1.66-.57,3.27-1.26,5.02-1.82,.12,.24,.13,.41,.06,.65-2.31,1.13-4.53,2.18-6.76,3.23,.4,.08,.76,.05,1.11-.03,6.21-1.43,12.05-3.86,17.47-7.16,3.59-2.19,6.87-4.85,8.81-8.77,1.08-2.18,2.11-4.39,3.25-6.59,.22,0,.34,0,.46,0Z"/>
      <path class="cls-3" d="M84.18,128.3c2.07,.16,4.14,.27,6.2,.49,1.05,.11,2.1,.36,3.1,.67,1.61,.5,2.49,2.08,1.82,3.61-.7,1.59-1.63,3.1-2.64,4.52-.42,.59-1.27,.94-1.99,1.23-3.54,1.42-6.85,3.2-9.53,5.97-1.38,1.42-2.45,3.05-2.48,5.18-.01,1.26,.11,2.42,1.56,3.1-.55,.29-.96,.52-1.38,.73-1.57,.79-2.46,2.13-3.04,3.73-.11,.3-.15,.62-.26,.92-.88,2.35-.19,3.45,1.85,5,1.23,.93,2.42,1.92,3.53,2.98,.64,.62,.17,.81-.58,.64-.09-.08-.1-.1-.2-.17-1.23-1.08-2.37-2.1-3.51-3.1-1.04-.92-1.85-1.99-2.2-3.36,0-.75,0-1.49,.04-2.47,.59-1.34,1.16-2.44,1.72-3.55,0,0,.03-.03,.14-.1,.73-.55,1.35-1.03,1.92-1.48-.33-.69-.63-1.34-.93-1.98,.16-1.12,.31-2.24,.57-3.55,.82-1.18,1.54-2.18,2.26-3.18,0,0,.04-.05,.16-.09,1.17-.91,2.22-1.78,3.27-2.66,0,0-.05,.02,.08,0,1.23-.72,2.33-1.42,3.43-2.11,.67-.32,1.34-.65,2.2-1.06,.77-.34,1.38-.54,1.91-.86,1.78-1.07,3.03-2.53,3.24-4.69,.02-.24,.04-.48,.04-.97-.12-.99-.67-1.35-1.31-1.48-1.29-.26-2.59-.42-3.89-.62-.57-.04-1.13-.08-1.95-.14-1.24-.2-2.23-.38-3.21-.7,.02-.24,.03-.34,.04-.44Z"/>
      <path class="cls-4" d="M338.52,95.99c-1.75-.58-2.9-1.94-4.09-3.22-.69-.75-.47-2.42,.34-3,1.81-1.3,3.64-2.58,4.96-4.44,.1-.14,.6-.16,.78-.04,.39,.26,.81,.6,1,1.01,.86,1.8,2.45,2.47,4.24,2.71,2.1,.28,4.22,.45,6.27-.45,2.4-1.04,3.56-2.94,3.8-5.45,.1-1,.02-2.02,.04-3.03,0-.13,.09-.33,.19-.37,.11-.05,.35,0,.41,.1,.41,.61,.96,1.19,1.16,1.87,1.04,3.41,3.39,5.53,6.53,7,2.55,1.19,5.01,2.59,7.85,3.4,.01,.21-.07,.33-.15,.45-1.35,.2-2.49-.46-3.71-.84-3.39-1.06-6.4-2.7-8.84-5.34-.87-.94-1.62-1.92-2.12-3.33-.19-.49-.34-.76-.61-1.23-.05,.81-.09,1.34-.12,1.87-.07,.36-.13,.73-.2,1.09-.56,2.83-2.63,4.82-5.53,5.01-2.06,.13-4.14,.03-6.21-.09-.58-.03-1.18-.44-1.71-.77-.62-.4-1.19-.89-1.75-1.37-1.05-.88-1.36-.89-2.39,.03-.99,.87-1.97,1.75-2.93,2.64-.97,.9-1,1.63-.06,2.55,.91,.89,1.87,1.72,2.85,2.79,.03,.29,.03,.37,.02,.45Z"/>
      <path class="cls-3" d="M436.71,25.31c.68,1.05-.01,1.84-.55,2.58-2.21,3.05-4.84,5.7-8.2,7.47-2.63,1.4-5.34,2.66-8.06,3.88-3,1.35-6.25,1.68-9.46,2.15-.42,.06-.88-.12-1.64-.24,.47-.33,.62-.5,.79-.54,5.14-1.07,9.46-3.72,13.5-6.94,2.49-1.99,4.59-4.28,6.05-7.14,.09-.18,.28-.31,.53-.46-.97,2.7-2.4,5.16-4.72,7-1.75,1.39-3.5,2.78-5.28,4.15-.41,.31-.9,.51-1.53,.88-1.1,.6-2.02,1.09-2.94,1.57,1.12,.05,2.13-.17,3.04-.76,4.33-1.88,8.77-3.61,12.45-6.66,1.73-1.43,3.18-3.22,4.66-4.94,.3-.35,1.08-.81,.51-1.56,.24-.14,.49-.29,.84-.44Z"/>
      <path class="cls-2" d="M166.73,75.36c-.15,0-.3,0-.57-.14-.82-.98-1.87-.93-2.8-1.15-1.06-.25-2.14-.43-3.2-.63,.07-.13,.13-.25,.34-.36,3.7,.12,7.25,.3,10.7,1.31,2.75,.81,4.71,2.38,5.52,5.22,.78,2.73-.19,5.4-2.54,6.96-.05,.03-.29-.21-.41-.46,.12-1.23,.25-2.33,.28-3.43,.11-3.46-3.57-6.9-7.32-7.32Z"/>
      <path class="cls-5" d="M415.04,94.23c.97-.77,1.9-1.61,2.93-2.3,.92-.62,1.96-1.06,2.93-1.6,.84-.46,1.7-.9,2.48-1.44,3.87-2.66,7.6-5.48,10.64-9.11,1.86-2.23,3.2-4.76,4.11-7.52,.08-.23,.32-.41,.55-.42,.08,.27,.09,.35,.12,.55,.2,2.21-.65,3.98-1.69,5.66-1.24,2-2.97,3.56-4.7,5.15-3.29,3.04-6.83,5.74-10.63,8.08-1.7,1.05-3.56,1.86-5.37,2.73-.4,.19-.91,.14-1.37,.2,0,0,0,0,0,.01Z"/>
      <path class="cls-4" d="M108.5,222.88c.94-2.1,1.91-4.05,2.73-6.07,.34-.85,.35-1.83,.48-2.76,.1-.74,.58-1.04,1.15-.57,.34,.28,.63,.73,.73,1.16,1.4,6-.7,11.47-6.26,14.54-1.46,.81-2.97,1.54-4.47,2.28-.28,.14-.6,.24-.91,.25-.24,0-.48-.17-.72-.27,.09-.22,.13-.5,.29-.64,1.07-.94,2.23-1.77,3.23-2.78,1.22-1.22,2.49-2.42,3.19-4.07,.14-.34,.36-.64,.57-1.08Zm-4.85,7.41c6.75-2.55,10.36-8.18,8.75-16.08-.18,.71-.29,1.1-.37,1.48-.14,.67-.18,1.38-.42,2.01-.69,1.84-1.41,3.67-2.21,5.46-.67,1.51-1.57,2.9-2.82,4.02-1.1,.99-2.18,2.01-3.38,3.07,0,.07,.02,.13,.03,.2,.06-.05,.12-.11,.42-.17Z"/>
      <path class="cls-8" d="M281.54,121.54c.17-.11,.26-.11,.42-.11,.2,1.85,.34,3.7,.45,5.55,.14,2.22,1.41,3.9,2.65,5.61,2.02,2.8,4.05,5.6,6.01,8.45,1.6,2.34,2.32,5.01,2.76,7.78,.47,2.95,.35,5.89-.15,8.95-.26,.12-.38,.12-.5,.12,.53-3.75,.1-7.4-.86-11.05-1.31-5-4.12-9.05-7.5-12.83-1.83-2.05-3.03-4.5-3.23-7.31-.12-1.69-.08-3.38-.04-5.18Z"/>
      <path class="cls-3" d="M227.84,35.68c-1.09,1.23-2.2,2.44-3.26,3.69-1.52,1.8-1.75,3.91-1.4,6.14,.29,1.82,.6,3.64,.9,5.45,.03,.19,.04,.38,.06,.56-.25,0-.58,.12-.73,0-.49-.39-1-.8-1.35-1.3-.86-1.25-1.65-2.55-2.45-3.85-1.07-1.74-1.25-3.66-1.01-5.63,.05-.42,.45-.79,.65-1.19,1.1-2.26,2.97-3.72,5.32-4.78,.32,.16,.46,.24,.51,.4-1.46,1.32-2.94,2.48-4.18,3.84-1.2,1.31-1.77,3.02-1.23,4.75,.61,1.97,1.65,3.78,3.05,5.42,.04,.16,.08,.24,.12,.32,.05-.05,.14-.13,.13-.14-.07-.1-.16-.18-.23-.4-.16-.91-.37-1.68-.5-2.46-.45-2.69-.42-5.34,1.49-7.53,1.15-1.31,2.49-2.45,3.83-3.63,.15,.13,.22,.23,.28,.32Z"/>
      <path class="cls-4" d="M298.86,163.55c-.15,.12-.28,.12-.49,0,.16-1.33,.8-2.49,.4-3.97-.66,.74-1.23,1.35-1.76,1.99-.24,.28-.42,.61-.6,.94-3.88,7.06-9.48,12.53-16.03,17.09-1.82,1.27-3.87,2.22-5.81,3.31,0-.16-.01-.33-.02-.61,2.63-1.75,5.19-3.48,7.7-5.31,3.22-2.35,6-5.14,8.61-8.11,1.63-1.86,3.22-3.75,4.44-5.92,.33-.59,.64-1.2,1.02-1.75,.5-.73,1.05-1.43,1.6-2.12,.31-.38,.71-.69,1.23-.37,.5,.3,.76,.77,.61,1.35-.27,1.12-.58,2.23-.9,3.47Z"/>
      <path class="cls-4" d="M84.08,128.25c.09,.14,.09,.24-.07,.45-1.5,.07-2.73-.25-3.59-1.41,.04-.37,.09-.74,.17-1.32,1.45-4.6,4.59-7.4,8.62-9.27,1.28-.59,2.72-.85,4.1-1.18,1.35-.32,1.53-.68,1.09-1.95-.4-1.14-.75-2.33-.87-3.52-.13-1.2,.04-2.43,.07-3.65,.02-.05,.04-.1,.09-.34,.16-.76,.29-1.33,.49-1.86,.15,.15,.22,.25,.3,.35-.03,1.54-.07,3.08-.09,4.63-.03,1.9,.28,3.7,1.67,5.14,.36,.38,.2,.69-.18,.89-.33,.17-.68,.3-1.04,.38-2.46,.5-4.75,1.45-6.96,2.63-2.22,1.19-3.72,3.15-5.27,5.02-.73,.88-.95,2.01-.7,3.17,.25,1.16,.77,1.6,2.17,1.84Z"/>
      <path class="cls-3" d="M31.45,173.51c-.29,.26-.59,.52-1.01,.93-1.31,1.67-2.35,3.26-2.6,5.24-.08,.43-.16,.85-.27,1.5-.25,.58-.47,.94-.7,1.3,0,0-.05-.02-.11-.13-1.33-2.88-.97-5.52,.61-8.06,1.39-2.03,3.18-3.58,5.66-4.65,.82-.3,1.43-.52,2.04-.74,.39,0,.78,.02,1.4,0,.47-.06,.71-.1,.95-.13,0,0,.11,.07,.18,.18-.21,.37-.46,.67-.77,.87-1.13,.73-2.28,1.43-3.43,2.14-.07-.02-.13,0-.31,.14-.64,.53-1.16,.98-1.67,1.43Zm-4.38,3.65c-.06,.5-.12,1-.18,1.49,1.3-3.77,3.93-6.35,7.13-8.48-3.36,1.17-5.64,3.42-6.94,6.98Z"/>
      <path class="cls-3" d="M175.89,97.12c.11,.05,.11,.2,.1,.27-2-.47-4.04-.87-5.97-1.59-1.7-.63-2.38-2.6-1.8-4.45,.56-1.78,1.17-3.54,1.74-5.31,.62-1.92,.3-2.98-1.37-4.14-1.93-1.34-3.94-2.52-6.28-3.33-.08-.09-.09-.18-.09-.23,3.33,.34,6.35,1.3,8.22,4.41,.69,1.15,.94,2.28,.43,3.6-.6,1.56-1.09,3.17-1.61,4.77-.72,2.2-.21,3.37,1.93,4.25,1.51,.62,3.05,1.14,4.69,1.75Z"/>
      <path class="cls-4" d="M173.74,86.24c.15,.12,.39,.36,.44,.33,2.36-1.56,3.32-4.23,2.54-6.96-.81-2.83-2.77-4.41-5.52-5.22-3.45-1.01-7-1.19-10.63-1.39,.51-.21,1.08-.33,1.65-.45,2.76,0,5.44,.49,8.13,1.07,2.09,.45,3.91,1.23,5.45,2.67,.41,.39,.84,.83,1.06,1.34,1.76,4.03-.09,9.16-3.99,11.18-.48,.25-.61,.12-.69-.4-.15-.98,.86-1.28,1.24-2.09,.16-.07,.31-.07,.31-.07Z"/>
      <path class="cls-1" d="M225.18,35.1c-.14-.08-.28-.16-.49-.34,2.53-1.69,5.36-2.81,8.12-4.08,1.79-.83,3.54-1.74,5.32-2.61,.83-.41,1.66-.83,2.52-1.19,.3-.13,.68-.09,1.06-.01-4.2,2.39-8.43,4.7-12.47,7.52-.15-.02-.23-.1-.19-.19,.39-.49,.75-.9,1.21-1.32,.33-.14,.56-.27,.84-.42,.02,0-.02,0-.17,0-.37,.08-.63,.18-1.01,.3-.4,.14-.7,.24-.97,.39-1.26,.65-2.51,1.31-3.77,1.96Z"/>
      <path class="cls-4" d="M293.12,158.02c.17-.11,.29-.11,.5-.11,.29,1.25-.5,2.22-.95,3.25-1.3,3-3.44,5.35-6.15,7.32,.08-1.11,.97-1.76,1.69-2.47,2.28-2.24,3.95-4.82,4.92-7.99Z"/>
      <path class="cls-1" d="M9.6,198.28c-.11,.47-.21,.95-.49,1.3-.88,1.11-1.8,2.19-2.74,3.25-.36,.41-.74,1.04-1.42,.73-.63-.3-.5-.97-.48-1.55,.01-.21,.07-.41,.13-.76,.07-.28,.12-.43,.29-.7,.35-.22,.6-.32,.85-.3q-.6,1.61-.35,2.71c1.03-1.31,1.99-2.53,3-3.77-.01-.04-.08-.05-.26-.06-.88,.34-1.64,.67-2.43,.89,.17-.33,.37-.55,.56-.78,.13-.05,.27-.11,.54-.26,.66-.4,1.18-.69,1.7-.98,.34,.08,.67,.15,1.08,.28Z"/>
      <path class="cls-1" d="M173.77,86.11c-.03,.13-.18,.13-.25,.13-.01-.98,.05-1.96,.11-3.13,0-.3-.05-.38-.14-.44-.42-2.24-1.58-4-3.52-5.21-1.04-.65-2.1-1.25-3.2-1.98,3.71,.31,7.39,3.75,7.28,7.21-.04,1.1-.17,2.2-.28,3.43Z"/>
      <path class="cls-2" d="M156.48,164.03c.01,.11-.03,.19-.31,.26-.61,.05-1,.11-.96,.68,0,0,0-.02-.13-.04-.23-.02-.34,0-.44-.02-.43-.09-.86-.19-1.29-.28,.17-.46,.22-1.02,.52-1.36,1.02-1.18,2.33-1.73,3.92-1.53,0,0-.02,.02-.05,.12-.11,.58-.21,1.05-.3,1.52,0,0,0-.02-.06,.01-.13,.12-.2,.21-.27,.3,0,0,0-.01-.08,0-.24,.13-.39,.23-.55,.34Z"/>
      <path class="cls-4" d="M157.79,161.6c-1.6-.07-2.91,.48-3.93,1.66-.3,.35-.35,.9-.52,1.36,.43,.1,.86,.2,1.29,.28,.1,.02,.21,0,.45,.02-.63,.67-1.77,.87-2.44,.48-.6-.35-.92-1.15-.53-1.63,1.27-1.5,2.64-2.89,4.85-2.68,.29,.03,.55,.24,.82,.49Z"/>
      <path class="cls-1" d="M162.09,72.52c-.43,.15-1,.27-1.65,.46-.14,.2-.21,.33-.28,.45,1.07,.21,2.15,.38,3.2,.63,.93,.22,1.98,.17,2.69,1.14-2.36-.56-4.74-1.1-7.21-1.11-.25,0-.52-.07-.74-.18-.21-.11-.37-.32-.55-.49,.21-.19,.41-.51,.64-.54,1.25-.17,2.5-.27,3.9-.36Z"/>
      <path class="cls-4" d="M299.61,153.17c-.4,1.09-1.23,.92-1.93,.8-.77-.13-.63-.85-.68-1.42,0-.1,.01-.21,.01-.32,0-1.3,.18-1.65,.87-1.68,.79-.03,1.82,.78,1.92,1.58,.04,.3-.09,.61-.2,1.03Zm-.79-.82c-.18-.32-.36-.65-.55-.97-.29,.47-.36,.86-.32,1.24,.03,.22,.24,.41,.37,.62,.16-.22,.33-.45,.49-.89Z"/>
      <path class="cls-1" d="M94.86,100.98c.72-1.67,1.43-3.25,2.26-4.76,.14,.18,.16,.28,.18,.38-.33,.77-.72,1.53-.98,2.32-.6,1.8-1.13,3.63-1.76,5.54-.14,0-.22-.1-.38-.37,.05-.84,.18-1.5,.32-2.17,.12-.28,.24-.57,.36-.94Z"/>
      <path class="cls-4" d="M399.9,96.13c.43-.08,.8-.15,1.11-.04,.97,.34,1.39,.92,1.22,1.59-.15,.61-1.37,1.21-2.13,1-.19-.05-.5-.21-.5-.32-.02-.72-.68-1.52,.3-2.23Zm1.34,.9c-.73-.43-.75,.16-.85,.61,0,.03,.34,.22,.4,.17,.19-.15,.33-.37,.46-.78Z"/>
      <path class="cls-1" d="M73.58,240.69c-1.76,1.42-3.69,2.23-5.95,2.06-.57-.04-1.15-.04-1.88-.05-.15,0-.22-.11-.26-.17,.18-.13,.39-.2,.68-.36,2.58,.05,4.97-.35,7.23-1.77,.12,.03,.15,.1,.18,.29Z"/>
      <path class="cls-1" d="M173.3,91.46c1.1-.3,1.91-.07,2.44,.82,.1,.17,.11,.51,0,.68-.36,.58-1.69,.79-2.31,.43-.64-.38-.7-.84-.13-1.93Zm.61,.8c.22,.12,.43,.24,.66,.33,.01,0,.11-.19,.17-.29-.23-.06-.46-.12-.82-.04Z"/>
      <path class="cls-1" d="M371.97,92.57c-.05-.16,.03-.28,.14-.46,2.15,.48,4.31,.62,6.64,.55,.14,.1,.15,.18,.17,.32-2.27-.08-4.54-.23-6.94-.41Z"/>
      <path class="cls-4" d="M282.36,171.99c-.12-.08-.14-.17-.17-.39,1.32-1.15,2.66-2.16,4.12-3.15-1.2,1.19-2.52,2.36-3.95,3.54Z"/>
      <path class="cls-7" d="M418.23,38.78c-.89,.71-1.9,.94-3.02,.88,.92-.49,1.84-.97,2.86-1.49,.12,.14,.13,.31,.16,.61Z"/>
      <path class="cls-1" d="M341.09,101.14c-.16-.04-.3-.22-.5-.44-.3-1.04-.53-2.04-.75-3.16,1.04,.86,1.37,2.09,1.26,3.6Z"/>
      <path class="cls-7" d="M368.24,.32c-1.33,.06-2.76,.04-4.3-.06,1.33-.06,2.76-.04,4.3,.06Z"/>
      <path class="cls-1" d="M227.94,35.65c-.17-.06-.23-.16-.32-.38,.45-.42,.92-.7,1.39-.99,0,0,.08,.09,.12,.13-.34,.43-.72,.82-1.19,1.24Z"/>
      <path class="cls-7" d="M356.52,83.61c-.05-.48-.01-1.01,.04-1.83,.27,.47,.42,.75,.57,1.13-.18,.29-.35,.47-.61,.7Z"/>
      <path class="cls-4" d="M157.53,163.31c0-.4,.09-.87,.21-1.46,.15,0,.39,.13,.37,.2-.13,.41-.32,.8-.58,1.26Z"/>
      <path class="cls-7" d="M247.55,77.94c0,.22-.09,.47-.2,.82-.01,.1,0,.11-.1,.08-.24,0-.37,.03-.54,.02-.03-.03-.08-.08-.08-.08,.27-.27,.55-.55,.92-.85Z"/>
      <path class="cls-1" d="M338.55,96.08c-.02-.17-.02-.25,0-.45,.22,.13,.43,.38,.66,.73-.2,0-.41-.1-.66-.28Z"/>
      <path class="cls-3" d="M429.85,26.05c.03-.26,.14-.55,.36-.86-.02,.26-.15,.54-.36,.86Z"/>
      <path class="cls-4" d="M155.31,164.96c-.14-.55,.26-.61,.79-.65-.15,.21-.42,.42-.79,.65Z"/>
      <path class="cls-1" d="M339.85,97.33c-.21-.15-.44-.41-.65-.77,.22,.15,.43,.41,.65,.77Z"/>
      <path class="cls-8" d="M438.79,72.28c-.01-.07-.03-.15-.06-.33,.27-.07,.56-.02,.89,.12,.04,.1,.05,.09-.06,.09-.33,.04-.56,.08-.78,.12Z"/>
      <path class="cls-4" d="M156.57,164c.06-.08,.21-.19,.46-.31-.06,.08-.22,.18-.46,.31Z"/>
      <path class="cls-7" d="M173.47,82.73c.1,0,.15,.08,.13,.25-.1,0-.14-.08-.13-.25Z"/>
      <path class="cls-7" d="M76.92,237.91c-.09-.11-.05-.19,.14-.23,.05,.11,0,.17-.14,.23Z"/>
      <path class="cls-7" d="M245.98,79.41c.05-.09,.11-.17,.29-.24,.09-.01,.13,.03,.1,.1-.11,.15-.19,.21-.32,.22-.02-.03-.07-.08-.07-.08Z"/>
      <path class="cls-7" d="M245.34,79.83c.06,.1,.01,.17-.16,.21-.05-.09,0-.16,.16-.21Z"/>
      <path class="cls-4" d="M157.18,163.64s.06-.13,.21-.26c0,.05-.07,.13-.21,.26Z"/>
      <path class="cls-7" d="M175.55,186.08c.07,.03,.07,.09,.07,.23-.04-.01-.09-.11-.07-.23Z"/>
      <path class="cls-7" d="M247.97,77.63c.03,.1-.05,.17-.22,.23,0-.07,.06-.15,.22-.23Z"/>
      <path class="cls-7" d="M246.33,79.12c.03-.11,.1-.18,.24-.29,.06-.05,.12,.01,.11,.11-.08,.18-.17,.23-.28,.25,0,0-.05-.05-.07-.07Z"/>
      <path class="cls-7" d="M246.08,79.82c-.05-.04-.11-.08-.24-.18-.05-.12,0-.17,.1-.22,.04-.02,.09,.03,.09,.14,.01,.16,.02,.21,.04,.27,0,0,.02,0,.02,0Z"/>
      <path class="cls-6" d="M83.1,222.8c1.34-2.3,2.71-4.58,4.01-6.9,.34-.6,.82-.58,1.35-.59,1.77-.04,3.32-.68,4.73-1.72,.7-.52,1.07-1.15,.73-2.06-.77-2.09-1.46-4.21-2.27-6.29-.73-1.88-1.79-3.66-2.32-5.59-.64-2.34-.98-4.79-1.27-7.21-.7-5.76,2.24-9.91,6.31-13.41,2.29-1.98,4.84-3.67,7.66-4.82,3.95-1.61,7.92-1.94,11.85,.21,1.79,.98,3.38,2.2,4.9,3.54,.37,.33,.86,.64,1.33,.73,.97,.18,1.5-.29,1.09-1.08-.59-1.13-.03-2.04,.07-3.05,.15-1.38,.17-2.76,.31-4.14,.67-6.58,2.58-12.81,5.3-18.81,1.69-3.74,3.52-7.41,6.17-10.59,3.98-4.77,8.36-9.07,13.83-12.18,3.73-2.12,7.61-3.81,11.74-4.93,3.39-.92,6.76-1.98,10.21-2.57,4.5-.78,9.07-1.16,13.61-1.71,.05,0,.11-.01,.16,0,.59,.14,1.18,.27,1.76,.41-.41,.75-1.12,.35-1.69,.42-2.96,.35-5.92,.61-8.87,.97-5.25,.64-10.34,1.96-15.39,3.49-7.56,2.3-14.32,5.97-19.91,11.64-2.62,2.66-5.22,5.34-7.22,8.51-.48,.76-.91,1.56-1.46,2.51-.1,.3-.11,.43-.11,.56,.11-.12,.23-.24,.34-.36,.76-.66,1.55-1.28,2.27-1.97,2.97-2.87,6.24-5.33,9.98-7.11,5.3-2.52,10.88-3.96,16.72-4.47,1.98-.17,3.91-.36,5.84,.31,.42,.14,.94-.02,1.41-.06,2.28-.16,4.56-.43,6.83-.44,1.84-.01,3.57,.72,5.1,1.7,2.1,1.34,4.17,2.72,5.79,4.7,1.08,1.32,1.76,2.79,2.23,4.38,.46,1.58,.76,3.21,1.22,4.8,.32,1.12,.72,2.22,1.2,3.28,.38,.85,1.09,1.39,2,1.71,1.47,.53,2.96,.77,4.53,.82,5.09,.17,10.1-.37,15.09-1.24,3.77-.66,7.54-1.33,11.33-1.92,2.05-.32,4.12-.5,6.18-.75,.93-.11,.9-.16,.61-1.04-.28-.84-.54-1.74-.54-2.62,0-1.8,.2-3.6,.29-5.41,.07-1.44,.12-2.88-.64-4.21-.1-.18-.02-.46-.03-.69,.2,.03,.46-.02,.61,.09,1.13,.79,2.27,1.58,3.36,2.42,.63,.49,1.18,1.08,1.77,1.8-.1,.25-.21,.33-.31,.41-.97-.72-1.94-1.43-3.02-2.23-.24,3.1-.52,6.04-.66,8.98-.03,.69,.29,1.45,.62,2.09,.53,1.03,.56,1.12-.5,1.29-1.42,.23-2.84,.43-4.26,.66-3.46,.58-6.92,1.19-10.38,1.75-6.25,1.01-12.5,2.11-18.88,1.8-2.91-.14-5.58-.88-7.66-3.05-.45-.47-.78-1.12-.96-1.75-.58-1.99-1.02-4.02-1.61-6.01-.93-3.13-2.55-5.76-5.24-7.79-4.4-3.33-9.19-3.85-14.35-2.46-.44,.12-.97,.23-1.37,.11-2.56-.8-5.19-.56-7.78-.4-5.18,.31-9.94,2.26-14.66,4.21-1.59,.66-3.08,1.7-4.43,2.8-2.15,1.74-4.16,3.64-6.19,5.52-2.75,2.54-4.73,5.59-5.88,9.17-.1,.3-.17,.62-.32,.9-1.39,2.63-1.95,5.5-2.47,8.39-.45,2.47-.82,4.94-.75,7.45,.03,1.05,.21,2.11,.33,3.16,.03,.32,.09,.63,.09,.95,.02,1.99-1.1,2.78-2.96,2.02-.57-.23-1.06-.69-1.56-1.08-.79-.62-1.57-1.27-2.34-1.92-4.65-3.98-9.66-3.61-14.75-1.09-2.71,1.34-5.34,2.86-7.41,5.19-2.55,2.86-4.24,5.98-4.42,9.96-.23,4.95,.97,9.48,3.18,13.82,.9,1.76,1.61,3.57,2.17,5.47,.78,2.66,.11,3.75-2.6,5.17-.74,.39-1.62,.6-2.46,.65-1.18,.07-1.77,.69-2.35,1.62-1.13,1.8-2.38,3.52-3.71,5.27-.14,0-.23-.08-.23-.08Z"/>
      <path class="cls-6" d="M266.85,83.94c-1.32,1.67-2.63,3.35-3.97,5-1.78,2.2-2.79,4.79-3.58,7.43-1.19,4-1.12,8.09-.46,12.18,.05,.31,.11,.63,.22,.93,.15,.38,.36,.74,.7,1.44,.04-.58,.1-.8,.07-1.02-.31-2.6,.61-4.93,1.6-7.22,.28-.66,.77-1.31,1.31-1.77,2.81-2.4,5.84-4.49,9.5-5.36,2.27-.54,4.59-1.07,6.91-1.2,5.05-.28,10.12-.53,15.17-.33,3.57,.14,7.11-.39,10.66-.1,2.02,.16,4.03,.31,6.05,.44,1.54,.09,3.08,.13,4.62,.21,.83,.04,1.07-.37,1.15-1.15,.11-1.05-.11-2-.52-2.94-1.64-3.72-2.84-7.57-3.71-11.54-.52-2.39-.3-4.83,.39-7.1,.37-1.23,1.51-2.28,2.45-3.27,3.25-3.47,6.95-6.43,10.86-9.11,1.25-.86,2.71-1.52,4.18-1.93,3.63-1.02,7.31-1.85,10.97-2.76,1.08-.27,2.17-.53,3.22-.88,.93-.31,1.41-1.07,1.58-2.02,.27-1.52-.09-2.94-.53-4.38-.61-1.97-1.22-3.97-1.56-6-.3-1.8,.58-3.44,1.44-4.97,.78-1.39,1.79-2.59,3.02-3.67,2.73-2.4,5.68-4.49,8.75-6.41,1.38-.87,2.85-1.58,4.9-1.59-1.36,.82-2.41,1.55-3.53,2.11-3.71,1.85-6.79,4.59-9.98,7.14-1.33,1.06-2.63,2.37-2.83,4.29-.02,.15-.11,.3-.18,.44-1.3,2.35-1.13,4.65,.18,6.95,.42,.73,.62,1.59,1.06,2.31,.63,1.06,.53,2.05,.25,3.2-.64,2.65-1.99,3.98-4.92,4.39-4.73,.67-9.37,1.96-13.76,3.96-.67,.31-1.35,.63-1.97,1.04-2.97,1.97-5.99,3.88-8.61,6.32-2.22,2.07-3.95,4.45-4.5,7.54-.35,1.96-.11,3.85,.68,5.71,.14-1.27,.22-2.56,.43-3.82,.48-2.93,2.09-5.19,4.38-7,2.13-1.68,4.62-2.64,7.21-3.32,5.3-1.38,10.69-1.84,16.15-1.35,.48,.04,.96,.04,1.58,.16,.14,.2,.14,.3,.13,.4-5.87-.39-11.7-.12-17.41,1.39-2.42,.64-4.75,1.52-6.8,3.06-2.84,2.13-4.48,4.91-4.9,8.43-.1,.79-.22,1.58-.29,2.38-.14,1.61,0,3.18,.59,4.71,.94,2.43,1.86,4.87,2.76,7.32,.19,.51,.69,1.09,.15,1.63-.66,.65-1.13,1.66-2.26,1.59-1.48-.09-3.01-.09-4.44-.44-4-.97-7.99-1-12.04-.39-1.51,.22-3.06,.44-4.58-.1-.2-.07-.42-.08-.63-.09-5.26-.24-10.53-.62-15.71,.79-.31,.08-.63,.12-.94,.14-4.39,.24-8.28,1.78-11.76,4.45-.46,.35-.97,.66-1.46,.96-2.15,1.33-3.26,3.29-3.51,5.77-.26,2.51,.31,4.85,1.26,7.15,2.12,5.15,3.21,10.46,2.35,16.05-.2,1.31-.38,2.62-.73,4.04-.29,.1-.41,.1-.53,.1,.13-1.37,.28-2.74,.4-4.1,.52-5.63-.02-11.03-3.21-15.92-2.11-3.22-2.7-6.88-2.93-10.63-.24-4.03,.84-7.77,2.4-11.44,1.78-4.17,4.49-7.71,7.42-11.08,2.18-2.5,4.12-5.14,5.68-8.06,.12-.23,.25-.47,.33-.72,.15-.42,.04-.67-.45-.8-2-.54-2.31-1.08-1.74-3.03,.73-2.5,2.34-4.51,3.77-6.62,.81-1.19,1.61-2.37,2.36-3.59,.2-.33,.19-.78,.28-1.18-.39-.08-.79-.23-1.18-.22-.69,.02-1.37,.15-2.19,.12-.13-.22-.13-.33-.13-.45,1.42-.17,2.83-.5,4.26-.05,.92,.29,1.09,.48,.61,1.34-.67,1.2-1.45,2.35-2.21,3.49-1.15,1.72-2.39,3.38-3.46,5.15-.52,.84-.85,1.83-1.08,2.8-.27,1.09,.09,1.51,1.19,1.78,1.42,.35,1.54,.58,.81,1.96-1.62,3.06-3.51,5.94-6.07,8.48-.09,.09-.12,.12-.2,.22-.14,.37-.19,.63-.33,.92-1.09,.4-1.17,.61-.58,1.33Z"/>
      <path class="cls-6" d="M77.81,228.37c-3.12,2.93-6.7,4.87-11.06,4.97-1.48,.04-2.98-.09-4.46-.25-2.79-.32-5.05-1.72-6.71-3.92-.56-.74-.75-1.86-.84-2.83-.13-1.43-.04-2.88,.02-4.31,.04-.79-.25-1.37-.89-1.73-.83-.47-1.67-.95-2.56-1.29-1.74-.67-3.52-1.23-5.26-1.88-3.21-1.18-5.81-3.09-7.31-6.25-.88-1.84-1.98-3.51-3.33-5.04-1.55-1.75-3.45-2.44-5.72-2.1-7.61,1.14-14.58,3.85-20.66,8.65-.96,.76-1.92,1.52-2.94,2.2-1.34,.89-2.3,2.03-2.89,3.65-.04-.3-.19-.63-.12-.9,.32-1.22,1.01-2.26,1.99-3.02,1.59-1.24,3.22-2.44,4.89-3.56,1.77-1.18,3.56-2.33,5.42-3.36,1.63-.9,3.35-1.61,5.04-2.4,.38-.18,.82-.29,1.14-.54,5.68-4.38,12.09-7.09,19.11-8.33,2.51-.44,5.08-.56,7.62-.75,1.82-.14,3.58,.11,5.3,.88,1.1,.5,1.66,1.29,1.97,2.34,1.08,3.71,3.38,6.49,6.62,8.48,1.25,.77,2.7,1.23,4.05,1.84,.14,.06,.26,.17,.69,.47-.55,0-.83,.05-1.07,0-2.88-.73-5.55-1.81-7.64-4.07-1.2-1.3-1.75-2.9-2.47-4.44-.27-.58-.51-1.17-.78-1.74-1.05-2.24-2.94-3.25-5.29-3.13-3.98,.2-7.96,.51-11.86,1.48-4.23,1.05-8.06,3.04-11.95,4.9-.7,.34-1.37,.73-1.96,1.39,1.02-.18,2.04-.4,3.07-.53,2.71-.34,5.41-.53,7.98,.77,.84,.42,1.55,.93,2,1.76,.82,1.49,1.68,2.97,2.43,4.5,1.04,2.13,2.58,3.63,4.68,4.81,2.44,1.38,5.02,2.29,7.63,3.2,1.05,.37,2.08,.83,3.07,1.34,1.24,.63,1.36,.96,1.1,2.29-.37,1.96-.46,3.94,.07,5.85,.24,.87,.78,1.81,1.48,2.36,1.69,1.36,3.69,2.09,5.89,2.16,.53,.02,1.07,.02,1.59,.1,3.26,.5,6.23-.39,9.04-1.93,1.21-.66,2.37-1.43,3.69-2.14,.14,0,.18,.06,.18,.06Z"/>
      <path class="cls-6" d="M370.24,75.96c5.39,0,10.39-1.56,15.19-3.84,5.85-2.78,11.23-6.29,16.04-10.64,.9-.82,1.73-1.75,2.43-2.74,1.25-1.78,2.6-3.5,3.22-5.65,.33-1.14,.48-2.16-.34-3.15-.41-.49-.17-.77,.41-.8,2.07-.11,4.14-.23,6.21-.31,.69-.03,1.38,.05,2.08,.07,2.95,.09,5.83-.19,8.64-1.21,2.44-.89,5.04-1.31,7.37-2.57,2.98-1.62,5.25-3.85,6.9-6.87,1.3-2.39,2.58-4.77,3.3-7.4,.55-2.01,.92-4.04,.27-6.24-.03-.13-.03-.12-.03-.12q1.25,.93,2.68,.47c.02,.09,.08,.25,.06,.27-1.1,.66-1.24,1.66-1.42,2.87-1.13,7.76-4.93,13.85-11.78,17.83-3.1,1.8-6.5,2.96-10,3.65-2.4,.47-4.87,.27-7.31,.14-2.07-.11-4.14-.14-6.3,.32,1.43,2.78-.17,4.9-1.42,7.06-2.27,3.91-5.65,6.75-9.29,9.3-4.54,3.19-9.25,6.09-14.5,7.99-3.31,1.2-6.69,2.14-10.25,2.2-.63,0-1.26-.13-2.02-.33-.12-.18-.12-.24-.12-.29Z"/>
      <path class="cls-5" d="M181.56,184.64c-.14-1.47-.25-2.79-.37-4.12-.18-2.11,.27-4.14,.84-6.14,.08-.29,.44-.5,.67-.75,.2,.26,.5,.5,.58,.79,.4,1.49,.68,3.01,1.11,4.49,1.44,4.99,4.31,9.12,7.91,12.77,.96,.97,2.15,1.74,3.26,2.56,.38,.28,.75,.56,.48,1.01-.14,.25-.6,.44-.91,.43-.74-.03-1.49-.12-2.2-.3-2.7-.7-5.26-1.69-7.55-3.34-2.17-1.57-3.23-3.75-3.64-6.32-.05-.32-.11-.63-.19-1.08Zm.88-1.36c.16,2.8,.93,5.35,3.08,7.3,1.83,1.67,5.66,3.44,7.12,3.32-4.97-4.74-8.68-10.2-10.14-17.03-.73,2.05-.06,4.09-.06,6.41Z"/>
      <path class="cls-8" d="M317.76,118.23c-2.87,.97-5.78,.66-8.68,.18-1.15-.19-2.27-.55-3.39-.87-.35-.1-.7-.28-.98-.51-.36-.31-.34-.69,.15-.84,.4-.12,.84-.13,1.26-.16,2.92-.22,5.83-.48,8.65-1.32,2.1-.62,4.11-1.44,5.81-2.89,.8-.69,1.38-1.47,1.45-2.56,.02-.32,.13-.62,.19-.94,.14-.76,.55-1.12,1.35-1.32,3.37-.81,6.37-2.37,8.87-4.81,.6-.58,1.02-1.34,1.57-1.98,.13-.16,.43-.26,.63-.24,.11,0,.28,.34,.27,.51-.06,.58-.14,1.17-.31,1.72-.64,2.06-1.64,3.91-3.2,5.44-.8,.78-1.61,1.38-2.78,1.32-.55-.03-.95,.12-.9,.79,.15,1.82-.76,3.14-2.24,4.33-.33,0-.43-.02-.47-.14,.99-1.59,1.97-3.07,1.72-4.97-.08-.62,.28-.69,.76-.71,1.66-.09,3.18-.61,4.22-1.95,.74-.96,1.29-2.07,1.88-3.13,.15-.27,.11-.64,.17-.99-.19,.03-.27,.02-.3,.05-2.76,2.87-6.09,4.78-9.92,5.8-.55,.15-.66,.49-.59,.95,.19,1.19-.42,2.06-1.14,2.86-.46,.51-1,.96-1.55,1.37-2.92,2.17-6.33,2.96-9.83,3.47-.79,.11-1.58,.21-2.37,.31,3.23,.74,6.43,1.23,9.69,.79,0,.22,0,.35,0,.47Zm16.07-16.46c.05,0,.1,.01,.15,.02-.02-.03-.04-.07-.15-.02Z"/>
      <path class="cls-6" d="M87.99,166.22c-2.09,2.48-4.31,4.86-6.24,7.46-2.29,3.09-3.3,6.72-3,10.54,.17,2.09,.89,4.15,1.47,6.19,.71,2.51,1.56,4.97,2.32,7.47,.73,2.43,.05,4.52-1.69,6.27-.97,.98-2.04,1.86-3.09,2.76-1.62,1.38-3.59,2.07-5.62,2.56-1.02,.25-2.1,.23-3.15,.23,1.32-.37,2.67-.65,3.94-1.15,1.28-.5,2.49-1.18,3.69-1.87,1.97-1.13,3.34-2.92,4.65-4.7,.7-.94,.67-2.04,.33-3.2-1.03-3.46-1.99-6.95-2.97-10.43-.67-2.38-.91-4.77-.6-7.26,.4-3.18,1.47-6.09,3.18-8.77,1.63-2.55,3.95-4.43,6.42-6.33,.26,.05,.32,.13,.35,.24Z"/>
      <path class="cls-6" d="M231.73,102.36c.57,.9,1.09,1.81,.91,2.96-.18,1.15-.53,2.17-1.57,2.83-.98,.63-1.95,1.28-2.95,1.89-4.69,2.88-9.75,4.99-14.79,7.13-3.67,1.56-7.38,3.05-11.16,4.31-3.17,1.05-6.46,1.73-9.7,2.57-.51,.13-1.03,.24-1.55-.47,.59-.15,1.08-.29,1.58-.39,4.46-.85,8.75-2.26,12.95-3.97,5.02-2.05,10.07-4.05,15.01-6.29,2.99-1.36,5.81-3.12,8.7-4.71,1.99-1.09,2.91-2.73,2.51-5.3,.03-.38,.05-.47,.07-.57Z"/>
      <path class="cls-6" d="M327.53,32.93c-3.46,2.4-7.23,3.78-11.13,4.95-3.8,1.14-7.21,3.17-10.5,5.36-1.31,.87-2.2,2.18-2.76,3.65-.75,1.95-.27,3.78,.74,5.49,.52,.88,1.17,1.7,1.81,2.62-.3,.02-.44,.07-.48,.02-1.72-1.8-3.17-3.75-3.31-6.36-.09-1.76,.75-3.19,1.81-4.49,1.17-1.43,2.76-2.32,4.32-3.24,3.88-2.28,8.08-3.76,12.35-5.16,2.23-.73,4.23-2.18,6.3-3.37,.71-.41,1.17-1.06,.85-2.02-.49-1.52,.22-2.7,1.45-3.38,2-1.11,4.11-2,6.18-2.97,.14-.06,.32-.11,.46-.07,.19,.05,.36,.19,.53,.3-.1,.16-.16,.4-.3,.47-.52,.27-1.07,.47-1.6,.72-1.43,.69-2.88,1.37-4.28,2.11-1.09,.58-1.63,1.5-1.42,2.77,.17,1.02,.02,1.92-1.03,2.59Z"/>
      <path class="cls-3" d="M115.85,89.79c.21-.05,.43-.17,.62-.13,.31,.06,.61,.23,.91,.35-.14,.26-.22,.61-.43,.75-.98,.63-2,1.21-3.02,1.79-3.01,1.68-5.62,3.84-7.76,6.54-1.52,1.91-3,3.86-4.5,5.79-.53,.68-.79,1.41-.89,2.32-.13,1.22-.63,2.4-1.12,3.57-.64-1.82-1.3-3.56-.87-5.54,.45-2.09,.89-4.16,1.83-6.09,1.39-2.88,3.34-5.17,6.42-6.34,1.04-.39,2.08-.81,3.24-1.13,.12,.16,.12,.23,.03,.37-1.62,.92-3.19,1.72-4.68,2.64-3.64,2.26-5.64,5.53-5.79,9.86-.01,.37-.04,.74-.03,1.12,0,.37,.05,.73,.08,1.21,3.24-7,8.06-12.26,14.82-15.82,.71-.2,1.25-.45,1.15-1.24Z"/>
      <path class="cls-3" d="M273.77,56.5c.15,.13,.15,.25,.15,.45-3.3,.32-6.57,.32-9.79-.71-2.46-.79-4.11-2.44-4.03-5.54,.07-2.97,1.26-5.46,2.71-7.89,2.42-4.06,5.79-7.19,9.71-9.76,.7-.46,1.26-.91,1.14-1.89-.04-.36,.19-.83,.43-1.15,2.14-2.86,4.82-4.92,8.44-5.58,.67-.12,1.31-.43,1.96-.67,.62-.24,1.21-.37,1.76,.22-2.25,.83-4.47,1.55-6.6,2.48-1.25,.54-2.44,1.31-3.53,2.15-.98,.76-1.68,1.81-1.56,3.16,.07,.75-.28,1.13-.91,1.49-2.41,1.38-4.75,2.9-6.59,4.99-2.76,3.14-5.1,6.59-6.09,10.72-.81,3.38,.29,5.42,3.34,6.69,1.34,.56,2.9,.69,4.37,.81,1.64,.13,3.3,.03,5.1,.04Z"/>
      <path class="cls-3" d="M267.84,81.58s.03-.03,.03-.03c.45-.12,.98-.12,1.34-.37,3.04-2.01,6.36-3.44,9.71-4.81,3.6-1.47,7.18-2.96,10.79-4.4,2.76-1.1,5.05-2.95,7.43-4.64,3.03-2.15,5.95-4.47,8.9-6.74,.71-.55,1.33-1.22,2.02-1.82,.51-.44,.49-.89,.11-1.52,0-.13,.04-.19,.04-.19,1.37,.83,1.47,1.19,.36,2.22-1.44,1.33-2.93,2.63-4.49,3.82-3.26,2.48-6.47,5.04-9.91,7.25-2.35,1.51-5.02,2.54-7.6,3.66-4.29,1.86-8.63,3.62-12.94,5.44-2.48,1.05-4.61,2.64-6.69,4.47-.68-.68-.61-.89,.58-1.39,.23-.4,.28-.66,.32-.93Z"/>
      <path class="cls-3" d="M44.73,246.84c-.21,.09-.31,.14-.41,.17-3.11,.92-3.87,.53-5.66-2.18-1.7-2.56-2.46-5.28-2.07-8.32,.05-.36,.16-.7,.33-1.46,.44,.73,.73,1.13,.95,1.58,2.12,4.29,6.81,4.82,9.98,3.88,1.7-.51,3.25-1.31,4.67-2.39,.25-.19,.73-.35,.97-.23,.55,.26,.23,.74,.03,1.09-1.45,2.57-3.03,5.02-5.8,6.39-.95,.47-1.91,.95-2.98,1.47Zm6.51-6.71c-2.71,1.4-5.57,1.63-8.54,1.1-1.95-.35-3.7-.98-4.84-2.74-.04-.07-.19-.07-.42-.14,.13,.78,.21,1.51,.37,2.23,.17,.78,.32,1.58,.64,2.3,.44,.96,.95,1.91,1.6,2.74,1.07,1.36,2.26,1.63,3.82,.92,1.35-.62,2.69-1.29,3.94-2.09,1.63-1.04,3.02-2.35,3.97-4.26-.02-.09-.05-.17-.07-.26-.08,.06-.15,.12-.46,.21Z"/>
      <path class="cls-3" d="M246.42,143.19c-1.24-.3-1.78-.81-1.77-1.66,0-.99,.6-1.63,1.78-1.89,.88-.19,1.77-.37,2.66-.51,1.84-.29,3.48-1.09,4.83-2.3,1.04-.93,1.79-2.18,2.67-3.28,.75-.93,1.2-1.03,2.19-.5,.83,.44,.99,.83,.85,1.82-.35,2.48-1.82,4.29-3.65,5.8-2.05,1.69-4.51,2.59-7.11,2.99-.74,.12-1.55-.2-2.26-.39,2.67-.1,5.1-.81,7.25-2.24,2.51-1.67,4.36-3.85,4.48-7.11,.04-.09,.02-.15,0-.22-.05,.05-.1,.1-.26,.17-.9,.79-1.77,1.49-2.46,2.33-1.46,1.8-3.32,2.92-5.54,3.45-1.02,.25-2.08,.35-3.11,.59-1.07,.26-1.51,1.17-1.1,2.17,.12,.28,.36,.51,.55,.77Z"/>
      <path class="cls-3" d="M263.07,134.35c.16-.12,.28-.12,.49-.12-.16,2.8-1,5.41-2.56,7.77-.67,1.02-1.4,2-2.14,2.97-1.83,2.4-4.46,3.49-7.28,3.87-2.08,.28-4.25,.05-6.37-.12-2.27-.18-4.32-1.17-6.25-2.3-2.06-1.2-3.98-2.64-6.02-4.06,.04-.17,.15-.24,.3-.4,2.09,1.25,4.11,2.62,6.18,3.9,4.02,2.49,8.35,2.94,12.87,1.73,1.37-.37,2.75-.83,4.02-1.47,.86-.43,1.61-1.18,2.26-1.92,2.45-2.79,3.81-6.1,4.49-9.85Z"/>
      <path class="cls-3" d="M38.09,186.09c-.4,.49-.75,1.05-1.23,1.45-.27,.22-.79,.33-1.12,.23-.24-.07-.37-.56-.51-.87-.06-.13-.03-.32,0-.47,.76-2.87,1.99-5.39,5.04-6.49,.97-.35,1.97-.44,2.95-.01,1,.43,1.11,.89,.35,1.65-.29,.29-.68,.48-1.18,.69-.15-.03-.23-.11-.18-.2,.17-.21,.31-.3,.38-.43,.18-.3,.32-.63,.48-.94-.39-.09-.79-.27-1.17-.25-2.66,.11-5.93,3.51-5.98,6.17,0,.1,.03,.26,.09,.28,.12,.05,.32,.08,.41,.01,.55-.4,1.08-.82,1.63-1.13,.01,.18,.02,.25,.03,.32Z"/>
      <path class="cls-6" d="M226.25,97.9c-1.88,.04-3.75,.08-5.73,.12,1.32-1.89,3.53-2.41,5.48-3.34-.6,.65-1.21,1.29-1.97,2.11,.81,.25,1.39,.43,2.09,.76,.12,.22,.13,.29,.13,.36Z"/>
      <path class="cls-4" d="M357.44,67.68c1.66,.26,2.87,1.32,4.03,2.4,1.55,1.44,3.02,2.95,4.42,4.64-.47-.27-.99-.47-1.39-.83-1.42-1.28-2.8-2.59-4.16-3.93-.8-.79-1.64-1.51-2.81-2-.09-.14-.09-.29-.09-.29Z"/>
      <path class="cls-4" d="M88.1,166.18c-.14-.07-.2-.15-.36-.25,.65-.56,1.33-1.16,2.1-1.6,1.74-1,3.53-1.92,5.41-2.88,.19,.08,.26,.17,.41,.3-1.14,.67-2.38,1.27-3.56,1.95-1.33,.77-2.6,1.62-4.01,2.47Z"/>
      <path class="cls-4" d="M344.12,65.35c-.13-.14-.13-.24-.13-.42,2.16,.22,4.31,.52,6.6,.93,.13,.17,.13,.23,.13,.28-2.15-.25-4.31-.5-6.6-.79Z"/>
      <path class="cls-1" d="M350.8,66.21c-.08-.14-.09-.19-.09-.34,2.26,.24,4.51,.57,6.65,1.72,.07,.09,.08,.23,.08,.3-2.18-.49-4.37-1.05-6.64-1.68Z"/>
      <path class="cls-4" d="M83.23,222.92c-.92,2.05-2.62,3.36-4.4,4.73-.13,0-.18-.06-.18-.06,.52-.59,1.03-1.19,1.56-1.77,.89-.98,1.8-1.95,2.8-2.97,.09-.04,.19,.03,.23,.08Z"/>
      <path class="cls-1" d="M110.39,91.97c0-.07,0-.15,0-.34,1.74-.69,3.47-1.27,5.33-1.85,.23,.79-.31,1.04-1.06,1.13-.45-.1-.77-.15-1.05-.07-1.08,.35-2.15,.74-3.22,1.12Z"/>
      <path class="cls-1" d="M317.89,118.23c-.13-.13-.13-.25-.02-.52,1.82-.81,3.53-1.48,5.29-2.08,.08,.1,.12,.15,.15,.19-1.52,1.34-3.4,1.91-5.43,2.41Z"/>
      <path class="cls-4" d="M370.16,75.88c.09,.13,.09,.18,.09,.32-1.39,.06-2.59-.5-3.69-1.37,1.17,.33,2.35,.65,3.61,1.05Z"/>
      <path class="cls-1" d="M226.31,97.98c-.07-.14-.07-.21-.09-.38,.85,.33,1.71,.76,2.57,1.31,.01,.12-.02,.15-.02,.15-.8-.33-1.61-.67-2.47-1.08Z"/>
      <path class="cls-1" d="M38.19,186.04c-.1-.02-.11-.09-.07-.36,.74-.77,1.44-1.35,2.17-1.89,.03,.04,.09,.11,.09,.11-.7,.69-1.4,1.39-2.19,2.13Z"/>
      <path class="cls-1" d="M231.72,102.26c-.01,.2-.03,.3-.08,.54-.45-.54-.86-1.23-1.27-1.92,.97,.02,1.11,.69,1.36,1.38Z"/>
      <path class="cls-4" d="M187.26,121.05c.52,.58,1.03,1.17,1.55,1.87,0,.11,0,.12,0,.12-.94-.18-1.11-1.07-1.59-1.81,0-.13,.05-.17,.05-.17Z"/>
      <path class="cls-4" d="M188.8,123.03c.73-.03,1.4,.09,2.07,.72-.92,.29-1.46-.08-2.03-.61-.05-.1-.05-.1-.04-.1Z"/>
      <path class="cls-1" d="M41.62,183.02c-.35,.29-.69,.57-1.14,.87-.1,.01-.16-.06-.14-.18,.44-.45,.85-.78,1.27-1.01,0,.18,0,.25,0,.32Z"/>
      <path class="cls-1" d="M324.6,114.84c-.36,.3-.73,.61-1.19,.95-.13,0-.17-.05-.19-.23,.39-.41,.77-.68,1.21-.89,.09,.1,.13,.14,.17,.18Z"/>
      <path class="cls-1" d="M229.45,99.34c.05,0,.12,0,.15,.03,.23,.24,.46,.49,.69,.73-.08,.04-.21,.14-.23,.12-.22-.2-.41-.41-.62-.74,0-.12,.02-.14,.02-.14Z"/>
      <path class="cls-4" d="M246.18,79.84c-.13-.06-.14-.12-.13-.25,.12-.12,.21-.17,.32-.32,.14-.09,.23-.14,.34-.29,.17-.09,.31-.12,.55-.13-.25,.35-.61,.67-1.08,1Z"/>
      <path class="cls-6" d="M186.22,120.6c-.46-.06-.91-.12-1.37-.18l-.02-.29c.38,0,.76,0,1.27,.14,.12,.2,.12,.27,.12,.34Z"/>
      <path class="cls-4" d="M306.63,55.81c.17,.16,.33,.31,.5,.47-.26-.09-.52-.19-.73-.37,.11-.09,.17-.09,.23-.1Z"/>
      <path class="cls-4" d="M186.29,120.66c-.06-.13-.06-.2-.06-.37,.22,.03,.43,.16,.64,.4,0,.1,0,.11,0,.11-.17-.03-.35-.05-.59-.14Z"/>
      <path class="cls-4" d="M78.07,227.94c.14-.11,.27-.22,.5-.34,.09-.01,.13,.04,.16,.07-.13,.22-.29,.41-.55,.52-.1-.14-.11-.19-.11-.25Z"/>
      <path class="cls-4" d="M308.14,57.13c-.2-.12-.38-.27-.55-.42,.19,.05,.38,.11,.6,.25,.03,.09-.02,.15-.05,.17Z"/>
      <path class="cls-6" d="M306.6,55.72c-.03,.09-.09,.09-.24,.1-.19-.14-.29-.29-.38-.43,.2,.08,.39,.16,.62,.33Z"/>
      <path class="cls-1" d="M228.82,99.01c.19,.04,.36,.1,.58,.25,.05,.08,.03,.11,.02,.12-.19-.04-.36-.1-.59-.24-.05-.08-.03-.11-.01-.13Z"/>
      <path class="cls-6" d="M97.37,96.52c-.09-.03-.11-.13-.16-.38-.04-.15-.02-.25,.1-.28,.18-.03,.24-.03,.3-.03,0,0,.03,.03,.05,.04-.06,.2-.14,.38-.28,.64Z"/>
      <path class="cls-1" d="M324.95,114.03c.09,.02,.19,.04,.43,.09,0,.14-.14,.25-.42,.32-.18-.08-.22-.12-.24-.21,.07-.14,.14-.18,.23-.19Z"/>
      <path class="cls-4" d="M80.1,167.11s.04,0,.13-.09c.05-.07,.05-.05,.05-.04,0,0-.14,.07-.18,.14Z"/>
      <path class="cls-4" d="M187.19,121.12c-.11-.04-.19-.1-.3-.24-.02-.08-.02-.08-.01-.08,.1,.04,.2,.08,.34,.19,.04,.07,0,.12-.03,.14Z"/>
      <path class="cls-1" d="M324.87,114.46c.01,.15-.05,.23-.2,.34-.1,0-.14-.04-.2-.21,.04-.21,.12-.27,.22-.31,.04,.04,.08,.08,.17,.17Z"/>
      <path class="cls-6" d="M441.93,24.47c-.1-.03-.18-.09-.29-.25-.04-.07-.04-.06-.04-.06,.11,.02,.2,.08,.29,.25,.03,.07,.04,.06,.04,.06Z"/>
      <path class="cls-6" d="M441.6,24.15s-.1-.06-.1-.06c0,0,.06,.02,.08,.05,.02,.03,.02,.02,.03,.02Z"/>
      <path class="cls-3" d="M41.7,182.97c-.08-.02-.08-.09-.04-.32,.04-.16,.17-.2,.22-.15,.05,.05,.15,.16,.15,.16-.08,.09-.16,.17-.32,.31Z"/>
      <path class="cls-3" d="M42.29,182.28c.01,.15-.04,.23-.2,.34-.07,.04-.16-.06-.18-.19,.06-.21,.15-.26,.26-.27,0,0,.08,.08,.12,.12Z"/>
      <path class="cls-6" d="M77.99,227.97c.08,.03,.08,.08,.09,.23,0,.09-.13,.15-.2,.16s-.12-.04-.14-.07c.04-.11,.11-.2,.25-.31Z"/>
      <path class="cls-1" d="M97.58,95.72c-.04,.12-.1,.11-.24,.11-.06-.12-.02-.23,.08-.41,.1,.02,.12,.1,.16,.3Z"/>
      <path class="cls-2" d="M438.8,72.41c.21-.17,.43-.21,.77-.26,1.24,.84,2.61,.87,3.89,.89,1.91,.04,3.83-.08,5.72-.29,4.27-.47,8.3-1.78,12.1-3.79,1.08-.57,2.08-1.28,3.25-1.92,.13,0,.17,.04,.17,.04-1.01,2.32-2.74,4.06-4.84,5.33-2.94,1.78-6.24,2.65-9.6,3.26-2.09,.38-4.19,.68-6.28,1.02-.55,.09-.94,.33-1.16,.94-.66,1.87-1.99,3.3-3.48,4.48-2.87,2.28-5.77,4.54-8.84,6.53-2.13,1.37-4.52,2.38-6.87,3.35-2.5,1.03-5.1,1.83-7.65,2.72-.35,.12-.73,.26-.93-.37,.45-.18,.96-.13,1.36-.32,1.81-.86,3.66-1.68,5.37-2.73,3.8-2.34,7.34-5.04,10.63-8.08,1.73-1.59,3.46-3.15,4.7-5.15,1.04-1.68,1.89-3.45,1.69-5.66Z"/>
      <path class="cls-2" d="M464.64,67.03c.04-.08,.09-.14,.15-.2,0,.07,.02,.14-.03,.23-.06,.02-.1-.01-.12-.03Z"/>
      <path class="cls-9" d="M235.7,87.71s-.07-.08-.07-.08c0,0,.11,.05,.07,.08Z"/>
      <path class="cls-2" d="M274.5,182.99c2.02-1.17,4.07-2.12,5.89-3.39,6.54-4.55,12.14-10.02,16.03-17.09,.18-.33,.37-.65,.6-.94,.53-.64,1.1-1.25,1.76-1.99,.4,1.48-.24,2.64-.49,3.97-1.06,2.32-2.08,4.53-3.16,6.71-1.93,3.92-5.22,6.58-8.81,8.77-5.42,3.3-11.25,5.73-17.47,7.16-.35,.08-.71,.12-1.11,.03,2.23-1.05,4.45-2.1,6.76-3.23Z"/>
      <path class="cls-2" d="M103.33,230.21c1.09-1.01,2.16-2.03,3.26-3.02,1.25-1.13,2.15-2.51,2.82-4.02,.8-1.8,1.52-3.63,2.21-5.46,.24-.63,.27-1.34,.42-2.01,.08-.39,.19-.77,.37-1.48,1.61,7.89-2.01,13.53-8.89,16.06-.14-.02-.18-.06-.18-.06Z"/>
      <path class="cls-2" d="M103.4,230.27c-.04,.08-.1,.13-.16,.19,0-.07-.02-.13,.03-.22,.06-.03,.1,.02,.12,.04Z"/>
      <path class="cls-2" d="M229.05,34.19c-.51,.38-.98,.66-1.51,1.04-1.32,1.31-2.66,2.45-3.81,3.76-1.92,2.19-1.94,4.84-1.49,7.53,.13,.78,.34,1.55,.5,2.46-.01,.13-.02,.14-.02,.14-1.39-1.56-2.44-3.37-3.05-5.34-.53-1.73,.04-3.44,1.23-4.75,1.25-1.36,2.72-2.52,4.18-3.84,1.35-.73,2.6-1.39,3.86-2.04,.28-.14,.57-.25,1.01-.35,.15,.02,.21,.1,.21,.1-.36,.4-.71,.8-1.11,1.3Z"/>
      <path class="cls-2" d="M222.72,49.11c.09,.09,.17,.17,.25,.27,0,0-.09,.09-.13,.14-.04-.08-.08-.16-.12-.32,0-.08,0-.08,0-.09Z"/>
      <path class="cls-2" d="M27.11,177.04c1.26-3.45,3.54-5.69,6.9-6.87-3.2,2.13-5.83,4.71-7.13,8.48,.06-.5,.12-1,.22-1.61Z"/>
      <path class="cls-2" d="M231.04,32.47c-.23,.13-.46,.25-.78,.4-.1,.02-.16-.06-.19-.09,.23-.14,.49-.24,.86-.32,.11,.02,.11,.02,.11,.02Z"/>
      <path class="cls-2" d="M231.04,32.47s.07-.03,.06-.02c-.06,.02-.06,.02-.06,.02Z"/>
      <path class="cls-2" d="M5.75,200.14c.75-.34,1.52-.67,2.42-.98,.14,.02,.19,.06,.19,.06-.96,1.22-1.92,2.43-2.95,3.74q-.25-1.1,.35-2.71c0-.12,0-.1,0-.11Z"/>
      <path class="cls-2" d="M8.29,199.16s.11,0,.12,.04c-.05,.03-.1-.02-.12-.04Z"/>
      <path class="cls-2" d="M298.82,152.47c-.17,.33-.33,.56-.49,.78-.13-.21-.34-.4-.37-.62-.04-.38,.03-.77,.32-1.24,.18,.32,.36,.65,.55,1.08Z"/>
      <path class="cls-2" d="M401.26,97.13c-.14,.3-.28,.52-.47,.67-.06,.04-.4-.14-.4-.17,.1-.44,.12-1.04,.87-.5Z"/>
      <path class="cls-2" d="M173.98,92.19c.3,0,.52,.05,.75,.11-.06,.1-.15,.29-.17,.29-.22-.1-.44-.22-.59-.4Z"/>
      <path class="cls-9" d="M130.01,147.74c-.07,.16-.18,.28-.3,.4,0-.13,.01-.27,.09-.45,.07-.05,.16,.02,.21,.05Z"/>
      <path class="cls-9" d="M267.76,81.68c.04,.15,0,.42-.15,.78-.04-.16,.01-.41,.15-.78Z"/>
    </g>
  </g>
</svg>