<?xml version="1.0" encoding="UTF-8"?>
<svg id="Layer_2" data-name="Layer 2" xmlns="http://www.w3.org/2000/svg" viewBox="0 0 279.21 394.28">
  <defs>
    <style>
      .cls-1 {
        fill: #1e1032;
      }

      .cls-2 {
        fill: #3a183a;
      }

      .cls-3 {
        fill: #2f0b31;
      }

      .cls-4 {
        fill: #6c283c;
      }

      .cls-5 {
        fill: #3f1e3f;
      }

      .cls-6 {
        fill: #895784;
      }
    </style>
  </defs>
  <g id="Layer_4" data-name="Layer 4">
    <g>
      <path class="cls-1" d="M275.2,300.77c-.02,.3-.04,.48-.12,.73-.55,.25-.65,.66-.68,1.23-1.57,5.1-3.76,9.79-6.47,14.27-4.43,7.33-10.12,13.63-16.01,19.79-1.94,2.03-4.05,3.9-5.88,6.05-.38,.45-.83,.83-1.52,1.05-5.57,4.11-11.68,7.05-17.72,10.08-5.77,2.9-11.79,5.21-17.98,7.1-5.41,1.65-10.83,3.26-16.33,4.57-7.3,1.74-14.62,3.4-22.12,4.24-6.68,.75-13.35,1.33-20.08,1.21-1.42-.02-2.7,.63-4.1,.64-3.68,.04-7.3-.52-10.91-1.16-.42-.07-.84-.13-1.27-.11-4.48,.14-8.95-.06-13.42-.35-8.3-.54-16.54-1.56-24.69-3.3-6.62-1.41-13.19-3.02-19.74-4.76-2.64-.7-5.05-1.96-7.68-2.71-4.54-1.3-9.06-2.68-13.4-4.64-3.84-1.74-7.58-3.67-11.33-5.58-3.33-1.7-6.52-3.59-9.56-5.76-6.16-4.4-11.58-9.5-15.87-15.79-3.57-5.24-7.23-10.43-10.22-16.03-2.17-4.05-3.83-8.36-4.65-12.89-.91-4.98-2.14-9.9-2.7-14.93-.6-5.4-.41-10.78,.39-16.19,.72-4.89,1.34-9.8,2.73-14.53,2.55-8.71,5.48-17.27,11.3-24.49,1.64-2.03,2.77-4.43,4.42-6.61,.32-.83,.8-1.35,1.6-1.69,1.55,.05,1.28-1.38,1.94-2.14,1.42-1.52,2.21-3.44,4.05-4.58,.98-.94,1.88-1.78,2.76-2.83,7.97-6.55,16.26-12.42,25.39-17.03,1.57-.79,3.27-1.29,4.92-1.9,1.14-.42,1.62-1.08,1.5-2.27-.06-.58-.03-1.17,0-1.76,.02-.7-.33-1.07-.97-1.27-6.54-2.07-12.99-4.39-19.46-6.69-3.15-1.12-6.36-2.17-9.01-4.38-.9-.75-1.39-1.58-1.4-2.72-.01-1.12-.05-2.24,.01-3.36,.12-2.24,1.22-3.58,3.4-4.04,2.08-.44,4.17-.81,6.33-.76,5.22,.12,10.47,.29,15.66,.04,6.71-.32,13.42-.19,20.12-.38,1.85-.05,3.7-.43,5.67-.63,.56-.09,1-.12,1.57-.14,2.97-.24,5.76,.37,8.57,.42,3.84,.07,7.67,0,11.51,.02,9.37,.07,18.73,.56,28.09,.63,6.7,.05,13.42,.38,20.09-.77,2.73-.47,5.53-.27,8.3-.12,7.4,.39,14.79,.31,22.2,.02,5.75-.23,11.5-.13,17.25,.06,4.89,.16,9.77,.61,14.67,.6,1.55,0,3.06,.4,4.6,.54,6.6,.6,13.21,.21,19.81,.28,2.2,.02,4.36,.24,6.5,.7,2.89,.62,3.74,1.89,3.11,4.9-.05,.14-.04,.27-.08,.32-2.01,2.04-4.44,3.4-6.8,4.85-1.26,.77-2.64,1.13-4.07,1.36-.75,.12-1.41,.32-1.84,1.09-.47,.84-1.43,1.07-2.24,1.47-4.51,2.23-9.32,3.68-14.01,5.43-1.07,.4-1.8,1.28-2.93,1.57-2,.51-4.03,.14-6.03,.41-1.05,.14-2.13,.02-3.19,.02-.21,0-.03,.28-.07,.07,0-.04,.04-.06,.14-.06,3.03,.02,6.06,.02,9.07-.42,.7-.1,1.12,.23,1.26,.91,.1,.47,.09,.95,.05,1.43-.19,2.4-.15,2.33,1.91,3.41,8.2,4.33,16.66,8.2,23.99,14,2.64,2.08,5.2,4.26,7.6,6.61,3.01,2.94,6.15,5.75,8.78,9.06,1.33,1.67,2.67,3.37,3.6,5.27,1.82,3.7,4.37,6.93,6.36,10.52,3.49,6.31,5.27,13.13,6.3,20.19,.86,5.96,1.28,11.97,1.54,17.98,.11,2.47-.18,4.99-.27,7.49-.16,4.59-1.12,9.09-1.54,13.64-.11,1.18-.75,2.22-.73,3.54Z"/>
      <path class="cls-2" d="M19.73,221.45c-.04,1.54-1.12,2.52-1.81,3.68-1.16,1.96-2.55,3.78-3.89,5.63-1.4,1.93-2.57,4.03-3.77,6.09-.69,1.19-1.45,2.4-1.82,3.7-.74,2.54-2.09,4.88-2.44,7.54-.09,.73-.35,1.47-.7,2.11-1.43,2.68-1.7,5.68-2.42,8.55-.95,3.81-1.09,7.75-1.89,11.59-.14,.67-.03,1.38-.05,2.07-.03,1.11,.07,2.22-.26,3.33-.16,.54-.17,1.2-.02,1.74,.4,1.47,.18,2.97,.29,4.44,.19,2.37,.48,4.75,1.12,7.04,.7,2.51,.94,5.09,1.41,7.64,.72,3.93,1.81,7.75,3.5,11.37,.67,1.44,1.19,2.93,2.03,4.31,2.49,4.08,4.82,8.25,7.7,12.07,1.85,2.46,3.33,5.17,5.33,7.52,.1,.12,.15,.29,.26,.4,2.35,2.37,4.41,5.05,7.26,6.87,1.85,1.18,3.29,2.84,5.15,4,2.29,1.43,4.4,3.12,6.85,4.3,3.31,1.6,6.52,3.38,9.81,5.02,2.86,1.42,5.79,2.67,8.8,3.73,.55,.19,1.09,.42,1.61,.7,.77,.41,1.54,.67,2.44,.62,1.16-.07,2.15,.6,3.16,1.01,1.48,.59,3.07,.78,4.53,1.45,4.16,1.92,8.7,2.66,13.08,3.91,4.53,1.29,9.19,2.07,13.79,3.07,3.18,.69,6.46,1.1,9.72,1.49,2.2,.26,4.42,.45,6.61,.83,.16,.03,.32,.07,.47,.06,2.4-.16,4.77,.25,7.15,.4,4.04,.25,8.08,.22,12.12,.26,.21,0,.49-.05,.63,.06,1.13,.88,2.44,.5,3.68,.58,.37,.03,.76,0,1.11,.1,2.02,.62,4.1,.55,6.17,.53,.26,0,.56,.03,.79-.08,1.57-.73,3.23-.62,4.87-.54,3.52,.17,7.02-.18,10.51-.41,3.31-.22,6.63-.61,9.93-1.13,2.98-.47,6-.73,8.93-1.42,2.53-.6,5.08-1.07,7.59-1.69,3.14-.78,6.26-1.58,9.39-2.42,5.9-1.58,11.78-3.26,17.49-5.42,2.87-1.09,5.75-2.19,8.51-3.57,3.8-1.9,7.56-3.88,11.34-5.79,2.87-1.45,5.42-3.31,8.02-5.14,.13-.09,.29-.13,.55-.19,.44,.41,.23,.75-.13,1.17-1.99,1.88-4.09,3.4-6.35,4.88-2.95,.51-4.92,2.6-7.4,3.98-.6,.33-1.12,.58-1.62,.87-.21,.12-.48,.25-.3,.7-2.74,1.21-5.43,2.46-8.17,3.61-5.86,2.46-11.9,4.36-18.02,6.05-.15,.04-.3,.11-.39,.25-.09,.24,.04,.41,.22,.53,7.82,5.64,15.39,11.65,23.7,16.58,4.61,2.73,9.63,4.27,14.97,4.74,1.67,.15,3.29-.36,4.82-.99,1.82-.75,3.6-1.61,5.31-2.6,1.4-.81,1.47-1.29,.56-2.69-1.75-2.69-3.85-5.11-6.07-7.41-3.4-3.52-6.56-7.28-10.41-10.36-2.25-1.8-4.13-4-6.16-6.04-.36-.37-.78-.77-.41-1.47,1.18,.21,1.85,1.09,2.65,1.76,6.32,5.33,12.42,10.89,18.02,16.98,1.34,1.46,2.52,3.04,3.66,4.64,1.37,1.92,1.22,3.61-.46,5.29-.48,.49-1.07,.87-1.65,1.26-1.78,1.18-3.72,2.07-5.63,3.02-1.71,.85-3.52,1.2-5.43,1.01-2.33-.23-4.65-.48-6.89-1.24-1.44-.5-2.62-1.45-3.82-2.3-6.09-4.3-12.42-8.22-18.72-12.19-3.2-2.01-6.51-3.85-9.59-6.04-.52-.37-1.05-.75-1.5-1.2-.64-.63-1.31-.86-2.26-.45-.26,.02-.4,.05-.64,.13-.24,.1-.38,.16-.64,.2-1.16,.06-2.12,.45-3.2,.8-.24,.09-.39,.13-.65,.15-.25,0-.39,.03-.63,.08-.62,.35-1.21,.44-1.91,.55-.94,.01-1.7,.23-2.57,.51-.24,.09-.39,.13-.64,.15-.25,0-.39,.03-.63,.07-.52,.33-1.05,.27-1.63,.45-.42-.14-.6,.12-.94,.22-.33,.1-.57,.18-.94,.23-.27,0-.41,.03-.65,.07-.34,.1-.58,.18-.95,.25-.38,.02-.65,.02-.99,.14-.33,.09-.58,.14-.95,.16-.47,.06-.84,0-1.28,.18-.24,.09-.39,.13-.64,.16-1.13-.05-2.1,.29-3.19,.45-.25,.09-.39,.14-.65,.17-1.47-.28-2.74,.22-4.15,.45-.53,.26-1,.2-1.58,.21-.6,.06-1.07-.02-1.63,.11-.41,.25-.77,.21-1.26,.21-.59,.05-1.06,0-1.62,.05-1.16,.32-2.26,.21-3.48,.29-1.57,.01-3-.11-4.51,.17-.97,.28-1.86,.19-2.73,.15-.81-.03-1.31,.11-1.21,1.07,.03,.3-.06,.62-.18,1.05-.6,1.71-.52,3.39-.84,5.11-.13,.58-.23,1.05-.41,1.63-.3,.76-.53,1.41-.55,2.22-.05,.28-.09,.46-.19,.71-.88,.84-.81,1.96-1.26,3.01-.89,1.77-1.89,3.36-3.11,4.75-1.28,1.46-2.98,2.19-4.96,2.17-2.13-.01-4.25,.02-6.35-.56-2.35-.65-4.25-1.72-5.48-3.99-1.31-2.43-2.18-4.95-2.57-7.67-.46-3.16-1.1-6.3-.86-9.52,.06-.76-.32-.97-1.06-.99-7.2-.25-14.33-1.13-21.42-2.37-4.52-.78-8.96-1.87-13.43-2.85-2.71-.59-5.37-1.33-8.04-2.08-.6-.17-1.05-.37-1.51,.5-.56,1.07-1.79,1.64-2.79,2.34-3.2,2.22-6.17,4.73-9.3,7.04-5.53,4.08-11.1,8.13-17.22,11.3-3.61,1.87-7.46,3.14-11.53,3.64-2.13,.26-4.13-.02-6.03-1.06-2.07-1.12-4.01-2.42-5.82-3.92-1.17-.97-1.73-2.28-2.04-3.71-.23-1.08,.26-1.97,.83-2.84,1.92-2.91,4.29-5.43,6.68-7.94,5.49-5.76,11.55-10.88,17.66-15.96,.07-.06,.1-.17,.21-.4-1.29-.69-2.57-1.4-3.88-2.06-1.23-.62-2.37-1.31-3.4-2.28-1.23-1.15-2.76-1.97-4.18-2.91-1.64-1.09-3.37-2.06-4.92-3.26-4.36-3.35-8.34-7.1-11.63-11.54-2.06-2.78-4.24-5.47-6.32-8.24-3.17-4.23-5.79-8.78-7.93-13.62-2.96-6.68-4.23-13.79-5.62-20.89-.98-5.02-1.05-10.05-.86-15.11,.08-2.14,.63-4.2,.85-6.32,.62-5.88,1.73-11.69,3.42-17.35,2.01-6.7,4.97-13.01,8.6-19,1.91-3.15,3.91-6.22,6.34-9.11,.17-.1,.25-.15,.44-.11Z"/>
      <path class="cls-6" d="M164.68,59.66c.87-.08,1.52,.22,2.27,.57,1.72,1.02,3.39,1.88,5.16,2.82,.09,.07,.06,.08,.06,.06,.06,.08,.13,.16,.28,.28,.07,.05,.04,.04,.04,.03,.29,.4,.84,.46,1.23,.91,.08,.06,.06,.07,.05,.05,2.51,1.92,4.01,4.42,4.51,7.59,.91,5.76-1.2,10.69-4.17,15.33-1.03,1.62-2.72,2.8-4.53,3.44-4.33,1.53-8.78,2.63-13.45,1.96-2.58-.37-4.91-1.38-6.97-3.23-.1-.08-.07-.1-.07-.08-.05-.08-.12-.16-.27-.29-.07-.05-.04-.05-.04-.03-.06-.08-.13-.16-.28-.29-.07-.05-.04-.02-.05-.01-.44-.63-1.16-1.06-1.54-1.88-.08-.07-.05-.07-.06-.06-2.7-3.48-3.49-7.43-2.82-11.73,.66-4.28,2.44-8,5.59-11.02,.62-.59,1.29-1.1,2.03-1.53,3.99-2.34,8.17-3.8,13.01-2.89Z"/>
      <path class="cls-2" d="M275.27,300.8c-.6-.36-.36-.87-.15-1.36,.37-.91,.45-1.85,.41-2.82-.08-1.88,.62-3.64,.77-5.5,.13-1.63,.37-3.25,.55-4.88,.34-3.06,0-6.16,.56-9.2,.03-.16,.06-.33,.02-.48-.57-2.07-.03-4.24-.55-6.32-.08-.31-.08-.63-.08-.95,.05-2.24-.4-4.43-.57-6.64-.2-2.65-.56-5.26-1.04-7.86-.61-3.33-1.51-6.58-2.59-9.79-1.05-3.1-2.62-5.9-4.13-8.75-.25-.47-.5-.94-.83-1.36-1.55-1.97-2.67-4.18-3.88-6.36-1.78-3.19-3.96-6.11-6.47-8.8-2.18-2.33-4.51-4.5-6.81-6.69-3.14-3-6.43-5.84-10.05-8.29-3.7-2.5-7.39-4.99-11.42-6.92-2.97-1.42-5.85-2.99-8.75-4.55-.65-.35-1.31-.69-2.03-.92-1.33-.43-1.53-.71-1.2-2.09,.2-.85,.26-1.67,.24-2.52,0-.54-.3-.84-.8-.72-2.21,.55-4.45,.17-6.68,.27-1.12,.05-2.24,.02-3.36,0-.29,0-.65,.1-.79-.32,.11-.35,.41-.32,.65-.26,1.9,.44,3.78,.38,5.68,.02,.82-.16,1.7-.03,2.55-.06,1.21-.05,2.48,0,3.18-1.32,.1-.2,.35-.2,.55-.28,3.49-1.25,6.98-2.46,10.44-3.79,1.92-.74,3.78-1.65,5.65-2.51,.52-.24,1.31-.33,1-1.3-.09-.29,.3-.35,.57-.4,.68-.13,1.34-.32,2.02-.4,2.08-.26,3.76-1.41,5.45-2.49,1.33-.86,2.8-1.55,3.82-2.83,.21-.26,.53-.34,.98-.35,.11,.05,.12,.1,.11,.16-.4,2.97-2.74,4.13-5.06,5.14-4.3,1.86-8.58,3.74-12.86,5.65-1.7,.75-3.49,1.29-5.25,1.91-1.81,.63-3.63,1.24-5.43,1.88-1.22,.43-1.22,.45-1.21,1.69,.01,1.01,.08,2.03,.06,3.04-.02,.69,.22,1.08,.9,1.29,4.22,1.25,7.97,3.52,11.79,5.62,4.12,2.26,7.75,5.26,11.71,7.78,4.58,2.92,8.39,6.69,12.21,10.48,4.51,4.47,8.09,9.63,11.49,14.89,6.03,9.33,9.72,19.58,11.18,30.64,.58,4.39,1.01,8.78,1.29,13.18,.36,5.56-.16,11.06-1.38,16.5-.75,3.31-1.38,6.65-2.45,10Z"/>
      <path class="cls-5" d="M248.45,170.67c-.1-.35-.12-.77-.12-1.2,0-1.91-1.01-2.91-2.91-3.32-3.1-.66-6.22-.65-9.35-.63-3.78,.02-7.57,0-11.35,0-3.24,0-6.46-.25-9.63-.9-.16-.03-.34-.1-.47-.05-1.74,.65-3.51,.14-5.19-.09-3.12-.44-6.28,.14-9.37-.54-.2-.05-.43-.02-.64-.02-5.49,0-11-.27-16.47,.07-6.66,.41-13.31,.21-19.95,.18-2.8-.01-5.62-.23-8.44-.26-2.45-.03-4.84,.5-7.26,.8-.58,.07-1.15,.17-1.74,.17-2.88,0-5.76,0-8.64,0-3.45,0-6.9,.13-10.34-.04-2.84-.15-5.69-.06-8.51-.53-.25-.04-.53,0-.79,.03-2.27,.35-4.54,.35-6.81-.01-.52-.08-1.06-.08-1.59-.08-5.17,0-10.34-.03-15.51,0-2.03,.01-4.02-.16-6-.58-1.09-.23-2.23,.08-3.44-.26,1.94-.58,4.03-.53,6.09-.38,3.13,.22,6.27,.02,9.38,.33,1.89,.19,3.63-.52,5.48-.39,1.8,.13,3.63-.03,5.44,.05,4.89,.21,9.79,.21,14.69,.47,2.75,.15,5.52-.08,8.28-.04,3.07,.05,6.15,.17,9.23,.23,2.24,.05,4.51,.41,6.75-.27,1-.3,2.1-.31,3.16-.39,7.29-.57,14.58-.27,21.87-.27,3.44,0,6.88,.33,10.31,.11,5.7-.37,11.36,.37,17.05,.41,1.7,.01,3.41-.2,5.09-.17,2.16,.04,4.33,.1,6.49,.2,2.55,.12,5.11-.06,7.65,.23,.68,.08,1.34,.13,2.02,.29,1.08,.26,2.21,.35,3.32,.38,3.29,.09,6.6,.45,9.87-.33,.65-.15,1.28,.02,1.9,.09,2.79,.29,5.6,.44,8.34,1.09,2.47,.58,3.44,2.48,2.49,4.81-.1,.25-.21,.49-.41,.81Z"/>
      <path class="cls-4" d="M252.67,21.95c.1,1.59,0,3.02-.18,4.45-.33,2.73-1.18,5.26-2.97,7.43-1.38,1.68-2.52,3.59-4.04,5.11-2.13,2.12-4.74,3.55-7.72,4.29-3.66,.91-7.29,.67-10.93-.03-1.78-.34-3.54-.72-5.25-1.36-3.81-1.41-6.89-3.87-9.36-6.98-1.79-2.26-2.71-5.05-3.18-7.92-.67-4.05-.32-8.04,.74-12,.69-2.58,1.93-4.81,3.85-6.69,2.49-2.43,5.09-4.69,8.29-6.15,3.02-1.37,6.12-2.28,9.51-2.07,4.92,.31,9.08,2.27,12.82,5.39,3.31,2.77,5.48,6.34,7.35,10.13,.66,1.33,.71,2.88,.91,4.35,.08,.63,.1,1.27,.18,2.06Z"/>
      <path class="cls-5" d="M82.11,163.37c.07,.32-.09,.51-.39,.53-2.84,.26-5.66,.77-8.55,.69-4.1-.11-8.22-.24-12.3,.03-7.4,.49-14.79,.07-22.18,.29-1.57,.05-3.16,.37-4.68,.77-1.78,.47-2.61,1.68-2.65,3.52-.03,1.33,0,2.66-.01,4,0,.58,.21,.95,.68,1.33,1.93,1.54,4.03,2.67,6.34,3.58,2.52,.99,5.06,1.95,7.61,2.82,3.62,1.22,7.14,2.73,10.81,3.81,1.48,.43,2.85,1.17,4.37,1.46,.68,.13,.96,.53,.92,1.24-.05,1.01-.04,2.02-.02,3.04,.02,.76-.29,1.12-1.03,1.37-1.85,.63-3.72,1.27-5.49,2.11-1.96,.93-3.83,2.04-5.71,3.14-2.38,1.39-4.81,2.7-7.05,4.32-3.31,2.39-6.62,4.78-9.87,7.25-.91,.7-1.75,1.5-2.77,2.24-.41,.28-.75,.38-1.24,.16,1.45-2.18,3.75-3.38,5.79-4.87,3.65-2.67,7.34-5.32,11.17-7.73,4.55-2.87,9.22-5.56,14.35-7.28,.93-.31,1.2-.74,1.23-1.68,.06-2.59,.12-2.6-2.26-3.39-4.9-1.62-9.82-3.2-14.71-4.86-4.07-1.38-8.1-2.84-11.95-4.78-.56-.28-.91-.62-1.17-1.2-.98-2.15-1.22-4.39-1-6.71,.08-.81,.4-1.54,.77-2.25,.5-.97,1.27-1.59,2.37-1.66,.82-.05,1.57-.26,2.32-.53,.25-.09,.52-.19,.77-.17,4.09,.3,8.17-.15,12.26-.06,1.6,.03,3.22-.11,4.79,.11,2.77,.4,5.48-.13,8.21-.21,2.91-.09,5.83-.23,8.75-.12,3.78,.14,7.54-.5,11.47-.29Z"/>
      <path class="cls-4" d="M222.41,129.38c-.37,1.08-.75,2.02-1.03,2.98-1.04,3.55-3.53,5.79-6.75,7.23-6.02,2.68-12.2,3.19-18.52,1.04-.66-.23-1.33-.48-1.82-.97-2.51-2.51-4.68-5.15-5.19-8.91-.81-6.06,.64-11.53,3.93-16.54,1.96-2.99,4.8-4.94,8.24-5.98,.15-.05,.38,0,.46-.1,1.12-1.32,2.55-.77,3.86-.58,5.05,.76,9.65,2.62,13.48,6.08,2.84,2.57,4.1,5.86,4.26,9.65,.09,2.06-.28,4.02-.93,6.08Z"/>
      <path class="cls-5" d="M244.27,344.72c-.01-.34,.09-.69,.2-1.15,.74-.17,1.14-.7,1.49-1.23,.3-.45,.61-.88,1.02-1.22,2.83-2.28,5.06-5.15,7.62-7.7,1.98-1.98,3.7-4.23,5.54-6.35,1.95-2.24,3.75-4.59,5.38-7.06,2.26-3.41,4.39-6.91,6.04-10.66,.92-2.09,1.73-4.23,2.63-6.44,.11-.16,.17-.22,.34-.21-.4,2.64-1.44,5.03-2.31,7.48-1.87,5.22-4.96,9.75-8.16,14.19-2.14,2.98-4.46,5.83-6.73,8.71-2.18,2.76-5,4.85-7.62,7.16-1.74,1.54-3.6,2.93-5.46,4.47Z"/>
      <path class="cls-4" d="M149.02,89.51c.63-.13,1,.32,1.45,.59,3.15,1.87,6.42,2.78,10.19,2.27,2.81-.38,5.56-.91,8.24-1.73,2.22-.68,3.99-2.17,5.31-4.1,.63-.92,1.11-1.94,1.63-2.93,.92-1.75,1.74-3.53,1.79-5.57,.01-.41,.19-.82,.3-1.24,.08-.31,.26-.62,.24-.92-.24-3.36,.06-6.88-2.82-9.47-.59-.53-1.02-1.22-1.56-1.94,1.61,.41,2.47,1.75,3.2,3.13,1.88,3.52,2.42,7.24,1.29,11.12-.72,2.46-1.67,4.83-2.83,7.11-1.25,2.43-3.25,4.1-5.71,5.12-4.54,1.89-9.25,2.85-14.2,2.01-2.54-.43-4.75-1.52-6.53-3.47Z"/>
      <path class="cls-4" d="M164.68,59.56c-.15,.43-.52,.41-.89,.31-2.47-.67-4.94-.24-7.17,.66-4.16,1.68-7.99,3.9-10.11,8.21-1.23,2.51-2.2,5.08-2.19,7.89,.02,5.43-.5,3.82,2.02,8.81,.19,.38,.33,.78,.5,1.29-1.93-1.95-3.26-4.35-3.33-7.2-.1-4.37,.7-8.54,3.09-12.35,1.8-2.87,4.31-4.78,7.27-6.25,2.78-1.38,5.73-1.8,8.79-1.69,.64,.02,1.28,.04,2,.34Z"/>
      <path class="cls-4" d="M240.08,107.51c2.36,1.9,1.83,4.31,1.44,6.68-.05,.29-.29,.57-.5,.8-2.51,2.73-7.27,3.13-10.05-.38-1.13-1.43-1.13-3.08-.48-4.67,.83-2.03,2.27-3.32,4.58-3.67,1.86-.28,3.45,.12,5.02,1.25Z"/>
      <path class="cls-5" d="M19.94,221.48c-.17,.04-.25,.04-.44,.03,1.69-2.51,3.7-4.85,5.86-7.06,.63-.65,1.28-1.28,2.02-1.96,.36,.19,.4,.46,.22,.9-.1,.18-.11,.24-.15,.27-1.47,1.06-2.38,2.6-3.47,4-.09,.12-.27,.17-.5,.3-.6,.83-1.15,1.56-1.92,2.23-.57,.43-1.04,.84-1.61,1.29Z"/>
      <path class="cls-5" d="M230.5,353.55c-.07-.27,.02-.53,.27-.65,1.68-.87,3.08-2.16,4.73-3.09,.72-.4,1.31-.5,2.16-.28-2.18,1.51-4.65,2.69-7.16,4.02Z"/>
      <path class="cls-4" d="M172.15,63.02c-.22,.08-.52,.13-.73,.02-1.48-.77-2.99-1.49-4.35-2.63,1.79,.51,3.5,1.35,5.08,2.61Z"/>
      <path class="cls-5" d="M149.41,379.79c-.44-.38-.33-.91-.14-1.41,.23-.62,.33-1.32,.11-1.87-.32-.82,.19-1.16,.67-1.67,.08,1.62-.28,3.23-.64,4.95Z"/>
      <path class="cls-5" d="M168.45,371.44c.12-.74,1.02-.21,1.21-.62,.51-1.08,1.05-.63,1.7-.23,.25,.15,.62,.11,1.02,.23-1.21,.27-2.5,.46-3.93,.61Z"/>
      <path class="cls-5" d="M154.38,372.48c-.08-.29,.06-.54,.36-.52,1.27,.08,2.55-.48,3.88,.17-1.31,.18-2.7,.28-4.24,.35Z"/>
      <path class="cls-3" d="M27.61,213.49c-.1-.22-.1-.49-.12-.89,.38-.6,.76-1.06,1.24-1.57,.43-.05,.76-.06,1.22-.06-.52,.96-1.42,1.69-2.35,2.52Z"/>
      <path class="cls-5" d="M147.03,387.41c-.13-1.06-.46-2.29,1.01-2.99,.08,1.07-.4,2-1.01,2.99Z"/>
      <path class="cls-5" d="M173.24,370.8c.58-.51,1.75-.77,2.97-.61-.86,.42-1.85,.52-2.97,.61Z"/>
      <path class="cls-5" d="M192.44,367c.69-.95,1.82-.92,2.99-.96-.86,.51-1.87,.73-2.99,.96Z"/>
      <path class="cls-5" d="M186.68,368.3c.51-.8,1.37-.82,2.34-.67-.65,.42-1.44,.52-2.34,.67Z"/>
      <path class="cls-4" d="M146.83,86.93c.68,.35,1.35,.81,1.62,1.74-.86-.18-1.19-.96-1.62-1.74Z"/>
      <path class="cls-5" d="M148.46,383.65c-.6-.72-.05-1.36,.34-2.09,.08,.66-.08,1.33-.34,2.09Z"/>
      <path class="cls-5" d="M162.35,371.99c.29-.58,.82-.4,1.4-.18-.38,.12-.84,.17-1.4,.18Z"/>
      <path class="cls-5" d="M165.23,371.75c.24-.71,.8-.46,1.4-.27-.38,.15-.83,.22-1.4,.27Z"/>
      <path class="cls-4" d="M173.83,64.28c-.54,0-1.01-.17-1.31-.77,.63-.21,.9,.36,1.31,.77Z"/>
      <path class="cls-5" d="M177.06,370.2c.08-.67,.54-.55,1.08-.34-.28,.17-.62,.26-1.08,.34Z"/>
      <path class="cls-5" d="M179.29,369.86c.03-.51,.33-.58,.79-.29-.19,.15-.44,.23-.79,.29Z"/>
      <path class="cls-3" d="M274.72,302.7c-.14,.09-.2,.09-.37,.11-.04-.45-.32-1.06,.55-1.23,.05,.35-.03,.69-.18,1.12Z"/>
      <path class="cls-5" d="M181.19,369.46c.02-.31,.17-.47,.51-.2-.12,.12-.27,.18-.51,.2Z"/>
      <path class="cls-5" d="M182.81,369.17c.03-.35,.28-.44,.7-.33-.13,.14-.37,.25-.7,.33Z"/>
      <path class="cls-5" d="M185.35,368.49c.02-.3,.17-.46,.51-.19-.12,.12-.27,.17-.51,.19Z"/>
      <path class="cls-5" d="M191.12,367.21c.02-.29,.16-.46,.5-.2-.11,.12-.27,.17-.5,.2Z"/>
      <path class="cls-5" d="M196.24,365.99c0-.3,.11-.51,.5-.25-.11,.13-.26,.2-.5,.25Z"/>
      <path class="cls-4" d="M172.54,63.34c-.12,.04-.22-.02-.34-.16,.1-.04,.24,.01,.34,.16Z"/>
      <path class="cls-4" d="M148.73,89.18c.13-.06,.23,0,.35,.15-.14,.18-.28,.14-.35-.15Z"/>
      <path class="cls-4" d="M148.42,88.86c.12-.06,.21,0,.34,.15-.14,.18-.27,.14-.34-.15Z"/>
      <path class="cls-3" d="M249.39,298.13c1.89-2.52,3.56-5.04,4.73-7.85,.33-.79,.89-1.44,1.23-2.23,.86-2.02,1.3-4.15,1.82-6.26,.33-1.33-.04-2.75,.43-4.11,.45-1.3,1.07-1.72,2.41-1.4,.27,.07,.55,.16,.64,.42,.26,.83,.76,1.62,.7,2.67-.89-.32-.81-1.31-1.43-1.66-.18,.03-.36,.1-.35,.27,.15,2.52-.83,4.78-1.65,7.08-.99,2.75-2.04,5.48-3.47,8.04-1.68,3.01-3.65,5.8-5.7,8.57-2.84,3.83-6.26,7.09-9.57,10.47-1.31,1.33-2.84,2.41-4.19,3.67-1.98,1.84-4.11,3.47-6.21,5.15-2.57,2.06-5.19,4.04-7.85,5.98-1.63,1.19-3.43,2.21-4.83,3.62-1.39,1.4-3.04,2.47-4.36,3.92-.62,.68-1.42,1.12-2.1,1.7-.45,.39-1.02,.37-1.42-.12-.39-.49-.08-.91,.3-1.24,.32-.28,.65-.55,1.02-.76,2.97-1.69,5.47-4.02,8.26-5.95,2.97-2.06,5.57-4.58,8.51-6.67,1.12-.79,2.05-1.84,3.08-2.77,2.02-1.81,4.33-3.26,6.33-5.07,1.18-1.07,2.28-2.24,3.44-3.34,2.63-2.49,4.91-5.29,7.2-8.09,1.04-1.28,2.11-2.52,3.06-4.01Z"/>
      <path class="cls-3" d="M259.1,301.05c.77-2.61,1.47-5.11,2.21-7.59,.53-1.79,.95-3.59,.78-5.48-.06-.62-.02-1.26,.71-1.72,.41,.7,.37,1.45,.19,2.03-.43,1.45-.29,2.95-.49,4.41-.25,1.8-.63,3.56-1.15,5.27-1.04,3.45-2.13,6.89-3.67,10.18-.97,2.07-2.02,4.09-3.07,6.12-.45,.87-1.13,1.56-1.73,2.28-2.61,3.15-5.48,6.02-8.82,8.46-2.79,2.04-5.67,3.95-8.61,5.72-3.03,1.82-6.27,3.37-9.83,4.02-2.81,.51-5.6,1.08-8.4,1.6-.35,.06-.74,.16-1.01-.18-.04-.21,.08-.33,.23-.36,3.82-.67,7.53-1.63,11.16-3.06,5.2-2.05,9.77-5.08,14.25-8.31,1.98-1.43,3.93-2.88,5.66-4.64,3.11-3.16,5.69-6.71,7.97-10.5,1.27-2.11,2.05-4.42,2.99-6.67,.21-.49,.39-.99,.63-1.6Z"/>
      <path class="cls-3" d="M126.08,181.85c2.24,0,4.32,0,6.39,0,.37,0,.75,0,1.12,.04,.15,.01,.34,.09,.31,.29-.02,.14-.09,.3-.19,.4-.25,.25-.58,.21-.9,.22-3.87,.12-7.7,.66-11.58,.73-1.59,.03-3.29-.02-4.88,.51-.24,.08-.54,.08-.79,.02-2.53-.59-5.09-.32-7.63-.25-1.58,.04-3.19,.5-4.74,.19-1.49-.3-3-.4-4.44-.18-2.13,.33-4.26,.39-6.36,.2-2.6-.22-5.22-.03-7.79-.33-2.57-.3-5.19-.13-7.72-.87-.7-.2-1.43,.13-2.3,.13,.44-.73,1-.82,1.59-.8,2.22,.1,4.47-.27,6.68,.29,.35,.09,.74,.02,1.12,.03,1.86,0,3.73-.03,5.59,0,5.21,.11,10.43-.18,15.62-.42,6.92-.32,13.83-.04,20.9-.22Z"/>
      <path class="cls-3" d="M115.36,188.04c3.64-.05,7.11-.53,10.59-.83,3.62-.31,7.22-.08,10.83-.23,.37-.02,.75-.05,1.08,.17,.31,.21,.62,.45,.64,.86,.03,.53-.43,.5-.75,.66-.5,.24-1.03,.22-1.56,.22-1.6,0-3.2,.07-4.79-.01-3.41-.17-6.79,.24-10.18,.43-2.65,.15-5.32,.34-7.95,.17-3.02-.2-6.06-.04-9.06-.33-2.24-.21-4.53-.1-6.72-.76,.03-.54,.42-.45,.7-.45,4.47,0,8.94-.03,13.42,0,1.2,0,2.39,.6,3.75,.09Z"/>
      <path class="cls-2" d="M230.45,178.06c.85,0,1.48-.3,2.14-.51,.51-.16,.99-.3,1.75,.21-1.69,.43-3.12,1-4.58,1.11-1.93,.15-3.74,.77-5.6,1.14-1.52,.3-3.05,.35-4.57,.51-3.42,.37-6.87,.5-10.3,.78-3.73,.3-7.44,.15-11.16,.23-3.46,.07-6.93,.07-10.39,0-3.57-.07-7.11,.56-10.67,.34-.25-.02-.65-.01-.75,.13-.38,.58-.82,.9-1.56,.82-1.55-.16-3.18,.36-4.89-.67,1.26-.32,2.3-.47,3.36-.63,2.95-.45,5.94-.02,8.88-.59,.41-.08,.85-.02,1.28-.02,5.12,0,10.24-.09,15.35,.03,4.1,.1,8.19-.22,12.27-.43,3.26-.17,6.54-.46,9.8-.79,3.23-.33,6.34-1.21,9.67-1.64Z"/>
      <path class="cls-2" d="M187.98,185.27c-2.2,.2-4.28-.06-6.33,.4-.51,.12-1.08-.02-1.19,.74-.08,.57-.56,.58-.99,.55-1.96-.11-3.92,.15-5.89-.23-1.22-.24-2.54-.27-3.8,.13-.62,.2-1.29,.18-1.9,.08-.95-.16-1.87-.36-2.8,.01-.09,.04-.21,0-.32,0-.3-.03-.52-.17-.5-.49,.01-.22,.19-.38,.42-.4,.32-.03,.64-.04,.96-.04,1.6,0,3.21,.11,4.8-.03,2.32-.2,4.65-.25,6.96-.54,1.46-.18,2.95-.24,4.43-.38,1.53-.15,3.04-.48,4.6-.35,.2,.02,.43-.06,.6-.17,1.12-.72,1.83-.68,3.28,.28-.72,.42-1.53,.03-2.32,.44Z"/>
      <path class="cls-3" d="M15.87,236.19c-.54,2.23-.61,4.38-.78,6.52-.07,.95,.29,1.94,.5,3.12-1-.61-1.11-1.52-1.14-2.26-.08-1.95-.08-3.9,.32-5.86,.77-3.78,2.4-7.22,3.82-10.75,.65-1.61,.95-3.37,2.05-4.79,.15-.2,.21-.5,.67-.46-1.8,4.81-3.6,9.59-5.44,14.49Z"/>
      <path class="cls-2" d="M192.65,187.6c-1.1-.05-2.05,.13-3.04-.14,.76-.6,5.07-.71,6.88-.15-1.34,.5-2.54,.18-3.84,.29Z"/>
      <path class="cls-2" d="M186.34,187.28c-1.67-.01-3.21-.03-4.75-.05-.08,0-.16-.11-.24-.17,.95-.62,4.31-.58,5.82,.08-.19,.24-.46,.1-.82,.14Z"/>
      <path class="cls-2" d="M177.74,183.12c-.39-.01-.75,.06-.85-.2-.15-.37,.23-.47,.46-.41,1.48,.4,3.02,.23,4.75,.36-.56,.72-1.12,.64-1.55,.49-.89-.29-1.78-.24-2.81-.25Z"/>
      <path class="cls-3" d="M21.44,220.34c.35-1,1-1.65,1.83-2.29,.1,1.13-.74,1.94-1.29,2.83-.34,.56-.47-.11-.54-.55Z"/>
      <path class="cls-2" d="M184.71,183.41c.55,.1,1.07-.1,1.58,.59-1.28-.14-2.32-.25-3.55-.39q.91-.47,1.98-.2Z"/>
      <path class="cls-2" d="M198.26,187.29c-.33-.01-.54-.03-.74-.04v-.16h3.37c-.81,.31-1.66,.15-2.63,.2Z"/>
      <path class="cls-2" d="M203.12,187.28c.03-.52,.42-.53,.8-.42,.14,.04,.09,.29-.09,.35-.2,.06-.41,.06-.71,.07Z"/>
      <path class="cls-3" d="M214.59,336.26c.26-.07,.35,.02,.31,.22,0,.04-.07,.1-.11,.11-.2,.03-.29-.07-.2-.32Z"/>
      <path class="cls-1" d="M48.37,383.22c-2.39,1.06-4.69,2.03-7.08,2.75-1.83,.55-3.69,.94-5.61,1.02-1.86,.07-3.59-.3-5.19-1.26-1.9-1.15-3.93-2.09-5.57-3.67-.58-.56-.71-.99-.36-1.64,.15-.28,.25-.6,.43-.86,1.65-2.34,3.37-4.62,5.3-6.75,2.57-2.85,5.26-5.57,7.98-8.26,2.64-2.62,5.47-5.05,8.08-7.71,.81-.82,1.79-1.47,2.44-2.47,.36-.55,.81-.66,1.5-.36,3.8,1.64,7.61,3.27,11.47,4.77,2.27,.89,4.62,1.56,6.94,2.29,2.37,.75,4.76,1.45,7.14,2.18,.2,.06,.43,.08,.56,.55-9.14,6.6-17.96,13.8-28.03,19.42Z"/>
      <path class="cls-1" d="M228.59,355.2c-.2,.65,.3,.97,.67,1.33,3.01,3,5.96,6.07,9.3,8.72,.94,.75,1.84,1.61,2.51,2.67,.25,.4,.62,.73,.96,1.06,2.75,2.67,5.32,5.49,7.76,8.44,.94,1.14,1.77,2.39,2.59,3.62,.62,.94,.56,1.36-.35,2.03-.72,.53-1.52,.99-2.33,1.37-2.4,1.13-4.74,2.41-7.42,2.78-.52,.07-1.07,.1-1.59,.05-4.96-.51-9.67-1.91-14.06-4.29-1.67-.91-3.27-1.96-4.87-3.01-2.4-1.57-4.77-3.17-7.08-4.86-2.95-2.16-5.9-4.32-8.85-6.48-1.24-.91-2.49-1.81-3.75-2.69-.4-.27-.83-.48-1.04-1.05,.38-.45,.97-.5,1.51-.65,1.94-.53,3.87-1.09,5.79-1.7,1.82-.57,3.61-1.22,5.43-1.79,3.96-1.25,7.75-2.92,11.5-4.67,.97-.45,1.95-.84,3.18-.87,.14-.03,.12,0,.14,0Z"/>
      <path class="cls-1" d="M131.8,392.86c-1.24-.51-2.05-1.3-2.7-2.33-1.28-2.03-2.31-4.16-2.9-6.51-.12-.5-.19-.95,.19-1.34,.59-.61,1.1-1.35,1.86-1.74,1.94-1,3.89-1.99,6.15-2,.14,0,.29-.1,.45-.16-1.28-.93-3.83-.07-8.87,2.98-.68-1.18-.76-2.53-.99-3.79-.32-1.82-.61-3.66-.52-5.53,.03-.51,.15-.73,.77-.65,1.53,.19,3.07-.05,4.59-.03,2.96,.04,5.91-.4,8.87-.15,.11,0,.23-.02,.32,.03,1.62,1.01,3.41,.57,5.13,.58,1.24,0,2.42,.26,3.64,.36,.36,.03,.61,.14,.53,.59-.79,4.16-1.37,8.35-2.53,12.44-.09,.31-.2,.61-.32,.9-.09,.2-.25,.35-.49,.32-.27-.03-.31-.26-.33-.47-.02-.26-.03-.53-.02-.8,.02-.45-.16-.83-.37-1.21-.13-.23-.29-.5-.6-.4-.36,.1-.28,.42-.19,.66,.31,.84,.19,1.64,.02,2.5-.35,1.87-1.54,3.24-2.57,4.71-.21,.3-.53,.54-.71,.85-.42,.73-1.07,1-1.86,1.03-2.19,.09-4.35-.08-6.56-.82Z"/>
      <path class="cls-4" d="M149.76,82.2c-1.02-.62-1.42-1.77-1.52-2.9-.16-1.9,.04-3.81,1.15-5.49,.49-.75,1.72-1.04,2.51-.58,.25,.14,.46,.37,.37,.64-.49,1.55-.73,3.14-.63,5.07-.77-.64-.97-1.08-.77-1.72,.23-.76,.24-1.57,.65-2.28,.21-.37,.3-.89-.11-1.16-.46-.3-.92-.05-1.28,.31-.91,.92-1.1,2.14-1.32,3.34-.25,1.38,.29,2.6,.74,3.84,.09,.25,.16,.5,.2,.92Z"/>
      <path class="cls-4" d="M151.75,83.25c-.51-.02-.83-.17-1.14-.45,2.36-.49,2.04-.36,1.8-2.4,.87,.55,.96,.7,.89,1.49-.08,.88-.55,1.35-1.56,1.37Z"/>
      <path class="cls-4" d="M153,70.1c-.31-.11-.54-.17-.69-.3-.51-.46-.38-.95,.03-1.38,.31-.32,1.41-.12,1.73,.34,.34,.49,.15,.91-.35,1.17-.18,.1-.4,.13-.72,.17Z"/>
      <path class="cls-4" d="M149.79,82.3c.08,.03,.19,.1,.18,.15-.02,.11-.1,.12-.21-.03-.03-.05,.01-.1,.03-.12Z"/>
      <path class="cls-6" d="M251.16,27.84c-1.14,3.85-3.04,7.07-5.69,9.96-2.46,2.68-5.41,4.01-8.87,4.5-1.52,.22-2.99,.72-4.56,.68-5.47-.13-10.53-1.61-14.88-4.94-4.03-3.08-6.52-7.16-7.28-12.3-.42-2.86-.01-5.58,.47-8.37,.42-2.42,1.22-4.61,2.68-6.56,2.52-3.37,5.5-6.18,9.48-7.78,1.46-.59,2.82-1.36,4.38-1.8,3.75-1.04,7.3-.41,10.73,1.06,6.17,2.64,10.38,7.23,12.94,13.4,1.23,2.97,1.55,6.05,1.28,9.22-.08,.96-.65,1.81-.67,2.92Z"/>
      <path class="cls-6" d="M194.05,130.99c-1.82-3.04-2.45-6.29-2.71-9.66-.23-3.06,1.19-5.45,3.05-7.63,2.76-3.22,6.38-4.88,10.54-5.39,1.27-.15,2.56,.13,3.77,.46,3.7,1.02,6.92,2.99,9.86,5.41,.9,.75,1.64,1.7,2.12,2.77,.92,2.03,1.78,4.07,2.12,6.32,.23,1.54-.18,2.96-.55,4.35-.55,2.04-1.31,4.04-2.15,5.99-1.21,2.8-3.47,4.57-6.26,5.59-3.61,1.33-7.34,2.13-11.23,2.05-2.03-.04-3.72-.75-5.17-2.12-.23-.22-.46-.43-.69-.65-.12,.09-.24,.13-.26,.2-.12,.39,.58,.8,.04,1.14-.45,.28-.75-.19-1.1-.42-2.66-1.75-4.23-4.28-5.24-7.23-.31-.92-.5-1.85-.47-2.82,.07-2.18-.19-4.37,.37-6.52,.08-.31,.15-.62,.48-.91,.28,1.62,.44,3.22,.84,4.75,.41,1.57,.75,3.24,2.35,4.29,.31,.14,.56,.14,.83,.38,.6,1.23-.29,2.41,.21,3.59,.2,.48,.31,1.08,.45,1.69,.02,.06,.09,.15,.06,.09-.78-1.68-.52-3.41-.61-5.2-.19-.29-.37-.41-.67-.55Z"/>
      <path class="cls-6" d="M190.91,121.15s-.05-.12-.06-.19c.03,.05,.07,.1,.06,.19Z"/>
      <path class="cls-6" d="M197.25,140.06s.04,.05,.04,.05c0,0-.07-.04-.04-.05Z"/>
      <path class="cls-6" d="M239.95,108.33c.97,1.37,.99,2.9,1.27,4.34,.14,.72-.33,1.32-.86,1.8-1.78,1.63-3.92,2.12-6.22,1.77-2.44-.37-4-3.51-2.94-5.7,.35-.71,.73-1.41,1.09-2.11,.37-.71,.98-1.23,1.72-1.3,1.77-.17,3.61-.65,5.2,.67,.2,.17,.44,.29,.74,.53Z"/>
      <path class="cls-1" d="M179.51,186.24c-.26,.08-.47,.14-.64-.03-.02-.02,0-.1,.02-.1,.24-.12,.48-.16,.62,.14Z"/>
      <path class="cls-6" d="M152.83,69.38c-.07-.43,.13-.53,.44-.44,.16,.05,.27,.22,.19,.36-.11,.21-.34,.22-.63,.08Z"/>
      <path class="cls-4" d="M242.14,29.57c-1.01,1.9-4.45,2.83-6.33,1.82-.8-.43-1.02-1.22-.55-2.02,.31-.52,.78-.85,1.3-1.14,1.21-.68,2.37-1.42,3.07-2.68,.13-.24,.28-.47,.58-.49,1-.05,2.02-.21,2.97,.3,1.03,.55,1.16,1.05,.6,2.34-.38-.08-.23-.39-.27-.61-.27-1.27-2.06-1.95-2.97-1.05-1.25,1.24-2.59,2.34-4.12,3.22-.49,.28-.64,.69-.5,1.21,.13,.5,.5,.62,.96,.67,1.56,.15,2.91-.5,4.26-1.12,.29-.13,.54-.33,1-.45Z"/>
      <path class="cls-4" d="M243.96,21.54c-.72,.61-1.58,.63-2.26,.16-.66-.46-.48-1.12-.36-1.73,.14-.7,.44-.86,1.3-.88-1,2.16-.95,2.3,1,2.39,.2-.03,.27-.04,.32,.06Z"/>
      <path class="cls-4" d="M243.81,21.5c.58-.84,0-1.46-.52-2.16,1.71,.44,1.89,1.02,.75,2.26-.11,.04-.19-.05-.23-.1Z"/>
      <path class="cls-4" d="M242.5,29.24c.1,.12,.04,.21-.11,.33-.06,.05-.14-.03-.18-.07,.01-.13,.08-.21,.28-.26Z"/>
      <path class="cls-4" d="M242.55,29.19c.04-.05,.13-.32,.11,.03-.05,.03-.09,0-.11-.03Z"/>
      <path class="cls-4" d="M214.06,133.48c-1.21,1.06-3.17,1.05-4.26,.06-.6-.54-.75-1.81-.28-2.65,.23-.41,.52-.81,.84-1.15,2-2.11,2.77-4.71,3.03-7.51,.12-1.33,.5-1.67,1.82-1.47,3.37,.52,4.05,3.27,3.49,6.01-.39,1.88-1.19,3.62-2.66,5.05-.51-1.27,.37-2.15,.84-3.11,.79-1.6,1.23-3.17,.46-4.89-.24-.54-.49-1.07-.99-1.42-.94-.65-2.18-.24-2.12,.81,.16,2.88-1.34,5.06-2.76,7.31-.2,.31-.42,.62-.55,.97-.43,1.14-.03,1.72,1.21,1.7,.48,0,.95-.08,1.54,.05,.18,.07,.25,.11,.4,.25Z"/>
      <path class="cls-4" d="M211.65,116.73c-1.12-.29-1.33-.73-.87-1.42,.38-.58,1.27-.9,1.99-.63,.67,.25,1.23,.69,1.29,1.47,.05,.61-.17,1.19-.68,1.53-.51,.34-1.02,.17-1.41-.45,.31-.43,.86-.44,.8-1-.02-.22-.22-.36-.44-.34-.39,.03-.4,.4-.66,.83Z"/>
      <path class="cls-4" d="M195.53,137.23c-1.05-1.03-1.16-2.46-1.06-3.93,.04-.57,.05-1.14,.09-1.87,.46,.03,.76,.42,.61,.84-.55,1.46,.08,2.8,.34,4.17,.04,.21,.04,.42,.02,.79Z"/>
      <path class="cls-4" d="M195.54,137.35c.27,.02,.49,.11,.5,.42,0,.04-.06,.1-.09,.1-.24,.05-.34-.11-.43-.39-.02-.09,0-.12,.02-.13Z"/>
      <path class="cls-4" d="M193.96,130.93c.19,.05,.35,.12,.56,.27,.05,.08,.03,.09,.03,.1-.19-.04-.36-.09-.6-.21-.06-.07-.01-.13,.01-.16Z"/>
      <path class="cls-4" d="M214.84,132.83c.07,.18-.07,.3-.36,.33-.1-.23,0-.33,.36-.33Z"/>
      <path class="cls-4" d="M211.84,117.21c-.1-.05-.19-.1-.31-.23-.02-.08,0-.09,0-.09,.15-.05,.27-.02,.34,.21-.02,.1-.03,.11-.03,.12Z"/>
      <path class="cls-4" d="M214.43,133.24c-.02,.12-.09,.2-.24,.3-.07,.04-.13-.03-.15-.07-.01-.16,.04-.25,.24-.31,.09,0,.13,.06,.16,.09Z"/>
      <path class="cls-4" d="M215.18,132.62c.16,.06,.1,.15-.06,.25-.07,.03-.08,.02-.09,.01-.01-.08-.02-.15,.15-.26Z"/>
      <path class="cls-4" d="M216.01,131.94c-.02,.12-.08,.2-.27,.2-.06-.12-.02-.18,.12-.23,.1,0,.13,.02,.15,.04Z"/>
      <path class="cls-4" d="M215.68,132.25c-.02,.11-.08,.2-.25,.29-.07,.03-.08,.02-.08,.02-.06-.15-.02-.26,.21-.34,.1,.01,.11,.03,.12,.03Z"/>
      <path class="cls-4" d="M238.01,112.81c.12,.31,.08,.63,.05,1.06,0,.12-.08,.24-.02,.21,.31-.14,.55-.23,.91-.35-.47,1.07-1.05,1.31-2.42,1,.45-.65,.89-1.28,1.48-1.92Z"/>
      <path class="cls-4" d="M239.45,113.3c-.09-.67-.1-1.41-.09-2.15,0-.26,.01-.59,.38-.55,.36,.04,.55,.35,.46,.7-.18,.66-.43,1.3-.75,2.01Z"/>
      <path class="cls-4" d="M238.06,112.71c.02-.83,.6-1.55,.32-2.42,.41,.81,.53,1.59-.12,2.43-.09,.08-.16,.02-.19-.01Z"/>
      <path class="cls-4" d="M239.03,113.68c.05-.1,.1-.19,.24-.3,.08-.02,.09-.01,.09,0-.05,.1-.1,.19-.22,.31-.08,.03-.1,0-.11,0Z"/>
      <path class="cls-6" d="M215.69,132.16c-.11,.13-.2,.19-.31,.33-.11,.13-.21,.18-.33,.31-.21,.12-.39,.17-.63,.29-.15,.11-.24,.16-.36,.29-.73,.13-1.42,.18-2.1,.26-1.37,.17-2.13-.75-1.63-2.05,.19-.49,.53-.92,.83-1.35,.61-.87,1.13-1.79,1.65-2.72,.71-1.29,1.14-2.6,.98-4.1-.06-.6-.18-1.33,.6-1.65,.8-.34,2.1-.03,2.59,.62,1.35,1.82,1.61,3.75,.58,5.81-.56,1.14-1.23,2.23-1.6,3.58-.11,.15-.19,.21-.27,.38Z"/>
      <path class="cls-6" d="M211.97,117.2c-.15-.11-.21-.19-.37-.28-.08-.19-.11-.34-.1-.5,.02-.51-.05-1.13,.74-1.09,.58,.03,1.01,.35,1.09,.93,.11,.8-.43,.96-1.08,.94-.05,0-.1,0-.28,0Z"/>
      <path class="cls-6" d="M238.09,114.02c-.03,.14-.1,.18-.18,.12,0,0,.03-.07,.09-.13,.05-.02,.08,0,.09,.01Z"/>
    </g>
  </g>
</svg>