<?xml version="1.0" encoding="UTF-8"?>
<svg id="Layer_2" data-name="Layer 2" xmlns="http://www.w3.org/2000/svg" viewBox="0 0 640 174.45">
  <defs>
    <style>
      .cls-1 {
        fill: #201439;
      }

      .cls-2 {
        fill: #25173d;
      }

      .cls-3 {
        fill: #24173c;
      }

      .cls-4 {
        fill: #2a2349;
      }

      .cls-5 {
        fill: #3c2654;
      }

      .cls-6 {
        fill: #20193b;
      }
    </style>
  </defs>
  <g id="Layer_14" data-name="Layer 14">
    <g>
      <path class="cls-2" d="M640,174.36c-1.77,.08-3.53-.03-5.3-.03-87.81-.01-175.61-.03-263.42-.02-123.24,.02-246.49,.06-369.73,.09-.43,0-.86,0-1.42,.06-.13-46.87-.13-93.78-.02-140.84,4.3-.71,8.47-1.48,12.68-1.78,3.21-.23,6.46,.15,9.69,.22,5.27,.1,10.45,.87,15.5,2.3,5.45,1.55,10.81,3.42,16.24,5.07,5.65,1.72,11.07,3.92,16.02,7.18,3.58,2.36,7.17,4.72,10.67,7.21,3.57,2.54,7.06,5.19,10.53,7.86,2.08,1.6,4.19,3.19,6.04,5.03,3.42,3.4,6.75,6.9,9.94,10.51,2.49,2.81,4.78,5.8,7.03,8.8,2.65,3.55,5.2,7.18,7.73,10.82,1.56,2.26,3.04,4.57,4.48,6.91,1.53,2.5,3,4.99,5.81,6.34,5.4,2.6,11.15,3.55,17.05,3.65,4.09,.06,8.2-.07,12.27-.4,2.63-.22,5.28-.75,7.81-1.52,4.78-1.47,9.53-2.9,14.58-2.93,2.3-.02,4.6-.14,6.89,.03,2.84,.21,5.76,.33,8.47,1.09,6.01,1.69,11.99,3.54,17.82,5.76,4.47,1.7,8.81,3.87,12.99,6.21,4.64,2.6,9.01,5.67,13.55,8.46,1.39,.85,2.93,1.45,4.42,2.18,1.14-3.17,1.41-3.33,3.98-2.79,4.83,1.01,8.46,4.08,11.97,7.23,2.37,2.13,4.43,4.62,6.66,6.91,1.02,1.05,1.87,.99,2.92,0,1.45-1.35,2.85-2.76,4.41-3.97,3.62-2.8,7.85-4.18,12.31-4.93,4.08-.68,8.16-1.36,12.25-1.96,2.49-.37,5-.65,7.51-.91,3.22-.34,6.44-.61,9.67-.92,1.28-.12,2.55-.28,3.83-.4,2.48-.24,4.96-.53,7.45-.67,1.39-.08,2.8,.14,4.2,.14,1.87,0,3.74-.21,5.6-.12,4.33,.21,8.65,.74,12.98,.78,6.45,.06,12.9,.21,19.27,1.23,5.77,.92,11.62,1.75,17.2,3.4,8.32,2.46,16.47,5.49,24.61,8.49,5.05,1.86,9.96,4.09,14.91,6.21,3.46,1.49,6.93,2.98,10.3,4.66,4.05,2.02,7.89,4.46,12,6.32,4.21,1.91,8.59,3.46,12.98,4.93,2.28,.76,4.72,.99,7.15,.28,3.01-.88,5.99-1.94,9.07-2.48,3.78-.66,7.64-1.04,11.47-1.22,3.46-.16,6.94,.05,10.41,.2,2.63,.11,5.27,.21,7.86,.61,2.25,.34,4.44,1.07,6.64,1.67,5.83,1.59,11.73,2.95,17.51,5.88,.2-1.32,.3-2.47,.57-3.58,.56-2.36,1.09-4.74,1.86-7.03,1.07-3.21,2.05-6.5,3.59-9.48,2.89-5.59,6.14-10.96,10.8-15.38,3.65-3.46,7.37-6.82,11.65-9.43,3.73-2.28,7.64-4.29,11.52-6.32,1.63-.85,3.38-1.5,5.11-2.13,2.77-1.02,5.54-2.09,8.38-2.89,3.48-.99,6.99-1.99,10.55-2.5,3.22-.46,6.53-.28,9.8-.36,1.59-.04,2.13-.76,1.96-2.35-.12-1.06-.14-2.21,.14-3.21,1.24-4.4,3.76-8.09,6.73-11.5,4.62-5.3,10.4-9.12,16.41-12.61,1.75-1.02,3.67-1.71,5.52-2.56v94.54ZM105.64,134s.05,.03,.08,.04c-.03-.04-.07-.09-.13-.34-1.09-1.84-1.95-3.88-3.32-5.48-2.16-2.52-4.63-4.78-7.01-7.11-4.13-4.04-9.14-6.68-14.44-8.83-3.32-1.34-6.67-2.61-10.29-2.87-2.54-.18-5.12-.61-7.62-.35-1.77,.18-3.14,.21-4.28-1.25-.2-.26-.49-.46-.76-.65-5.65-4.01-11.56-7.5-18.09-9.93-4.93-1.83-10.04-2.51-15.21-3.07-3.7-.4-7.09,.88-10.59,1.56-.19,.04-.35,.21-.83,.51,2.51,.52,4.69,.94,6.86,1.44,5.04,1.16,9.66,3.06,12.73,7.54,.28,.41,.61,1.29,.45,1.42-.45,.4-1.12,.68-1.73,.74-1.69,.16-3.46-.12-5.06,.31-3.97,1.06-7.1,3.47-9.35,6.9-1.15,1.75-1.97,3.69-1.79,5.9,.2,2.56,1.81,3.76,4.23,3.03,1-.3,1.97-.72,2.95-1.11,5.76-2.3,11.42-4.87,17.53-6.17,4.25-.9,8.26-.7,12.07,1.85,2.5,1.67,4.56,3.7,6.41,5.96,1.2-.78,2.26-1.83,3.52-2.21,2.85-.86,5.8-1.43,8.73-2.04,3.39-.71,6.79-.31,10.08,.48,7.85,1.87,14.8,5.54,20.86,10.92,1.19,1.06,2.64,1.83,4.01,2.82Zm481.32-6.41c-1.61,.57-3.24,1.09-4.81,1.74-3.79,1.54-7.39,3.41-10.78,5.76-3.3,2.29-6.55,4.64-9.14,7.71-2.17,2.56-4.16,5.32-5.88,8.2-1.89,3.17-3.6,6.5-3.88,10.32-.02,.3,.05,.6,.08,.91,.32-.12,.69-.19,.95-.39,.3-.22,.5-.57,.75-.86,2.47-2.9,4.78-5.95,7.45-8.66,2.46-2.5,5.16-4.82,8-6.87,3.66-2.64,7.38-5.3,11.4-7.3,5.78-2.87,11.87-5.12,17.8-7.68,1.58-.68,3.19-1.39,4.26-2.87-1.92-1.93-4.35-1.31-6.38-1.32-3.19,0-6.38,.82-9.81,1.32Zm-385.82-10.22c-2.49-.33-5-.97-7.48-.92-3.36,.07-6.74,.51-10.05,1.12-2.25,.41-4.43,1.33-6.6,2.11-.87,.32-.84,.98,.04,1.24,1.64,.48,3.3,.92,4.99,1.17,4.69,.71,9.44,1.14,14.09,2.02,4.15,.79,8.23,1.97,12.31,3.1,4.82,1.33,9.6,2.79,14.41,4.19,1.88,.55,3.72,1.33,5.85,.77-1.52-1.54-3.03-3.08-4.79-4.23-3.65-2.37-7.32-4.76-11.2-6.71-3.55-1.79-7.32-3.22-11.57-3.86Z"/>
      <path class="cls-4" d="M640,2.4c0,24.95,0,49.89-.11,74.97-2.29,1.21-4.5,2.24-6.65,3.38-6.81,3.59-13.14,7.82-18.03,13.91-3.43,4.28-6.38,8.75-6,14.59,.05,.82-.3,1.04-1.09,1.08-2.95,.14-5.94,.11-8.84,.61-4.49,.78-9.02,1.63-13.34,3.05-5.88,1.93-11.76,3.98-17.2,7.06-2.14,1.21-4.32,2.37-6.36,3.74-2.25,1.51-4.45,3.12-6.5,4.88-2.74,2.36-5.62,4.68-7.89,7.46-2.54,3.11-4.45,6.72-6.66,10.1-3.38,5.18-4.87,11.04-6.1,16.99-.3,1.47-.55,2.94-.87,4.65-1.05-.45-2.01-.96-3.02-1.28-4.87-1.53-9.73-3.09-14.64-4.5-6.09-1.75-12.38-2.22-18.66-2.35-4.56-.09-9.13,.56-13.7,.76-4.4,.19-8.52,1.48-12.63,2.9-1.33,.46-2.86,.98-4.16,.74-6.4-1.18-12.19-4.03-17.89-7.04-2.56-1.35-5.05-2.87-7.65-4.15-3.73-1.83-7.51-3.6-11.33-5.24-4.6-1.98-9.24-3.86-13.9-5.67-3.61-1.39-7.27-2.63-10.93-3.9-4.91-1.71-9.79-3.51-14.76-5.03-3.35-1.02-6.82-1.62-10.34-2.43,.11-.21,.15-.43,.27-.51,2.58-1.7,5.01-3.77,7.8-4.99,4.22-1.84,8.66-3.19,13.07-4.53,2.74-.83,5.59-1.39,8.42-1.83,1.98-.31,4.03-.26,6.05-.28,.9-.01,1.37-.22,1.56-1.22,.18-.94,.58-1.9,1.11-2.7,1.3-1.93,3.06-3.36,5.17-4.39,3.8-1.85,7.5-3.92,11.38-5.58,3.6-1.54,7.46-2.26,11.39-2.58,3.51-.28,6.99-.86,10.5-1.06,1.83-.1,3.7,.25,5.53,.54,3.52,.55,7.04,1.1,10.52,1.84,3.67,.79,7.25,2,10.94,2.67,3.43,.62,6.62,1.76,9.76,3.17,2.31,1.04,4.77,1.28,7.12,.52,5.17-1.67,10.13-3.82,14.6-7.03,3.13-2.25,6.49-4.19,9.6-6.46,3.11-2.27,6.14-4.67,9.02-7.22,3.16-2.79,5.76-6.1,7.77-9.82,1.75-3.24,3.32-6.59,3.26-10.41-.04-2.66-.16-5.33-.29-7.99-.07-1.36-.35-2.72-.34-4.07,.05-3.96,2.12-7.02,4.85-9.57,2.17-2.03,4.6-3.84,7.12-5.42,2.64-1.66,5.4-3.26,8.32-4.3,4.17-1.48,8.59-2.03,12.72-3.9,2.58-1.16,5.75-1.06,8.67-1.38,2.28-.25,4.78-.13,5.49-2.94,.75-2.93,2.19-5.39,4.31-7.44,2.15-2.08,4.27-4.28,6.73-5.93,3.02-2.03,6.31-3.68,9.6-5.24,3.77-1.78,7.65-3.34,11.54-4.85,2.81-1.09,5.7-2.01,8.6-2.84,2.31-.66,4.7-1.06,7.06-1.58Z"/>
      <path class="cls-1" d="M640,2.28c-2.36,.65-4.74,1.05-7.06,1.71-2.9,.83-5.79,1.75-8.6,2.84-3.89,1.5-7.77,3.07-11.54,4.85-3.3,1.55-6.59,3.21-9.6,5.24-2.46,1.65-4.58,3.85-6.73,5.93-2.12,2.05-3.57,4.51-4.31,7.44-.71,2.81-3.22,2.69-5.49,2.94-2.92,.32-6.1,.21-8.67,1.38-4.13,1.87-8.56,2.42-12.72,3.9-2.92,1.03-5.68,2.64-8.32,4.3-2.52,1.58-4.95,3.39-7.12,5.42-2.72,2.55-4.8,5.61-4.85,9.57-.02,1.36,.27,2.71,.34,4.07,.13,2.66,.24,5.32,.29,7.99,.06,3.82-1.5,7.16-3.26,10.41-2.01,3.71-4.61,7.03-7.77,9.82-2.89,2.55-5.91,4.95-9.02,7.22-3.11,2.27-6.47,4.21-9.6,6.46-4.46,3.21-9.42,5.36-14.6,7.03-2.35,.76-4.81,.52-7.12-.52-3.14-1.41-6.33-2.55-9.76-3.17-3.69-.67-7.27-1.88-10.94-2.67-3.48-.75-7-1.29-10.52-1.84-1.83-.29-3.7-.64-5.53-.54-3.51,.2-7,.78-10.5,1.06-3.93,.32-7.79,1.03-11.39,2.58-3.88,1.66-7.58,3.72-11.38,5.58-2.1,1.03-3.87,2.45-5.17,4.39-.53,.8-.93,1.76-1.11,2.7-.19,.99-.66,1.21-1.56,1.22-2.02,.03-4.06-.03-6.05,.28-2.84,.44-5.68,1-8.42,1.83-4.41,1.34-8.85,2.69-13.07,4.53-2.79,1.22-5.22,3.29-7.8,4.99-.13,.08-.17,.3-.27,.51,3.51,.81,6.99,1.41,10.34,2.43,4.97,1.52,9.85,3.32,14.76,5.03,3.65,1.27,7.32,2.5,10.93,3.9,4.67,1.81,9.31,3.69,13.9,5.67,3.82,1.64,7.59,3.41,11.33,5.24,2.6,1.28,5.08,2.79,7.65,4.15,5.7,3.01,11.49,5.86,17.89,7.04,1.3,.24,2.83-.28,4.16-.74,4.11-1.41,8.23-2.7,12.63-2.9,4.57-.2,9.14-.85,13.7-.76,6.28,.12,12.57,.6,18.66,2.35,4.91,1.41,9.77,2.96,14.64,4.5,1.02,.32,1.98,.83,3.02,1.28,.32-1.71,.57-3.18,.87-4.65,1.23-5.95,2.72-11.81,6.1-16.99,2.21-3.38,4.12-6.99,6.66-10.1,2.27-2.78,5.15-5.1,7.89-7.46,2.05-1.77,4.25-3.37,6.5-4.88,2.04-1.37,4.22-2.53,6.36-3.74,5.43-3.07,11.31-5.13,17.2-7.06,4.32-1.42,8.85-2.26,13.34-3.05,2.89-.51,5.89-.47,8.84-.61,.79-.04,1.14-.26,1.09-1.08-.38-5.84,2.57-10.31,6-14.59,4.89-6.09,11.21-10.32,18.03-13.91,2.15-1.13,4.36-2.16,6.65-3.24,.11,.68,.11,1.36,.11,2.17-1.84,.97-3.77,1.67-5.52,2.69-6.01,3.49-11.79,7.31-16.41,12.61-2.97,3.4-5.5,7.09-6.73,11.5-.28,1.01-.26,2.16-.14,3.21,.17,1.59-.36,2.31-1.96,2.35-3.27,.08-6.58-.1-9.8,.36-3.56,.51-7.07,1.51-10.55,2.5-2.84,.81-5.6,1.87-8.38,2.89-1.73,.64-3.48,1.28-5.11,2.13-3.88,2.03-7.78,4.04-11.52,6.32-4.28,2.62-8,5.97-11.65,9.43-4.66,4.42-7.91,9.79-10.8,15.38-1.54,2.98-2.52,6.27-3.59,9.48-.77,2.3-1.29,4.68-1.86,7.03-.27,1.11-.37,2.26-.57,3.58-5.78-2.93-11.68-4.3-17.51-5.88-2.2-.6-4.39-1.33-6.64-1.67-2.59-.4-5.23-.5-7.86-.61-3.47-.14-6.95-.36-10.41-.2-3.84,.18-7.69,.56-11.47,1.22-3.07,.54-6.06,1.6-9.07,2.48-2.43,.71-4.87,.49-7.15-.28-4.39-1.46-8.77-3.02-12.98-4.93-4.11-1.86-7.96-4.3-12-6.32-3.37-1.68-6.84-3.17-10.3-4.66-4.95-2.13-9.86-4.35-14.91-6.21-8.14-3-16.3-6.04-24.61-8.49-5.58-1.65-11.43-2.47-17.2-3.4-6.37-1.02-12.81-1.17-19.27-1.23-4.33-.04-8.65-.57-12.98-.78-1.86-.09-3.73,.12-5.6,.12-1.4,0-2.81-.22-4.2-.14-2.49,.14-4.97,.43-7.45,.67-1.28,.12-2.55,.28-3.83,.4-3.22,.31-6.45,.58-9.67,.92-2.51,.26-5.02,.54-7.51,.91-4.09,.61-8.17,1.28-12.25,1.96-4.46,.75-8.69,2.13-12.31,4.93-1.56,1.21-2.96,2.62-4.41,3.97-1.05,.98-1.9,1.04-2.92,0-2.23-2.3-4.29-4.78-6.66-6.91-3.51-3.15-7.14-6.22-11.97-7.23-2.58-.54-2.84-.37-3.98,2.79-1.49-.73-3.04-1.32-4.42-2.18-4.54-2.79-8.91-5.86-13.55-8.46-4.18-2.34-8.52-4.51-12.99-6.21-5.83-2.22-11.82-4.06-17.82-5.76-2.71-.76-5.63-.88-8.47-1.09-2.28-.17-4.59-.05-6.89-.03-5.05,.03-9.81,1.46-14.58,2.93-2.52,.77-5.18,1.3-7.81,1.52-4.08,.34-8.18,.47-12.27,.4-5.9-.09-11.65-1.05-17.05-3.65-2.81-1.35-4.28-3.85-5.81-6.34-1.44-2.34-2.92-4.66-4.48-6.91-2.52-3.64-5.07-7.27-7.73-10.82-2.25-3.01-4.55-5.99-7.03-8.8-3.19-3.61-6.52-7.11-9.94-10.51-1.85-1.84-3.96-3.43-6.04-5.03-3.47-2.67-6.96-5.33-10.53-7.86-3.5-2.49-7.09-4.84-10.67-7.21-4.94-3.26-10.37-5.47-16.02-7.18-5.43-1.65-10.78-3.53-16.24-5.07-5.05-1.43-10.23-2.2-15.5-2.3-3.23-.06-6.48-.45-9.69-.22-4.21,.3-8.38,1.07-12.68,1.65-.11-.39-.11-.79-.11-1.31,4.4-1.1,8.86-1.64,13.37-1.65,2.47,0,4.96-.07,7.42,.11,5.16,.38,10.36,.63,15.35,2.09,6.93,2.03,13.76,4.39,20.69,6.42,5.35,1.56,10.35,3.85,15.01,6.81,4.6,2.92,8.99,6.16,13.45,9.3,2.16,1.52,4.32,3.04,6.36,4.71,3.34,2.74,6.7,5.48,9.83,8.46,3.27,3.12,6.46,6.35,9.33,9.83,2.93,3.54,5.4,7.47,8.14,11.18,2.33,3.16,4.81,6.22,7.09,9.42,1.22,1.72,2.25,3.6,3.2,5.49,1.46,2.9,3.78,4.62,6.79,5.71,2.61,.94,5.23,1.67,8.01,1.65,4.41-.04,8.83-.08,13.24-.22,2.51-.08,5.02-.3,7.52-.59,1.19-.14,2.39-.46,3.51-.89,3.91-1.5,7.95-2.41,12.09-2.82,2.92-.29,5.89-.47,8.81-.32,5.07,.27,10.06,1.14,14.89,2.79,5.11,1.75,10.28,3.36,15.33,5.28,3.29,1.25,6.53,2.73,9.58,4.48,5.12,2.93,10.07,6.17,15.1,9.27,.89,.55,1.81,1.06,2.6,1.53,.74-.84,1.24-1.86,2.02-2.18,.9-.37,2.13-.39,3.08-.12,4.29,1.25,8.28,3.21,11.68,6.13,2.7,2.32,5.17,4.91,7.73,7.39,.4,.39,.7,.9,1.16,1.51,2.89-4.57,6.99-7.05,11.61-8.44,4.38-1.32,8.95-2.08,13.47-2.83,4.55-.75,9.14-1.22,13.73-1.74,2.34-.27,4.7-.39,7.05-.59,3.75-.32,7.5-.79,11.25-.93,4.01-.14,8.03-.03,12.04,.08,2.88,.08,5.75,.4,8.63,.53,3.07,.14,6.14,.06,9.2,.28,3.99,.29,7.98,.76,11.96,1.19,2.33,.25,4.65,.58,6.98,.78,.39,.03,.84-.37,1.23-.62,3.54-2.28,6.92-4.89,10.67-6.75,3.4-1.68,7.2-2.55,10.83-3.74,4.58-1.5,9.25-2.46,14.09-2.57,.4,0,.99-.35,1.15-.69,1.59-3.41,4.23-5.81,7.34-7.75,4.98-3.1,10.25-5.67,15.95-7,4.46-1.04,9.06-1.52,13.63-1.97,5.32-.53,10.56,.25,15.75,1.52,3.81,.93,7.71,1.54,11.52,2.48,4.62,1.14,9.27,2.21,13.62,4.31,2.92,1.41,5.96,.54,8.79-.51,3.23-1.19,6.44-2.52,9.49-4.12,2.5-1.31,4.81-3.02,7.1-4.7,5.01-3.69,10.1-7.31,14.89-11.27,4.68-3.87,7.98-8.85,9.15-14.91,.41-2.13,.03-4.43-.06-6.65-.11-2.75-.36-5.5-.41-8.25-.05-2.61,1.01-4.88,2.43-7.02,4.84-7.29,11.76-11.81,19.81-14.72,2.82-1.02,5.84-1.47,8.74-2.29,1.12-.32,2.09-1.19,3.21-1.41,3.19-.64,6.41-1.1,9.63-1.58,.88-.13,1.81-.01,2.68-.2,.39-.09,.84-.6,.97-1.01,1.48-4.57,4.42-8.12,7.81-11.38,6-5.78,13.53-8.85,21.02-12.03,6.1-2.59,12.38-4.61,18.81-6.16,.55-.13,1.12-.24,1.76-.25,.09,.78,.09,1.47,.09,2.28Z"/>
      <path class="cls-4" d="M0,20.53c0-3.94,0-7.88,.13-11.95,2.27-.11,4.41-.18,6.54-.04,2.42,.16,4.83,.47,7.23,.78,2.31,.3,4.64,.53,6.9,1.07,5.02,1.18,9.84,2.98,14.56,5.07,5.5,2.44,10.87,5.09,15.53,8.97,.75,.63,1.4,1.38,2.1,2.08-.1,.12-.21,.25-.31,.37-.76-.32-1.53-.63-2.28-.96-2.27-.99-4.47-2.21-6.82-2.94-3.4-1.06-6.87-2.03-10.38-2.59-4.69-.75-9.44-1.19-14.18-1.54-3-.22-6.04-.11-9.06-.02-3.39,.09-6.71,.73-9.95,1.71Z"/>
      <path class="cls-3" d="M0,20.64c3.25-1.09,6.56-1.73,9.95-1.82,3.02-.08,6.05-.2,9.06,.02,4.74,.35,9.49,.79,14.18,1.54,3.51,.56,6.98,1.52,10.38,2.59,2.35,.74,4.55,1.95,6.82,2.94,.76,.33,1.52,.64,2.28,.96,.1-.12,.21-.25,.31-.37-.7-.7-1.35-1.45-2.1-2.08-4.66-3.88-10.02-6.53-15.53-8.97-4.72-2.09-9.54-3.89-14.56-5.07-2.26-.53-4.59-.77-6.9-1.07-2.4-.31-4.81-.62-7.23-.78-2.13-.14-4.27-.07-6.54-.09-.13-.4-.13-.8-.13-1.32,4.45-.02,8.91-.14,13.33,.22,7.48,.62,14.64,2.63,21.52,5.66,4.69,2.07,9.42,4.08,13.61,7.09,1.54,1.1,3.07,2.27,4.37,3.63,.91,.95,1.57,2.23,2.07,3.47,.57,1.42-.09,2.17-1.61,1.77-1.82-.48-3.63-1.13-5.31-1.98-4.12-2.09-8.44-3.61-12.95-4.45-4.84-.91-9.72-1.84-14.62-2.13-5.43-.32-10.9,0-16.35,.18-1.29,.04-2.57,.58-3.97,.86-.12-.26-.12-.47-.12-.8Z"/>
      <path class="cls-6" d="M537.67,61.52c.12,.68,.26,1.26,.21,1.82-.05,.58-.29,1.14-.45,1.7-.69-.28-1.73-.37-2.01-.88-.81-1.48-1.37-3.11-1.93-4.71-1.37-3.88-2.32-7.84-1.98-12.01,.36-4.5,.92-8.94,3.46-12.85,1.59-2.45,3.91-4.02,6.52-5.12,5.17-2.19,10.53-3.75,16.19-4.04,1.36-.07,2.72-.05,4.08,.02,.38,.02,1.09,.45,1.07,.53-.17,.59-.33,1.41-.78,1.66-1.56,.89-3.27,1.5-4.85,2.36-6.63,3.63-13.23,7.36-17.33,14.05-1.7,2.78-2.7,5.94-2.68,9.27,.02,2.7,.27,5.4,.47,8.21Zm-.97-12.87c1.03-2.39,1.76-4.96,3.13-7.12,3.49-5.46,8.89-8.81,14.3-12.06,1.52-.92,3.19-1.59,5.16-2.56-.92,0-1.4-.07-1.86,.01-2.36,.44-4.77,.74-7.06,1.42-3.18,.94-6.33,2.04-9.39,3.32-3.59,1.5-5.98,4.34-7.03,8.02-1.21,4.27-1.83,8.66-.71,13.1,.28,1.11,.54,2.22,.85,3.32,.29,1.05,.61,2.1,.96,3.13,.35,1.02,.76,2.01,1.14,3.02-.45-4.52-.89-8.97,.5-13.61Z"/>
      <path class="cls-5" d="M105.61,133.92c-1.33-.9-2.78-1.68-3.98-2.74-6.06-5.38-13.01-9.05-20.86-10.92-3.28-.78-6.69-1.18-10.08-.48-2.92,.61-5.87,1.18-8.73,2.04-1.26,.38-2.32,1.44-3.52,2.21-1.85-2.26-3.91-4.29-6.41-5.96-3.81-2.55-7.82-2.76-12.07-1.85-6.11,1.3-11.77,3.88-17.53,6.17-.98,.39-1.95,.81-2.95,1.11-2.42,.72-4.03-.47-4.23-3.03-.17-2.21,.65-4.15,1.79-5.9,2.25-3.43,5.38-5.84,9.35-6.9,1.6-.43,3.38-.15,5.06-.31,.61-.06,1.28-.34,1.73-.74,.16-.14-.17-1.01-.45-1.42-3.07-4.47-7.69-6.38-12.73-7.54-2.17-.5-4.35-.91-6.86-1.44,.48-.3,.65-.48,.83-.51,3.5-.68,6.89-1.95,10.59-1.56,5.17,.56,10.28,1.23,15.21,3.07,6.53,2.43,12.45,5.92,18.09,9.93,.27,.19,.56,.39,.76,.65,1.14,1.46,2.51,1.43,4.28,1.25,2.5-.26,5.08,.17,7.62,.35,3.62,.26,6.97,1.53,10.29,2.87,5.3,2.14,10.3,4.78,14.44,8.83,2.38,2.33,4.86,4.58,7.01,7.11,1.37,1.6,2.23,3.64,3.33,5.58,0,.1,0,.11,0,.11Z"/>
      <path class="cls-4" d="M587.08,127.58c3.31-.49,6.5-1.31,9.69-1.31,2.04,0,4.47-.61,6.38,1.32-1.07,1.49-2.69,2.19-4.26,2.87-5.93,2.57-12.02,4.82-17.8,7.68-4.02,1.99-7.75,4.66-11.4,7.3-2.84,2.05-5.54,4.37-8,6.87-2.66,2.71-4.98,5.76-7.45,8.66-.25,.29-.45,.64-.75,.86-.26,.2-.63,.26-.95,.39-.03-.3-.1-.61-.08-.91,.28-3.82,1.99-7.15,3.88-10.32,1.72-2.88,3.72-5.64,5.88-8.2,2.59-3.06,5.84-5.42,9.14-7.71,3.38-2.34,6.99-4.21,10.78-5.76,1.58-.64,3.21-1.16,4.93-1.75Z"/>
      <path class="cls-5" d="M201.26,117.41c4.13,.59,7.9,2.03,11.45,3.82,3.88,1.95,7.55,4.34,11.2,6.71,1.76,1.14,3.27,2.68,4.79,4.23-2.13,.56-3.98-.22-5.85-.77-4.8-1.4-9.59-2.86-14.41-4.19-4.08-1.13-8.16-2.31-12.31-3.1-4.66-.88-9.4-1.31-14.09-2.02-1.68-.25-3.35-.7-4.99-1.17-.88-.26-.92-.92-.04-1.24,2.17-.79,4.35-1.7,6.6-2.11,3.31-.6,6.69-1.04,10.05-1.12,2.49-.05,4.99,.59,7.6,.96Z"/>
      <path class="cls-5" d="M105.61,133.91s.07,.09,.11,.13c-.03-.01-.05-.03-.09-.08-.02-.04-.01-.04-.01-.05Z"/>
      <path class="cls-4" d="M536.7,48.77c-1.38,4.52-.95,8.97-.5,13.49-.38-1.01-.79-2-1.14-3.02-.35-1.03-.67-2.08-.96-3.13-.31-1.1-.57-2.21-.85-3.32-1.13-4.44-.5-8.83,.71-13.1,1.04-3.68,3.44-6.52,7.03-8.02,3.06-1.28,6.21-2.38,9.39-3.32,2.29-.68,4.7-.99,7.06-1.42,.45-.08,.94-.01,1.86-.01-1.97,.97-3.64,1.64-5.16,2.56-5.41,3.25-10.81,6.6-14.3,12.06-1.38,2.16-2.11,4.74-3.14,7.24Z"/>
    </g>
  </g>
</svg>