<?xml version="1.0" encoding="UTF-8"?>
<svg id="Layer_2" data-name="Layer 2" xmlns="http://www.w3.org/2000/svg" viewBox="0 0 640 148.07">
  <defs>
    <style>
      .cls-1 {
        fill: #25173d;
      }

      .cls-2 {
        fill: #362859;
      }

      .cls-3 {
        fill: #332557;
      }

      .cls-4 {
        fill: #4a3974;
      }

      .cls-5 {
        fill: #37295a;
      }
    </style>
  </defs>
  <g id="Layer_15" data-name="Layer 15">
    <g>
      <path class="cls-4" d="M640,147.94c-17.98,.13-35.96,.12-53.95,.12-195.26,0-390.53,0-585.92,0-.13-36.55-.13-73.1-.03-109.75,.23-.05,.37,.04,.51,.03,3.75-.25,7.49-.61,11.24-.74,2.38-.09,4.79,0,7.15,.28,4.38,.53,8.75,1.16,13.09,1.94,2.9,.52,5.75,1.35,8.62,2.06,4.29,1.06,8.63,2,12.86,3.26,3.78,1.12,7.53,2.42,11.16,3.95,3.4,1.43,6.76,3.06,9.9,5,4.01,2.48,7.76,5.38,11.65,8.06,1.9,1.31,3.23,2.98,4.15,5.11,1.09,2.51,2.39,4.84,4.96,6.36,4.5,2.67,8.92,5.51,13.2,8.52,2.86,2.01,5.8,4.12,8.02,6.76,5.19,6.16,10.01,12.63,14.87,19.05,2.64,3.49,5.16,7.07,6.21,11.49,.48,2.01,1.4,3.95,3.14,5.31,1.23-.58,2.4-1.23,3.63-1.71,3.51-1.37,6.98-2.93,10.59-3.96,4.15-1.18,8.42-2,12.67-2.77,4.25-.77,8.55-1.36,12.84-1.88,2.27-.28,4.58-.19,6.86-.35,4.86-.34,9.72-.81,14.59-1.09,2.61-.15,5.23-.06,7.85-.01,1.86,.03,3.72,.22,5.58,.26,2.49,.05,4.99-.07,7.47,.03,5.37,.23,10.74,.59,16.12,.83,5.22,.24,10.44,.38,15.65,.6,1.85,.08,3.71,.22,5.55,.48,3.86,.55,7.7,1.23,11.56,1.8,5.31,.78,10.64,1.5,15.96,2.27,3.34,.48,6.68,.99,10.02,1.49,5.33,.79,10.53,2.1,15.6,3.91,2.35,.84,3.88,.37,5.25-1.8,.52-.81,1.15-1.71,1.95-2.16,3.19-1.8,6.38-3.66,9.74-5.09,3.45-1.46,7.07-2.56,10.67-3.61,6.11-1.77,12.24-3.51,18.42-5,3.31-.79,6.74-1.12,10.13-1.5,6.59-.73,13.19-1.64,19.8-1.94,7.43-.34,14.89-.15,22.34-.06,5.1,.06,10.2,.36,15.29,.56,4.91,.19,9.82,.37,14.72,.59,1.48,.06,2.95,.19,4.42,.35,2.98,.33,5.96,.64,8.92,1.09,3.34,.51,6.68,1.04,9.97,1.77,3.75,.83,7.45,1.9,11.18,2.84,1.24,.31,2.55,.41,3.75,.84,3.55,1.25,7.06,2.62,10.59,3.92,.28,.1,.68,.07,.96-.05,1.85-.75,3.68-1.54,5.52-2.31,2.94-1.24,5.83-2.61,8.84-3.65,1.77-.61,3.7-.85,5.58-1,2.44-.2,4.86-.82,7.35-.19,.96,.24,2.1,.24,3.05-.04,1.57-.47,3.01-1.34,4.57-1.87,1.7-.58,3.45-1.13,5.23-1.39,1.5-.22,2.57-.78,3.27-2.02-.38-.72-.87-1.32-1.02-1.99-.28-1.23-.86-2.74-.41-3.71,1.12-2.44,2.47-4.88,4.22-6.89,3.83-4.37,9.05-6.73,14.38-8.69,3.57-1.32,7.28-2.27,10.95-3.29,4.59-1.28,9.18-2.53,13.8-3.67,5.22-1.28,10.48-2.45,15.73-3.59,2.41-.52,4.85-.91,7.29-1.29,2.65-.42,5.32-.75,7.98-1.13,1.64-.23,3.27-.52,4.92-.71,5.01-.57,10.02-1.14,15.03-1.65,4.07-.42,8.15-.76,12.23-1.13v82.75Zm-268.8-32.91c-3.52,1.33-7.03,2.67-10.55,3.99-1.4,.52-2.17,1.56-2.65,2.82,1.33,1.14,2.66,.78,4.03,.48,4.27-.93,8.52-2.09,12.85-2.65,5.78-.75,11.62-1.16,17.45-1.47,4.13-.22,8.29-.12,12.43,0,5.99,.19,11.97,.51,17.95,.82,2.66,.14,5.33,.33,7.98,.62,3.8,.41,7.57,.78,11.4,.28,1.42-.19,1.88-1.15,2.09-2.15,.09-.43-.77-1.12-1.29-1.59-.34-.3-.85-.42-1.29-.61-4.57-2.04-9.47-2.58-14.35-2.83-7.57-.39-15.16-.48-22.74-.61-5.08-.09-10.16-.11-15.24,.02-2.65,.06-5.32,.37-7.94,.81-3.32,.55-6.61,1.35-10.14,2.09Zm-291.53,19.75c.56,.09,1.13,.18,1.69,.28,6.15,1.18,11.97,3.4,17.83,5.56,1.84,.68,3.89,.98,5.86,1.06,2.35,.1,3.05-1.34,2.15-3.44-1.96-4.59-5.59-7.76-9.43-10.53-3.62-2.61-7.66-4.66-11.62-6.75-7.64-4.03-15.79-5.99-24.48-5.73-4.54,.13-8.6,1.54-12.42,3.86-.84,.51-1.65,1.2-1.26,2.12,.43,1.02,.98,2.17,2.55,2.15,1.13-.02,2.27,.32,3.41,.5-.62,.92-1.3,1.43-1.96,1.95-1.78,1.42-3.72,2.69-5.3,4.3-2.07,2.09-2.61,6.15,.11,8.58,.4,.36,1.23,.55,1.74,.4,1.36-.41,2.73-.92,3.97-1.62,5.41-3.05,11.35-3.9,17.38-3.96,3.19-.03,6.38,.76,9.8,1.26Z"/>
      <path class="cls-2" d="M640,65.07c-4.08,.5-8.15,.84-12.23,1.26-5.01,.51-10.02,1.08-15.03,1.65-1.64,.19-3.28,.48-4.92,.71-2.66,.38-5.33,.71-7.98,1.13-2.44,.38-4.88,.77-7.29,1.29-5.26,1.14-10.51,2.31-15.73,3.59-4.62,1.13-9.22,2.39-13.8,3.67-3.67,1.02-7.38,1.97-10.95,3.29-5.33,1.97-10.55,4.32-14.38,8.69-1.76,2-3.1,4.45-4.22,6.89-.45,.98,.14,2.48,.41,3.71,.15,.67,.64,1.27,1.02,1.99-.7,1.24-1.77,1.8-3.27,2.02-1.77,.26-3.52,.81-5.23,1.39-1.56,.53-3,1.4-4.57,1.87-.94,.28-2.09,.28-3.05,.04-2.49-.64-4.92-.01-7.35,.19-1.88,.15-3.81,.39-5.58,1-3.01,1.05-5.9,2.42-8.84,3.65-1.84,.77-3.67,1.56-5.52,2.31-.28,.11-.68,.15-.96,.05-3.54-1.3-7.04-2.67-10.59-3.92-1.2-.42-2.51-.52-3.75-.84-3.73-.94-7.42-2.01-11.18-2.84-3.29-.73-6.63-1.27-9.97-1.77-2.96-.45-5.94-.76-8.92-1.09-1.47-.16-2.94-.29-4.42-.35-4.91-.22-9.81-.4-14.72-.59-5.1-.2-10.2-.49-15.29-.56-7.45-.09-14.91-.28-22.34,.06-6.62,.3-13.21,1.21-19.8,1.94-3.39,.38-6.82,.71-10.13,1.5-6.18,1.49-12.31,3.23-18.42,5-3.61,1.05-7.22,2.15-10.67,3.61-3.36,1.43-6.55,3.29-9.74,5.09-.81,.46-1.44,1.35-1.95,2.16-1.38,2.17-2.9,2.64-5.25,1.8-5.07-1.81-10.27-3.12-15.6-3.91-3.34-.5-6.68-1.01-10.02-1.49-5.32-.76-10.64-1.48-15.96-2.27-3.86-.57-7.7-1.25-11.56-1.8-1.83-.26-3.69-.39-5.55-.48-5.22-.23-10.44-.37-15.65-.6-5.37-.24-10.74-.6-16.12-.83-2.49-.11-4.98,.01-7.47-.03-1.86-.04-3.72-.22-5.58-.26-2.62-.05-5.24-.14-7.85,.01-4.87,.28-9.72,.75-14.59,1.09-2.28,.16-4.59,.08-6.86,.35-4.29,.52-8.58,1.11-12.84,1.88-4.25,.77-8.52,1.58-12.67,2.77-3.61,1.03-7.08,2.58-10.59,3.96-1.23,.48-2.4,1.12-3.63,1.71-1.74-1.36-2.66-3.3-3.14-5.31-1.06-4.41-3.57-7.99-6.21-11.49-4.86-6.43-9.69-12.89-14.87-19.05-2.22-2.64-5.17-4.74-8.02-6.76-4.28-3.01-8.69-5.86-13.2-8.52-2.57-1.52-3.87-3.85-4.96-6.36-.93-2.13-2.25-3.81-4.15-5.11-3.89-2.68-7.64-5.58-11.65-8.06-3.13-1.94-6.5-3.56-9.9-5-3.63-1.53-7.38-2.84-11.16-3.95-4.24-1.25-8.57-2.19-12.86-3.26-2.87-.71-5.72-1.54-8.62-2.06-4.34-.78-8.71-1.41-13.09-1.94-2.36-.28-4.77-.37-7.15-.28-3.75,.13-7.49,.49-11.24,.74-.13,0-.27-.08-.51-.16-.1-.44-.1-.84-.1-1.36,4.57-.32,9.15-.47,13.72-.72,6-.33,11.88,.38,17.71,1.74,7.08,1.66,14.17,3.23,21.23,4.99,5.9,1.47,11.47,3.9,17.03,6.32,4.79,2.09,8.8,5.38,13.04,8.31,2.21,1.53,4.4,3.11,6.44,4.86,.93,.8,1.48,2.05,2.16,3.12,.98,1.54,1.73,3.27,2.95,4.59,1.23,1.34,2.83,2.36,4.38,3.35,2.5,1.6,5.1,3.04,7.65,4.57,4.6,2.75,8.82,5.99,12.08,10.29,6.06,7.98,12.17,15.93,18.01,24.07,1.61,2.24,2.33,5.11,3.45,7.69,.35,.81,.71,1.62,1.15,2.61,1.21-.53,2.45-1.05,3.66-1.61,1.67-.77,3.26-1.79,5-2.31,5-1.47,10.03-2.85,15.1-4.03,3.96-.93,7.99-1.6,12.02-2.2,2.53-.38,5.12-.42,7.68-.62,3.84-.3,7.67-.73,11.52-.86,4.61-.16,9.23-.06,13.85-.07,4.83,0,9.66-.13,14.48,.01,6.31,.19,12.62,.59,18.93,.91,5.21,.27,10.44,.45,15.64,.87,3.35,.28,6.67,.94,10,1.42,5.42,.77,10.84,1.51,16.25,2.29,4.15,.6,8.31,1.18,12.44,1.92,3.96,.71,7.9,1.53,11.81,2.45,1.63,.38,3.15,1.19,4.74,1.75,.88,.31,1.54,.21,2.38-.53,2.08-1.83,4.34-3.49,6.65-5.03,4.52-3.01,9.68-4.66,14.76-6.34,5.11-1.69,10.35-2.99,15.58-4.31,3.96-1,7.95-1.93,11.97-2.6,7.09-1.17,14.2-2.26,21.42-2.32,7.39-.06,14.79-.36,22.18-.35,5.24,.01,10.48,.37,15.72,.57,3.83,.14,7.67,.14,11.49,.42,5.99,.45,11.98,.94,17.94,1.68,4.41,.54,8.82,1.31,13.15,2.31,5.39,1.25,10.72,2.76,16.03,4.33,2.39,.71,4.63,1.91,7,2.71,.7,.24,1.69,.04,2.42-.27,4.1-1.72,8.14-3.59,12.25-5.27,1.51-.62,3.17-.98,4.8-1.19,2.49-.33,5-.48,7.51-.59,1.29-.05,2.59,.18,3.89,.23,.36,.01,.73-.12,1.08-.23,3.4-1.14,6.81-2.29,10.31-3.48-.23-.5-.55-1.16-.86-1.83-.84-1.83-.89-3.53,.15-5.41,2.86-5.17,7.15-8.67,12.19-11.6,4.26-2.48,8.75-4.31,13.41-5.7,6.33-1.89,12.75-3.47,19.16-5.09,5.52-1.39,11.05-2.76,16.63-3.93,4.09-.86,8.24-1.46,12.38-2.04,4.73-.67,9.46-1.26,14.21-1.75,6.59-.68,13.19-1.23,19.92-1.81,.13,.61,.13,1.2,.13,1.91Z"/>
      <path class="cls-4" d="M640,41.03c0,3.08,0,6.15-.12,9.36-4.2,.52-8.27,.9-12.35,1.28-3.62,.34-7.25,.61-10.86,1.04-3.77,.45-7.54,1-11.29,1.63-6.23,1.06-12.49,2.01-18.64,3.39-5.8,1.31-11.56,2.93-17.21,4.78-5.12,1.67-10.09,3.81-15.11,5.78-1.07,.42-2.09,.97-3.13,1.47l-.28-.45c1.4-1,2.73-2.14,4.23-2.98,2.4-1.35,4.91-2.49,7.36-3.73,2.42-1.22,4.78-2.56,7.24-3.68,3.38-1.53,6.81-2.97,10.26-4.33,3.14-1.23,6.33-2.35,9.53-3.43,1.85-.62,3.78-.98,5.63-1.62,7.17-2.47,14.54-4.17,21.97-5.6,3.96-.77,7.98-1.27,11.99-1.78,3.58-.46,7.19-.77,10.78-1.14Z"/>
      <path class="cls-4" d="M0,15.7C0,11.19,0,6.67,.1,2.03c1.7,.06,3.31,.17,4.89,.45,3.74,.65,7.53,1.15,11.19,2.12,4.12,1.09,8.19,2.46,12.15,4.04,4.67,1.86,9.23,3.99,13.75,6.19,3.25,1.58,6.41,3.39,9.51,5.25,4.88,2.93,9.73,5.92,14.5,9.04,1.26,.82,2.18,2.17,3.26,3.28t-.1-.01c-4.25-2.03-8.29-4.32-12.58-6-5.58-2.18-11.32-3.97-17.06-5.72-3.41-1.04-6.91-1.78-10.42-2.43-3.17-.59-6.38-.93-9.58-1.31-3.82-.45-7.65-.92-11.49-1.19-2.69-.18-5.41-.03-8.12-.03Z"/>
      <path class="cls-5" d="M640,40.9c-3.6,.5-7.2,.81-10.78,1.26-4.01,.51-8.03,1.02-11.99,1.78-7.43,1.43-14.8,3.13-21.97,5.6-1.84,.63-3.78,.99-5.63,1.62-3.2,1.08-6.39,2.2-9.53,3.43-3.46,1.36-6.88,2.8-10.26,4.33-2.46,1.12-4.83,2.46-7.24,3.68-2.46,1.24-4.97,2.39-7.36,3.73-1.5,.84-2.83,1.97-4.23,2.98l.28,.45c1.04-.49,2.06-1.05,3.13-1.47,5.02-1.97,9.99-4.11,15.11-5.78,5.66-1.85,11.41-3.47,17.21-4.78,6.16-1.39,12.41-2.34,18.64-3.39,3.75-.64,7.52-1.18,11.29-1.63,3.61-.43,7.24-.7,10.86-1.04,4.08-.38,8.15-.76,12.35-1.15,.12,.49,.12,.99,.12,1.6-4.57,.5-9.14,.85-13.71,1.26-3.87,.35-7.74,.71-11.6,1.17-4,.48-7.99,1.06-11.98,1.66-4.26,.65-8.54,1.21-12.75,2.11-5.53,1.19-11.04,2.54-16.49,4.08-6.75,1.9-13.32,4.37-19.66,7.4-.77,.37-1.44,.93-2.21,1.27-.47,.21-1.1,.37-1.57,.24-1.64-.45-1.93-1.11-.69-2.2,2.19-1.93,4.46-3.91,7.01-5.26,8.38-4.43,16.8-8.87,25.79-11.97,7.26-2.5,14.6-4.77,21.96-6.95,7.25-2.15,14.65-3.62,22.17-4.49,4.49-.52,8.98-.97,13.6-1.45,.13,.59,.13,1.18,.13,1.89Z"/>
      <path class="cls-5" d="M69.35,32.39c-1.08-1.11-1.99-2.46-3.26-3.28-4.77-3.11-9.62-6.11-14.5-9.04-3.11-1.86-6.26-3.67-9.51-5.25-4.52-2.2-9.09-4.32-13.75-6.19-3.96-1.58-8.03-2.94-12.15-4.04-3.66-.97-7.45-1.47-11.19-2.12-1.58-.27-3.19-.39-4.89-.58-.1-.6-.1-1.18-.1-1.9C7.47,.54,14.77,2.01,21.9,4.33c8.39,2.72,16.41,6.24,23.99,10.78,4.03,2.41,8.29,4.47,12.27,6.95,4.23,2.64,8.54,5.22,11.97,8.94,.45,.49,.94,1,1.2,1.59,.19,.44,.22,1.18-.04,1.5-.23,.27-1.03,.33-1.44,.15-2.33-1.03-4.65-2.1-6.91-3.27-4.9-2.53-9.98-4.6-15.28-6.07-6.5-1.81-12.99-3.67-19.59-5.04-5.24-1.09-10.61-1.61-15.95-2.14-3.93-.39-7.9-.39-11.99-.57-.13-.41-.13-.81-.13-1.33,2.71-.12,5.43-.27,8.12-.09,3.84,.26,7.67,.74,11.49,1.19,3.2,.38,6.42,.72,9.58,1.31,3.5,.66,7.01,1.4,10.42,2.43,5.74,1.75,11.48,3.54,17.06,5.72,4.28,1.67,8.32,3.97,12.61,6.06,.24,.06,.34,.06,.44,.05-.13-.03-.25-.07-.38-.1Z"/>
      <path class="cls-3" d="M371.32,115.01c3.42-.71,6.7-1.51,10.02-2.07,2.62-.44,5.29-.74,7.94-.81,5.08-.12,10.16-.11,15.24-.02,7.58,.13,15.17,.23,22.74,.61,4.89,.25,9.78,.8,14.35,2.83,.44,.19,.95,.31,1.29,.61,.52,.47,1.38,1.16,1.29,1.59-.22,1-.68,1.96-2.09,2.15-3.83,.5-7.61,.14-11.4-.28-2.65-.29-5.31-.48-7.98-.62-5.98-.31-11.97-.63-17.95-.82-4.14-.13-8.3-.22-12.43,0-5.83,.31-11.67,.72-17.45,1.47-4.33,.56-8.58,1.72-12.85,2.65-1.37,.3-2.7,.65-4.03-.48,.48-1.26,1.25-2.29,2.65-2.82,3.52-1.32,7.03-2.66,10.67-4.01Zm36.31-1.18c-1.57-.08-3.14-.24-4.71-.23-3.44,.03-6.87,.1-10.31,.24-3.24,.13-6.49,.22-9.7,.6-5.87,.7-11.61,2.11-17.22,3.99-1.16,.39-2.27,.95-3.4,1.43l.16,.49c.3,0,.61,.05,.9,0,3.83-.73,7.62-1.72,11.48-2.16,6.05-.69,12.14-1.24,18.22-1.41,6.62-.19,13.26,.11,19.89,.23,3.11,.06,6.21,.11,9.31,.31,2.37,.15,4.72,.57,7.09,.77,3.13,.27,6.28,.52,9.42,.6,1.35,.04,2.72-.35,4.07-.55,.03-.24,.07-.48,.1-.71-1.34-.52-2.63-1.21-4.01-1.54-5.75-1.37-11.63-1.66-17.51-1.77-4.5-.08-8.99-.19-13.77-.28Z"/>
      <path class="cls-3" d="M79.56,134.74c-3.31-.46-6.5-1.25-9.69-1.22-6.03,.06-11.97,.9-17.38,3.96-1.24,.7-2.61,1.21-3.97,1.62-.51,.15-1.34-.04-1.74-.4-2.72-2.43-2.18-6.49-.11-8.58,1.59-1.61,3.52-2.88,5.3-4.3,.66-.53,1.34-1.04,1.96-1.95-1.14-.18-2.27-.52-3.41-.5-1.57,.02-2.12-1.13-2.55-2.15-.39-.92,.42-1.62,1.26-2.12,3.82-2.32,7.88-3.72,12.42-3.86,8.69-.26,16.84,1.7,24.48,5.73,3.96,2.09,8,4.14,11.62,6.75,3.84,2.77,7.47,5.94,9.43,10.53,.9,2.1,.21,3.54-2.15,3.44-1.97-.08-4.02-.38-5.86-1.06-5.85-2.16-11.67-4.37-17.83-5.56-.56-.11-1.12-.19-1.8-.33Zm-10.89-2.78c5.62-.17,11.13,.63,16.53,2.1,3.62,.98,7.15,2.28,10.73,3.43,2.53,.82,5.05,1.71,7.61,2.42,.88,.24,1.89,.04,3.18,.04-.59-1.2-.92-1.99-1.35-2.71-2.21-3.7-5.6-6.26-8.99-8.68-4.74-3.38-9.96-6-15.39-8.1-2.83-1.09-5.7-2.28-8.66-2.8-4.73-.82-9.55-1.48-14.36-.64-2.63,.46-5.25,1.11-7.44,2.79-.47,.36-.76,.93-1.37,1.69,1.15,.17,1.84,.26,2.53,.39,.83,.16,1.75,.2,2.45,.6,.58,.33,1.1,1.06,1.28,1.71,.09,.31-.62,.92-1.05,1.29-1.94,1.61-3.99,3.09-5.85,4.78-1.76,1.6-1.98,3.85-1.85,6.08,.07,1.29,.91,1.8,2.18,1.41,1.08-.33,2.18-.72,3.16-1.27,5.1-2.84,10.61-4.16,16.66-4.53Z"/>
      <path class="cls-4" d="M69.35,32.39c.13,.03,.25,.07,.38,.1-.1,0-.2,.01-.34-.04-.04-.06-.04-.06-.04-.06Z"/>
      <path class="cls-1" d="M407.77,113.83c4.64,.1,9.13,.2,13.63,.28,5.89,.1,11.76,.39,17.51,1.77,1.38,.33,2.68,1.02,4.01,1.54-.03,.24-.07,.48-.1,.71-1.36,.2-2.72,.59-4.07,.55-3.14-.09-6.28-.34-9.42-.6-2.37-.2-4.72-.62-7.09-.77-3.1-.19-6.21-.25-9.31-.31-6.63-.12-13.27-.42-19.89-.23-6.08,.17-12.17,.72-18.22,1.41-3.86,.44-7.66,1.43-11.48,2.16-.29,.06-.6,0-.9,0l-.16-.49c1.13-.48,2.24-1.04,3.4-1.43,5.61-1.88,11.35-3.29,17.22-3.99,3.21-.38,6.47-.47,9.7-.6,3.43-.14,6.87-.21,10.31-.24,1.57-.01,3.14,.15,4.85,.23Z"/>
      <path class="cls-1" d="M68.53,131.96c-5.91,.37-11.42,1.69-16.53,4.53-.99,.55-2.08,.93-3.16,1.27-1.27,.39-2.1-.12-2.18-1.41-.13-2.23,.09-4.48,1.85-6.08,1.86-1.7,3.91-3.18,5.85-4.78,.44-.36,1.14-.97,1.05-1.29-.18-.65-.69-1.38-1.28-1.71-.71-.4-1.62-.44-2.45-.6-.69-.13-1.39-.22-2.53-.39,.6-.76,.9-1.33,1.37-1.69,2.19-1.68,4.81-2.33,7.44-2.79,4.81-.84,9.63-.18,14.36,.64,2.96,.51,5.83,1.71,8.66,2.8,5.44,2.1,10.66,4.71,15.39,8.1,3.39,2.42,6.78,4.98,8.99,8.68,.43,.72,.76,1.51,1.35,2.71-1.29,0-2.29,.21-3.18-.04-2.56-.71-5.08-1.6-7.61-2.42-3.57-1.15-7.11-2.45-10.73-3.43-5.4-1.47-10.91-2.27-16.67-2.1Z"/>
    </g>
  </g>
</svg>