<?xml version="1.0" encoding="UTF-8"?>
<svg id="Layer_2" data-name="Layer 2" xmlns="http://www.w3.org/2000/svg" viewBox="0 0 404.81 405.08">
  <defs>
    <style>
      .cls-1 {
        fill: #846388;
      }

      .cls-2 {
        fill: #d9c8f2;
      }

      .cls-3 {
        fill: #703976;
      }

      .cls-4 {
        fill: #6e3972;
      }

      .cls-5 {
        fill: #87698b;
      }

      .cls-6 {
        fill: #805d83;
      }

      .cls-7 {
        fill: #dacaf4;
      }

      .cls-8 {
        fill: #8d7292;
      }

      .cls-9 {
        fill: #94749d;
      }

      .cls-10 {
        fill: #713f76;
      }

      .cls-11 {
        fill: #7d5383;
      }

      .cls-12 {
        fill: #84548d;
      }

      .cls-13 {
        fill: #713a76;
      }

      .cls-14 {
        fill: #d9c9f3;
      }

      .cls-15 {
        fill: #6e3b71;
      }

      .cls-16 {
        fill: #bdb0cd;
      }
    </style>
  </defs>
  <g id="Layer_11" data-name="Layer 11">
    <g>
      <path class="cls-15" d="M293.69,21.93c.54,.28,.99,.51,1.52,.8,.31,.17,.51,.3,.81,.45,1.12,.35,2.01,.94,3,1.6,.31,.1,.5,.17,.76,.34,1.92,1.13,3.86,2.03,5.69,3.34,.38,.13,.64,.26,.96,.52,.96,.55,1.84,1.04,2.64,1.82,.17,.41-.02,.58-.38,.76-.47,.1-.8,.05-1.2-.18-.93-.89-1.81-1.62-3.07-1.98-.31-.09-.51-.19-.78-.36-.36-.27-.62-.49-1.05-.63-.61-.22-1.14-.37-1.71-.68-.3-.2-.47-.4-.79-.57-.14-.08-.2-.11-.33-.19-.23-.17-.37-.3-.63-.4-.33-.11-.57-.2-.87-.38-.18-.12-.28-.19-.46-.31-.23-.14-.38-.25-.61-.39-.23-.14-.4-.21-.66-.3-.14-.06-.2-.08-.33-.16-.23-.16-.37-.28-.64-.35-.41-.09-.72-.15-1.09-.36-.19-.12-.29-.19-.48-.31-.14-.08-.19-.11-.32-.19-.28-.2-.48-.35-.78-.52-.14-.07-.2-.1-.34-.18-.37-.2-.67-.32-1.09-.4-.23-.05-.36-.09-.59-.19-.32-.21-.53-.39-.91-.49-.17-.06-.23-.08-.39-.16-.31-.22-.52-.39-.89-.48-.16-.05-.22-.08-.37-.15-.34-.24-.59-.43-1.02-.47-.22-.04-.35-.07-.56-.16-.35-.24-.62-.43-1.07-.49-.31-.07-.51-.16-.78-.34-1.85-1.23-3.87-1.82-5.94-2.52-.33-.07-.53-.16-.82-.31-.28-.16-.47-.26-.77-.37-.17-.06-.23-.09-.39-.17-1.1-.75-2.27-1.06-3.54-1.38-.17-.04-.24-.06-.41-.12-.41-.19-.69-.43-1.15-.49-.32-.05-.53-.1-.84-.22-1.2-.87-2.57-.9-3.91-1.39-.18-.05-.25-.07-.42-.14-.27,.03-.2-.52-.56-.13-.25,.08-.4,.07-.65-.02-2.34-1.13-4.76-1.55-7.27-2.07-.28,0-.45-.03-.72-.12-2.28-.93-4.58-1.32-6.81-1.99-4.66-1.4-9.35-2.72-14.12-3.7-.42-.09-.84-.1-1.39-.12-.29-.02-.45-.04-.73-.1-.42-.11-.72-.22-1.15-.25-.27-.03-.43-.06-.7-.11-1.19-.21-2.23-.67-3.48-.36-.29,.02-.46,0-.75-.08-2.14-.79-4.25-.69-6.48-.67-.32,0-.5,0-.82-.03-1.88-.5-3.66-.24-5.57-.28-.63,.03-1.11-.02-1.73-.11-3.36-.45-6.62-.41-9.81-.13-3.43,.3-6.84,.19-10.41,.24-.34,.03-.53,.04-.87,.02-5.07-.15-9.98,.26-14.99,.8-.34,.19-.59,.25-.96,.28-.59-.04-1.07-.31-1.61,.13-.22,.1-.36,.13-.6,.14-.59-.14-1.06-.02-1.64,.1-.25,.03-.39,.04-.64,.06-.4,.03-.7,.05-1.09,.18-.26,.07-.42,.1-.7,.14-2.44,.2-4.67,.88-7.05,1.41-.27,.09-.43,.13-.72,.18-1.11,.27-2.18,.16-3.22,.74-.68,.43-1.33,.54-2.11,.59-2.14,.32-4.06,1.02-6.14,1.53-.17,.08-.24,.1-.41,.18-.23,.1-.37,.15-.6,.24-.16,.06-.22,.08-.39,.13-.35,.1-.6,.16-.88,.4-.13,.09-.19,.13-.34,.2-.28,.11-.48,.17-.77,.26-.24,.05-.38,.07-.63,.07-1.1-.05-1.97,.28-2.86,.89-.25,.11-.39,.15-.66,.21-2.82,1.1-5.66,1.74-8.46,2.88-.17,.1-.24,.14-.43,.21-1.58,.2-2.98,.6-4.37,1.38-.3,.17-.51,.24-.84,.3-.47,.06-.8,.18-1.2,.43-.23,.11-.37,.15-.61,.22-1.04,.21-1.89,.59-2.82,1.07-.17,.08-.23,.11-.4,.17-1.72,.75-3.39,1.33-4.99,2.33-.35,.21-.62,.32-.99,.48-.77,.25-1.41,.54-2.07,1.01-.14,.09-.2,.13-.35,.22-.21,.11-.33,.17-.54,.27-.15,.07-.21,.1-.35,.17-.27,.13-.42,.25-.65,.44-.31,.22-.57,.33-.93,.46-.86,.17-1.54,.49-2.26,.98-.14,.09-.2,.13-.34,.21-.2,.11-.31,.17-.51,.28-.24,.16-.4,.26-.64,.42-.19,.13-.3,.2-.49,.33-.31,.22-.57,.32-.94,.43-1.74,.64-3.29,1.4-4.74,2.56-.17,.19-.28,.28-.47,.45-.2,.15-.32,.23-.54,.35-.73,.36-1.36,.69-2.1,1.01-.49,.17-.88,.31-1.23,.72-.3,.34-.55,.57-.94,.8-.27,.12-.46,.18-.74,.29-.15,.06-.21,.09-.35,.15-.25,.12-.42,.21-.63,.39-.12,.09-.17,.13-.31,.21-.24,.13-.4,.22-.6,.42-.2,.21-.35,.32-.58,.49-.19,.12-.3,.18-.49,.28-.25,.13-.41,.2-.66,.32-.18,.1-.27,.16-.42,.29-.14,.14-.22,.22-.38,.34-.16,.11-.26,.17-.43,.28-.12,.07-.18,.1-.3,.16-.18,.09-.29,.14-.48,.23-.14,.07-.2,.09-.34,.16-.36,.15-.52,.37-.75,.68-.39,.44-.84,.63-1.33,.91-.19,.12-.29,.18-.47,.3-.12,.08-.17,.11-.3,.19-.17,.1-.26,.17-.4,.31-.14,.14-.22,.22-.38,.34-.17,.11-.27,.17-.45,.27-.13,.07-.18,.1-.31,.16-.24,.13-.38,.23-.59,.41-.13,.09-.18,.12-.32,.2-.4,.15-.64,.36-.9,.7-.12,.12-.18,.17-.32,.28-.21,.15-.33,.23-.54,.4-2.05,2.21-4.38,3.9-6.63,5.69-3.8,3.02-7.42,6.23-11.06,9.42-4.53,3.97-8.99,8.02-13.13,12.38-4.18,4.4-8.2,8.96-11.95,13.75-4.49,5.74-8.1,12-11.16,18.6-1.39,3-3.28,5.74-4.88,8.63-2.12,3.83-3.96,7.79-5.71,11.79-2.43,5.57-4.63,11.23-6.75,16.93-2.29,6.14-4.33,12.36-5.93,18.74-1.39,5.54-2.6,11.11-3.12,16.79-.53,5.73-1.2,11.43-1.8,17.15-.39,3.77-.7,7.53-.6,11.32,.14,5.65,.52,11.26,1.72,16.82,.69,3.21,.78,6.55,1.15,9.83,1.01,8.76,2.7,17.39,4.98,25.88,3.48,13,8.22,25.55,14.25,37.61,4.46,8.95,9.57,17.49,15.31,25.65,3.89,5.54,7.88,11.06,12.59,15.92,2.53,2.62,5.35,5.01,7.96,7.6,5.36,5.33,10.84,10.54,16.7,15.32,4.95,4.04,10.16,7.75,15.33,11.51,6.7,4.87,13.66,9.26,20.96,13.14,6.46,3.43,13.15,6.36,20.1,8.63,3.43,1.12,6.94,2.05,10.56,2.54,4.41,.61,8.54,2.3,12.69,3.81,5.95,2.16,12.01,3.74,18.31,4.29,2.86,.25,5.72,.52,8.61,.46,4.37-.09,8.73,.26,13.09,.46,3.56,.16,7.09,.81,10.67,.81,9.14,0,18.16-1.1,27.15-2.68,6.69-1.18,13.08-3.47,19.67-5,6.71-1.55,13.21-3.8,19.65-6.2,6.98-2.61,13.84-5.55,20.46-9.01,4.82-2.52,9.57-5.18,14.17-8.06,4.15-2.6,8.18-5.39,12.14-8.29,2.84-2.08,5.66-4.21,8.3-6.48,6.3-5.4,13.13-10.18,18.94-16.18,4.34-4.48,8.61-9.04,12.45-13.94,7.54-9.62,14.49-19.66,19.04-31.1,1.7-4.28,3.86-8.3,5.86-12.41,4.55-9.36,8.59-18.91,10.73-29.19,1.34-6.47,2.67-12.94,4.38-19.33,1.3-4.84,1.75-9.85,2.26-14.83,.34-3.34,.44-6.69,.6-10.04,.21-4.38-.2-8.74-.9-13.05-.87-5.34-.73-10.73-.98-16.1-.25-5.27-.48-10.52-1.58-15.71-1.81-8.5-3.86-16.94-6.4-25.25-1.25-4.09-2.87-8.04-5.06-11.72-1.95-3.26-3.45-6.73-4.99-10.19-2.11-4.72-4.59-9.26-7.1-13.78-2.59-4.66-5.32-9.26-8.46-13.56-2.76-3.78-5.35-7.69-8.39-11.28-6.32-7.48-12.34-15.22-19.19-22.24-5.25-5.38-10.87-10.37-17.08-14.64-.22-.15-.43-.32-.69-.6-.16-.21-.25-.33-.38-.54-.2-.3-.36-.52-.62-.76-.17-.14-.26-.21-.44-.33-.13-.08-.18-.12-.31-.21-.22-.18-.37-.3-.62-.43-.15-.08-.21-.12-.34-.22-.43-.41-.82-.72-1.33-1.01-.38-.23-.66-.4-1.02-.64-.13-.1-.18-.14-.29-.25-.11-.12-.15-.16-.25-.29-.17-.23-.29-.38-.49-.58-.1-.13-.14-.19-.21-.34-.04-.24-.03-.38,.04-.61,.2-.28,.39-.36,.71-.24,2.54,1.77,4.95,3.53,7.35,5.31,1.18,.88,2.25,1.89,3.53,2.8,.25,.2,.44,.31,.7,.51,2.44,1.86,4.73,3.74,6.99,5.82,.38,.32,.64,.62,1.04,.9,.78,.43,1.19,1.12,1.83,1.71,.24,.21,.43,.33,.69,.53,1.71,1.43,3.17,2.96,4.59,4.53,.32,.36,.71,.62,1.11,1.05,.38,.25,.64,.47,.9,.84,.37,.37,.67,.65,1.04,1.02,.23,.21,.39,.34,.6,.59,3.41,3.5,6.65,7.01,9.67,10.72,1.17,1.44,2.36,2.85,3.5,4.31,1.95,2.51,3.98,4.97,5.81,7.57,4.26,6.05,8.36,12.21,11.96,18.69,2.25,4.05,4.53,8.08,6.52,12.27,2.16,4.56,4.27,9.14,6.14,13.84,2.41,6.03,4.69,12.1,6.39,18.37,1.05,3.88,2.35,7.7,3.02,11.67,.49,2.92,1.29,5.77,1.79,8.7,.49,2.87,1.13,5.72,1.42,8.63,.38,3.83,1.15,7.62,1.14,11.5,0,1.73,.39,3.47,.46,5.22,.13,3.33,.24,6.66,.27,10,.04,4.16,0,8.31-.33,12.45-.29,3.65-.56,7.3-.97,10.94-.6,5.44-1.48,10.83-2.54,16.19-1.3,6.62-2.94,13.16-4.92,19.62-1.4,4.58-2.94,9.11-4.67,13.57-1.3,3.37-2.73,6.69-4.22,9.98-1.16,2.56-2.47,5.05-3.55,7.65-.65,1.57-1.51,3.06-2.34,4.54-1.73,3.11-3.49,6.21-5.28,9.28-1.63,2.8-3.5,5.44-5.27,8.15-1.3,2-2.64,3.97-4.09,5.86-2.35,3.06-4.48,6.27-7.07,9.16-.85,.95-1.66,2.01-2.47,3.03-1.72,2.16-3.57,4.22-5.45,6.25-1.76,1.9-3.66,3.65-5.39,5.58-1.02,1.13-2.16,2.19-3.31,3.22-1.66,1.49-3.32,2.97-4.94,4.5-1.15,1.09-2.53,1.94-3.6,3.05-1.36,1.42-3.02,2.44-4.46,3.75-1.67,1.52-3.47,2.94-5.41,4.17-1.54,.98-2.88,2.31-4.44,3.29-3.02,1.89-5.81,4.1-8.85,5.96-3.68,2.25-7.36,4.49-11.11,6.62-3.33,1.89-6.77,3.59-10.21,5.29-4.35,2.15-8.79,4.07-13.25,5.95-2.64,1.11-5.36,2.02-8.06,2.99-1.1,.4-2.23,.71-3.33,1.1-5.16,1.83-10.44,3.26-15.74,4.59-3.03,.76-6.07,1.52-9.15,2.07-1.67,.3-3.35,.49-5.01,.79-1.71,.31-3.43,.59-5.14,.91-3.45,.65-6.95,.84-10.42,1.25-4.04,.48-8.14,.49-12.22,.73-3.06,.18-6.12,.01-9.18,.09-2.54,.07-5.09-.24-7.64-.36-1.91-.1-3.83-.12-5.74-.32-3.43-.37-6.84-.82-10.26-1.22-3.38-.39-6.74-.91-10.07-1.54-6.22-1.17-12.38-2.6-18.44-4.42-4.02-1.21-8.05-2.38-12-3.82-3.19-1.17-6.39-2.29-9.51-3.66-3.26-1.43-6.54-2.8-9.74-4.33-4.7-2.25-9.34-4.62-13.82-7.29-4.73-2.82-9.45-5.68-13.95-8.89-4.01-2.86-7.92-5.82-11.79-8.85-2.54-1.99-4.94-4.18-7.37-6.32-1.68-1.47-3.39-2.9-4.93-4.5-1.61-1.68-3.41-3.17-4.93-4.95-1.41-1.66-3.12-3.05-4.42-4.83-.28-.38-.72-.65-.91-1.1-.93-2.22-2.72-3.8-4.23-5.58-2.86-3.37-5.63-6.8-8.26-10.35-3.05-4.1-5.97-8.3-8.7-12.63-3.26-5.19-6.31-10.5-9.15-15.94-3.21-6.15-6.01-12.47-8.54-18.91-2.27-5.79-4.37-11.64-6.01-17.66-.56-2.05-1.15-4.09-1.73-6.13-.76-2.7-1.24-5.48-1.82-8.24-.52-2.44-1.11-4.87-1.48-7.33-.45-2.93-1.05-5.84-1.3-8.81-.18-2.16-.51-4.31-.81-6.47-.09-.64-.14-1.27-.13-1.9,.06-3.19-.54-6.33-.57-9.52-.03-3.7-.26-7.41-.14-11.1,.16-4.87,.34-9.75,.82-14.61,.47-4.76,1.08-9.5,1.83-14.22,.59-3.72,1.27-7.43,2.17-11.1,.7-2.83,1.29-5.69,2.08-8.5,1.53-5.47,3.2-10.89,5.14-16.24,2.22-6.1,4.66-12.1,7.51-17.93,1.4-2.86,2.77-5.72,4.28-8.53,3.29-6.13,6.88-12.07,10.81-17.81,2.25-3.29,4.65-6.46,7.05-9.64,2.36-3.14,5.01-6.04,7.33-9.2,.65-.89,1.65-1.52,2.33-2.39,1.99-2.56,4.69-4.46,6.58-7.12,.18-.25,.5-.39,.85-.63,.23-.26,.39-.43,.58-.7,.27-.61,.87-.75,1.28-1.24,.37-.33,.65-.6,.96-.99,1.61-1.5,3.09-3.04,4.77-4.3,.83-.62,1.19-1.63,2.23-2.11,.27-.17,.43-.31,.71-.47,.71-.33,1.1-.88,1.66-1.38,.28-.36,.51-.61,.9-.87,1.02-.53,1.59-1.45,2.57-2.02,.32-.34,.57-.6,.94-.89,1.19-.91,2.29-1.76,3.48-2.66,.25-.2,.41-.34,.68-.52,.24-.17,.38-.29,.61-.45,.42-.37,.84-.55,1.32-.83,1.38-1.28,2.97-2.12,4.41-3.33,.26-.19,.42-.32,.7-.48,.42-.29,.75-.54,1.17-.83,.28-.15,.45-.29,.75-.42,.95-.63,1.8-1.22,2.76-1.84,.31-.13,.48-.27,.76-.45,1.4-.92,2.7-1.78,4.1-2.7,.26-.18,.42-.31,.71-.44,1.51-.81,2.78-1.81,4.37-2.48,.29-.14,.46-.28,.74-.43,.51-.31,.93-.57,1.44-.87,.34-.1,.51-.28,.81-.41,.31-.18,.54-.33,.86-.51,.26-.15,.42-.27,.72-.36,.42-.21,.74-.39,1.17-.62,.3-.14,.46-.28,.75-.42,1.6-1.02,3.22-1.76,4.96-2.5,.35-.09,.52-.26,.82-.41,.74-.56,1.54-.8,2.39-1.19,.31-.09,.49-.22,.79-.3,.69-.72,1.63-.76,2.45-1.26,.29-.14,.46-.27,.76-.38,1.43-.78,2.86-1.27,4.38-1.85,.28-.15,.45-.28,.74-.41,.5-.23,.91-.41,1.42-.62,1.02-.43,1.97-.75,3.05-1.02,.64-.51,1.29-.72,2.07-.91,.33-.06,.5-.2,.81-.29,.83-.58,1.72-.7,2.65-1.03,1.29-.41,2.46-.82,3.74-1.26,.93-.33,1.75-.62,2.69-.94,1.1-.56,2.24-.53,3.39-.93,.4-.13,.69-.24,1.09-.36,.81-.34,1.51-.67,2.43-.61,.23-.1,.34-.17,.56-.28,.39-.15,.67-.28,1.07-.39,.8-.22,1.52-.41,2.35-.63,.33-.06,.5-.19,.81-.26,.31-.04,.52-.06,.83-.08,.71-.25,1.29-.56,2.08-.6,1.66-.38,3.18-.9,4.91-1.02,.34-.02,.51-.15,.81-.21,.31-.03,.53-.06,.84-.08,1.33-.88,2.89-.3,4.29-.95,.26-.07,.4-.11,.64-.15,.66-.18,1.23-.08,1.9-.11,.58-.23,1.08-.41,1.73-.44,1.28-.18,2.44-.37,3.73-.56,.26-.08,.39-.14,.63-.2,.58-.06,1.07,.13,1.63-.14,.33-.08,.57-.12,.92-.16,.37-.07,.63-.08,.98-.12,.7-.05,1.3-.08,2.03-.09,.52-.09,.92-.23,1.46-.22,.42-.03,.73-.05,1.14-.07,.41-.12,.72-.19,1.2-.05,.22,.01,.29,0,.42,0,1.29-.32,2.54-.46,3.95-.54,.28-.03,.42-.04,.66-.02,.27,.05,.45,.04,.7-.02,1.02-.47,2.02,.1,3.11-.19,1.45-.1,2.76-.09,4.18-.07,1.07-.33,2.05-.27,3.15-.13,.3,.1,.48,.13,.75,.1,.21-.05,.34-.08,.56-.08,.27,.08,.45,.11,.72,.07,.71-.28,1.36-.21,2.13-.09,2.18,.25,4.23,.06,6.42,.18,1.11,.2,2.1,.09,3.19,.09,1.46,.39,2.85-.03,4.31,.37,.75,.11,1.37,.18,2.12,.23,.43-.09,.72-.1,1.09,.1,.31,.04,.52,.04,.83,.06,.71,.11,1.34-.04,2.06,.23,1.83-.13,3.46,.46,5.25,.66,1.31,.07,2.47,.29,3.74,.62,.52,.04,.91,.06,1.42,.11,.33,.04,.52,.11,.81,.24,1.34,.21,2.59,.39,3.95,.65,.38,.11,.65,.11,1.01,.17,.24,.05,.39,.07,.62,.16,.41,.11,.74,.1,1.11,.32,.3,.04,.51,.05,.83,.07,.31,.03,.51,.1,.79,.24,1.17-.04,2.15,.46,3.32,.61,1.13,.5,2.31,.37,3.39,.98,.22,.03,.33,.04,.52,.07,.29,.05,.49,.12,.77,.26,.21,.01,.32,0,.51,.03,.22,.06,.36,.1,.6,.18,.25,.05,.39,.05,.63,.1,.74,.24,1.39,.4,2.13,.63,.5,.17,.85,.47,1.42,.43,.32,.04,.51,.1,.78,.24,1.14,.31,2.19,.59,3.34,.95,.33,.11,.53,.18,.83,.32,.42,.13,.73,.24,1.13,.38,.64,.1,1.15,.3,1.74,.58,.41,.09,.71,.16,1.11,.29,.64,.22,1.18,.38,1.79,.67,1.25,.4,2.39,.78,3.64,1.23,.31,.14,.51,.22,.78,.39,.31,.1,.53,.15,.84,.27,.3,.13,.5,.2,.79,.36,.63,.21,1.15,.39,1.77,.63,.31,.11,.51,.17,.79,.33,.31,.09,.52,.15,.82,.28,.3,.12,.5,.2,.78,.36,.74,.29,1.37,.54,2.1,.87,.33,.15,.54,.26,.85,.4,.5,.15,.91,.3,1.4,.52,.52,.29,.95,.52,1.48,.76,1.67,.73,3.24,1.45,4.91,2.24,.3,.11,.5,.18,.77,.35,.42,.19,.74,.34,1.16,.54,.72,.34,1.35,.64,2.02,1.07Z"/>
      <path class="cls-6" d="M316.39,35.36c-.15,.16-.35,.22-.61,.37-.19,.18-.34,.23-.61,.21-2.24-.87-4-2.35-5.97-3.47-.37-.21-.7-.47-.82-1.03,.22-.2,.43-.28,.69-.45,.79-.1,1.35,.31,1.92,.69,1.79,1.19,3.57,2.39,5.4,3.68Z"/>
      <path class="cls-5" d="M211.67,.27c-.29,.43-.8,.31-1.26,.28-1.64-.1-3.29,.24-4.98-.28,2-.21,4.06-.19,6.24,0Z"/>
      <path class="cls-5" d="M219.21,.72c-1.32,.11-2.74,.37-4.18-.18,1.33-.03,2.73-.21,4.18,.18Z"/>
      <path class="cls-5" d="M197.92,.21c-1.18,.38-2.5,.42-3.93,.19,1.2-.35,2.5-.31,3.93-.19Z"/>
      <path class="cls-5" d="M166.91,3.34c-.4,.66-1.14,.72-1.88,.72-.69,0-1.37,.07-2.16,.3,.52-.81,1.5-.7,2.37-.77,.53-.04,1.04-.11,1.67-.25Z"/>
      <path class="cls-5" d="M189.32,.49c-1.09,.62-2.4,.45-3.79,.63,1.06-.68,2.39-.55,3.79-.63Z"/>
      <path class="cls-5" d="M174.91,2.09c-.94,.64-2.11,.78-3.47,.63,.97-.47,2.18-.43,3.47-.63Z"/>
      <path class="cls-5" d="M234.3,2.6c-1.15,.25-2.33-.13-3.59-.38,1.16-.28,2.33,.05,3.59,.38Z"/>
      <path class="cls-5" d="M138.76,10.67c-.88,.89-2.16,1-3.49,1.32,.96-.66,2.2-.91,3.49-1.32Z"/>
      <path class="cls-5" d="M251.56,6.15c-1.05-.06-2.19-.11-3.26-.78,1.05,.07,2.16,.22,3.26,.78Z"/>
      <path class="cls-5" d="M144.84,8.82c-.76,.87-1.98,.59-3.14,.96,.79-.75,1.96-.67,3.14-.96Z"/>
      <path class="cls-5" d="M129.47,14.17c-.65,.78-1.75,.69-2.79,1.07,.68-.7,1.69-.83,2.79-1.07Z"/>
      <path class="cls-5" d="M148.36,7.84c-.48,.65-1.37,.33-2.18,.66,.48-.63,1.24-.75,2.18-.66Z"/>
      <path class="cls-5" d="M169.46,3.09c-.4,.59-1.03,.29-1.7,.22,.42-.58,1.03-.22,1.7-.22Z"/>
      <path class="cls-5" d="M225.32,1.36c-.56,.22-1.19,.23-1.91-.08,.57-.4,1.2-.15,1.91,.08Z"/>
      <path class="cls-5" d="M293.73,21.89c-.71,.04-1.31-.34-1.93-.88,.71-.04,1.29,.4,1.93,.88Z"/>
      <path class="cls-5" d="M256.7,7.4c-.67,.34-1.3-.04-2-.42,.65-.17,1.26,.22,2,.42Z"/>
      <path class="cls-5" d="M156.04,5.61c-.37,.61-1.13,.41-1.85,.66,.4-.5,1.05-.64,1.85-.66Z"/>
      <path class="cls-5" d="M177.18,1.73c-.28,.65-.84,.45-1.45,.28,.36-.39,.9-.07,1.45-.28Z"/>
      <path class="cls-5" d="M268.85,11.26c-.57,.19-1.1-.07-1.68-.45,.55-.11,1.07,.16,1.68,.45Z"/>
      <path class="cls-5" d="M265.97,10.32c-.53,.19-1.03-.09-1.62-.4,.54-.23,1.04,.08,1.62,.4Z"/>
      <path class="cls-5" d="M81.49,40.71c-.05,.55-.56,.64-1.11,.82,.08-.52,.6-.59,1.11-.82Z"/>
      <path class="cls-5" d="M284.87,17.64c-.52,.24-.96,0-1.39-.51,.47-.05,.88,.21,1.39,.51Z"/>
      <path class="cls-5" d="M182.6,1.13c-.23,.47-.68,.36-1.24,.33,.21-.46,.67-.46,1.24-.33Z"/>
      <path class="cls-5" d="M61.6,57.2c.13,.49-.12,.81-.73,.96,0-.41,.41-.6,.73-.96Z"/>
      <path class="cls-6" d="M345.12,59.38c-.4,.05-.66-.2-.85-.66,.44-.11,.66,.2,.85,.66Z"/>
      <path class="cls-6" d="M336,50.68c-.47,.16-.8-.08-1-.66,.43-.06,.63,.34,1,.66Z"/>
      <path class="cls-5" d="M71.89,48.06c.02,.41-.25,.66-.7,.85-.02-.4,.19-.71,.7-.85Z"/>
      <path class="cls-5" d="M75.41,45.15c.03,.43-.23,.71-.74,.87-.02-.42,.29-.66,.74-.87Z"/>
      <path class="cls-5" d="M222.43,1.06c-.24,.15-.54,.16-.92,0,.23-.42,.55-.26,.92,0Z"/>
      <path class="cls-5" d="M179.1,1.44c-.11,.39-.39,.45-.81,.25,.15-.32,.45-.29,.81-.25Z"/>
      <path class="cls-5" d="M185.01,1.05c-.26,.09-.57,.11-1.03,.1,.17-.45,.55-.46,1.03-.1Z"/>
      <path class="cls-5" d="M243.21,4.26c-.28,.14-.63,.19-.99-.13,.29-.17,.62-.19,.99,.13Z"/>
      <path class="cls-5" d="M241.46,3.8c-.2,.37-.5,.34-.86,0,.23-.07,.5-.07,.86,0Z"/>
      <path class="cls-5" d="M149.98,7.17c-.06,.41-.4,.44-.86,.42,.08-.37,.44-.37,.86-.42Z"/>
      <path class="cls-5" d="M306.48,28.97c-.31,.11-.58-.06-.88-.34,.29-.07,.62-.04,.88,.34Z"/>
      <path class="cls-5" d="M59.36,59.43c.12,.26,.05,.51-.34,.67,.02-.2,.14-.41,.34-.67Z"/>
      <path class="cls-6" d="M338.54,52.94c-.25,.11-.49,.05-.66-.32,.19,.01,.41,.13,.66,.32Z"/>
      <path class="cls-5" d="M69.34,50.31c.03,.27-.14,.44-.51,.5,0-.25,.18-.41,.51-.5Z"/>
      <path class="cls-5" d="M201.8,.18c-.06,.36-.27,.43-.57,.06,.13-.07,.29-.08,.57-.06Z"/>
      <path class="cls-6" d="M346.76,60.99c-.25,.07-.45-.05-.57-.4,.26-.08,.42,.1,.57,.4Z"/>
      <path class="cls-5" d="M79.57,41.96c.04,.28-.11,.46-.48,.53-.03-.26,.15-.42,.48-.53Z"/>
      <path class="cls-6" d="M327.99,43.98c-.24,.11-.48,.06-.66-.29,.19,0,.41,.11,.66,.29Z"/>
      <path class="cls-5" d="M104.22,26.01c.01,.3-.2,.44-.6,.43,.03-.27,.27-.34,.6-.43Z"/>
      <path class="cls-5" d="M105.83,25.14c-.03,.25-.21,.36-.55,.38,0-.27,.21-.37,.55-.38Z"/>
      <path class="cls-5" d="M299.83,25.09c-.21,.13-.43,.09-.66-.17,.21-.16,.44-.1,.66,.17Z"/>
      <path class="cls-5" d="M107.74,24.09c0,.28-.18,.43-.56,.45,0-.26,.23-.37,.56-.45Z"/>
      <path class="cls-5" d="M296.05,23.12c-.23,.16-.5,.14-.73-.22,.2-.02,.44,.06,.73,.22Z"/>
      <path class="cls-5" d="M113.5,21.2c.02,.3-.19,.45-.59,.44,.02-.27,.26-.36,.59-.44Z"/>
      <path class="cls-5" d="M290.56,20.28c-.21,.14-.44,.1-.67-.17,.21-.17,.43-.09,.67,.17Z"/>
      <path class="cls-5" d="M116.71,19.71c-.04,.26-.25,.36-.61,.34,.03-.28,.26-.35,.61-.34Z"/>
      <path class="cls-5" d="M119.91,18.06c0,.27-.2,.4-.56,.41,0-.27,.22-.37,.56-.41Z"/>
      <path class="cls-5" d="M281.99,16.38c-.22,.17-.49,.17-.75-.16,.2-.03,.44,.02,.75,.16Z"/>
      <path class="cls-5" d="M125.03,15.8c0,.27-.18,.41-.55,.44,0-.27,.21-.38,.55-.44Z"/>
      <path class="cls-5" d="M279.06,15.15c-.21,.15-.45,.11-.69-.18,.22-.17,.43-.05,.69,.18Z"/>
      <path class="cls-5" d="M277.47,14.5c-.2,.14-.44,.13-.7-.13,.2-.14,.44-.1,.7,.13Z"/>
      <path class="cls-5" d="M274.91,13.54c-.21,.15-.45,.12-.7-.16,.22-.17,.44-.05,.7,.16Z"/>
      <path class="cls-5" d="M132.39,12.96c-.04,.27-.25,.38-.62,.35,.05-.26,.27-.34,.62-.35Z"/>
      <path class="cls-5" d="M273.28,12.92c-.22,.14-.45,.09-.68-.21,.22-.13,.44-.03,.68,.21Z"/>
      <path class="cls-5" d="M263.1,9.36c-.2,.16-.45,.16-.72-.11,.2-.15,.44-.11,.72,.11Z"/>
      <path class="cls-5" d="M258.93,8.1c-.18,.13-.4,.12-.67-.1,.2-.29,.41-.13,.67,.1Z"/>
      <path class="cls-5" d="M253.97,6.72c-.16,.26-.34,.2-.55-.06,.17-.23,.34-.1,.55,.06Z"/>
      <path class="cls-5" d="M252.86,6.49c-.18,.14-.4,.13-.68-.1,.2-.28,.41-.09,.68,.1Z"/>
      <path class="cls-5" d="M153.18,6.27c-.07,.24-.26,.34-.61,.31,.02-.3,.26-.37,.61-.31Z"/>
      <path class="cls-5" d="M244.85,4.58c-.18,.13-.4,.12-.67-.09,.2-.28,.41-.12,.67,.09Z"/>
      <path class="cls-5" d="M161.82,4.37c-.08,.24-.27,.33-.62,.29,.03-.3,.27-.37,.62-.29Z"/>
      <path class="cls-5" d="M236.54,2.97c-.18,.14-.4,.14-.68-.08,.19-.28,.41-.13,.68,.08Z"/>
      <path class="cls-5" d="M190.63,.47c-.04,.31-.21,.46-.56,.16,.13-.11,.3-.14,.56-.16Z"/>
      <path class="cls-5" d="M203.08,.15c-.05,.38-.27,.43-.57,.08,.13-.08,.29-.1,.57-.08Z"/>
      <path class="cls-5" d="M86.62,36.88c.02,.28-.15,.43-.52,.48-.03-.28,.18-.4,.52-.48Z"/>
      <path class="cls-5" d="M88.54,35.62c0,.28-.19,.42-.56,.44,0-.28,.22-.38,.56-.44Z"/>
      <path class="cls-5" d="M92.05,33.34c.03,.29-.15,.46-.55,.48,0-.27,.22-.38,.55-.48Z"/>
      <path class="cls-5" d="M96.87,30.21c0,.26-.17,.4-.52,.43-.02-.28,.18-.38,.52-.43Z"/>
      <path class="cls-5" d="M101.98,27.29c.02,.28-.16,.43-.54,.46,0-.26,.21-.38,.54-.46Z"/>
      <path class="cls-7" d="M308.3,31.3c2.3,1.45,4.51,2.89,6.8,4.39,.23,.24,.38,.4,.63,.62,.09,.07,.07,.1,.08,.09,.15,.19,.33,.35,.57,.57,.07,.06,.07,.08,.08,.07,.04,.05,.08,.1,.21,.17,.39,.22,.68,.43,1.06,.7,.38,.61,.86,.92,1.53,1.16,.14,.07,.18,.11,.3,.18,.22,.19,.38,.33,.66,.49,.1,.05,.21,.14,.28,.17,.15,.1,.22,.17,.36,.29,.22,.23,.39,.4,.62,.63,.14,.13,.21,.2,.34,.32,.51,.78,1.38,.91,2,1.4,3.24,2.58,6.56,5.06,9.66,7.79,3.55,3.12,6.87,6.5,10.08,9.98,2.34,2.54,4.66,5.11,6.68,7.93,1.04,1.46,2.27,2.81,3.51,4.11,1.9,2,3.53,4.23,5.33,6.32,2.96,3.43,5.37,7.26,8.11,10.85,1.87,2.44,3.43,5.13,5.07,7.75,2.94,4.7,5.62,9.55,8.17,14.47,1.74,3.35,3.33,6.78,4.77,10.27,.49,1.19,1.04,2.34,1.71,3.43,3.09,5.02,5.4,10.39,7.03,16.05,1.92,6.65,3.71,13.33,5.15,20.1,1,4.73,1.87,9.48,2.06,14.34,.18,4.67,.5,9.35,.47,14.03-.01,2.85,.62,5.6,.99,8.39,.58,4.45,.68,8.89,.55,13.37-.14,5-.6,9.97-1.22,14.92-.52,4.13-1.33,8.2-2.52,12.19-1.3,4.35-1.92,8.85-2.89,13.27-1.34,6.09-2.92,12.09-5.26,17.88-2.14,5.29-4.46,10.48-6.98,15.59-.31,.62-.64,1.23-1.02,1.81-2.2,3.39-3.22,7.3-4.81,10.96-1.35,3.09-3.01,6-4.61,8.94-1.35,2.48-2.78,4.91-4.29,7.29-1.02,1.6-2.24,3.08-3.4,4.6-.74,.97-1.32,2.04-2.04,3.04-2.73,3.79-5.68,7.39-8.75,10.9-5.72,6.52-11.83,12.66-18.78,17.9-1.91,1.44-3.85,2.87-5.58,4.48-2.73,2.53-5.89,4.5-8.61,7.03-1.38,1.28-3.13,2.16-4.62,3.33-2.31,1.8-4.87,3.23-7.28,4.87-6.57,4.48-13.56,8.21-20.67,11.73-4.67,2.31-9.5,4.29-14.38,6.15-4.57,1.74-9.18,3.36-13.86,4.79-6.51,2-13.17,3.45-19.69,5.38-5.69,1.68-11.54,2.46-17.38,3.3-5.81,.84-11.65,1.12-17.51,1.11-2.56,0-5.1-.12-7.64-.43-3.18-.39-6.38-.38-9.57-.53-5-.23-10-.26-14.99-.67-5.48-.45-10.83-1.58-16.03-3.35-3.72-1.27-7.4-2.67-11.16-3.82-2.3-.7-4.68-.96-7.01-1.46-4.11-.89-8.15-2-12.06-3.58-2.76-1.11-5.49-2.29-8.22-3.47-4.65-2-9.07-4.41-13.46-6.9-2.78-1.57-5.6-3.1-8.16-5.01-2.21-1.65-4.65-2.94-6.77-4.76-2.2-1.89-4.8-3.32-7.14-5.06-2.85-2.12-5.65-4.33-8.42-6.56-2.9-2.34-5.66-4.83-8.39-7.37-1.28-1.19-2.46-2.48-3.77-3.61-3.55-3.05-6.64-6.55-9.94-9.85-.11-.11-.22-.24-.36-.31-2.6-1.45-4.15-3.93-5.98-6.13-5.14-6.19-9.88-12.69-14.18-19.49-3.62-5.72-7-11.58-9.98-17.67-1.9-3.88-3.78-7.75-5.44-11.74-1.84-4.42-3.64-8.86-5.07-13.44-1-3.2-2.11-6.36-3.01-9.59-.53-1.89-1.17-3.74-1.5-5.7-.45-2.72-1.35-5.35-1.9-8.07-.71-3.55-1.23-7.13-1.91-10.69-.42-2.19-.44-4.43-.92-6.62-.21-.97-.22-2-.29-3-.19-2.44-.49-4.85-.98-7.25-1.47-7.3-1.58-14.69-1.1-22.1,.24-3.82,.78-7.62,1.3-11.41,.17-1.26,.26-2.54,.36-3.82,.33-4.24,.82-8.45,1.5-12.66,1.07-6.64,2.77-13.12,4.84-19.49,1.55-4.79,3.16-9.57,5.19-14.19,1.31-2.97,2.35-6.05,3.56-9.07,1.42-3.55,3.11-6.98,4.71-10.45,1.81-3.92,4.26-7.49,6.26-11.3,1.44-2.73,2.82-5.48,4.22-8.23,1.45-2.85,3.23-5.49,4.98-8.16,1.93-2.94,4.14-5.68,6.41-8.33,2.9-3.39,5.85-6.73,8.97-9.94,3.05-3.13,6.21-6.13,9.39-9.1,2.29-2.14,4.77-4.09,7.07-6.23,2.96-2.75,6.2-5.17,9.32-7.73,1.6-1.31,3.25-2.57,4.91-3.99,.16-.09,.23-.12,.38-.21,.09-.06,.22-.1,.28-.14,.38-.22,.64-.5,1-.82,.09-.07,.22-.12,.28-.17,.25-.14,.44-.26,.69-.47,.09-.07,.23-.13,.29-.19,.12-.06,.19-.06,.29-.16,.13-.14,.23-.18,.39-.29,.13-.16,.21-.25,.4-.32,.09,0,.2-.02,.24-.06,.12-.1,.19-.18,.32-.3,.53-.35,1-.65,1.54-1.02,.42-.26,.67-.57,1.05-.86,.09-.05,.21-.1,.26-.14,.12-.07,.18-.09,.33-.19,.08-.07,.23-.12,.3-.16,.13-.06,.2-.07,.32-.17,.16-.1,.25-.15,.38-.28,.11-.16,.18-.25,.36-.34,.31-.14,.54-.27,.84-.44,.15-.08,.21-.1,.35-.2,.23-.18,.38-.28,.6-.45,.26-.17,.45-.29,.71-.49,.09-.06,.22-.11,.27-.15,.25-.15,.43-.28,.69-.49,.09-.06,.23-.11,.29-.15,.23-.09,.4-.09,.6-.23,.32-.28,.59-.48,.95-.74,.51-.25,.92-.46,1.37-.81,.75-.41,1.41-.77,2.17-1.19,.16-.05,.22-.04,.3-.12,.12-.14,.22-.2,.38-.32,1.7-1,3.4-1.85,5.15-2.84,.33-.17,.57-.29,.89-.46,.15-.09,.21-.11,.36-.2,.24-.14,.4-.21,.62-.34,.14-.14,.23-.22,.42-.3,.09,0,.2-.03,.24-.06,.82-.44,1.63-.8,2.5-1.25,.33-.2,.59-.32,.93-.5,.29-.13,.49-.23,.76-.41,.1-.05,.22-.09,.27-.13,.15-.07,.23-.13,.37-.23,.06-.04,.2-.07,.26-.1,.82-.3,1.54-.64,2.32-1.13,.33-.16,.55-.28,.86-.45,1.77-.82,3.54-1.4,5.24-2.42,.11-.03,.21-.04,.25-.07,.97-.42,1.95-.7,2.97-1.19,.22-.05,.33-.08,.51-.17,.39-.16,.7-.29,1.08-.5,.3-.09,.5-.16,.79-.29,1.54-.43,2.93-1.03,4.5-1.37,.14-.1,.2-.12,.32-.18,2.93-.96,5.91-1.53,8.72-2.98,.24-.06,.37-.09,.58-.15,.94-.43,1.88-.55,2.86-.95,.26-.03,.4-.03,.65-.05,.27-.05,.44-.06,.63-.2,.09-.11,.16-.13,.31-.22,.38-.11,.67-.18,1.03-.37,.1-.06,.24-.08,.3-.12,.17-.07,.26-.12,.42-.19,.08-.01,.19,0,.24-.03,2.15-.6,4.28-1.1,6.47-1.83,.8,.08,1.38-.24,2.08-.56,1.14-.3,2.25-.21,3.35-.73,.23-.05,.34-.05,.54-.08,2.51-.42,4.87-1.11,7.41-1.56,.24-.05,.37-.05,.59-.07,.41-.03,.72-.02,1.08-.24,.18,0,.28,.01,.45-.02,.58,.17,1.05-.08,1.63-.21,.24-.03,.38-.02,.63-.05,.45-.16,.83-.14,1.3-.23,.34-.04,.58-.05,.93-.1,4.37-.53,8.65-.77,12.93-.78,.79,0,1.59,.02,2.51-.23,.25-.04,.36-.03,.55-.03,3.39,.12,6.68,.43,10.02,.05,3.41-.39,6.89-.1,10.48-.09,.57,.02,.99,.04,1.54,.04,1.97,.57,3.9,.02,5.88,.35,.24-.05,.37-.04,.58-.05,2.28,.08,4.46,.34,6.76,.69,.27,.07,.4,.11,.64,.14,1.21,.03,2.28,.35,3.5,.45,.23,.03,.34,.05,.54,.06,.38,.07,.65,.26,1.08,.22,.22,.02,.35,.04,.57,.05,7.77,1.35,15.1,4.03,22.8,5.8,.26,.08,.39,.12,.62,.17,2.46,.78,4.91,1.2,7.38,2.02,.25,.08,.37,.13,.6,.2,.17,0,.23-.02,.36,.04,.07,.07,.18,.11,.24,.11,1.38,.56,2.8,.77,4.24,1.33,.3,.12,.5,.19,.79,.28,.44,.08,.7,.33,1.11,.49,.08,.06,.22,.1,.29,.1,1.26,.55,2.56,.84,3.86,1.45,.11,.03,.24,.11,.31,.12,.23,.14,.41,.16,.67,.25,.24,.15,.4,.25,.65,.35,2.13,.89,4.16,1.78,6.36,2.56,.23,.18,.38,.27,.61,.37,.37,.17,.67,.28,1.04,.46,.19,.1,.28,.16,.46,.25,.41,.1,.72,.26,1.13,.42,.09,.05,.2,.13,.27,.15,.31,.26,.64,.31,1.02,.47,.09,.04,.2,.13,.27,.15,.33,.21,.62,.31,1.01,.43,.2,.09,.3,.16,.5,.25,.47,.24,.84,.46,1.37,.56,.08,.07,.09,.05,.08,.06,.23,.23,.51,.38,.9,.53,.09,.04,.21,.11,.27,.12,.13,.05,.19,.09,.35,.16,.41,.2,.71,.36,1.12,.54,.38,.03,.54,.26,.83,.45,.08,.05,.2,.12,.26,.13,.23,.11,.42,.14,.68,.25,.21,.16,.35,.25,.58,.38,.17,.07,.25,.13,.4,.22,.3,.16,.53,.28,.85,.43,.31,.13,.48,.32,.75,.5,.08,.04,.18,.13,.24,.15,.25,.13,.42,.27,.72,.4,.63,.3,1.16,.56,1.79,.87,.39,.19,.65,.39,1.06,.5,.24,.13,.39,.26,.63,.42,1.15,.54,2.02,1.37,3.23,1.84,.32,.19,.55,.31,.88,.45Z"/>
      <path class="cls-5" d="M257.55,9.89c-1.78,.1-3.49-.5-5.21-1.02-3.15-.96-6.32-1.84-9.51-2.68-2.47-.65-4.94-1.26-7.46-1.65-.15-.02-.28-.15-.51-.31,1.86-.26,3.68,.42,5.51,.86,4.79,1.14,9.51,2.54,14.23,3.95,.96,.29,1.99,.26,2.94,.86Z"/>
      <path class="cls-5" d="M213.64,2.11c-.99,.49-2.12,.25-3.22,.26-3.67,.01-7.33,.06-11,.28-1.99,.12-4.01-.18-6.14-.35,1.52-.16,3.13-.11,4.78,.04,1.43,.13,2.96-.06,4.4-.28,1.22-.19,2.42-.22,3.63-.2,2.48,.03,4.97-.18,7.54,.25Z"/>
      <path class="cls-5" d="M192.51,2.19c-.29,.36-.81,.48-1.35,.47-4.58-.09-9.14,.27-13.83,.62,0-.3,.21-.45,.5-.45,1.16,0,2.32-.27,3.46-.28,3.69-.04,7.37-.63,11.22-.36Z"/>
      <path class="cls-5" d="M143.59,11.17c-.64,.69-1.56,1.12-2.51,1.37-1.97,.52-3.86,1.32-6.01,1.65-.04-.23,.09-.4,.3-.45,2.75-.69,5.42-1.61,8.21-2.56Z"/>
      <path class="cls-5" d="M170.45,4.12c-.11,.32-.44,.45-.82,.49-2.14,.21-4.15,1.04-6.38,1.17,.06-.3,.29-.41,.56-.46,2.18-.36,4.28-1.13,6.64-1.2Z"/>
      <path class="cls-5" d="M265.55,12.07c-1.87-.12-3.69-.79-5.55-1.25-.56-.14-1.1-.35-1.72-.62,.2-.4,.49-.18,.78-.11,1.88,.46,3.7,1.12,5.61,1.46,.29,.05,.55,.28,.88,.52Z"/>
      <path class="cls-5" d="M285.01,19.4c-2.12-.46-4.15-1.39-6.23-2.44,.25-.06,.61-.13,.86,0,1.72,.9,3.69,1.24,5.37,2.44Z"/>
      <path class="cls-5" d="M220.99,2.49c-1.77,.32-3.66,.37-5.65-.19,1.77-.09,3.66-.35,5.65,.19Z"/>
      <path class="cls-5" d="M157.08,7.05c.02,.13-.08,.31-.21,.34-1.99,.44-3.86,1.34-6.05,1.54,.06-.37,.42-.49,.78-.57,1.78-.45,3.57-.88,5.49-1.3Z"/>
      <path class="cls-5" d="M108.39,25.89c.03,.13-.02,.32-.14,.38-1.56,.82-3.13,1.63-4.81,2.45,1.26-1.41,3.1-2.04,4.95-2.83Z"/>
      <path class="cls-5" d="M228.42,3.16c-.4,.32-.9,.31-1.34,.17-1.7-.51-3.44-.56-5.29-.74,2.15-.28,4.38-.07,6.64,.57Z"/>
      <path class="cls-5" d="M124.45,17.93c-1.35,1.23-3.18,1.72-5.03,2.42,.12-.47,.59-.61,1.01-.8,1.29-.56,2.59-1.1,4.01-1.62Z"/>
      <path class="cls-5" d="M134.52,14.31c-.02,.15-.16,.41-.31,.42-1.35,.1-2.51,.84-3.94,1,1.18-.85,2.6-1.28,4.25-1.42Z"/>
      <path class="cls-5" d="M271,13.76c-1.39-.12-2.76-.54-4.16-1.2,1.4,0,2.78,.48,4.16,1.2Z"/>
      <path class="cls-5" d="M232.54,3.73c-1.08,.42-2.15-.21-3.36-.29,1.09-.66,2.17,.02,3.36,.29Z"/>
      <path class="cls-5" d="M307.48,30.81c-1.24-.05-2.09-1-3.18-1.65,.46-.16,.9,0,1.29,.25,.63,.41,1.24,.86,1.89,1.4Z"/>
      <path class="cls-5" d="M277.03,16.08c-1.27-.12-2.48-.66-3.76-1.32,1.29,.04,2.55,.47,3.76,1.32Z"/>
      <path class="cls-5" d="M162.5,5.75c-.75,.83-1.86,.8-3.09,.78-.03-.29,.16-.5,.45-.47,.86,.07,1.66-.26,2.64-.3Z"/>
      <path class="cls-5" d="M147.07,10.03c-.65,.8-1.68,.71-2.68,1.02,.59-.88,1.63-.89,2.68-1.02Z"/>
      <path class="cls-5" d="M127.67,16.68c-.69,.69-1.68,.93-2.79,1.2,.65-.76,1.65-1,2.79-1.2Z"/>
      <path class="cls-5" d="M113.41,23.28c-.46,.77-1.35,.98-2.3,1.3,.44-.81,1.32-1.04,2.3-1.3Z"/>
      <path class="cls-5" d="M118.34,20.79c-.4,.74-1.2,.96-2.12,1.16,.43-.69,1.22-.92,2.12-1.16Z"/>
      <path class="cls-5" d="M319.33,39.02c-.68,.13-1.22-.13-1.51-.93,.59,.06,1,.5,1.51,.93Z"/>
      <path class="cls-5" d="M100.38,30.36c-.08,.56-.55,.71-1.16,.81,.08-.56,.58-.67,1.16-.81Z"/>
      <path class="cls-5" d="M174.23,3.56c-.3,.59-.83,.52-1.47,.35,.41-.14,.84-.52,1.47-.35Z"/>
      <path class="cls-5" d="M176.18,3.29c-.2,.45-.61,.38-1.12,.34,.14-.58,.58-.52,1.12-.34Z"/>
      <path class="cls-5" d="M91.76,35.81c-.05,.41-.32,.7-.85,.84-.02-.48,.25-.77,.85-.84Z"/>
      <path class="cls-5" d="M86.29,39.63c-.02,.42-.29,.72-.82,.86-.01-.46,.24-.76,.82-.86Z"/>
      <path class="cls-5" d="M292.69,22.9c-.4,.08-.86,.08-1.25-.41,.44-.18,.82,.07,1.25,.41Z"/>
      <path class="cls-5" d="M234.13,4.01c-.27,.39-.6,.3-.96-.06,.26-.18,.58-.2,.96,.06Z"/>
      <path class="cls-5" d="M172.12,3.82c-.1,.4-.41,.52-.89,.33,.13-.38,.44-.4,.89-.33Z"/>
      <path class="cls-5" d="M289.56,21.47c-.33,.16-.68,.14-.97-.29,.33-.14,.69-.18,.97,.29Z"/>
      <path class="cls-5" d="M288.27,20.85c-.34,.17-.68,.11-1.03-.24,.33-.18,.71-.27,1.03,.24Z"/>
      <path class="cls-5" d="M149.65,9.22c-.1,.32-.38,.47-.84,.42,.08-.39,.39-.46,.84-.42Z"/>
      <path class="cls-5" d="M272.87,14.54c-.33,.15-.65,.02-.98-.34,.35-.22,.67-.06,.98,.34Z"/>
      <path class="cls-5" d="M129.26,16c-.08,.39-.41,.49-.89,.51,.09-.36,.38-.53,.89-.51Z"/>
      <path class="cls-5" d="M286.68,20.18c-.34,.2-.62,0-.95-.3,.3-.13,.66-.15,.95,.3Z"/>
      <path class="cls-5" d="M293.68,23.47c-.33,.14-.66,.07-.91-.37,.34-.15,.62,.02,.91,.37Z"/>
      <path class="cls-5" d="M290.84,22.05c-.33,.26-.62,.08-.94-.25,.29-.11,.63-.14,.94,.25Z"/>
      <path class="cls-5" d="M303.59,28.53c-.31,.18-.64,.11-.95-.29,.33-.18,.62-.03,.95,.29Z"/>
      <path class="cls-5" d="M87.26,38.99c.03,.28-.15,.45-.53,.5-.03-.29,.14-.46,.53-.5Z"/>
      <path class="cls-5" d="M320.29,39.7c-.27,.17-.48,.05-.64-.31,.25-.1,.47-.02,.64,.31Z"/>
      <path class="cls-5" d="M300.77,27.19c-.25,.2-.47,.08-.68-.24,.23-.13,.47-.08,.68,.24Z"/>
      <path class="cls-5" d="M299.81,26.63c-.27,.13-.47-.01-.67-.33,.26-.13,.5-.06,.67,.33Z"/>
      <path class="cls-5" d="M296.28,24.73c-.27,.14-.48,0-.72-.29,.26-.17,.53-.14,.72,.29Z"/>
      <path class="cls-5" d="M115.14,22.37c0,.28-.18,.46-.57,.45,0-.29,.19-.45,.57-.45Z"/>
      <path class="cls-8" d="M316.44,36.93c-.26,.05-.48-.07-.6-.44,.28-.08,.5,.03,.6,.44Z"/>
      <path class="cls-8" d="M315.82,36.29c-.29,.09-.47-.07-.61-.43,.1-.09,.22-.08,.42-.06,.12,.14,.15,.27,.18,.49Z"/>
      <path class="cls-5" d="M96.23,32.92c.01,.27-.16,.45-.54,.5-.03-.29,.14-.47,.54-.5Z"/>
      <path class="cls-5" d="M97.19,32.28c.02,.27-.15,.45-.52,.52-.04-.29,.12-.48,.52-.52Z"/>
      <path class="cls-5" d="M297.19,25.13c-.13,.04-.32-.01-.57-.14,.15-.11,.35-.09,.57,.14Z"/>
      <path class="cls-5" d="M98.04,31.89c.03,.19-.12,.28-.4,.28,.05-.1,.18-.19,.4-.28Z"/>
      <path class="cls-5" d="M277.99,16.48c-.13,.04-.32,0-.56-.13,.13-.03,.32,0,.56,.13Z"/>
      <path class="cls-5" d="M148.27,9.81c.02,.19-.11,.28-.39,.27,.05-.11,.18-.19,.39-.27Z"/>
      <path class="cls-5" d="M93.73,34.56c.02,.08-.06,.16-.22,.27-.01-.07,.06-.17,.22-.27Z"/>
      <path class="cls-5" d="M85.04,40.6c.04,.1-.03,.18-.22,.21-.04-.1,.04-.17,.22-.21Z"/>
      <path class="cls-5" d="M320.9,40.18c-.06,.03-.16-.03-.29-.16,.06-.03,.16,.03,.29,.16Z"/>
      <path class="cls-5" d="M266.5,12.37c.02,.06-.07,.06-.07,.06,0,0-.09,0-.17-.05,.01-.17,.11-.2,.24-.01Z"/>
      <path class="cls-5" d="M92.99,35.13c.05,.1,0,.17-.18,.2-.03-.09,.03-.15,.18-.2Z"/>
      <path class="cls-5" d="M150.38,8.96c0,.07-.1,.13-.27,.19,0-.07,.1-.13,.27-.19Z"/>
      <path class="cls-5" d="M92.38,35.47c.04,.1-.02,.17-.2,.21-.04-.1,.03-.17,.2-.21Z"/>
      <path class="cls-5" d="M87.83,38.64c.07,.09,.02,.16-.14,.19-.04-.08,.01-.14,.14-.19Z"/>
      <path class="cls-5" d="M88.63,38.1c0,.08-.08,.16-.25,.25,0-.07,.08-.16,.25-.25Z"/>
      <path class="cls-5" d="M89.17,37.72c.02,.07-.03,.16-.17,.28-.02-.07,.04-.16,.17-.28Z"/>
      <path class="cls-5" d="M316.74,37.18s-.1,.07-.1,.07c0,0-.11-.08-.14-.15,.06-.06,.13-.02,.24,.08Z"/>
      <path class="cls-5" d="M109.67,25.23c.04,.1-.03,.17-.21,.21-.04-.1,.04-.17,.21-.21Z"/>
      <path class="cls-5" d="M110.7,24.65c0,.08-.08,.16-.26,.24,0-.07,.08-.16,.26-.24Z"/>
      <path class="cls-5" d="M294.33,23.77c.05,.06-.11,.07-.11,.07,0,0-.14-.08-.18-.14,.06-.09,.16-.07,.3,.07Z"/>
      <path class="cls-5" d="M115.77,22.05c0,.07-.07,.14-.22,.22,0-.07,.07-.14,.22-.22Z"/>
      <path class="cls-5" d="M94.93,33.87c.05,.1,0,.18-.19,.22-.04-.1,.03-.17,.19-.22Z"/>
      <path class="cls-5" d="M298.17,25.73c-.06,.04-.16,0-.3-.1,.06-.04,.16,0,.3,.1Z"/>
      <path class="cls-5" d="M102.86,29.03c.06,.09,.03,.15-.13,.16-.02-.08,.02-.12,.13-.16Z"/>
      <path class="cls-5" d="M321.86,41.11c-.06,.03-.16-.02-.28-.15,.09-.07,.18-.02,.28,.15Z"/>
      <path class="cls-4" d="M55.57,96.04c4.43-5.71,8.88-11.27,13.98-16.4,.43-.25,.71-.21,.98,.24,.05,.28,.03,.43-.08,.69-.15,.22-.24,.34-.41,.54-.78,.88-1.61,1.55-2.43,2.37-.17,.16-.26,.25-.39,.44-.14,.26-.24,.43-.42,.67-.15,.18-.24,.29-.4,.47-1.07,1.46-2.3,2.65-3.38,4.09-.26,.26-.48,.42-.66,.74-.14,.25-.24,.41-.43,.63-.25,.23-.43,.4-.58,.71-.19,.39-.4,.64-.66,.99-.14,.2-.21,.32-.33,.55-1.11,2.02-2.5,3.73-3.87,5.42-3.59,4.44-5.94,9.59-8.63,14.55-2.59,4.78-3.82,10.04-5.38,15.18-.29,.96-.68,2.29,.14,2.86,.9,.62,1.68-.59,2.33-1.2,2.15-1.99,4.4-3.88,6.71-5.66,2.15-1.66,4.41-3.24,7.27-3.38,2.32-.11,2.81,.42,2.84,2.73,.03,2.72,.16,5.42,.85,8.07,.33,1.28,1.04,2.34,1.85,3.33,1.18,1.43,3.12,1.63,5.12,.65,3.14-1.55,5.32-4.08,7-7.04,4.93-8.66,10.16-17.14,15.37-25.63,3.06-4.98,6.63-9.66,10.16-14.34,2.37-3.14,4.76-6.28,7.07-9.47,2.28-3.16,4.97-5.99,7.62-8.82,3.71-3.97,6.96-8.36,10.97-12.05,2.58-2.38,5.22-4.7,7.73-7.17,1.57-1.54,2.82-3.33,4.22-5,.45-.54,.6-1.24,.61-2.06-.02-.24-.03-.37-.1-.59-.13-.25-.23-.4-.42-.6-.15-.14-.25-.22-.42-.33-.14-.07-.19-.1-.33-.17-.2-.09-.32-.15-.53-.24-.16-.06-.22-.09-.39-.15-2.05-.59-3.92,.06-5.94,.29-.42,.03-.72,.01-1.14,.04-.57,.02-1.01,.2-1.57,.26-.26,.02-.41,.03-.67,.04-.33,.03-.54,.05-.85,.15-.32,.09-.53,.12-.86,.18-1.08,.16-1.94,.61-2.92,1.07-.32,.11-.55,.15-.88,.18-.62,.04-1.15-.04-1.67,.4-.24,.13-.38,.18-.64,.26-1.67,.39-3.19,.88-4.9,1.09-.41,.15-.71,.25-1.11,.41-.49,.15-.87,.29-1.38,.09,0-.21,.1-.36,.24-.58,.25-.42,.61-.54,1.05-.71,1.75-.52,3.21-1.4,4.74-2.15,2.45-1.19,4.98-2.02,7.71-2.45,2.03-.32,4.07-.61,6.11-.84,2.61-.29,5.2-.13,7.64,.99,1.46,.67,1.7,1.19,1.66,2.83-.07,2.67-.96,4.88-2.81,6.9-3.05,3.35-6.3,6.48-9.69,9.48-2.67,2.37-5.03,5.04-7.38,7.71-1.65,1.87-3.35,3.7-5.04,5.53-3.31,3.6-6.61,7.2-9.41,11.22-1.22,1.74-2.56,3.4-3.82,5.11-2.51,3.42-5.01,6.86-7.52,10.29-1.6,2.19-3.11,4.43-4.58,6.72-.75,1.17-1.28,2.45-2.01,3.63-2.27,3.71-4.71,7.32-6.8,11.14-1.83,3.35-3.76,6.66-5.76,9.91-1.37,2.22-3.01,4.22-5.19,5.77-2.63,1.86-5.49,1.78-8.39,1.11-1.84-.42-2.66-2.08-3.4-3.58-.8-1.62-1.04-3.42-1.08-5.26-.04-1.69-.42-3.38-.35-5.09,.03-.75-.42-.95-1.04-.74-.86,.29-1.69,.67-2.43,1.21-1.04,.75-2.17,1.35-3.31,1.92-3.18,1.62-5.87,3.84-8.07,6.61-.92,1.16-1.98,1.27-3.23,1.1-.64-.09-1.07-.45-1.26-1.19-.33-.95-.29-1.8-.07-2.8,.07-.46,.08-.77,.13-1.19,.03-.36,.02-.61,.12-.94,.05-.34,.07-.59,.15-.94,.07-.26,.09-.4,.16-.65,.15-1.12,.39-2.11,.78-3.2,.09-.32,.15-.52,.3-.8,.46-1.48,.9-2.85,1.36-4.34,.04-.32,.1-.51,.24-.78,.07-1.04,.75-1.76,1.02-2.74,.06-.56,.33-.91,.59-1.38,.28-.64,.52-1.18,.82-1.81,.17-.28,.27-.46,.47-.71,.6-1.36,1.27-2.56,2.14-3.78,.15-.27,.23-.46,.42-.7,1.04-1.61,2.02-3.13,3.08-4.74,.15-.27,.24-.45,.45-.66,.93-1.29,1.79-2.52,2.73-3.82,.16-.27,.26-.44,.48-.65Z"/>
      <path class="cls-13" d="M213.78,29.17c-.91,.66-1.4,1.64-2.48,2.1-.27,.17-.44,.31-.72,.47-1.61,1.13-3.41,1.44-5.17,1.81-.52,.11-1.02,.28-1.66,.38-.33,.04-.5,.17-.8,.21-.55,.18-1.01,.3-1.61,.28-.26,.02-.4,.05-.66,.1-.35,.08-.58,.14-.95,.19-1,.15-1.84,.51-2.86,.42-1.03,.18-1.94,.42-3.01,.42-.53,.1-.92,.24-1.46,.23-.48,.09-.84,.17-1.3,.24-.46,.07-.83,.04-1.29,.1-.26,.07-.41,.16-.55,.16-2.85,0-5.7,.31-8.68-.16-.39-.05-.64-.05-1-.03-.24,.02-.38,.04-.62,.03-.46-.05-.81-.03-1.26-.1-1.09-.04-2.08-.06-3.17-.15-.34-.31-.33-.57-.04-.92,2.43-.52,4.77-.24,7.23-.24,.53,.08,.93,.13,1.42-.14,3.52-.16,6.89-.68,10.25-1.2,6.15-.95,12.35-1.74,18.07-4.46,.67-.32,1.33-.68,1.86-1.22,1.64-1.66,1.5-2.83-.16-4.43-1.58-1.52-3.6-2.25-5.38-3.38-1.01-.64-2.28-.41-3.42-.64-3.4-.66-6.67-1.91-10.28-1.65-6.07,.44-12.13,.94-17.88,3.02-4.57,1.65-8.59,4.2-11.34,8.41-.65,.99-.47,2.04-.65,3.19-.23,.17-.41,.19-.71,.11-.72-.25-.89-.75-.88-1.29,.02-.89-.13-1.78,.12-2.8,.11-.33,.19-.53,.35-.8,1.72-2.81,4.19-4.56,6.95-6.05,2.39-1.28,4.78-2.48,7.4-3.22,4.46-1.25,8.99-2.12,13.62-2.38,2.65-.15,5.3-.38,7.96-.15,.7,.06,1.38,.15,2.04,.33,2.4,.68,4.91,.81,7.31,1.46,1.48,.4,2.68,1.13,3.83,2.16,1.23,1.11,2.25,2.38,3.37,3.58,1.59,1.7,1.57,2.51,.1,4.26-.34,.41-.71,.79-1.16,1.24-.25,.19-.42,.33-.69,.48Z"/>
      <path class="cls-4" d="M75.71,73.12c2.37-2.56,4.99-4.68,7.61-6.95,.27-.14,.43-.27,.71-.4,.9-1.18,2.15-1.81,3.18-2.69,1.24-1.06,2.57-2,3.78-3.11,.84-.78,1.87-1.38,2.85-1.97,1.35-.8,2.44-2.01,4.05-2.6,.17-.04,.25-.01,.41,.11,.37,1.41-.82,1.58-1.6,2.19-.5,.19-.88,.35-1.21,.8-.13,.11-.19,.16-.33,.24-.55,.21-.9,.51-1.21,1.01-.27,.35-.55,.52-.92,.75-.3,.18-.5,.31-.72,.58-.18,.21-.33,.33-.55,.49-.18,.13-.27,.2-.43,.35-.27,.31-.48,.54-.87,.7-.25,.1-.43,.16-.63,.35-.15,.15-.23,.24-.38,.4-.15,.15-.25,.24-.42,.36-.23,.15-.4,.23-.63,.38-.21,.17-.34,.3-.48,.53-.12,.18-.2,.27-.38,.41-.24,.15-.41,.25-.62,.45-.3,.33-.57,.54-.94,.77-.31,.19-.52,.35-.74,.64-.28,.34-.53,.55-.91,.76-.47,.19-.77,.44-1.01,.89-1.03,1.17-2.22,2-3.38,3.03-.92,.23-1.44,.78-1.86,1.59-.36,.75-.86,1.23-1.51,1.73-.19,.13-.31,.2-.5,.33-.28,.21-.47,.37-.71,.62-.16,.15-.26,.24-.44,.36-.14,.08-.2,.11-.35,.19-.36,.15-.55,.35-.73,.7-.13,.21-.23,.31-.42,.46-.64,.27-.99,.69-1.3,1.3-.19,.2-.33,.28-.6,.36-.5,.01-.81-.1-.94-.59,1.39-1.9,3.1-3.33,4.67-5.04,.16-.2,.26-.32,.46-.49Z"/>
      <path class="cls-12" d="M174.38,35.05c-.02,.3,0,.46,.01,.69-2.3,.16-4.56-.2-6.81-.67-.38-.08-.66-.31-.99-.65-.04-.28,.05-.45,.31-.68,2.64-.01,5.14,.14,7.48,1.3Z"/>
      <path class="cls-11" d="M99.97,54.01c1.99-1.73,4.12-3.21,6.61-4.33,.18-.01,.25,0,.32,.32-.03,.35-.07,.4-.18,.53-.13,.11-.18,.15-.32,.24-.14,.09-.19,.13-.4,.29-.21,.17-.26,.22-.39,.33-.91,.58-1.35,1.58-2.45,1.91-.22,.08-.34,.13-.55,.22-.25,.15-.42,.24-.68,.4-.21,.12-.33,.18-.55,.28-.17,.06-.24,.08-.42,.11-.18,.02-.26,.02-.44,0-.26-.05-.39-.12-.56-.31Z"/>
      <path class="cls-9" d="M107.4,49.26c.87-1.1,2.12-1.41,3.23-2.12,.25-.44,.62-.54,1.05-.72,.53-.14,.95-.26,1.47-.39,.23,.24,.12,.46-.1,.75-1.19,.87-2.33,1.6-3.41,2.41-.59,.44-1.22,.84-2.12,.47-.13-.15-.16-.22-.12-.4Z"/>
      <path class="cls-12" d="M196.86,35.2c.72-.57,1.69-.42,2.66-.56-.75,.48-1.61,.76-2.66,.56Z"/>
      <path class="cls-12" d="M40.11,129.8c.25,.76,.17,1.6,.1,2.6-.7-.7-.36-1.62-.1-2.6Z"/>
      <path class="cls-10" d="M70.52,78.58c.22,.27,.47,.39,.92,.38,.42,.9-.25,1.11-.97,1.32-.15-.35-.26-.6-.72-.68,.15-.33,.42-.65,.77-1.02Z"/>
      <path class="cls-3" d="M163.41,32.39c.15-.12,.38-.15,.77-.22,.91,0,1.28,.54,1.65,1.2-.01,.18-.03,.25-.16,.36-.92-.19-1.57-.7-2.25-1.35Z"/>
      <path class="cls-10" d="M99.84,53.93c.27,0,.46,.04,.79,.08,.19,.07,.23,.13,.28,.29-.03,.26-.11,.38-.29,.57-.22,.16-.35,.23-.61,.33-.36,.07-.59,.05-.89-.16-.09-.18-.1-.26-.06-.45,.27-.29,.49-.46,.79-.66Z"/>
      <path class="cls-16" d="M112.95,46.69c0-.25,.11-.39,.26-.61,.05-.07,.18-.09,.25-.07,.44-.07,.81-.16,1.3-.22,.02,1.33-.86,1.14-1.81,.9Z"/>
      <path class="cls-12" d="M189.8,36.19c.18-.53,.6-.45,1.11-.23-.24,.4-.63,.26-1.11,.23Z"/>
      <path class="cls-12" d="M177.65,36.08c.29-.39,.68-.36,1.13-.06-.3,.32-.68,.24-1.13,.06Z"/>
      <path class="cls-12" d="M192.36,35.85c.22-.49,.67-.37,1.24-.32-.21,.46-.69,.38-1.24,.32Z"/>
      <path class="cls-12" d="M44.94,112.85c.17,.44-.09,.82-.43,1.26-.34-.5,.09-.83,.43-1.26Z"/>
      <path class="cls-5" d="M251.45,222.33c.12-.35,.28-.58,.57-.35,.23,.19,.17,.48-.03,.66-.27,.25-.44,.06-.54-.31Z"/>
      <path class="cls-3" d="M167.01,33.69c-.09,.25-.19,.37-.39,.57-.43,.03-.69-.14-1-.41,0-.15,.05-.23,.19-.42,.5-.23,.89-.21,1.2,.27Z"/>
      <path class="cls-4" d="M99,54.51c.13,.09,.15,.22,.22,.52-.06,.48-.27,.66-.65,.8-.19-.06-.27-.14-.46-.36,.1-.5,.38-.8,.9-.97Z"/>
      <path class="cls-12" d="M179.55,36.16c.15-.4,.43-.44,.83-.15-.19,.28-.48,.24-.83,.15Z"/>
      <path class="cls-12" d="M40.34,127.7c.31,.21,.29,.49,.03,.82-.28-.22-.24-.49-.03-.82Z"/>
      <path class="cls-14" d="M114.89,44.77c-.09,.33-.4,.52-.88,.65-.1-.57,.25-.71,.88-.65Z"/>
      <path class="cls-14" d="M111.65,46.37c-.09,.31-.38,.53-.84,.66-.13-.55,.2-.72,.84-.66Z"/>
      <path class="cls-12" d="M40.65,126.11c.3,.14,.26,.33,0,.55-.16-.14-.16-.31,0-.55Z"/>
      <path class="cls-12" d="M41.72,122.11c.15,.19,.15,.43-.11,.68-.21-.2-.14-.42,.11-.68Z"/>
      <path class="cls-12" d="M43.33,116.97c.12,.17,.13,.39-.08,.65-.31-.19-.17-.41,.08-.65Z"/>
      <path class="cls-12" d="M46.25,110.34c.11,.23,.04,.46-.3,.64-.12-.24,0-.44,.3-.64Z"/>
      <path class="cls-12" d="M48.82,105.87c.11,.21,.05,.43-.24,.63-.16-.23-.06-.43,.24-.63Z"/>
      <path class="cls-12" d="M52.36,100.46c.09,.22,.01,.43-.27,.6-.13-.23-.06-.44,.27-.6Z"/>
      <path class="cls-12" d="M55.56,95.99c.08,.23,0,.43-.3,.59-.12-.24-.03-.44,.3-.59Z"/>
      <path class="cls-10" d="M75.72,73.05c.05,.21-.03,.39-.31,.47-.11-.23,0-.4,.31-.47Z"/>
      <path class="cls-10" d="M84.03,65.72c.02,.27-.15,.42-.52,.43,0-.25,.18-.39,.52-.43Z"/>
      <path class="cls-12" d="M200.65,34.59c.03-.28,.18-.44,.52-.23-.08,.21-.24,.28-.52,.23Z"/>
      <path class="cls-12" d="M202.91,34.19c.08-.24,.27-.31,.62-.27-.05,.27-.26,.39-.62,.27Z"/>
      <path class="cls-12" d="M210.59,31.8c-.03-.28,.14-.45,.53-.48,0,.26-.18,.41-.53,.48Z"/>
      <path class="cls-12" d="M163.02,27.4c.13,.2,.12,.44-.16,.67-.19-.22-.11-.43,.16-.67Z"/>
      <path class="cls-12" d="M213.79,29.23c-.03-.27,.13-.44,.51-.48,.03,.27-.15,.42-.51,.48Z"/>
      <path class="cls-11" d="M107.37,49.18c.11,.05,.13,.14,.18,.36,.02,.19,.01,.26-.08,.39-.21,.1-.34,.11-.55,0-.08-.07-.17-.17-.2-.22,.16-.2,.36-.35,.65-.53Z"/>
      <path class="cls-14" d="M107.39,49.91c.06-.06,.14-.15,.17-.19,.99-.2,1.75-.76,2.5-1.32,.84-.62,1.6-1.34,2.69-1.78,.84,.1,1.48-.14,2.08-.69,.27-.25,.51-.4,.85-.55,1.81-.1,3.47-.43,5.16-1.11,.2-.11,.31-.16,.49-.23,.57-.29,1.13-.2,1.75-.4,.3-.12,.5-.19,.8-.26,1.13-.08,2-.64,3.05-1.02,.33-.09,.56-.13,.91-.15,.29-.01,.46-.04,.71-.12,.21-.05,.33-.07,.55-.07,.62,.3,1.08,0,1.67-.18,.44-.08,.77-.13,1.23-.19,1.69,.14,3.21-.39,4.77-.39,.53,0,1.03,.08,1.68,.2,.13,.05,.26,.06,.32,.09,.15,.1,.23,.16,.41,.24,.08,.02,.2,.05,.24,.08,.11,.08,.16,.11,.28,.24,.26,.25,.45,.41,.68,.67,.09,.12,.15,.15,.22,.28,.68,1.36,.03,2.37-.69,3.31-2.96,3.85-6.43,7.19-10.07,10.39-1.96,1.72-3.74,3.64-5.55,5.52-2.32,2.41-4.38,5.05-6.67,7.5-3.55,3.81-7.01,7.72-10.05,11.97-2.91,4.06-6.01,7.97-8.91,12.04-3.3,4.63-6.65,9.24-9.39,14.25-1.96,3.59-4.37,6.93-6.4,10.49-1.82,3.19-3.73,6.33-5.56,9.51-1.23,2.14-2.67,4.13-4.53,5.74-1.44,1.24-3.06,2.31-5.04,2.61-1.05,.16-1.99,.05-2.84-.69-1.19-1.03-2.03-2.25-2.57-3.74-.95-2.61-.84-5.33-.99-8.02-.03-.58-.02-1.17,0-1.76,.03-.64-.23-1.04-.88-1.09-1.22-.08-2.45-.19-3.62,.32-2.06,.9-3.98,2.01-5.68,3.49-2.11,1.84-4.25,3.66-6.39,5.47-.53,.45-1.1,.85-1.69,1.21-.65,.39-.97,.26-1.14-.48-.22-1-.22-2.06,.02-3.01,1.09-4.27,2.27-8.54,4.05-12.58,2.12-4.82,4.66-9.44,7.39-13.94,1.51-2.49,3.46-4.7,5.2-7.05,.48-.64,.93-1.29,1.44-2.04,.1-.14,.16-.17,.26-.3,.26-.34,.48-.58,.74-.91,.18-.26,.33-.43,.52-.7,.18-.22,.3-.35,.46-.56,.15-.3,.34-.46,.52-.73,1.21-1.51,2.36-2.94,3.57-4.46,.11-.14,.17-.18,.28-.32,.18-.22,.3-.34,.45-.55,.06-.19,.11-.28,.24-.42,.87-.85,1.69-1.64,2.56-2.52,.13-.16,.21-.22,.34-.35,.16-.09,.25-.15,.33-.32,.53-.31,.86-.73,1.2-1.26,.14-.15,.24-.2,.39-.33,.45-.44,.81-.84,1.29-1.26,.19-.07,.27-.12,.35-.28,.26-.4,.56-.67,.94-1,.15-.09,.21-.12,.33-.24,.06-.08,.17,0,.13-.05,.21-.29,.47-.52,.8-.86,.09-.1,.23-.08,.25-.15,.68-.4,1.11-.99,1.66-1.6,.71-.64,1.25-1.3,2-1.9,1.17-.98,2.24-1.91,3.39-2.93,.4-.3,.65-.6,1.03-.92,.33-.25,.58-.45,.9-.71,.25-.19,.42-.33,.64-.58,.37-.33,.68-.58,1.02-.92,.17-.24,.36-.26,.58-.39,.14-.13,.23-.19,.36-.32,.23-.22,.4-.39,.63-.63,.22-.19,.37-.31,.61-.49,.14-.06,.2-.06,.28-.15,.11-.16,.21-.24,.37-.37,.28-.2,.46-.37,.74-.55,.41-.14,.58-.41,.86-.71,.16-.12,.24-.18,.39-.28,.21-.15,.35-.27,.55-.45,.26-.16,.44-.28,.7-.49,.34-.27,.59-.46,.91-.73,.53-.35,.86-.79,1.36-1.18,.09-.05,.21-.08,.26-.11,.39-.24,.64-.55,1.02-.85,.76-.56,1.44-1.06,2.16-1.67,.27-.27,.49-.45,.78-.68,.28-.13,.5-.21,.81-.36,.16-.08,.23-.1,.36-.19,.18-.09,.26-.14,.36-.3,.1-.17,.18-.26,.37-.34,.09-.01,.2-.02,.25-.05,.13-.11,.23-.19,.42-.27,.22-.11,.35-.2,.54-.36,.13-.12,.21-.19,.34-.3,1.23-.25,1.74-1.42,2.82-1.93,.14-.12,.19-.17,.33-.28,.08-.07,.07-.08,.07-.08,.08-.08,.16-.16,.34-.24,.08-.01,.2-.04,.25-.07,.12-.1,.2-.16,.34-.27,.06-.04,.06-.04,.07-.03,.09-.19,.3-.18,.52-.3Z"/>
      <path class="cls-16" d="M138.5,41.41c-2.02-.14-4.07,.65-6.27,.3,1.6-.71,3.41-.58,5.17-.78,.38-.04,.7,.22,1.1,.48Z"/>
      <path class="cls-16" d="M120.83,44.18c-.11,.73-.8,.69-1.32,.82-1.17,.29-2.34,.57-3.64,.46,1.56-.5,3.2-.9,4.96-1.28Z"/>
      <path class="cls-16" d="M126.92,42.27c-.65,.79-1.57,1.17-2.79,1.12,.75-.53,1.68-.93,2.79-1.12Z"/>
      <path class="cls-16" d="M123.07,43.55c-.18,.81-.85,.44-1.51,.48,.21-.71,.84-.48,1.51-.48Z"/>
      <path class="cls-16" d="M130.77,41.75c-.36,.45-.78,1.03-1.53,.37,.45-.2,.93-.31,1.53-.37Z"/>
      <path class="cls-1" d="M61.54,90.49c.12,.26-.02,.47-.35,.65-.11-.26-.03-.49,.35-.65Z"/>
      <path class="cls-16" d="M128.55,42.01c-.02,.31-.16,.52-.54,.26,.07-.26,.24-.32,.54-.26Z"/>
      <path class="cls-1" d="M62.51,89.21c.12,.26,0,.48-.33,.68-.12-.26-.06-.51,.33-.68Z"/>
      <path class="cls-1" d="M69.97,80.6c.02,.06-.04,.15-.18,.26-.02-.06,.04-.15,.18-.26Z"/>
      <path class="cls-8" d="M67.07,83.48c.04,.06,0,.16-.12,.31-.03-.06,0-.17,.12-.31Z"/>
      <path class="cls-8" d="M66.39,84.42c.08,.09,.03,.18-.14,.27-.07-.08-.02-.17,.14-.27Z"/>
      <path class="cls-1" d="M60.29,92.11c.08,.08,.05,.16-.12,.24-.06-.08-.02-.15,.12-.24Z"/>
      <path class="cls-16" d="M140.62,43.08c-.08,.03-.14-.02-.19-.16,.09-.06,.16,0,.19,.16Z"/>
      <path class="cls-16" d="M139.75,42.11c-.09,.06-.17,0-.26-.14,.09-.09,.18-.04,.26,.14Z"/>
      <path class="cls-16" d="M139.21,41.73c-.06,.04-.17,.02-.33-.09,.06-.04,.17-.02,.33,.09Z"/>
      <path class="cls-2" d="M167.15,33.81c-.44-.15-.75-.29-1.16-.47-.56-.4-1.02-.76-1.56-1.17-1.14-1.12-.72-2.27-.07-3.25,1.56-2.36,3.51-4.29,5.94-5.87,3.89-2.52,8.12-3.78,12.6-4.63,4.93-.94,9.89-1.31,14.89-1.26,.83,0,1.59,.05,2.36,.68,.7,.58,1.82,.47,2.76,.64,1.76,.34,3.63,.46,5.22,1.19,1.8,.82,3.55,1.85,5.2,3.05,2.76,2,1.86,4.15-.2,5.83-1.15,.94-2.58,1.49-4,1.97-3.53,1.19-7.16,2.1-10.83,2.66-4.98,.75-9.97,1.49-15.14,1.84-.28,.08-.43,.1-.68,.14-2.68,.01-5.25,0-7.97,.02-1.05-.5-2.1-.44-3.05-.54-1.43-.15-2.79-.52-4.31-.82Z"/>
      <path class="cls-12" d="M182.41,35.23c.09-.21,.26-.26,.53-.2-.04,.29-.2,.45-.53,.2Z"/>
      <path class="cls-10" d="M79.65,71.33c-.41,.7-.98,1.34-1.83,1.82,.18-.92,.81-1.51,1.83-1.82Z"/>
      <path class="cls-5" d="M94.95,58.53c-.12,.55-.49,.96-1.16,1.17,.05-.62,.44-1,1.16-1.17Z"/>
      <path class="cls-10" d="M73.17,77.4c-.16,.5-.51,.92-1.11,1.22-.03-.65,.36-1.05,1.11-1.22Z"/>
      <path class="cls-5" d="M96.24,57.57c-.05,.41-.33,.71-.84,.87-.03-.48,.22-.8,.84-.87Z"/>
      <path class="cls-10" d="M74.47,76.12c0,.44-.39,.63-.8,.94-.11-.5,.12-.85,.8-.94Z"/>
      <path class="cls-5" d="M84.05,67.48c0,.44-.28,.74-.81,.89-.04-.48,.22-.79,.81-.89Z"/>
      <path class="cls-5" d="M88.18,63.94c.07,.28-.1,.47-.46,.6-.08-.28,.04-.51,.46-.6Z"/>
      <path class="cls-5" d="M92.7,60.43c.05,.3-.13,.47-.52,.51-.02-.29,.14-.46,.52-.51Z"/>
      <path class="cls-5" d="M90.19,62.39c0,.27-.2,.43-.56,.53-.05-.31,.11-.52,.56-.53Z"/>
      <path class="cls-5" d="M85.59,66.17c.07,.28-.06,.48-.44,.58-.06-.27,.07-.48,.44-.58Z"/>
      <path class="cls-5" d="M87.17,64.87c.03,.19-.12,.28-.39,.36-.04-.19,.1-.3,.39-.36Z"/>
      <path class="cls-5" d="M91.45,61.41c0,.07-.06,.15-.22,.24-.01-.07,.06-.15,.22-.24Z"/>
      <path class="cls-5" d="M89.07,63.28c.08,.08,.05,.15-.11,.18-.03-.08,0-.12,.11-.18Z"/>
      <path class="cls-10" d="M75.99,74.82c.05,.06,.02,.11-.1,.13-.05-.02,.06-.11,.1-.13Z"/>
      <path class="cls-10" d="M74.92,75.84s.01,.07,0,.04c-.02-.03,0-.04,0-.04Z"/>
      <path class="cls-9" d="M107.36,49.84c.03,.19-.11,.29-.39,.36-.1-.05-.11-.11-.11-.25,.13-.09,.27-.1,.5-.11Z"/>
      <path class="cls-5" d="M101.76,53.76c0,.07-.09,.14-.28,.23,0-.07,.09-.15,.28-.23Z"/>
      <path class="cls-5" d="M101.09,54.05c.02,.1-.07,.17-.24,.28-.09-.03-.09-.09-.09-.23,.08-.08,.15-.07,.32-.05Z"/>
      <path class="cls-5" d="M102.63,53.09c.03,.08-.03,.15-.2,.23-.04-.08,.03-.16,.2-.23Z"/>
      <path class="cls-9" d="M105.81,50.84c.02,.07-.05,.14-.2,.23-.05-.08,.02-.16,.2-.23Z"/>
      <path class="cls-9" d="M106.22,50.57c0,.08-.07,.15-.24,.24,0-.07,.07-.16,.24-.24Z"/>
      <path class="cls-9" d="M106.79,50.22c.01,.06-.05,.15-.2,.24-.01-.06,.05-.15,.2-.24Z"/>
      <path class="cls-5" d="M100.37,54.66c.04,.1-.02,.17-.2,.19-.03-.09,.04-.15,.2-.19Z"/>
    </g>
  </g>
</svg>