<?xml version="1.0" encoding="UTF-8"?>
<svg id="Layer_2" data-name="Layer 2" xmlns="http://www.w3.org/2000/svg" viewBox="0 0 320.2 344.86">
  <defs>
    <style>
      .cls-1 {
        fill: #3d1c15;
      }

      .cls-2 {
        fill: #11280f;
      }

      .cls-3 {
        fill: #480827;
      }

      .cls-4 {
        fill: #d46b00;
      }

      .cls-5 {
        fill: #690822;
      }

      .cls-6 {
        fill: #68112e;
      }

      .cls-7 {
        fill: #541330;
      }

      .cls-8 {
        fill: #cfc5ca;
      }

      .cls-9 {
        fill: #3a1910;
      }

      .cls-10 {
        fill: #43241d;
      }

      .cls-11 {
        fill: #69102b;
      }

      .cls-12 {
        fill: #d5cfd2;
      }

      .cls-13 {
        fill: #142810;
      }

      .cls-14 {
        fill: #45272d;
      }

      .cls-15 {
        fill: #dfd8db;
      }

      .cls-16 {
        fill: #f0eeee;
      }

      .cls-17 {
        fill: #8c381b;
      }

      .cls-18 {
        fill: #45262d;
      }

      .cls-19 {
        fill: #30140a;
      }

      .cls-20 {
        fill: #b65712;
      }

      .cls-21 {
        fill: #660d2a;
      }

      .cls-22 {
        fill: #650523;
      }

      .cls-23 {
        fill: #660523;
      }
    </style>
  </defs>
  <g id="Layer_7" data-name="Layer 7">
    <g>
      <path class="cls-13" d="M237.49,93.88c-1.06,0-2.05-.06-2.99,.35-.5,.22-.84,.55-.89,1.16-.06,.68,.16,1.11,.92,1.36,.17,.25,.18,.43-.03,.59-1.37-.05-2.35,.62-3.36,1.17-.53,.29-.85,.79-.92,1.41-.07,.68-.12,1.37-.19,2.19-1.2,.99-2.34,.58-3.43-.05-6.63-3.83-13.68-6.58-21.16-8.19-3.01-.65-6.11-.78-9.18-1.04-1.75-.15-3.49-.34-5.34-.56-.72-.71-.19-1.26,.1-1.78,2.1-3.73,5.3-5.75,9.52-6.5,4.66-.82,8.87,.01,12.74,2.68,.48,.33,1.02,.58,1.52,.91,.11,.03,.08,.04-.06-.07-.51-.4-1.64-.57-1.33-1.31,.41-1,1.27-.09,1.92,.04,.46,.1,.91,.27,1.34,.48-1.84-.91-3.9-1.22-5.73-2.14-.4-.2-1.06-.2-1.01-.83,.05-.53,.6-.71,1.03-.9,2.05-.87,4.18-1.33,6.41-1.21-2.8-.16-5.41,.6-7.93,1.72-.96,.42-1.82,.56-2.89,.44-2.27-.25-4.57-.2-6.82,.36-.49,.12-1.06,.33-1.29-.17-.28-.59,.3-.97,.74-1.24,2.99-1.85,6.1-3.48,9.34-4.83-.48,.09-.87,.37-1.3,.57-2.53,1.19-3.85,.28-4.15-2.54-.39-3.61,1.26-6.11,3.99-8.27,.15-.15,.22-.22,.3-.28,.12-.11,.27-.1,.41-.14-.19-.03-.34,.07-.55,.27-.7,.51-1.36,1.47-2.08,.77-.64-.62,.19-1.4,.66-1.89,.97-1.02,.75-2.38,1.24-3.64,.08-.23,.29-.28,.26-.43-.03-.12-.1-.07-.15,.19-.58,1.32-.41,2.86-1.71,3.76-.41,.28-.65,1.05-1.25,.73-.54-.28-.33-.94-.2-1.46,.07-.26,.14-.51,.25-.75-.54,.88-.73,1.79-.27,2.8,.22,.5,.07,1.06-.08,1.57-.62,2.11-.69,4.29-.85,6.46-.08,1.11,.32,2.12,.95,2.99,.54,.74,.3,1.23-.35,1.55-3.26,1.62-6.23,3.66-9.06,5.92-.32,.26-.74,.51-1.18,.26-.47-.26-.3-.74-.27-1.15,.05-.69,.2-1.37,.31-2.05,.19-1.16-.23-1.87-1.49-1.88-.81,0-1.58-.19-2.48-.35-.18-.03-.25-.05-.43-.1-.24-.08-.37-.14-.59-.25-.15-.08-.22-.11-.37-.19-.27-.15-.45-.25-.73-.4-.21-.14-.32-.23-.51-.4-1.65-1.91-1.63-2.69,.04-5.14-.26,.23-.42,.54-.6,.83-.25,.38-.31,1.11-.84,1.03-.66-.09-.5-.82-.56-1.33-.04-.42-.06-.86,.02-1.27,.18-1,.62-1.94-.88-2.5-.68-.25-.5-1.35-.27-2.06,.5-1.52,1.33-2.89,2.01-4.33,.21-.44,.58-.83,1.13-.73,.68,.13,.46,.72,.46,1.17,.03,2.32,.86,4.23,2.96,5.58,.09,.06,.08,.07,.08,.06,.21,.26,.51,.4,.89,.59,.08,.06,.07,.06,.07,.06,1.06,.61,1.7,.22,2.27-.8,1.34-2.37,2.43-4.93,4.72-6.78,1.89-1.98,4.06-3.34,6.4-4.54,1.67-.86,3.37-1.36,5.2-1.6,1.15-.15,2.17-.06,3.14,.7,.58,.46,1.15,.6,2.09,.09,3.6-1.97,7.14-4.14,11.31-4.85,1.93-.33,3.83-.17,5.74-.1,1.91,.07,3.8,.39,5.71,.58,.31,.03,.47,.2,.61,.44-.11,.51-.62,.59-.98,.7-1,.31-1.72,1.01-2.52,1.62-1.85,1.39-2.55,3.43-3.13,5.54-.1,.36-.21,.72-.29,1.2,.11,.18,.18,.25,.31,.37,.64,.09,1.22,.14,1.81,.18,.29,.5-.2,.66-.43,.87-1.44,1.27-2.3,2.81-2.72,4.71-.18,.8,.07,1.44,.13,2.15,.13,1.58,.25,3.15,1.62,4.33,.62,.53-.17,1.06-.52,1.16-1.95,.55-3.06,2.09-4.33,3.45-.67,.71-1.05,1.55-1.38,2.46-.29,.82-.46,1.52,.41,2.08,.32,.21,.39,.49,.08,.78-.56,.5-.33,.93,.12,1.33,.74,.66,1.41,1.38,2.45,1.68,.84,.25,1.63,.77,2.36,1.28,1.74,1.24,3.85,1.68,5.81,2.71,.23,.15,.28,.29,.19,.56Z"/>
      <path class="cls-9" d="M310.15,329.44c-.82-.69-1.77-.79-2.81-.97-.33,.03-.52,0-.74-.22-.46-.43-.96-.28-1.54-.3-.47,.3-.93,.4-1.31,.83-.11,.32-.14,.56-.15,.92,.51,.63,.14,1.1-.07,1.55-.66,1.37-1.57,2.56-2.82,3.61-.27,.15-.42,.28-.6,.47-.57,.98-1.27,.54-1.7,.09-1.27-1.32-2.77-2.42-3.95-3.98-.4-.32-.75-.52-1.21-.74-.62,.12-1-.12-1.37-.58-.08-.15-.11-.19-.23-.23-.86,.43-1.49-.25-2.22-.27-.87-.03-1.22,.27-.84,1.14,.34,.79,.91,1.42,1.47,2.05,.37,.42,.95,.9,.44,1.5-.45,.53-1.08,.27-1.61,0-.47-.24-.99-.38-1.46-.85-.94-.45-1.81-.36-2.83-.1-1.14,1.32-2.74,2.07-3.41,3.75-.22,0-.32,.03-.5,.11-1.21-.6-1.43-2.02-2.55-2.8-.22-.11-.37-.14-.62-.15-.61,.47-1.12,.13-1.61,0-2.59-.69-4.72-2.13-6.53-4.07-.58-.62-1.06-1.22-2.1-.42-.91,.7-1.56-.31-2.04-.95-1.77-2.35-3.16-4.91-3.89-7.9-.11-.17-.14-.27-.2-.36,0,.1,.05,.19,.18,.37,.42,2.96,1.21,5.66,2.81,8.1,.35,.53,1.06,1.2,.35,1.79-.64,.53-1.4,.15-2.04-.53-.33-.23-.57-.37-.93-.51-1.52,.03-2.61-.61-3.56-1.77-.39-.39-.71-.7-1.13-1.03-.64-.03-.96-.42-1.34-.7-1.55-1.19-1.83-1.19-3.51-.08-1.63,1.08-2.16,.85-2.53-1.08-.02-.1-.03-.21-.05-.32-.59-2.99-1.68-3.46-4.3-1.89-.74,.44-1.32,1.33-2.48,.89-1.91-.11-3.73-.14-5.7-.13-.52,.42-.99,.44-1.47,.37-4.76-.62-9.15-2.24-13.01-5.1-1.08-.8-2.49-1.59-2.13-3.49,.28-.28,.53-.35,.92-.36,1.74,.61,3.04,1.76,4.52,2.6,5.98,3.38,12.43,4.36,19.01,2.84,6.68-1.54,11.28-7.74,11.44-14.31,.06-2.58-.2-5.09-1.06-7.55-2.04-5.85-6.91-8.78-13.08-8.06-8.64,1.01-16.97,3.23-25.01,6.45-6.95,2.78-13.26,6.73-19.38,11.08-7.08,5.03-12.92,11.44-19.78,16.69-2.08,1.59-4.21,3.06-6.49,4.35-3.48,1.97-6.95,3.9-10.69,5.35-4.13,1.6-8.33,2.53-12.78,2.44-4.21-.09-8.37-.06-12.53-1.13-5.49-1.4-9.08-7.16-9.36-11.73-.02-.38,0-.76,.13-1.11,1.52-3.79,3.35-7.37,6.55-10.08,1.6-1.36,3.36-1.75,5.36-1.12,.61,.19,1.21,.42,1.85,.49,1.13,.12,2.25-.66,2.4-1.65,.16-1.05-.62-2.02-1.9-2.12-2.1-.15-4.15,.41-6.1,1.03-5.19,1.64-8.68,4.94-10.53,10.27-1.27,3.67-1.04,7.21-.66,10.85,.19,1.81,1.05,3.36,2.25,4.68,3.97,4.37,8.97,6.67,14.78,7.5,4.62,.66,9-.38,13.41-1.39,3.55-.82,6.99-1.88,10.15-3.76,.92-.55,1.87-1.02,2.7-1.7,.37-.3,.74-.64,1.22-.74,3.6-.68,6.28-3.03,9.1-5.09,2.45-1.79,4.77-3.76,7.11-5.69,1.12-.92,2.1-1.96,3.07-3.03,2.2-2.44,5.06-4.05,7.71-5.93,3.47-2.47,7.2-4.56,10.7-6.99,2.45-1.7,5.3-2.7,8.06-3.85,7.43-3.11,14.86-6.19,22.81-7.76,3.69-.73,7.28-.68,10.83,.79,2.71,1.12,3.89,3.33,4.62,5.94,.06,.2,.11,.44,.04,.63-1.61,4.36-1.87,9.44-6.54,12.17-.83,.49-1.62,1.04-2.54,1.32-4.4,1.34-8.76,1.81-12.97-.66-.69-.4-1.49-.58-2.19-.98-.49-.29-1.11-.5-.99-1.36,1-.63,1.86-.15,2.83,.17,2.37,1.74,4.93,2.3,7.69,1.87,1.06-.16,1.62-1.12,2.31-1.99,.49-.89,1.43-1.31,1.67-2.38,1.06-1.84,1.81-3.59,1.15-5.7-.61-1.95-1.85-3.07-3.92-3.1-2.32-.04-4.54,.59-6.74,1.19-7.46,2.05-14.15,5.51-19.77,11.09-.36,.34-.63,.61-1.07,.86-.2,.11-.3,.17-.48,.24-.22,.02-.34,.07-.48,.27-.04,.1-.06,.21-.08,.27-.65,.92-1.3,1.77-2.16,2.55-.41,.17-.41,.51-.59,.86,.34,.8-.11,1.35-.43,2.02-.41,.37-.32,.77-.34,1.24,.42,.63,.47,1.19,.11,1.91-.2,.49-.14,.86-.03,1.33,.81,.46,.67,1.33,1.12,2,.18,.23,.33,.34,.57,.46,.87-.2,1.39,.29,1.98,.8,.62,.48,1.25,.3,1.96,.25,2-1.58,3.74-3.35,6.35-3.83,.37,.06,.65,.05,1.02,0,1.66-1.38,4.27-.6,4.91,1.55-.07,.37-.07,.61-.05,.97,.37,.76,.04,1.29-.35,1.71-3.28,3.6-6.6,7.16-11.6,8.36-1.52,.36-2.99,1.15-4.67,.54-.47-.33-.96-.25-1.54-.28-.38,.26-.7,.24-1.02,.18-5.21-1.01-9.32-7.56-7.92-12.84,.1-.56,.15-1,.17-1.58-.6-.99-.15-1.75,.32-2.6,.32-.3,.31-.58,.36-.95-.14-1.07,.51-1.77,.92-2.67,.41-.58,.65-1.12,1.05-1.7,2.14-2.87,4.29-5.6,7.13-7.86-4.41,2.69-8.49,5.63-12.39,9-.71,.43-1.34,.78-2.08,1.14-.09,.07-.09,.14-.07,.17-1.97,1.81-4,3.55-6.21,5.06-.06-.09-.19-.04-.24,.02,.13,.27,.03,.45-.14,.58-2.05,1.63-4.11,3.26-6.61,4.42-.19,0-.25,.02-.3,.15-.62,1.38-1.85,1.9-3.21,2.41-.2,0-.26,.02-.31,.15-.25,.96-1.06,1.14-1.9,1.45-.26,.08-.41,.14-.59,.26-1.44,1.65-3.35,2.3-5.38,2.92-1.84,.7-3.5,1.55-5.16,2.41-.78,.4-1.6,.78-2.41,1.06-1.91,.68-3.73,1.59-5.67,2.21-5.14,1.63-10.31,1.94-15.56,.67-1.62-.39-3.29-.67-4.79-1.41-.98-.48-1.94-1.02-2.96-1.42-1.97-.79-3.7-1.92-5.34-3.31-1.01-.86-1.97-1.65-2.74-2.74-.35-.49-.66-.98-.77-1.54-.5-2.45-.87-4.92-1.08-7.42-.15-1.8,.34-3.46,.77-5.15,.07-.26,.17-.5-.03-.85-.53-.76,.13-1.26,.23-1.95,.06-.17,.08-.24,.15-.41,.11-.24,.17-.38,.28-.63,2.18-4.88,6.38-7.25,10.85-9.24,1.54-.69,3.2-1.15,4.88-1.47,1.19-.23,2.32-.13,3.43,.33,2.84,1.17,3.51,2.84,2.2,5.54-.93,1.92-1.75,2.29-3.82,1.71-4.54-1.26-9.03,1.54-9.89,6.31-.08,.55-.23,.94-.5,1.43-.93,1.2-.95,2.51-.84,3.77,.16,1.82,.78,3.53,1.83,5.05,1,1.46,2.27,2.44,4.06,2.85,2.66,.6,5.31,1.06,8.05,1,2.23-.04,4.46,.1,6.69,.23,4,.24,7.89-.62,11.33-2.71,2.65-1.61,5.42-2.95,8.17-4.32,2.68-1.34,5.18-2.93,7.76-4.66,.92-.53,1.59-1.19,2.41-1.86,1.97-1.31,3.66-2.79,5.27-4.31,3.49-3.3,7.56-5.88,11.05-9.15,3.82-3.57,8.16-6.3,12.79-8.6,4.43-2.19,8.96-4.19,13.67-5.76,5.15-1.73,10.35-3.25,15.81-4.25,.68-.07,1.2-.27,1.83-.54,1.53-.31,2.95-.48,4.39-.52,2.38-.07,4.53,.49,6.46,1.88,.65,.46,1.35,.86,2.06,1.22,3.61,1.87,5.11,5.1,5.89,8.96,.25,.67,.42,1.23,.46,1.94,0,1.13-.02,2.15,0,3.16,.07,3.55-1.08,6.67-3.22,9.49-1.09,1.44-2.13,2.89-3.59,3.99-.78,.59-.97,1.34-.48,2.25,.43,.81,.5,1.72,.64,2.59,.42,.28,.62-.08,.85-.26,.99-.78,1.83-.63,2.62,.32,1.36,1.63,3.16,2.6,5.27,3.59-.42-1.97-.84-3.65-1.14-5.36-.2-1.12-.25-2.23,.14-3.31,.22-.62,.52-1.23,1.23-1.34,.78-.12,1.12,.52,1.43,1.07,.79,1.4,1.02,3.03,1.84,4.42,.38,.64,.45,1.72,1.7,.96,.36-.22,.78,.27,1.02,.62,1.19,1.79,2.81,3.2,4.23,4.78,1.84,2.05,4.48,2.76,6.92,3.8,.24,.1,.52-.07,.85-.26,.49-.16,.85-.05,1.19,.12,1.06,.53,2.04,.4,3.01-.25,.53-.35,1.13-.59,1.76-.75,.38-.09,.77-.23,.81-.66,.24-2.46,2.03-2.97,4.02-3.23-.55-1.81-1.89-2.91-3.55-4.03,.34,1.23,.3,2.33,.29,3.42,0,.59-.06,1.18-.34,1.71-.24,.46-.45,1.12-1.1,.96-.68-.16-.56-.82-.48-1.34,.26-1.65,.21-3.29-.17-4.96-.4,.99-.72,2.02-1.54,2.75-.32,.29-.71,.6-1.14,.32-.47-.31-.23-.77-.03-1.14,.36-.71,.78-1.41,.95-2.2,.24-1.16,.41-2.33-.52-3.32-.26-.28-.49-.66-.19-1,.36-.41,.81-.18,1.16,.06,1.59,1.07,2.72,2.67,4.36,3.72,1.52,.97,2.97,2.08,3.79,3.8,.3,.64,.99,.95,1.55,1.35,2.16,1.54,4.62,2.69,6.44,4.7,.49,.54,.89,.38,1.31-.12,.95-1.13,1.28-2.39,1.08-3.87-.24-1.72,.33-2.4,2.09-2.39,2.92,.02,5.66,.85,8.26,2.15,.36,.18,.72,.68,1.12,.4,.41-.28,.38-.88,.31-1.34-.32-2.22-1.05-4.25-2.9-5.69-2.3-1.79-4.93-2.96-7.68-3.86-.25-.08-.53-.17-.79-.12-2.46,.54-4.19-.71-5.77-2.33-.14-.15-.29-.32-.64-.33,.79,1.34,.79,2.86,1.2,4.27,.12,.4,.23,.94-.28,1.11-.49,.16-.73-.33-.96-.68-.15-.22-.29-.46-.34-.72-.93-4.73-4.06-8.02-7.4-11.11-4.27-3.96-8.88-7.48-13.9-10.46-1.6-.95-1.58-.94-1.98,.86-.21,.97-.28,1.85,.27,2.77,2.6,4.36,3.91,9.21,5.04,14.09,.33,1.41,.74,2.36,2.35,2.48,.57,.04,1.58,.14,1.41,.93-.21,.95-1.14,.39-1.77,.33-.21-.02-.41-.12-.62-.14-1.93-.12-2.7-1.04-3.1-3.04-.84-4.22-2.04-8.39-3.84-12.34-.17-.37-.22-.84-.78-1.13-1.01,1.98-2.28,3.81-3.13,5.88-.65,1.58-.81,3.1,.02,4.76,.75,1.52,1.27,3.16,2.1,4.66,.31,.57,.56,1.17,.37,1.83-.63,2.16,.2,3.97,1.36,5.69,.69,1.01,1.38,2.03,2.24,2.91,.41,.42,.79,.89,.45,1.65-.19,.12-.3,.16-.39,.12-2.53-1.13-5.66-6.07-5.46-8.86,.09-1.3-.21-2.38-.8-3.49-1.47-2.8-2.29-5.71-1.5-8.92,.34-1.38,.98-2.58,1.67-3.77,1.13-1.93,2.24-3.87,2.66-6.12,.4-2.18,.23-2.64-1.67-3.92-.27-.59-.09-.93,.47-1.19,2.71,1.34,5.39,2.55,7.84,4.16,.72,.47,1.49,.81,2.33,1.04,2.22,.6,4.42,1.26,6.45,2.34,.8,.43,1.03,.25,1.21-.65,.31-1.58,1.06-2.11,2.74-2.08,1.28,.03,2.52-.06,3.79-.26,2.17-.34,4.24,.13,6.16,1.49,.1,.17,.12,.25,.09,.43-.8,.57-1.5,.16-2.2-.03-1.13-.31-2.26-.65-3.51-.09,4.38,3.12,9.56,4.6,14.2,7.26-1.09-1.47-2.59-2.41-3.94-3.51-.87-.71-2.14-1.24-.98-2.7,.13-.16-.13-.5-.06-.87,.4-.34,.77-.33,1.09-.13,1.34,.81,2.84,1.3,4.24,2.24,.46,.38,1.07,.29,1.32,.92-.73,1.15-1.75,.68-2.65,.52,1.13,1.47,2.71,2.64,3.14,4.69,0,.47,.31,.66,.56,1.01,.47,.09,.6,.4,.66,.74-.1,.07-.04,.2,.02,.23,1.13,0,1.21,1.06,1.76,1.59,.44,.43,.75,.98,.98,1.69,0,.12,0,.19,.04,.21,.31,.23,.63,.42,.5,.95,.06,.37,.17,.65,.37,.99,1.05,.94,2.22,1.59,2.9,2.87,.01,.11,.08,.03,.04,.06,.69,.11,.71,.76,.94,1.35,.02,.3,.04,.48,.11,.75,1.1,.8,.91,1.74,.49,2.7-.27,.62-.56,1.23-1.15,1.79-.52,.44-.72,.89-.57,1.57,1.01,1.35,.75,3.34-.69,5.1-.47,.36-.53,.8-.76,1.25,0,.26-.03,.39-.22,.57-.41,.18-.72,.24-1.18,.22-1.52,.03-1.6-1.29-2.22-2.18-.05-.37-.18-.57-.48-.74-.98-.34-1.81-.77-2.45-1.63Z"/>
      <path class="cls-3" d="M117.26,88.12c.52-.15,.75-.36,.84-.67,.13-.44,.37-.81,.64-1.29,.04-.22,.09-.31,.21-.45,.82-.92,1.08-2.02,1.42-3.07,.33-1.02,.43-2.15,.76-3.13,.42-1.25,.68-2.54,1.07-3.79,.48-1.52,.31-3.07-.06-4.58-.54-2.22-1.24-4.41-1.73-6.64-.7-3.16-1.34-6.34-1.65-9.58-.15-1.64-.27-3.28-.47-4.92-.18-1.46,.47-2.7,1.14-3.84,1.18-2.03,2.51-3.95,4.08-5.75,1.23-1.41,2.4-2.93,3.48-4.49,1.31-1.88,2.02-4.15,3.62-5.83,1.51-1.58,2.25-3.8,4.12-5.04,2.23-1.47,4.16-3.28,6.1-5.09,.75-.7,1.13-1.76,2.14-2.21,1.52-.67,2.76-1.78,4.19-2.74,.11-.18,.2-.25,.36-.34,.67-.44,1.23-.89,1.85-1.25,2.07-1.2,4.16-2.35,6.23-3.55,1.31-.76,2.74-1.19,4.13-1.75,2.31-.93,4.43-2.25,6.7-3.25,1.86-.82,3.67-1.74,5.54-2.55,1.08-.47,2.35-.48,3.51-.81,.91-.26,1.86-.36,2.63-1.17,.63-.67,1.58-.33,2.24,.2-.34,.41-.69,.83-1.04,1.25-.13,.16-.42,.38-.38,.47,.54,1.26-.6,1.35-1.22,1.7-3.05,1.77-6.06,3.58-8.58,6.1-1.07,1.07-1.56,2.48-2.32,3.74-.26,.43-.16,.92,0,1.39,.71,2.12,1.16,4.31,1.61,6.63,.19,.44,.32,.76,.43,1.19,.25,2.18,.25,2.16,2.21,2.55,2.19,.44,4.38,.9,6.64,.83,.11,0,.21,.01,.32,.02,.75,.09,1.72,.15,1.92,.88,.21,.76-.78,.97-1.34,1.31-.69,.42-1.29,.94-1.82,1.55-.3,.35-.77,.82-.38,1.25,.36,.39,.87,.81,1.53,.63,.51-.14,1.02-.3,1.53-.47,2.57-.89,5.12-1.82,7.91-2.41,.29-.09,.45-.12,.71-.13,1.28,0,2.46,.11,3.61,.86,.17,.23,.18,.39,.03,.63-4.77,1.64-8.24,5.01-11.97,8.01-1.76,1.42-2.98,3.25-4.35,4.98-2.79,3.54-5.53,7.11-8.04,10.86-3.2,4.78-4.34,10.06-4.2,15.7,.05,2.2,.74,4.24,1.79,6.19,.8,1.47,1.31,3.09,2.28,4.49,.39,.57,.79,1.13,1.34,1.67,.18,.14,.29,.21,.51,.27,.38,.23,.67,.42,.99,.74,1.33,2.16,3.19,3.71,4.95,5.29,1.67,1.5,3.15,3.1,4.55,4.96,.31,.16,.53,.27,.84,.45,3.38,4.7,8.06,6.99,13.48,8,.26,.05,.52,.09,.78,.17,.6,.19,.88,.6,.73,1.22-.15,.62-.67,.64-1.16,.55-1.67-.34-3.36-.58-5.02-.97-2.76-.66-5.61-.62-8.39-1.08-1.15-.19-2.01,.58-2.9,1.15-.44,.28-.34,.73-.14,1.15,.27,.55,.7,.92,1.25,1.18,6.56,3.12,13.31,5.73,20.48,7.09,1.56,.3,3.16,.43,4.76,.51,.67,.03,1.58-.07,1.62,.88,.05,1.08-.89,1.19-1.71,1.23-3.16,.14-6.27-.37-9.38-.79-5.12-.69-10.2-1.68-15.33-2.27-1.64-.19-3.28-.19-4.95,.21,1.28,.72,2.68,1.17,3.88,1.98,.47,.32,1.18,.63,1.01,1.28-.18,.68-.96,.57-1.52,.56-2.72-.08-5.42,.18-8.13,.34-1.22,.07-2.32,.31-3.08,1.38-.28,.4-.68,.67-1.13,.87-3.11,1.42-6.14,2.97-8.82,5.13-.25,.2-.54,.34-1,.35-.85-.8-.12-1.27,.3-1.75,1.67-1.93,3.93-3.04,6.02-4.41,3.57-2.35,7.41-3.67,12.01-3.95-1.15-.54-1.9-1.07-2.53-1.78-.48-.54-.85-1.13-.56-1.88,.28-.71,.93-.75,1.57-.89,3.27-.68,6.47,.12,9.68,.46,1.57,.17,3.15,.33,4.66,.86-1.78-.72-3.56-1.42-5.26-2.29-3.23-1.66-6.59-3.02-10-4.22-2.85-1-5.91-1.31-8.8-2.31-7.44-2.57-12.44-7.48-14.7-15.02-1.17-3.92-1.37-7.96-.59-12.02,.26-1.36,.47-2.73,.57-4.12,.04-.64-.05-1.25-.61-1.55-3.21-1.73-3.14-4.87-3.28-7.81-.17-3.56,1.46-6.63,3.25-9.55,4.91-8.01,10.99-15.04,18.01-21.27,1.2-1.07,2.03-2.48,3.32-3.46,.47-.36,.36-.74-.14-.99-1.11-.54-1.37-1.5-1.5-2.62-.16-1.38-.52-2.73-1.01-4.03-1.07-2.82-1.15-5.61,.31-8.62-6.17,4.07-12.24,7.78-17.98,11.98-3.02,2.21-5.98,4.5-8.62,7.12-4.05,4-6.57,8.94-8.4,14.34-1.57,4.62-.53,8.66,1.53,12.74,1.13,2.24,2.32,4.44,3.56,6.61,1.11,1.93,2.69,3.43,4.44,4.76,1.59,1.2,1.74,1.82,.39,3.35-1.69,1.92-3.48,3.76-5.43,5.42-3.23,2.76-3.78,5.7-1.22,9.47,3.36,4.93,7.45,9.18,12.98,11.81,2.88,1.36,4.25,3.71,4.35,6.9,.12,3.84-.5,7.49-2.06,11.05-1.94,4.43-3.62,8.98-5.84,13.37,1.13,.53,1.88,.12,2.52-.71,1.01-1.32,2.08-2.58,3.45-3.54,1.14-.81,1.47-.67,1.94,.68,1.06-.63,1.5-2.14,3.13-2.03,.44,.8,.07,1.33-.42,1.77-1.81,1.63-3.07,3.66-4.32,5.72-.11,.18,.05-.03-.08,.14-.35,.42-.58,1.27-1.25,.94-.58-.29-.3-1.05-.18-1.62,.07-.36,.18-.71,.56-1.3-1.4,1.71-2.25,3.35-3.14,4.96-.36,.64-.63,1.45-1.54,1.44-.92-.01-1.38-.67-1.58-1.69-.77,.86-1.5,1.52-2.57,.91-1.02-.58-1.08-1.58-.93-2.53,.85-5.35,0-10.5-1.63-15.59-.26-.83-.67-1.45-1.42-1.82-1.59-.76-3.24-1.3-5.03-1.42-7.78-.5-15.34,.81-22.71,3.04-4.5,1.36-9.21,1.79-13.63,3.42-.57,.21-1.4,.43-1.65-.39-.23-.76,.54-1.07,1.09-1.37,2.52-1.38,5.27-2.32,7.68-3.92,1.69-1.12,3.33-2.29,5.08-3.55,3.12-2.09,6.06-4.2,8.65-6.76,.23-.22,.45-.46,.72-.63,.36-.23,.75-.52,1.15-.12,.36,.36,.22,.8,0,1.18-.4,.7-.9,1.32-1.45,1.91-2.87,3.11-6.07,5.82-9.65,8.08-.27,.17-.55,.32-.88,.69,1.2-.28,2.25-.55,3.3-.85,6.85-1.92,13.81-3.08,20.94-3.16,1.19-.01,2.34,.15,3.44,.58,1.54,.6,3.08,1.15,4.88,.96,.54,.99-.45,.7-.63,1.12,.87,.43,1.69,1.1,2.46,1.86,.71,.71,1.05,1.46,.57,2.43-.54,1.1,.07,2.09,.37,3.08,.57,1.83,1.19,3.65,1.33,5.59,.05,.63,.06,1.27-.01,1.92,2.71-5.9,5.55-11.77,7.22-18.07,.59-2.22,.85-4.57,.29-6.95-.55-2.36-1.97-3.87-4.01-4.87-3.9-1.9-7.28-4.42-9.91-7.89-1.16-1.53-2.54-2.87-3.56-4.51-2.17-3.51-1.83-6.96,1.05-9.87,1.8-1.82,3.66-3.58,5.41-5.45,1.23-1.32,1.18-1.74-.35-2.71-1.8-1.15-3.17-2.65-4.21-4.51-1.81-3.24-3.52-6.53-4.79-9.81,.88,3.26,1.95,6.65,3.87,9.71,.94,1.51,2.09,2.82,3.34,4.07,1.4,1.41,1.33,2.01-.39,3.09-1.4,.88-2.85,1.68-4.28,2.5-6.16,3.52-7.18,12.3-2.02,17.15,.71,.67,1.54,1.14,2.41,1.55,4.91,2.32,8.33,6.27,11.14,10.71,2.43,3.85-.51,9.62-5.03,10.1-.46-.8,.17-1.02,.57-1.31,.7-.51,1.3-1.1,1.83-1.77,2.04-2.59,2.2-4.57,.15-7.22-3.07-3.97-6.38-7.74-11.11-9.88-.79-.36-1.44-.9-2.04-1.52-4.17-4.25-4.45-11.72-.6-16.23,1.05-1.23,2.38-2.13,3.73-3,.76-.49,1.57-.91,2.37-1.34,2.31-1.23,2.3-1.32,.5-3.2-3.42-3.58-5.21-7.98-6.39-12.7-.89-3.59-.8-7.16-.17-10.78,.42-2.41-.19-4.91,.53-7.36-.48,.26-.74,.68-.98,1.1-1.11,1.9-2.42,3.66-3.93,5.23-2.96,3.08-3.64,6.77-3.23,10.8,.5,4.8,1.83,9.41,3.45,13.93,.73,2.03,1.25,4.08,.69,6.26-.05,.21-.13,.44-.06,.63,1.11,3.05-.65,5.5-1.86,7.94-1.82,3.68-4.26,7.01-6.55,10.42-2.38,3.56-5.8,5.91-9.38,8.06-1.55,.93-3.12,1.85-4.69,2.75-.6,.34-1.19,.67-1.87,.71,2.23,.63,3.98,2.17,5.86,3.46,.39,.27,.68,.68,.54,1.34-.78,.54-1.44,.18-2.02-.15-3.97-2.29-8.17-3.62-12.81-3.22-.11,0-.21,0-.32-.02-.76-.14-1.62-.34-1.66-1.22-.04-.9,.88-.96,1.54-1.07,2.36-.39,4.73-.71,7.09-1.22,4.47-.98,8.26-3.18,11.54-6.23,2.03-1.88,4.13-3.71,5.87-5.88,.63-.79,1.26-1.59,1.73-2.77Z"/>
      <path class="cls-21" d="M180.3,94.27c-.31-.03-.51-.09-.76-.23-.07-1.01,.67-1.19,1.32-1.38,1.33-.39,2.68-.74,4.08-.71,1.56,.04,3.08-.24,4.75-.45,.42,.01,.68,.09,.93,.45,3.57,.24,7.05,.59,10.53,.97,1.95,.22,3.88,.46,5.81,.86,3.18,.66,6.25,1.68,9.24,2.92,2.79,1.16,5.65,2.19,8.32,3.64,.51,.28,1.06,.53,1.5,.9,1.1,.9,2.32,1.26,3.85,1.04,.41,.44,.82,.39,1.37,.34,.16,.05,.2,.11,.34,.16,2.31,.27,4.54,.06,6.9,.24,.21,.03,.28,.05,.45,.09,1.12,.14,2.14,.23,3.16,.8,.17,.07,.22,.11,.36,.13,4.28,2.06,8.18,4.59,11.73,7.63,1.46,1.24,2.97,2.41,4.45,3.62,2.98,2.45,5.41,5.4,7.58,8.57,.48,.7,.99,1.38,1.57,2.15,.29,.27,.57,.35,.85,.62,.9,1.73,2.04,3.18,3.01,4.84,.31,.07,.15-.3,.49-.36,1.18,1.84,1.81,3.89,2.69,5.83,1.48,3.28,3.15,6.46,4.81,9.77,1.23,1.07,1.94,2.41,2.53,3.72,.78,1.74,1.55,3.46,2.55,5.09,.19,.31,.37,.65,.25,1.16,.01,.28,.07,.45,.17,.7,.7,.14,.65,.68,.69,1.21-.03,.25,0,.39,.1,.62,1.36,1.41,1.94,3.11,2.44,4.85-.1,.12-.09,.18-.03,.31,1.38,1.44,1.94,3.24,2.4,4.97,.31,1.15,1.07,2.21,.86,3.59-.04,.38-.02,.65,.06,.99,1.06,.83,.77,2.08,1.15,3.16-.03,.38,0,.65,.07,1,.64,.24,.65,.82,.75,1.23,.49,2.1,1.05,4.19,1.2,6.46-.07,.35-.07,.59-.05,.94,.26,.13,.46,.24,.5,.46,.47,2.45,1.31,4.83,1.14,7.5-.07,.4-.07,.67-.03,1.05,1.02,.63,.68,1.54,.63,2.47-.25,1.06,.08,1.94,.32,2.95,1.09,.89,.7,2,.65,3.13-.08,.5-.08,.88-.03,1.37,.28,.08,.4,.19,.32,.55-.04,.59-.02,1.06,.05,1.63,.79,.51,.64,1.12,.32,1.88-.07,.91-.05,1.68,.01,2.58,.56,.32,.48,.72,.31,1.26-.06,1.23-.05,2.32,0,3.55,.75,.51,.65,1.13,.4,1.89-.22,.6-.17,1.06-.04,1.63,.82,.83,.76,1.63,.14,2.56-.2,1.07-.25,2.06-.28,3.17,.47,.74,.52,1.46,.54,2.3,.05,.38,.12,.65,.26,.99,.54,.53,.84,1.05,.59,1.85-.09,.77-.11,1.43-.1,2.22,.47,1.87-.35,3.38-1,4.83-.97,2.17-2.21,4.23-3.89,5.98-.75,.77-.99,1.78-1.27,2.83-.96,3.54-1.65,7.16-3.05,10.56-.41,.99-.63,2.03-.92,3.04-.22,.76-.33,1.57-1.05,2.23-.37,.26-.34,.57-.43,.93,.2,1.49-.65,2.56-1.18,3.68-1.69,3.61-3.27,7.29-5.6,10.71-.09,.16-.12,.23-.21,.38-.13,.22-.21,.34-.33,.55-.24,.39-.45,.67-.66,1.09-1.71,3.35-4.29,5.94-6.4,8.87-1.3,1.81-2.74,3.39-4.95,4.27-.47,.15-.69,.39-.77,.87,.17,.55-.14,.83-.43,1.03-2.89,1.95-5.2,4.68-8.35,6.29-.51,.26-.94,.72-1.68,.54-.05-.65-.16-1.2-.4-1.85,.23-1.13,.87-1.8,1.81-2.19,5.29-2.22,9.47-5.85,13.02-10.27,.87-1.09,1.81-2.04,2.92-2.91,1.97-1.55,3.18-3.8,4.03-6.06,1.99-5.32,5.23-10.01,7.28-15.28,1.65-4.22,3.36-8.37,3.94-12.95,.37-2.92,1.54-5.56,3.42-8.09,3.22-4.34,5.5-9.35,3.3-14.9-1-2.53-.83-4.79-.33-7.27,.55-2.75-.09-5.53-.3-8.27-.5-6.43-1.75-12.76-2.83-19.11-1.53-8.98-3.46-17.9-6.96-26.37-2.4-5.81-5.29-11.41-7.86-17.13-3.68-8.17-8.88-15.41-13.48-23.01-2.92-4.82-6.34-9.32-11.03-12.72-3.01-2.18-5.73-4.75-8.93-6.72-3.46-2.14-7.16-3.24-11.2-3.25-.69,0-1.39-.05-2.08,0-3.14,.29-5.79-.57-8.51-2.35-3.69-2.41-7.97-3.81-12.2-5.12-8.93-2.77-18.14-2.95-27.37-2.75-1.38,.03-2.73,.48-4.24,.47Z"/>
      <path class="cls-1" d="M102.67,88.61c.13-.39,.32-.72,.58-.97,3.18-3.1,3.62-7.02,3.16-11.11-.31-2.74-.92-5.45-1.74-8.1-.7-2.25-1.82-4.31-2.75-6.46-.08-.19-.22-.37-.34-.54-.16-.23-.34-.4-.66-.26-.21,.1-.34,.25-.34,.48,0,.48-.01,.96,0,1.44,.03,.64,.1,1.28,.11,1.91,.14,4.76-4.98,7.12-8.24,5.41-.63-.33-.99-.74-1.22-1.36-.34-.91-.53-1.86-.58-2.81-.14-2.93-.17-5.86,1.48-8.5,.64-1.02,1.46-1.84,2.42-2.51,.77-.53,.85-1.1,.49-1.9-.66-1.46-1.8-2.37-3.31-2.77-1.82-.49-3.7-.67-5.55-.38-2.78,.44-4.88,2.03-6.47,4.3-1.16,1.66-2.15,3.42-3.02,5.25-.14,.3-.31,.56-.04,.86,1.43,1.55,1.53,3.6,1.94,5.49,.55,2.55,.75,5.15,.38,7.77-.12,.85-.3,1.67-.65,2.46-.99,2.22-1.48,2.51-3.8,1.95-.98-.24-1.95-.48-2.97-.59-.91-.09-1.58-.57-1.87-1.51-.16-.51-.38-1-.6-1.48-1.33-2.91-1.39-5.84-.22-8.83,.4-1.02,.62-2.1,.94-3.19-1.04-.24-1.69,.55-2.63,.91-.48-1.88,1.16-1.99,2.32-2.69-1.21,.27-2.17,.88-3.2,1.31-.61,.25-1.28,.72-1.8-.22,.77-1.04,1.83-1.63,2.74-2.34,1.03-.81,2.47-.7,3.93-.54,.22-.07,.29-.15,.42-.27,.94-1.98,1.97-3.8,3.25-5.51,1.24-1.67,2.61-3.1,4.37-4.23,1.34-.86,2.75-1.39,4.45-1.55,.26,.79-.44,.95-.9,1.23-7.67,4.67-11.35,11.85-12.76,20.42-.28,1.71,.15,3.44,.46,5.13,.07-7.36,2.57-13.96,6.33-20.15,2.49-4.08,6.13-5.9,10.9-5.41,2.24,.23,4.43,.62,6.5,1.57,1.42,.65,2.58,1.61,3.02,3.12,1.4,4.85,1.66,9.73,.19,14.42,.97-1.19,1.59-3.84,1.29-6.54-.24-2.11-.49-4.22-.95-6.31-.66-2.98-2.61-5.18-4.37-7.49-.59-.77-1.59-.76-2.51-.81-.94-.06-1.93,.23-2.84-.48,.62-.3,1.34-.38,1.94-.68,1.15-.57,2.12-.32,3.14,.31,2.63,1.62,4.45,3.91,5.47,6.79,.35,.99,.82,1.57,1.9,1.84,1.61,.4,2.89,1.39,4.07,2.61,2.63,2.73,3.82,6.14,4.94,9.61,1.01,3.14,1.88,6.29,2.24,9.59,.33,2.97,.02,5.83-.79,8.67-.1,.35-.32,.68-.23,1.19,.05,.21,.06,.3,.03,.51-.79,.76-1.64,.89-2.65,.57-.04-1.62,.84-2.9,1.06-4.38,.45-2.95,.82-5.89,.77-9.01-.01-.61,.11-1.11-.21-1.68-.78-3.27-1.61-6.42-2.99-9.36-1.13-2.41-2.5-4.71-4.81-6.25-.47-.32-.91-.74-1.66-.7,.01,1.14,.12,2.26,.89,3.11,2.14,2.34,3.32,5.19,4.45,8.07,1.39,3.54,2.09,7.27,2.57,11.02,.42,3.37-.42,6.55-2.03,9.67-1.02,.99-2.14,1.19-3.48,.85Z"/>
      <path class="cls-6" d="M102.46,88.55c1.19-.13,2.28-.22,3.37-.8,.6-.72,1.26-.93,2.17-.62,.9-.1,1.73-.1,2.6-.46,.16-.09,.2-.13,.34-.15,.83,.06,1.57,.15,2.31,.14,1.46-.02,2.81,.33,4.12,1.17,.05,.1,.06,.09,.05,.09-.59,.5-1.31,.43-1.99,.41-8.09-.32-15.26,2.48-22.05,6.52-1.69,1.01-3.44,1.93-5.03,3.12-.43,.32-.93,.51-1.48,.56-7.21,.6-14.2,2.24-21.04,4.56-.71,.24-1.55,.24-1.7,1.3-.04,.31-.56,.45-.91,.58-7.5,2.66-14.12,6.92-20.82,11.12-6.66,4.17-11.59,9.82-15.78,16.26-1.75,2.7-4.16,4.85-5.97,7.5-1.36,1.99-2.7,4-3.61,6.21-3.12,7.54-6.53,14.96-9.2,22.67-2.01,5.81-3.01,11.88-3.87,17.96-.68,4.8-1.23,9.61-1.56,14.45-.39,5.9-.54,11.79-.16,17.72,.38,5.97,1.15,11.87,2.24,17.74,.33,1.78,.79,3.54,1.34,5.27,.24,.76,.55,1.51,.36,2.45-.79,.43-1.01-.11-1.17-.61-.62-1.95-1.42-3.85-1.84-5.95-.38-.48-.3-.99-.45-1.56-.04-.18-.03-.25-.07-.42-.11-.53-.17-.97-.29-1.52-.04-.18-.01-.24-.06-.36-.31-1.57-.54-3.08-.82-4.71-.01-.24-.04-.33-.13-.49C.23,219.03-.04,209.39,0,199.76c.02-4.41,.38-8.82,1.43-13.14,.11-.46,.15-.95,.21-1.55,.02-.19,.05-.26,.07-.43,.53-3.26,1.21-6.38,2.2-9.42,.76-2.33,.78-4.88,1.94-7.06,1-1.89,1.39-3.98,2.26-5.91,.84-1.87,1.45-3.83,2.22-5.73,1.06-2.63,2.13-5.26,3.6-7.7,1.32-2.2,2.36-4.54,3.64-6.76,1.68-2.93,3.56-5.71,5.64-8.35,1.85-2.34,3.88-4.55,5.61-6.97,2.05-2.86,4.33-5.49,6.94-7.81,1.04-.93,2.1-1.86,3.29-2.66,.79-.53,1.52-1.26,2.27-1.9,1.17-1,2.31-2.03,3.65-2.83,1.67-1,3.11-2.35,4.92-3.17,2.19-.99,4.32-2.11,6.49-3.14,1.74-.82,3.39-1.82,5.14-2.63,5.09-2.35,10.31-4.3,15.84-5.33,2.09-.39,4.23-.51,6.32-.93,.31-.06,.71-.11,.94,.04,1.22,.74,1.92-.1,2.76-.75,2.43-1.87,5.25-3.01,8.04-4.22,2.29-.99,4.62-1.89,7.03-2.87Z"/>
      <path class="cls-7" d="M92.55,319.71c-1.74,.57-3.3-.07-4.85-.46-.57-.14-1.19-.5-1.76-.58-1.5-.21-2.77-1.02-4.16-1.49-.98-.33-1.77-1.23-2.7-1.98-.1-.15-.15-.2-.28-.32-3.6-.02-7.05-.41-10.47-1.33-4.81-1.3-9.27-3.35-13.55-5.84-1.48-.86-2.77-1.98-4.1-3.06-2.5-2.02-4.85-4.2-7.13-6.46-.64-.64-1.04-1.43-1.74-2.03-1.74-1.49-3.43-3.04-5.01-4.71-.63-.66-1.53-1.25-1.39-2.54,.07-.59-.99-1.05-1.53-1.16-.8-.17-1.38-.71-2.21-.98-.04-.15,0-.22,.15-.35,.41-.18,.75-.15,1.05-.24,2.28-.71,3.68,.2,5.12,2.06,2.05,2.64,3.89,5.56,6.42,7.69,4.1,3.46,7.58,7.65,12.33,10.35,6.27,3.56,12.94,5.72,20.14,6.14,1.08,.06,1.9,.51,2.76,1.07,2.85,1.85,5.59,3.95,9.07,4.55,1.2,.21,2.44,.23,3.71,.75,.26,.3,.28,.54,.13,.91Z"/>
      <path class="cls-13" d="M87.87,46.12c1.1,.38,2.12,.15,3.12,.17,1.41,.02,2.47,.42,3.38,1.66,1.19,1.62,2.12,3.39,3.32,5,.6,.81,.58,2.12,.75,3.2,.37,2.46,.97,4.92,.72,7.42-.19,1.93-.32,3.95-1.98,5.37-.19,.17-.38,.39-.69,.2-.23-.35,.05-.62,.2-.86,.86-1.41,1.06-3.02,1.18-4.59,.23-3.03,.04-6.05-.65-9.03-.44-1.92-1.48-3.27-3.41-4.06-3.14-1.28-6.4-1.72-9.68-1.33-2.36,.27-4.51,1.56-5.87,3.54-2.29,3.36-4.33,6.9-5.42,10.89-.38,1.38-.67,2.79-1.15,4.13-.82,2.26-.63,4.58-.66,6.9,0,.25,.1,.52-.27,.82-.51-.54-.96-1.2-.95-1.89,.05-1.84-.46-3.63-.12-5.53,.75-4.15,2.26-7.95,4.5-11.49,.88-1.39,1.81-2.76,2.89-4,1.11-1.28,2.57-2.21,3.96-3.19,.87-.61,1.78-1.16,2.73-1.82,1.31-.72,2.65-1.13,4.12-1.52Z"/>
      <path class="cls-7" d="M3.05,237.83c.81,.51,.84,1.5,1.08,2.38,.4,1.45,1.08,2.78,1.81,4.16,.17,.08,.23,.13,.35,.29,.65,2.93,1.81,5.56,2.92,8.31,.15,.21,.22,.33,.32,.56,.1,.21,.16,.33,.29,.53,.17,.24,.25,.42,.29,.72-.03,.45,.12,.72,.45,1.02,.98,1.72,1.7,3.46,2.21,5.23,1.61,5.59,4.94,10.1,8.7,14.35,1.8,2.03,3.22,4.36,5.12,6.31,1.19,1.23,2.5,2.3,3.99,3.17,.59,.35,1.24,.68,1.17,1.63-.06,.1-.12,.16-.14,.19-1.7-.05-3.03-.82-4.18-1.98-1.31-1.32-2.61-2.65-3.92-3.98-.41-.41-.77-.85-1.11-1.33-.5-.71-1-1.53-1.95-1.79-.33-.09-.53-.35-.72-.6-1.53-2.13-3.54-3.87-4.89-6.17-.59-1.01-1.4-1.92-1.99-2.96-.79-1.38-1.45-2.83-1.92-4.34-.5-1.61-1.16-3.14-1.78-4.69-.31-.78-.37-1.64-.78-2.36-1.05-1.86-1.35-3.96-2.05-5.94-.77-2.19-1.45-4.4-1.99-6.65-.47-1.96-.87-3.95-1.3-6.05Z"/>
      <path class="cls-10" d="M66.14,64.15c-.78,1.46-2.16,2.32-3.31,3.41-2.97,2.8-5,6.19-6.5,9.93-.31,.78-.65,1.57-.29,2.46,.1,.26-.03,.62-.09,.94-.78,4.21,.7,7.53,4.05,10.05,.84,.63,1.82,1.09,2.8,1.5,.99,.42,1.88-.08,2.68-.63,.71-.49,1.45-.64,2.27-.51,.75,.11,.99,.58,.59,1.21-.26,.42-.68,.66-1.09,.92-1.6,1.02-3.36,1.3-5.21,1.1-.37-.04-.74-.18-1.11-.16-1.98,.16-3.22-.98-4.42-2.33-1.2-1.34-2.09-2.88-3.11-4.34-1.61-2.29-1.49-4.92-1.48-7.46,0-2.86,.68-5.63,2.48-7.98,1.07-1.4,1.76-3.09,3.31-4.24,1.05,1.03,.33,1.92-.25,2.79-1.26,1.9-2.69,3.69-3.48,5.89-2.38,6.63,1.23,13.34,6,16.22,1.09,.66,2.35,.85,3.29,.74-2.73,.12-5.03-1.32-6.58-3.8-3.43-5.48-3.63-11.08-.2-16.69,2.05-3.35,4.53-6.31,7.82-8.53,.52-.35,1-.84,1.82-.51Z"/>
      <path class="cls-2" d="M66.23,64.23c-.37-.02-.72,.03-1.05,.26-4.78,3.3-8.27,7.63-10.23,13.1-.62,1.75-.91,3.61-.21,5.46,.17,.45,.26,.91,.3,1.39,.29,3.67,2.25,6.31,5.22,8.27,.7,.47,1.56,.66,2.44,.63,.63-.02,1.27,0,2.26,0-2.06,1.12-3.71,.59-5.24-.23-2.95-1.58-4.75-4.16-5.98-7.22-.81-2.01-.98-4.01-.81-6.21,.29-3.63,2.2-6.35,4.2-9.08,.54-.73,.86-1.45,.7-2.49-.03-.13-.02-.12-.02-.13,.7-.44,.96-1.25,1.62-1.86,.18-.27,.31-.43,.52-.63,.79-.35,1.34-.92,1.91-1.37-.09-.07,0-.19,.07-.21,.11,.23,.21,.27,.26-.01-.11-.08-.06-.19-.01-.22,.57,.15,.46-.42,.79-.63,.28-.24,.47-.41,.74-.66,.16-.19,.27-.26,.51-.31,.1-.04,.19-.17,.27-.19,.35,.48,.73,.42,1.15,.21,.66-.33,1.31-.69,1.98-.98,.62-.27,1.26-.53,1.92-.69,.37-.09,.95-.23,1.06,.34,.13,.66-.5,.48-.86,.59-1.1,.33-2.27,.6-2.64,2.11-.03,.15-.04,.17-.04,.17-.31,.02-.47,.27-.75,.52-.07,.08-.07,.07-.07,.07Z"/>
      <path class="cls-1" d="M169.96,83.36c-.48,.06-.78-.12-1.02-.56-.04-.1-.14-.22-.14-.3,.1-2.75,1.06-5.26,1.56-7.85,.16-.83,.94-1.1,1.89-.72,.87,.35,1.71,.8,2.57,1.18,.58,.25,1.19,.44,1.9,.68,.33,.06,.54,.12,.87,.04,.4-1.62,1.51-2.84,2.18-4.27,1.05-2.21,2.65-4.03,4.24-5.88,.81-.95,1.57-1.9,2.57-2.66,.44-.33,.86-.38,1.32-.33,.43,.05,.63,.27,.42,.78-1.21,2.92-.11,5.24,2.03,7.36-1.06,.2-1.65-.6-2.07-1.34-.88-1.55-1.95-3.1-1.13-5.1-.76-.09-1.05,.32-1.19,.75-.4,1.22-1.09,2.3-1.63,3.46-.2,.44-.35,.87-.37,1.37-.02,.79,.08,1.38,1.09,1.3,.58-.04,1.03,.24,.68,.86-.71,1.26-.42,2.59-.5,4.17,.96-1.14,1.29-2.55,2.61-3.04,.37,.4,.03,.6-.16,.83-.17,.2-.39,.36-.55,.57-1.68,2.18-1.54,3.4,.01,4.82-1.31,.34-2.73-.77-3.14-2.42-.17-.68-.18-1.38-.12-2.06,.11-1.44,.2-2.78-.94-3.99-.66-.7-.29-1.72,.12-2.68,.09-.26,.2-.37,.26-.5,.09-.19,.03,.08-.08-.11-.03-.05-.03,0-.03,.24-.72,1.85-2.07,3.23-2.62,5.05-.36,1.17-.73,2.34-.97,3.54-.29,1.45-.8,1.7-2.1,.98-1.21-.68-2.45-1.3-3.75-1.78-1.48-.55-2.14-.24-2.68,1.26-.4,1.12-.42,2.29-.48,3.47-.05,.95-.17,1.91-.64,2.88Z"/>
      <path class="cls-11" d="M92.6,319.83c-.14-.24-.14-.46-.14-.79,2.39-1.33,4.64-2.83,7.18-3.73,.65-.23,1.18-.44,.96-1.33-.18-.74,.3-1.13,.99-1.11,1.33,.05,2.66,.14,3.7,1.18,2.8,2.81,6.28,3.81,10.16,3.84,2.17,.01,4.34-.19,6.61-.05,.31,.85-.26,1.41-.45,2.19-.89-.15-1.79-.03-2.68-.04-2.94-.04-5.8-.58-8.75-1.35-.17-.06-.22-.11-.35-.09-2.07-.67-4.1-1.33-5.65-2.92-.4-.41-1-.02-1.51-.26-.31-.14-.46,.35-.69,.56-.27,.25-.53,.59-.86,.69-1.68,.51-2.95,1.77-4.53,2.41-1.21,.49-2.48,.95-3.98,.79Z"/>
      <path class="cls-21" d="M210.64,316.92c-.09-.39,.13-.63,.51-.85,1.03-.6,2.12-.62,3.15-.87,1.45-.34,2.9-.65,4.32-1.09,3.06-.94,5.97-1.42,9.28-.5,3.58,1,7.36,.41,10.91-.96,.69-.27,1.38-.57,2.28-.32,.45,1.28-.71,1.59-1.31,2.35-1.14,1.13-2.54,.82-3.82,1-2.09,.3-4.19,.44-6.39-.22-.98-.43-1.87-.63-2.92-.66-1.77,.15-3.41,.33-5.16,.55-.38,.07-.64,.08-1.03,.11-2.84,1.38-5.64,2.28-8.84,1.64-.36-.11-.6-.13-.97-.19Z"/>
      <path class="cls-9" d="M280.73,280.32c-.04-.38,.2-.56,.46-.81,.1-.2,.16-.32,.33-.5,.08-.07,.06-.07,.06-.06,1.02-.64,2.12-.74,3.39-.45,.36,.11,.6,.13,.96,.13,.35-.2,.61-.25,.98-.04,.35,.18,.6,.26,.96,.32,1.42-.32,2.58,.27,3.75,.69,1.59,.57,3.14,1.23,4.59,2.1,.61,.37,1.53,.69,.84,1.77-2.94,.46-5.82,.7-8.4,2.37-.76,.93-1.59,1.58-2.78,1.84-.17-.08-.22-.14-.3-.31,.05-.89,.64-1.3,1.19-1.7,2.03-1.45,4.1-2.83,6.65-3.4-3.34-1.44-6.66-2.85-10.44-2.04-.71,.15-1.42,.5-2.26,.11Z"/>
      <path class="cls-9" d="M292.38,288.25c.21,.18,.38,.24,.64,.29,.72-.4,1.17,.06,1.68,.31,2.99,1.45,5.1,3.95,7.23,6.35,1.03,1.16,1.44,2.77,1.11,4.5-1.42-.1-1.73-1.26-2-2.21-.43-1.45-1.26-2.53-2.31-3.53-3.18-3.04-6.7-5.21-11.35-4.67-.58,.07-1.17,.04-1.75-.02-.57-.06-1.27-.05-1.33-.83-.05-.73,.49-.98,1.27-.96,.12,.05,.16,.09,.17,.11,.68,.17,1.37-.26,2.14,.15,1.06,.2,2.02,.33,3.11,.45,.54-.26,.94-.33,1.39,.07Z"/>
      <path class="cls-1" d="M198.29,63.93c.08,.25,.02,.52-.18,.7-1.95,1.79-2.93,4.22-4.24,6.43-.83,1.39-.79,1.43-2.46,.61,.73,.06,1.37-.14,1.61-.98,.84-2.93,2.89-4.92,5.27-6.76Z"/>
      <path class="cls-21" d="M199.88,317.91c-.16,.58-.43,1.07-.78,1.62-.41,.28-.75,.49-1.26,.39-1.83,.07-3.54,.5-5.42,.34,.25-.73,.88-1.07,1.71-1.31,1.89-.71,3.68-1.39,5.75-1.03Z"/>
      <path class="cls-17" d="M272.24,130.97c-.38,.47-.17,.84-.05,1.22,.06,.19,.05,.44-.24,.4-.22-.03-.28-.26-.29-.56-.48-1.64-1.64-2.86-2.12-4.53,.04-.2,.08-.27,.23-.38,1.18,1.05,1.87,2.37,2.46,3.85Z"/>
      <path class="cls-10" d="M59.36,66.06c-.05,.86-.41,1.61-1.44,1.94,.15-.82,.51-1.53,1.44-1.94Z"/>
      <path class="cls-10" d="M61.66,64.09c.23,1.1-.73,1.09-1.52,1.4,.23-.64,.61-1.25,1.52-1.4Z"/>
      <path class="cls-17" d="M268.39,126.67c-.35-.08-.49-.21-.53-.53,.46-.24,.84-.07,1.28,.27,.06,.15,.04,.22-.08,.35-.26,.07-.41,.04-.66-.09Z"/>
      <path class="cls-10" d="M62.95,63.01c.06,.38,.11,.85-.62,.72,.09-.29,0-.78,.62-.72Z"/>
      <path class="cls-8" d="M237.48,94.05c.11-.17,.16-.31,.02-.6,.28-.07,.53,.12,.51,.48-.01,.24-.23,.31-.53,.12Z"/>
      <path class="cls-1" d="M191.3,71.5c-.33,.08-.74,.15-.91-.45,.35-.09,.6,.15,.91,.45Z"/>
      <path class="cls-15" d="M168.86,23.02c-.36-.13-.3-.52-.39-.96,.49,.06,.45,.45,.39,.96Z"/>
      <path class="cls-12" d="M191.7,30.61c-.02-.15,.05-.29,.09-.54,.54,.08,.54,.3-.09,.54Z"/>
      <path class="cls-10" d="M66.32,64.21c-.09-.34,.08-.57,.59-.58-.08,.19-.29,.37-.59,.58Z"/>
      <path class="cls-15" d="M188.1,28.96c-.13,.11-.3,.16-.55,.17,.04-.32,.22-.45,.55-.17Z"/>
      <path class="cls-8" d="M234.46,97.39c0-.15,.1-.25,.18-.45,.24-.07,.5-.01,.42,.33-.06,.27-.31,.17-.6,.12Z"/>
      <path class="cls-10" d="M64.22,62.05c.03,.17-.1,.26-.35,.28-.15-.31,.08-.27,.35-.28Z"/>
      <path class="cls-8" d="M177.55,75.82c0,.5-.3,.28-.64,.09,.12-.09,.31-.1,.64-.09Z"/>
      <path class="cls-8" d="M242.49,103.94s-.07,.1-.07,.1c0,0-.12-.04-.17-.08,.03-.1,.11-.11,.24-.02Z"/>
      <path class="cls-12" d="M147.49,14.66c0,.08-.09,.13-.25,.23,0-.05,.08-.15,.25-.23Z"/>
      <path class="cls-17" d="M269.19,126.52c.13,.02,.23,.08,.39,.2,.04,.14,.02,.21-.1,.31-.25,0-.36-.08-.41-.31,.04-.1,.09-.17,.12-.2Z"/>
      <path class="cls-17" d="M269.57,126.83c.14,0,.21,.07,.29,.2,.03,.06-.07,.18-.12,.23-.19,.06-.3,0-.35-.21,.02-.09,.12-.19,.18-.22Z"/>
      <path class="cls-8" d="M1.31,228.69c.08,.01,.14,.11,.16,.28-.08-.01-.14-.11-.16-.28Z"/>
      <path class="cls-12" d="M2.2,233.88c.11-.02,.16,.05,.12,.2-.11,.01-.15-.05-.12-.2Z"/>
      <path class="cls-16" d="M111,86.48c-.03,.08-.08,.1-.21,.13-.09-.05-.11-.1-.07-.23,.13-.07,.21-.03,.28,.1Z"/>
      <path class="cls-8" d="M2.56,235.75c.13-.01,.18,.07,.14,.26-.13,.01-.18-.07-.14-.26Z"/>
      <path class="cls-8" d="M118.9,85.67c.05,.07,0,.16-.1,.31-.03-.05-.01-.17,.1-.31Z"/>
      <path class="cls-8" d="M168.77,82.41s.1,.15,.12,.23c-.1,.09-.18,.05-.23-.13,0-.07,.08-.12,.11-.1Z"/>
      <path class="cls-12" d="M231.64,102.72c.03,.06-.1,.07-.1,.07,0,0-.11-.06-.15-.12,.06-.09,.14-.08,.25,.05Z"/>
      <path class="cls-15" d="M78.73,314.89c.08-.03,.19,0,.29,.12-.11,.07-.19,.02-.29-.12Z"/>
      <path class="cls-15" d="M231.95,64.13c-.08,.04-.2,.01-.31-.12,.11-.09,.2-.04,.31,.12Z"/>
      <path class="cls-10" d="M62.07,63.84s.12,.08,.12,.08c0,0-.1,.1-.15,.04-.04-.06,.02-.1,.03-.12Z"/>
      <path class="cls-21" d="M209.73,317.42c-.02-.09,.05-.2,.23-.32,.02,.09-.05,.2-.23,.32Z"/>
      <path class="cls-8" d="M109.82,318.65c-.02-.13,.07-.16,.2-.06,.02,.05-.13,.08-.2,.06Z"/>
      <path class="cls-8" d="M238.98,103.04c-.05,.07-.15,.08-.31,.03,.05-.07,.15-.08,.31-.03Z"/>
      <path class="cls-8" d="M1.66,184.59c.14,.03,.16,.13,.04,.29-.12-.04-.14-.13-.04-.29Z"/>
      <path class="cls-12" d="M71.6,58.82c.03,.09-.01,.22-.16,.31-.07-.14,0-.22,.16-.31Z"/>
      <path class="cls-2" d="M169.88,83.56c.22-2.16,.24-4.24,.67-6.27,.08-.36,.17-.73,.33-1.06,.6-1.24,1.4-1.57,2.65-1.04,1.46,.62,2.97,1.15,4.3,2.08,.92,.65,1.18,.44,1.37-.7,.54-3.26,1.82-6.19,4.05-8.78,.08,.27,.14,.61,.03,.9-.49,1.3-.35,2.39,.91,3.16,.45,.28,.51,.68,.35,1.1-.4,1.03-.22,2.1-.22,3.14,0,1.65,.96,2.88,2.77,3.49,.21,.03,.29,.09,.38,.23,.16,.21,.35,.25,.6,.35,.07,.06,.07,.06,.07,.05,.13,.14,.32,.16,.57,.27,.07,.06,.07,.05,.07,.05,.94,.42,1.94,.46,2.94,.51,1.16,.06,1.76,.65,1.62,1.85-.36,3.12-.83,6.21-3.19,8.74-1.4,.59-2.77,.78-4.14,.71-1.72-.09-3.36,.34-5.02,.67-.53,.11-1.01,.33-1.44,.83-.73,.12-.96-.39-1.18-.87-.55-1.26-1.55-2.09-2.55-2.98-1.98-1.77-3.81-3.71-5.69-5.59-.2-.2-.22-.48-.25-.86Z"/>
      <path class="cls-19" d="M190.13,91.78c.03-.79,.41-1.44,.85-2.03,.8-1.09,1.32-2.24,1.38-3.63,.04-.93,.37-1.85,.53-2.78,.26-1.49-.15-2-1.69-2.13-.32-.03-.64-.02-.95-.01-.5,.02-.93-.18-1.4-.55,1.16-.19,2.33,.27,3.56,.29,1.14,.02,1.55,.63,1.48,1.82-.07,1.14-.46,2.24-.45,3.45,1.15-.29,1.82-1.17,2.65-1.79,2.22-1.66,4.53-3.17,7.05-4.33,1-.46,.93-.49,.4-1.44-.68-1.21-1.01-2.4-.81-3.92,.29-2.15,.32-4.33,.96-6.43,.11-.35-.11-.61-.22-.9-.45-1.27,.04-2.86,1.14-3.65,.05-.04,.19,.04,.38,.08-.12,1.03-1.04,1.92-.69,3.33,.53-.88,1.06-1.45,1.63-1.99,.39-.37,.44-.82,.44-1.32,0-.6,.12-1.17,.84-1.5,.07,.88-.29,1.72-.24,2.64,.03,.59-.39,1.07-.78,1.52-.43,.5-.87,1.01-1.06,1.92,.78-.38,1.37-.67,2.08-.96,.13,.48-.19,.77-.49,1.07-.45,.45-.89,.92-1.36,1.35-2.31,2.13-2.21,4.79-1.57,7.51,.29,1.23,.45,1.23,1.66,1.27,.73,.03,1.36-.19,1.97-.55,.67-.39,1.37-.56,2.15-.35-3.81,1.78-7.56,3.62-11.04,5.95l.11,.31c1.01-.12,2.03-.17,3.03-.36,1.9-.35,3.8-.33,5.7-.03,.39,.06,.7,.05,1.05-.16,2.13-1.29,4.52-1.86,6.95-2.06,1.06-.09,2.25-.08,3.32,.47-3.09-.33-5.86,.61-8.67,1.87,2.65,1.49,5.7,1.73,8.03,3.57-1.57-.1-2.97-.8-4.48-1.13,.74,.99,2.12,1.2,2.68,2.36-.16,.09-.29,.21-.32,.19-1.84-1.46-4.09-2.19-6.05-3.47-1.1-.72-2.47-1.04-3.78-1.16-3.44-.32-6.8,.08-9.91,1.7-1.93,1.01-3.38,2.55-4.53,4.37-.34,.53-.62,1.11-.94,1.77-.17,.03-.33-.06-.58-.18Z"/>
      <path class="cls-19" d="M210.33,76.69c.12-1.69,.78-3.25,1.65-4.72,2.21-3.74,5.29-6.75,8.41-9.71,.1-.1,.28-.13,.43-.19,.4,.47-.03,.68-.25,.92-1.33,1.44-2.83,2.71-4,4.31-2.12,2.9-4.47,5.65-5.76,9.08-.05,.13-.23,.2-.46,.31Z"/>
      <path class="cls-19" d="M229.14,57.95c-2.04,.54-3.75,1.6-5.53,2.41-.18-.34-.18-.53-.05-.61,1.64-1.08,3.28-2.16,5.27-2.51,.19-.03,.47-.03,.6,.08,.33,.28,0,.43-.3,.63Z"/>
      <path class="cls-19" d="M208.26,60.92c1.36-1.23,1.92-1.46,3.22-1.26-1.01,.91-2.17,1.33-3.25,1.86-.11,.06-.16-.32,.03-.59Z"/>
      <path class="cls-19" d="M216.77,89.41c.44-.38,.6-.36,.89,.05,.11,.16,.26,.41,0,.51-.42,.17-.6-.24-.89-.56Z"/>
      <path class="cls-19" d="M219.14,90.69c-.11,.09-.26,.09-.41,.07-.22-.02-.43-.14-.33-.37,.11-.27,.33-.13,.5-.01,.08,.06,.14,.15,.25,.31Z"/>
      <path class="cls-19" d="M222.37,61.22c-.21-.1-.24-.23-.11-.34,.05-.04,.19-.04,.23,0,.13,.11,.09,.24-.12,.34Z"/>
      <path class="cls-19" d="M207.34,67.42c.06-.07,.12-.17,.2-.21,.17-.08,.44-.19,.47,.06,.02,.18-.29,.14-.56,.16-.09,0-.1,0-.11-.01Z"/>
      <path class="cls-1" d="M188.73,80.47c-.12,.02-.3-.03-.54-.16,.13-.02,.3,.03,.54,.16Z"/>
      <path class="cls-1" d="M188.09,80.15c-.13,.02-.31-.04-.54-.18,.13-.02,.31,.04,.54,.18Z"/>
      <path class="cls-19" d="M219.18,90.78s.08,.09,.12,.14c-.03-.02-.06-.03-.1-.09-.02-.04-.02-.05-.01-.05Z"/>
      <path class="cls-19" d="M210.22,76.71s0,.23-.05,.01c.05-.02,.05-.02,.05-.01Z"/>
      <path class="cls-19" d="M207.34,62.3s0-.25,.05-.01c-.05,.02-.05,.02-.05,.01Z"/>
      <path class="cls-20" d="M122.17,317.93c-2.48,.48-4.99,.44-7.49,.38-3.71-.09-7.02-1.2-9.64-3.91-1.06-1.09-2.42-.91-3.67-1.2-.53-.12-.69,.39-.45,.87,.16,.32,.59,.47,.64,.97-1.7,.67-3.46,1.26-5.08,2.17-.23,.13-.61,.14-.7,.32-.5,.97-1.4,1.04-2.3,1.14-.26,.03-.51,.14-.89,.23-3.45-.18-6.65-.76-9.48-2.71-1.44-.99-3.07-1.71-4.41-2.87-.38-.33-.8-.47-1.31-.49-4.77-.15-9.37-1.13-13.82-2.84-5.53-2.13-10.54-5.06-14.63-9.44-1.01-1.09-2.08-2.08-3.36-2.91-1.41-.91-2.64-2.15-3.51-3.66-.61-1.07-1.34-2.05-2.26-2.87-1.16-1.04-2.1-2.27-2.94-3.56-.66-1.03-1.48-1.5-2.68-1.14-.73,.21-1.48,.17-2.36,.17-.13-.57-.54-.86-.95-1.09-2.62-1.48-4.78-3.44-6.55-5.9-2.12-2.95-4.61-5.62-6.85-8.5-1.82-2.34-3.25-4.86-4.24-7.61-.91-2.49-1.87-4.96-2.92-7.51-.31-.28-.36-.56-.41-.94-.05-.28-.11-.45-.23-.69-.17-.13-.26-.21-.35-.4-.02-.2-.03-.32-.06-.52-1.16-2.87-2.09-5.73-3.13-8.69-.05-.11-.06-.24-.08-.3-.85-3.24-1.87-6.38-2.4-9.64-.44-2.72-.78-5.46-1.19-8.19-.44-2.95-.53-5.92-.82-8.88-.16-1.64-.08-3.3-.09-4.96,0-1.6,0-3.2,.02-4.8,.02-2.66,.29-5.3,.55-7.94,.16-1.64,.21-3.29,.34-4.93,.17-2.12,.53-4.22,.76-6.33,.46-4.22,1.27-8.39,2.16-12.55,.84-3.96,1.92-7.84,3.54-11.57,1.04-2.39,1.8-4.9,2.84-7.28,1.66-3.81,3.18-7.67,4.84-11.47,1.76-4.03,4.3-7.59,7.34-10.77,1.34-1.4,2.27-3.08,3.38-4.64,2.41-3.39,4.81-6.77,7.92-9.59,1.35-1.22,2.72-2.38,4.27-3.34,2.89-1.79,5.6-3.86,8.52-5.62,4.84-2.93,9.82-5.57,15.18-7.43,.29-.1,.6-.18,.82-.43-.14-.33-.5-.11-.77-.37,.55-.49,1.24-.69,1.9-.9,3.65-1.15,7.29-2.36,11.04-3.12,3.43-.69,6.87-1.39,10.38-1.51,.77-.03,1.3-.41,1.87-.79,4.07-2.73,8.27-5.21,12.88-6.96,5.09-1.93,10.3-3.01,15.92-2.51,.33,.68,.11,1.28-.29,1.8-.77,1.02-1.45,2.15-2.4,2.98-2.01,1.75-3.76,3.77-5.84,5.44-3.11,2.5-6.51,4.34-10.46,5.24-2.29,.52-4.6,.81-6.9,1.18-.57,.09-1.15,.15-1.72,.51,.5,1,1.33,1.15,2.28,1.04,3.04-.37,5.89,.32,8.71,1.36,1.86,.68,3.44,1.92,5.57,2.5,.31,0,.39,0,.58,.03,.72,.28,1.22,.62,1.17,1.48-.22,.3-.37,.54-.58,.69-2.62,1.8-5.13,3.8-8.07,5.09-1.37,.6-2.65,1.35-4.03,1.91-.39,.16-.76,.38-1.13,.6-.18,.11-.36,.26-.27,.51,.11,.33,.4,.3,.66,.27,.1,0,.21-.05,.31-.09,3.13-1.22,6.44-1.76,9.72-2.4,2.56-.5,4.96-1.53,7.5-2.11,5.92-1.35,11.84-2.59,17.97-2.14,.48,.04,.96,.05,1.44,.01,2.14-.15,4,.75,5.84,1.63,.78,.37,1.18,.98,1.28,1.99,.14,1.4,.71,2.77,1.1,4.15,1.01,3.59,1.13,7.23,.52,10.9-.09,.52-.03,1.06-.07,1.59-.06,.81,.47,1.11,1.1,1.36,.65,.25,1.02-.11,1.3-.6,.29-.51,.59-.99,1.15-1.19,.45,.38,.23,.73,.1,1.06-.23,.56-.03,.9,.46,1.18,.71,.4,.98,.35,1.37-.41,.49-.95,1.03-1.86,1.52-2.8,.7-1.34,1.69-2.43,2.78-3.52-.15,1.19-.77,2.29-.75,3.89,.41-.63,.73-.99,.92-1.41,.69-1.52,1.81-2.75,2.73-4.11,.35-.52,.77-.99,1.31-1.38,.5-.37,1.05-.77,1.09-1.62,.05-.18,.07-.24,.19-.33,.71-.16,1.08-.65,1.53-1.01,2.57-2.04,5.51-3.44,8.45-4.82,.34-.16,.72-.24,.89-.62,.63-1.41,1.91-1.54,3.21-1.63,3.23-.22,6.44-.61,10.03-.28-1.88-2.02-4.38-2.24-6.56-3.7,1.21-.3,2.1-.48,3.03-.53,2.84-.16,5.63,.37,8.41,.75,5.16,.71,10.26,1.77,15.47,2.2,1.43,.12,2.86,.19,4.3,.21,.37,0,.75,.06,1.1-.14,.24-.14,.45-.35,.42-.63-.04-.31-.32-.4-.6-.41-1.06-.06-2.12-.17-3.18-.23-3.02-.18-5.84-1.15-8.73-1.85-4.58-1.1-8.81-3.16-13.09-5.05-.29-.13-.57-.42-.85-.42-1.36,0-1.64-1.17-2.19-2.01-.34-.51-.19-1.08,.45-1.3,.77-.26,1.44-.69,2.12-1.1,.33-.2,.68-.25,1.07-.18,3.91,.73,7.91,.86,11.79,1.82,.62,.15,1.25,.26,1.87,.41,.39,.09,.77,.21,.81-.37,.03-.44-.2-.74-.66-.7-.77,.07-1.51-.13-2.2-.32-3.87-1.09-7.59-2.5-10.37-5.64-.6-.68-1.18-1.37-1.65-2.27,.19-.57,.76-.56,1.18-.63,1.2-.2,2.42-.36,3.64-.37,3.25-.05,6.51-.02,9.76,0,2.35,0,4.65,.49,6.97,.71,2.16,.21,4.32,.46,6.44,.99,3.78,.95,7.42,2.25,10.99,3.77,2.64,1.13,5.32,2.16,7.57,4.05,.7,.58,1.6,.79,2.55,.76,1.81-.04,3.63-.02,5.44-.03,4.27-.02,8.09,1.27,11.72,3.53,4.09,2.55,7.57,5.85,11.33,8.8,3.05,2.4,5.13,5.68,7.24,8.87,2.76,4.17,5.32,8.46,7.99,12.69,1.19,1.89,2.51,3.7,3.52,5.7,.45,.9,.9,1.81,1.34,2.71,1.88,3.88,3.91,7.69,5.67,11.61,1.94,4.31,4.05,8.58,5.51,13.08,1.82,5.61,3.34,11.32,4.49,17.11,1.01,5.04,1.87,10.12,2.59,15.21,.61,4.3,1.24,8.6,1.48,12.97,.15,2.81,.02,5.5-.65,8.2-.15,.59-.12,1.1,.26,1.65,.51,.74,.79,1.61,.95,2.52,.28,1.67,.75,3.32,.64,5.04-.04,.59-.03,1.18-.28,1.73-1.06,2.37-1.79,4.88-3.15,7.12-.67,1.11-1.63,1.97-2.4,2.98-.44,.58-.76,1.19-.85,1.86-.27,1.95-1.1,3.76-1.24,5.75-.17,2.57-1.09,4.96-2.06,7.33-1.25,3.05-2.46,6.12-3.89,9.1-.35,.72-.76,1.41-1.2,2.07-1.36,2.06-2.21,4.37-3.11,6.64-.85,2.14-2.04,4.09-3.27,6.02-.55,.86-1.19,1.65-2.19,2.02-.42,.16-.72,.48-.96,.82-2.12,2.94-4.56,5.54-7.43,7.79-1.51,1.19-3.16,2.12-4.69,3.24-.25,.19-.56,.33-.86,.42-1.3,.36-2.46,.92-3.32,2.15-.57-1.79-1.21-3.56-2.09-5.25-.59-1.12-1.43-1.99-2.46-2.66-1.42-.92-2.88-1.78-4.32-2.66-1.35-.83-2.83-1.16-4.4-1.23-1.76-.08-3.49,.15-5.36,.49-.4-1.03,.39-1.65,.92-2.34,3.99-5.23,7.52-10.75,10.26-16.74,3.5-7.65,5.96-15.64,7.4-23.92,.33-1.92,.41-3.91,.49-5.89,.2-5.06,.02-10.11-.03-15.17-.04-4.59-.75-9.13-1.32-13.67-1.21-9.58-2.67-19.12-5.14-28.46-1.75-6.64-3.98-13.11-7.03-19.34-3.47-7.09-7.84-13.54-12.46-19.87-2.36-3.23-4.66-6.5-7.27-9.53,2.35,2.82,4.33,5.89,6.48,8.85,4.77,6.56,9.22,13.28,12.65,20.7,3.67,7.94,6.2,16.2,7.99,24.73,1.32,6.27,2.37,12.58,3.22,18.92,.79,5.85,1.59,11.71,1.57,17.65,0,3.13,.23,6.28,.29,9.42,.27,12.91-3.1,24.99-8.2,36.68-2.67,6.13-6.35,11.7-10.18,17.16-.31,.44-.65,.84-1.23,1.2-2.18,.75-4.36,1-6.48,1.48-2.49,.57-4.87,1.49-7.32,2.22-5.17,1.53-10.09,3.69-14.94,5.99-3.94,1.87-7.7,4.12-11.14,6.82-1.03,.81-1.93,1.81-2.94,2.67-3.39,2.89-7.12,5.38-10.3,8.53-1.32,1.3-2.91,2.32-4.21,3.66-.31,.32-.75,.39-1.22,.63-1.47,.74-2.86,.63-4.25,.09-1.53-.59-3.01-1.12-4.77-.94-1.69,.17-3.36-.48-4.76-1.56-.6-.46-1.2-.89-2-.91-1.42-.04-2.53-.71-3.54-1.64-1.35-1.24-1.39-1.54-.13-2.83,1.55-1.61,3.17-3.16,4.57-4.92,2.68-3.39,4.4-7.24,5.61-11.35-2.3,6.28-5.65,11.89-10.53,16.53-.46,.43-.89,.84-.73,1.63,.28,1.41-.41,2.47-1.45,3.35-1.28,1.08-2.72,1.89-4.31,2.39-5.85,1.84-11.73,2.62-17.73,.63-1.06-.35-2.17-.53-3.3-.6-.75-.05-1.49-.13-2.19-.7-.25-1.18,.19-2.08,.74-2.94,.85-1.32,1.99-2.37,3.26-3.24,1.92-1.32,3.99-1.5,6.22-.71,2.07,.74,2.53,.47,3.41-1.55,1.16-2.66,.65-3.79-2.04-4.91-1.55-.65-3.04-.34-4.52,.04-4.24,1.09-7.99,3.11-11.26,6.04-1.31,1.17-2.08,2.67-2.94,4.26-.11,.18-.18,.26-.32,.37-.06,.04-.08,.02-.09,.02Z"/>
      <path class="cls-2" d="M221.48,315.46c1.44-.92,3.04-1.34,4.91-.66,.18,.37,.38,.6,.7,.72,2.31,.91,4.37,2.42,6.9,2.81,.73,.11,1.41,.34,2.18,.05,.47-.18,1.06-.1,1.59-.07,1.24,.06,2.41-.24,3.61-.52,2.97-.7,5.01-2.71,6.96-4.84,.41-.45,.77-1.09,.86-1.69,.33-2.29,1.32-4.36,2.05-6.52,.07-.2,.21-.43,.16-.6-.69-2.31-1.43-4.65-3.87-5.73-2.9-1.29-5.89-1.81-9.14-1.36-3.28,.45-6.45,1.3-9.61,2.16-3.16,.86-6.18,2.25-9.26,3.4-2.78,1.04-5.51,2.23-8.23,3.4-2.46,1.06-4.95,2.12-7.08,3.94-1.51,1.29-3.46,2.05-5.13,3.19-3.02,2.07-6.11,4.05-9.08,6.19-1.14,.82-2.26,1.69-3.13,2.9-1.15,1.6-2.83,2.72-4.34,3.98-1.96,1.63-3.94,3.22-5.96,4.77-2.15,1.65-4.53,2.97-6.86,4.36-.14,.08-.31,.2-.44,.18-1.47-.31-2.32,.78-3.38,1.43-3.27,2.01-6.66,3.69-10.46,4.5-2.33,.5-4.61,1.22-6.98,1.55-2.62,.37-5.2,.59-7.89,.36-3.23-.28-6.14-1.36-8.94-2.7-3.44-1.64-6.36-4.02-8.21-7.52-.49-.93-.68-1.93-.78-2.9-.14-1.53-.18-3.07-.37-4.6-.17-1.33,.06-2.64,.58-3.9,.52-1.28,.91-2.61,1.38-3.91,1.13-3.16,3.28-5.41,6.19-7,2.02-1.09,4.05-2.02,6.4-2.24,1.19-.11,2.33-.64,3.59-.57,.99,.06,1.82,.46,2.22,1.29,.38,.79,.51,1.72-.3,2.49-.77,.74-1.57,1.27-2.71,.92-.76-.24-1.53-.45-2.3-.66-1.37-.38-2.54-.08-3.74,.74-2.57,1.75-4,4.36-5.5,6.93-.19,.32-.3,.69-.5,1-1.89,2.96-1.08,5.79,.5,8.53,.52,.91,1.15,1.77,1.76,2.64,1.36,1.95,3.35,2.71,5.43,3.37,3.27,1.04,6.62,1.47,10.06,1.27,2.54-.15,5.09,.16,7.64-.28,2.74-.47,5.33-1.32,7.94-2.23,2.33-.81,4.54-1.88,6.62-3.11,3.58-2.12,7.29-3.99,10.52-6.74,3.72-3.17,7.4-6.38,10.96-9.73,1.85-1.74,3.83-3.36,5.97-4.75,2.41-1.56,4.52-3.53,6.94-5.07,2.73-1.74,5.6-3.25,8.4-4.86,4.34-2.48,9.02-4.05,13.7-5.62,3.61-1.21,7.3-2.34,11.06-2.91,3.29-.5,6.56-1.34,9.94-1.12,2.1,.14,4.17,.63,5.85,1.86,1.98,1.46,3.5,3.4,4.43,5.75,1.26,3.19,1.57,6.51,1.29,9.87-.25,3.05-1.73,5.62-3.54,8.05-1.41,1.89-3.26,3.02-5.3,4.16-2.46,1.37-5.04,1.73-7.64,1.8-2.18,.05-4.42-.2-6.63-.6-4.48-.8-8.27-2.96-11.99-5.58Z"/>
      <path class="cls-2" d="M274.38,329.98c-.06-.81-.42-1.27-.88-1.66-1.15-.99-1.94-2.29-2.7-3.54-.98-1.62-1.79-3.42-.94-5.41,.23-.54-.03-.95-.28-1.34-1.27-1.99-1.82-4.3-2.86-6.39-.23-.47-.11-.9-.03-1.39,.33-1.93,1.22-3.63,2.23-5.25,.72-1.15,1.19-2.46,2.08-3.7,.77,.99,1.05,2.03,1.45,2.97,1.6,3.78,2.5,7.78,3.62,11.71,.01,.05,.02,.1,.04,.15,.18,.58-.26,1.34,.41,1.76,.55,.35,1.21,.37,1.84,.46,.8,.12,1.55,.58,2.67,.4-.74-.59-1.42-.65-2.06-.76-1.61-.3-1.56-.3-1.92-1.88-.87-3.78-1.93-7.5-3.37-11.11-.56-1.39-1.18-2.74-2.04-3.96-.49-.7-.51-1.33-.27-2.07,.2-.61,.3-1.23,.32-1.88,.03-.89,.27-1.04,1.1-.61,1.04,.53,2.03,1.15,3.03,1.77,3.11,1.94,6.12,4.06,8.88,6.46,3.28,2.85,6.69,5.61,8.96,9.45,.79,1.34,1.54,2.66,1.73,4.24,.09,.73,.46,1.38,1.11,2.14,.13-1.29-.59-2.19-.55-3.24,.04-1.07-.8-1.91-1.28-3.02,.95-.06,1.41,.44,1.89,.9,.65,.62,1.22,1.34,2.07,1.73,.86,.4,1.64,.92,2.7,.47,.45-.19,1.06-.13,1.57,.07,2.53,.99,5.01,2.01,7.29,3.56,2.34,1.59,3.14,3.93,3.68,6.46,.14,.67-.41,1.31-.28,1.98-.5,.27-.75-.06-1.06-.23-1.33-.76-2.6-1.62-4.24-1.71-.82-.05-1.58-.56-2.42-.76-.96-.22-1.91-.16-2.86-.11-.85,.05-1.38,.66-1.15,1.37,.8,2.45-.35,4.2-2.07,5.9-1.95-2.64-4.88-3.99-7.48-5.78-.8-.55-1.56-1.09-1.88-2.07-.4-1.22-1.65-1.61-2.46-2.43-.59-.59-1.36-1.02-2.06-1.49-.62-.42-1.19-.84-1.6-1.51-.47-.78-1.27-1.24-2.07-1.6-.21,.15-.26,.37-.15,.44,1.62,1.03,1.18,2.54,.92,3.99-.19,1.06-.83,1.93-1.38,2.9q1.16-.16,2.75-3.72c1.12,2.29,.75,4.65,.46,7.15,1.52-1.37,1.6-2.27,.75-7,2.27,1.45,4.09,3.07,4.99,5.64-.83-.06-1.72-.25-2.6,.14-1.33,.59-1.72,1.07-1.68,2.64,.01,.58-.28,.81-.74,.82-.79,0-1.52,.28-2.08,.73-1.45,1.17-2.81,.81-4.33-.04-.18,.03-.23,.07-.4,.1-.86-.41-1.59-.85-2.4-1.35-.15-.09-.21-.13-.36-.24-.51-.45-.9-.87-1.59-1.25Z"/>
      <path class="cls-2" d="M248.64,303.29c.82,1.56,.95,3.03,.16,4.52-.07,.14-.13,.3-.14,.45-.22,2.87-1.94,4.89-3.92,6.7-1.15,1.05-2.62,1.52-4.28,1.71,1.24-1.99,2.55-3.76,3.94-5.47,.49-.61,.68-1.27,.73-2.05,.28-4.29-3.56-6.61-6.58-6.82-3.33-.23-6.51,.72-9.71,1.5-5.35,1.3-10.03,3.99-14.6,6.91-.73,.47-1.53,.95-1.98,1.8-.19,.36-.54,.67-.88,.92-2.37,1.72-4.04,4.08-5.65,6.43-1.84,2.68-1.75,7.45,.04,9.68,.48,.59,.98,1.12,1.68,1.43,2.14,.97,4.35,1.28,6.64,.59,.51-.16,.96-.39,1.4-.72,1.28-.94,2.58-1.88,4-2.62,.62-.32,1.31-.65,1.9-.01,.54,.59,.43,1.28,.05,1.93-.18,.32-.32,.69-.55,.97-3.57,4.22-7.84,7.35-13.45,8.19-1.49,.22-2.8-.5-3.94-1.42-1.38-1.11-2.43-2.54-3.46-3.94-.89-1.22-1.1-2.78-1.26-4.24-.16-1.46-.21-2.98,.26-4.43,.23-.71,.31-1.44,.34-2.19,.04-.95,.33-1.87,.71-2.76,1.24-2.93,3.35-5.15,5.79-7.08,1.87-1.48,3.51-3.24,5.55-4.53,3.16-2,6.55-3.49,10.03-4.8,1.94-.73,3.76-1.74,5.77-2.32,4.08-1.18,8.12-2.49,12.28-3.32,2.09-.41,4.23-.28,6.3,.44,.67,.23,1.08,.65,1.36,1.25,.49,1.06,.97,2.13,1.5,3.31Z"/>
      <path class="cls-2" d="M285.71,287.42c-.32,.24-.62,.36-.89,.51-.19,.1-.32,.28-.28,.52,.06,.32,.31,.41,.59,.41,1.54,0,3.08,.02,4.62,0,1.41-.02,2.73,.3,3.97,.95,2.67,1.39,4.93,3.29,6.95,5.5,.31,.34,.35,.73,.46,1.15,.31,1.22,.65,2.46,1.98,3.16,.12-.02,.1,0,.11,0-.1,.14-.09,.27,.16,.3,.1-.07,.1-.05,.1-.06-.16,.68,.66,.92,.72,1.39-.11,.37-.33,.38-.53,.43-.67,.13-.67,.46-.2,.83,1.04,.82,2.09,1.62,3.16,2.41,.82,.61,1.47,1.38,2.18,2.09,.23,.24,.4,.57,.16,.85-.32,.37-.68,.17-.96-.11-1.32-1.3-2.95-2.08-4.65-2.66-.98-.34-2.04-.37-2.94-1.03-1.93-1.41-4.12-2.38-6.24-3.46-.24-.12-.48-.23-.69-.39-.11-.09-.23-.26-.22-.4,0-.24,.21-.31,.44-.37,1.59-.38,3.14-.22,4.64,.38,.4,.16,.8,.27,1.37,.25,.29,.14,.07-.04,.23,.1,.11,.1,.23,.19,.34,.28-.05-.14-.22-.14-.37-.32-1.96-1.48-4.18-2.07-6.38-1.56-1.28,.3-2.45,.2-3.68,.21-1.95,.01-2.68,.88-2.37,2.8,.02,.15,.05,.3,.09,.52-.48,.21-.83-.1-1.17-.28-2.36-1.26-4.87-2.11-7.46-2.71-.58-.14-1.12-.38-1.59-.71-2.23-1.55-4.68-2.68-7.1-3.88-.27-.13-.46-.42-.74-.74,.15-.49,.43-.82,.84-.98,1.28-.51,2.18-1.42,2.99-2.51,1.76-2.38,3.6-4.71,5.43-7.04,.69-.88,1.3-1.81,1.85-2.9,.37-.12,.71-.08,1-.19,2.73-.96,5.43-.72,8.11,.16,1.41,.46,2.86,.83,4.17,1.57,.26,.15,.58,.25,.68,.55-.2,.44-.55,.31-.85,.36-3.18,.57-5.8,2.15-7.99,4.63Z"/>
      <path class="cls-2" d="M278.65,332.65c.09,.06,.22,.06,.29,.06-.02,.83-.71,.77-1.13,.57-2.21-1.02-4.73-1.66-6.44-3.4-1.55-1.58-3.19-3.11-4.48-4.96-.88-1.27-.94-1.23-1.94-.04-.89-1.54-1.73-3.07-2.24-4.75-.22-.71-.42-1.41-.9-2.02-.65-.83-1.15-.84-1.58,.12-.51,1.15-.54,2.36-.26,3.59,.44,1.95,.62,3.95,1.47,5.69-.46,.48-.74,.2-1,.07-2.08-1.06-4.23-2.02-5.61-4.08-.4-.59-1.01-.5-1.54-.09-.49,.39-.83,.99-1.67,1.06-.31-.71,.03-1.54-.26-2.26-.06-.15-.13-.3-.15-.45-.11-.78-1.1-1.49-.7-2.18,.58-.98,1.46-1.86,2.49-2.43,.47-.27,.64-.6,.89-1,.67-1.08,1.44-2.09,2.18-3.13,1.5-2.11,2.05-4.52,2.14-7.06,.04-1.12,.01-2.24,.01-3.51,1.95-.98,3.77-2.09,5.3-3.49,1.64-1.5,3.46-2.74,5.2-4.25,2.31,.63,2.43,.76,2.29,3.01-.1,1.6-.61,3.12-1.29,4.56-.47,1-1.09,1.94-1.69,2.87-1.4,2.17-2.02,4.57-1.77,7.11,.21,2.12,1.12,4.08,2.18,5.93,.41,.71,.61,1.3,.42,2.19-.46,2.13,.53,3.93,1.74,5.6,1,1.38,2.14,2.63,3.53,3.79,.1,.05,.09,.04,.09,.04,.63,.31,1.1,.88,1.84,1.22,.08,.06,.08,.06,.08,.06,.64,.75,1.52,1.12,2.5,1.54Z"/>
      <path class="cls-2" d="M296.17,302.8c1.47,.59,2.8,1.36,4.01,2.29,.46,.36,.97,.44,1.47,.53,2.91,.53,5.29,2.11,7.65,3.76,1.88,1.31,3.24,3.04,4.4,4.97,.28,.46,.65,.85,.35,1.44-.18,.35,.02,.63,.32,.8,.99,.57,1.68,1.47,2.47,2.26,1.6,1.6,1.93,3.11,.8,5.01-.92,1.55-1.02,3.2-1.15,4.86-.07,.91-.25,1.79-.51,2.65-.22,.72-.67,.78-1.13,.17-.41-.54-.95-1.13-.03-1.72,.24-.15,.34-.4,.35-.68,.14-2.35-.21-4.47-1.97-6.32-2.6-2.72-5.72-4.55-9.16-5.91-.88-.35-1.82-.34-2.67-.09-.73,.21-1.18-.02-1.76-.34-1.51-.84-2.68-2.09-3.96-3.19-4.79-4.11-9.37-8.47-14.44-12.24-.03-.02-.02-.1-.03-.16,.23-.24,.47-.14,.71-.02,1.66,.84,3.45,1.4,5.03,2.42,.75,.48,1.01,.31,1.07-.6,.06-.82-.21-1.69,.55-2.39,.87-.8,1.38-1.01,2.38-.33,1.36,.91,2.7,1.89,3.9,3,1.36,1.26,2.69,2.56,3.87,4.02,2.14,2.66,4.96,4.4,8.41,5.69-.38-.85-.97-.97-1.44-1.18-2.11-.96-3.98-2.29-5.53-3.97-1.26-1.37-2.5-2.76-3.81-4.08-.15-.15-.27-.33-.14-.63Z"/>
      <path class="cls-23" d="M237.79,289.48c.26-.91,.93-1.61,1.49-2.38,2.17-2.97,4.02-6.14,5.91-9.28,4.33-7.18,7.11-14.97,9.19-23.05,.84-3.24,1.65-6.49,2.1-9.81,.04-.32,.1-.63,.12-.95,.21-4.57,.53-9.15,.3-13.73-.23-4.62-.09-9.27-.68-13.86-.56-4.37-1-8.75-1.74-13.1-.7-4.08-1.32-8.18-2.07-12.25-.62-3.39-1.31-6.78-2.25-10.1-.82-2.91-1.84-5.77-2.71-8.68-1.43-4.78-4.02-9.04-6.04-13.56-1.35-3.02-3.3-5.7-5.14-8.44-2.7-4.02-5.6-7.91-8.33-11.9-1.14-1.67-2.43-3.23-3.65-4.84-.15-.2-.37-.39-.17-.82,.92,.28,1.42,1.04,1.95,1.71,2.44,3.03,4.7,6.18,6.98,9.33,3.31,4.57,6.6,9.14,9.46,14.01,.6,1.02,.98,2.13,1.51,3.17,1.17,2.33,2.45,4.62,3.46,7.01,1.09,2.59,2.1,5.23,2.89,7.94,1.09,3.78,2.38,7.51,3.12,11.38,1.02,5.32,2.16,10.61,2.85,15.99,.31,2.37,.81,4.7,1.04,7.09,.21,2.22,.54,4.43,.82,6.64,.65,5.14,.53,10.3,.72,15.46,.11,3.14-.06,6.27-.15,9.39-.12,4.16-1.1,8.19-2.15,12.21-1.62,6.2-3.76,12.22-6.57,17.96-2.48,5.07-5.57,9.81-8.98,14.32-.61,.8-1.32,1.54-1.8,2.6-.46,.36-.87,.59-1.48,.54Z"/>
      <path class="cls-4" d="M241.28,312.33c-.49,.18-.93,.23-1.3,.42-2.49,1.25-5.21,1.44-7.91,1.65-2.3,.18-4.58,.05-6.74-.87-.83-.35-1.62-.36-2.48-.09-3.1,.99-6.26,1.74-9.44,2.41-.64,.13-1.26,.2-2.03,.18,1.27-1.93,3.13-3.37,5.07-4.66,5.09-3.4,10.53-6.03,16.56-7.31,1.72-.36,3.42-.8,5.19-.85,1.6-.05,2.84,.63,3.62,1.94,1.23,2.08,1.59,4.81-.54,7.17Z"/>
      <path class="cls-11" d="M177.28,323.09c-1.13-.36-2.17-.74-3.19-1.17-.96-.4-2.04-.56-3.13-.39-2.35,.37-4.41-.38-6.26-1.77-.43-.32-.86-.54-1.41-.63-1.2-.2-2.39-.81-3.56-.75-1.19,.06-2.01,1.27-3.09,1.83-3.68,1.91-7.52,3.09-11.71,3.3-5.25,.26-10.39-.24-15.57-1.58,.02-.46,.14-.84,.29-1.34,2.63,.38,5.24,.8,7.82,1.47,3.58,.92,7.26,.77,10.87-.05,1.45-.33,2.91-.59,4.33-1.07,1.48-.51,2.84-1.21,4.09-2.12,1.2-.87,1.99-1.99,1.5-3.56-.22-.7,.2-.99,.57-1.35,2.08-2,3.95-4.18,5.61-6.53,1.46-2.05,2.62-4.26,3.59-6.57,.67-1.6,1.38-3.19,2.1-4.86,.64,.43,.43,.93,.33,1.35-.46,1.92-1.17,3.77-2,5.54-1.79,3.79-4.22,7.14-7.29,10.01-.73,.68-1.42,1.42-1.91,1.91,.5,.67,.84,1.3,1.34,1.75,.8,.72,1.74,1.26,2.88,1.17,.75-.06,1.29,.19,1.85,.7,1.73,1.55,3.81,2.07,6.07,1.71,.68-.11,1.16,.03,1.78,.3,1.8,.78,3.66,1.48,5.85,1.11-.45,.52-1.05,1.05-1.74,1.6Z"/>
      <path class="cls-4" d="M200.07,317.94c-1.48,.08-2.8,.55-4.15,.79-.47,.08-.93,.21-1.55,.2,.55-.97,1.44-1.69,2.41-2.36,2.09-1.45,4.08-3.04,6.17-4.49,1.5-1.04,3.04-2.07,4.89-2.52-3.11,2.28-5.36,5.33-7.76,8.38Z"/>
      <path class="cls-13" d="M229.4,315.44c2.93,.19,5.77-.19,8.63-.37,.47-.03,.93-.2,1.53-.31-.64,1.62-1.69,2.59-3.72,2.65-2.44,.07-4.51-.64-6.44-1.97Z"/>
      <path class="cls-11" d="M122.27,317.93c-.02-.06,.04-.15,.17-.26,.02,.06-.04,.15-.17,.26Z"/>
      <path class="cls-14" d="M155.51,124.02c-.03,.2-.08,.27-.21,.35-.75-.01-1.06,.55-1.5,.92-.77,.65-1.54,1.29-2.37,1.98-.57-.4,.48-1.11,.03-1.8-.75,.16-1.33,.66-1.9,1.17-1.12,.99-2.02,2.18-2.97,3.32-.43,.52-.76,1.03-1.55,.58-.49-.28-.99,.45-1.5,.08-.14-.23-.06-.43,.04-.62,2.41-4.27,4.09-8.86,5.93-13.39,.52-1.28,1.15-2.53,1.48-3.87,.75-3.01,.97-6.06,.41-9.15-.38-2.12-1.71-3.52-3.53-4.46-1.99-1.03-3.89-2.17-5.67-3.53-2.26-1.73-4.12-3.83-5.87-6.04-1.02-1.28-2.21-2.46-2.82-4.03-.66-1.71-1.07-3.45-.4-5.26,.46-1.23,1.38-2.12,2.31-2.97,1.97-1.79,3.8-3.74,5.68-5.62,.26-.26,.41-.62,.63-.92,.48-.62,.29-1.05-.33-1.44-.72-.45-1.39-.96-2.04-1.52-2.03-1.74-3.29-4-4.6-6.27-1.54-2.67-2.7-5.53-3.96-8.33-.9-2.01-.84-4.18-.41-6.27,.54-2.6,1.43-5.14,2.52-7.55,1.25-2.75,2.95-5.26,4.87-7.64,2.03-2.52,4.63-4.37,6.97-6.51,1.6-1.46,3.46-2.64,5.24-3.89,2.57-1.8,5.11-3.64,7.78-5.28,3.11-1.91,6.14-3.94,9.16-5.9,.32,.22,.29,.4,.17,.6-1.47,2.41-1.77,4.95-.91,7.64,.65,2.02,1.39,4.02,1.47,6.17,.02,.6,.47,.91,.93,1.21,.44,.28,1.03,.26,1.37,.6,.1,.42-.14,.58-.33,.76-3.16,3.06-6.44,6.01-9.46,9.22-2.35,2.51-4.78,4.98-6.74,7.84-1.11,1.61-2.51,3.03-3.56,4.68-1.81,2.86-3.72,5.68-4.73,8.99-.88,2.87-.47,5.66,.14,8.47,.19,.87,.74,1.54,1.52,1.97,.47,.26,.86,.61,1.28,.92,.56,.42,.57,.81,.51,1.49-.3,3-1.14,5.95-1.09,8.98,.07,4.59,1.03,8.99,3.51,12.9,1.69,2.67,3.98,4.83,6.63,6.58,2.84,1.87,6.06,2.96,9.31,3.64,3.56,.74,6.88,1.96,10.23,3.31,3.2,1.29,6.15,3.11,9.43,4.18,.44,.14,.83,.43,1.48,.77-.76,.2-1.24,.15-1.74,.04-2.8-.62-5.66-.79-8.47-1.24-1.89-.3-3.69-.03-5.53,.06-.45,.02-.88,.07-1.08,.53-.21,.49-.08,.94,.3,1.31,.57,.55,1.06,1.2,1.83,1.53,.49,.21,.92,.51,1.41,1.03-2.6,.24-5.05,.7-7.47,1.36-.88,.24-1.62,.65-2.38,1.18-1.43,1-3.03,1.76-4.56,2.6-1.97,1.08-3.66,2.49-4.9,4.51Z"/>
      <path class="cls-14" d="M108.02,111.58c-.34-.59-.65-1.12-1.42-1.4-.17-.05-.22-.07-.33-.14-.06-.05-.05-.05-.05-.05-.11-.91-.83-1.27-1.5-1.73-1.7-1.17-3.43-2.29-5.42-3.18,3.08-1.33,5.71-3.12,8.43-4.75,1.92-1.15,3.7-2.48,5.31-4.04,1.27-1.23,2.25-2.68,3.24-4.13,2.07-3.03,4.06-6.11,5.88-9.3,1.06-1.85,1.57-3.93,2.19-5.96,.08-.27,.13-.64-.13-.71-.96-.28-.53-.93-.38-1.41,.6-1.88,.31-3.71-.33-5.47-1-2.75-1.75-5.56-2.63-8.34-.45-1.43-.62-2.91-.84-4.36-.23-1.51-.44-3.04-.41-4.59,.03-2.12,.52-4.09,1.34-6.02,.3-.71,.89-1.21,1.36-1.75,2.05-2.31,3.81-4.83,5.54-7.37,.12-.18,.22-.36,.36-.53,.1-.13,.25-.2,.42-.14,.26,.09,.28,.32,.21,.52-.18,.51-.15,1.06-.28,1.56-.38,1.37-.3,2.75-.27,4.13,.04,1.71-.35,3.37-.53,5.05-.19,1.84-.27,3.69,.12,5.55,.46,2.23,.87,4.48,1.71,6.6,1.14,2.88,2.54,5.61,4.7,7.89,.73,.77,1.49,1.5,2.21,2.22-.64,1.2-1.77,1.59-2.73,2.07-1.67,.84-3.28,1.79-4.66,3.01-3.15,2.79-4.39,6.29-3.46,10.48,.4,1.82,.8,3.64,1.98,5.16,.82,1.06,1.69,2.05,2.96,2.61,2.22,.97,4.07,2.43,5.87,4.06,1.9,1.72,3.51,3.68,5.16,5.6,.88,1.02,1.4,2.28,1.66,3.59,.24,1.24-.03,2.37-.82,3.44-1.01,1.39-2.24,2.51-3.6,3.65-1.87,.81-3.54,.03-5.21-.61-1.12-.42-2.24-.55-3.43-.59-3.26-.1-6.44,.43-9.64,.89-1.94,.27-3.87,.54-5.8,.92-2.92,.57-5.73,1.55-8.61,2.24-.31,.07-.61,.2-1.02,.01,.36-.98,1.3-1.3,2.04-1.79,3.86-2.58,7.41-5.5,10.28-9.19,.1-.13,.22-.23,.32-.36,.21-.27,.36-.6,.05-.84-.25-.19-.49,.05-.68,.24-1.07,1.03-2.15,2.05-3.29,3.01-1.83,1.54-3.81,2.87-5.87,4.25Z"/>
      <path class="cls-18" d="M154.14,48.49c1.33-1.94,2.6-3.76,4.09-5.43,.63-.71,1.19-1.51,1.64-2.35,2.32-4.42,5.92-7.75,9.4-11.18,1.02-1.01,2.37-1.6,3.63-2.27,.18-.09,.45-.17,.61-.11,.83,.34,1.76,.18,2.69,.43-.54,.58-.99,1.07-1.45,1.56-1.09,1.16-1,2.02,.33,2.96,.26,.18,.61,.31,.39,.72-.19,.36-.63,.69-.13,1.1,.46,.38,1,.68,1.62,.49,.66-.2,1.29-.48,1.93-.76,2.58-1.12,5.27-1.97,7.9-2.95,.25-.09,.52-.11,.78,.05,.02,.46-.37,.59-.65,.81-3.23,2.58-6.62,4.98-9.48,8.01-1.6,1.7-2.98,3.59-4.47,5.39-2.72,3.28-5.18,6.73-7.45,10.33-1.45,2.3-2.75,4.67-3.17,7.41-.72,4.59-.66,9.09,1.46,13.37,1.37,2.77,3,5.34,4.95,7.78,2.19,2.76,4.59,5.29,6.96,7.87,1.26,1.37,2.53,2.73,3.82,4.07,.21,.22,.51,.41,.47,.78-.1,.17-.28,.22-.4,.13-1.49-1.13-3.15-1.96-4.8-2.83-2.82-1.48-5.78-2.71-8.34-4.66-2.09-1.59-3.77-3.56-5.33-5.67-1.47-2-2.19-4.35-3.24-6.54-.37-.77-.49-1.6-.52-2.48-.12-3.01-.37-6.01-.3-9.02,.02-.87-.39-1.33-1.2-1.65-1.85-.74-2.95-2.38-4.22-3.79-.17-.19-.26-.48-.3-.73-.4-2.88-.41-5.68,1.34-8.23,.54-.79,.9-1.69,1.42-2.63Z"/>
      <path class="cls-18" d="M148.14,53.67c1.03-2.18,2.35-4.04,3.71-5.87,1.1-1.49,2.3-2.91,3.32-4.47,.23-.35,.52-.81,1.31-.7-.93,1.6-1.78,3.09-2.66,4.57-1.12,1.87-2.31,3.69-3.09,5.74-1.67,4.37,.07,9.62,4.06,11.29,.53,.22,.72,.58,.72,1.11,0,.96-.06,1.92,.01,2.88,.29,3.7,.55,7.39,1.82,10.93,1.39,3.87,3.82,6.92,6.97,9.5,2.27,1.86,4.74,3.4,7.19,4.99,.89,.57,1.81,1.11,2.77,1.55,2.71,1.24,5.18,2.92,7.84,4.24,.74,.37,1.5,.69,2.31,1.07-.39,.3-.75,.26-1.01,.18-1.8-.6-3.58-.13-5.36,.03-1.15,.11-1.96,1.07-2.07,2.4-.1,1.18-.19,1.28-1.2,.82-2.33-1.07-4.75-1.79-7.25-2.32-1.6-.34-3.17-.93-4.66-1.62-2.4-1.11-5.04-1.69-7.2-3.35-1.06-.82-1.99-1.73-2.8-2.8-1.65-2.18-2.93-4.54-3.58-7.2-.79-3.25-.56-6.53-.29-9.82,.18-2.23,.67-4.39,1-6.59,.14-.95-.2-1.8-1.22-2.37-2.63-1.46-3.82-4.63-3.33-7.65,.39-2.4,1.79-4.29,2.71-6.55Z"/>
      <path class="cls-18" d="M138.86,113.51c2.94-.9,4.67-2.98,5.61-5.81,.44-1.31-.04-2.54-.62-3.68-.67-1.32-1.47-2.6-2.58-3.62-.98-.9-1.67-2.06-2.64-2.98-1.82-1.73-3.71-3.34-6.05-4.33-3.18-1.35-4.8-3.93-5.51-7.15-.4-1.81-.62-3.64-.11-5.51,.45-1.63,1.31-2.99,2.36-4.28,1.59-1.97,3.86-2.93,5.93-4.2,.54-.33,1.11-.63,1.64-.99,1.17-.79,1.17-.91,.24-1.9-.8-.85-1.7-1.61-2.42-2.55-2.62-3.45-4.13-7.39-5.13-11.56-.11-.46-.21-.93-.3-1.39-.02-.08,.07-.19,.12-.3,.57,.15,.62,.68,.78,1.1,1.43,3.74,3.29,7.27,5.29,10.72,.78,1.35,1.85,2.46,3.19,3.29,.45,.28,.88,.59,1.32,.9,.96,.68,.94,.69,.3,1.76-.31,.51-.69,.94-1.1,1.36-1.74,1.73-3.47,3.46-5.2,5.2-2.6,2.6-2.92,5.99-.96,9.13,.96,1.55,2.25,2.81,3.33,4.26,2.32,3.12,5.26,5.53,8.65,7.4,1.2,.66,2.47,1.15,3.52,2.12,.94,.86,1.54,1.78,1.93,2.99,.97,3.03,.38,5.97-.31,8.91-.77,3.27-2.47,6.21-3.55,9.37-.76,2.22-1.93,4.26-2.79,6.43-.28,.71-.79,1.33-1.31,2.16-.3-1.51-.01-2.83-.27-4.13-.41-2.09-1.2-4.06-1.75-6.1-.14-.51-.26-.92,.17-1.44,.49-.61,.45-1.29-.26-1.95-.9-.84-1.87-1.56-3.02-2.32,.52-.28,.95-.51,1.44-.83,.06-.09,.06-.08,.06-.08Z"/>
      <path class="cls-18" d="M176.81,2.48c.09,.26,.01,.49-.29,.6-3.92,1.35-7.13,3.88-10.48,6.21-3.27,2.27-6.71,4.29-10.01,6.52-3.95,2.67-7.94,5.31-11.66,8.3-2.15,1.72-4.36,3.41-6.2,5.48-2.87,3.24-5.27,6.78-6.71,10.92-.59,1.69-1.27,3.35-1.73,5.12-.05-2.34-.35-4.67,.02-6.99,.17-1.04,.43-2.07,.69-3.09,.75-3.05,2.56-5.44,4.45-7.82,2.7-3.4,6-6.14,9.38-8.81,1.37-1.08,2.63-2.3,4-3.4,1.3-1.04,2.72-1.85,4.21-2.56,2.83-1.36,5.58-2.88,8.48-4.11,1.36-.58,2.61-1.43,3.94-2.1,3-1.5,6.11-2.72,9.31-3.74,.82-.26,1.71-.07,2.61-.52Z"/>
      <path class="cls-18" d="M128.97,51.91c.5-.2,.19,.19,.26,.33,.01,.03-.1,.11-.15,.17-.04-.14-.08-.28-.1-.5Z"/>
      <path class="cls-14" d="M151.13,128.31c-.05-.16,0-.21,.09-.16,.02,.01-.03,.13-.09,.16Z"/>
      <path class="cls-18" d="M176.94,2.46s0-.2,.05-.02c-.05,.02-.05,.02-.05,.02Z"/>
      <path class="cls-20" d="M144.17,133.24c-.06,0-.11-.03-.1-.05,.05-.11,.11-.1,.1,.05Z"/>
      <path class="cls-15" d="M269.32,126.94c.13,.12,.17,.22,.29,.34,.58,.94,1.07,1.86,1.6,2.75,.31,.51,.49,1.04,.49,1.76-1.22-1.51-2.32-3.2-3.38-5.06,.13-.23,.31-.24,.64-.14,.19,.13,.23,.22,.36,.35Z"/>
      <path class="cls-2" d="M108.13,87.1c-.68,.25-1.33,.38-2.1,.54,.34-1.65,1.14-3.22,1.51-4.94,.35-1.6,.44-3.21,.2-4.76-.53-3.51-1.11-7.02-2.41-10.36-.98-2.52-1.91-5.08-3.62-7.24-.16-.21-.29-.46-.49-.62-1.52-1.2-1.17-3.02-1.79-4.76,2.02,.55,3.51,1.51,4.6,2.86,1.94,2.39,3.55,5.02,4.3,8.08,.15,.62,.37,1.22,.6,1.82,.49,1.3,.84,2.62,1.01,4.1,.44,.52,.18,1.04,.36,1.61,.14,3.55-.16,6.96-.89,10.34-.25,1.14-.61,2.24-1.28,3.34Z"/>
      <path class="cls-13" d="M74.21,77.13c-.57-.52-.9-1.03-.9-1.71,2.06,.02,2.44-.32,2.86-2.36,.29-1.4,.77-2.78,.58-4.22-.2-1.57-.52-3.12-.81-4.67-.06-.32-.13-.61-.06-1.04,.7,.28,.78,.87,.93,1.38,.59,2.03,1.06,4.12,1.17,6.2,.11,1.98-.31,3.98-1.52,5.71-.57,.82-1.21,1.14-2.25,.7Z"/>
      <path class="cls-16" d="M97.06,60.92c.15,2.96-.26,5.66-1.74,8.27-1.7-3.14-.93-8.16,1.52-10.08,.23,.57,.15,1.14,.22,1.81Z"/>
      <path class="cls-16" d="M75.12,73.41c-.39,.86-1.03,1-1.85,.96-.45-3.13,.48-6.05,1.28-9,1.24,.29,1.44,1.2,1.53,2.19,.17,1.99-.04,3.91-.97,5.84Z"/>
      <path class="cls-13" d="M92.57,69.18c-1.27-2.88-.96-7.22,.74-9.12-.73,3.46-1.14,6.73,1.04,9.7-.84,.45-1.3,.07-1.78-.58Z"/>
      <path class="cls-13" d="M96.51,57c.03,.26,.08,.51,0,.56-.83,.5-1.68,.97-2.7,1.55,.18-1.41,1.14-2.06,1.89-2.79,.32-.31,.6,.24,.82,.67Z"/>
      <path class="cls-14" d="M110.38,73.4c-.48-.24-.32-.76-.35-1.37,.55,.22,.31,.77,.35,1.37Z"/>
      <path class="cls-6" d="M6.09,244.77c.98,1.19,1.44,2.75,1.97,4.27,.47,1.33,.81,2.7,1.2,4.18-.2,.08-.49,.07-.53-.15-.21-1.37-1.12-2.46-1.44-3.79-.35-1.47-1.22-2.8-1.21-4.51Z"/>
      <path class="cls-6" d="M9.84,254.99c.34,.13,.38,.41,.41,.8-.35-.06-.74-.22-.41-.8Z"/>
      <path class="cls-6" d="M9.33,253.96c.07,0,.15,.08,.26,.25-.06,0-.16-.08-.26-.25Z"/>
      <path class="cls-2" d="M183.34,67.74s0-.21,.05-.01c-.05,.02-.05,.02-.05,.01Z"/>
      <path class="cls-9" d="M303.45,299.78c-.09,.12-.19,.11-.25-.09,.11-.08,.18-.04,.25,.09Z"/>
      <path class="cls-19" d="M176.7,85.93c-.32-.17-.35-.37-.21-.56,.45-.62,1.03-1.08,1.79-1.27,.5-.12,1.16-.04,1.1-.83-.06-.84-.83-1.73-1.47-1.76-.52-.02-1.04,0-1.74,0,.45-.44,.82-.28,1.14-.32,1.24-.14,2.16-.03,2.54,1.55,.35,1.45,.79,1.44,2.28,1.17,1.15-.21,2.03-.86,2.98-1.43,1.03-.62,2.01-1.43,3.72-1.21-2.21,1.08-3.81,2.59-5.96,3.09-.48,.11-.63,.22-.72,.77-.14,.8-.6,1.55-.99,2.46-.78-.98-.18-1.78,.03-2.58-1.51-.87-2.11-.83-3.36,.24-.32,.27-.56,.66-1.14,.69Z"/>
      <path class="cls-5" d="M45.64,239.07c-.33-1.91-1.08-3.6-1.26-5.41-.27-2.64-.9-5.24-.86-7.9,.05-3.47-.35-6.91-.34-10.38,.01-4.16,.32-8.27,.88-12.39,.37-2.73,.51-5.49,.99-8.22,.78-4.44,1.4-8.91,2.5-13.3,.24-.97,.35-1.98,.58-2.97,1.08-4.57,2.95-8.88,4.43-13.32,1.09-3.29,2.78-6.32,4.2-9.48,.92-2.04,1.92-4.03,3.02-5.99,3.05-5.44,6.5-10.62,10.35-15.52,2.16-2.76,4.81-5.1,7.59-7.26,1.34-1.04,2.66-2.09,4.25-2.78,.38,.48-.05,.69-.31,.88-4.19,3.17-7.73,6.97-11.07,11-1.7,2.04-3.5,4-5.1,6.13-2.92,3.89-5.42,8.04-7.46,12.44-1.63,3.52-2.99,7.16-4.15,10.88-.82,2.63-2.2,5.07-3.01,7.73-1.42,4.63-2.63,9.3-3.24,14.11-.16,1.25-.67,2.46-1,3.69-.94,3.44-1.32,6.98-1.86,10.5-.67,4.44-.66,8.9-.62,13.37,.01,1.6,.4,3.16,.29,4.77-.24,3.26,.22,6.45,1.03,9.61,.33,1.29,.45,2.62,.58,3.93,.89,8.98,2.5,17.8,6.39,26.03,1.57,3.32,3.6,6.41,6.2,9.06,1.96,2.01,3.44,4.3,4.49,6.91,1.39,3.47,3.36,6.64,5.34,9.79,.63,1,1.5,1.82,2.39,2.57,2.53,2.12,4.99,4.32,7.31,6.67,.82,.83,1.89,1.36,2.7,2.3-.32,.46-.73,.38-1.11,.18-1.27-.67-2.58-1.28-3.63-2.3-2.05-2.02-4.37-3.72-6.54-5.6-1.99-1.73-3.62-3.74-4.72-6.16-.35-.77-.79-1.51-1.27-2.21-1.43-2.08-1.98-4.57-3.19-6.76-.98-1.77-2.16-3.4-3.53-4.92-1.47-1.62-2.57-3.51-3.47-5.5-.88-1.94-1.76-3.88-2.59-5.83-1.5-3.53-2.44-7.25-3.43-10.94-.65-2.41-1.25-4.83-1.75-7.42Z"/>
      <path class="cls-22" d="M238.64,236.63c.14-1.7,.7-3.14,1.39-4.53,.18-.36,.33-.86,.89-.75,.48,.09,.9,.32,1.02,.88,.19,.94,.44,1.86,.57,2.81,.09,.64,.24,1.25,.45,1.82,.51,.18,.74-.16,.98-.43,.98-1.07,1.77-2.25,2.15-3.67,.81-2.97,1.46-5.98,1.9-9.03,.05-.37,.17-.72,.24-1.09,.13-.66,.49-1.03,1.21-1.01,.77,.02,1.27,.25,1.52,1.09,.47,1.62,.21,3.19-.19,4.73-.82,3.21-.53,6.43-.33,9.66,.27,4.24,.56,8.48-.22,12.71-.12,.66-.54,1.14-.76,1.74-1.33,3.76-2.81,7.46-4.44,11.11-.17,.38-.26,.89-.82,.83-.61-.07-.64-.59-.72-1.08-.3-1.83-.62-3.66-.96-5.49-.11-.61-.05-1.41-.76-1.63-.79-.25-1.27,.47-1.68,.99-1,1.26-1.49,2.82-2.32,4.18-.69,1.13-1.2,2.39-1.99,3.45-1.87,2.52-4.29,4.07-7.59,3.87-1.35-.08-1.3-.12-1.73-1.36-.85-2.42,.18-4.44,1.4-6.3,.96-1.47,1.74-3.04,2.79-4.46,.59-.81,1.22-1.6,1.81-2.42,1.48-2.07,2.28-4.43,3.24-6.73,.86-2.06,1.76-4.11,2.23-6.31,.24-1.14,.46-2.29,.72-3.57Z"/>
      <path class="cls-22" d="M86.62,136.11c.5-.53,.95-.83,1.61-.8,1.5,.07,1.91,.73,1.11,2-1.29,2.07-2.62,4.1-3.98,6.13-1.74,2.61-3.29,5.34-4.69,8.15-2.56,5.11-4.23,10.55-5.54,16.09-.76,3.25-1.38,6.53-1.62,9.88-.19,2.65-.58,5.28-.6,7.94,0,.37,.03,.8-.45,.9-.52,.11-1.01-.08-1.2-.56-.25-.64-.47-1.32-.5-2-.08-1.53-.25-3.04-.16-4.59,.17-2.91-.02-5.84,.08-8.76,.11-2.86,.18-5.74,1.2-8.47,.07-.2,.09-.41-.09-.66-1.25,.78-2,2.02-2.88,3.12-.43,.54-.79,1.13-1.22,1.67-.26,.33-.56,.64-.89,.91-.41,.34-.91,.31-1.35,.08-.52-.28-.51-.76-.38-1.26,.77-2.93,1.47-5.87,2.67-8.66,1.19-2.78,2.39-5.57,3.55-8.37,.74-1.79,1.99-3.27,2.92-4.94,.9-1.61,2.19-2.87,3.32-4.27,.44-.56,1.28-.57,1.84-.12,.35,.28,.14,.58,0,.85-1.09,2.03-1.53,4.31-2.5,6.38-.06,.12,0,.3,0,.62,.96-.85,1.46-1.89,2.14-2.78,1.82-2.36,3.78-4.6,5.72-6.85,.53-.62,1.2-1.05,1.91-1.62Z"/>
      <path class="cls-23" d="M140.32,163.94c-1.71,6.22-3.07,12.39-4.06,18.64-.31,1.94-.69,3.87-.98,5.81-.44,2.88-.87,5.77-1.24,8.66-.43,3.31-.8,6.64-1.19,9.96-.04,.37-.05,.74-.07,1.12-.08,2.02,0,4.04-.25,6.06-.15,1.19,.01,2.43,.12,3.65,.25,2.81,.21,5.64,.07,8.46-.04,.72-.2,1.47-.36,2.19-.53,2.41-.05,4.77,.23,7.13,.06,.53,.18,1.05,.15,1.58-.09,2.35,.2,4.66,.57,6.98,.09,.56,.46,1.48-.43,1.6-.71,.1-.68-.8-.79-1.34-.74-3.5-.94-7.05-.92-10.62,.02-3.36,.1-6.72-.08-10.07-.12-2.23-.18-4.46-.19-6.7-.01-2.55,.23-5.09,.53-7.62,.09-.74,.09-1.49,.09-2.24,0-3.41,.62-6.77,1.07-10.13,.36-2.73,.62-5.48,1.14-8.2,.45-2.34,.74-4.72,1.03-7.09,.42-3.48,1.1-6.93,1.88-10.33,.86-3.72,1.51-7.49,2.33-11.22,.61-2.75,1.45-5.43,2.04-8.18,.13-.59,.04-1.06-.49-1.38-.96-.58-.94-1.37-.66-2.35,.49-1.69,1.33-3.24,1.86-4.92,.12-.39,.19-1.11,.86-.91,.64,.19,.32,.74,.27,1.21-.18,1.61-.95,3.04-1.38,4.57-.32,1.14-.31,2.04,.79,2.75,.61,.4,.84,1.04,.7,1.82-.65,3.72-1.52,7.38-2.64,11.11Z"/>
      <path class="cls-22" d="M24.95,249.48c-2.8-4.42-5.04-8.99-6.5-13.91-.36-1.22-.51-2.49-.49-3.77,0-.51,.09-.98,.68-1.11,.53-.11,1.07-.11,1.45,.38,.31,.4,.55,.78,0,1.22-.39,.32-.22,.77-.12,1.19,.41,1.87,.93,3.7,1.73,5.45,.99,2.17,1.88,4.39,2.84,6.58,.95,2.15,2.12,4.16,3.73,5.9,.2,.22,.55,.5,.29,.8-.27,.32-.74,.26-1.01-.01-.88-.85-1.7-1.75-2.61-2.73Z"/>
      <path class="cls-22" d="M152.97,239.8c-.48-3.17-.95-6.21-1.36-9.27-.41-3.14-.23-6.27-.3-9.41-.04-1.83,.2-1.96,2.15-1.45-.7,1.06-.61,2.25-.44,3.37,.19,1.28,.2,2.55,.2,3.82,0,3.52,.47,6.99,.89,10.47,.11,.9,.07,1.81,.1,2.71,0,.26,.03,.55-.27,.68-.37,.16-.6-.05-.77-.36-.07-.14-.13-.29-.21-.57Z"/>
      <path class="cls-22" d="M144.3,228.38c-.01-2.45-.02-4.73-.03-7.02,0-.48,0-.96,.04-1.43,.16-1.49,.73-1.82,2.4-1.28-.83,.37-.86,1.04-.85,1.72,.03,3.67-.11,7.35,.14,11.01,.15,2.15-.14,4.34,.69,6.58-1.22-.2-1.56-.85-1.75-1.65-.43-1.87-.61-3.77-.61-5.68,0-.69-.02-1.38-.03-2.23Z"/>
      <path class="cls-5" d="M15.3,247.29c-2.4-3.39-3.39-7.15-3.79-11.1-.09-.84-.2-1.68-.28-2.53-.19-2.2,.24-4.32,.78-6.43,.02-.07,.16-.1,.47-.29-.31,7.59,.04,14.95,4.7,21.46-.9,0-1.21-.78-1.88-1.11Z"/>
      <path class="cls-5" d="M209.92,101.56c.66,.36,1.26,.63,1.12,1.57-2.88-1.53-5.92-.68-8.87-.78-1.73-.05-3.43,.58-5.11,1.06-.3,.09-.66,.3-.78-.15-.1-.39,.27-.51,.57-.63,1.93-.76,3.88-1.38,6.01-1.32,1.64,.04,3.29,.14,4.93-.19,.68-.14,1.34,.27,2.13,.44Z"/>
      <path class="cls-5" d="M90.9,99.41c-.96,.2-1.79,.41-2.62,.58-.3,.06-.64,.06-.94,0-.25-.04-.5-.2-.51-.52-.01-.26,.21-.35,.39-.44,1.06-.55,2.24-.74,3.38-.83,3.38-.27,6.68,.06,9.75,1.68,.23,.12,.47,.24,.69,.38,.08,.05,.11,.17,.37,.58-1.85-.76-3.44-1.5-5.15-1.65-1.74-.15-3.5-.21-5.37,.22Z"/>
      <path class="cls-11" d="M223.38,132.35c-1.19-.78-2.33-1.63-3.57-2.55,1.07,0,2.17,.63,3.81,2.16-.03,.17-.11,.24-.24,.38Z"/>
      <path class="cls-11" d="M216.35,127.36c.48-.09,.98-.04,1.17,.71-.58,.1-.8-.36-1.17-.71Z"/>
      <path class="cls-11" d="M215.35,126.09c.46-.08,.63,.21,.64,.74-.37-.02-.53-.31-.64-.74Z"/>
      <path class="cls-11" d="M218.59,128.95c.12-.09,.28-.1,.43-.07,.21,.04,.43,.18,.33,.4-.12,.28-.34,.09-.5-.01-.09-.05-.15-.14-.26-.31Z"/>
      <path class="cls-11" d="M218.54,128.87c-.25-.03-.5-.07-.52-.39,0-.03,.06-.09,.1-.1,.23-.05,.34,.1,.43,.38,0,.09,0,.1-.01,.11Z"/>
      <path class="cls-3" d="M106.24,110.05s.11-.02,.21,.06c.04,.04-.08,.07-.08,.07,0,0-.1-.08-.13-.13Z"/>
      <path class="cls-23" d="M223.42,132.4c-.03-.08,.03-.17,.17-.3,.02,.07-.03,.18-.17,.3Z"/>
      <path class="cls-11" d="M215.35,125.98s-.08-.09-.12-.14c.03,.02,.06,.03,.1,.1,.01,.05,.02,.04,.02,.04Z"/>
      <path class="cls-11" d="M215.98,126.94c.09,.05,.19,.11,.3,.24,.02,.08,.02,.08,.02,.08-.09-.06-.18-.11-.29-.24-.03-.07-.03-.08-.02-.08Z"/>
      <path class="cls-19" d="M296.87,322.48c-.49-.14-.58-.43-.53-.77,.05-.34,.28-.49,.53-.23,.87,.88,1.96,1.14,3.13,1.35,.94,.17,1.84,.55,2.64,1.09,.28,.19,.47,.51,.27,.82-.24,.38-.55,.06-.83-.03-.51-.17-.72-.8-1.31-.84-.42,.22-.27,.54-.15,.82,.21,.52,.2,1.05,.11,1.57-.05,.26-.21,.52-.52,.51-.37,0-.34-.33-.38-.58-.03-.21,0-.45-.09-.63-.23-.46-.12-1.23-.72-1.34-.69-.13-.61,.74-.98,1.07-.11,.1-.25,.17-.52,.35,.03-.67-.13-1.35,.13-1.74,.66-.99-.05-1.13-.78-1.44Z"/>
      <path class="cls-9" d="M278.68,332.61c-.99-.01-1.96-.26-2.53-1.4,.91,.19,1.71,.71,2.53,1.4Z"/>
      <path class="cls-9" d="M276.1,331.01c-.85,.21-1.29-.43-1.83-1.09,.84-.21,1.29,.42,1.83,1.09Z"/>
      <path class="cls-9" d="M299.82,300.06c.63,.14,1.29,.25,1.55,1.18-.78-.07-1.17-.49-1.54-1.07-.01-.11-.01-.11-.01-.11Z"/>
      <path class="cls-17" d="M246.97,235c1.01-1.84,1.1-3.85,1.83-5.9,.31,1.25-.24,2.18-.21,3.19,.09,2.98-.06,5.97,.07,8.95,.16,3.84-.33,7.57-1.16,11.31-.54,2.44-1.56,4.71-2.11,7.13-.05,.2-.13,.41-.45,.47-.73-1.09-.45-2.42-.77-3.62-.4-1.48-1.11-2.13-2.61-2.25-1.67-.13-2.89,.44-3.69,1.93-1.18,2.2-2.34,4.4-3.58,6.57-1.21,2.1-2.92,3.6-5.38,4.13-.46,.1-.66,.04-.83-.41-.32-.88-.49-1.82-.17-2.66,.57-1.48,1.07-2.99,2.11-4.27,.76-.93,1.11-2.14,1.88-3.11,.85-1.08,1.58-2.25,2.42-3.34,.33-.43,.62-.87,.84-1.35,1.81-4.01,3.68-8,4.59-12.34,.23-1.09,.36-2.19,.56-3.28,.08-.46,.24-.91,.42-1.6,.21,.67,.47,1.1,.44,1.52-.06,1.19,.72,1.59,1.61,1.85,1,.29,1.93,.06,2.61-.75,.55-.64,1-1.37,1.57-2.16Z"/>
      <path class="cls-17" d="M76.89,143.41c-.87,2.43-1.54,4.79-1.64,7.64,3.65-4.98,7.35-9.45,11.56-13.48,.08-.08,.31,.02,.44,.25-.47,.75-.9,1.6-1.46,2.35-2.01,2.63-3.55,5.55-5.18,8.4-2.97,5.21-4.66,10.92-6.07,16.72-.8,3.3-1.48,6.62-2.15,9.95-.1,.51-.09,1.04-.13,1.6-.46-.32-.24-.73-.25-1.08-.17-3.19,.08-6.38,.36-9.56,.13-1.52,.65-3,1-4.5,.06-.26,.17-.51,.21-.77,.1-.71-.16-1.28-.84-1.55-.65-.26-1.14,.08-1.51,.59-1.25,1.71-2.95,3.03-4.08,5.05-.5-.96,.01-1.64,.11-2.31,.77-5.06,2.86-9.62,5.47-13.98,1.34-2.24,2.59-4.52,4.05-6.69,.12-.17,.19-.38,.54-.46,.25,.65-.32,1.15-.4,1.84Z"/>
    </g>
  </g>
</svg>