<?xml version="1.0" encoding="UTF-8"?>
<svg id="Layer_2" data-name="Layer 2" xmlns="http://www.w3.org/2000/svg" viewBox="0 0 300.67 302.58">
  <defs>
    <style>
      .cls-1 {
        fill: #3e0916;
      }

      .cls-2 {
        fill: #70373f;
      }

      .cls-3 {
        fill: #5e0710;
      }

      .cls-4 {
        fill: #6d0c0f;
      }

      .cls-5 {
        fill: #3c2824;
      }

      .cls-6 {
        fill: #46272d;
      }

      .cls-7 {
        fill: #7a4b51;
      }

      .cls-8 {
        fill: #2f0b03;
      }

      .cls-9 {
        fill: #45262c;
      }

      .cls-10 {
        fill: #7f1e11;
      }

      .cls-11 {
        fill: #45272d;
      }

      .cls-12 {
        fill: #650810;
      }

      .cls-13 {
        fill: #8c381b;
      }

      .cls-14 {
        fill: #44252b;
      }

      .cls-15 {
        fill: #b65712;
      }

      .cls-16 {
        fill: #670c13;
      }

      .cls-17 {
        fill: #68141a;
      }

      .cls-18 {
        fill: #341f1b;
      }

      .cls-19 {
        fill: #13270f;
      }

      .cls-20 {
        fill: #301714;
      }

      .cls-21 {
        fill: #733237;
      }

      .cls-22 {
        fill: #690a0f;
      }
    </style>
  </defs>
  <g id="Layer_10" data-name="Layer 10">
    <g>
      <path class="cls-7" d="M76.28,282.27c.12,.15,.15,.23,.15,.38"/>
      <path class="cls-17" d="M204.97,93.31c-1.46,.32-2.99,.16-4.65,.18"/>
      <path class="cls-21" d="M238.47,95.82c.04,.43-.24,.61-.66,.6-1.52-.05-2.98,.28-4.45,.6"/>
      <path class="cls-7" d="M271.49,107.68c-3.45-3.73-7.62-6.34-12.34-8.33-.88,.38-1.5-.13-2.27-.37-.99-.53-1.92-.84-3.03-.98-.4-.11-.69-.21-1.09-.33-.68-.22-1.26-.35-1.96-.49-.34-.04-.57-.08-.92-.15-.43-.11-.74-.18-1.19-.17-1.45,.06-2.72-.31-4.16-.42-.82-.27-1.54-.23-2.38-.22-1.15,.05-2.16,0-3.31,.01-2.04-.18-3.9,.13-5.87,.58-.3,0-.47-.02-.76-.08-.87-.33-1.3-1.03-2.03-1.53-.15-.11-.21-.16-.34-.29-.44-.59-.8-1.1-1.51-1.4-.61-.4-.99-.92-1.62-1.3-.36-.29-.63-.51-1.06-.71-1.49-.84-2.97-1.39-4.52-2.07-.11-.32-.15-.56-.16-.9,.87,.24,1.7,.6,2.53,.96,2.97,1.27,5.58,3.06,7.77,5.45,.58,.63,1.11,1.17,2.18,.91,3.77-.9,7.6-.73,11.42-.42,4.69,.37,9.24,1.41,13.65,3.09,5.67,2.15,10.6,5.36,14.53,10.04"/>
      <path class="cls-7" d="M295.75,156.18c-1.17-2.95-2.51-5.83-3.43-8.88-.6-2.01-1.29-3.98-2.09-6.03-.4-.29-.51-.63-.67-1.06-.1-.3-.16-.49-.28-.78-.15-.36-.24-.62-.17-1-.29-2.2-1.26-4.09-1.99-6.07-.84-2.29-2.12-4.37-3.07-6.73"/>
      <path class="cls-21" d="M295.22,232.48c.34,.16,.39,.45,.12,.86"/>
      <path class="cls-7" d="M284.46,257.36c-.86,1.68-2.33,2.92-3.72,4.23-2.37,2.23-5.07,4.06-7.69,5.99-.79,.58-1.72,.86-2.66,1.05-.9,.18-1.38,.68-1.6,1.55-.32,1.3-.76,2.55-1.42,3.72-1.62,2.83-4.02,4.67-7.16,5.46-2.22,.55-4.47,1.06-6.77,1.15-.75,.03-1.06,.42-1.25,1-.66,2.01-2.18,3.21-3.87,4.29-.65,.42-1.38,.54-2.07,.83-2.36,.97-4.68,2.09-7.12,2.82-3.72,1.11-7.42,2.32-11.23,3.13-4.27,.91-8.52,1.92-12.86,2.44-5.02,.61-10.03,1.32-15.09,1.54-3.77,.17-7.53,.71-11.3,1.04-2.07,.18-4.15,.38-6.22,.37-2.08-.01-4.15,.25-6.31-.05,1.12-1.07,2.64-.98,4-.94,5.43,.14,10.77-.83,16.17-1.02,1.05-.04,2.09-.31,3.29-.41,.7-.18,1.27-.2,1.99-.19,3.61-.02,7.02-.69,10.46-1.05,6.63-.69,13.13-2.12,19.6-3.69,3.47-.84,6.87-1.92,10.31-3.27,.82-.28,1.39-.85,2.3-.78,1.87-.46,3.5-1.09,4.92-2.34,1.11-.97,2.09-1.9,2.53-3.35,.27-.89,1.05-1.04,1.94-1.06,2.73-.04,5.43-.37,7.92-1.55,2.59-1.22,4.5-3.15,5.58-5.85,.24-.59,.48-1.18,.7-1.78,.57-1.51,1.52-2.5,3.22-2.71"/>
      <path class="cls-1" d="M162.22,21.18c.2,.23,.33,.37,.5,.59,.53,.71,.89,1.4,1.07,2.29,.19,.33,.35,.56,.54,.89,.16,.26,.28,.42,.34,.72,.09,.23,.16,.36,.27,.6,.52,.6,.76,1.23,1.05,1.96,.08,.15,.13,.19,.22,.32,.15,.16,.22,.26,.27,.48,0,.35,.09,.58,.36,.82,.46,.68,.71,1.35,1,2.12,0,.56,.04,1,.48,1.41,.83,2.01,1.15,4.12,2.61,5.86,.79,1.43,.84,2.94,1.12,4.39,.21,1.07,.54,2.03,1.8,2.48,.09,.08,.1,.08,.1,.09,.54,.81,.35,1.79,.64,2.77,.03,.16,.05,.22,.06,.37-.13,.15-.2,.24-.22,.47,.05,.22,.12,.32,.3,.45,.3,.18,.53,.28,.89,.32,.63,.04,1.03-.17,1.41-.67,.91-.56,1.53-1.2,1.79-2.18,.13-.49,.35-.98,.91-1.35,.71-.34,1.25-.13,1.9,.18,3.27,2.11,2.97,5.12,2.3,8.19-.43,1.94-.76,3.78-.46,5.87,.46,3.16-.08,6.39-1.18,9.43-.82,2.26-1.72,4.48-2.32,6.81-.39,1.5-1.36,2.6-2.65,3.26-4.14,2.09-7.94,4.76-12.08,6.87-4.08,2.08-8.47,3.18-12.68,4.81-4.53,1.76-8.87,3.92-12.82,6.81-.3,.22-.61,.43-.86,.71-.5,.55-1.34,1.14-1.12,1.82,.24,.71,1.28,.05,1.86,.32,2.06,.99,3.61-.25,5.43-.88,4.63-1.6,9.43-2.75,14.02,.14,2.25,1.42,4.38,3.04,6.29,4.91,.64,.62,1.22,1.32,2.11,1.98,1.68-5.64,6.39-6.23,11.27-6.81-.56-.93-1.38-1.22-2.02-1.7-.94-.71-1.7-1.55-1.46-2.81,.23-1.26,1.35-1.59,2.39-1.82,3.39-.75,6.84-1.04,10.32-1.03,3.38,.01,6.62-.78,10.02-1.75-1.24-1.18-2.69-1.76-3.88-2.71-.96-.76-1.63-1.61-1.98-2.81-1.28-4.41-3.38-8.53-4.55-12.97-1.14-4.33-2.31-8.66-1.9-13.22,.06-.63-.04-1.28,.33-1.98,.39-.3,.73-.32,1.2-.19,.42,.27,.47,.59,.47,1.05-.05,.39-.24,.63-.14,1.03,.03,.16,.04,.23,0,.39-.04,.48-.04,.88-.05,1.38,.4,.9,.24,1.76,.21,2.57-.04,1.01,.18,1.96,.46,3.02,.17,.45,.09,.84,.35,1.26,.21,.41,.31,.75,.45,1.19,.1,.38,.15,.66,.3,1.03,.53,1.02,.75,2.07,1.51,2.97,.59,4.6,2.83,8.55,4.18,12.79,.14,.45,.39,.88,1,1.11,1.64,.1,2.1,1.66,3.34,2.31,1.43,.61,2.65,1.43,4.2,1.74,.51,.29,.9,.6,1.53,.39,.25-.02,.4,0,.65,.07,.49,.39,1.11,.56,1.04,1.34-.54,.39-1.08,.21-1.72,.23-1.53-.59-2.97-.45-4.51-.1-.3,.16-.52,.22-.85,.23-.38-.02-.65-.02-.99,.18-.29,.12-.49,.14-.8,.13-.66-.13-1.15,.03-1.67,.44-.21,.11-.34,.14-.58,.15-.43-.07-.75-.05-1.1,.24-.46,.24-.86,.36-1.37,.4-.42-.03-.74-.12-1.1,.17-.21,.1-.33,.14-.56,.16-.38,0-.62,.11-.96,.28-.33,.1-.55,.1-.9,.06-1.25-.23-2.38-.22-3.63,0-.52,.12-.92,.14-1.44,.17-1.12,0-2.02,.33-2.96,.89-.22,.13-.36,.17-.61,.2-.5-.02-.88-.03-1.2,.42-.13,.18-.2,.27-.34,.44-.09,.19-.07,.3,.09,.47,2.07,1.57,4.2,2.63,6.79,2.72,1.37,.05,2.72,.52,4.04,.93,.65,.2,1.53,.41,1.3,1.3-.2,.78-1.04,.56-1.66,.47-2.74-.42-5.46-.92-8.25-.8-2.97,.12-5.8,.77-8.45,2.15-.77,.4-1.43,.91-2.02,1.54-1.4,1.5-1.45,2.16-.39,3.95,.33,.56,1.11,1.19,.48,1.81-.61,.6-1.27-.15-1.84-.47-1.27-.72-2.17-1.88-3.2-2.88-1.22-1.19-2.46-2.37-3.61-3.62-2.67-2.89-6.21-3.92-9.87-4.34-3.8-.43-7.04,1.27-9.86,3.75-.32,.28-.58,.62-.89,.92-.27,.26-.57,.52-.99,.36-.47-.18-.66-.56-.58-1.02,.24-1.32-.59-1.28-1.43-1.13-1.74,.32-3.42,.8-4.96,1.72-.68,.41-1.41,.93-2.15,.14-.72-.76-.49-1.57,.05-2.33,1.02-1.43,1.82-3.01,2.86-4.43,.22-.3,.35-.76,.68-.87,1.73-.58,1.01-1.56,.65-2.71-.87-2.82-2.82-3.91-5.6-4.1-4.66-.32-9.18,.08-13.73,1.3-2.97,.8-5.71,1.98-8.47,3.24-.75,.34-1.79,1.02-2.25,.05-.44-.94,.82-1.18,1.47-1.5,4.88-2.4,9.69-4.9,14.07-8.16,1-.75,1.47-1.79,2.23-2.82,.17-.3,.28-.5,.33-.84,.04-.49,.06-.88,.15-1.37,.11-.41,.22-.7,.41-1.08,1.62-.94,2.35-2.58,3.64-3.84,.07-.08,.12-.23,.17-.29,.15-.25,.27-.44,.45-.71,.17-.33,.29-.56,.48-.87,.94-1.44,1.16-3.1,2.07-4.58,.09-.22,.14-.34,.25-.53,.4-.88,.53-1.76,1.07-2.6,.24-.53,.4-.98,.63-1.53,.08-.31,.14-.5,.32-.75,.42-1.48,1.12-2.74,1.79-4.12,.17-.26,.26-.44,.46-.68,.1-.22,.13-.37,.24-.59,.28-.59-.16-1.07,.02-1.68,.63-.82,1.11-1.6,1.5-2.56,.36-.61,.48-1.2,.67-1.88,.14-.25,.25-.36,.5-.5,.29-.07,.45-.06,.71,.1,.92,2.43-.15,4.39-1.2,6.48-.17,.32-.29,.52-.45,.84-.27,.49-.47,.89-.74,1.39-.78,.87-1.19,1.79-1.48,2.91-.41,1.44-1.04,2.67-1.62,4.04-.81,1.59-1.5,3.11-2.15,4.77-.06,.18-.09,.25-.17,.42-1.01,1.87-1.7,3.77-2.79,5.6-.13,.22-.22,.34-.38,.53-.45,.47-.85,.85-.88,1.55-.04,.24-.08,.37-.19,.59-.27,.34-.62,.45-.79,.88-.23,.63-.26,1.18-.26,1.85,0,.61-.2,1.07-.41,1.6,.61-.36,1.17-.61,1.8-.96,.37-.19,.65-.31,1.05-.47,2.88-1.14,5.78-1.78,8.72-2.72,.47-.19,.83-.32,1.32-.46,2.39-.51,4.22-1.86,6.21-3.15,.15-.11,.21-.15,.36-.25,.66-.38,1.2-.73,1.81-1.17,.27-.18,.47-.28,.76-.43,1.26-.67,2.4-1.35,3.62-2.08,.38-.24,.68-.41,1.04-.67,.3-.2,.53-.33,.83-.55,.13-.1,.19-.13,.32-.23,.42-.25,.73-.47,1.07-.83,.17-.16,.27-.25,.46-.39,.42-.27,.75-.49,1.09-.86,.16-.17,.26-.27,.43-.43,.45-.46,.88-.8,1.12-1.43,.14-.36,.26-.62,.41-.99,.13-.31,.23-.52,.35-.84,1.84-3.54,2.73-7.2,2.65-11.07-.03-1.48-.21-2.97-1.39-4.22-.38-.51-.61-.99-1.06-1.43-.18-.18-.28-.28-.45-.46-.46-.48-.84-.88-1.42-1.23-.21-.14-.32-.23-.52-.41-.33-.38-.6-.66-.39-1.18,.75-.36,1.21,.06,1.67,.41,2.23,1.7,4.14,3.67,5.33,6.27,1.42-3.2,.43-5.68-2.73-7.09-2.73-1.22-5.34-2.64-7.88-4.24-1.71-1.07-2.48-2.52-2.62-4.46-.33-4.51-2.46-8.19-5.36-11.52-2.83-3.26-6-6.18-9.05-9.07,.08,2.69,1.39,6.35,3.46,9.99,1.43,2.52,3.19,4.77,5.01,7.02,1.67,2.07,3.44,4.11,3.58,6.99,.04,.77,.71,1,1.31,1.24,1.58,.65,3.25,1.04,4.74,1.91,.58,.34,1.32,.55,1.28,1.54-.21,.29-.42,.36-.77,.35-.58-.2-.88-.64-1.44-.87-.27-.14-.45-.24-.73-.36-.29-.11-.48-.17-.79-.24-.53-.11-.94-.25-1.45-.44-.74-.44-1.42-.73-2.29-.82-2.04-.81-2.14-.97-2.12-3,.02-1.38-.71-2.49-1.43-3.72-.26-.41-.43-.75-.77-1.1-1.38-1.4-2.38-2.95-3.56-4.51-.52-.71-.87-1.41-1.45-2.08,.05,1.03,.31,1.92,.58,2.92,.06,.18,.09,.25,.15,.43,.1,.34,.18,.56,.32,.89,.93,2.56,1.52,5.07,1.71,7.8,0,.5,0,.86,0,1.37,.15,2.55-.12,4.94-.54,7.44-.57,.51-.91,.44-1.03-.36-.08-.56-.18-.98-.25-1.54-.05-.46-.07-.8-.07-1.26,.52-2.85-.41-5.53-.27-8.37-.07-.27-.1-.4-.12-.65-.86-2.49-1.04-5.03-1.59-7.48-.51-2.28-1.31-4.47-2.01-6.66-.58-1.83-.97-3.65-1.3-5.64-.04-.24-.08-.35-.12-.55-.19-.59-.2-1.12-.23-1.76-.07-.45-.13-.78-.18-1.24,.07-1.21-.96-2.09-.44-3.33,.43-1.02,.91-1.36,1.91-.9,.58,.27,1.13,.58,1.64,.96,.8,.6,1.55,1.05,2.53,.22,.6-.5,1.19,0,1.7,.4,.78,.61,1.3,.4,1.74-.47,.69-1.37,1.26-2.8,2.28-4.11,1.17-.07,1.04,.66,.8,1.25-.7,1.74-1.16,3.54-1.62,5.35-.23,.91-.73,1.26-1.84,1.25-2.13-.02-3.98-.56-5.64-1.85-.17-.13-.37-.22-.58-.27-.11-.03-.21,0-.33,.08-.22,.65,.29,1.04,.61,1.5,1.7,2.41,3.9,4.34,6.05,6.34,3.7,3.45,7.24,7.08,9.34,11.83,.79,1.79,1.23,3.64,1.31,5.57,.05,1.33,.61,2.12,1.71,2.82,2.08,1.33,4.24,2.46,6.49,3.43,.78,.34,1.56,.7,2.29,1.13,1.67,.97,2.82,2.27,2.67,4.37-.02,.35-.14,.84,.24,1.03,.47,.24,.79-.22,1.06-.51,1.93-2.03,2.51-4.48,2.3-7.22-.17-2.17-1.19-4.07-1.68-6.13-1.17-4.95-3.99-9.16-6.05-13.71-.39-.87-.84-1.73-.95-2.81,.1-.27,.21-.37,.48-.44,.35,.06,.55,.16,.78,.45Z"/>
      <path class="cls-6" d="M161.14,20.77c.59,1.89,1.37,3.56,2.2,5.22,1.38,2.76,2.97,5.42,4.02,8.34,.57,1.59,.99,3.23,1.48,4.85,.08,.25,.14,.51,.24,.75,1.2,2.94,1.5,5.89,.2,8.9-.83,1.93-1.41,2.6-3.4,3.64-.41-.5-.3-1.12-.23-1.65,.3-2.22-.9-3.54-2.66-4.46-1.5-.79-3.07-1.43-4.62-2.11-1.86-.81-3.46-2.07-5.19-3.1-.55-.33-.68-1.04-.67-1.72,.02-3.35-1.23-6.28-2.94-9.09-1.31-2.15-2.96-4-4.72-5.78-1.75-1.77-3.46-3.55-5.42-5.12-1.66-1.33-2.74-3.23-4.12-4.84-.2-.23-.29-.57-.36-.88-.07-.3-.13-.67,.11-.91,.3-.3,.61-.02,.86,.12,.69,.39,1.35,.85,2.04,1.25,1.06,.61,2.13,1.31,3.43,.74,.68-.3,1.04,.47,1.61,.4,.54-.46,.69-1.14,.77-1.73,.22-1.66,.81-3.18,1.45-4.69,.16-.38,.46-.78-.24-1.09-.17-.07-.22-.13-.24-.31,.11-.28,.17-.44,.32-.65,.74-.3,1.01-.8,.96-1.59,.08-.77,.53-1.28,.9-1.93,1.92-1.74,4.3-1.59,6.53-1.93,1.15-.18,1.57,.62,1.83,1.58,.78,2.92,1.49,5.86,2.43,8.75,.99,3.04,2.24,5.95,3.44,9.02Z"/>
      <path class="cls-19" d="M190.75,73.77c-.7-.06-.89-.5-1.07-.95-.23-.58-.44-1.18-.67-1.88,3.1-3.02,6.59-4.8,11.04-4.13,1.77,.27,3.59,.07,5.38,.41,3.53,.66,6.63,2.16,9.53,4.43,.26,.13,.41,.21,.63,.4,.44,.55,.8,.99,1.2,1.54,.2,.29,.35,.5,.49,.85,.92,1.43,1.3,2.94,1.63,4.44,.65,2.94,1.41,5.85,1.74,8.98-.81,4.13-2.15,7.93-4.49,11.32-1.09,1.57-2.61,2.63-4.18,3.67-4.01,2.65-8.51,4.14-13.01,5.67-2.29,.78-4.4,1.86-6.29,3.4-2.03,1.65-2.71,3.43-1.62,4.69,1.4,1.62,4.82,1.78,6.41,.3,.64-.59,1.04-1.36,1.5-2.07,1.14-1.77,2.82-2.72,4.79-3.22,1.62-.41,2.47,.43,2.16,2.08-.15,.8-.53,1.52-.95,2.19-2.82,4.63-9.31,7.68-14.84,5.61-3.32-1.24-4.43-3.86-2.82-7.03,1.03-2.03,2.44-3.72,4.23-5.29,3.65-3.22,8.01-4.84,12.41-6.4,6.48-2.3,9.47-7.13,10.16-13.63,.24-2.26,.24-4.58-.13-6.86-1.04-6.37-5-10-10.97-11.77-.26-.08-.51-.16-.89-.22-3.84-.84-7.21-.32-9.95,2.57-.36,.38-.74,.77-1.41,.9Z"/>
      <path class="cls-19" d="M98.81,42.5c-.47,.71-1.09,1.12-1.68,1.71-.3,.35-.54,.61-.87,.94-.16,.44-.46,.66-.78,.98-2.62,4.46-4.19,9.07-2.98,14.22,.34,1.44,.63,2.97,2.11,3.78,.89,.49,1.71,.8,2.35-.5,.5-1.02,1.46-1.02,2.4-.23,1.04,.87,1.16,1.76,.36,2.58-2.43,2.51-6.41,2.09-8.21-.86-1.78-2.91-1.96-6.12-1.79-9.4,.24-4.43,1.82-8.38,4.18-12.08,.93-1.46,2.1-2.71,3.42-3.77,3.13-2.49,6.48-4.65,10.31-5.96,1.8-.61,3.65-.7,5.52-.6,.83,.05,1.54,.38,2.13,.96,.87,.86,1.79,1.68,2.56,2.8,.51,1.81,.85,3.55,2.01,4.97,.24,.29,.37,.67,.37,1.04-.04,4.94,.26,9.92-1.6,14.65-.81,2.07-2.36,3.68-3.94,5.17-1.36,1.27-3.05,.74-3.95-.91-1.53-2.81-1.66-5.81-1.14-8.84,.38-2.22,1.92-3.77,3.63-5.09,.58-.45,1.25-.8,1.86-1.23,.41-.29,.9-.39,1.36-.14,.54,.28,.43,.78,.37,1.27-.14,1.16-.65,2.09-1.48,2.92-1.5,1.51-2.2,3.36-2.06,5.51,.04,.66,.13,1.42,.93,1.45,.88,.03,1.94,0,2.22-1.13,.96-3.85,1.44-7.75,.92-11.71-.18-1.41-.07-2.9-1.01-4.26-.12-.17-.16-.24-.24-.43-.3-1.57-1.25-2.48-2.52-2.99-3.34-1.34-6.41-.65-9.31,1.52-1.8,1.31-3.85,2.05-5.46,3.67Z"/>
      <path class="cls-8" d="M202.03,69.98c1.86,.21,3.63,.79,5.14,1.71,3.7,2.27,6.41,5.37,7.1,9.88,.72,4.76,.6,9.45-1.36,13.92-1.13,2.58-2.98,4.64-5.44,6.09-2.43,1.44-5.15,2.21-7.74,3.25-1.23,.5-2.53,.88-3.66,1.55-1.26,.75-2.39,1.73-3.52,2.68-.49,.41-.99,.79-1.55,1.11-.74,.43-1.38,.97-1.7,1.82-.3,.8-.96,1.38-1.36,2.14-.3,.57-.53,1.14-.68,1.76-.6,2.46,.23,4.23,2.57,5.08,3.79,1.39,7.39,.99,10.75-1.33,.92-.64,1.81-1.28,2.65-2.04,1.11-1.01,1.64-2.34,2.26-3.63,.13-.27,.15-.62,.15-.93,0-1.02-.42-1.38-1.39-1.16-2.39,.56-4.32,1.75-5.45,4.01-.66,1.32-1.7,2.2-3.15,2.47-1.47,.27-4.39-.17-5.36-2-.57-1.08-.07-2.25,.52-3.27,.21-.36,.55-.66,.88-.92,2.11-1.72,4.37-3.15,7.01-3.99,2.63-.84,5.26-1.72,7.77-2.83,2.91-1.29,5.74-2.8,8.12-4.95,1.17-1.06,2.09-2.37,2.72-3.87,.74-1.76,1.64-3.45,2.17-5.29,.28-.96,.28-2,.84-3.02,.16-.21,.29-.26,.52-.16,.11,.12,.14,.17,.17,.3,.16,.26,.25,.47,.25,.83-.06,.41-.15,.7-.2,1.11-.04,.26-.08,.4-.17,.64-.32,.46-.47,.85-.46,1.42-1.09,4.91-3.38,8.97-7.46,11.83-1.57,1.1-3.42,1.78-5.21,2.37-4.11,1.37-8,3.23-11.96,4.92-.89,.38-1.66,.97-2.35,1.65-.89,.88-.96,2.28-.14,3.01,.97,.86,1.82,.28,2.51-.43,1.99-2.05,4.11-3.87,6.86-4.84,1.47-.52,3.13-.94,4.19,.32,1.02,1.21,.49,2.81-.19,4.22-1.07,2.23-2.56,4.04-4.83,5.13-.14,.07-.29,.15-.41,.25-4.57,4.09-9.41,2.32-14.22,.6-1.03-.37-1.63-1.22-1.65-2.35-.1-4.88,1.62-8.7,5.94-11.42,4.03-2.54,8.35-4.46,12.61-6.51,4.44-2.13,6.88-5.71,8.14-10.29,.11-.42,.26-.81,.57-1.26,.29-.41,.37-.74,.21-1.23-.11-.49-.1-.88-.03-1.38,.7-4.49-.93-8.09-3.69-11.31-.24-.28-.5-.55-.82-.91-.44-.82-1.12-1.08-1.94-1.32-.17-.08-.24-.11-.41-.22-.93-1.07-1.86-1.86-3.23-2.04-.54-.07-.99-.39-.89-1.16Z"/>
      <path class="cls-12" d="M14.8,116.59c.09-.22,.13-.34,.24-.51,.2-.49,.4-.88,.77-1.3,.14-.21,.19-.36,.31-.59,1.28-2.61,2.33-5.21,4.29-7.42,.72-.27,1.2-.7,1.61-1.19,1.95-2.29,4.36-4.17,6.01-6.86,1.43-2.04,3.23-3.59,5.09-5.23,.14-.08,.18-.13,.29-.21,.32-.3,.56-.57,.99-.78,.13-.08,.17-.13,.28-.2,1.54-1.49,3.39-2.41,5.16-3.63,.14-.08,.18-.13,.3-.2,1.84-1.44,3.85-2.3,6.15-2.67,.25,.3,.3,.55,.26,.94-1.38,1.57-3.18,2.43-4.72,3.64-3.93,3.09-8.13,5.89-11.61,9.5-5,5.19-9.56,10.79-12.87,17.22-4.72,9.18-8.42,18.79-9.8,29.08-.94,7.01-2.47,13.94-3.02,21-.25,3.18-.68,6.35-.69,9.54,0,2.25-.41,4.47-.75,6.66-.58,3.66-.52,7.33-.55,11,0,.74,.11,1.5-.44,2.25-1.25,0-1.06-.93-1.07-1.59-.03-2.11-.34-4.2-.51-6.43-.11-.28-.17-.45-.21-.74,.48-1.07,.67-2.02,.03-3.11-.12-.36-.11-.61,0-.97,.22-.38,.6-.54,.59-.87-.06-2.72,.36-5.45-.23-8.29-.09-.3-.09-.48,.01-.78,.75-.67,.81-1.49,.97-2.26,1.21-5.68,1.33-11.5,2.14-17.23,.36-2.58,.84-5.12,1.46-7.65,.27-1.08,.46-2.18,.4-3.43-.05-.41-.04-.69,.14-1.07,.06-.12,.06-.24,.1-.28,.08-.1,.13-.15,.25-.29,.74-1.25,1.13-2.5,1.11-3.97,0-.26,.04-.4,.12-.65,.14-.53,.26-.94,.44-1.46,.04-.3,.08-.48,.24-.74,.22-.61,.4-1.14,.65-1.77,.12-1.2,.51-2.22,.85-3.37,1.39-2.39,1.91-5,2.94-7.41,.51-1.2,1.16-2.35,1.48-3.75,.08-.76,.44-1.29,.79-1.94Z"/>
      <path class="cls-20" d="M116.29,40.51c1.01,.43,1.22,1.4,1.31,2.3,.23,2.27,.43,4.54,.38,6.83-.04,1.55-.21,3.05-.59,4.55-.21,.81-.41,1.63-.42,2.5-.01,.95-.66,1.45-1.64,1.46-.21,0-.41,0-.61,.07-1.13,.3-1.5,.18-1.72-.94-.24-1.23-.26-2.44,.23-3.72,.57-1.49,1.38-2.71,2.56-3.74,.78-.68,.42-1.73,.78-2.57,.17-.41-.65-.52-.97-.28-1.5,1.14-3.21,2.03-4.33,3.65-1.28,1.83-1.74,3.8-1.33,5.98,.04,.21,.07,.43,.03,.64-.39,1.95,.78,3.48,1.43,5.13,.39,.97,2.01,1.15,2.92,.44,.81-.63,1.34-1.5,1.98-2.28,.95-1.14,1.93-2.24,2.31-3.73,.38-1.48,.86-2.95,.95-4.49,.07-1.16,.13-2.32,.26-3.48,.2-1.88,.06-3.79,.07-5.69,0-.39-.12-.72-.4-1.01-1.25-1.29-1.5-2.99-1.84-4.77,.3-.3,.51-.15,.78,.14,.66,.35,.82,.94,1.13,1.56,.17,.26,.3,.42,.43,.7,.33,.51,.63,.92,.94,1.43,.38,.88,.19,1.7,.25,2.64,.14,.47,0,1,.72,.97,1.32-.66,2.62-.57,4.07-.38,.26,.05,.37,.06,.56,.11,.57,.13,1.08,.02,1.68,.25,.33,.04,.55,.05,.86,.09,.3,.06,.5,.13,.77,.24,2.42,.53,4.58,1.4,6.37,3.2,.08,.18,.1,.26,.06,.45-.86,.58-1.51,.21-2.08-.3-1.4-1.26-3.04-1.86-4.91-2.01-1.74-.14-3.5-.12-5.23-.4-.47-.07-.96,.04-1.41,.2-.44,.16-1.08,.36-.8,.94,.26,.56,.73,.02,1.08-.12,.5-.21,1.02-.29,1.55-.3,3.33-.11,6.4,.84,9.3,2.37,1.28,.67,2.04,1.83,2.69,3.07,.49,.94,.94,1.91,1.63,2.87-.04,1.17-.62,1.94-1.47,2.65-.79,.18-1.05-.35-1.42-.87-.65-.62-1.25-1.15-2.08-1.57-.57-.13-1.05-.14-1.63-.06-.21,.11-.32,.19-.53,.29-.3,.1-.46,.24-.76,.36-.14,.09-.18,.14-.32,.21-.34,.29-.59,.54-.97,.81-.62,.68-1.15,1.31-1.76,2.01-.18,.3-.31,.5-.47,.79-.1,.3-.17,.5-.31,.8-.11,.57-.15,1.06,.08,1.63,.02,.1,.1,.11,.1,.15,.37,.26,.75,.3,1.25,.11,.27-.26,.45-.48,.71-.76,.17-.32,.33-.48,.73-.42,.73,1.36,.48,2.06-.77,2.5-2.16,.76-3.56-.26-3.55-2.56,.02-3.21,3.05-6.84,6.21-7.43,1.09-.2,1.26-.16,4.66,1.27-.79-.93-1.3-1.77-2.02-2.33-1.23-.97-2.67-.45-3.74,.23-2.25,1.42-4.32,3.14-5.75,5.44-1.28,2.04-1.03,4.36,.54,6.19,.21,.24,.42,.48,.57,.9-.46,.92-.99,.44-1.62,.1-.38-.11-.52-.32-.7-.6-.29-.45-.5-.84-.76-1.34-.12-.19-.2-.27-.27-.45-.19-.53-.26-.98-.1-1.63,.05-.35,.07-.54,.13-.8,.06-1.09,.44-1.98,.9-2.99,.25-1.2,.97-1.98,1.69-2.72,1.09-1.12,2.29-2.14,3.7-3.04,1.25-.79,2.66-.92,3.96-1.49-1.24-1.1-2.63-1.64-4.29-1.84-.56,.07-1.03,.04-1.62-.1-.6-.09-1.08-.1-1.66-.04-.45,.07-.79,.12-1.27,.16-2.9,.57-3.01,.66-2.96,3.56,.04,2.39-.44,4.61-1.84,6.72-.09,.16-.1,.22-.18,.33-.29,.42-.16,.88-.47,1.31-.27,.63-.63,1.06-1.1,1.55-.33,.5-.68,.84-1.15,1.21-.34,.3-.59,.54-.95,.79-.15,.06-.19,.11-.33,.2-.6,.53-1.16,.24-1.84,.07-.63-.29-1.18-.37-1.7-.8-.31-.49-.54-.92-.81-1.44-.38-1.07-.82-2-1.21-3.07-.24-.52-.21-.97-.22-1.55-.05-.38-.06-.63-.08-.97-.19-.64-.21-1.2-.03-1.9,.05-.38,.05-.63,.08-.97,.39-2.82,2.4-4.41,4.32-6.17,.26-.17,.42-.31,.69-.48,.09-.06,.17-.19,.25-.2,.47-.27,.87-.49,1.36-.78,.08-.05,.16-.18,.23-.19,.26-.1,.42-.23,.72-.31,.17-.07,.25-.13,.45-.22,.72-1.7-.27-3.16-.43-4.8Z"/>
      <path class="cls-3" d="M300.32,179.2c.01,2.05,.03,3.98,.01,6.05,0,.45,0,.75-.18,1.13-.03,1.03-.03,1.96-.07,3.02-.14,2.09,0,4.04-.05,6.11,.03,.43,.07,.74,.08,1.16,.08,.4,.24,.66,.21,1.09,.03,.42,.07,.72,.11,1.15,.36,.89,.2,1.72,.2,2.67,0,.79,.02,1.45,.01,2.24,0,.86,.1,1.58-.11,2.43-.06,.84-.12,1.54-.2,2.38,0,.34-.06,.53-.19,.8-.05,.51-.07,.92-.12,1.45-.02,.34-.07,.54-.16,.83-.34,1.89-.69,3.67-1.09,5.57-.05,.26-.06,.4-.12,.64-.08,.47-.14,.83-.23,1.3-.02,.31-.07,.5-.19,.78-.03,.21-.04,.32-.08,.51,.01,1.44-.4,2.72-.69,4.14-.08,.44-.37,.69-.36,1.14,.02,.3,.01,.5-.07,.79-.23,.38-.4,.67-.3,1.15,0,.27-1.79,7.67-1.94,7.91-.38,.31,1.05-6.83,.56-6.95-2.54,11-.38-4.39,0-6.48,.96-5.13,2.24-10.2,2.74-15.4,.33-3.45,.52-6.94-.16-10.35-.64-3.19-.41-6.38-.16-9.53,.28-3.54,.02-7.01-.24-10.51-.49-6.53-2.12-12.78-4.22-18.96-.94-2.76-1.47-5.66-2.05-8.66,.06-.86-.07-1.55-.59-2.25-.35-.79-.55-1.51-.78-2.32,0-.46-.05-.79-.32-1.17-.21-.61-1.58-4.82-1.4-5.48,.2-.2,.44-.67,.83-.41,.65,.16,1.87,4.45,2.01,4.9,1.68,5.63,3.77,11.11,5.89,16.72,.08,.24,.14,.37,.18,.6,.04,.28,.08,.45,.15,.71,.06,.22,.11,.35,.15,.58,.08,.81,.35,1.48,.51,2.28,.41,.97,.42,1.93,.67,2.96-.01,.35,.13,.52,.18,.83,.05,.3,.1,.5,.13,.8,0,.32,.13,.49,.19,.8,.05,.31,.08,.51,.11,.82,.02,.31,.15,.47,.18,.78,.16,1.56,.52,2.99,.47,4.61,.04,.44,.22,.71,.18,1.14,.05,.82,.1,1.53,.17,2.37,0,.44,.19,.72,.14,1.15Z"/>
      <path class="cls-19" d="M188.77,69.95c-.25-.41-.45-.74-.4-1.25,.2-.55,.68-.78,.89-1.32,.26-.39,.5-.68,.83-1.02,2.26-1.67,4.26-3.5,6.38-5.19,2.62-2.09,5.73-3.21,9.09-3.57,2.17-.23,4.34-.47,6.53-.22,.66,.08,1.26-.18,1.99-.39,.19-.09,.26-.13,.44-.23,.34-.11,.57-.18,.92-.22,.6,.44,1.08,.54,1.73,.32,2.3-.8,4.35-1.99,6.06-3.72,1.48-1.5,1.19-3.62-.61-4.73-1.84-1.13-3.36-1.13-4.76,.07-.45,.15-.73,.02-1.06-.3-.19-1.77,1.16-3.4,3.28-4.15,3.51-1.25,5.82-.24,7.29,3.19,.31,.73,.56,1.49,1.08,2.27,.11,.29,.11,.46-.02,.73-.08,.1-.09,.12-.09,.11-.84,.73-1.07,1.82-1.57,2.75-1.37,2.58-3.34,4.3-6.2,5.11-2.09,.59-4.04,1.58-6.18,2.11-1.62,.4-3.2,.83-4.86,.7-2.69-.22-5.31,.24-7.9,.78-2.33,.48-4.23,1.93-6.1,3.55-.29,.56-.62,.93-1.17,1.25-1.54,.51-2.53,1.56-3.58,2.55-.53,.49-.99,1.18-1.99,.84Z"/>
      <path class="cls-5" d="M118.44,37.46c-.2,.01-.42-.08-.73-.21-.88-.89-1.69-1.73-2.49-2.58-.66-.7-1.46-.95-2.43-.99-4.18-.2-7.79,1.31-11.14,3.63-1.79,1.24-3.65,2.34-5.22,3.9-1.31,1.3-2.36,2.76-3.22,4.33-1.17,2.13-2.31,4.34-2.63,6.78-.41,3.08-.86,6.16-.07,9.31,.39,1.55,1.13,2.84,1.87,4.17,.64,1.14,1.87,1.53,3.01,1.44,1.35-.11,2.71-.55,3.88-1.33,.5-.33,.95-.75,.56-1.45-.5-.91-1.58-1.52-2.2-1.21-.38,.18-.53,.52-.52,.92,.03,.85-.5,.93-1.15,.9-1.51-.09-2.87-1.25-3.34-2.72-.59-1.83-.91-3.68-.96-5.61-.07-2.74,.77-5.23,1.82-7.67,.43-1,.74-2.12,1.79-2.85-.63,1.64-1.32,3.3-1.91,5.02-1.06,3.12-1.13,6.26-.44,9.45,.28,1.29,1.23,1.95,2.25,2.53,.51,.29,.93,.06,1.01-.58,0-.05,0-.11,0-.16,.08-.45-.17-1.05,.37-1.3,.58-.27,1.18-.27,1.84-.04,2.81,1,3.67,2.82,2.58,5.6-.19,.49-.57,.73-1.03,.93-2.41,1.02-4.84,1.12-7.3,.17-1.28-.49-2.14-1.34-2.48-2.7-.08-.31-.19-.61-.32-.89-1.24-2.71-1.56-5.55-.95-8.43,.54-2.54,1.06-5.1,2.06-7.54,2.04-4.96,5.25-8.8,10.03-11.36,2.73-1.46,5.47-2.84,8.36-3.98,2.12-.83,3.91-.5,5.63,.88,1.29,1.04,2.46,2.19,3.44,3.66Z"/>
      <path class="cls-17" d="M288.91,251.25c-.07,.08-.11,.23-.17,.28-.7,1.27-1.47,2.4-2.39,3.57-.07,.09-.11,.23-.17,.27-.22,.38-.48,.64-.8,.99-.27,.34-.46,.61-.74,.92-3.51,4.09-7.64,7.33-11.98,10.3-.39,.27-.83,.57-1.29,.6-2.07,.11-2.89,1.54-3.46,3.22-1.77,5.22-5.53,7.83-10.89,8.39-.68,.07-1.32,.38-2.03,.32-1.75-.13-2.71,.59-3.66,2.24-1.39,2.42-3.75,3.99-6.8,4.33-.33-.23-.3-.47-.19-.81,.22-.38,.47-.53,.87-.65,.36-.09,.61-.18,.83-.5,.9-.78,1.81-1.39,2.7-2.18,.3-.18,.54-.27,.73-.58,.08-.13,.11-.19,.19-.32,.21-.28,.34-.49,.36-.86,.02-.54,0-.98,.01-1.53,.02-.27,.04-.43,.12-.7,.38-.68,.83-.59,1.26-.28,.87,.61,1.82,.48,2.77,.37,.21-.03-.05,0,.16-.03,8.22-1.43,7.56-1.67,10.97-8.49,.45-.9,.86-1.83,1.39-2.7,.34-.56,.74-1.09,1.41-1.23,2.87-.59,5.06-2.48,7.39-4.02,7.32-4.81,12.51-11.44,16.04-19.41,.55-1.23,.74-2.56,.98-3.86,.35-1.91,1.18-3.64,1.83-5.44,.13-.35,.34-.67,.85-.75,.23,.17,.31,.32,.39,.61,.11,1.6-.39,2.95-.84,4.31-.78,2.37-1.15,4.85-2.04,7.2-.32,.85-.68,1.67-1.24,2.54-.1,.15-.11,.21-.18,.31-.15,.25-.25,.43-.47,.67-.17,.23-.27,.39-.44,.61-.29,.47-.5,.88-.83,1.34-.06,.08-.11,.22-.17,.27-.15,.24-.26,.43-.47,.67Z"/>
      <path class="cls-16" d="M31.24,268.7c-2.89-2.53-5.66-5.02-8.16-7.8-.88-.98-1.78-1.97-2.7-3.05-.18-.27-.33-.43-.51-.72-.18-.23-.31-.36-.46-.58-1.4-1.59-2.24-3.44-3.13-5.21-1.23-2.44-2.2-5-3.48-7.54-.07-.36-.06-.65-.36-.91-.38-.45-.62-.88-.69-1.48,.02-.38-.01-.64-.24-.96-.66-1.19-1-2.41-1.64-3.62-.17-1.68-.79-3.05-1.87-4.35-1-2.06-1.67-4.11-2.16-6.34,0-.44-.15-.7-.4-1.04-.64-1.54-.83-3.1-1.38-4.66,.02-.46,.07-.81-.25-1.19-.23-.73-.54-1.33-.38-2.12,.08-.52,.16-.93-.21-1.39-.08-.25-.09-.41-.07-.68,.12-1.35-.21-2.54-.37-3.74-.08-.64-.21-1.26,.28-1.92,1.29-.03,1.19,.99,1.23,1.68,.17,2.55,.89,4.88,2.2,7.07,.46,.77,.84,1.63,.98,2.52,1.31,8.02,4.38,15.44,7.55,22.84,2.83,6.59,6.12,12.91,11.29,17.99,2.38,2.34,4.69,4.79,7.39,6.81,1.45,1.08,2.82,2.29,3.43,4.24-.49,1.35-1.04,.49-1.51,.12-1.51-1.21-2.92-2.53-4.4-3.95Z"/>
      <path class="cls-17" d="M124.89,80.36c.05,.36,.02,.62-.09,.96-1.68,.73-2.91,.47-4.38-.7-2.8-2.23-6.05-3.76-9.62-4.48-.86-.17-1.69,0-2.54,.15-2.31,.39-4.64,.75-6.69,1.95-1.54,.9-3.33,1.03-5.1,1.67,.58,.93,1.46,1.27,2.12,1.85,2.45,2.15,4.55,4.64,6.86,6.92,.71,.7,1.42,1.48,1.61,2.53,.15,.84-.02,1.63-.84,2.07-.92,.5-1.31-.23-1.8-.82-1.56-1.89-2.91-3.94-4.4-5.89-1.23-1.61-2.79-3.01-4.57-3.94-3.53-1.86-7-3.89-10.99-4.7-1.62-.33-3.26-.6-4.91-.59-2.04,.02-4.03-.31-6.15-.52-.35-.16-.57-.34-.96-.33-.25,.01-.39,0-.64-.04-.42-.13-.71-.25-.96-.61,.03-.2,.07-.27,.24-.41,2.43-.22,4.73-.17,7.02,.23,1.15,.2,2.3,.2,3.58-.08,.57-.14,1-.17,1.57-.06,.38,.1,.64,.11,.99,.19,.23,.03,.37,.04,.61,.09,.26,.09,.43,.15,.69,.21,.23,.05,.37,.07,.59,.15,.26,.08,.43,.11,.69,.17,1.04,.12,1.88,.55,2.83,.99,.33,.14,.54,.27,.82,.44,.29,.1,.49,.18,.78,.32,1.18,.59,2.22,.3,3.32-.02,3.14-.92,6.11-2.4,9.38-2.94,6.77-1.13,13.14-.55,18.47,4.35,.7,.64,1.59,.52,2.47,.88Z"/>
      <path class="cls-17" d="M125.13,302.45c-.47-.04-.82-.05-1.28-.12-1.1-.13-2.07-.26-3.11-.65-.12-.01-.27,.02-.27,.02,0,0-.15-.03-.21-.08-.29-.07-.51-.15-.83-.25-.4-.06-.68-.13-1.05-.27-.32-.15-.54-.26-.84-.41-1.65-.19-3.03-.94-4.56-1.56-1.44-.72-2.91-1.07-4.25-1.98-.09-.07-.24-.11-.28-.17-.59-.31-1.12-.59-1.63-1.11-.24-.19-.39-.31-.6-.5-.6-.27-.91-.86-1.63-.98-.16-.1-.22-.15-.36-.28-1.84-1.01-3.87-.97-5.69-1.75-1.42-.61-2.86-1.17-4.17-2-.44-.28-.97-.51-.78-1.3,.8-.4,1.44-.05,2.06,.24,3.36,1.54,6.85,2.65,10.52,3.13,.82,.11,1.53,.38,2.14,.96,4.6,4.28,10.11,6.27,16.31,6.84,4.88,.45,9.54-.27,14.16-1.71,.77-.24,1.55-.42,2.34-.52,3.97-.48,7.65-1.8,11.12-3.77,1.03-.58,2.13-1.37,3.44-.26,.13,.96-.52,.79-1.13,.86-.52,.38-1.13,.43-1.55,.97-.29,.15-.46,.29-.75,.46-.32,.2-.54,.35-.87,.51-3.52,2.15-7.43,2.85-11.25,3.79-1.01,.25-2.02,.58-3.2,.7-.21,.08-.31,.12-.49,.09-1.12,.24-2.16,.54-3.37,.59-.26,.08-.39,.14-.64,.18-.79,.15-1.48,.01-2.26,.13-.24,.08-.37,.15-.62,.2-1.51,.13-2.9,.07-4.43,0Z"/>
      <path class="cls-21" d="M283.82,125.16c.09,.13,.14,.16,.2,.28,2.3,3.77,3.84,7.79,5.29,11.85,.11,.31,.14,.62-.05,1.04-.29,.25-.53,.3-.9,.22-1.27-1.77-1.76-3.79-2.61-5.77-.04-.45-.04-.8-.33-1.18-.45-.94-1.07-1.69-1.15-2.78-.04-.39-.14-.64-.44-.91-.74-1.04-1.33-2.05-2.33-2.74-.56-.38-.82-1-.95-1.62-.68-3.23-2.72-5.62-4.93-7.87-1.58-1.61-3-3.32-4.23-5.19-2.38-3.62-5.59-6.24-9.42-8.17-.81-.41-1.66-.73-2.39-1.49-.35-.46-.73-.79-.64-1.43,.53-.46,.97-.18,1.39,.02,5.15,2.5,9.72,5.68,13.35,10.26,2.58,3.25,5,6.56,6.92,10.37,.09,.14,.14,.18,.2,.3,.76,1.33,1.59,2.52,2.38,3.87,.05,.1,.17,.19,.19,.26,.14,.25,.27,.42,.43,.7Z"/>
      <path class="cls-16" d="M70.95,75.47c-.02,.17-.02,.23-.03,.4,.03,.18,.07,.26,.08,.46-.48,1.12-1.41,.98-2.24,.99-2.34,.03-4.68-.14-6.97,.61-1.05,.34-1.94,.8-2.5,1.82-.5,.9-1.26,1.58-2.15,2.09-2.87,1.63-5.65,3.41-8.71,4.68-.63,.26-1.25,.63-2.08,.36-.09-.3-.09-.51-.08-.82,.02-1.08,.92-.87,1.44-1.12,2.69-1.34,5.48-2.5,7.77-4.74,.27-.57,.71-.82,1.11-1.25,.21-.4,.43-.65,.84-.86,1.38-1.16,2.85-1.97,4.56-2.56,.35-.01,.52-.17,.84-.27,.91-.2,1.69-.48,2.65-.43,.94-.18,1.77-.19,2.73-.1,.8,.09,1.48-.11,2.25,.19,.33,.1,.45,.25,.5,.55Z"/>
      <path class="cls-7" d="M31.17,268.74c.53-.22,.87,.16,1.17,.52,1.12,1.29,2.57,2.22,3.78,3.42,.23,.23,.48,.43,.91,.14,.39-.32,.71-.21,.95,0,2.48,2.29,5.4,3.95,8.25,5.92,.2,.47,.45,.75,.81,.89,2.77,1.08,5.56,2.38,8.57,2.23,1.8-.1,3.61-.83,5.38-1.38,2.83-.89,5.85-1.22,8.5-2.7,.27-.15,.62-.16,1.04,.02-1.45,1.56-3.39,2.23-5.44,2.59-1.16,.21-2.26,.57-3.38,.91-1.88,.56-3.7,1.25-5.53,1.94-1.8,.67-3.62,.07-5.28-.6-2.36-.94-4.61-2.09-6.72-3.58-2.16-1.52-4.38-2.99-6.48-4.58-2.27-1.72-4.53-3.52-6.52-5.74Z"/>
      <path class="cls-17" d="M199.9,295.68c-.98,.69-2.1,.57-3.11,.63-4.18,.22-8.32,.95-12.5,1.06-2.65,.06-5.3,.12-8.09,.4-.25,.07-.36,.08-.54,.06-3.42-.29-6.76-.61-10.1-.92-.53-.05-1.05-.1-1.56-.55,.27-1.5,1.5-.75,2.4-1.15,.67-.16,1.21-.18,1.87-.03,.93,.59,1.81,.61,2.84,.31,.65-.13,1.18-.13,1.83,.05,2.3,.7,4.48,.65,6.78,.02,2.7-.47,5.29-.22,8.01-.19,.63,.08,1.09,.35,1.73,.2,.28-.05,.44-.05,.71-.04,.87,.18,1.61,.3,2.39-.28,.75-.26,1.4-.23,2.17-.14,.72,.19,1.32,.36,1.98-.17,.69-.25,1.28-.23,2-.12,.55,.17,.97,.3,1.19,.85Z"/>
      <path class="cls-16" d="M70.69,277.86c-.66,.84-1.88,1.18-2.62,1.58-1.37,.74-2.62,.49-4.17,.66-.26,.03-.55,.03-.78,.14-2.22,1.02-4.74,1.05-6.93,2.15-.28,.14-1.11,1.02-1.39,.79-.79-.64-1.22-1.15-2.1-1.09-1.2,.07-2.07-.74-3.12-1.04-.69-.19-1.33-.54-2.07-.7-.64-.14-1.53-.29-1.58-1.41,.43-.49,.9-.36,1.36-.22,3.02,.88,6.11,1.36,9.26,1.39,1.44,.02,2.79-.06,3.98-1.2,.96-.93,2.37-1.13,3.81-1.35,1.46,.33,.58,.91,.18,1.58,1.77-.79,3.44-1.44,4.69-3,.94-.67,1.63-1.63,2.99-1.24,.3,.36,1.03,.75,.96,1.21-.29,.74-.2,.32-.66,.9-.08,.2-1.63,.78-1.81,.85Z"/>
      <path class="cls-16" d="M45.95,279.34c1.81,1.05,3.69,1.96,5.63,2.74"/>
      <path class="cls-16" d="M46.26,280.13c1.91,.99,3.84,1.94,5.87,2.64,.82,.28,1.73,.52,2.54,.2,.3-.12,.57-.31,.86-.47,.79-.47,1.67-.76,2.58-.87"/>
      <path class="cls-16" d="M54.58,281.44c-.23,.61,.09,1.37,.69,1.63,.45,.2,.97,.12,1.44,0,.74-.19,1.45-.48,2.16-.78,1.61-.67,3.23-1.34,4.84-2,.79-.33,1.63-.66,2.48-.55,.28,.04,.56,.12,.84,.09,.48-.05,.89-.47,.93-.95"/>
      <path class="cls-16" d="M69.89,277.45c-.16,.72-.6,1.38-1.2,1.8-.53,.38-1.17,.57-1.81,.73-3.08,.77-6.35,.91-9.22,2.26"/>
      <path class="cls-16" d="M47.35,280.66c-2.01-.85-3.85-2.09-5.4-3.63-.26-.26-.54-.6-.44-.95-.02,.06-.04,.11-.07,.17"/>
      <path class="cls-16" d="M47.77,279.41c-2.3-.55-4.14-2.24-6.3-3.17-.14,.15,.04,.37,.2,.49,1.83,1.38,3.75,2.65,5.79,3.69,.4,.2,.85,.4,1.28,.26-.25-.45-.58-.84-.96-1.27Z"/>
      <path class="cls-16" d="M71.76,276.29c.7,2.18,1.49,4.49,3.28,5.92,1.41,1.13,3.25,1.54,5.02,1.93,1.47,.32,2.97,.64,4.46,.46-.38-.73-1.03-1.27-1.67-1.79-2.88-2.32-5.97-4.78-7.13-8.29-.09-.26-.17-.54-.37-.74-.51-.5-1.36-.16-1.96,.23-.52,.33-1.05,.7-1.38,1.23s-.37,1.27-.25,1.07Z"/>
      <path class="cls-16" d="M83.96,284.59c.75,2.1,2.28,3.85,4.04,5.21s3.75,2.39,5.73,3.41c1.04,.53,2.09,1.07,3.22,1.34,1.13,.27,2.31,.26,3.47,.25,.76,0,1.69-.12,1.99-.82-3.36-.9-6.71-1.89-9.84-3.4s-6.05-3.57-8.18-6.32c-.26,.12-.37,.49-.42,.32Z"/>
      <path class="cls-2" d="M5.83,143.13c.42,.25,.45,.57,.38,.89-.36,1.76-.72,3.52-1.11,5.27-.39,1.76-.61,3.54-.84,5.32-.29,2.25-.49,4.52-.82,6.76-.18,1.25-.25,2.53-.34,3.79-.17,2.5-.79,4.91-1.09,7.38-.06,.5-.1,1.23-1.01,1.36-.65-.43-.55-1.03-.37-1.57,.29-.87,.12-1.77,.29-2.78,.04-.28,.05-.44,.11-.69,.11-1.29,.19-2.47,.64-3.72,.01-.31,.01-.5,.05-.77,.09-.44,.06-.79,.16-1.24,.03-.35,.03-.6,.09-.97,.21-.63,.04-1.2,.35-1.81-.04-.21-.05-.31,.03-.48,.13-.68-.03-1.33,.28-2.06,.02-.42,.01-.71,.04-1.1,.07-.43,.09-.75,.27-1.17,.01-.31,.01-.49,.05-.77,.07-.41,.09-.73,.28-1.14,.01-.31,0-.5,.04-.78,.07-.32,.15-.53,.27-.84,0-.3,0-.5,.05-.77,.07-.31,.14-.52,.27-.82-.05-.2-.06-.3,.03-.47,.36-1.66,.65-3.27,1.25-4.94,.02-.23,.01-.34,.05-.51,.09-.54,.04-1.05,.58-1.38Z"/>
      <path class="cls-18" d="M195.17,65.47c-.08-.41,0-.72,.31-.89,1.76-.95,3.24-2.37,5.21-3.01,.9-.29,1.82-.12,2.64-.41,2.12-.73,4.29-.57,6.46-.55,1.55,.01,3-.42,4.5-.73,2.41-.5,4.56-1.65,6.89-2.31,2.24-.63,3.83-2.16,4.92-4.19,.42-.79,.94-1.53,1.16-2.42,.09-.38,.38-.63,.94-.63,.09,.15,.07,.3-.02,.55-.15,.43-.17,.78-.37,1.18-.03,.21-.06,.32-.16,.47-.16,.19-.25,.34-.35,.58-.02,.23,0,.38-.05,.64-.13,.28-.23,.43-.46,.6-.08,.04-.11,.13-.15,.12-.36,.55-.38,1.28-1.09,1.73-.13,.1-.16,.15-.28,.22-.25,.15-.41,.28-.69,.44-.54,.43-1.06,.7-1.72,.9-.56,.13-.92,.48-1.47,.62-.28,.13-.46,.24-.74,.35-.36,.02-.55,.21-.87,.3-.27,.13-.45,.23-.74,.34-.34,.03-.52,.17-.84,.26-.52,.43-1.09,.49-1.71,.7-.94,.32-1.76,.66-2.75,.88-.2,.08-.29,.12-.48,.11-.31,0-.5,.14-.82,.23-.86,.38-1.63,0-2.53,.02-.48-.04-.83-.03-1.28-.1-.36-.01-.62,0-1-.02-.57,.13-1.04,.06-1.59,.09-.48,.05-.85,.1-1.35,.13-.68,.05-1.14,.42-1.83,.5-.19,.09-.28,.13-.46,.13-.35-.05-.53,.17-.86,.26-.27,.13-.45,.23-.74,.33-.65,.2-1.17,.44-1.81,.69-.14,.09-.18,.13-.32,.19-1.19,.62-2.09,1.58-3.51,1.69Z"/>
      <path class="cls-1" d="M72.21,276.38c-.03-.46-.03-.82-.05-1.32-.07-.69,.3-.95,.79-1.25,.45-.16,.79-.3,1.18-.59,.4-.17,.71-.19,1.14-.14,.19,.05,.26,.08,.43,.18,.48,.69,.3,1.27,0,1.85-1.12,2.16-1,2.75,.99,4.39,.74,.46,1.15,1.1,1.67,1.63,.98,.99,2.19,1.47,3.71,1.45,.38,0,.63,0,1.02,.05,.31,.07,.48,.15,.72,.37,.31,.58,.31,1.05-.04,1.61-.45-.04-.8-.18-1.25-.35-.41,.01-.7,.01-1.09-.16-.42-.04-.73-.07-1.14-.14-.31-.03-.5-.07-.76-.2-.53-.14-.96-.25-1.49-.41-.29-.05-.47-.09-.71-.25-.3-.11-.51-.17-.82-.3-.21-.09-.31-.15-.44-.32-.16-.22-.3-.32-.56-.41-.41-.12-.7-.27-.99-.6-.25-.25-.44-.41-.66-.67-.41-.35-.59-.75-.78-1.26-.13-.29-.23-.48-.34-.78-.14-.52-.36-.89-.47-1.4-.02-.36,.03-.62-.05-.96Z"/>
      <path class="cls-2" d="M3.47,209.27c-.63,.64-.41,1.27-.31,1.88,.17,1.08,.36,2.15,.52,3.22,.03,.19-.06,.41-.18,.7-.43,.19-.58-.04-.62-.31-.58-3.52-1.75-6.95-1.78-10.69-.27-.57-.18-1.04-.14-1.63-.1-3.25-.72-6.32-.8-9.57-.05-.47-.07-.8-.06-1.25,.14-.7,.11-1.28,.07-1.97-.25-.44-.13-.8-.07-1.26,.1-.15,.17-.19,.34-.18,.58,.31,.74,.73,.71,1.25-.12,2.01,.52,3.97,.33,5.98-.04,.4-.11,.87,.5,1.15,.9,.98,.78,2.07,.66,3.3-.02,.38,.05,.63,.16,1,.46,2.83,1.01,5.52,.69,8.38Z"/>
      <path class="cls-7" d="M3.61,216.71c.1,.81,.22,1.56,.47,2.41,.09,.3,.21,.46,.27,.75,.44,1.7,.86,3.3,1.31,5.02,.12,.32,.26,.49,.43,.77,.43,2.32,1.21,4.43,2.1,6.62,.88,1.34,1.27,2.78,1.93,4.22,.54,1.3,1.05,2.49,1.58,3.79,.13,.27,.25,.42,.31,.7,.01,.63,.19,1.1,.56,1.61,.21,.21,.33,.36,.4,.63,1.06,2.34,2.15,4.58,3.12,6.85,.92,2.15,2.2,4.09,3.28,6.26-.64-.08-.86-.66-1.14-1.15-1.1-1.89-2.16-3.79-3.05-5.8-.92-2.09-1.8-4.22-2.94-6.21-.61-1.07-.96-2.25-1.34-3.42-.71-2.19-2.01-4.11-2.85-6.25-1.92-4.87-3.4-9.87-4.65-14.94-.13-.51-.14-1.05-.16-1.71,.11-.15,.18-.18,.35-.16Z"/>
      <path class="cls-7" d="M125.09,80.43c-1.42,.02-2.48-.41-3.56-1.28-3.34-2.7-7.15-4.25-11.56-4.19-3.58,.05-7.11,.38-10.43,1.74-1.62,.66-3.31,1.06-4.92,1.72-1.04,.43-2.14,.7-3.23-.19,.9,.12,1.79,0,2.73-.3,1.82-.6,3.64-1.18,5.46-1.8,4.66-1.57,9.44-2.21,14.32-1.19,3.23,.67,6.19,1.92,8.55,4.34,1.11,1.14,3.35,.79,4.23-.71,.44-.76,.99-1.37,1.71-1.98-.71,1.49-1.55,2.98-3.3,3.82Z"/>
      <path class="cls-18" d="M188.68,69.99c.73,0,1.18-.45,1.61-.93,.81-.9,1.74-1.66,2.71-2.39,.27-.2,.54-.32,.98-.33,1.49,.43,2.73-.61,4.2-.35,1.29-.16,2.48-.27,3.79-.05,2.89,.24,5.49,1.05,8.11,2.24,.66,.32,1.22,.57,1.85,.91,.52,.17,.89,.41,1.34,.7,.09,.06,.25,.07,.3,.14,.43,.31,.85,.51,1.31,.83,.28,.06,.36,.2,.43,.44,.08,.27,.11,.47,0,.8-1.32-.34-2.29-1.27-3.41-1.95-2.05-1.23-4.22-1.93-6.52-2.4-1.3-.26-2.62-.39-3.95-.34-.84,.03-1.68,0-2.52-.23-1.52-.43-2.92,.35-4.34,.69-1.41,.34-2.62,1.14-3.73,2.05-.5,.41-.97,.82-1.71,1.01-.41-.15-.44-.43-.44-.83Z"/>
      <path class="cls-14" d="M161.22,20.91c-1.38-1.61-1.95-3.55-2.67-5.42-1.58-4.1-2.75-8.33-3.79-12.6-.29-1.2-.42-1.24-1.64-1.01-.72,.14-1.46,.27-2.19,.3-1.34,.05-2.5,.61-3.81,1.12,0-.46,.13-.91,.32-1.46,.23-.33,.49-.4,.84-.48,.33-.08,.57-.14,.93-.19,.68-.14,1.2-.42,1.9-.42,.3-.05,.5-.1,.79-.14,1.15-.08,2.13-.7,3.35-.26,.12,.08,.22,.13,.24,.19,.15,.78,.47,1.47,.54,2.34,.05,.42,.09,.72,.12,1.14-.01,.35,.14,.52,.24,.84,.09,.24,.14,.38,.19,.62,.03,.25,.05,.38,.08,.62,.05,.2,.1,.3,.14,.49-.03,.32,.12,.5,.2,.82,.08,.35,.13,.59,.17,.95,.28,1,.51,1.9,.82,2.89,.15,.39,.26,.67,.39,1.06-.02,.37,.18,.55,.26,.87,.12,.37,.22,.66,.35,1.06,.75,2.08,1.65,3.96,2.6,5.95,.09,.14,.13,.18,.19,.3,.05,.15,.08,.22,.02,.37-.22,.07-.35,.06-.58,.04Z"/>
      <path class="cls-18" d="M228.42,49.78c-.85-.42-1.06-1.16-1.25-1.86-.3-1.11-.98-1.96-1.67-2.84-.72-.92-1.61-1.26-2.77-1.14-1.89,.18-3.62,.67-4.96,2.11-.48,.51-.9,1.04-.91,1.9-.07,.18-.14,.25-.36,.28-1-.11-.82-.67-.67-1.3,.05-.42,.07-.74,.25-1.16,.04-.23,.06-.33,.16-.48,1.4-1.92,3.22-2.89,5.62-3.03,.25-.05,.4-.07,.63-.03,.5,.16,.95,.07,1.42,.35,1.3,.22,2.2,.9,2.9,1.84,.53,.71,1,1.46,1.52,2.29,.39,.72,.5,1.4,.56,2.21-.04,.27-.05,.42-.13,.68-.13,.15-.19,.19-.34,.18Z"/>
      <path class="cls-18" d="M214.53,57.01c-.59,.59-1.36,.75-2.16,.69-2.6-.19-5.17,.28-7.76,.34-1.23,.03-2.36,.6-3.49,1.02-1.33,.51-2.58,1.23-3.86,1.87-.14,.07-.3,.15-.39,.27-1.45,1.93-3.67,2.97-5.32,4.66-.31,.32-.67,.52-1.25,.46,.84-2.04,2.71-3.22,4.38-4.73,.23-.2,.38-.33,.64-.49,.22-.2,.35-.34,.57-.52,.45-.29,.84-.51,1.34-.74,.57-.61,1.33-.57,2.01-.94,.37,0,.55-.21,.88-.28,1.69-.98,3.54-1.09,5.42-1.49,.79-.13,1.46-.04,2.23-.08,1.03-.39,2.02-.38,2.94-.23,1.03,.16,2.01,.09,3.13-.03,.31-.01,.48,.03,.69,.2Z"/>
      <path class="cls-8" d="M217.84,48.45c-.08-.57,.09-.84,.59-1.03,1.74-.67,4.71,.27,5.68,1.85,.72,1.16,.54,3.01-.41,3.96-1.66,1.67-3.53,3.03-5.8,3.76-.36,.11-.69,.25-1.01,.45-.74,.47-1.2,.2-1.35-.75,.55-.29,1.09-.49,1.65-.66,2.11-.62,3.81-1.82,5.22-3.65,.11-.14,.15-.2,.25-.33,.3-.25,.45-.46,.36-.87-.12-.49-.12-.89-.11-1.4-.22-.51-.53-.8-1.15-.88-.51-.15-.84-.4-1.31-.55-.35-.02-.6-.02-.98-.03-.61,.06-1.08,.29-1.64,.11Z"/>
      <path class="cls-1" d="M187.34,46.15c.38-.27,.72-.35,1.21-.37,.52,.48,.68,1.09,1.19,1.61,.27,.58,.13,1.02-.17,1.55-.35,.55-1.44,.57-.79,1.62,.09,.24,.1,.38,.06,.62-.21,.45-.97,.49-.58,1.25,.02,.94-.55,1.58-.8,2.46-.4,.28-.73,.31-1.21,.26-1.05-.36-1.18-1.13-1.16-1.96,.02-.69,.13-1.39,.35-2.04,.38-1.13,.29-2.15-.39-3.22,.26-.51,.62-.82,.86-1.34,.42-.45,.89-.37,1.43-.44Z"/>
      <path class="cls-6" d="M123.7,65.52c.47-.22,.92,.36,1.53-.04,.47-.55,1.03-.42,1.54-.49,1.9-.28,3.64-1.95,3.97-3.81,.05-.26,.13-.6-.13-.72-.68-.3-.79,.53-1.36,.74-.24,.12-.38,.2-.6,.32,.1-.77,.58-1.41,.95-2.11,.3-.57,.7-.95,1.39-.79,.74,.17,1.29,.58,1.33,1.38,.1,2.14-.41,4.04-2.37,5.23-1.99,1.2-4.07,1.48-6.26,.29Z"/>
      <path class="cls-2" d="M89.83,291.07c-.14-.08-.19-.09-.29-.18-.41-.27-.71-.53-.78-1.08,.08-.18,.14-.23,.32-.33,.74-.18,1.24,.12,1.75,.42,3.03,1.77,6.16,3.17,9.71,3.67,1.25,.17,2.48,.25,3.83,.4,.11,.06,.15,.13,.16,.16,.14,.28,0,.43-.24,.64-.08,.07-.09,.06-.08,.06-.13,.14-.28,.25-.56,.34-.74,.27-1.39,.11-2.18,.05-.74-.12-1.38,.04-2.09-.28-.32-.03-.52,0-.82-.02-.51-.11-.96-.05-1.48-.29-.13-.02-.27,.03-.27,.03,0,0-.15-.03-.21-.08-1.27-.35-2.39-.85-3.53-1.59-.62-.14-1.04-.46-1.57-.77-.26-.19-.43-.31-.68-.51-.14-.08-.19-.1-.3-.19-.24-.16-.42-.25-.67-.45Z"/>
      <path class="cls-7" d="M163.91,296.07c1.06,.57,2.15,.5,3.17,.63,2.62,.33,5.25,.5,7.88,.74,.15,.01,.3,.1,.53,.25-.65,.42-1.39,.15-2.1,.08-4.52-.47-9.08-.66-13.57-1.48-1.78-.33-3.48-.88-5.31-1.41,.23-.51,.79-.23,1.25-.57,.17-.08,.25-.08,.45-.04,2.11,.91,4.27,.99,6.49,1.41,.48,.02,.82,.08,1.2,.39Z"/>
      <path class="cls-7" d="M144.68,7.45c.11,.02,.13,.08,.17,.26-.65,1.43-1.32,2.76-1.98,4.09-.14,.28-.3,.56-.44,.84-.29,.61-.69,.76-1.26,.33-.38-.29-.78-.56-1.18-.81-.29-.18-.55-.17-.87,.06-1,.72-1.48,.72-2.46,.02-.69-.49-1.35-1.01-2.15-1.34-.66-.27-.99-.17-1.13,.55-.15,.72-.42,1.41,.07,2.13,.21,.3,.22,.7,.05,1.16-.19-.27-.22-.68-.44-.95-1.08-1.3-.02-2.4,.31-3.55,.14-.47,.51-.4,.89-.15,.8,.52,1.62,1.01,2.44,1.49,.72,.41,1.45,1.04,2.17-.06,.19-.29,.56-.27,.87-.09,.32,.19,.63,.39,.94,.6,1.05,.71,.96,.65,1.62-.34,.89-1.33,1.45-2.83,2.38-4.23Z"/>
      <path class="cls-7" d="M133.9,18.46c.52,.21,.47,.76,.49,1.19,.14,2.42,1.28,4.56,1.91,6.84,.71,2.54,1.49,5.04,1.89,7.67,.19,1.27,.54,2.56,.73,3.93-.35-.18-.51-.5-.58-.88-.42-2.27-.84-4.54-1.28-6.81-.07-.36-.14-.74-.29-1.07-1.03-2.32-1.35-4.87-2.41-7.2-.48-1.05-.36-2.37-.47-3.67Z"/>
      <path class="cls-2" d="M28.23,98.59c.05,.63-.2,1.1-.56,1.49-2.03,2.16-4.08,4.31-6.13,6.45-.18,.18-.44,.28-.77,.43-.56-.91,.36-1.19,.77-1.84,.09-.15,.1-.2,.19-.3,.69-1.02,1.32-1.99,2.39-2.71,1.09-1.25,2.22-2.33,3.49-3.41,.22-.15,.37-.2,.64-.11Z"/>
      <path class="cls-7" d="M187.22,54.92c.08-.97,.72-1.6,.83-2.53,0-.48,.24-.71,.51-1.03,.07-.22,.08-.35,.11-.59-.09-.66,.08-1.14,.54-1.64,.13-.54,.44-.93,.37-1.53-.17-.67-.26-1.25-.75-1.78,1.35-.37,1.71-.1,1.47,1.13-.41,2.09-.88,4.17-1.9,6.07-.42,.77-.58,1.52-.53,2.42,.08,1.58,.11,3.19-.27,4.85-.14,.02-.19-.04-.27-.2-.11-.26-.13-.42-.07-.71,.07-.44,.09-.76,.1-1.21-.61-1.09-.54-2.09-.13-3.26Z"/>
      <path class="cls-20" d="M103.96,38.9c-.02-.26,.02-.53,.16-.63,1.66-1.04,3.39-1.94,5.42-2.01,1.61-.06,3.2-.02,4.64,.84,1.08,.64,2,1.42,2.16,2.9-.24,.24-.39,.1-.61-.13-.2-.08-.28-.14-.33-.32-.18-.26-.35-.43-.61-.65-.13-.07-.19-.08-.29-.16-.37-.24-.63-.48-.97-.8-.24-.17-.41-.28-.63-.46-2.57-.59-4.93-.05-7.23,.92-.52,.22-.98,.63-1.7,.5Z"/>
      <path class="cls-7" d="M55.45,80.14c.05,.91-.68,1.31-1.34,1.7-2.5,1.44-4.88,3.1-7.76,4.04-1.69,.46-3.2,1.1-4.64,1.93-.41,.24-.84,.45-1.38,.66,.4-.9,1.36-1.14,2.19-1.56,.85-.43,1.73-.81,2.64-1.09,2.86-.89,5.38-2.46,7.98-3.86,.86-.46,1.52-1.14,2.32-1.81Z"/>
      <path class="cls-2" d="M136.91,301.3c.67-.65,1.65-.77,2.54-.96,3.98-.85,7.88-1.9,11.72-3.57-1.25,1.15-2.91,1.75-4.57,2.25-3.15,.96-6.34,1.74-9.69,2.28Z"/>
      <path class="cls-5" d="M103.79,38.91c.72-.14,1.25-.52,1.81-.8,2.14-1.08,4.42-1.28,6.76-1.17,.13,0,.26,.15,.43,.35-5.24-.45-9.44,2.05-13.49,4.94-.13,.09-.25,.19-.48,.31,.64-1.32,1.89-2.07,3.2-2.72,.56-.28,1.16-.5,1.77-.91Z"/>
      <path class="cls-18" d="M220.94,88.03c-.15,.09-.27,.08-.49,.07-.11-1.27,0-2.52-.87-3.66-.36-.47-.21-1.33-.31-2-.41-2.68-1.18-5.25-2.14-7.9,.05-.18,.11-.24,.28-.25,.46,.11,.64,.35,.79,.73,0,.35,.2,.54,.29,.86,.07,.23,.12,.38,.16,.64,.88,.91,.58,2.14,1.1,3.19,.06,.2,.09,.3,.08,.47,.21,.9,.54,1.71,.56,2.71,.07,.36,.13,.61,.19,.98,.11,.46,.1,.81,.09,1.26,.05,.38,.1,.66,.14,1.05,.07,.52,.12,.94,.06,1.48,.05,.18,.08,.24,.08,.38Z"/>
      <path class="cls-16" d="M83.66,284.8c.02-.56,.02-1.03,.03-1.65,1.09-.91,2.23-.71,3.49-.25,.27,.32,.34,.57,.32,.97-.47,.63-1.22,1.07-.37,1.96,.01,.35-.06,.56-.33,.8-.77,.25-1.31-.1-1.98-.4-.51-.16-.7-.49-.9-.95-.12-.2-.19-.29-.26-.48Z"/>
      <path class="cls-2" d="M.77,174.55c.35,0,.59,.14,.64,.42,.04,.26,.04,.52,.04,.79,0,2.19,0,4.38-.01,6.56,0,.58,.05,1.19-.8,1.45-.79-1.54-.33-3.18-.37-4.93-.06-1.02,.01-1.91,.13-2.91,.15-.51,.06-.94,.37-1.39Z"/>
      <path class="cls-7" d="M71.08,75.59c-.25-.16-.35-.31-.48-.54,3.12-.08,6.25,.3,9.39,.5,.52,.03,1.05-.05,1.7-.03-.75,1.09-1.97,.85-3,.65-2.47-.5-4.96-.56-7.6-.58Z"/>
      <path class="cls-7" d="M9.91,129.67c-.35,1.14-.63,2.16-1,3.24-.3-1.2,.26-2.34,.59-3.48,.88-3.05,1.78-6.1,3.12-9,.24-.53,.54-1.03,.91-1.59,.34,.23,.32,.52,.17,.83-1.48,3.2-2.48,6.59-3.78,9.99Z"/>
      <path class="cls-6" d="M118.69,58.97c-.02-.93,.62-1.69,.93-2.58,.55-1.59,.57-3.2,.58-4.84,.01-2.36,.54-2.9,3.06-2.99-.11,.28-.41,.21-.65,.32-2.3,1-1.99,.56-1.95,2.77,.05,2.57-.31,5.1-1.97,7.33Z"/>
      <path class="cls-2" d="M9.95,129.73c.56-2.62,1.42-5.21,2.44-7.76,.39-.98,.81-1.95,1.22-3.04,.01-.17,.03-.23,.1-.34,.14-.17,.26-.22,.46-.14,.52,.41,.2,.74,.04,1.04-1.24,2.27-1.98,4.75-2.89,7.16-.39,1.03-.6,2.14-1.38,3.09Z"/>
      <path class="cls-7" d="M1.02,204.07c.31,0,.43,.2,.43,.5,0,2.93,.81,5.73,1.42,8.56,.13,.62,.23,1.24,.44,1.94,.11,.21,.12,.33,.14,.55,.08,.22,.06,.33-.15,.43-.76-.91-.62-2.03-.88-3.05-.72-2.89-1.41-5.8-1.41-8.94Z"/>
      <path class="cls-7" d="M21.51,105.06c.2,.76-.69,1.03-.83,1.81-1.06,.93-1.48,2.18-2.14,3.25-.78,1.26-1.45,2.59-2.26,3.94-.1-.11-.17-.3-.11-.41,1.59-2.95,2.89-6.07,5.34-8.58Z"/>
      <path class="cls-6" d="M128.02,48.63c.42-.34,.92-.22,1.43-.06,1.22,.37,2.32,.98,3.42,1.6,.18,.1,.31,.27,.27,.52-.03,.2-.19,.27-.34,.27-1.45,0-2.73,.66-4.22,.99,.54-.8,1.52-.94,2.43-1.2,.25-.07,.55-.14,.56-.47,.01-.3-.24-.45-.47-.58-.95-.5-1.91-.95-3.09-1.07Z"/>
      <path class="cls-7" d="M.24,178.82c.52,1.47,.17,3.09,.27,4.84,.01,.38,.02,.61,.03,.95,.45,.98,.33,1.88,.06,2.91-.08,.27-.08,.41-.08,.65-.07,.11-.13,.11-.3,.12-.4-1.63-.11-3.27-.19-4.9-.07-1.48,.09-2.97,.21-4.56Z"/>
      <path class="cls-7" d="M.07,192.84c.15,0,.34,.12,.35,.24,.05,3.02,.94,5.97,.63,9.11-.3-.16-.27-.49-.3-.8-.24-2.81-.48-5.62-.67-8.55Z"/>
      <path class="cls-7" d="M138.87,38.92c.33-.03,.49,.19,.46,.47-.2,1.95,.42,3.84,.42,5.78,0,.62,.08,1.26-.37,1.92-.19-1.07,.18-2.26-.21-3.34-.56-1.56-.34-3.12-.3-4.82Z"/>
      <path class="cls-7" d="M173.92,46.07c-1.23-.01-1.93-.53-2.07-1.94-.14-1.51-.62-2.99-1.04-4.57-.43-.62-.69-1.17-.45-1.93,.54,.08,.65,.49,.73,.91,.32,1.6,.81,3.17,1.03,4.8,.24,1.76,.28,1.76,1.79,2.74Z"/>
      <path class="cls-6" d="M198.19,65.92c-1.09,.6-2.37,.73-3.62,1.03-.22,.05-.36-.17-.46-.5,.35-.29,.62-.57,.91-.97,1.14-.62,2.24-1.15,3.45-1.69-.37,.84-1.4,.89-2.14,1.57,.21,.05-.06,.66,.43,.52,.49,.04,.92,.02,1.43,.04Z"/>
      <path class="cls-6" d="M186.08,46.47c.02,.53,0,.95-.52,1.26-1.22-.63-2.57-.26-3.84-.83-.66-.12-1.15-.51-1.85-.38-.19-.06-.25-.13-.3-.34,.02-.14,.04-.26,.09-.29,1.46-.16,2.86-.16,4.38,.07,.46,.05,.81,.06,1.27,.12,.34,.09,.55,.14,.77,.39Z"/>
      <path class="cls-7" d="M28.39,98.57c-.2,.09-.34,.1-.59,.1,1.53-1.9,3.19-3.76,5.31-5.25-.48,1.12-1.52,1.79-2.34,2.67-.75,.81-1.55,1.59-2.38,2.47Z"/>
      <path class="cls-7" d="M136.12,48.86c.05-.18,.05-.24,.09-.39,.97,.43,1.31,1.44,1.95,2.2,.21,.26,.32,.74,.94,.38,1.47,.43,.67,1.08,.09,1.79-.16,.17-.22,.24-.36,.33-.21,.11-.4,.15-.47,0-.7-1.43-1.74-2.68-2.24-4.32Z"/>
      <path class="cls-6" d="M170.42,37.42c.01,.69,.41,1.2,.32,1.93-.35,.1-.59-.07-.71-.4-.67-1.74-1.58-3.41-1.75-5.46,.23-.13,.34-.06,.51,.12,.08,.07,.04,.09,.06,.08,.26,.33,.5,.67,.62,1.19,.05,.21,.1,.31,.13,.51,.05,.56,.54,.85,.55,1.46,.1,.22,.17,.35,.28,.58Z"/>
      <path class="cls-6" d="M210.13,68.14c-.99,.07-1.85-.54-2.81-.82-1.68-.49-3.39-.82-5.16-1.23,2.76-.04,5.36,.85,7.97,2.06Z"/>
      <path class="cls-6" d="M221.83,42.18c.05,.25-.07,.46-.3,.46-1.92,.04-3.4,.92-4.63,2.33-.1,.11-.26,.16-.5,.26,.52-1.36,1.59-2.18,3.01-2.61,.75-.22,1.5-.48,2.42-.45Z"/>
      <path class="cls-7" d="M188.12,68.02c-.85-1.96-.82-3.95-.72-6.09,.55,.27,.34,.85,.34,1.34,.01,1.07,.15,2.12,.3,3.17,.06,.44,.13,.85,.8,.96,.15,.52-.14,.71-.73,.61Z"/>
      <path class="cls-7" d="M.86,174.38c-.08,.49,.05,.93-.32,1.36-.33-2.01,.12-4.05,.34-6.21,.44,.66,.32,1.47,.15,2.23-.15,.63-.19,1.25-.16,2.03,0,.26,0,.38,0,.6Z"/>
      <path class="cls-7" d="M39.82,88.62c.08,.31-.1,.49-.32,.64-1.51,1.02-3.02,2.03-4.64,3.04,.05-.63,.61-.88,1.07-1.2,1.24-.86,2.53-1.67,3.9-2.48Z"/>
      <path class="cls-7" d="M161.65,20.18c-.23,.08-.41-.04-.49-.24-.73-1.78-1.78-3.43-2.17-5.46,.91,1.78,1.78,3.68,2.66,5.7Z"/>
      <path class="cls-7" d="M179.5,46.11c.12,.02,.15,.1,.22,.3-.19,.59-.46,1.05-.61,1.53-.3,.94-.83,1.65-1.84,2.08-.34,.2-.6,.26-.99,.08-.06-.38,.14-.58,.41-.58,1.22,0,1.69-.79,2.03-1.79,.18-.54,.46-1.04,.78-1.63Z"/>
      <path class="cls-5" d="M115.67,39.94c.15-.05,.33,.03,.59,.15,.09,.04,.1,.19,.1,.26,.26,.91,.52,1.75,.77,2.6,.22,.75,.38,1.5-.18,2.28,.3-1.86-.57-3.49-1.28-5.29Z"/>
      <path class="cls-7" d="M131.53,70.14c-.24,1.59-.72,3.16-1.85,4.54,.44-1.51,1.04-3.03,1.85-4.54Z"/>
      <path class="cls-7" d="M5.15,144.97c.09,1.61-.57,3.16-1.06,4.84,.07-1.58,.42-3.19,1.06-4.84Z"/>
      <path class="cls-2" d="M125.12,302.48c1.29-.5,2.71-.24,4.23-.12-1.3,.37-2.71,.19-4.23,.12Z"/>
      <path class="cls-7" d="M184.06,45.93c-1.31,.29-2.71,.26-4.23-.05-.13-.2,0-.38,.14-.34,1.32,.36,2.7-.13,4.09,.39Z"/>
      <path class="cls-7" d="M108.67,297.18c1.44,.31,2.86,.84,4.18,1.77-1.48-.2-2.82-.92-4.18-1.77Z"/>
      <path class="cls-14" d="M139.18,52.92c.08-.61,.54-1.17,.12-1.92-.09-.37-.09-.71-.05-1.16,.09-.16,.15-.2,.31-.21,.18,.38,.06,.83,.66,1.02,.94,.87,.89,1.23-.38,2.29-.28-.02-.42-.02-.66-.01Z"/>
      <path class="cls-2" d="M7.43,137.68c.25,1.52-.12,2.89-1.04,4.17-.44-.33-.13-.67-.04-1.13,.05-.26,.06-.41,.13-.66,.1-.35,.21-.57,.32-.88-.05-.19-.04-.29,.05-.45,.1-.44,.12-.83,.58-1.06Z"/>
      <path class="cls-2" d="M84.59,285.98c.68-.07,1.14,.37,1.8,.56,.61,.35,.76,.83,.61,1.52-.23,.21-.4,.24-.7,.15-.12-.06-.27-.1-.31-.17-.45-.31-.8-.63-1.09-1.14-.09-.13-.14-.16-.23-.29-.15-.22-.19-.37-.1-.64Z"/>
      <path class="cls-7" d="M126.01,44.35c-1.19,.3-2.51,.08-3.9,.47,1.09-.93,2.45-.75,3.9-.47Z"/>
      <path class="cls-7" d="M24.11,102.06c-.46,1.04-1.4,1.76-2.22,2.69,.31-1.15,1.15-1.97,2.22-2.69Z"/>
      <path class="cls-7" d="M167.62,32.18c-.22-.82-.64-1.44-1.03-2.18-.16-.25-.27-.39-.34-.67-.03-.23-.04-.36-.03-.59,1.03,.89,1.29,2.29,1.98,3.57-.24,.3-.39,.14-.58-.12Z"/>
      <path class="cls-7" d="M1.6,165.1c.24,1.16-.13,2.34-.43,3.6-.32-1.18,.04-2.34,.43-3.6Z"/>
      <path class="cls-7" d="M92.99,293.03c1.18,.19,2.26,.83,3.46,1.41-1.28,.07-2.37-.58-3.46-1.41Z"/>
      <path class="cls-6" d="M219.8,79.71c-.44-.11-.68-.53-.66-.91,.04-.77-.47-1.33-.56-2.09,1.13,.65,.76,1.95,1.22,3Z"/>
      <path class="cls-6" d="M135.13,56.83c.55,0,.76,.54,1.27,.84,.04,.56,.73,1.02,.11,1.62-.04-1.02-1.05-1.5-1.39-2.46Z"/>
      <path class="cls-7" d="M174.66,48.97c-.88-.63-.51-1.67-.73-2.66,.78,.64,.6,1.65,.73,2.66Z"/>
      <path class="cls-2" d="M133.09,301.99c.82-.68,1.94-.57,3.14-.7-.85,.55-1.94,.6-3.14,.7Z"/>
      <path class="cls-7" d="M155.35,.32c-1.03-.06-2.02,.45-3.2,.34,.95-.33,1.98-1.09,3.2-.34Z"/>
      <path class="cls-7" d="M108.89,59.05c.81,.68,.98,1.75,1.27,2.85-.75-.71-.92-1.77-1.27-2.85Z"/>
      <path class="cls-2" d="M120.71,301.75c.95-.2,1.92,.13,2.97,.43-.97,.25-1.92-.12-2.97-.43Z"/>
      <path class="cls-7" d="M158.05,11.23c-.73-.64-.82-1.64-.95-2.67,.64,.71,.65,1.68,.95,2.67Z"/>
      <path class="cls-6" d="M188.75,45.73q1.25,.47,.88,1.66c-.92-.03-.99-.65-.96-1.46,0-.13,.05-.19,.08-.2Z"/>
      <path class="cls-6" d="M217.68,48.36c.59,.09,1.02-.41,1.6-.12-.88,.48-1.84,.73-2.88,.02,.02-.11,.11-.13,.32-.19,.37,.08,.62,.18,.96,.28Z"/>
      <path class="cls-7" d="M68.25,74.68c-.7,.53-1.54,.24-2.51,.2,.67-.59,1.56-.19,2.51-.2Z"/>
      <path class="cls-7" d="M121.23,43.84c-.66-.63-.38-1.48-.34-2.43,.55,.63,.26,1.51,.34,2.43Z"/>
      <path class="cls-6" d="M122.92,57.65c.09,.95-.47,1.82-.73,2.87-.19-.97,.31-1.86,.73-2.87Z"/>
      <path class="cls-6" d="M222.89,49.82c.5,.13,.34,.57,.35,1.07-.03,.52,0,.96-.49,1.31-.08,.07-.16,.12-.2,.12-.26-.84,.36-1.55,.35-2.49Z"/>
      <path class="cls-6" d="M220.42,82.88c-.64-.61-.49-1.53-.67-2.5,.52,.63,.55,1.52,.67,2.5Z"/>
      <path class="cls-2" d="M130.2,302.29c.48-.69,1.24-.38,2.04-.26-.56,.32-1.25,.2-2.04,.26Z"/>
      <path class="cls-14" d="M145.9,5.24c.75,.97,.67,1.18-.65,1.59-.03-.57,.3-1.03,.65-1.59Z"/>
      <path class="cls-6" d="M213.72,61.27c.64-.6,1.55-.72,2.53-.94-.64,.58-1.58,.67-2.53,.94Z"/>
      <path class="cls-6" d="M207.75,57.03c-.5,.6-1.22,.34-2.01,.2,.56-.32,1.23-.18,2.01-.2Z"/>
      <path class="cls-18" d="M187.95,68.01c.42-.07,.74-.15,1.02-.51,.07-.13,.11-.17,.23-.21,.74,.91-.18,.96-.72,1.3-.4-.05-.78-.01-.53-.57Z"/>
      <path class="cls-7" d="M132.88,67.03c-.07,.86-.27,1.73-.87,2.54,.09-.85,.28-1.73,.87-2.54Z"/>
      <path class="cls-6" d="M228.92,48.95c-.36-.54-.6-1.18-.57-2.01,.62,.44,.55,1.21,.57,2.01Z"/>
      <path class="cls-7" d="M163.84,24.05c-.73-.39-.7-1.29-1.09-2.07,.79,.36,.93,1.17,1.09,2.07Z"/>
      <path class="cls-7" d="M5.95,143.02c-.45,.4-.2,.96-.57,1.36-.21-.73,.05-1.45,.42-2.23,.12,.21,.14,.48,.16,.87Z"/>
      <path class="cls-7" d="M156.09,2.9c-.54-.54-.6-1.3-.62-2.19,.56,.53,.5,1.34,.62,2.19Z"/>
      <path class="cls-7" d="M104.32,294.81c-.04-.14,.04-.31,.16-.56,.87-.29,1.24,.3,1.66,.93-.34,.21-.55-.02-.76-.23-.28-.27-.57-.4-1.06-.14Z"/>
      <path class="cls-2" d="M88.24,289.8c-.26-.17-.42-.28-.63-.47-.35-.29-.54-.54-.33-1,1.07-.22,1.59,.19,1.62,1.26-.07,.11-.08,.13-.09,.14-.14,.12-.29,.16-.57,.07Z"/>
      <path class="cls-7" d="M166.04,28.22c-.72-.26-.74-1.05-1.07-1.74,.76,.23,.79,1.02,1.07,1.74Z"/>
      <path class="cls-7" d="M99.31,294.97c.57-.16,1.21-.26,1.92,.1-.57,.27-1.21,.15-1.92-.1Z"/>
      <path class="cls-7" d="M14.28,118.4c-.13,.11-.24,.12-.42,.13-.04-.77,.46-1.33,.89-2.01,.3,.67-.31,1.14-.47,1.87Z"/>
      <path class="cls-7" d="M2.58,157.76c.17,.57,.28,1.23-.09,1.96-.23-.58-.2-1.23,.09-1.96Z"/>
      <path class="cls-6" d="M225.55,56.25c.22-.57,.54-1.14,.95-1.75-.08,.63-.12,1.37-.95,1.75Z"/>
      <path class="cls-7" d="M.1,189.66c.69,.43,.42,1.07,.12,1.77-.34-.5-.1-1.08-.12-1.77Z"/>
      <path class="cls-6" d="M176.09,50.06c.33-.04,.57-.03,.94-.02,.04,.87-.56,.99-1.38,.95-.22-.26-.12-.45,.16-.68,.14-.11,.17-.16,.29-.24Z"/>
      <path class="cls-7" d="M186.24,46.56c-.32-.09-.53-.18-.78-.35,.54-.3,1.12,.03,1.84-.1-.06,.56-.54,.4-1.06,.44Z"/>
      <path class="cls-7" d="M106.74,295.9c.72-.14,1.12,.42,1.63,.92-.65,.02-1.18-.32-1.63-.92Z"/>
      <path class="cls-7" d="M151.14,.68c-.4,.55-1.07,.46-1.73,.57,.45-.42,1.02-.61,1.73-.57Z"/>
      <path class="cls-7" d="M88.17,289.83c.12-.1,.27-.11,.53-.1,.33,.31,.54,.61,.78,1.01-.59,.05-.87-.47-1.3-.9Z"/>
      <path class="cls-7" d="M84.87,286.91c.53,.05,.84,.42,1.08,.97-.55-.01-.85-.41-1.08-.97Z"/>
      <path class="cls-6" d="M115.79,63.36c-.02-.57,.4-.88,.95-1.17,0,.56-.49,.81-.95,1.17Z"/>
      <path class="cls-7" d="M110.9,63.6c.57-.05,1.12,.11,1.61,.59-.6,.14-1.11-.15-1.61-.59Z"/>
      <path class="cls-6" d="M124.78,48.53c.31-.61,.85-.47,1.45-.16-.41,.12-.86,.16-1.45,.16Z"/>
      <path class="cls-7" d="M87.17,288.32c.16,.32,.26,.53,.38,.84-.6,.04-.85-.51-1.32-.91,.12-.11,.28-.12,.56-.13,.19,.03,.26,.07,.38,.2Z"/>
      <path class="cls-7" d="M2.26,160.32c.16,.48,.33,1.06-.14,1.67-.24-.5-.06-1.04,.14-1.67Z"/>
      <path class="cls-7" d="M133.53,16.17c.59,.31,.35,.9,.34,1.56-.47-.34-.29-.92-.34-1.56Z"/>
      <path class="cls-6" d="M131.51,55.23c.29-.68,.85-.44,1.45-.13-.41,.1-.86,.12-1.45,.13Z"/>
      <path class="cls-7" d="M128.24,44.71c-.46,.29-.98,.22-1.57-.08,.47-.37,.98-.1,1.57,.08Z"/>
      <path class="cls-7" d="M175.78,50.24c.03,.19-.07,.39-.21,.66-.43,.13-.72,0-.97-.44-.08-.15-.11-.21-.13-.37,.04-.15,.09-.2,.23-.25,.29,.33,.53,.58,1.09,.4Z"/>
      <path class="cls-6" d="M206.04,61.6c.29-.53,.8-.38,1.38-.23-.35,.3-.84,.16-1.38,.23Z"/>
      <path class="cls-7" d="M7.55,137.58c-.35,.32-.27,.74-.57,1.04-.26-.56,.13-1.05,.38-1.65,.12,.12,.16,.29,.19,.6Z"/>
      <path class="cls-6" d="M202.84,62.22c.35-.48,.92-.54,1.62-.58-.36,.43-1,.36-1.62,.58Z"/>
      <path class="cls-6" d="M199.01,63.63c.19-.71,.89-.57,1.57-.74-.33,.42-.95,.46-1.57,.74Z"/>
      <path class="cls-6" d="M126.43,62.08c-.51-.29-.63-.8-.21-1.46,.12,.41,.15,.87,.21,1.46Z"/>
      <path class="cls-7" d="M170.2,36.85c-.49-.2-.64-.66-.66-1.27,.42,.23,.72,.62,.66,1.27Z"/>
      <path class="cls-2" d="M3.2,216.18c.11-.16,.18-.23,.24-.39,.46,.1,.69,.36,.35,.9-.16,.06-.25,.06-.41,.05-.11-.14-.15-.29-.18-.55Z"/>
      <path class="cls-7" d="M169.52,34.91c-.48-.16-.55-.6-.67-1.13,.51,.12,.57,.61,.67,1.13Z"/>
      <path class="cls-6" d="M223.93,42.53c-.38,.12-.83,.26-1.3-.15,.39-.22,.81-.08,1.3,.15Z"/>
      <path class="cls-5" d="M115.29,45.99c-.03,.61-.56,.69-1.15,.82,.13-.48,.65-.55,1.15-.82Z"/>
      <path class="cls-7" d="M84.6,285.81c.07,.21,.08,.35,.07,.6-.54-.09-.62-.61-.81-1.14,.41-.1,.49,.24,.74,.54Z"/>
      <path class="cls-7" d="M1.84,163.1c.37,.31,.31,.69,0,1.13-.27-.32-.15-.69,0-1.13Z"/>
      <path class="cls-7" d="M97.01,294.69c.38-.18,.83-.25,1.35,.09-.4,.37-.84,.14-1.35-.09Z"/>
      <path class="cls-6" d="M221.4,58.43c.16-.52,.63-.63,1.25-.67-.22,.41-.71,.49-1.25,.67Z"/>
      <path class="cls-6" d="M118.06,60.59c-.09-.39-.26-.86,.26-1.26,.06,.39,.11,.83-.26,1.26Z"/>
      <path class="cls-6" d="M197.22,59.81c-.07,.55-.57,.64-1.14,.76,.16-.43,.68-.47,1.14-.76Z"/>
      <path class="cls-6" d="M208.61,61.52c.28-.39,.66-.34,1.11-.06-.3,.09-.67,.1-1.11,.06Z"/>
      <path class="cls-6" d="M121.89,61.38c.22,.37,.21,.83,.16,1.47-.5-.3-.31-.85-.16-1.47Z"/>
      <path class="cls-6" d="M127.75,62.36c-.2,.7-.65,.59-1.17,.05,.32,.01,.67,.14,1.17-.05Z"/>
      <path class="cls-6" d="M122.26,63.56c.57,.06,.65,.57,.79,1.14-.49-.12-.56-.63-.79-1.14Z"/>
      <path class="cls-6" d="M213.32,69.76c-.46,.13-.86-.1-1.26-.5,.47-.15,.82,.2,1.26,.5Z"/>
      <path class="cls-6" d="M214.92,70.71c-.5,.11-.94-.08-1.28-.63,.48-.05,.83,.3,1.28,.63Z"/>
      <path class="cls-6" d="M220.69,85.14c-.44-.21-.37-.6-.2-1.08,.35,.24,.2,.63,.2,1.08Z"/>
      <path class="cls-6" d="M220.45,48.4c.48-.48,.79,.01,1.19,.36-.43,.2-.73-.17-1.19-.36Z"/>
      <path class="cls-7" d="M139.67,49.54c-.07,.13-.13,.15-.28,.17-.33-.35-.22-.75-.17-1.21,.56,.11,.44,.54,.46,1.04Z"/>
      <path class="cls-7" d="M15.79,114.73c.14,.51-.11,.91-.58,1.27-.14-.51,.2-.86,.58-1.27Z"/>
      <path class="cls-6" d="M167.56,32.2c.16-.02,.31,.08,.55,.2,.09,.02,.18,.09,.18,.14,.07,.22,.09,.4,0,.7-.06,.12-.1,.14-.11,.15-.69-.08-.64-.59-.63-1.19Z"/>
      <path class="cls-7" d="M285.41,256.43c-.15-.46,.12-.75,.61-.99,.11,.44-.26,.67-.61,.99Z"/>
      <path class="cls-6" d="M128.91,56.94c-.04-.45,.24-.71,.77-.83-.05,.37-.38,.58-.77,.83Z"/>
      <path class="cls-5" d="M96.29,45.2c-.12-.45,.13-.74,.65-.92,.05,.42-.32,.61-.65,.92Z"/>
      <path class="cls-7" d="M34.39,92.44c.04,.49-.3,.7-.8,.82-.04-.49,.35-.65,.8-.82Z"/>
      <path class="cls-7" d="M57.43,78.05c.05,.42-.25,.63-.66,.83-.12-.47,.22-.65,.66-.83Z"/>
      <path class="cls-5" d="M113.47,37.98c.44-.13,.75,.08,.95,.6-.43,.1-.63-.28-.95-.6Z"/>
      <path class="cls-6" d="M220.91,87.68c-.36-.28-.23-.72-.17-1.27,.46,.26,.19,.74,.17,1.27Z"/>
      <path class="cls-6" d="M227.89,52.1c-.18-.3-.3-.68,.12-1.07,.3,.33,.11,.66-.12,1.07Z"/>
      <path class="cls-7" d="M108.66,53.63c.35,.18,.3,.47,.08,.82-.25-.21-.16-.48-.08-.82Z"/>
      <path class="cls-7" d="M84.27,75.67c-.22,.36-.52,.29-.86-.01,.24-.23,.52-.08,.86,.01Z"/>
      <path class="cls-7" d="M108.6,56.51c.37,.13,.36,.42,.21,.8-.3-.16-.23-.45-.21-.8Z"/>
      <path class="cls-6" d="M216,45.7c.18,.28,.23,.62-.04,1.04-.25-.28-.11-.63,.04-1.04Z"/>
      <path class="cls-7" d="M3.23,153.58c.16,.28,.2,.62-.1,1.02-.33-.3-.07-.62,.1-1.02Z"/>
      <path class="cls-7" d="M2.88,155.48c.17,.28,.23,.63-.07,1.04-.3-.29-.1-.63,.07-1.04Z"/>
      <path class="cls-7" d="M6.3,140.71c.46,.31-.03,.62-.02,1.08,0,.1-.16,.13-.23,.12-.19-.42,.04-.76,.25-1.2Z"/>
      <path class="cls-7" d="M168.31,33.4c-.08-.22-.08-.39-.05-.68,.39,.06,.45,.43,.6,.85-.16,.03-.32-.04-.55-.17Z"/>
      <path class="cls-7" d="M148.3,1.3c-.02,.39-.32,.41-.7,.45-.07-.48,.3-.45,.7-.45Z"/>
      <path class="cls-6" d="M130.18,55.91c0-.29,.19-.42,.57-.41-.02,.25-.26,.32-.57,.41Z"/>
      <path class="cls-7" d="M158.7,13.17c-.33-.03-.41-.26-.34-.66,.28,.06,.31,.32,.34,.66Z"/>
      <path class="cls-2" d="M119.37,301.45c.19-.17,.43-.19,.75,.04-.19,.22-.45,.13-.75-.04Z"/>
      <path class="cls-6" d="M200.1,58.6c-.03,.31-.27,.39-.67,.32,.06-.27,.33-.27,.67-.32Z"/>
      <path class="cls-6" d="M219.79,59.08c.01-.31,.25-.41,.65-.36-.05,.26-.33,.27-.65,.36Z"/>
      <path class="cls-6" d="M126.73,59.72c-.15-.24-.13-.5,.24-.72,.01,.2-.07,.43-.24,.72Z"/>
      <path class="cls-6" d="M215.3,72.12c-.06-.2-.05-.39-.02-.71,.31,0,.31,.29,.39,.64,0,.1-.15,.11-.15,.11,0,0-.15-.02-.22-.03Z"/>
      <path class="cls-7" d="M156.46,4.86c-.33-.02-.42-.25-.35-.64,.28,.06,.31,.31,.35,.64Z"/>
      <path class="cls-6" d="M212.41,61.62c.07-.26,.28-.36,.66-.32-.04,.29-.32,.3-.66,.32Z"/>
      <path class="cls-7" d="M103.6,295.23c.03-.24,.18-.36,.5-.39,.07,.32-.16,.41-.5,.39Z"/>
      <path class="cls-6" d="M224.59,56.92c-.05-.28,.12-.44,.51-.47,.04,.29-.21,.36-.51,.47Z"/>
      <path class="cls-5" d="M113.71,46.97c.05,.28-.1,.45-.49,.49-.05-.28,.2-.36,.49-.49Z"/>
      <path class="cls-6" d="M195.31,61.06c.05,.27-.09,.43-.45,.49-.06-.27,.17-.36,.45-.49Z"/>
      <path class="cls-6" d="M201.55,62.61c.02-.33,.26-.41,.67-.35-.06,.28-.33,.29-.67,.35Z"/>
      <path class="cls-7" d="M156.72,6.13c-.29-.04-.36-.21-.21-.51,.27,.07,.24,.27,.21,.51Z"/>
      <path class="cls-6" d="M214.6,57.01c-.18,.02-.35-.02-.57-.12,.11-.12,.27-.18,.52-.2,.09,.11,.09,.19,.06,.32Z"/>
      <path class="cls-6" d="M136.1,59.96c.12,.23,.06,.45-.26,.63-.12-.23,.04-.41,.26-.63Z"/>
      <path class="cls-7" d="M157.08,7.42c-.32-.05-.39-.29-.31-.67,.29,.07,.32,.33,.31,.67Z"/>
      <path class="cls-2" d="M152.25,296.29c-.04-.3,.16-.46,.56-.47-.09,.16-.28,.31-.56,.47Z"/>
      <path class="cls-7" d="M133.83,64.75c.21,.23,.12,.44-.14,.67-.24-.23-.09-.43,.14-.67Z"/>
      <path class="cls-7" d="M90.74,291.74c.25-.11,.49-.05,.64,.31-.26,.13-.45-.03-.64-.31Z"/>
      <path class="cls-7" d="M89.77,291.1c.23-.11,.47-.07,.64,.26-.24,.14-.44,0-.64-.26Z"/>
      <path class="cls-6" d="M218.19,59.68c.04-.29,.27-.37,.65-.32-.06,.26-.32,.27-.65,.32Z"/>
      <path class="cls-2" d="M117.51,300.76c.23-.17,.49-.16,.75,.18-.23,.15-.46,.03-.75-.18Z"/>
      <path class="cls-7" d="M86.82,76.31c-.14,.35-.34,.26-.58,0,.15-.06,.33-.06,.58,0Z"/>
      <path class="cls-5" d="M114.74,38.94c.28-.11,.54-.02,.64,.43-.2-.04-.4-.19-.64-.43Z"/>
      <path class="cls-7" d="M120.02,39.74c-.3,.04-.42-.17-.47-.51,.3-.03,.39,.2,.47,.51Z"/>
      <path class="cls-7" d="M90.51,77.71c-.25,.18-.49,.1-.73-.22,.24-.13,.46-.01,.73,.22Z"/>
      <path class="cls-7" d="M8.06,134.77c.18,.19,.15,.4-.07,.65-.36-.21-.15-.41,.07-.65Z"/>
      <path class="cls-6" d="M228.32,49.82c.09-.11,.17-.12,.32-.13,.17,.25,.01,.42-.22,.62-.09-.11-.1-.25-.1-.49Z"/>
      <path class="cls-7" d="M3.53,151.95c.14,.19,.16,.43-.08,.73-.27-.2-.08-.44,.08-.73Z"/>
      <path class="cls-7" d="M3.87,150.36c.14,.19,.15,.42-.08,.72-.27-.2-.06-.43,.08-.72Z"/>
      <path class="cls-7" d="M129.89,45.02c-.19,.19-.4,.18-.67-.04,.19-.33,.41-.11,.67,.04Z"/>
      <path class="cls-5" d="M116.27,45.48c-.02,.28-.21,.38-.57,.36,0-.3,.24-.34,.57-.36Z"/>
      <path class="cls-7" d="M6.72,139.16c.17,.21,.21,.47-.1,.75-.2-.22-.09-.45,.1-.75Z"/>
      <path class="cls-6" d="M217.49,74.25c-.03,.11-.1,.12-.27,.15-.2-.15-.31-.32-.4-.6,.3-.06,.43,.19,.67,.45Z"/>
      <path class="cls-7" d="M161.78,21c-.05-.13-.04-.19,0-.34,.29-.02,.4,.21,.51,.52-.2,.12-.33,.01-.51-.18Z"/>
      <path class="cls-6" d="M226.8,54.4c-.06-.23,.03-.41,.32-.53,.18,.29-.04,.4-.32,.53Z"/>
      <path class="cls-6" d="M227.34,53.13c-.33-.21-.22-.4,.16-.54,.02,.15-.04,.32-.16,.54Z"/>
      <path class="cls-7" d="M164.73,25.68c-.3,0-.4-.21-.39-.55,.33-.03,.39,.21,.39,.55Z"/>
      <path class="cls-7" d="M62.87,75.18c-.07,.27-.27,.39-.65,.36,.03-.31,.31-.35,.65-.36Z"/>
      <path class="cls-7" d="M19.81,257.12c.33-.09,.5,.1,.54,.51-.33,.07-.42-.19-.54-.51Z"/>
      <path class="cls-6" d="M218.54,75.87c-.34-.02-.43-.25-.37-.66,.27,.06,.31,.33,.37,.66Z"/>
      <path class="cls-7" d="M85.55,75.97c-.16,.38-.37,.23-.59-.05,.16-.06,.34-.04,.59,.05Z"/>
      <path class="cls-7" d="M128.99,75.59c.2,.27,.05,.49-.26,.7-.15-.26,0-.47,.26-.7Z"/>
      <path class="cls-7" d="M174.38,50.03c.02-.25,.07-.4,.2-.58,.13,.07,.19,.16,.23,.33-.01,.08-.12,.18-.17,.22-.11,.07-.17,.1-.26,.04Z"/>
      <path class="cls-7" d="M114.46,64.3c-.07-.09-.02-.18,.18-.21,.03,.09-.04,.14-.18,.21Z"/>
      <path class="cls-15" d="M87.3,283.4c-1.1-.69-2.23-.34-3.46-.41-.26,0-.38-.02-.58-.05-.3-.08-.47-.23-.73-.45-2.28-2.41-4.06-4.99-4.86-8.16-.27-1.04-1.1-1.34-2.21-1.07-.42,.09-.75,.11-1.2,.16-.38,.22-.68,.34-1.05,.54-.37,.3-.65,.55-1,.87-1.12,.14-1.81,.92-2.76,1.45-1.68,.11-2.91,1.24-4.56,1.44-1.26,.39-2.42,.75-3.58,1.09-.2,.06-.44,.07-.55,.27-1.02,1.96-2.9,1.24-4.48,1.45-.2,.03-.42-.06-.63-.06-3.25,.02-6.39-.65-9.59-1.66-3.08-1.65-5.9-3.47-8.36-5.81-.11-.1-.27-.16-.5-.26-.92-1.05-1.45-2.29-2.53-3.12-2.88-2.19-5.41-4.78-8.05-7.23-1.16-1.08-2.15-2.34-3.25-3.49-2.2-2.29-3.49-5.19-5.14-7.84-1.36-2.2-2.48-4.57-3.44-7-1.61-4.05-3.37-8.03-4.81-12.15-1.22-3.46-2.11-7-2.79-10.6-.27-1.42-.7-2.77-1.67-3.9-.1-.12-.22-.26-.25-.4-.31-1.86-1.52-3.5-1.27-5.49,.09-.71-.28-1.33-.54-2.08,0-1.42-.32-2.72-.47-4.02-.17-1.46-.17-2.96-.56-4.53-.14-.3-.14-.51-.24-.8,.34-1.15-.06-2.19-.09-3.36,0-2.47,.04-4.81,.01-7.16-.02-1.97,.36-3.9,.52-5.85,.2-2.43,.73-4.82,.79-7.27,.06-2.31,.23-4.62,.49-6.93,.27-2.36,.47-4.75,.74-7.12,.19-1.69,.25-3.39,.84-5.01,.07-.2,.15-.42,.14-.62-.16-1.85,.63-3.54,.87-5.32,.16-1.2,.28-2.42,.4-3.63,.36-3.87,1.3-7.61,2.29-11.35,.6-2.26,1.64-4.35,2.06-6.68,.36-1.98,1.5-3.73,2.3-5.59,.98-2.28,2.05-4.52,3.03-6.8,.32-.75,.91-1.3,1.31-1.99,1.07-1.89,2.23-3.73,3.31-5.61,.72-1.26,1.82-2.22,2.75-3.3,1.38-1.61,2.67-3.3,4.07-4.9,2.04-2.34,4.31-4.37,6.77-6.25,1.93-1.48,3.76-3.12,5.74-4.54,1.85-1.32,3.48-2.97,5.69-3.95,1.86-.45,3.48-1.31,5.03-2.17,1.9-1.05,3.82-2.08,5.66-3.23,.95-.6,1.81-1.24,2.24-2.37,.38-1,1.39-1.23,2.29-1.54,2.47-.85,5.03-.65,7.57-.66,.61,0,1.31,.18,1.82-.6,.34-.23,.6-.2,.98-.13,.24,.06,.36,.06,.57,.06,.24-.1,.4-.14,.68-.05,.3,.16,.49,.33,.67,.32,1.86-.04,3.68,.43,5.55,.41,3.6-.03,7.06,.77,10.35,2.27,1.84,.84,3.61,1.82,5.45,2.66,1.08,.49,1.95,1.45,2.95,2.15,1.97,1.37,3.17,3.4,4.48,5.31,.84,1.23,1.99,2.21,2.69,3.55,.28,.53,.69,.37,1.06,.04,.56-.51,.7-1.49,.28-2.2-.25-.41-.51-.82-.85-1.15-2.9-2.88-5.44-6.12-8.78-8.54-.46-.34-1.06-.53-1.29-1.24,.76-.62,1.75-.66,2.64-.8,1.68-.27,3.08-1.13,4.56-1.83,.64-.3,1.24-.54,1.95-.58,1.26-.06,2.45-.57,3.7-.8,1.96-.36,3.72,.14,5.44,.77,1.73,.63,3.34,1.58,4.98,2.43,1,.51,1.94,1.12,2.67,1.99,.46,.55,.94,.86,1.63,.36,.43-.31,.88-.36,1.44,.03,.07,.46,.03,.88-.03,1.42-.05,.32-.19,.48-.25,.78-.66,1.7-1.51,3.1-3.18,3.88-.66,.31-1.22,.85-1.81,1.3-2.98,2.27-6.38,3.78-9.68,5.48-1.15,.59-2.4,1.02-3.51,1.92,.72,.57,1.22,.12,1.7-.1,1.93-.88,3.83-1.83,5.8-2.64,1.4-.57,2.89-.54,4.29-1.11,2.28-.92,4.75-1.01,7.18-1.16,2.21-.13,4.44-.17,6.62,.22,2.19,.39,4.06,1.34,4.62,3.81,.15,.68,.53,1.27,.86,1.88,.43,.8,.08,1.42-.81,1.44-.39,.01-.58,.13-.77,.41-1.21,1.81-2.23,3.75-3.56,5.48-.45,.58-.25,1.13,.14,1.6,.5,.6,.98,.08,1.4-.18,1.99-1.24,4.15-1.92,6.47-2.02,1.16-.05,1.16,0,.89,1.16-.05,.21-.14,.4-.18,.61-.05,.29,.04,.55,.33,.65,.23,.08,.38-.09,.51-.27,1.43-2.06,3.59-3.23,5.78-4.12,2.19-.88,4.59-1.44,7.01-.63,2.25,.76,4.66,1.12,6.65,2.57,1.09,.79,1.97,1.79,2.91,2.73,1.52,1.5,3.02,3.01,4.53,4.52,.75,.75,1.67,1.22,2.84,1.78-.28-.97-.83-1.47-1.2-2.08-.92-1.51-.85-2.21,.28-3.59,1.23-1.5,2.84-2.4,4.62-3.01,3.53-1.2,7.11-1.66,10.84-1.04,1.51,.25,3.05,.38,4.57,.68,.29,.06,.64,.13,.89-.19,.03-.49-.35-.59-.7-.69-1.95-.54-3.89-1.13-5.92-1.26-1.37-.09-2.59-.48-3.67-1.35-.61-.5-1.3-.92-2.02-1.46-.16-.23-.19-.38-.1-.65,.15-.17,.24-.23,.36-.37,.37-.33,.72-.55,1.22-.69,.24-.03,.38-.04,.62-.08,1-.47,1.97-.69,3.01-1.05,.52-.05,.93-.06,1.47-.08,1.32-.12,2.52-.02,3.84-.08,.36-.02,.6-.04,.95-.09,.28-.09,.43-.18,.69-.24,.23-.02,.37-.03,.61-.05,.34-.17,.6-.24,.98-.28,.55-.12,1.01-.22,1.57-.36,.35-.18,.61-.24,.99-.28,.24-.03,.38-.04,.62-.08,.56-.22,1.03-.41,1.62-.52,.34-.03,.58-.05,.92-.1,.28-.09,.43-.18,.69-.23,.32-.02,.56-.03,.91-.06,1.63-.45,3.16-.22,4.83-.12,.6,.09,1.05,.13,1.6,.16,.07-.41-.46-.67-.79-1.09-.23-.07-.36-.1-.61-.12-.47-.06-.84-.02-1.3-.18-1.61-.35-2.98-.95-4.38-1.8-.51-.95,.29-.93,.77-1.05,1.9-.48,3.82-.8,5.91-.87,.5,.1,.84,.39,1.38,.22,1.76-.5,3.42-.36,5.21-.18,.4,.16,1.13-.24,.61,.8-.74,1.94-1.34,3.8-2.1,5.61-1.27,3-3.56,4.82-6.26,6.31-1.54,.85-3.16,1.51-4.74,2.26-2.46,1.17-5.01,2.25-7.21,3.93-1.01,.77-2.14,1.34-3.16,2.12-2.55,1.97-3.41,4.61-3.69,7.61-.02,.26,0,.54-.02,.8-.3,2.33,.24,2.66,2.11,3.47,2.91,1.26,5.96,1.5,9.08,1.29,.97-.07,1.85-.34,2.55-1.12,1.05-1.16,2.62-1.64,3.76-2.68,1.93-1.75,3.35-3.81,3.34-6.58,0-.72-.28-1.08-.95-1.23-1-.22-1.94-.25-2.95,.14-2.54,.98-4.67,2.5-6.48,4.51-.56,.61-1.14,1.15-2.08,1.35-.96,.21-1.43-.19-1.83-.84-.79-1.3-.47-2.64,.77-3.64,1-.81,2.07-1.46,3.27-1.96,3.09-1.27,6.08-2.81,9.23-3.87,1.86-.63,3.57-1.6,5.45-2.16,1.69-.51,2.78-1.88,4-3.06,2.55-2.46,3.65-5.67,4.78-9.01,.22-.5,.23-.93,.32-1.45,.07-.24,.12-.38,.18-.63,.29-.3,.62-.41,.92-.28,2.39,1.07,5,1.8,6.69,4.22,1.15,1.88,.87,2.53-.92,3.43-2.82,1.41-6,1.88-8.73,3.49-.59,.35-1.26,.58-1.79,1.13,3.29-.68,6.38-1.81,9.5-2.91,4.98-1.75,10.13-2.75,15.49-2.59,5.55,.16,10.81,1.69,16.15,2.88,.58,.13,1.1,.4,1.72,.74,.73,.58,1.45,.93,2.17,1.27,4.17,1.99,7.57,4.84,10.1,8.74,1.07,1.64,2.29,3.18,3.72,4.56,1.11,1.06,2.11,2.25,3.08,3.44,1.13,1.39,1.67,3.07,2.16,4.76,.22,.76,.49,1.45,1.29,1.89,.91,.51,1.36,1.46,1.84,2.49,.22,.31,.4,.5,.6,.8-.18,1.22,.88,1.9,1.03,3.02,.14,.26,.25,.42,.32,.71,.76,2.03,1.5,3.96,2.26,6.01,.71,.88,.9,1.89,1.26,2.9,.09,.66,.22,1.22,.38,1.89,.1,.28,.21,.43,.28,.7,.04,.91,.7,1.55,.68,2.5,.4,.68,.47,1.35,.77,2.05,.05,1.94,.95,3.58,1.24,5.36,.49,3.06,1.78,5.89,2.61,8.85,1.16,4.14,2.12,8.31,2.44,12.64,.21,2.91,.82,5.81,.54,8.73-.3,3.17-.08,6.36-.49,9.53-.12,.94,.32,1.97,.55,2.95,.36,1.52,.26,3.06,.32,4.6,.18,4.6-.45,9.11-1.36,13.6-.56,2.75-1.19,5.49-1.77,8.23-.1,.46-.12,.95-.12,1.43,0,1.12,.1,2.23-.25,3.33-.09,.3-.07,.64,.19,1.02,.19,.21,.24,.35,.18,.62-.22,1.08,.01,2.09-.42,3.16,.03,.18,.07,.24,.04,.36-1.21,2.31-2.11,4.64-2.51,7.11-.41,2.58-1.46,4.89-2.71,7.12-2.92,5.2-6.77,9.67-11.22,13.61-.95,.84-2.03,1.57-3.16,2.15-1.62,.83-2.98,2.04-4.58,2.89-.71,.38-1.41,.73-2.21,.87-.88,.16-1.49,.55-1.95,1.41-.84,1.54-1.51,3.16-2.29,4.73-.5,1-1.08,1.94-1.57,2.95-.65,1.34-2,1.96-3.39,2.43-1.82,.62-3.72,.83-5.59,1.21-1.28,.26-2.46-.02-3.61-.72-.25,.26-.35,.47-.14,.8,.04,.57,.03,1.05,.04,1.65-.08,.37-.28,.53-.49,.8-.06,.07-.1,.21-.11,.28-.16,.28-.34,.44-.58,.69-1.02,.71-1.72,1.68-2.88,2.21-.24,.28-.44,.46-.74,.66-.33,.08-.57,.13-.88,.24-.76,.84-1.87,.85-2.75,1.52-.3,.17-.52,.23-.85,.28-.54,.04-.96,.1-1.41,.41-.23,.11-.36,.15-.6,.22-.47,.09-.77,.29-1.19,.52-.97,.34-1.83,.7-2.87,.81-.34,.04-.57,.07-.88,.2-1.26,.53-2.5,.69-3.83,.99-.33,.08-.56,.11-.89,.21-.26,.07-.41,.11-.67,.17-.35,.07-.57,.14-.92,.24-2.43,.44-4.72,.94-7.16,1.37-.45,.05-.78,.04-1.21,.18-.36,.09-.6,.12-.96,.15-.67,.04-1.23-.04-1.89,.17-.5,.12-.9,.14-1.41,.17-.35,.02-.59,.05-.93,.15-.27,.07-.43,.1-.71,.14-1.2-.02-2.23,.27-3.39,.52-.54,.13-.96,.14-1.51,.16-.63,.01-1.14-.04-1.75,.17-.55,.13-.99,.15-1.56,.16-1.2-.09-2.22,.19-3.23,.47-.99,.28-1.98,.11-3.11,.05-.79,.01-1.45,.03-2.25,.07-.56,.3-1.04,.23-1.62,.25-.88,.02-1.64,.03-2.54,.07-.78,.38-1.47,.21-2.28,.21-.25-.02-.38-.02-.6-.02-.46,.06-.82,.05-1.29,.06-2.89,.01-5.68,.02-8.61,.05-2.28,.5-4.43,.24-6.71,.11-.69-.1-1.25-.13-1.94-.16-.91-.06-1.69,.09-2.57-.18-.67-.09-1.22-.12-1.91-.14-1.32-.06-2.49,.02-3.8,.13-2.38-.08-4.55-.7-6.83-1.12-.07-.11-.18-.22-.21-.23-1.02-.94-2.03-.49-2.92,.08-1.68,1.06-3.52,1.74-5.31,2.54-1.63,.73-3.35,1.17-5.05,1.36-2.25,.25-4.32,1.02-6.49,1.52-1.87,.43-3.75,.64-5.63,.93-3.28,.5-6.47,.02-9.65-.46-1.92-.29-3.76-1.12-5.6-1.8-2.72-1.01-5.16-2.56-7.13-4.68-.92-.99-2.05-.9-3.07-1.03-3.16-.38-6.05-1.57-8.96-2.71-.74-.29-1.48-.59-2.34-.88-.23,.09-.37,.14-.62,.13-.36-.14-.57-.35-.96-.45-1.86-.77-3.29-2.08-5.15-2.87-.32-.62-.92-.84-1.26-1.3,.34-.51,.82-.28,1.31-.4,.46-.18,.42-.44,.24-.82Z"/>
      <path class="cls-11" d="M181.67,46.93c.68-.1,1.41-.1,2.14-.1,.64,0,1.25,.08,1.64,.83-.21,.34-.28,.66,.08,.7,.96,.12,.9,.58,.66,1.32-.29,.9-.47,1.84-.62,2.78-.12,.76-.38,1.59,.43,2.31,.77,1.01,.69,2,.2,3.13-.09,.76-.05,1.41-.1,2.04-.41,5.48,1.13,10.6,2.72,15.74,.99,3.2,2.67,6.17,3.38,9.43,.58,2.65,2.44,3.82,4.42,5.05,.59,.36,1.18,.71,1.78,1.06,.24,.14,.47,.3,.42,.61-.05,.31-.31,.4-.59,.42-1.39,.07-2.69,.59-4.03,.89-1.92,.42-3.85,.74-5.82,.72-3.56-.02-7.09,.33-10.59,.97-.21,.04-.44,.05-.61,.16-.62,.36-1.53,.41-1.62,1.35-.1,1,.37,1.74,1.19,2.28,.62,.41,1.24,.83,1.85,1.25,.26,.18,.55,.34,.76,.57,.33,.36,.32,.72-.25,.75-1.44,.08-2.82,.46-4.24,.64-2.64,.35-4.7,1.54-6.13,3.81-.52,.83-.73,1.75-.98,2.69-.61-.06-.89-.57-1.21-.94-2.04-2.36-4.57-4.16-7.06-5.94-2.26-1.61-4.89-2.31-7.82-1.93-1.96,.25-3.85,.74-5.76,1.12-1.03,.21-2.02,.71-2.78,1.5-.6,.63-1.17,.93-1.87,.15-.35-.4-.82-.44-1.32-.43-.95,.02-1.91-.08-2.79,.21-.45-.37-.22-.72-.05-1.03,.63-1.12,1.41-2.07,2.49-2.84,4.49-3.21,9.4-5.58,14.55-7.46,2.48-.91,5.12-1.41,7.53-2.56,2.77-1.32,5.65-2.45,8.19-4.19,1.76-1.21,3.6-2.26,5.53-3.17,.97-.46,1.82-1.09,2.67-1.73,.81-.62,1.3-1.4,1.54-2.34,.59-2.38,1.42-4.68,2.38-6.93,.49-1.14,.74-2.37,.83-3.55,.13-1.69,.57-3.36,.43-5.07-.05-.59,0-1.18-.52-1.61-.56-.46-.35-.96-.03-1.41,.32-.45,.56-.85,.28-1.45-.22-.46,.08-.93,.3-1.36,.96-1.86,.52-3.86,.57-5.81,.01-.4-.31-.66-.57-.93-.52-.54-1.04-1.07-1.6-1.7Z"/>
      <path class="cls-11" d="M139.71,53.06c.74-.67,.97-1.39,.72-2.32-.2-2.54,.47-4.97,.24-7.59,.36-.49,.39-.86,.07-1.35-.15-2.48-.77-4.78-1.48-7.05-.08-.25-.13-.51-.2-.89,0-.32-.06-.49-.25-.7-.07-.06-.07-.22-.07-.3-.14-.91-.09-1.6,1.16-1.43,1.26,1.5,2.41,2.93,3.6,4.45,.26,.34,.31,.69,.63,.99,1.23,1.48,2.23,2.94,1.71,4.92-.13,.52,.05,.94,.54,1.2,.37,.2,.73,.42,1.21,.65,.71,.53,1.48,.58,2.27,.91,.58,0,1,.23,1.57,.37,.24,.16,.38,.27,.67,.32,.27,.06,.45,.11,.68,.25,.36,.45,.82,.62,1.27,.97,.31,.07,.55,.07,1.01,.1,.5,.17,.69,.39,.89,.76,.11,.59,.44,.85,.96,1.07,.19,.09,.27,.15,.37,.31,.47,.51,.85,1.01,1.55,1.29,.19,.1,.27,.15,.37,.31,.29,.46,.47,.91,.93,1.28,1.73,.97,1.83,2.65,1.96,4.2,.29,3.44-.58,6.71-1.74,9.91-.23,.64-.62,1.22-1.02,1.89-.23,.2-.35,.34-.4,.62-.09,.35-.17,.61-.29,.96-.47,.54-.98,.92-1.26,1.61-.1,.19-.16,.27-.31,.37-.46,.29-.91,.47-1.28,.93-.1,.18-.16,.26-.32,.35-.47,.28-.91,.46-1.28,.92-.07,.07-.07,.07-.07,.07-.25,.21-.59,.27-.89,.58-.22,.4-.45,.63-.92,.7-1.35,.66-2.7,1.15-3.87,2.17-.18,.26-.32,.36-.62,.4-.71,.35-1.41,.55-1.95,1.21-.07,.08-.08,.07-.08,.07-2.07,1.13-4.07,2.4-6.32,3.43-.44,.18-.79,.29-1.25,.4-3.09,.75-6.12,1.33-8.99,2.8-.34,.19-.59,.29-.94,.4-.73,.02-1.38,.08-1.94-.56-.04-.75-.22-1.45,.19-2.21,.25-.39,.62-.42,.93-.68,.07-.21,.07-.35,.08-.6,.36-.54,.57-1.05,.89-1.63,.09-.19,.15-.27,.3-.37,1.36-1.71,2.16-3.63,2.89-5.7,.06-.1,.07-.25,.07-.33,1.07-1.45,1.51-3.12,2.23-4.77,.3-1.5,1.15-2.69,1.57-4.16,.67-.94,.93-1.97,1.58-2.91,.08-.53,.3-.89,.62-1.3,.23-.18,.35-.33,.4-.61,0-.48,.18-.81,.37-1.12,1.02-1.67,1.43-3.46,1.24-5.55Z"/>
      <path class="cls-9" d="M128.98,89.82c-1.52-.05-2.9-.05-4.25-.05-.25-.61,.18-.75,.45-.95,2.87-2.12,6.14-3.36,9.59-4.12,2.49-.55,4.88-1.43,7.28-2.25,3.07-1.05,6.23-1.73,9.41-2.27,2.18-.37,4.42-.47,6.58-1.03,.92-.24,1.88-.38,2.77-.71,3.88-1.46,7.94-2.32,11.81-3.8,2.54-.97,4.64-2.57,6.41-4.6,.75-.86,.91-2.02,1.35-3.04,.16-.38,.3-.77,.45-1.15,.57,.12,.43,.44,.35,.74-.67,2.51-1.37,5.03-2.49,7.38-1.02,2.14-2.54,3.98-4.61,5.16-3.92,2.22-7.6,4.85-11.69,6.8-2.6,1.24-5.22,2.41-7.99,3.17-2.52,.69-4.93,1.68-7.21,2.89-2.2,1.17-4.54,2.09-6.56,3.61-.42,.32-.87,.6-1.25,.98-.38,.37-.79,.69-1.31,.66-.26-.19-.29-.41-.26-.62,.37-2.56-1.37-3.84-3.12-5.11-1.66-1.22-3.62-1.39-5.7-1.7Z"/>
      <path class="cls-9" d="M176.91,69.31c-3.34,3.16-7.34,4.79-11.56,6.01-1.58,.45-3.14,.98-4.68,1.53-2.7,.98-5.4,1.83-8.3,2.02-1.5,.1-2.98,.51-4.48,.79-.11-.59,.31-.69,.6-.9,1.84-1.38,3.95-2.29,5.87-3.53,1.68-1.08,3.1-2.41,4.46-3.83,.58-.6,.55-1.48,.94-2.17,.68-1.19,1.33-2.39,1.95-3.61,1.47-2.9,2.61-5.91,3.56-9.01,.13-.41,.2-.81,.52-1.13,1.41-1.36,2.79-2.75,3.92-4.47,.72,.79,.71,1.63,.72,2.46,0,.84-.01,1.64,.45,2.46,.44,.78,.25,1.76,.06,2.66-.12,.57-.22,1.14-.36,1.71-.09,.37-.01,.65,.33,.79,.38,.15,.59-.13,.75-.42,.28-.51,.51-1.06,.83-1.55,.23-.35,.55-.56,.81,.02,.31,.7,.71,.39,.88-.02,.55-1.28,1.58-2.24,2.17-3.51,.51-1.09,1.16-2.16,2.16-2.93,1.02-.79,1.14-2.13,1.88-3.1,.68-.89,.75-.93,1.35,.07,.67,1.1,1.22,2.19,1.19,3.56-.03,1.38-.57,2.35-1.76,2.98-.57,.3-1.14,.58-1.46,1.19-.34,.66-.5,1.26,.09,1.9,.75,.81,.85,1.77,.55,2.81-.74,2.56-1.69,5.03-3.45,7.23Z"/>
      <path class="cls-14" d="M155.07,46.51c0-.75-.62-.91-1.12-1.2-1.75-1.05-3.77-1.44-5.62-2.26-.54-.24-.98-.45-.94-1.1,.15-2.26-1.11-3.93-2.34-5.59-1.17-1.57-2.42-3.08-3.66-4.61-1.15-1.41-1.93-3.04-2.87-4.58-.47-.77-.83-1.6-1.33-2.36-.72-1.08-.95-2.35-1.18-3.61-.25-1.36-.52-2.71-1.02-4-.08-.2-.07-.42,.1-.61,.59-.14,.86,.35,1.11,.7,.9,1.28,2.03,2.29,3.24,3.26,1.15,.93,2.23,2.01,3.16,3.16,.71,.87,1.46,1.69,2.24,2.48,2.89,2.91,4.58,6.47,5.66,10.36,.27,.96,.14,1.99,.3,3,.17,1.08,.68,1.78,1.47,2.33,2.8,1.95,5.8,3.57,8.93,4.9,2.27,.96,3.09,2.11,3.15,4.61,.03,1.08-.21,2.11-.35,3.16-.04,.28-.15,.53-.48,.52-.33,0-.38-.28-.47-.54-1.12-3.17-3.5-5.23-6.18-7.03-.08-.05-.21-.03-.52-.09-.45-.38-.75-.65-1.23-.85-.08-.06-.08-.06-.08-.06Z"/>
      <path class="cls-17" d="M206.58,88.86c-1.78,0-3.48,.11-5.09,.61-.73,.23-1.61-.14-2.19,.71-.71,.18-1.03-.3-1.35-.8-.4-.62-.81-1.25-1.78-1.28-.25-.16-.3-.34-.19-.67,1.69-1.06,3.48-1.25,5.27-1.19,2.91,.1,5.81,.19,8.72-.06,1.11-.09,2.22,0,3.29,.68,.05,.53,.05,.92,.05,1.43-.03,.19-.07,.25-.21,.38-1.21,.07-2.32,.08-3.43,.09-.74,0-1.48-.02-2.31,.28-.33,.01-.52-.04-.78-.18Z"/>
      <path class="cls-19" d="M136.04,48.75c1.09,1.35,2.1,2.67,2.65,4.38-.04,.7,.27,1.42-.48,1.98-.58,.03-.89-.21-1.09-.63-.2-.43-.47-.84-.63-1.29-.96-2.62-2.96-4.11-5.5-4.91-2.07-.65-4.16-1.29-6.39-1.13-.75,.05-1.46,.02-2.05,.64-.39,.41-.97,.58-1.33-.07-.34-.62-.02-1.6,.57-1.77,1.07-.3,2.18-.63,3.29-.29,.69,.21,1.36,.22,2.05,.21,2.82,0,5.53,.29,7.59,2.54,.32,.35,.75,.36,1.31,.34Z"/>
      <path class="cls-6" d="M196.1,87.5c-.07,.21-.07,.32-.06,.52-.84,.06-1.2-.55-1.45-1.21-.63-1.74-1.38-3.44-1.89-5.23-.33-1.16-.83-2.28-1.33-3.39-.6-1.34-.9-2.71-.75-4.31,.51-.61,1.04-1.06,1.52-1.55,1.85-1.87,4.06-2.84,6.7-2.78,1,.02,2.03-.16,3.12,.31,.18,.56,.45,.93,1,.94,1.5,.02,4.25,.88,5.05,2.17-.76,.76-2.72-.29-3.56-.47-3.32-.71-6.3-1.63-9.5-.18-1.23,.56-2,1.55-2.86,2.47-.46,.49-.36,1.12-.13,1.66,1.55,3.6,2.15,7.56,4.14,11.05Z"/>
      <path class="cls-14" d="M174.26,52.27c.04,.6-.08,1.1,.57,1.3,.38,.12,.99,.21,.9,.73-.11,.61-.33,1.42-.91,1.61-1.08,.36-1.63,1.32-2.62,1.96-.24-.44-.13-.8,.01-1.19,.55-1.43,.5-2.86,.25-4.38-.24-1.45-.09-2.97-.1-4.46,0-.28,.09-.55,.4-.61,.4-.07,.6,.24,.67,.54,.2,.87,.41,1.76,.49,2.64,.05,.59,.19,1.15,.34,1.85Z"/>
      <path class="cls-14" d="M129.27,85.22c-.11-.51,.29-.71,.69-.84,2.63-.89,5.26-1.75,8.08-2.1-.89,.82-2.11,.87-3.21,1.19-1.83,.54-3.65,1.11-5.56,1.76Z"/>
      <path class="cls-14" d="M139.5,82.01c-.1-.6,.41-.77,.83-.92,1.46-.52,2.75-1.33,4.03-2.17,.35-.23,.74-.43,1.31-.4-1.68,1.62-3.76,2.73-6.17,3.5Z"/>
      <path class="cls-14" d="M139.98,31.37c-.75,0-1.05,.5-1.23,1.27-.67-1.13-.77-2.48-.95-4.17,1.12,.92,1.57,1.91,2.18,2.9Z"/>
      <path class="cls-6" d="M186.23,58.03c-.12-.97-.12-1.93-.12-3.04,.32-.15,.64-.16,1.07-.18,.31,.97,.17,1.97,.18,3.11-.35,.14-.68,.13-1.13,.12Z"/>
      <path class="cls-14" d="M131.6,73.76c.15,1.51-.78,2.74-1.39,4.06-.26,.57-.48,1.31-1.29,1.64,.22-1.39,1.18-2.5,1.69-3.82,.24-.62,.32-1.35,.98-1.87Z"/>
      <path class="cls-14" d="M133.85,68.65c.16,0,.3,.11,.28,.15-.63,1.57-.97,3.28-2.31,4.57,.38-1.63,1.18-3.13,2.03-4.72Z"/>
      <path class="cls-14" d="M126.26,85.03c.6,.04,1.19,.2,1.85,.44-.66,.81-1.73,.93-2.55,1.85-.28-1.1,.89-1.4,.69-2.29Z"/>
      <path class="cls-14" d="M148.46,76.9c-.1-.32-.01-.65,.3-.8,1.05-.5,2-1.23,3.31-1.42-.88,1.07-2.27,1.5-3.61,2.23Z"/>
      <path class="cls-17" d="M189.53,95.68c-1.08,.7-2.32,.34-3.65,.25,1.07-.81,2.32-.38,3.65-.25Z"/>
      <path class="cls-14" d="M137.04,61.59c.05,1.1-.7,1.91-1.38,2.82,.17-1.01,.34-2.08,1.38-2.82Z"/>
      <path class="cls-17" d="M184.16,95.86c-.6,.88-1.73,.74-2.77,1.12,.6-.9,1.65-.94,2.77-1.12Z"/>
      <path class="cls-14" d="M149.9,44.48c-.77,.13-1.56,.05-2.18-.74,.77-.08,1.51,.09,2.18,.74Z"/>
      <path class="cls-14" d="M145.9,78.51c0-1.01,.8-1.12,1.7-1.27-.28,.64-.95,.93-1.7,1.27Z"/>
      <path class="cls-14" d="M157.4,70.79c-.15-.75,.19-1.28,1.07-1.54,.08,.73-.51,1.07-1.07,1.54Z"/>
      <path class="cls-14" d="M158.86,49.93c-.75,.15-1.29-.19-1.54-1.08,.73-.07,1.07,.52,1.54,1.08Z"/>
      <path class="cls-14" d="M128.41,79.84c.1,.59,0,1.18-.74,1.54-.21-.66,.12-1.12,.74-1.54Z"/>
      <path class="cls-17" d="M197.56,93.78c-.3,.52-.86,.51-1.46,.61,.19-.71,.81-.65,1.46-.61Z"/>
      <path class="cls-14" d="M154.1,46.4c-.51,.05-1.01-.07-1.26-.74,.5-.03,1,.09,1.26,.74Z"/>
      <path class="cls-14" d="M140.67,41.84c.8,.28,.83,.42,.11,1.13-.11-.32-.11-.66-.11-1.13Z"/>
      <path class="cls-14" d="M155.82,72.11c-.08-.66,.29-.96,1.05-.96-.12,.45-.43,.81-1.05,.96Z"/>
      <path class="cls-14" d="M154.22,73.38c-.07-.66,.3-.95,1.06-.95-.13,.44-.44,.81-1.06,.95Z"/>
      <path class="cls-14" d="M160.19,51.52c-.66,.08-.96-.29-.96-1.05,.45,.12,.81,.43,.96,1.05Z"/>
      <path class="cls-14" d="M156.95,48.34c-.53,.11-1.06,.05-1.23-.77,.11-.24,.26-.28,.53-.17,.1,.07,.1,.07,.09,.07,.19,.26,.38,.52,.61,.87Z"/>
      <path class="cls-17" d="M180.6,96.96c-.18,.48-.6,.59-1.12,.71,.02-.64,.44-.85,1.12-.71Z"/>
      <path class="cls-14" d="M127.43,82.04c.09,.46-.18,.65-.73,.63-.1-.47,.18-.64,.73-.63Z"/>
      <path class="cls-9" d="M181.47,64.86c-.41,.07-.48-.14-.4-.41,.04-.15,.2-.25,.33-.18,.19,.11,.19,.32,.07,.59Z"/>
      <path class="cls-17" d="M195.31,94.38c-.09,.39-.38,.42-.8,.37,0-.5,.29-.65,.8-.37Z"/>
      <path class="cls-17" d="M192.75,95.03c-.09,.4-.38,.42-.8,.38,0-.51,.29-.65,.8-.38Z"/>
      <path class="cls-14" d="M144.19,36.8c-.47,.09-.65-.18-.64-.74,.33,.03,.56,.27,.64,.74Z"/>
      <path class="cls-14" d="M153.25,74.03c-.09-.47,.18-.65,.74-.64-.03,.33-.27,.56-.74,.64Z"/>
      <path class="cls-14" d="M158.99,68.22c-.44-.24-.36-.44,.15-.58,.04,.17-.01,.35-.15,.58Z"/>
      <path class="cls-17" d="M178.94,98.03c.1,.14,.1,.29,.09,.55-.47,0-.73-.17-.09-.55Z"/>
      <path class="cls-14" d="M138.02,59.68c.44,.24,.36,.44-.15,.58-.04-.17,.02-.35,.15-.58Z"/>
      <path class="cls-6" d="M187.21,59.3c.09,.13,.11,.29,.09,.57-.39-.03-.69-.2-.09-.57Z"/>
      <path class="cls-17" d="M124.42,83.57c-.39-.2-.3-.42,.07-.65,.14,.18,.15,.39-.07,.65Z"/>
      <path class="cls-17" d="M199.17,93.46c-.05,.26-.21,.35-.52,.31,0-.31,.1-.56,.52-.31Z"/>
      <path class="cls-14" d="M152.14,45.14c-.23,.44-.44,.36-.58-.14,.17-.04,.35,.01,.58,.14Z"/>
      <path class="cls-17" d="M191.16,95.36c-.04,.26-.2,.36-.52,.32,0-.31,.1-.55,.52-.32Z"/>
      <path class="cls-6" d="M166.18,29.29c.25,.05,.34,.21,.36,.51-.28,.02-.62-.01-.36-.51Z"/>
      <path class="cls-14" d="M138.75,33.17c.29-.04,.67-.05,.38,.49-.25-.05-.35-.2-.38-.49Z"/>
      <path class="cls-14" d="M163.67,56.2c-.03,.15-.08,.23-.12,.31-.04-.08-.13-.16-.12-.24,0-.12,0-.34,.25-.07Z"/>
      <path class="cls-14" d="M174.35,50.02c0-.08,.12-.03,.17,0,.05,.08,.05,.13,.04,.27-.08,0-.15-.09-.21-.26Z"/>
      <path class="cls-17" d="M228.09,94.51c-1.92-2.25-4.55-3.23-7.33-4.19-.11-.31-.12-.61,.2-.91,1.82,.04,3.22,.98,4.76,1.82,.29,.33,.58,.47,.95,.66,.65,.33,1.17,.67,1.62,1.27,.13,.12,.17,.18,.21,.35-.04,.41-.14,.68-.41,1Z"/>
      <path class="cls-6" d="M208.51,74.14c-.7-.08-1.32-.46-2.01-.9,.72-.01,1.53,0,2.01,.9Z"/>
      <path class="cls-4" d="M220.37,91c.3,.4,.4,.85-.13,1.32-.2-.39-.32-.85,.13-1.32Z"/>
      <path class="cls-2" d="M.63,187.61c-.12-.84-.12-1.72-.11-2.74,.75,.62,.82,1.5,.11,2.74Z"/>
      <path class="cls-19" d="M129.2,61.35c.12-.44,.26-.79,.48-1.09,.28-.38,.64-.84,1.17-.51,.41,.25,.59,.73,.49,1.26-.52,2.63-2.69,4.38-5.43,4.38-.11,0-.21,0-.46,0-3.2-1.76-2.93-6-.78-8.47,1.36-1.57,3-2.85,4.58-4.18,1.06-.9,2.49-.79,3.77-1.08,.33-.07,.63,.12,.84,.37,.81,.98,1.61,1.96,2.4,2.95,.13,.16,.21,.37,.04,.7-.51,.06-.96-.27-1.37-.54-3-2-5.35-1.12-7.43,1.19-1.43,1.59-2.46,3.31-2.19,5.58,.13,1.11,.48,1.51,1.58,1.56,.42,.02,.86,.04,1.27-.05,1.09-.23,1.34-.71,1.04-2.07Z"/>
      <path class="cls-16" d="M241.72,287.18c.65-.98,1.76-.96,2.81-1.37,.05,.17-.03,.36-.13,.66-.6,.4-1.17,.69-1.85,1-.34,0-.57-.04-.83-.29Z"/>
      <path class="cls-16" d="M249.24,282.66c-.07-.27,.04-.51,.44-.64,.09,.28,.03,.55-.44,.64Z"/>
      <path class="cls-16" d="M245.61,285.51c0-.27,.14-.51,.55-.6,.07,.32-.04,.58-.55,.6Z"/>
      <path class="cls-16" d="M249.94,281.69c-.12-.28-.01-.5,.36-.68,.11,.26,.1,.54-.36,.68Z"/>
      <path class="cls-16" d="M250.4,279.13c-.37-.06-.86-.22-.09-.66,.1,.16,.1,.34,.09,.66Z"/>
      <path class="cls-2" d="M10.23,236.52c-1.09-1.06-1.34-2.58-2-4.02,.41-.04,.59,.28,.76,.61,.53,1.07,1.06,2.14,1.24,3.41Z"/>
      <path class="cls-2" d="M4.44,219.9c-.26-.06-.36-.23-.35-.56,.26,.02,.59,.09,.35,.56Z"/>
      <path class="cls-2" d="M6.18,225.64c-.3,.03-.49-.12-.49-.54,.27,0,.51,.11,.49,.54Z"/>
      <path class="cls-2" d="M12.11,241.02c-.26-.05-.36-.21-.38-.52,.27,0,.62,.02,.38,.52Z"/>
      <path class="cls-2" d="M13.07,243.26c-.25-.04-.36-.19-.4-.49,.28-.03,.63-.03,.4,.49Z"/>
      <path class="cls-7" d="M71.84,76.17c-.18,.09-.43,.09-.8,.09-.12,0-.13-.15-.12-.21,.29-.08,.59-.13,.92,.13Z"/>
      <path class="cls-7" d="M73.11,76.2c-.11,.07-.26,.07-.53,.06,.05-.23,.24-.33,.53-.06Z"/>
      <path class="cls-17" d="M241.55,287.09c.32,.07,.53,.14,.82,.31-2.2,1.27-4.67,1.87-7.08,2.65-3.53,1.15-7.16,1.95-10.79,2.66-3.77,.73-7.53,1.59-11.39,1.87-2.89,.21-5.76,.75-8.65,1.11-.79,.1-1.59,.07-2.53,.09-.5-.61-.04-.75,.37-.87,.91-.27,1.84-.4,2.89-.57,.56-.1,1-.13,1.58-.16,.61-.02,1.1,.1,1.65-.18,.53-.09,.98-.11,1.56-.13,1.27,.04,2.34-.36,3.55-.5,.24-.08,.39-.1,.64-.11,.29-.01,.45-.06,.66-.22,.51-.08,.96-.11,1.54-.13,.71-.03,1.3,.11,1.96-.18,.33-.09,.58-.11,.94-.13,.39,0,.65,0,.98-.17,2.55-.56,4.99-1.19,7.64-1.44,.32,0,.49-.04,.7-.2,.21-.08,.35-.1,.6-.12,.28,0,.45-.03,.67-.17,1.32-.59,2.72-.57,4.11-1.09,.3,0,.46-.04,.69-.17,1.02-.31,1.98-.57,3.05-.84,.44-.1,.75-.23,1.11-.48,.2-.09,.32-.12,.54-.15,.47-.19,.89-.26,1.37-.47,.3-.1,.5-.15,.82-.2Z"/>
      <path class="cls-16" d="M205.16,294.26c.04,.61-.41,.57-.84,.58-.89,.03-1.76,.1-2.51,.82-.57,.13-1.11,.14-1.79,.16-.3-.37-.73-.29-1.05-.57-.02-.12,.01-.17,.06-.18,2-.28,4-.55,6.14-.8Z"/>
      <path class="cls-1" d="M86.91,285.94c.73-.12,1.35,.12,1.95,.5,1.07,.68,2.16,1.33,3.35,2.04,.32,.16,.5,.32,.78,.5,.2,.05,.32,.07,.53,.11,.89,1.23,2.22,1.66,3.43,2.19,2.16,.94,4.39,1.69,6.76,1.96,.39,.04,.74,.08,.77,.69-.62,.26-1.23,.42-1.85,.55-.26,.05-.6,.14-.78,.02-1.43-.94-3.17-.59-4.7-1.15-1.49-.55-2.95-1.17-4.39-1.82-.77-.35-1.5-.8-2.21-1.26-.46-.3-.89-.58-1.58-.55-.27-.77-.72-1.2-1.61-1.28-.21-.05-.29-.11-.4-.25-.16-.51-.29-.95-.43-1.5,.19-.22,.33-.38,.39-.73Z"/>
      <path class="cls-22" d="M228.05,94.68c-.01-.4-.06-.72,.22-1.06,.73,.08,1.02,.69,1.62,1.08,.09,.05,.12,.08,.13,.1,.46,.63,.85,1.31,1.77,1.55,.22,.08,.35,.1,.57,.14,.37,.2,.69,.33,.99,.23,1.65-.54,3.38-.53,5.18-.82,1.16-.08,2.22-.08,3.42-.09,.77,.51,1.51,.23,2.3,.28,1.51-.07,2.86,.38,4.39,.39,.38,.17,.64,.28,1.05,.25,.33,.01,.56,.03,.9,.06,.64,.39,1.19,.69,1.98,.58,.38,.05,.66,.11,1,.25,.98,.65,2.08,.62,3.15,1.01,.77,.22,1.43,.44,2.2,.69,.15,.49,.7,.63,.81,1.17-1.99-.13-3.85-.97-5.85-1.31-2.72-.46-5.4-1.12-8.09-1.69-.31-.07-.63-.11-.95-.09-2.22,.1-4.43-.32-6.66-.04-4.37,.56-8.73,1.16-12.83,2.93-1.41,.61-2.89,1.08-4.34,1.61-.25,.09-.52,.24-.76,.22-1.3-.15-2.38,.35-3.43,1.02-.25,.16-.6,.4-.83,.02-.22-.35-.13-.78,.2-1,.57-.38,1.19-.71,1.8-1.02,1.7-.87,3.36-1.87,5.28-2.18,1.67-.26,2.96-1.35,4.53-1.86,1.11-.36,1.09-.84,.26-2.41Z"/>
      <path class="cls-10" d="M286.04,132.23c-.25-.06-.36-.21-.39-.53,.29-.03,.67-.02,.39,.53Z"/>
      <path class="cls-10" d="M284.64,128.44c-.26-.01-.52-.14-.59-.57,.32-.06,.58,.07,.59,.57Z"/>
      <path class="cls-21" d="M231.83,96.3c-1.04,.28-1.62-.23-1.81-1.38,.84,.05,1.2,.79,1.81,1.38Z"/>
      <path class="cls-21" d="M229.96,94.65c-.78,.2-1.05-.49-1.55-1.01-.05-.15-.05-.2-.04-.34,.78,.07,1.23,.59,1.59,1.35Z"/>
      <path class="cls-21" d="M226.7,91.86c-.32,.07-.72,.14-.89-.43,.35-.11,.64,.04,.89,.43Z"/>
      <path class="cls-16" d="M173.03,296c2.1-.14,4.23-.15,6.52-.15,.09,.29-.04,.55-.34,.55-1.98,.01-3.96,.13-5.93-.07-.08,0-.14-.14-.25-.33Z"/>
      <path class="cls-16" d="M162.67,295.29c1.29-.1,2.51-.22,3.81,.1-.61,.77-1.58,.1-2.41,.67-.42,.09-.75,.07-1.2,.05-.31-.22-.36-.46-.2-.82Z"/>
      <path class="cls-16" d="M168.55,295.67c.76-.18,1.55-.26,2.42,.05-.74,.55-1.57,.62-2.42-.05Z"/>
      <path class="cls-16" d="M190.31,295.84c.55-.53,1.25-.26,2.05-.29-.42,1.02-1.23,.51-2.05,.29Z"/>
      <path class="cls-16" d="M195.14,295.55c.31-.51,.81-.34,1.4-.33-.17,.89-.78,.54-1.4,.33Z"/>
      <path class="cls-16" d="M188.42,295.89c.26-.47,.66-.42,1.15-.21-.23,.52-.64,.5-1.15,.21Z"/>
      <path class="cls-13" d="M64.85,277.84c1.31-.76,2.51-1.95,4.37-1.54,.06,.49-.23,.81-.58,1.05-1.36,.93-2.79,1.75-4.38,2.24-.2,.06-.4,.14-.57-.05-.12-.94,1.21-.79,1.16-1.7Z"/>
      <path class="cls-13" d="M75.44,273.36c.65-.7,1.44-.83,1.94-.27,.35,.39,.75,.86,.81,1.34,.23,1.57,1.04,2.86,1.72,4.23,.36,.74,.89,1.31,1.47,1.86,.5,.48,.97,.98,1.35,1.69-.03,.38-.29,.48-.57,.7-1.95,.07-3.53-.52-4.61-2.16-.19-.3-.51-.51-.83-.85-1.01-1.7-2.1-3.28-.55-5.15,.39-.47,.13-.88-.39-1.27-.15-.08-.2-.09-.33-.13Z"/>
      <path class="cls-16" d="M75.68,273.55c.41-.14,.91-.32,1.17,.1,.29,.45,.14,1.06-.23,1.32-1.38,.96-.86,2.1-.42,3.25,.17,.44,.47,.84,.45,1.47-1.45-.32-1.92-1.53-2.21-2.83-.12-.51,0-.99,.51-1.37,.58-.42,.79-1.08,.73-1.93Z"/>
      <path class="cls-16" d="M82.21,282.98c-.09-.3,.01-.56,.45-.65,.22,.12,.33,.27,.47,.51-.24,.11-.52,.13-.93,.14Z"/>
      <path class="cls-16" d="M73.24,274.03c.03-.37,.28-.59,.79-.6,.05,.48-.25,.62-.79,.6Z"/>
      <path class="cls-10" d="M2.13,200.13c.1,.07,.2,.26,.29,.54-.19-.02-.29-.2-.29-.54Z"/>
      <path class="cls-3" d="M289.77,139.87c-.29,.03-.66,.02-.37-.52,.17,.1,.27,.26,.37,.52Z"/>
      <path class="cls-18" d="M222.78,52.26c.02-.38,.16-.77,.37-1.21,.5,.51,.68,1.01-.37,1.21Z"/>
      <path class="cls-6" d="M189.15,49.06c.11,.53-.13,.99-.39,1.55-.61,.02-.77-.3-.69-.77,.09-.55,.47-.74,1.09-.78Z"/>
      <path class="cls-6" d="M188.5,51.29c.17,.36,.01,.65-.35,.93-.32,0-.65,.02-.62-.31,.04-.51,.47-.56,.97-.62Z"/>
      <path class="cls-17" d="M162.63,295.17c.12,.25,.12,.48,.12,.82-2.23-.3-4.56-.31-6.69-1.5,2.12,.14,4.29,.4,6.57,.68Z"/>
      <path class="cls-13" d="M87.23,283.42c.32,.15,1.02,.35,.04,.79-.08-.23-.06-.45-.04-.79Z"/>
      <path class="cls-22" d="M83.17,257.89c.32,1.04,.59,1.96,.87,2.87,1.63,5.43,3.91,10.57,6.96,15.35,1.44,2.26,3.32,4.14,5.44,5.78,.46,.36,.86,.79,1.27,1.21,.25,.26,.61,.56,.25,.94-.29,.31-.61,0-.85-.16-.52-.37-.97-.83-1.49-1.19-3.77-2.6-6.51-6.08-8.59-10.1-1.81-3.5-3.59-7.01-4.76-10.8-1.13-3.66-2.06-7.36-3.05-11.06-1.07-4.01-1.98-8.04-2.71-12.11-.46-2.55-.8-5.13-1.14-7.71-.4-3.08-.11-6.17-.35-9.25-.17-2.18-.27-4.35-.22-6.53,.08-4.15,.27-8.3,.36-12.45,.06-2.58,.56-5.16,.84-7.74,.15-1.37,.24-2.75,.38-4.12,.43-4.01,.79-8.02,1.36-12.01,.51-3.62,1.18-7.22,1.56-10.86,.32-3.11,1-6.18,1.65-9.24,.55-2.6,1.14-5.18,1.73-7.77,.1-.42-.02-1.12,.73-.97,.7,.14,.68,.79,.56,1.3-.24,1.03-.47,2.07-.71,3.1-.86,3.79-1.37,7.62-1.86,11.46-.37,2.94-.76,5.9-1.1,8.84-.38,3.37-.82,6.74-1.15,10.12-.4,4.11-.53,8.25-1.13,12.35-.27,1.82-.33,3.7-.46,5.55-.51,7.08-.26,14.16-.2,21.24,.04,4.13,.38,8.26,1.16,12.34,.62,3.23,1.07,6.49,1.73,9.71,.55,2.7,1.3,5.37,1.96,8.05,.31,1.24,.62,2.47,.97,3.83Z"/>
      <path class="cls-22" d="M35.39,113.03c-.06-.63,.04-1.09,.32-1.5,1.51-2.24,2.92-4.57,4.77-6.57,3.92-4.24,8.32-7.88,13.18-10.99,3.58-2.29,7.42-3.6,11.69-3.62,1.11,0,2.09,.39,3.08,.76,.85,.32,1.06,.95,.7,1.82-.26,.64-.61,1.22-1.09,1.75-2.76,3.03-5.28,6.24-7.43,9.75-1.28,2.08-2.57,4.16-3.73,6.32-.08,.14-.13,.31-.24,.41-2.28,1.98-2.75,4.86-3.65,7.5-1.69,4.95-2.15,10.08-1.87,15.26,.12,2.17-.72,3.81-2.08,5.31-.36,.4-.77,.75-1.29,.91-.63,.2-1.14,.12-1.42-.59-.43-1.09-.89-2.17-1.34-3.24-.13-.31-.17-.57-.03-.9,.75-1.79,.32-3.66,.32-5.49,0-.05-.04-.1-.05-.15-.49-1.71-1.11-2-2.38-.81-2.62,2.48-5.61,4.6-7.7,7.61-1.42,2.05-2.84,4.11-4.26,6.16-.18,.26-.32,.57-.53,.79-.32,.33-.56,.94-1.1,.79-.64-.18-1.07-.71-1.16-1.4-.15-1.21-.28-2.43-.36-3.64-.09-1.43,.12-2.88-.24-4.3-.07-.29-.04-.67,.08-.94,.91-2,1-4.24,1.85-6.25,.81-1.91,1.76-3.76,2.49-5.71,1.12-2.99,2.33-5.94,3.5-9.04Z"/>
      <path class="cls-4" d="M210.36,165.01c.08,1.42,.35,2.66,.59,3.91,1.05,5.36,2.12,10.72,3.59,15.99,.74,2.66,1.18,5.39,1.9,8.04,1.02,3.74,2.16,7.47,2.8,11.28,.79,4.72,2.13,9.31,3.03,14.01,.7,3.65,1.06,7.34,1.65,11,.44,2.74-.33,5.4-.09,8.1,.02,.2-.04,.43-.1,.62-.09,.26-.28,.47-.58,.46-.44,0-.55-.35-.49-.66,.29-1.53-.13-3.05-.06-4.58,.17-3.64-.4-7.19-1.08-10.75-.4-2.13-.86-4.25-1.24-6.38-.26-1.49-.66-2.99-1.09-4.46-.65-2.2-1.05-4.45-1.54-6.67-.54-2.44-1.09-4.87-1.77-7.27-1.08-3.78-1.92-7.61-2.74-11.45-.92-4.3-1.81-8.61-2.66-12.93-1.3-6.61-2.27-13.28-3.93-19.81-.19-.76-.33-1.55-1.23-1.93-.57-.24-.72-.89-.92-1.45-1.54-4.42-3.28-8.78-4.29-13.35-.64-2.91-2.03-5.32-3.78-7.62-.64-.84-1.09-1.82-1.61-2.74-.29-.51-.55-.99-1.16-1.25-.52-.23-.45-.63,.04-.91,.65-.37,1.13,0,1.58,.37,.78,.66,1.28,1.56,1.85,2.39,2.53,3.7,4.6,7.64,6.25,11.83,1.44,3.66,2.82,7.35,3.88,11.13,1.09,3.88,1.9,7.83,2.6,11.8,.18,1.04,.38,2.09,.59,3.27Z"/>
      <path class="cls-22" d="M291.99,213.77c-.65,2.66-1.29,5.19-1.95,7.71-.09,.36-.23,.71-.42,1.03-1.18,2.01-2.36,4.02-3.58,6.02-.45,.74-.92,1.51-.99,2.33-.09,1.16-.68,2-1.35,2.81-1.86,2.26-3.35,4.79-5.26,7-1.38,1.6-3.08,2.76-4.93,3.73-.79,.42-1.5,.98-2.51,.81-1.27-.21-1.66-.55-1.67-1.86,0-1.53-.21-3.03-.14-4.58,.11-2.63,.98-4.99,1.74-7.41,.89-2.85,1.58-5.74,1.24-8.74-.27-2.36-.35-4.74-.79-7.1-.25-1.35-.05-2.77-.23-4.14-.1-.76-.14-1.44,.06-2.18,.33-1.2,.77-1.5,2.01-1.35,1.98,.24,3.57,1.3,5.13,2.41,.22,.15,.38,.38,.6,.53,.42,.3,.83,.23,1.1-.2,.28-.45,.57-.92,.72-1.42,.89-2.97,2.76-5.53,3.53-8.55,.16-.61,.53-1.16,1-1.62,.28-.27,.57-.45,.97-.5,2.54-.31,5.26,1.95,5.45,4.49,.18,2.43,.71,4.84,.6,7.29-.05,1.11-.2,2.22-.32,3.47Z"/>
      <path class="cls-4" d="M216.92,266.63c-1.12,2.48-2.43,4.67-4.23,6.63-3.09,3.34-6.6,6.14-10.34,8.67-5.39,3.63-11.32,6.07-17.57,7.81-1.8,.5-3.59,.93-5.43,1.18-.36,.05-.72,.11-1.12-.16,.25-.47,.72-.54,1.08-.58,2.44-.27,4.71-1.18,6.98-1.99,3.36-1.19,6.49-2.9,9.66-4.53,2.8-1.44,5.27-3.36,7.99-4.9,.86-.48,1.45-1.24,2.23-1.8,1.08-.77,2.2-1.5,3.19-2.38,1.63-1.45,3.17-2.97,4.02-5.09,.74-1.86,2.38-3.09,3.68-4.68,.42-.15,.53,.07,.49,.5-.08,.25-.1,.38-.14,.61-.15,.27-.29,.45-.49,.71Z"/>
      <path class="cls-4" d="M86,137.36c.05,1.27-.85,2.24-.84,3.43,0,.16-.23,.38-.48,.31-.35-.1-.32-.39-.25-.64,.16-.56,.34-1.12,.52-1.68,.87-2.67,1.43-5.44,2.52-8.05,1.24-2.99,2.32-6.05,4.13-8.77,1.7-2.57,3.41-5.14,5.71-7.25,1.78-1.63,3.71-3.02,6.1-3.63,.26-.07,.51-.15,.77-.19,.21-.03,.44,.03,.55,.23,.15,.28,.04,.53-.18,.71-.45,.37-.88,.81-1.4,1.05-4.73,2.22-7.97,6.02-10.41,10.44-2.41,4.36-4.74,8.8-6.42,13.66-.13,.17-.2,.25-.31,.39Z"/>
      <path class="cls-22" d="M102.25,190.82c-.1,2.36,.38,4.47,.96,6.57,.18,.66,.28,1.35,.46,2.01,.18,.67-.23,.71-.7,.7-.79-.03-1.24-.59-1.6-1.18-1.18-1.94-1.93-4.05-1.95-6.31-.03-2.7-.17-5.41,.26-8.11,.11-.69,.34-1.33,.55-1.98,.18-.54,.6-.7,1.14-.61,.58,.09,.6,.56,.58,.97-.16,2.61,.44,5.18,.31,7.94Z"/>
      <path class="cls-22" d="M94.86,183.06c-.41,2.26-.41,4.4-.08,6.5,.15,.97-.02,1.92-.06,2.82-.06,1.47,.25,2.95-.06,4.4-.11,.5,.03,.94,.18,1.4,.16,.52,.04,1-.52,1.17-.55,.17-.91-.19-1.16-.64-.22-.39-.16-.83-.16-1.25,0-4.26-.11-8.53,.03-12.79,.06-1.94,.19-3.93,.83-5.81,.14-.4,.28-.81,.49-1.17,.18-.31,.53-.34,.85-.2,.3,.13,.31,.41,.23,.68-.45,1.55-.6,3.13-.57,4.88Z"/>
      <path class="cls-10" d="M217.6,265.4c-.18-.16-.25-.36-.4-.62,.12-1.12,.68-2.04,1.19-2.95,1.5-2.75,2.2-5.73,2.56-8.78,.19-1.58,.9-3.07,.72-4.7-.02-.16,.06-.31,.23-.37,.26-.09,.43,.08,.52,.25,.41,.83,.64,1.72,.46,2.63-.53,2.75-1,5.5-2,8.16-.69,1.85-1.78,3.5-2.45,5.34-.14,.39-.29,.81-.83,1.05Z"/>
      <path class="cls-4" d="M248.06,115.79c.31,.66,.77,1.15,.65,1.96-.86-.15-1.26-.79-1.67-1.33-.65-.86-1.41-1.54-2.33-2.11-1.43-.89-2.65-2.09-4.11-2.96-.17-.1-.31-.28-.23-.66,.6-.23,1.2-.24,1.84,.16,2.17,1.33,4.37,2.62,5.84,4.95Z"/>
      <path class="cls-4" d="M241.79,117.94c.23,.49,.53,.92,.15,1.28-.45,.42-.91,.02-1.29-.23-.35-.23-.64-.56-.91-.89-1.18-1.44-2.63-2.25-4.55-2.15-.96,.05-1.92,0-2.87-.01-.3,0-.62,.03-.8-.16-.08-.24-.04-.34,.09-.36,2.07-.23,4.15-.24,6.2-.05,1.63,.15,2.98,1.06,3.98,2.57Z"/>
      <path class="cls-16" d="M213.48,293.29c.07,.16,.02,.42-.05,.42-1.06,.07-2.08,.54-3.24,.26,.96-.49,2.03-.75,3.3-.68Z"/>
      <path class="cls-16" d="M218.29,292.64c-.27,.96-.98,.57-1.71,.35,.41-.56,1.02-.31,1.71-.35Z"/>
      <path class="cls-16" d="M208.38,293.92c-.14,.92-.77,.57-1.4,.36,.31-.5,.81-.35,1.4-.36Z"/>
      <path class="cls-4" d="M176.77,291.01c-.38,.12-.65,.39-.97,.09,.23-.52,.7-.37,1.1-.39,.05,0,.13,0,.15,.04,.15,.24-.11,.17-.28,.26Z"/>
      <path class="cls-16" d="M240.71,287.22c0,.7-.54,.55-1.12,.55,.15-.4,.53-.6,1.12-.55Z"/>
      <path class="cls-16" d="M220.23,292.35c0,.54-.27,.66-.78,.33,.12-.34,.39-.38,.78-.33Z"/>
      <path class="cls-16" d="M238.8,287.85c.05,.52-.29,.6-.84,.55,.1-.29,.36-.51,.84-.55Z"/>
      <path class="cls-16" d="M214.81,292.97c.04,.29,0,.6-.48,.35,.04-.24,.19-.34,.48-.35Z"/>
      <path class="cls-16" d="M228.57,290.72c.03,.3,0,.62-.49,.34,.1-.16,.25-.26,.49-.34Z"/>
      <path class="cls-16" d="M229.85,290.43c.03,.31-.03,.6-.5,.31,.1-.16,.25-.24,.5-.31Z"/>
      <path class="cls-16" d="M234.65,289.16c.03,.32-.05,.59-.5,.3,.06-.23,.21-.32,.5-.3Z"/>
      <path class="cls-17" d="M93.04,288.91c-.26,.15-.52,.12-.69-.3,.27-.16,.51-.08,.69,.3Z"/>
      <path class="cls-10" d="M216.96,266.69c-.11-.26-.07-.51,.34-.65,.15,.28,.06,.51-.34,.65Z"/>
      <path class="cls-10" d="M86.03,137.37s.04-.14,.16-.27c.04,.07-.01,.15-.16,.27Z"/>
      <path class="cls-1" d="M156.34,47.36c-.13,.11-.27,.11-.52,.1-.3-.26-.48-.52-.71-.87,.53-.1,1.06-.04,1.23,.76Z"/>
      <path class="cls-13" d="M61.5,99.85c-.72,.74-1.21,1.4-1.21,2.43,0,1.07-.67,1.91-1.29,2.81-1.7,2.49-3.41,4.99-4.91,7.62-1.98,3.48-2.96,7.24-3.69,11.12-.27,1.4-.7,2.78-.74,4.21-.06,2.21-.87,4.36-.25,6.63,.3,1.11-.23,2.2-.88,3.14-.25,.36-.62,.63-1.1,.44-.39-.15-.47-.51-.55-.9-.42-2.11-.25-4.24-.31-6.36-.04-1.17-.16-2.32-1.11-3.2-1.11-1.02-1.91-1.09-3.27-.39-2.12,1.1-3.42,3.01-4.83,4.79-2.34,2.94-4.59,5.97-6.88,8.96-.06,.08-.18,.11-.35,.21-.34-.33-.18-.77-.2-1.15-.03-.38,.01-.84-.35-1-1.19-.53-1.06-1.57-.88-2.47,.44-2.29,.76-4.61,1.75-6.76,.88-1.93,1.66-3.91,2.61-5.8,.43-.86,.32-1.76,.6-2.62,.67-2.08,1.63-4.04,2.43-6.07,1-2.54,2.73-4.63,4.22-6.87,.44-.66,.9-1.31,1.3-2,1.8-3.09,4.53-5.34,6.96-7.85,.11-.11,.24-.26,.38-.29,2.63-.42,4.17-2.71,6.47-3.73,1.93-.86,3.71-1.95,5.91-2.25,1.29-.17,2.55-.66,3.89-.55,.27,.02,.54,0,.8,.04,.96,.19,1.26,.75,.59,1.42-1.03,1.03-1.65,2.34-2.62,3.4-.86,.93-1.62,1.96-2.49,3.04Z"/>
      <path class="cls-13" d="M288.05,200.86c1.05,.75,1.46,1.72,1.78,2.84,.97,3.38,.55,6.73-.1,10.07-.47,2.39-.84,4.8-1.53,7.15-.29,.97-.48,1.97-1.26,2.71-.15,.14-.28,.35-.31,.54-.3,1.99-1.55,3.61-2.16,5.47-.4,1.21-1.15,2.25-1.84,3.31-1.75,2.67-3.68,5.18-5.97,7.43-1.3,1.28-2.57,2.44-4.24,3.22-1.46,.68-2.08,.4-2.15-1.19-.08-1.77,.24-3.48,.68-5.19,.72-2.77,1.44-5.54,2.13-8.32,.09-.35,.06-.74,.06-1.11,0-3.25,.15-6.51-.04-9.75-.14-2.23-.27-4.45-.27-6.68,0-.32-.02-.64,.02-.96,.14-1.1,.9-1.56,1.93-1.17,1.07,.41,1.96,1.07,2.55,2.07,.43,.72,1.01,1.19,1.84,1.41,1.09,.28,1.25,.23,1.7-.78,.84-1.9,1.55-3.84,2.47-5.71,1.03-2.09,2.6-3.74,4.16-5.39,.08-.08,.3-.03,.56,.01Z"/>
    </g>
  </g>
</svg>