<?xml version="1.0" encoding="UTF-8"?>
<svg id="Layer_2" data-name="Layer 2" xmlns="http://www.w3.org/2000/svg" viewBox="0 0 224.64 303.19">
  <defs>
    <style>
      .cls-1 {
        fill: #211035;
      }

      .cls-2 {
        fill: #f4f1d3;
      }

      .cls-3 {
        fill: #1e1033;
      }

      .cls-4 {
        fill: #2a1637;
      }

      .cls-5 {
        fill: #3f1747;
      }

      .cls-6 {
        fill: #5e1d59;
      }

      .cls-7 {
        fill: #551151;
      }
    </style>
  </defs>
  <g id="Layer_9" data-name="Layer 9">
    <g>
      <path class="cls-3" d="M36.34,142.71c-.16-.19-.27-.28-.47-.41-2.41-.93-3.81-2.83-5.11-4.77-1.11-1.66-1.65-3.57-2-5.67-.72,1.32-1.26,2.61-2.41,3.49-.7,.53-1.26,.47-1.81-.14-.8-.89-1.3-1.95-1.58-3.1-1.59-6.55-1.18-12.87,2.14-18.86,.26-.47,.41-.83-.07-1.25-1.51-1.34-1.25-3.04-.9-4.75,1.72-8.36,4.97-16.13,9.23-23.5,1.92-3.32,3.8-6.66,5.52-10.09,.42-.84,.63-1.65,.52-2.6-.21-1.78,.65-2.73,2.6-2.87,.61,.43,.34,.88,.24,1.33-.13,.56-.3,1.12,.35,1.8-.74-1.27-.2-2.23,.24-3.29,.12-.14,.16-.2,.21-.37,0-.11,0-.18,.03-.2,.21-.13,.24-.31,.35-.56,.09-.13,.12-.19,.22-.31,.11-.24,.21-.39,.41-.56-.15-.23-.21,.1-.48,.05-.87,.03-1.46-.23-1.2-1.09,1.16-3.79-.29-7.42-.61-11.26-.07-.3-.11-.48-.17-.79-.13-2.43-.67-4.71-.45-7.16,.04-.22,.06-.3,.14-.51,1.25-.77,2.61-1.09,3.82-1.98,.32-.16,.53-.25,.86-.38,.83-.24,1.56-.19,2.29-.16,.64,.03,.73-.25,.39-.85-.46-.99-1.11-1.69-1.8-2.36-.66-.65-1.51-1.15-1.25-2.38,.13-.62-.6-.94-1.1-1.23-2.06-1.21-4.32-1.76-6.68-2.01-.51-.05-1.24,.04-1.37-.57-.12-.58,.54-.85,.98-1.13,1.21-.78,2.5-1.4,3.82-2,1.58-.71,1.74-1.92,.41-3.08-1.03-.91-2.32-1.29-3.65-1.48-1.47-.21-2.96-.39-4.42-.65-.31-.06-.76,0-.92-.21-1.15-1.55-2.99-1.31-4.6-1.92-.16-.71,.31-.94,.72-1.17,3.16-1.75,6.28-3.55,9.87-4.37,1.49-.34,2.55-1.58,3.41-2.77,2.46-3.36,5.55-5.99,9.11-8.28,.27-.16,.46-.22,.74-.32,.14-.06,.19-.08,.32-.15,.12-.07,.17-.11,.29-.19,.12-.08,.16-.11,.28-.18,.17-.09,.27-.14,.44-.23,.12-.06,.17-.09,.3-.15,.18-.08,.28-.13,.46-.22,.14-.06,.19-.08,.34-.13,.27-.09,.44-.15,.71-.27,.16-.07,.22-.09,.38-.15,1.95-.76,3.82-1.44,5.74-2.28,.24-.11,.38-.15,.63-.21,.39-.06,.68-.08,1.07-.2,.32-.09,.53-.13,.85-.21,.26-.07,.4-.11,.67-.17,2.63,.46,5.06-.41,7.55-.48,5.4-.16,10.21,1.39,14.83,4.17,2.99,1.8,5.7,3.91,8.39,6.07,2.44,1.96,4.16,4.56,5.98,7.05,2.01,2.75,4.04,5.49,5.91,8.34,.86,1.3,1.35,2.78,2.23,4.2,.2,.73,.19,1.32-.3,1.93-.79,.5-1.26-.18-1.96-.33,2.09,5.07,3.89,10.17,5.8,15.24,1.47,3.9,2.5,7.93,3.52,11.96,.2,.81,.31,1.48,1.49,1.37,1.19-.11,1.02,.67,.56,1.32,9.13,.86,17.15,4.07,23.49,10.89,.15,.16,.3,.3,.44,.47,1.79,2.12,1.48,3.52-1.16,4.79,1.79,1.13,3.44,2.33,4.66,4.04,1.37,1.92,2.02,4.08,2.39,6.36,.07,.45,.29,1.02-.3,1.27-.52,.23-.9-.18-1.25-.51-.31-.29-.57-.64-.92-.91,1.71,2.58,3.01,5.41,4.96,7.86,2.4,3,4.23,6.39,6.05,9.77,5.15,9.57,10.17,19.21,14.49,29.19,.7,1.62,1.21,3.31,1.8,4.96,.24,.67,.5,1.31,1.25,1.55,4.15,1.31,5.94,4.82,7.66,8.33,1.06,2.16,1.74,4.47,2.08,6.87,.2,1.42,.8,2.61,1.73,3.7,4.32,5.09,8.06,10.6,11.31,16.42,2.49,4.47,4.46,9.19,6.21,14.01,2.34,6.45,5.06,12.75,7.18,19.28,.66,2.04,1.02,4.19,.98,6.29-.05,2.79,1.18,4.89,2.74,6.96,1.93,2.57,3.36,5.42,4.59,8.49,.09,.07,.15,.13,.15,.16-.05,.27,.04,.49,.15,.79,.08,.08,.16,.14,.15,.19-.04,.17-.02,.29,.12,.46,.1,.14,.13,.2,.24,.35,.34,1.48,.56,2.9,1.34,4.27,.05,.42,.09,.72,.15,1.13-.02,.69-.17,1.24-.41,1.79-1,2.27-2.51,2.92-4.9,1.95-2.96-1.2-5.45-3.07-7.45-5.58-.36-.46-.69-.94-1.12-1.4,.76,1.04,1.19,2.2,1.84,3.38,.15,.3,.24,.5,.39,.8,1.07,2.5,2.3,4.77,4.24,6.7,.1,.05,.04,.1,.06,.07,.2,.57,.54,1.07,1.02,1.42,.06-.09,.15-.03,.17,.02,1.36,2.62,3.23,4.84,4.73,7.3,.36,.59,.7,1.19,1.15,1.7,.09-.07,.11-.02,.12,0,.99,2.08,1.73,4.2,1.83,6.53,.09,2.13-1.23,3.69-3.3,3.31-3.22-.59-6.52-1.12-8.93-3.73-.37-.4-.85-.63-1.4-.7-2.38-.33-4.65-1-6.85-2.26-2.94-2.32-5.39-4.96-7.82-7.62-.09,.27,.06,.61,.04,.95-.11,2.28-1.3,3.17-3.55,2.6-1.3-.33-2.49-.94-3.57-1.73-3.05-2.21-6.24-4.23-9.26-6.67-.15-.1-.21-.14-.36-.24-.51-.44-.88-.87-1.45-1.21-.2-.14-.31-.22-.49-.38-.42-.4-.73-.75-1.21-1.08-.14-.09-.2-.13-.33-.23-.13-.1-.18-.14-.38-.32-.19-.18-.24-.22-.36-.34-.3-.3-.51-.55-.84-.82-.24-.19-.4-.31-.66-.49-.14-.12-.19-.17-.31-.31-.87-1.09-1.85-1.91-2.8-2.8,.89,1.97,1.82,3.9,2.32,6.01,.42,1.79,.23,2.27-1.44,2.98-2.21,.93-4.4,1.07-6.66,.07-1.46-.65-2.9-1.35-4.44-2.09-.16-.08-.23-.12-.38-.21-.53-.4-.98-.71-1.62-.91-.15-.07-.21-.1-.36-.19-.24-.18-.38-.31-.64-.45-.14-.08-.19-.11-.32-.21-.26-.24-.44-.43-.73-.63-.29-.22-.49-.4-.78-.61-.13-.09-.19-.12-.32-.21-.18-.12-.29-.18-.47-.29-.13-.07-.19-.1-.31-.18-.12-.09-.17-.13-.35-.29-.18-.16-.22-.2-.33-.31-.19-.19-.31-.32-.5-.49-.16-.13-.25-.19-.42-.3-.12-.08-.17-.11-.29-.19-.12-.09-.16-.13-.33-.28-.17-.16-.22-.2-.39-.36-.27-.24-.41-.35-.63-.52-.22-.18-.34-.32-.52-.53-.15-.15-.24-.23-.42-.35-.13-.08-.18-.11-.32-.18-.26-.12-.43-.19-.69-.31-.66-.54-.89-1.32-1.57-1.87-1.37-1.3-2.49-2.69-3.84-3.86-.4-.35-.77-.72-1.42-.84-1.5-.73-1.79-2.42-3.11-3.34-1.33-1.47-2.81-2.63-4.04-4.09,.13,1.2-.56,1.48-1.54,1.38-.9-.09-1.67-.51-2.08-1.32-.79-1.56-1.73-3.08-2.19-4.77-.29-1.08-.9-1.67-1.84-2.22-5.1-3.02-9.4-6.94-12.97-11.69-2.45-3.27-4.68-6.74-8.1-9.18-1.31-.93-1.59-.9-1.95,.72-.17,.77-.26,1.55-.09,2.43,.49-.47,.31-.98,.36-1.43,.08-.66-.15-1.49,.68-1.81,.82-.32,1.25,.42,1.76,.85,1.39,1.18,2.5,2.63,3.58,4.08,2.93,3.94,6.15,7.63,9.46,11.25,1.28,1.4,2.9,2.4,4.57,3.19,3.13,1.48,4.72,4.11,5.99,7.13,.67,1.59,.59,2.98,.34,4.69-.4,2.76-1.17,5.68,.1,8.49,.13,.29,.21,.62,.17,.94-.41,2.83-.15,5.72-.72,8.54-.35,1.75-1.73,2.61-3.02,3.55-.37,.27-1,.26-1.12-.18-.3-1.13-1.02-.94-1.84-.85-.94,.1-1.46-.42-1.68-1.34-.42-1.79-1.21-2.18-2.92-1.52-.35,.14-.66,.33-.97,.55-2.09,1.51-2.5,1.31-3.66-.94-1.47-2.87-1.34-6-1.73-9.04-.13-1.01-.36-2.03-1.08-2.58-1.55-1.18-1.51-2.8-1.68-4.43-.33-3.08-1.32-5.8-4.32-7.31-.86-.43-1.67-.94-2.35-1.64-.56-.57-1.25-.73-2.03-.78-6.01-.42-11.81-1.67-17.21-4.46-2.42-1.25-5.06-2.04-7.33-3.56-2.51-1.67-4.34-4.09-6.32-6.3-3.41-3.81-6.72-7.72-8.82-12.49-.69-1.57-2.22-2.43-3.73-3.13-1.01-.47-2.12-.71-3.1-1.27-.47-.26-.86-.2-1.32,.13-1.54,1.12-2.91,.88-3.96-.75-.75-1.16-1.3-2.44-1.82-3.73-2.63-6.47-4.78-13.11-7.04-19.71-1.57-4.59-2.6-9.3-3.11-14.15-.27-2.53,0-5.1-.65-7.7Z"/>
      <path class="cls-1" d="M175.88,246.26c.18,.09,.25,.14,.35,.28,.46,.52,.85,1.02,1.56,1.31,.08,.06,.08,.06,.08,.06,3.62,3.06,7.33,6,11.28,8.62,1.74,1.15,3.69,.66,5.31-.23,1.03-.56,1.64-.51,2.37,.16,1.26,1.14,2.26,2.51,3.51,3.67,3.96,3.65,7.3,7.89,11.02,11.77,2.02,2.11,4.06,4.22,6.33,6.08,1.46,1.19,2.39,2.87,3.99,4.06,.1,.05,.05,.06,.07,.05,.03,.11,.08,.21,.27,.32,.26,.19,.43,.35,.63,.59,.24,.33,.39,.61,.54,.88,1.37,2.4,.77,3.54-2.03,3.63-1.6,.05-3.21-.21-4.6-1.02-2.8-1.63-5.67-3.11-8.53-4.81,1.01,1.13,1.07,2.34,.35,3.71-.03,.11-.04,.21-.08,.25-.12,.11-.19,.19-.27,.35-.01,.08-.05,.04-.03,.05-.11,.04-.21,.11-.26,.3,.04,.09,.01,.09,.01,.1-2.96,1.74-5.89,.97-8.72-.22-4.5-1.89-8.19-4.96-11.53-8.44-1.2-1.25-2.41-1.95-4.25-2.02-3.41-.14-6.43-1.78-9.46-3.2-.86-.4-1.73-.82-2.63-1.42-.08-.09-.05-.13-.07-.11-.29-.56-1.02-.46-1.5-.92-.1-.05-.06-.08-.07-.06-.16-.33-.56-.33-.89-.59-.09-.05-.06-.07-.06-.05-.17-.32-.56-.32-.91-.58-.09-.04-.06-.08-.06-.05-.15-.33-.56-.33-.89-.59-.09-.05-.05-.07-.06-.05-.04-.1-.11-.2-.3-.27-.09,.02,.02-.09-.04-.04-2.47-1.8-4.61-4-7.29-5.7-.1-.05-.06-.09-.07-.06-.03-.11-.1-.22-.32-.3-1.2-.92-2.3-1.83-3.45-2.83-.11-.19-.17-.28-.33-.38-.08-.03-.04-.05-.05-.03-.04-.1-.11-.19-.3-.29-.18-.02-.26-.05-.34-.18-.03-.21-.09-.34-.31-.42-.11,.03-.03-.05-.07,0-.9-.82-1.78-1.66-2.73-2.58-.09-.07-.06-.08-.07-.06-.06-.08-.13-.17-.28-.28-.07-.04-.05-.04-.05-.03-.05-.09-.11-.18-.28-.28-.08-.02-.05-.03-.05-.02-.03-.1-.09-.2-.27-.29-.09-.01-.05-.03-.06-.01-.02-.11-.07-.21-.26-.3-.09-.01-.05-.03-.06,0-.02-.11-.07-.23-.27-.3-.1,.01,0-.08-.04-.03-.02-.1-.07-.22-.29-.27-.1,.04-.07-.01-.09,0,.03-.14,0-.26-.23-.3-.1,.05-.12,.02-.14,.01,.08-.15,.07-.27-.18-.33-.11,.05-.11,.01-.12,.02-.02-.5-.65-.53-.84-.97-.11,0-.02-.08-.07-.04,.02-.11,0-.23-.25-.3-.1,.03-.1,0-.11,0,.05-.14,.03-.27-.21-.33-.1,.03-.08,0-.1,0,.05-.13,.03-.25-.2-.34-.11,0,0-.1-.05-.05-.02-.09-.06-.21-.28-.27-.1,.03,.01-.07-.05-.03,0-.1-.03-.22-.26-.3-.1,.01-.03-.1-.07-.05-1.46-1.97-3.46-3.4-5.38-5.01-.11,0-.12-.03-.13-.03,.07-.16,.04-.28-.19-.31-.09,.08-.14,.05-.16,.03-.36-.74-1.13-1.03-1.69-1.68-.09-.06-.06-.08-.07-.06-.05-.09-.11-.18-.27-.29-.08-.04-.05-.04-.05-.03-.05-.09-.11-.18-.27-.29-.08-.04-.05-.04-.05-.03-.05-.09-.11-.18-.27-.29-.08-.03-.05-.05-.05-.03-.63-.88-1.62-1.46-2.22-2.48-.11-.03-.05-.06-.07-.03,.01-.11-.02-.21-.22-.33-.09-.03-.05-.04-.06-.02-.18-.28-.33-.59-.6-.9-.1-.02-.04-.06-.06-.03,0-.1-.03-.21-.22-.32-.09-.03-.05-.04-.06-.03-.26-.4-.61-.75-.92-1.22-.1-.03-.04-.07-.06-.04-.23-.44-.61-.8-.95-1.21-.1,.04-.1,0-.12,0-.11-.58-.6-.87-.95-1.27-1.8-2.05-2-4.18-.62-6.56,.11-.18,.17-.4,.32-.55,.51-.53,4.35-.6,4.92-.09,.79,.71,1.44,1.58,2.5,2.17,.91,.61,1.56,1.29,1.95,2.19,.17,.4,.46,.71,.89,1.02,1.41,.78,2.3,2,3.38,3,.65,.6,1.16,1.38,2.13,1.79,.85,.43,1.06,1.21,1.54,1.91,.23,.2,.42,.23,.68,.33,.08,.06,.07,.06,.07,.05,.13,.14,.28,.26,.58,.31,.24,.19,.39,.37,.6,.6,.24,.23,.34,.47,.66,.63,.07,.06,.08,.06,.08,.06,.05,.05,.1,.11,.24,.24,.08,.08,.08,.08,.08,.08,.05,.05,.1,.11,.24,.24,.08,.08,.08,.08,.08,.08,.14,.15,.33,.16,.58,.26,.26,.21,.44,.36,.66,.59,.11,.16,.17,.24,.3,.37,.06,.05,.06,.06,.06,.06,.05,.05,.1,.11,.24,.24,.08,.08,.08,.08,.08,.08,.13,.14,.32,.16,.56,.26,.07,.05,.07,.06,.07,.06,.32,.37,.72,.66,1.18,1.04,.26,.17,.44,.28,.67,.49,.07,.07,.07,.07,.07,.07,.24,.23,.58,.29,.9,.58,.07,.07,.07,.07,.06,.06,.54,.36,1.16,.57,1.84,.9,.09,.06,.08,.06,.08,.06,3.01,1.94,6.06,3.7,9.87,3.44,2.73-.18,3.91-1.77,3.08-4.39-.21-.66-.46-1.31-.62-1.98-.1-.42-.23-.91,.18-1.18,.46-.3,.76,.16,1.17,.5,.09,.08,.09,.08,.08,.08,.14,.15,.33,.16,.59,.27,.43,.22,.68,.51,.96,.89,.11,.17,.18,.25,.31,.39,.06,.06,.06,.05,.05,.05,.07,.07,.14,.15,.27,.27,.06,.05,.05,.05,.05,.05,.45,.43,.83,.95,1.54,1.22Z"/>
      <path class="cls-4" d="M46.13,43.04c-.2,.26-.35,.36-.65,.39-1.54,.13-2.59,1.44-4.13,1.35-.52-.03-1.06,.09-1.59,.01-8.29-1.22-16.54-.52-24.79,.42-4.42,.51-8.84,1-13.1,2.43-1.02,.34-1.27-.19-1.09-1.07,.22-1,.73-1.89,1.18-2.79,2.23-4.48,4.46-8.97,8.46-12.41,.1-.09,.09-.1,.09-.1,.82-.42,1.43-1.09,2.18-1.77,.07-.07,.14-.18,.2-.2,.38-.17,.7-.34,1-.64,0-.11,.07-.02,.04-.07,2.39-1.59,4.84-3.07,7.52-4.14,.74-.3,1.45-.73,2.26-.74,1.52-.02,2.81-.74,4.27-1.19,.79,.71,1.63,.36,2.39,.39,.74,.03,1.39,.08,1.68,.89,.22,.59,.68,.68,1.26,.75,1.99,.26,3.99,.51,5.95,.96,1.38,.32,2.76,.8,3.45,2.3,.61,1.33,.4,2.17-.96,2.66-1.73,.61-3.24,1.59-4.82,2.46-.14,.08-.25,.19-.21,.5,1.06,.03,2.13,.21,3.2,.37,1.99,.29,3.77,1.13,5.45,2.16,.54,.33,1.41,.81,.61,1.75-.33,.39,.1,.52,.31,.73,.94,.99,2.2,1.72,2.61,3.28,.05,.94-.54,.99-1.14,1.04-.51,.04-1.05-.09-1.63,.25Z"/>
      <path class="cls-4" d="M55.5,271.4c.59-.01,.98-.26,1.5-.47,.79-.32,1.47-.51,2.23-.6,1.42-.16,2.68-.66,3.84-1.68,2.71-2.38,5.57-4.61,8.78-6.52,.09-.07,.15-.17,.22-.17,.17-.01,.28-.05,.43-.17,.07-.05,.15-.15,.22-.15,.19-.02,.29-.08,.43-.23,.17-.18,.28-.29,.47-.41,.21-.01,.33-.06,.49-.23,.08-.19,.14-.27,.31-.35,2.08-1.84,4.34-3.35,6.52-4.93,3.36-2.44,6.43-5.2,9.52-7.94,.99-.88,1.96-1.78,3.04-2.56,.93-.67,1.85-1.35,2.23-2.59,.41-1.36,1.53-1.24,2.74-.87,.42,.16,.66,.37,.89,.75,.21,.72,.49,1.19,1.22,1.2,.84,0,1.36,.58,1.86,1.13,.96,1.06,.84,2.52-.38,3.3-1.06,.67-1.89,1.53-2.67,2.48-2.3,2.8-4.95,5.13-8.56,6.12-1.05,.29-1.9,.93-2.74,1.59-2.97,2.34-6.02,4.58-9.34,6.41-1.31,.72-2.6,1.51-3.55,2.68-.83,1.02-2.12,1.18-3.16,1.99-.13,.13-.18,.17-.32,.27-.34,.11-.61,.07-.92,.28-.25,.17-.44,.25-.73,.36-1.4,.48-2.58,1.13-3.04,2.49-.63,1.84,.27,3.29,2.18,3.67,.83,.16,1.7,.16,2.51,.76,.16,.1,.22,.15,.37,.27,.75,1.19,1.99,1.96,2.03,3.54-.11,.35-.24,.55-.49,.81-1.25,.45-2.05-.23-2.77-.92-1.11-1.07-2.4-1.64-3.9-1.36-1.27,.23-2.49-.84-3.84,0-.2,.12-.3,.2-.48,.31-.24,.02-.36,.07-.5,.27-.03,.1-.03,.06-.02,.07-.19,.05-.4,.08-.59,.29,0,.11-.09-.03-.04,.04-.22,.03-.37,.26-.65,.42-.24,.16-.41,.27-.66,.42-1.21,.94-2.21,1.96-3.18,3.16-.07,.14-.08,.19-.12,.32-.38,.59-.28,1.17-.26,1.73,.03,1.02-.33,1.8-1.36,2.34-.2,.03-.28,.03-.47-.03-.47-.74-.01-1.52-.34-2.29-.04,.75-.17,1.43-.8,1.8-1.65,.97-2.19,2.65-2.78,4.3-.19,.54-.19,1.18-.99,1.4-.11,0-.14-.04-.16-.05-.31-1.53-.27-3.03,.24-4.51,.41-1.21,.59-2.44,.28-3.83,.06-.37,.12-.62,.23-.98,.15-.88,.75-1.24,1.38-1.71,.15-.12,.21-.16,.37-.26,1.54-.57,2.55-1.54,3.06-2.97,.45-1.26,1.52-2,2.3-3.01-2.12,3.15-5.23,4.9-8.66,6.19-1.23,.46-1.89,1.51-2.55,2.54-.49,.76-.93,1.55-1.52,2.37-.03,.11-.02,.2-.06,.22-.46,.44-.85,.88-1.31,1.25-.45,.36-1.03,.55-1.46,.12-.47-.48,.12-.82,.38-1.19,.3-.42,1.05-.85-.08-1.33-.26-.05-.4-.09-.65-.19-.38-.22-.56-.46-.49-.91,.06-.1,.1-.25,.16-.29,1.29-1.3,2.32-2.68,2.85-4.4,.29-.94,.91-1.72,1.9-2.02,3.27-1.02,5.33-3.55,7.55-5.9,.55-.58,1.01-1.23,1.86-1.63Z"/>
      <path class="cls-4" d="M92.81,292.99c-.07,.23-.1,.36-.18,.58-.63,.94-.52,2.04-1.07,2.9-.26,.41-.48,.86-1.04,.85-.5-.01-.65-.47-.85-.84-.53-1.01-.81-2.03-.39-3.18,.44-1.19,.31-2.52,.79-3.84,.04-.12,.02-.21,.05-.24,.15-.12,.25-.23,.3-.46-.02-.11-.02-.16,0-.18,.16-.11,.26-.22,.3-.48-.03-.11-.02-.14-.02-.16,.63-1.09,1.27-2.16,1.76-3.21-1.03,1.29-2.73,1.52-4.19,1.79-2.48,.47-4.06,2.1-5.77,3.63-.9,.81-1.63,1.91-3.21,1.35-.1-.04-.23-.03-.27-.07-.84-.3-1.52-.01-2.24,.5-.27,.48-.67,.61-1.14,.81-.68,.24-1.35,.99-1.63-.4,.53-1.77,1.45-3.04,3.01-3.82,.37-.18,.69-.48,1.1-.81,2.51-1.96,4.2-4.87,7.58-5.42,.46-.07,.97-.21,1.29-.6,1.07-1.28,2.48-1.32,3.95-1.14,1.96,.23,3.38-.54,4.4-2.22,1.47-2.43,3.35-4.53,5.57-6.46,.11-.14,.16-.19,.28-.31,.13-.11,.18-.15,.4-.29,.21-.14,.26-.17,.44-.32,.18-.15,.22-.19,.38-.34,.16-.15,.2-.19,.36-.34,.15-.15,.19-.19,.35-.35,.15-.16,.19-.2,.31-.39,.14-.25,.18-.37,.25-.57,.28-.67,.73-1.11,1.18-1.67,.57-.62,.98-1.23,1.27-2.03,.07-.16,.1-.23,.19-.37,.19-.24,.34-.38,.52-.63,.09-.15,.13-.21,.21-.36,1.74-2.65,3.72-5.02,5.06-7.93,.08-.17,.11-.23,.2-.39,.12-.23,.19-.36,.3-.6,.08-.17,.11-.25,.19-.42,1.24-2.61,2.7-4.95,4.47-7.1,.41-.5,.84-.96,1.39-1.3,1.64-1.02,2.88-.48,2.98,1.43,.05,.96,.31,1.37,1.29,1.31,.79-.04,1.64-.13,1.97,.9,.31,.97-.23,1.62-.81,2.27-.32,.36-.69,.66-1.14,1-.03,.07-.06,.02-.05,.05-.1,0-.22,.02-.32,.25-.01,.1-.06,.03-.03,.06-.3,.18-.63,.33-.86,.65,.06,.09,0,.14-.02,.16-.15-.12-.26-.13-.3,.12,.08,.09,.04,.15,.02,.17-3.17,2.6-5.91,5.5-7.32,9.44,.09,.14,.08,.21,.03,.37-.21,.19-.19-.33-.42,.09-.03,.32-.11,.51-.26,.8-.44,.69-.93,1.23-1.26,2-1.15,2.17-2.45,4.13-3.55,6.32-.01,.11-.04,.12-.04,.14-.87,1.17-1.68,2.38-2.65,3.6-.06,.09-.07,.09-.06,.09-.19,.14-.42,.24-.59,.55-.07,.06-.05,.09-.07,.08-.17,.17-.42,.26-.57,.57-.06,.07-.06,.08-.06,.08-.55,.56-1.08,1.13-1.63,1.69-.98,.99-1.13,1.95,.02,3.02,.22,.08,.34,.1,.55,.16,.87,.58,1.64,.63,2.44,.03,.43-.32,.96-.62,1.23,.31-.04,.18-.06,.26-.12,.43-.31,1.59-.81,2.88-2.72,3.04-.35,.07-.58,.11-.93,.14-2.21-.61-4.38,.11-6.51-.56-1.64-.52-1.67,1.15-2.15,2.25-.04,.11-.07,.08-.05,.08-.18,.09-.2,.29-.29,.55-.05,.08-.07,.06-.06,.07-.1,.07-.18,.16-.24,.37-.2,.53-.4,.96-.68,1.46-.33,.42-.39,.85-.62,1.32Z"/>
      <path class="cls-3" d="M99.23,242.54c-.24-.27-.39-.45-.62-.66-1.46-1.14-2.44-.97-2.94,.48-.18,.52-.04,1.25-.85,1.28-.7,.03-1.15-.43-1.47-1.01-.05-.09-.09-.19-.2-.38-.27-.35-.48-.6-.72-.94-1.08-2.18-2.26-4.19-2.97-6.45-.39-1.23-.5-2.45,0-3.58,.53-1.2,.15-2.06-.59-2.9-1.89-2.15-3.09-4.71-4.3-7.25-.61-1.28-.62-2.69-.72-4.07-.06-.84,.41-1.28,1.2-.85,4.12,2.23,8.73,2.63,13.19,3.6,.31,.07,.63,.22,.94,.19,2.27-.23,3.4,1.19,4.83,2.7,2.59,2.72,2.88,5.89,2.59,9.19-.22,2.52-.28,4.98,.24,7.45,.4,1.91-.48,3.67-.71,5.5-.07,.54-.49,.68-.95,.34-.39-.28-.81-.55-1.12-.88-.88-.94-1.89-1.27-3.15-1.11-.58,.07-1.17-.06-1.69-.65Z"/>
      <path class="cls-6" d="M28.16,22.53c-.36,.19-.81,.22-.92,.43-.55,1.05-1.48,.94-2.42,.96-1.79,.03-3.29,.99-4.86,1.67-1.69,.73-3.36,1.49-4.8,2.69-.27,.23-.63,.4-1.14,.33,2.22-2.02,4.86-3.5,7.61-4.8,.14-.07,.29-.16,.45-.17,2.5-.18,4.45-1.65,6.5-2.83,2.55-1.46,5.29-2.51,7.93-3.75,.88-.42,1.94-.61,2.89-1.01,.42-.18,.72-.4,1-.71,2.89-3.14,5.9-6.19,9.39-8.65,3.95-2.79,8.28-4.92,13.13-5.54,2.01-.26,3.96-.7,5.95-.99,2.22-.32,4.49-.09,6.69,.24,6.75,1,12.74,3.91,17.97,8.17,2.58,2.1,4.6,4.87,6.68,7.5,3.34,4.23,6.31,8.72,9.15,13.3,.39,.63,.72,1.31,1.06,1.97,.14,.28,.26,.59,.33,.89,.16,.65-.14,1.16-.61,1.55-.44,.36-.79-.06-1.15-.25-.19-.1-.38-.19-.6-.13-.2,.17-.16,.37-.06,.57,1.86,3.85,3.01,7.97,4.44,11.98,1.52,4.26,3.07,8.52,4.27,12.89,.15,.56,.39,.83,.95,.85,.39,.01,.78,.14,1.01,.43,.63,.79,1.25,1.54,2.41,1.36,1.65,1.69,4.03,1.34,6.02,2.09,3.45,1.3,6.84,2.7,9.95,4.65,2.95,1.85,5.57,4.09,6.76,7.57,.3,.87,.39,1.66-.32,2.35-.43,.41-.28,.69,.11,1.04,.54,.5,1.03,1.06,1.52,1.61,1.65,1.86,2.22,4.21,2.85,6.5,.38,1.36,.74,2.78,.39,4.24-.09,.39,.17,.7,.38,1.02,3.16,4.69,5.75,9.71,8.62,14.57,3.96,6.71,7.06,13.85,10.55,20.8,1.36,2.71,2.9,5.33,4.05,8.15,.4,.98,.77,1.98,1.18,2.96,.48,1.17,1.03,2.1,2.29,2.81,2.63,1.48,4.68,3.71,5.97,6.49,1.07,2.32,2.23,4.65,2.69,7.15,.41,2.19,1.35,3.92,2.76,5.56,1.56,1.82,2.59,4.02,3.89,6.03,2,3.08,4.03,6.14,5.92,9.29,1.92,3.19,3.56,6.55,4.86,10.04,2.18,5.84,4.41,11.65,6.67,17.45,1.34,3.44,2.65,6.96,3.15,10.69,.25,1.84,.95,3.61,.65,5.52-.08,.51,.3,.9,.61,1.26,2.72,3.16,4.4,6.89,5.95,10.82-.58-.18-.68-.81-.93-1.32-1.27-2.58-2.61-5.11-4.44-7.36-.7-.86-1.23-1.86-1.77-2.84-.39-.7-.58-1.48-.58-2.3-.03-3.09-.57-6.12-1.28-9.12-.49-2.04-1.44-3.9-2.33-5.76-.97-2.03-1.53-4.19-2.28-6.29-1.64-4.55-3.49-9.03-5.42-13.46-2.08-4.78-4.66-9.29-7.5-13.65-2.09-3.21-4.44-6.23-6.96-9.1-1.41-1.6-1.62-3.5-2.05-5.38-.64-2.82-1.53-5.54-3.22-7.92-.56-.78-.8-1.74-1.48-2.46-1.27-1.34-2.67-2.46-4.48-2.95-.75-.2-1.12-.66-1.35-1.37-1.74-5.43-3.98-10.66-6.6-15.72-.71-1.37-1.52-2.68-2.29-4.02-.96-1.67-1.74-3.42-2.44-5.2-1.42-3.64-3.54-6.91-5.44-10.29-.96-1.72-1.92-3.44-2.95-5.11-.8-1.31-1.6-2.66-2.6-3.82-1.59-1.83-2.66-3.97-3.91-6.01-.5-.81-1.03-1.62-1.52-2.43-.14-.23-.25-.53,.01-.72,.28-.2,.48,.04,.65,.25,.37,.45,.74,.91,1.13,1.34,.27,.3,.5,.7,1.06,.61-.27-5.34-2.88-9.1-7.61-11.47,.37-.51,.86-.49,1.3-.58,.78-.15,1.01-.91,1.46-1.4,.36-.39-.15-.77-.23-1.17-.16-.71-.62-1.21-1.09-1.72-2.66-2.89-5.77-5.2-9.17-7.1-2.33-1.31-4.91-1.98-7.5-2.64-2.38-.61-4.74-1.19-7.22-1.02-.2,.01-.43,.03-.59-.25,.09-.68,.94-.48,1.31-1.02-.73-.63-1.37-.19-2.14,.21-2.22-10.46-6.23-20.23-10.16-30.09,1.03-.16,1.43,.87,2.33,1.09,1.65-.2,.34-1.17,.5-1.82-.95-.92-1.17-2.12-1.77-3.11-1.02-1.68-2.04-3.37-3.26-4.9-1.83-2.28-3.38-4.76-5.2-7.05-1.46-1.83-2.88-3.68-4.85-5.02-1.63-1.1-2.82-2.75-4.6-3.67-2.97-1.53-5.65-3.63-8.87-4.67-3.44-1.11-6.98-1.25-10.55-1.1-.31,.01-.62,.13-.92,.24-1.02,.38-2.04,.53-3.12,.16-.44-.15-.95-.06-1.56-.08-.2,.05-.25,.09-.4,.2-.32,.08-.56,.09-.91,.1-.35,.22-.65,.12-1,.24-.22,.07-.35,.08-.59,.09-2.09,.76-4.22,1.16-6.13,2.43-.09,.08-.25,.1-.33,.1-.21,.15-.4,.16-.65,.26-.07,.05-.22,.07-.29,.08-.15,.07-.23,.13-.36,.25-.06,.05-.2,.07-.28,.08-.22,.13-.41,.14-.66,.26-.07,.06-.07,.06-.07,.06-.05,.05-.11,.1-.24,.22-.08,.07-.09,.08-.09,.09-.13,.15-.32,.16-.56,.26-1.45,1.22-3.03,2.11-4.46,3.22-1.7,1.33-3.13,2.89-4.39,4.59-1,1.35-2.3,2.33-3.46,3.49-.16,.16-.35,.23-.57,.25-2.88,.3-5.32,1.73-7.82,3-.99,.51-1.95,1.09-2.99,1.72Z"/>
      <path class="cls-7" d="M99.14,242.57c1.02,.25,2.07,.42,3.12,.09,.43-.14,.78-.07,.98,.26,.6,.96,1.8,1.25,2.42,2.46,.4-1.03-.03-1.95,.43-2.67,.49-.78,.47-1.63,.4-2.47-.06-.9-.1-1.81-.34-2.67-.58-2.08,0-4.1,.11-6.15,.1-1.89-.04-3.8-.61-5.63-.22-.71-.64-1.33-1.2-1.86-.65-.62-1.2-1.28-1.66-2.09-.5-.87-1.36-1.69-2.63-1.31-.27,.08-.5,.07-.77,.02-3.11-.66-6.21-1.33-9.33-1.93-1.6-.31-3-1.05-4.43-1.74-.42-.2-.8-.54-1.44-.45,.25,2.07,.22,4.16,1.42,6.04,1,1.56,1.7,3.3,2.83,4.78,.48,.63,.94,1.28,1.45,1.89,.53,.64,.67,1.16,.12,1.96-.76,1.11-.76,2.41-.11,3.62,.18,.34,.2,.71,.32,1.05,.43,1.24,.66,2.57,1.67,3.57,.42,.42,.57,1.02,.52,1.75-1.53-1.64-2.4-3.75-3.22-5.88-.53-1.39-.45-2.84-.18-4.26,.25-1.33-.02-2.42-1.12-3.25-.88-.67-1.34-1.64-1.81-2.59-1.2-2.49-2.4-4.97-2.93-7.72-.22-1.12-.81-2.09-2.03-2.59-3.64-1.5-6.79-3.68-9.55-6.53-4.07-4.2-7.62-8.75-10.44-13.86-.97-1.76-2.15-3.33-4.05-4.15-1.16-.51-2.38-.89-3.44-1.54-.68,.56-.79,1.39-1.43,1.84-.83,.59-1.22,.63-1.94-.1-.71-.72-1.32-1.53-1.79-2.44-1.81-3.51-3.17-7.2-4.6-10.87-1.87-4.82-3.24-9.8-4.82-14.71-1.22-3.79-2.09-7.71-2.37-11.72-.04-.58-.16-1.16-.22-1.88-.02-.27-.03-.4-.02-.63-.35-1.82-.46-3.55-.23-5.44,.58-.14,.83,.12,.82,.65-.01,.75,.02,1.49,0,2.24-.08,3.36,.46,6.66,1.07,9.95,.82,4.44,2.25,8.7,3.82,12.94,1.11,2.98,1.98,6.04,3.05,9.04,.41,1.15,.87,2.29,1.38,3.39,.95,2.08,1.37,4.36,2.58,6.33,.37,.6,.69,1.16,1.35,1.51,1.34,.7,1.33,.74,2.32-.42,.48-.56,.93-.79,1.62-.26,.85,.65,1.93,.85,2.9,1.27,1.91,.82,3.61,1.91,4.55,3.94,1.48,3.19,3.49,6.03,5.74,8.75,2.24,2.7,4.75,5.15,7,7.83,.78,.93,1.8,1.65,2.92,2.18,2.26,1.06,4.55,2.06,6.77,3.19,3.97,2.02,8.24,3.05,12.58,3.77,1.44,.24,2.93,.54,4.43,.4,.48-.05,1-.06,1.34,.36,1.17,1.47,2.94,2.07,4.42,3.09,.63,.43,1.11,.89,1.37,1.66,.38,1.1,.89,2.16,1.42,3.2,.54,1.06,.07,2.17,.24,3.26,.15,.93,.26,1.65,1.1,2.3,.86,.66,1.44,1.65,1.54,2.85,.18,2.11,.37,4.22,.65,6.32,.2,1.5,1.03,2.79,1.61,4.15,.37,.88,1.15,.93,1.93,.1,.95-1.02,2.06-1.43,3.41-1.39,1.22,.04,1.35,.13,1.61,1.29,.13,.6-.19,1.35,.48,1.76,.61,.38,1.23,.04,1.84-.1,.83-.19,.91-.1,.97,.91,.01,.23,.03,.44,.24,.54,.27,.13,.51,0,.74-.15,3.07-2.17,3.3-4.43,2.97-7.73-.06-.61-.03-1.15,.16-1.7,.5-1.47,.57-2.92-.25-4.31-.49-.84-.48-1.77-.28-2.64,.17-.74,.22-1.47,.22-2.21,0-1.38-.1-2.76,.64-4.04,.36-.63,.46-1.31-.23-1.87-.16-.13-.34-.35-.34-.52,0-1.31-.9-2.24-1.35-3.35-.79-1.92-2.28-3.02-3.98-3.95-1.35-.74-2.71-1.48-3.93-2.42-1.56-1.21-2.84-2.71-4.1-4.2-2.74-3.24-5.4-6.55-8.03-9.88-.83-1.05-1.73-2.02-2.67-2.95-.26-.26-.54-.56-.97-.35-.36,.17-.29,.54-.3,.84-.02,.59-.01,1.17,0,1.76,0,.45-.15,.84-.5,1.12-.12,.09-.28,.19-.42,.18-.25-.01-.33-.23-.34-.45-.06-1.49-.04-2.98,.57-4.38,.36-.81,.67-.89,1.29-.29,1.31,1.25,2.73,2.36,4.13,3.5,.87,.71,1.47,1.67,2.06,2.62,.62,1,1.24,1.99,2.11,2.79,.73,.67,1.02,1.6,1.65,2.34,1.41,1.67,2.97,3.16,4.56,4.66,1.93,1.83,3.98,3.47,6.12,5.03,.74,.54,1.65,.72,2.41,1.22,.4,.26,.64,.44,.68,.93,.18,2.2,1.54,3.93,2.43,5.84,.23,.49,.75,.76,1.27,.91,.51,.15,1.12,.29,1.53-.11,.45-.43-.07-.87-.22-1.3-.07-.2-.19-.38,.07-.65,1.58,1.61,3.17,3.23,4.8,4.93-.52,.16-.96-.08-1.35-.49-.47-.5-.99-.96-1.46-1.46-.46-.5-.94-.62-1.55-.26-.67,.4-1.38,.51-2.12,.18-.25-.11-.57-.16-.71,.11-.76,1.49-1.53,3.01-1.07,4.76,.23,.9,1.14,1.36,1.55,2.17,.18,.36,.64,.58,.51,1.19-.31-.16-.58-.43-.92-.76-.21-.07-.3-.03-.4,.17-.1,.22-.31,2.72-.29,2.94,.21,2.19-.19,4.35-.31,6.52-.03,.58-.13,1.16-.2,1.74-.2,1.62-.93,2.93-2.32,3.83-1.03,.67-2.03,1.34-2.67,2.44-.3,.52-.9,.74-1.48,1.11-.19-.55,.32-.78,.63-1.12,.32-.35,.66-.69,.85-1.14,.45-1.08,.14-1.61-1.03-1.69-.21-.02-.43,0-.64,0-1.38-.01-1.37-.01-1.34-1.49,.01-.62-.21-1.19-.71-1.53-.52-.35-1.09-.22-1.65,.1-1.24,.72-1.93,1.93-2.78,3-1.35,1.7-2.24,3.69-3.45,5.58-.44-1.72,.58-3.12,1.19-4.6,.35-.84,.34-1.35-.13-2.16-1.54-2.68-2.03-5.69-2.44-8.71-.14-1.05-.35-2.1-.39-3.17-.03-.79-.33-1.47-.97-1.93-1.1-.8-1.48-1.95-1.52-3.2-.05-1.58-.49-3.03-1.29-4.82,.82,3.65,.41,6.9-.01,10.15-.14,1.09,.07,2.13,.25,3.17,.34,1.99,.33,3.91-.43,5.8-.24,.59-.32,1.3-1.09,1.43-.74,.13-1.15-.42-1.54-.94-.13-.17-.23-.36-.72-.63,.63,2.25-.64,3.35-2.24,4.24-.14,.08-.27,.18-.37,.3-4.03,4.82-9.69,7.4-14.77,10.77-3.33,2.21-6.64,4.44-9.92,6.71-1.47,1.02-2.92,2.14-4.9,2.06,.09-.88,.74-1.07,1.35-1.2,.49-.11,.92-.22,1.25-.61,1.75-2.09,4.19-3.2,6.43-4.61,2.42-1.52,4.76-3.16,6.97-4.98,1.04-.86,2.12-1.59,3.42-1.95,3.32-.92,5.69-3.14,7.85-5.67,.85-1,1.61-2.04,2.85-2.69,1.27-.67,1.27-2.01,.19-2.96-.53-.46-.9-1.05-1.86-.77-.56,.16-.93-.56-.96-1.33Z"/>
      <path class="cls-6" d="M10.41,31.31c.14,.54-.27,.84-.62,1.16-2.15,1.97-3.68,4.4-5.08,6.91-1.17,2.08-2.16,4.26-3.23,6.4-.26,.51-.44,1.05-.48,1.56,.23,.2,.38,.19,.53,.12,2.47-1.21,5.23-1.28,7.84-1.95,1.13-.29,2.31-.23,3.47-.39,2.36-.32,4.73-.52,7.07-.97,.1-.02,.21-.02,.32-.03,5.15-.41,10.31-.37,15.47-.31,1,.01,2.02,.15,2.99,.38,1.71,.41,3.33,.35,4.92-.47,.49-.25,.96-.74,1.69-.35-1.07,.73-1.95,1.96-3.64,1.68-.17,.06-.21,.12-.2,.27-.12,2.56,.44,4.99,.43,7.6,.05,.21,.09,.26,.2,.4,.45,2.89,.83,5.7,1.24,8.51,.09,.6,.07,1.13-.14,1.7-.26,.68-.44,1.39-.64,2.04,.45,.41,.89,.22,1.42,.24,.18-.02,.24-.04,.37,0-.04,.33-.21,.54-.54,.72-.52-.72-1.11-.09-1.62-.13-.62-.05-.91-.24-.72-.88,.03-.1,.02-.22,.08-.31,1.38-2.28,.61-4.75,.45-7.1-.22-3.39-.85-6.76-1.29-10.14-.07-.58-.24-1-.88-1.15-.35-.08-.5-.38-.37-.74,.24-.65-.08-.87-.67-.88-2.45-.07-4.87-.52-7.33-.48-4.95,.08-9.89,.29-14.83,.66-4.26,.31-8.43,1.08-12.6,1.91-.89,.18-1.77,.38-2.47,1.03-.4,.38-.89,.4-1.32,.12-.38-.25-.16-.67-.1-1.03,.17-.95,.38-1.89,.84-2.74,1.49-2.75,2.84-5.58,4.58-8.2,1.32-1.98,2.91-3.65,4.87-5.13Z"/>
      <path class="cls-6" d="M42.3,68.3c-.93-.02-1.54,.32-2.09,.9-.49,.51-.75,1.02-.47,1.71,.39,.98,.07,1.81-.39,2.72-2.22,4.47-4.81,8.73-7.18,13.12-1.41,2.62-2.81,5.24-3.97,7.98-1.33,3.13-2.3,6.37-3.02,9.7-.36,1.65-1.03,3.23-.95,4.98,.05,1.1,.43,1.98,1.39,2.48,.63,.33,.62,.64,.25,1.1-1.63,1.99-2.28,4.41-2.84,6.83-.36,1.54-.79,3.11-.65,4.71,.22,2.53,.29,5.08,.96,7.56,.3,1.1,.82,2.07,1.51,2.96,.32,.4,.58,.54,1.16,.1,1.17-.88,1.86-1.98,2.28-3.34,.11-.37,.11-.85,.71-1.19,.43,4.94,2.71,8.71,6.73,11.55-2.31-.09-3.79-1.55-4.97-3.41-1.06-1.67-1.82-3.49-2.38-5.4-.58,.3-.56,.91-.83,1.34-.53,.83-1.1,1.56-2.26,1.47-1.13-.09-1.68-.74-2.02-1.73-1.28-3.74-1.67-7.57-1.34-11.5,.28-3.43,1.14-6.71,2.71-9.78,.12-.23,.21-.48,.36-.82-1.57-.38-1.62-1.5-1.46-2.77,.41-3.08,1.43-6,2.22-8.98,1.7-6.45,4.75-12.3,7.93-18.09,1.72-3.13,3.25-6.35,4.89-9.52,.41-.79,.28-1.64,.27-2.49,0-1.96,1.58-3.3,3.65-3.02,.23,.33,.15,.57-.18,.83Z"/>
      <path class="cls-5" d="M55.54,271.28c-1.59,1.91-3,3.97-5.1,5.37-.3,.2-.57,.49-.8,.77-.66,.82-1.51,1.32-2.53,1.53-1.5,.32-2.4,1.19-2.79,2.69-.4,1.54-1.39,2.71-2.8,3.65,.36-.75,.81-1.52,1.3-2.28,.5-.76,.87-1.58,1.16-2.44,.51-1.49,.42-1.59-1.11-1.79-.64-.09-1.37-.1-1.31-1.19,.03-.64-1.06-.9-1.82-.46-.74,.43-1.32,1.07-1.88,1.71-.45,.53-.92,1.01-1.64,1.37-.2-.05-.27-.16-.17-.34,.89-1.64,1.8-3.26,2.83-4.82,.18-.27,.37-.69,.66-.63,1.26,.26,2.14-.64,3.21-.94,.8-.23,1.48,.2,2.14,.46,.73,.28,1.4,.33,2.16,.2,.76-.14,1.54-.48,2.34-.09,.12,.06,.37,.05,.46-.03,1.02-.94,2.52-1.07,3.52-1.99,.48-.44,1.13-.55,1.55-1.05,.15-.18,.38,.06,.6,.3Z"/>
      <path class="cls-5" d="M101.3,271.51c.09,.48-.09,.81-.41,1.03-1.88,1.27-3.06,3.19-4.5,4.86-.24,.28-.49,.59-.6,.93-.55,1.71-2.08,2.13-3.47,2.74-.32,.14-.61,.01-.92-.04-1.54-.28-3.01-.42-4.19,1.02-.67,.81-1.84,.75-2.79,.99-.66,.17-1.18,.42-1.61,.91-1.27,1.44-2.76,2.62-4.48,3.66-.23-.4-.3-.79,.22-1.05,.4-.21,.89-.32,1.12-.89-.55-.4-1.32-.46-1.75-1.02-.48-.63-.87-.99-1.24,.09-.11,.32-.57,.42-.82,.25-.81-.53-1.58-.47-2.39-.06-.37,.19-.75,.15-.99-.21-.23-.33,.07-.6,.23-.84,.34-.52,.75-1,1.15-1.52-.67-.71-1.69-.23-2.36-.81-.64-.56-1.27-1.22-2.03-1.5-.97-.35-1.91-.81-3.16-.38-.85,.29-2.09,.25-3.21-.26,.13-.88,.56-1.28,1.5-.8,.87,.45,1.85,.42,2.8,.36,1.42-.09,2.59,.41,3.55,1.42,.64,.67,1.34,1.2,2.46,1.15,1.12-.34,1.69,.62,2.63,.9-.34-1.17-1.57-.69-2.11-1.45,.05-.82-.51-1.2-.82-1.73-.34-.59-.96-.97-1.16-1.77,.93-.55,1.48,.18,1.81,.73,.81,1.34,2,1.93,3.44,2.19,2.48,.46,4.9,1.4,7.49,1.04,.36-.05,.81,.1,1.1-.09,1.88-1.21,4.03-1.45,6.15-1.87,1.06-.21,1.86-1.01,2.49-1.9,1.38-1.97,3.2-3.54,4.85-5.26,.5-.52,1.01-1.14,2-.8Z"/>
      <path class="cls-7" d="M221.75,281.99c-.62,.24-.93-.25-1.3-.62-1.24-1.22-2.32-2.61-3.68-3.71-1.86-1.5-3.41-3.33-5.17-4.94-1.35-1.24-2.62-2.64-3.8-4.07-2.86-3.51-5.97-6.77-9.41-9.71-.24-.2-.55-.45-.6-.72-.16-.86-.88-1.13-1.42-1.62-.62-.55-1.08-.84-1.58,.1-.11,.21-.42,.44-.63,.43-1.28-.02-2.5,.5-3.79,.37-.55-.06-.99-.33-1.45-.61-2.23-1.36-4.18-3.08-6.25-4.65-1.39-1.06-2.76-2.15-4.13-3.23-.29-.23-.58-.48-.67-.98,.81-.05,1.3,.61,1.84,1.06,2.52,2.04,5.31,3.7,7.89,5.64,.94,.71,2,1.19,3.11,1.6,1.15,.43,2.53,.44,3.09-.42,.52-.79,.76-2.17-.07-3.23-.06-.07-.04-.2-.09-.42,.72-.08,1,.48,1.33,.88,2.16,2.57,4.52,4.92,7.17,7.15,0,.51,.42,.77,.44,1.25,1.82,2.14,3.6,4.25,5.52,6.22,3.08,3.17,6.08,6.42,9.43,9.31,1.63,1.41,2.7,3.29,4.21,4.92Z"/>
      <path class="cls-6" d="M171.08,271.18c.84-.28,1.44,.36,2.13,.69,2.91,1.4,5.8,2.86,9.04,3.41,.58,.1,1.16,.23,1.73,.16,1.29-.16,2.19,.36,3.05,1.3,2.7,2.95,5.75,5.5,9.15,7.62,2.67,1.66,5.47,2.77,8.7,2.64,.94-.04,1.74-.41,2.74-.58-.98,1.74-2.77,1.62-4.31,1.31-3.78-.75-7.34-2.16-10.4-4.6-2.41-1.92-4.87-3.79-6.79-6.25-.28-.35-.58-.52-1.06-.54-2.31-.08-4.51-.65-6.66-1.47-2.53-.98-5.02-2.04-7.32-3.69Z"/>
      <path class="cls-7" d="M93.08,242.28c.22,.04,.43,.19,.63,.36,.35,.29,.6,.83,1.14,.74,.69-.12,.34-.77,.5-1.17,.32-.76,.99-1.22,1.56-1.75,.22-.2,.49-.14,.71,.05,.35,.32,.72,.62,.88,1.22-.13,.1-.3,.12-.45,.09-1.64-.38-1.62-.37-2.13,1.3-.3,.97-1.2,1.5-1.94,2.01-2.38,1.63-4.3,3.77-6.48,5.62-1.62,1.37-3.25,2.71-4.95,3.98-2.58,1.92-5.06,4.01-7.95,5.67,1.07-1.51,2.48-2.82,4.07-3.86,3.53-2.3,6.9-4.79,9.83-7.82,1.41-1.46,2.79-2.93,4.44-4.12,.95-.69,.12-1.45,.14-2.3Z"/>
      <path class="cls-5" d="M90.01,289.4c.32,1.38,.12,2.82-.43,4.12-.57,1.38,.43,2.28,.73,3.38,.11,.4,.58,.09,.71-.19,.29-.62,.52-1.27,.75-1.91,.14-.4,.24-.81,.7-1.12-.22,1.16-.07,2.51-1.06,3.49-.22,.22-.41,.57-.68,.64-1.46,.4-1.82,1.65-2.28,2.83-.32,.83-.62,1.67-.95,2.53-.46-.19-.43-.58-.47-.92-.12-.95-.2-1.9-.33-2.85-.17-1.3-.03-2.43,.93-3.52,.89-1.01,1.54-2.23,1.62-3.71,.05-.9-.03-1.93,.75-2.79Z"/>
      <path class="cls-6" d="M202.64,261.5c-.29-.24-.96-.41-.5-1.09,2.28,1.32,4.67,2.12,7.27,2.21,.61,.02,.99,.35,1.34,.75,1.38,1.57,3.08,2.48,5.16,2.88,1.44,.27,2.8,.95,4.32,.97,.25,0,.5,.17,.76,.04,.72-.36,1.6-2.28,1.49-3.11-.14-1.05-.52-2.05-.47-3.13,.03-.49-.31-.89-.49-1.33-.24-.58-.71-1.07-.62-1.87,1.74,2.03,2.4,4.5,2.22,7.17-.12,1.88-1.9,3.27-3.79,2.94-3.6-.63-6.93-1.97-9.89-4.15-.53-.39-1.08-.71-1.72-.78-1.62-.15-3.09-.68-4.44-1.57-.19-.13-.38-.15-.65,.07Z"/>
      <path class="cls-6" d="M208.44,285.44c.5-1.69-.35-3.05-1.3-4.39-.04-.06,.02-.19,.05-.38,.74,.06,1.14,.71,1.69,1.03,2.6,1.52,5.25,2.95,7.86,4.46,1.8,1.04,3.9,1.24,5.97,.74,.93-.22,1.24-.96,.72-1.85-.33-.56-.5-1.16-.75-1.86,.82,.36,1.22,1.19,1.67,1.96,.6,1.02,.14,1.96-.39,2.85-.5,.82-1.33,.61-2.03,.44-3.17-.75-6.26-1.73-9.05-3.49-1.11-.7-2.24-1.4-3.5-1.87-.41,.77-.37,1.63-.95,2.35Z"/>
      <path class="cls-2" d="M208.97,239.9c-.8-1.49-1.03-3.17-2.24-4.26,.45,.93,1.32,1.66,1.99,2.49,1.86,2.3,4.26,3.94,6.95,5.16,.59,.27,1.22,.38,1.85,.42,1.39,.09,2.42-.62,2.98-1.91,.28-.64,.53-1.27,.58-2.08,.55,1.89-.11,3.29-1.85,3.98-1.95,.78-3.74,.3-5.46-.66-.92-.51-1.8-1.11-2.54-1.88-.33-.35-.68-.68-1.35-.51-.16,0-.21-.03-.31-.14-.13-.15-.22-.23-.38-.36-.11-.1-.15-.14-.22-.26Z"/>
      <path class="cls-5" d="M44.91,287.72c.84-2.37,1.81-4.69,4.63-5.64,1.64-.55,3.13-1.51,4.69-2.3,.41-.2,.47-.69,.78-.99,1.09-1.07,2.16-2.16,3.29-3.28,.36,.71-.09,1.01-.41,1.32-1.05,1.05-2.01,2.09-2.58,3.55-.48,1.22-1.5,2.18-3.06,2.42-.24-.18-.21-.36-.04-.58,.05-.05,.11-.16,.04-.12-.52,.31-.97,.6-1.62,.64-.6,.41-1.27,.31-1.84,.62-1.51,.82-2.07,2.44-3.22,3.54-.22,.21-.38,.5-.66,.81Z"/>
      <path class="cls-5" d="M79.28,291.56c1.23,0,2.22-.61,2.9-1.61,.56-.83,1.33-1.34,2.15-1.81,.41-.24,.83-.43,1.09-.89,.37-.66,1.02-.94,1.75-.91,1.55,.06,2.79-.95,4.26-1.15,.51-.07,.72-.58,.95-1,.16-.31,.28-.72,.92-.52-.72,1.45-1.08,3.06-2.48,4.22-.05-.27,0-.6,.07-1.04,.08-.25,.04-.32-.15-.43-1.79,.68-3.73,.94-5.24,2.21-.19,.16-.47,.31-.71,.33-.97,.07-1.47,.7-1.97,1.42-1.1,1.6-1.71,1.8-3.54,1.19Z"/>
      <path class="cls-5" d="M71.84,262.05c-.4,1.06-1.5,1.47-2.37,2.09-2.44,1.76-4.8,3.6-7.05,5.59-.99,.87-2.32,.91-3.53,1.02-.51,.04-1.02,.1-1.65,.17,1.15-1,2.68-1.41,4.18-1.88,.35-.11,.74-.15,.99-.41,2.7-2.76,5.81-4.94,9.42-6.57Z"/>
      <path class="cls-5" d="M49.8,293.96c.31-.4,.57-.74,.73-1.24,.36-1.16,.88-2.28,1.26-3.43,.18-.53,.6-.75,1.01-.95,.99-.49,1.4-1.23,1.24-2.32-.03-.23-.11-.52,.27-.76,.85,.93,.83,1.96,.4,3.18-.31,.54-.95,.47-1.24,1.07,.64-.07,.96-.53,1.45-.86,1.06-.62,1.48-1.42,1.37-2.55-.05-.44-.19-.96,.42-1.34,.41,1.94-.09,3.66-1.56,5.03-.74,.69-1.5,1.43-2.66,.79-.46-.25-.69,.07-.86,.43-.42,.86-.69,1.78-.9,2.72-.11,.51-.35,.8-.92,.25Z"/>
      <path class="cls-5" d="M42.13,286.41c.6-.1,1.13-.06,1.28,.61,.13,.61-.15,.98-.68,1.26-.26,.14-.46,.39-.78,.67,.56,.35,.95,.24,1.33-.08,.4-.33,.68-.82,1.34-.96-.15,1.02-1.09,1.41-1.81,2.01-.08,.06-.22,.14-.29,.11-1.94-.87-2.71,.8-3.81,1.75-.27,.23-.53,.49-.85,.79-.3-1.07,.28-1.83,.59-2.75,.14-.08,.21-.08,.38-.07,1.21-1.01,2.56-1.8,3.28-3.34Z"/>
      <path class="cls-6" d="M104.36,287.36c-.02-.14,.07-.35,.18-.36,1.72-.14,1.82-1.52,2.18-2.83,.48,.97,.86,1.88,2.38,1.65,.76-.12,1.3,.72,1.61,1.34-.09-.89-.41-1.87-.13-2.97,.13-.07,.2-.08,.23-.05,.95,1.06,1.2,4.46,.41,5.66-.04,.07-.19,.07-.39,.13-.25-.73-.46-1.47-.75-2.19-.39-.99-1.04-1.44-1.81-.97-1.04,.63-2.09,.46-3.16,.53-.21,.01-.42,.05-.75,.06Z"/>
      <path class="cls-1" d="M110.61,284.04c.27,1.2,.57,2.33,.33,3.61-.54-.19-.72-.72-1.08-1.03-.42-.35-.77-.61-1.4-.48-1.6,.33-1.61,.28-1.64-1.29,0-.16,0-.32,0-.62,0-.14,.02-.15,.02-.16,1.05-.62,2.15-.79,3.44-.4,.17,.16,.22,.25,.34,.38Z"/>
      <path class="cls-7" d="M114.26,263.98c-.45-.32-.37-.71-.17-1.12,1.24-2.62,2.66-5.1,5.15-6.77,.7-.47,1.09-1.32,2.04-1.59-.86,1.45-2.16,2.57-3.27,3.85-1.48,1.69-2.61,3.61-3.75,5.63Z"/>
      <path class="cls-6" d="M94.81,289.18c-.23-.43,.03-.85,.14-1.31,.12-.49,.05-1.22,.65-1.28,.69-.06,1.46-.63,2.11-.06,.65,.57,1.44,.59,2.08,.38,1.22-.39,2.26-.04,3.42,.45-.96,.17-2.03,.07-3.03,.53-.44,.2-1.05,.2-1.37-.1-.64-.6-1.26-.35-1.98-.34-1.26,.01-1.62,.71-2.02,1.71Z"/>
      <path class="cls-5" d="M50.15,285.46c.86,.76,.89,1.71,.52,2.77-.59,1.71-.94,3.47-.94,5.44-.47-.11-.55-.54-.53-.96,.15-2.4,.13-4.82,.95-7.25Z"/>
      <path class="cls-6" d="M220.9,257.51c-.28,.24-.5,.13-.66-.11-1.82-2.72-3.64-5.44-5.46-8.16-.04-.07,.01-.2,.1-.41,2.38,2.57,4.34,5.47,6.02,8.68Z"/>
      <path class="cls-6" d="M158.95,262.16c.66-.2,1.26,.18,1.7,.57,1.86,1.64,3.88,3.11,5.59,5.03-2.64-1.47-4.93-3.51-7.29-5.6Z"/>
      <path class="cls-6" d="M110.39,283.61c-1.12-.06-2.17,.48-3.42,.44-.1-.15,.01-.35-.05-.44-.2-.32-.52-.18-.63,.03-.46,.82-1.19,.8-1.94,.7-.34-.04-.56-.28-.72-.7,.39-.15,.83-.03,1.21-.25,1.75-1.03,3.54-.3,5.31-.11,.08,0,.16,.13,.24,.33Z"/>
      <path class="cls-6" d="M213.76,247.1c-.65,.24-.91-.26-1.26-.66-1.14-1.29-1.93-2.79-2.65-4.34-.2-.43-.41-.87-.57-1.49,.19-.23,.33-.22,.48-.07,.02,.1,0,.12,0,.13,1.11,2.24,2.63,4.23,3.99,6.42Z"/>
      <path class="cls-6" d="M108.69,273.58c-.39-.65,.13-1.15,.42-1.67,.86-1.57,1.78-3.1,2.77-4.71,.22-.19,.39-.24,.68-.12-.7,1.88-1.97,3.39-2.94,5.09-.26,.46-.56,.9-.93,1.41Z"/>
      <path class="cls-7" d="M140.33,244.98c.77-.46,1.1,.31,1.56,.67,1.5,1.16,2.97,2.38,3.88,4.2-1.82-1.51-3.61-3.14-5.44-4.86Z"/>
      <path class="cls-6" d="M103.04,283.26c-.46-.12-1.22,0-1.29-.8-.07-.74-.1-1.49,.59-2.05,.7-.56,1.17-1.38,2.13-1.79-.88,1.33-1.73,2.72-1.42,4.63Z"/>
      <path class="cls-5" d="M41.15,285.57c.17,.18,.25,.38,.36,.67-.76,1.32-1.59,2.52-2.68,3.63-.11,0-.2-.06-.24-.09,.43-1.63,1.2-3.06,2.56-4.2Z"/>
      <path class="cls-5" d="M57,284.35c.43-1.43,1.34-2.55,2.94-3.16-.49,1.39-1.82,2.1-2.94,3.16Z"/>
      <path class="cls-4" d="M42.18,68.48c.11-.33,.22-.53,.36-.85,.11-.12,.19-.14,.38-.11,.07,.15,.06,.26,.13,.45-.13,.55-.39,1.03-.51,1.54-.21,.89,0,1.18,1.04,1.64-.44,.6-1.05,.64-1.49,.26-.36-.31-.59-.88-.36-1.45,.18-.44,.47-.84,.44-1.47Z"/>
      <path class="cls-2" d="M220.99,238.37c-.68-1.15-.97-2.54-1.31-4.05,.79,1.11,1.02,2.52,1.31,4.05Z"/>
      <path class="cls-6" d="M105.96,277.32c-.13-.34-.11-.73,.19-.99,.89-.77,1.39-1.85,2.32-2.66-.55,1.34-1.22,2.66-2.51,3.65Z"/>
      <path class="cls-7" d="M150.98,255.08c1.32,.24,1.97,1.39,2.77,2.46-1.09-.53-1.8-1.57-2.77-2.46Z"/>
      <path class="cls-7" d="M134.89,239.48c1.06,.35,1.75,1.2,2.31,2.3-.96-.46-1.6-1.35-2.31-2.3Z"/>
      <path class="cls-6" d="M73.99,292.27c.2,.77,.73,.69,1.45,.47-.01,.16-.13,.38-.3,.44-.48,.16-.71,1.01-1.24,.7-.66-.38-.04-1.01,.09-1.62Z"/>
      <path class="cls-6" d="M12.66,29.46c-.29,.91-.87,1.62-2.03,1.83,.41-.78,1.21-1.25,2.03-1.83Z"/>
      <path class="cls-6" d="M52.64,281.86c-.04,.3-.24,.54-.47,.86-.03,.09-.04,.09-.05,.1-.38,.32-.91,.35-1.4,.63-.07-.19-.03-.36-.1-.63,.46-.59,1.11-.9,2.01-.96Z"/>
      <path class="cls-5" d="M50.54,283.51c.49-.32,.81-.74,1.47-.69-.14,.73-1,.85-1.41,1.54-.1-.24-.13-.51-.06-.86Z"/>
      <path class="cls-7" d="M138.17,242.93c.94-.04,1.36,.7,1.76,1.52-.72-.27-1.19-.88-1.76-1.52Z"/>
      <path class="cls-5" d="M76.83,291.97c.68-.94,1.12-1.1,2.14-.69-.74,0-1.39,.31-2.14,.69Z"/>
      <path class="cls-6" d="M113.15,265.31c.13-.29,.19-.47,.32-.7,.16-.11,.24-.17,.46-.17,.01,.8-.54,1.35-.87,2.1-.57-.38-.16-.74,.09-1.24Z"/>
      <path class="cls-5" d="M113.12,265.24c0,.34-.09,.73-.16,1.24-.04,.27-.1,.43-.23,.62-.23,.03-.38,.03-.66,.02-.01-.76,.5-1.28,1.05-1.89Z"/>
      <path class="cls-6" d="M214.81,248.47c-.97,.34-.98-.39-1.07-1.14,.52,.13,.72,.65,1.07,1.14Z"/>
      <path class="cls-6" d="M169.52,270.15c.62-.11,1.15,.14,1.51,.82-.57-.03-.99-.43-1.51-.82Z"/>
      <path class="cls-7" d="M131.66,235.39c.67-.17,.89,.31,1.01,.98-.47-.09-.68-.54-1.01-.98Z"/>
      <path class="cls-7" d="M132.66,236.58c.59-.02,.88,.39,1,1.05-.49-.1-.7-.56-1-1.05Z"/>
      <path class="cls-7" d="M147.35,251.67c.54-.17,.77,.22,.93,.76-.42-.03-.66-.35-.93-.76Z"/>
      <path class="cls-5" d="M92.85,293.02c-.14-.41-.11-.85,.41-1.22,.11,.4-.14,.77-.41,1.22Z"/>
      <path class="cls-7" d="M133.92,238.19c.46-.09,.65,.19,.7,.73-.38,0-.5-.35-.7-.73Z"/>
      <path class="cls-6" d="M168.56,269.5c.38-.18,.67,0,.91,.46-.35,.1-.59-.17-.91-.46Z"/>
      <path class="cls-6" d="M167.6,268.87c.38-.2,.68-.02,.92,.44-.35,.11-.59-.17-.92-.44Z"/>
      <path class="cls-6" d="M166.64,268.23c.38-.18,.68,0,.91,.46-.37,.12-.6-.16-.91-.46Z"/>
      <path class="cls-6" d="M13.79,28.6c.16,.5-.18,.66-.72,.72,.03-.35,.34-.5,.72-.72Z"/>
      <path class="cls-7" d="M121.85,254.11c-.24-.49,.08-.64,.63-.69-.11,.23-.33,.44-.63,.69Z"/>
      <path class="cls-5" d="M60.83,280.79c-.04-.33,.12-.53,.57-.45-.02,.28-.25,.37-.57,.45Z"/>
      <path class="cls-6" d="M36.44,148.15c.25,.06,.33,.22,.12,.5-.22-.09-.18-.27-.12-.5Z"/>
      <path class="cls-6" d="M105.3,277.94c-.08-.28,.05-.5,.47-.58,.08,.3-.2,.38-.47,.58Z"/>
      <path class="cls-6" d="M104.68,278.61c-.09-.28,.02-.51,.42-.62-.04,.2-.18,.4-.42,.62Z"/>
      <path class="cls-6" d="M219.19,233.08c-.24-.02-.33-.22-.29-.6,.23,.04,.26,.26,.29,.6Z"/>
      <path class="cls-5" d="M61.59,280.36c-.1-.24,.04-.38,.41-.38-.03,.13-.17,.25-.41,.38Z"/>
      <path class="cls-7" d="M114.08,264.49c-.09,.02-.18,.03-.4,.06-.08-.21-.06-.46,.34-.24,.05,.11,.07,.17,.06,.18Z"/>
      <path class="cls-6" d="M94.45,289.81c-.11-.16-.07-.35,.18-.54,.03,.14-.03,.32-.18,.54Z"/>
      <path class="cls-6" d="M43.4,66.88c.1,.16,.03,.34-.22,.52-.02-.13,.06-.3,.22-.52Z"/>
      <path class="cls-7" d="M134.59,239.1c.1-.03,.2,.03,.3,.19-.1,.03-.19-.04-.3-.19Z"/>
      <path class="cls-7" d="M133.64,237.81c.09-.03,.19,.04,.29,.2-.1,.03-.19-.04-.29-.2Z"/>
      <path class="cls-5" d="M90.62,288.06c.06,.07,.04,.22-.08,.43-.06-.07-.03-.22,.08-.43Z"/>
      <path class="cls-6" d="M94.21,290.26c-.05-.07-.03-.19,.08-.35,.05,.07,.03,.19-.08,.35Z"/>
      <path class="cls-6" d="M207.85,286.39c-.05-.07-.03-.18,.08-.32,.06,.08,.03,.18-.08,.32Z"/>
      <path class="cls-5" d="M62.18,279.99c-.02-.09,.05-.2,.23-.32,.02,.09-.06,.19-.23,.32Z"/>
      <path class="cls-6" d="M208.09,286.03c-.05-.07-.02-.18,.09-.32,.05,.07,.02,.18-.09,.32Z"/>
      <path class="cls-5" d="M36.12,280.25c-.06,.06-.16,.19-.17,.18-.18-.11-.05-.19,.12-.22,.07,.06,.06,.04,.06,.03Z"/>
      <path class="cls-5" d="M90.33,288.72c.06,.07,.03,.21-.08,.41-.06-.07-.03-.21,.08-.41Z"/>
      <path class="cls-6" d="M219.44,233.74c-.09,0-.16-.11-.21-.3,.09,0,.16,.11,.21,.3Z"/>
      <path class="cls-6" d="M43.1,67.9s-.11-.08-.12-.27c.05-.08,.06-.06,.06-.08,.02,.07,.03,.15,.06,.35Z"/>
      <path class="cls-6" d="M222.09,282.35c-.09,.03-.19-.03-.31-.19,.09-.03,.19,.03,.31,.19Z"/>
      <path class="cls-7" d="M154.79,258.61c.08-.04,.18,.01,.31,.15-.08,.04-.18-.01-.31-.15Z"/>
      <path class="cls-7" d="M154.43,258.29c.08-.04,.19,.01,.32,.15-.08,.04-.19-.01-.32-.15Z"/>
      <path class="cls-7" d="M137.52,242.27c.08-.03,.18,.02,.3,.17-.08,.03-.18-.02-.3-.17Z"/>
      <path class="cls-7" d="M153.77,257.74c.08-.04,.2,0,.34,.15-.09,.05-.2,0-.34-.15Z"/>
      <path class="cls-7" d="M137.84,242.59c.08-.03,.18,.02,.3,.17-.08,.03-.18-.02-.3-.17Z"/>
      <path class="cls-7" d="M150.64,254.75c.08-.04,.18,.01,.31,.15-.08,.04-.18-.01-.31-.15Z"/>
      <path class="cls-7" d="M150.3,254.45c.08-.04,.19,0,.32,.14-.08,.04-.19,0-.32-.14Z"/>
      <path class="cls-7" d="M149.96,254.15c.08-.04,.19,0,.32,.15-.09,.04-.19,0-.32-.15Z"/>
      <path class="cls-7" d="M121.52,254.41c-.11-.08-.1-.17,.07-.21,.06,.1,.02,.15-.07,.21Z"/>
      <path class="cls-7" d="M149.63,253.84c.09-.04,.19,.01,.31,.15-.09,.04-.19-.01-.31-.15Z"/>
      <path class="cls-7" d="M149.3,253.55c.08-.04,.2,0,.32,.13-.09,.05-.19,0-.32-.13Z"/>
      <path class="cls-7" d="M148.96,253.26c.09-.05,.2-.02,.31,.11-.09,.05-.19,0-.31-.11Z"/>
      <path class="cls-7" d="M122.67,253.44c-.02-.09,.04-.19,.19-.28,.03,.1-.04,.18-.19,.28Z"/>
      <path class="cls-7" d="M148.64,252.97c.08-.04,.19-.02,.29,.1-.12,.1-.2,.06-.29-.1Z"/>
      <path class="cls-7" d="M148.31,252.64c.09-.04,.19,0,.27,.12-.13,.09-.2,.04-.27-.12Z"/>
      <path class="cls-7" d="M140.01,244.68c.09-.13,.19-.12,.26,.08-.11,.09-.18,.06-.26-.08Z"/>
      <path class="cls-7" d="M147.04,251.34c.09-.04,.19,0,.29,.13-.12,.09-.21,.04-.29-.13Z"/>
      <path class="cls-7" d="M146.71,251.02c.09-.04,.2,0,.29,.13-.13,.09-.21,.04-.29-.13Z"/>
      <path class="cls-7" d="M146.4,250.67c.09-.03,.2,.01,.29,.16-.1,.04-.19-.02-.29-.16Z"/>
      <path class="cls-7" d="M146.08,250.37c.09-.04,.2,0,.31,.13-.1,.05-.19,0-.31-.13Z"/>
      <path class="cls-7" d="M145.76,250.04c.09-.04,.2,0,.3,.15-.1,.04-.19-.01-.3-.15Z"/>
      <path class="cls-6" d="M166.27,267.95c.08-.05,.19-.02,.33,.1-.08,.05-.19,.02-.33-.1Z"/>
      <path class="cls-7" d="M137.19,241.96c.08-.03,.18,.02,.3,.16-.08,.03-.18-.02-.3-.16Z"/>
      <path class="cls-6" d="M158.56,261.84c.08-.04,.2,0,.34,.14-.08,.05-.2,0-.34-.14Z"/>
      <path class="cls-5" d="M72.49,261.72c0,.08-.09,.15-.26,.22,0-.08,.09-.15,.26-.22Z"/>
      <path class="cls-5" d="M73.12,261.34c.01,.08-.06,.17-.23,.28-.01-.08,.06-.17,.23-.28Z"/>
      <path class="cls-5" d="M74.07,260.69c0,.08-.08,.17-.27,.28-.01-.08,.08-.17,.27-.28Z"/>
      <path class="cls-6" d="M68.17,20.28c2.03,.87,3.37,2.4,4.76,3.86,.3,.31,.45,.71,.57,1.13,.66,2.44,.61,4.86,.22,7.37-.36,2.36-1.88,3.96-3.08,5.79-.3,.46-.82,.71-1.32,.85-2.06,.59-4.14,.85-6.21,.03-.54-.21-1.09-.44-1.4-1-.1-.18-.23-.41-.4-.48-1.27-.51-1.99-1.43-2.67-2.65-1.2-2.15-2.25-4.18-1.17-6.69,.24-.56,.55-1.16,.23-1.84-.17-.36,.08-.75,.23-1.06,.44-.9,.96-1.77,1.45-2.65,1.05-1.89,2.88-2.75,4.74-3.57,.25-.11,.48-.18,.76-.1,1.06,.32,2.19,.41,3.3,1.01Z"/>
      <path class="cls-5" d="M73.53,151.94c.29,1.92,.78,3.64,1.32,5.36,.56,1.79,.87,3.66,1.1,5.54-2.02-5.78-3.24-11.74-4.16-17.81-.88,.02-1.59,.42-2.34,.63-1.99,.55-3.13,.09-4.06-1.74-.98-1.92-1.29-4.03-1.76-6.1-.95-4.16-1.21-8.38-1.33-12.63-.04-1.42-.34-2.85-.26-4.28,.09-1.59,.25-3.17,.39-4.75,0-.06,.15-.11,.23-.17,.31,0,.32,.27,.31,.45-.08,1.91,.27,3.83-.23,5.72-.05,.2-.07,.44,0,.63,.38,.98,.28,2.01,.23,3.01-.12,2.83,.15,5.64,.74,8.38,.52,2.42,.72,4.94,1.81,7.23,.6,1.26,1.29,2.42,2.56,3.14,.64,.36,1.14,.35,1.71-.19,.76-.72,1.61-1.33,2.65-2.17,.17,1.74,.35,3.24,.47,4.74,.13,1.64,.28,3.27,.63,5.02Z"/>
      <path class="cls-7" d="M77.29,166.25c.43,.74,.49,1.62,1.51,1.81,.47,.09,.44,.65,.55,1.06,.92,3.38,1.64,6.82,2.84,10.11,1.7,4.65,3.84,9.1,6.94,13,1.19,1.5,2.61,2.82,4.19,3.92,1.78,1.24,3.47,2.58,4.88,4.26,.6,.72,1.28,1.23,2.32,1.16,.44-.03,.9,.26,1.36,.41-.98,1.27-1.11,1.31-2.31,.7-.33-.17-.68-.34-.94-.6-2.9-2.97-6.41-5.3-9.12-8.46-3.15-3.68-5.88-7.59-7.45-12.31-1.14-3.42-2.35-6.82-3.37-10.28-.33-1.13-1.11-2.06-1.39-3.22-.1-.41-.26-.81-.24-1.37,.05-.17,.1-.22,.22-.19Z"/>
      <path class="cls-7" d="M172.1,243.01c-.45,.17-.71-.32-1.25-.3,.1,1.14,.63,2.13,.95,3.18,.76,2.47-.69,4.47-3.25,4.6-2.45,.12-4.78-.21-6.88-1.56-1.09-.7-2.54-.84-3.32-2.18,1.74,.38,3.26,1.38,4.91,2.1,2.41,1.05,4.64,.78,6.9-.28,1.04-.49,1.16-.78,.86-1.87-.53-1.95-1.15-3.86-2.16-5.63-.3-.54-.73-1.07-.53-1.78,.96,.45,2.83,2.24,3.76,3.71Z"/>
      <path class="cls-5" d="M160.51,190.6c-1.87,.74-3.25-.1-4.45-1.16-2.92-2.57-4.84-5.87-6.49-9.34-.09-.19-.14-.4-.16-.61-.02-.15,.05-.3,.08-.46,.57,.07,.61,.58,.78,.93,1.14,2.28,2.39,4.49,3.93,6.53,.86,1.14,1.89,2.14,3.09,2.93,1.72,1.13,3.11,.62,3.77-1.36,.78,1.4,.72,1.78-.55,2.56Z"/>
      <path class="cls-7" d="M102.7,113.02c-.03,1.91-.05,3.66-.04,5.42,0,1.38,.48,2.73,.31,4.12-.04,.29,.14,.61-.15,.88-.68-.49-.42-1.28-.6-1.9-.4-1.38-.58-2.8-.52-4.25,.08-1.95-.23-3.9,0-5.85,.04-.32,0-.64,.02-.96,.01-.32,.03-.68,.46-.71,.4-.03,.55,.31,.64,.6,.27,.84,.22,1.68-.12,2.65Z"/>
      <path class="cls-7" d="M105.79,131.8c-.91-1.36-1.65-2.68-1.73-4.26,.87,1.4,1.76,2.74,2.91,3.94,1.36,1.42,3.15,1.66,4.86,2.15,.64,.18,1.17-.36,1.72-.69,.42-.25,1.03-.87,1.37-.31,.34,.59-.54,.8-.94,1.04-2.11,1.27-5.58,.78-7.34-.98-.26-.26-.52-.53-.85-.89Z"/>
      <path class="cls-7" d="M122.44,132.2c.59,.36,1.3-.04,1.71,.55-2.09,.76-3.71,0-4.7-1.02-1.89-1.94-2.64-4.27-2.29-7.25,.21,.78,.38,1.3,.48,1.82,.55,2.77,1.88,4.89,4.8,5.89Z"/>
      <path class="cls-7" d="M43,96.23c-1.62,2.63-2.01,5.55-2.6,8.42-.7-1.1-.56-2.3-.38-3.38,.32-1.89,1.13-3.62,2.26-5.19,.19-.27,.44-.52,.78-.42,.3,.09,.11,.32-.06,.57Z"/>
      <path class="cls-7" d="M77.42,61.84c.27,.85,.48,1.67,.57,2.49,.06,.55,.25,1.02,.49,1.49,.5,.95,.5,.94,1.65,.47,.07-.03,.18,.05,.27,.09-.42,.66-1.24,.94-2.03,.68-1.61-.51-2.49-3.85-1.35-5.12,.06-.07,.19-.09,.4-.1Z"/>
      <path class="cls-5" d="M163.83,189.46c.92,.76,1.67,1.61,2.56,2.25,.7,.5,1.27,1.12,1.93,1.65,.64,.52,1.56,.32,2.2,.85-.79,.59-1.18,.69-2.02,.17-1.9-1.2-3.42-2.84-4.89-4.52-.1-.12-.04-.3,.21-.41Z"/>
      <path class="cls-7" d="M43.16,110.28c.1,.32,.19,.52,.24,.72q.33,1.25,1.68,1.11c-.69,.44-1.84,.59-2.41,.31-.81-.4-.87-1.14-.8-1.91,.07-.86-.26-1.8,.55-2.59,.63,.66,.29,1.58,.74,2.36Z"/>
      <path class="cls-5" d="M128.54,133.76c.23,.15,.38,.21,.5,.31,1.21,1.1,2.43,1.14,3.68,.08,.19-.17,.38-.38,.68-.35,.16,.08,.24,.26,.15,.38-1.01,1.44-3.67,2.08-5.01,.57-.71-.8-1.69-1.37-2.21-2.67,1.09,.31,1.49,1.11,2.21,1.68Z"/>
      <path class="cls-5" d="M83.29,64.78c-.69-.66-1.51-1.09-1.43-2.12,.03-.36-.08-.81,.42-.91,.43-.09,.7,.19,.82,.59,.18,.63,.45,1.19,.91,1.65,.6,.6,1.17,1.24,2.17,1.13-1.03,.77-1.9,.12-2.89-.35Z"/>
      <path class="cls-5" d="M162.62,187.32c.37,.51,.74,.9,.72,1.56-.51,.15-.76-.24-1.01-.52-.49-.52-.79-1.18-1.61-1.42-.55-.16-.53-.58-.28-2.27,.86,.8,1.47,1.69,2.18,2.64Z"/>
      <path class="cls-5" d="M179.16,194.27c1.86,.89,3.71,.61,5.64-.54-.9,2.58-4,2.39-5.64,.54Z"/>
      <path class="cls-7" d="M146.17,236.95c-.59,.18-1.03-.16-1.45-.59-1.28-1.32-2.59-2.63-3.94-4.03,1.32-.14,1.93,1.05,2.72,1.79,.91,.86,1.81,1.76,2.67,2.83Z"/>
      <path class="cls-7" d="M55.41,4.68c.09-.76,.75-.99,1.37-1.25,1.41-.58,2.85-1.05,4.5-1.26,0,.24-.17,.47-.43,.53-1.84,.47-3.51,1.42-5.44,1.98Z"/>
      <path class="cls-5" d="M174.09,194.82c.67,.45,1.38,.13,1.95,.44-.92,1.33-2.58,.83-3.89-1.24,.8-.08,1.21,.6,1.93,.81Z"/>
      <path class="cls-5" d="M124.5,129.34c-.4-.88-.59-1.7-.68-2.54-.03-.27,.11-.54,.42-.58,.11-.02,.36,.14,.36,.22,.02,1.3,.56,2.51,.84,3.81-.67-.06-.68-.52-.93-.91Z"/>
      <path class="cls-6" d="M46.17,43.11c-.07-.65,.42-.61,.89-.63,.6-.03,1.26,.18,1.79-.52,.46,.26,.68,.69,.57,1.36-1.06-.3-2.08-.23-3.24-.22Z"/>
      <path class="cls-7" d="M109.06,30.76c.57,.26,.57,.93,.81,1.49,.12,.29,.23,.63-.1,.82-.38,.22-.68-.02-.98-.42,.28-.61,.32-1.18,.27-1.9Z"/>
      <path class="cls-5" d="M77.32,166.22c.04,.11-.11,.1-.18,.1-.76-.73-.95-1.62-1.04-2.84,.79,.91,.77,1.87,1.22,2.74Z"/>
      <path class="cls-7" d="M131.86,223.44c-.41-.4-.95-.63-.9-1.36,.76,.16,1.12,.6,1.32,1.2,.05,.14-.16,.22-.42,.16Z"/>
      <path class="cls-7" d="M177.82,247.82c-.76,.14-1.28-.23-1.55-1.1,.7-.02,1.07,.54,1.55,1.1Z"/>
      <path class="cls-7" d="M175.91,246.22c-.75,.14-1.28-.21-1.56-1.08,.73-.07,1.06,.53,1.56,1.08Z"/>
      <path class="cls-7" d="M158.3,246.54c-.68,.13-1.27-.15-1.82-.77,.67-.11,1.27,.15,1.82,.77Z"/>
      <path class="cls-5" d="M154.89,244.62c-.55-.19-1.18-.29-1.33-1.08,.55-.1,.87,.27,1.23,.76,.09,.15,.13,.19,.11,.32Z"/>
      <path class="cls-5" d="M148.94,178.12c-.19-.37-.29-.66-.06-.99,.32,.29,.57,.59,.39,1.05-.01,.03-.08,.07-.12,.07-.05,0-.1-.03-.21-.13Z"/>
      <path class="cls-7" d="M156.41,245.57c-.35,.1-.65-.04-.9-.44,.32-.07,.73-.14,.9,.44Z"/>
      <path class="cls-5" d="M125.59,132.12c.37,.24,.13,.36-.04,.45-.14,.08-.32,.02-.34-.16-.02-.18,.13-.26,.38-.29Z"/>
      <path class="cls-7" d="M149.04,239.52c-.23,.41-.45,.36-.6-.15,.17-.04,.36,.02,.6,.15Z"/>
      <path class="cls-7" d="M154.88,244.78c-.05-.08-.05-.23-.05-.31,.29-.05,.54,.04,.63,.46-.16,.04-.34-.02-.57-.16Z"/>
      <path class="cls-7" d="M103.03,124.62c.03-.15,.07-.24,.12-.32,.15,.1,.15,.24,.1,.39-.01,.04-.07,.07-.1,.1,.14-.16-.31-.05-.12-.17Z"/>
      <path class="cls-7" d="M62.13,2.15c.07-.29,.35-.32,.75-.31-.07,.29-.35,.31-.75,.31Z"/>
      <path class="cls-5" d="M150.3,240.78c-.26,.07-.51-.01-.61-.44,.24-.02,.42,.14,.61,.44Z"/>
      <path class="cls-7" d="M52.85,5.68c0-.18,.15-.28,.46-.31-.06,.1-.21,.2-.46,.31Z"/>
      <path class="cls-5" d="M176.66,194.8c.08-.14,.15-.12,.15,0,0,.12-.07,.14-.15,0Z"/>
      <path class="cls-5" d="M151.59,241.76c-.13,.03-.31-.03-.55-.16,.13-.03,.31,.03,.55,.16Z"/>
      <path class="cls-7" d="M54.44,5.02c0-.17,.16-.27,.45-.3,0,.18-.15,.27-.45,.3Z"/>
      <path class="cls-6" d="M208.93,239.92c.07-.09,.12-.08,.25-.04,.16,.12,.21,.22,.23,.42-.01,.09-.12,.19-.17,.24-.14-.14-.23-.33-.31-.62Z"/>
      <path class="cls-7" d="M148.37,239.19c-.13,.02-.31-.03-.56-.17,.13-.02,.31,.03,.56,.17Z"/>
      <path class="cls-7" d="M51.87,6.3c.05-.1,.2-.2,.44-.31,0,.18-.14,.27-.44,.31Z"/>
      <path class="cls-7" d="M172.71,243.36c-.13,.02-.31-.03-.56-.17,.13-.02,.31,.03,.56,.17Z"/>
      <path class="cls-5" d="M153.49,243.35c-.12,.03-.3-.03-.53-.16,.13-.03,.3,.03,.53,.16Z"/>
      <path class="cls-5" d="M125.78,131.43c.08-.14,.16-.12,.16,0,0,.12-.07,.14-.16,0Z"/>
      <path class="cls-7" d="M103.81,126.72s-.05-.11-.06-.18c.03,.05,.07,.1,.06,.18Z"/>
      <path class="cls-5" d="M64,1.78c-.03-.08,.04-.15,.2-.22,.03,.08-.03,.15-.2,.22Z"/>
      <path class="cls-7" d="M52.5,5.95c-.04-.07,.02-.15,.18-.24,.04,.08-.02,.16-.18,.24Z"/>
      <path class="cls-4" d="M41.53,45.3c-.06,.03-.13-.03-.17-.1-.01-.02,.04-.07,.12-.14,.06,.03,.06,.09,.05,.24Z"/>
      <path class="cls-7" d="M53.77,5.31c-.04-.08,.03-.16,.2-.24,.04,.08-.03,.16-.2,.24Z"/>
      <path class="cls-5" d="M178.8,193.79s-.07-.05-.11-.1c.03,.01,.06,.03,.11,.1Z"/>
      <path class="cls-4" d="M42.15,53.31c-.07,.03-.15-.04-.22-.2,.08-.03,.15,.03,.22,.2Z"/>
      <path class="cls-4" d="M44.4,65.78c.02,.05-.13,.04-.21,.02,0-.12,.07-.2,.21-.02Z"/>
      <path class="cls-5" d="M179.14,194.16c-.11-.03-.19-.09-.29-.24-.03-.07-.03-.08-.02-.08,.11,.03,.19,.09,.29,.24,.04,.07,.03,.08,.02,.08Z"/>
      <path class="cls-5" d="M152.55,242.72c-.05,0-.14-.05-.25-.19,.07-.03,.15,.03,.25,.19Z"/>
      <path class="cls-5" d="M152.87,243.04c-.07,.04-.16-.01-.25-.17,.07-.04,.16,.01,.25,.17Z"/>
      <path class="cls-7" d="M173.99,244.64c-.05,0-.14-.06-.26-.21,.05,0,.14,.06,.26,.21Z"/>
      <path class="cls-7" d="M174.31,244.97c-.05,.01-.14-.05-.26-.18,.05-.01,.14,.05,.26,.18Z"/>
      <path class="cls-5" d="M150.63,241.12c-.07,.04-.16-.01-.25-.17,.07-.04,.16,.01,.25,.17Z"/>
      <path class="cls-5" d="M150.95,241.44c-.07,.04-.16-.01-.25-.17,.07-.04,.16,.01,.25,.17Z"/>
      <path class="cls-5" d="M172.42,255.6c-.26-.53-.78-.75-.85-1.26-.03-.24,.13-.4,.32-.5,.15-.08,.33-.07,.41,.09,.99,1.9,2.52,3.38,3.82,5.04,.04,.05-.04,.19-.09,.44-1.6-.9-2.5-2.39-3.62-3.8Z"/>
      <path class="cls-5" d="M180.12,263.36c.2-.07,.43-.06,.47,.2,0,.06-.1,.18-.17,.19-.19,.01-.26-.14-.3-.39Z"/>
      <path class="cls-5" d="M179.82,263.02c.08-.05,.16,.01,.26,.17,.04,.07,.03,.08,.02,.09-.11-.03-.19-.09-.28-.26Z"/>
      <path class="cls-5" d="M179.78,262.96c-.11-.03-.19-.09-.28-.26,.08-.05,.16,.01,.26,.17,.04,.07,.02,.08,.02,.09Z"/>
      <path class="cls-5" d="M179.46,262.64c-.11-.03-.19-.09-.28-.26,.08-.05,.16,.01,.26,.17,.04,.07,.02,.08,.02,.09Z"/>
      <path class="cls-5" d="M178.86,262.06c.08-.05,.16,.01,.26,.17,.04,.07,.03,.08,.02,.09-.11-.03-.19-.09-.28-.26Z"/>
      <path class="cls-5" d="M178.54,261.74c.08-.05,.16,.01,.26,.17,.04,.07,.03,.08,.02,.09-.11-.03-.19-.09-.28-.26Z"/>
      <path class="cls-5" d="M178.22,261.42c.08-.05,.16,.01,.26,.17,.04,.07,.03,.08,.02,.09-.11-.03-.19-.09-.28-.26Z"/>
      <path class="cls-5" d="M178.18,261.36c-.11-.03-.19-.09-.28-.26,.08-.05,.16,.01,.26,.17,.04,.07,.03,.08,.02,.09Z"/>
      <path class="cls-5" d="M177.58,260.78c.08-.05,.16,.01,.26,.17,.04,.07,.03,.08,.02,.09-.11-.03-.19-.09-.28-.26Z"/>
      <path class="cls-5" d="M177.54,260.72c-.11-.03-.19-.09-.28-.26,.08-.05,.16,.01,.26,.17,.04,.07,.03,.08,.02,.09Z"/>
      <path class="cls-5" d="M176.94,260.14c.08-.05,.16,.01,.26,.17,.04,.07,.02,.08,.02,.09-.11-.03-.19-.09-.28-.26Z"/>
      <path class="cls-5" d="M176.9,260.08s-.08-.1-.12-.15c.03,.01,.06,.03,.12,.09,.02,.04,0,.06,0,.07Z"/>
      <path class="cls-5" d="M70.05,269.72c-.82,.85-1.71,1.74-2.54,2.7-.75,.87-.38,1.69-.01,2.5,.32,.71,.85,1.14,1.76,.99,.72-.11,1.47,.04,2.16,.34,.39,.17,.59,.42,.53,.98-1.1-.34-2.3-.44-3.43-.79-2.27-.7-2.89-3.38-1.27-5.11,.75-.8,1.6-1.38,2.8-1.61Z"/>
      <path class="cls-3" d="M38.72,289.97c.51-.9,1.01-1.7,1.52-2.5,.29-.46,.63-.84,1.24-1.07,.21-.08,.35-.08,.61-.08,.38,.45,.46,.87-.01,1.24-.99,.76-1.96,1.54-2.65,2.61-.18,.28-.52,.36-.7-.2Z"/>
      <path class="cls-3" d="M73.79,280.92c.48,.05,.88,.18,1.29,.25,1.33,.22,1.33,.21,1.34,1.48,0,.15-.03,.31-.07,.59-.94-.51-1.64-1.31-2.71-1.68-.04-.22,.01-.41,.15-.64Z"/>
      <path class="cls-1" d="M54.91,288.56c0,.89-.69,1.21-1.39,1.51-.2,.09-.42,.09-.59-.08-.23-.23-.17-.49-.02-.73,.34-.56,.86-.77,1.62-.71,.18,0,.24,0,.38,.01Z"/>
      <path class="cls-5" d="M53.13,284.97c-.31-.2-.28-.37-.04-.49,.15-.07,.34-.05,.42,.11,.12,.26-.05,.36-.38,.38Z"/>
      <path class="cls-5" d="M71.24,269.22c-.07,.12-.2,.17-.43,.23-.05-.27,.08-.41,.43-.23Z"/>
      <path class="cls-5" d="M51.33,285.76s-.06-.11-.06-.18c.04,.05,.07,.1,.06,.18Z"/>
      <path class="cls-5" d="M51.7,284.83c.15-.04,.2,0,.16,.08-.01,.02-.12-.03-.16-.08Z"/>
      <path class="cls-7" d="M107.09,264.09c.71-2.44,2.43-4.34,3.78-6.46,.44-.69,.64-1.57,1.48-2.11,.31,.53-.07,.97-.31,1.42-1.36,2.56-3.03,4.91-4.96,7.15Z"/>
      <path class="cls-7" d="M105.27,267.36c-.13-.95,.55-1.64,1.12-2.47,.24,1-.52,1.65-1.12,2.47Z"/>
      <path class="cls-7" d="M106.58,264.84c-.12-.27,.05-.46,.31-.7,.23,.28,.21,.56-.31,.7Z"/>
      <path class="cls-7" d="M112.55,255.47c-.03-.16,.04-.33,.2-.54,.13,.18,.11,.39-.2,.54Z"/>
      <path class="cls-5" d="M101.66,271.53c-.02-.08,.06-.18,.23-.31,.02,.08-.06,.18-.23,.31Z"/>
      <path class="cls-5" d="M102.04,271.2c-.04-.08,.02-.18,.16-.31,.03,.08-.02,.18-.16,.31Z"/>
      <path class="cls-5" d="M102.34,270.87c-.03-.08,.04-.18,.19-.29,.03,.08-.03,.18-.19,.29Z"/>
      <path class="cls-5" d="M102.68,270.56c-.03-.08,.03-.18,.17-.3,.03,.08-.03,.18-.17,.3Z"/>
      <path class="cls-5" d="M103,270.24c-.04-.08,.01-.18,.15-.31,.04,.08-.01,.18-.15,.31Z"/>
      <path class="cls-5" d="M103.3,269.91c-.03-.08,.04-.17,.19-.29,.02,.08-.04,.18-.19,.29Z"/>
      <path class="cls-5" d="M103.64,269.6c-.04-.08,.02-.19,.16-.34,.04,.08-.02,.19-.16,.34Z"/>
      <path class="cls-5" d="M96.26,232.76c.01-.63-.07-1.15,.24-1.85,.72,.94,.06,2,.68,2.67,.59,.65,1.11,1.42,2.4,1.72-1.96,.1-2.65-.48-3.31-2.54Z"/>
      <path class="cls-1" d="M39.42,276.29c-.15-.88,.59-1.66,1.26-1.41,.32,.12,.52,.38,.48,.74-.03,.31-.27,.43-.56,.44-.37,.01-.74,.04-1.19,.23Z"/>
      <path class="cls-3" d="M73.96,284.19c-.68-.69-.09-1.1,.33-1.21,.77-.2,1.06,.38,1.16,1.09-.49,.19-.97-.1-1.49,.11Z"/>
      <path class="cls-6" d="M52.73,281.82c.08-.21,.25-.38,.43-.2,.14,.14-.06,.22-.27,.3-.09,.01-.13-.06-.16-.09Z"/>
      <path class="cls-2" d="M71.7,33.83c-1.4,1.97-3.27,3.17-5.22,4.28-.55,.31-1.13,.27-1.71,.15-3.91-.82-6.85-4.93-6.38-8.93,.33-2.77,1.21-5.29,3.3-7.26,1.9-1.78,3.86-1.84,5.85-.17,.82,.69,1.41,1.68,2.66,1.82,.4,.04,.82,.5,1.02,.96,1.31,2.95,2.11,5.93,.48,9.16Z"/>
    </g>
  </g>
</svg>