<?xml version="1.0" encoding="UTF-8"?>
<svg id="Layer_2" data-name="Layer 2" xmlns="http://www.w3.org/2000/svg" viewBox="0 0 448.39 329.96">
  <defs>
    <style>
      .cls-1 {
        fill: #bc9ddc;
      }

      .cls-2 {
        fill: #bc9bdc;
      }

      .cls-3 {
        fill: #bc9edb;
      }

      .cls-4 {
        fill: #bda0db;
      }

      .cls-5 {
        fill: #d7cbf1;
      }

      .cls-6 {
        fill: #bd9cdc;
      }
    </style>
  </defs>
  <g id="Layer_16" data-name="Layer 16">
    <g>
      <path class="cls-2" d="M133.33,201.36c-2.41-2.57-4.68-5.11-7.08-7.53-2.43-2.46-5.12-4.66-8.22-6.21-2.9-1.46-6.01-2.46-9.21-3.05-3.54-.66-7.05-1.58-10.71-1.46-4.05,.13-8.05,.55-12,1.42-4.87,1.08-9.75,2.15-14.62,3.25-1.08,.24-2.14,.57-3.2,.86-.34-1.23,.09-2.09,1.3-2.48,1.72-.55,3.47-1.01,5.2-1.51,1.43-.41,2.86-.86,4.31-1.19,1.67-.39,2.7-1.68,3.9-2.68,2.64-2.22,5.2-4.54,7.7-6.91,1.42-1.34,2.65-2.87,3.98-4.31,1.04-1.12,2.15-2.19,3.13-3.36,1.63-1.95,3.2-3.95,4.78-5.94,1.25-1.59,2.51-3.17,3.71-4.8,1.41-1.93,2.72-3.93,4.15-5.85,3.35-4.47,6.4-9.14,9.33-13.88,2.44-3.94,4.96-7.83,7.26-11.84,2.91-5.09,5.15-10.5,7.15-16.01,1.56-4.3,3.18-8.58,4.6-12.92,.96-2.93,1.68-5.93,2.43-8.93,.98-3.92,1.96-7.83,2.78-11.78,1.47-7.07,2.83-14.17,4.2-21.26,.23-1.2,.3-2.43,.38-3.65,.14-2.28,.18-4.57,.36-6.85,.17-2.17,.49-4.33,.71-6.5,.12-1.21,.25-2.43,.25-3.65,0-3.19-.08-6.38,.54-9.54,.24-1.25,.26-2.54,.39-3.8,.02-.19,.13-.37,.22-.59,.78,0,1.12,.47,1.31,1.03,.17,.49,.27,1.03,.29,1.56,.11,2.13,.21,4.25,.27,6.38,.05,1.64-.03,3.28,.08,4.91,.16,2.33,.47,4.65,.67,6.97,.35,4.32,1.35,8.54,1.84,12.84,.25,2.22,.39,4.45,.72,6.65,.52,3.41,1,6.84,1.78,10.2,1.04,4.45,2.38,8.82,3.54,13.24,.51,1.95,.85,3.95,1.38,5.89,.67,2.45,1.34,4.91,2.22,7.29,1.4,3.78,2.93,7.52,4.49,11.24,1.07,2.54,2.14,5.1,3.46,7.5,2.48,4.52,5.39,8.75,8.64,12.76,1.97,2.44,4.07,4.74,6.25,6.99,2.67,2.75,5.78,4.85,9.14,6.58,2.02,1.04,4.15,1.93,6.32,2.62,1.55,.49,3.24,.52,4.86,.77,2.47,.38,4.92,.89,7.4,1.1,2.09,.18,4.22,.02,6.33,0,1.05-.01,2.11-.06,3.16-.08,2.77-.03,5.49-.48,8.23-.87,2.04-.29,4.15-.1,6.22-.08,.21,0,.41,.25,.87,.54-.61,.41-1.01,.86-1.5,1-1.68,.47-3.38,.92-5.09,1.22-2.29,.4-4.65,.5-6.91,1.02-1.8,.41-3.53,1.18-5.23,1.91-3.92,1.68-7.66,3.73-11.26,6-4.72,2.98-9.26,6.23-13.23,10.21-1.99,2-3.81,4.13-5.51,6.37-2.16,2.83-4.42,5.57-6.56,8.42-1.14,1.53-2.16,3.16-3.14,4.8-1.7,2.82-3.47,5.61-4.95,8.55-2.31,4.6-4.46,9.28-6.57,13.97-1.5,3.32-2.89,6.7-4.19,10.1-.93,2.43-1.69,4.92-2.39,7.42-1.07,3.78-2.11,7.57-3.01,11.39-.83,3.51-1.45,7.07-2.16,10.61-.1,.52-.23,1.03-.31,1.56-.55,3.46-1.09,6.92-1.62,10.38-.32,2.1-.68,4.2-.9,6.31-.2,1.93-.36,3.89-.31,5.82,.06,2.37,.44,4.74,.54,7.11,.17,4.19,.22,8.38,.33,12.57,.02,.74,.1,1.47,.12,2.21,.15,4.04-.21,8.05-.68,12.06-.18,1.53-.23,3.07-.36,4.61-.12,1.43-.26,2.86-.43,4.28-.05,.4-.25,.77-.38,1.18-.96-.24-1.06-.91-1.06-1.63-.01-1.65,.03-3.3-.03-4.95-.17-4.66-.58-9.29-1.14-13.92-.23-1.88-.12-3.8-.13-5.71,0-2.6-.02-5.19,.04-7.79,.06-2.61,.33-5.21,.25-7.81-.09-3.02-.43-6.03-.69-9.05-.15-1.74-.35-3.48-.55-5.21-.3-2.53-.61-5.05-.97-7.57-.4-2.84-.81-5.67-1.28-8.5-1.03-6.27-2.21-12.52-3.96-18.63-1.3-4.55-3.01-8.96-5.28-13.16-1.93-3.58-4.08-6.98-6.69-10.23Zm-45.9-19.76c1.05-.15,2.11-.22,3.14-.45,3.59-.8,7.2-.66,10.76-.05,3.75,.64,7.47,1.55,11.17,2.45,3.36,.81,6.64,1.93,9.67,3.6,3.04,1.68,5.59,4.05,8.09,6.42,2.08,1.97,4.08,4.05,5.9,6.26,3.39,4.11,6.09,8.71,8.4,13.49,2.1,4.36,3.48,9.01,4.66,13.71,.34,1.33,.59,2.69,.89,4.03,.34,1.55,.73,3.09,1.02,4.66,.63,3.43,1.21,6.87,1.81,10.31,.05,.31,.09,.63,.13,.94,.25,1.94,.49,3.88,.74,5.82,.19,1.52,.37,3.05,.56,4.57,.03,.26,.1,.52,.15,.78,.33-.24,.44-.47,.48-.71,.35-2.25,.59-4.52,1.06-6.74,1.31-6.21,2.64-12.42,4.11-18.59,.86-3.61,1.93-7.18,3-10.73,.57-1.87,1.48-3.65,2.01-5.53,1.03-3.69,2.69-7.13,4.03-10.69,.84-2.23,2.06-4.31,3.01-6.51,2.05-4.74,4.48-9.28,7-13.77,1.5-2.67,3.27-5.19,4.94-7.77,.55-.85,1.09-1.7,1.72-2.48,2.29-2.84,4.61-5.66,6.94-8.46,1.05-1.26,2.11-2.54,3.29-3.68,1.25-1.22,2.72-2.21,3.98-3.43,2.43-2.34,5.35-4.02,8.11-5.89,2.59-1.75,5.45-3.11,8.18-4.65,.29-.16,.55-.38,1.1-.77-.65-.04-.95-.06-1.25-.07-1.39-.02-2.79,.11-4.15-.09-2.77-.4-5.52-.97-8.28-1.5-4.81-.92-9.11-3.03-13.09-5.8-2.04-1.42-3.8-3.2-5.45-5.08-1.37-1.56-2.9-2.98-4.15-4.62-1.96-2.57-3.83-5.22-5.6-7.93-1.69-2.58-3.34-5.19-4.74-7.93-1.72-3.36-3.22-6.83-4.68-10.31-1.17-2.78-2.15-5.65-3.17-8.49-.52-1.44-.81-2.98-1.43-4.38-1.55-3.52-2.12-7.32-3.2-10.97-.54-1.82-.77-3.73-1.2-5.58-.88-3.82-1.85-7.62-2.67-11.45-.64-2.94-1.16-5.92-1.64-8.89-.48-2.97-.85-5.97-1.27-8.95-.05-.38-.15-.76-.23-1.13-.44,1.31-.61,2.58-.72,3.87-.14,1.64-.16,3.29-.36,4.92-.37,2.99-.78,5.98-1.28,8.96-.63,3.81-1.34,7.61-2.05,11.41-.44,2.34-.96,4.67-1.42,7.01-1.15,5.89-2.56,11.71-4.5,17.39-1.75,5.13-3.69,10.19-5.6,15.27-1.73,4.59-3.97,8.95-6.46,13.15-2.89,4.88-5.95,9.67-8.93,14.5-.78,1.26-1.56,2.53-2.33,3.79-1.38,2.26-2.7,4.56-4.15,6.77-1.14,1.73-2.52,3.29-3.65,5.02-2.32,3.57-4.92,6.92-7.68,10.14-1.88,2.2-3.71,4.46-5.91,6.39-2.22,1.95-4.32,4.05-6.48,6.07-.85,.79-1.71,1.58-2.65,2.4,.03-.01,.06-.02,.36-.03Z"/>
      <path class="cls-6" d="M306.17,211.85c-1.77-1.18-3.33-2.54-5.35-3.01-1.8-.42-3.62-.92-5.45-1.04-2.75-.18-5.52-.25-8.26,.3-.3,.06-.63,0-.99,0-.51-.9,0-1.54,.67-1.84,1.29-.59,2.64-1.18,4.02-1.41,1.6-.26,3.28-.03,4.9-.19,.87-.08,1.77-.42,2.56-.82,4.55-2.33,9.04-4.8,13.08-7.96,4.03-3.15,7.88-6.48,11.22-10.39,2.77-3.24,5.46-6.52,7.86-10.05,3.2-4.71,6.34-9.47,8.89-14.57,1.12-2.23,2.24-4.47,3.16-6.79,.54-1.36,.7-2.88,1.02-4.33,.27-1.24,.43-2.52,.78-3.74,.78-2.74,1.51-5.51,2.52-8.16,1.21-3.17,2.69-6.24,4.08-9.35,.16-.36,.44-.67,.67-1.01,.84,.43,.47,.95,.32,1.43-.64,2.03-1.4,4.03-1.89,6.09-.77,3.2-1.36,6.44-2.03,9.66-.06,.31-.02,.69-.18,.93-.94,1.43-.91,3.12-1.31,4.69-.69,2.73-1.17,5.52-1.04,8.34,.08,1.73,.15,3.49,.75,5.17,.19,.54,.29,1.14,.3,1.72,.07,2.44,1.3,4.55,2,6.8,.69,2.22,1.65,4.37,2.6,6.5,1.63,3.68,3.42,7.28,5.57,10.69,1.74,2.76,4.22,4.76,6.86,6.57,1.97,1.35,4.24,2.16,6.31,3.29,1.78,.97,3.62,1.04,5.44,1.46,1.03,.24,2.09,.41,3.11,.68,.24,.06,.4,.41,.72,.76-1.63,.73-3.16,1.08-4.77,.93-1.16-.11-2.31-.33-3.47-.51-1.96-.32-3.83,.19-5.62,.81-3,1.04-5.99,2.11-8.79,3.68-4.84,2.7-9.61,5.49-13.63,9.37-2.71,2.63-5.57,5.13-8.11,7.91-3.29,3.61-6.44,7.39-8.89,11.64-1.13,1.97-1.89,4.16-2.79,6.25-1.86,4.3-3.73,8.59-5.53,12.91-.8,1.91-1.47,3.88-2.15,5.84-.82,2.36-1.6,4.72-2.37,7.09-.82,2.51-1.48,5.09-2.43,7.55-1.15,2.98-1.67,6.13-2.64,9.15-.42,1.31-.63,2.69-.94,4.03-.1,.41-.22,.82-.35,1.23-.2,.6-.59,1.1-1.25,1.03-.72-.08-1.08-.66-1.1-1.37-.02-.63-.04-1.29,.09-1.9,1.04-4.93,2.05-9.87,3.2-14.78,.84-3.61,1.79-7.21,2.85-10.76,.91-3.04,2.15-5.98,3.03-9.03,.8-2.75,1.34-5.58,1.93-8.39,1.03-4.88,1.28-9.82,.92-14.77-.28-3.93-.98-7.81-2.53-11.48-.26-.62-.69-1.21-1.18-1.67-1.98-1.85-3.91-3.77-6.37-5.22Zm7.69,45.38c-.16,.4-.32,.79-.48,1.19,.15,.04,.3,.08,.45,.12,.07-.47,.15-.94,.39-1.54,.05-.28,.1-.55,.33-.96,.41-.8,.81-1.6,1.23-2.4,.46-.88,1.01-1.73,1.41-2.63,.47-1.06,.8-2.19,1.24-3.27,.42-1.04,.98-2.02,1.32-3.08,1.59-4.88,3.89-9.41,6.86-13.57,1.76-2.46,3.53-4.92,5.52-7.18,2.09-2.38,4.42-4.55,6.71-6.74,2.69-2.57,5.68-4.78,8.74-6.89,1.18-.81,2.37-1.61,3.62-2.31,2.39-1.36,4.71-2.97,7.27-3.89,3.65-1.32,7.37-2.56,11.62-3.11-.78-.34-1.29-.58-1.82-.77-.74-.27-1.52-.44-2.23-.78-.91-.43-1.78-.95-2.64-1.48-1.99-1.23-4.07-2.36-5.62-4.15-1.35-1.56-2.69-3.17-3.73-4.94-1.66-2.83-3.09-5.79-4.56-8.72-2.17-4.35-3.53-8.97-4.4-13.74-.33-1.82-.68-3.64-.95-5.47-.15-1.04-.29-2.11-.17-3.14,.09-.79,0-1.39-.52-2.12-.22,.36-.41,.56-.48,.8-.7,2.47-1.82,4.74-3.03,6.99-3.07,5.66-6.41,11.14-10.12,16.41-2.42,3.43-5.03,6.71-7.95,9.73-1.81,1.87-3.72,3.66-5.68,5.37-1.84,1.6-3.72,3.17-5.72,4.56-2.49,1.72-5.09,3.27-7.69,4.81-1.55,.92-3.15,1.81-5.09,1.63-.22-.02-.47,.23-.81,.42,1.62,.31,3.07,.59,4.52,.86,1.32,.25,2.55,.61,3.43,1.76,.27,.35,.79,.51,1.19,.77,.76,.49,1.56,.92,2.26,1.48,2.29,1.81,4.5,3.69,6.39,5.96,1.35,1.62,2.08,3.42,2.56,5.36,.53,2.16,.81,4.36,1.09,6.57,.35,2.85,.07,5.62-.2,8.41-.26,2.68-.75,5.34-1.22,7.99-.34,1.92-.44,3.88-1.16,5.75-.6,1.57-.94,3.25-1.56,5.01-.05,.28-.1,.55-.32,.95Zm-.7,2.06c.04,.05,.08,.11,.12,.16,0-.08-.02-.15-.12-.16Z"/>
      <path class="cls-1" d="M83.33,60.39c-1.09,3.18-2.2,6.24-2.67,9.47-.06,.41-.13,.85-.03,1.23,.72,2.68,1.04,5.42,1.28,8.16,.07,.83,.04,1.74-.23,2.5-.17,.47-.86,.9-1.4,1.02-.24,.06-.86-.63-.97-1.06-.34-1.44-.57-2.91-.76-4.38-.15-1.16-.23-2.33-.24-3.49-.01-.9,.05-1.81,.21-2.69,.39-2.12-.41-3.88-1.56-5.53-.54-.78-1.32-1.14-2.32-1.19-2.18-.1-4.2,.55-6.23,1.18-.62,.19-1.29,.64-1.92-.23,.14-.19,.24-.46,.44-.58,3.4-1.99,5.39-5.22,7.37-8.43,1.26-2.04,2.36-4.18,2.82-6.57,.09-.49,.08-1.07-.09-1.53-2.02-5.52-3.62-11.13-3.27-17.1,.05-.8-.58-1.69,.42-2.56,.26,.26,.68,.47,.77,.78,.29,1.07,.62,2.17,.65,3.26,.1,3.63,.47,7.23,1.61,10.68,.86,2.57,1.94,5.05,3.9,7.06,.97,.99,2.13,1.54,3.38,2.02,.69,.26,1.2,.09,1.78-.26,1.22-.73,2.48-1.38,3.93-2.18,.41,.8,.74,1.42,1,1.92-.53,1.52-1.84,1.62-2.9,1.92-1.05,.3-1.84,.74-2.36,1.7-.85,1.59-1.73,3.17-2.62,4.88Zm-6.83,2.83c1.55,.57,1.8,2.25,2.83,3.44,1.38-4.11,2.29-8.22,4.7-11.96-2.29-.75-4.22-1.87-5.54-4.12-1.48,4.97-4.03,9.03-7.2,12.84,1.78-.08,3.36-.16,5.21-.21Z"/>
      <path class="cls-3" d="M60.34,188.56c.27,.23,.43,.42,.72,.77-.72,.16-1.26,.28-1.81,.39-3.74,.78-7.47,1.62-11.23,2.31-4.07,.75-8.17,1.36-12.25,2.04-5.44,.92-10.87,1.92-16.32,2.75-2.72,.41-5.5,.51-8.25,.76-.74,.07-1.47,.25-2.21,.25-.35,0-.91-.26-.99-.52-.16-.52,.23-.87,.79-.97,.52-.09,1.04-.23,1.57-.29,5.38-.62,10.74-1.29,16.06-2.39,2.54-.53,5.15-.71,7.72-1.12,5.92-.94,11.84-1.92,17.76-2.88,2.57-.41,5.13-.82,7.7-1.21,.2-.03,.42,.04,.74,.1Z"/>
      <path class="cls-4" d="M386.58,204.17c-.46-.24-.81-.44-1.49-.84,.71-.14,1.05-.29,1.36-.25,3.63,.48,7.27,.93,10.88,1.49,4.56,.71,9.11,1.52,13.66,2.28,4.45,.75,8.9,1.46,13.34,2.24,3.13,.55,6.25,1.19,9.37,1.81,1.93,.38,3.85,.77,5.77,1.17,.74,.15,1.3,.46,1.13,1.54-.7-.03-1.39,.02-2.05-.12-3.33-.68-6.64-1.42-9.97-2.09-1.3-.26-2.63-.35-3.93-.59-3.7-.69-7.4-1.44-11.1-2.12-2.24-.41-4.51-.69-6.75-1.08-3.24-.57-6.47-1.23-9.71-1.77-3.45-.58-6.92-1.08-10.5-1.66Z"/>
      <path class="cls-3" d="M274.39,140.37c3.6-.54,7.06-1.1,10.52-1.59,1.42-.2,2.86-.22,4.28-.41,1.2-.16,2.44-.31,3.57-.71,1-.35,1.61-.05,2.23,.57-.02,.74-.37,1.16-1.02,1.3-2.22,.48-4.43,1.06-6.68,1.38-2.94,.41-5.91,.59-8.87,.88-5.55,.54-11.01,1.61-16.5,2.53-.63,.1-1.27,.07-1.91,.13-2.26,.24-4.53,.5-6.79,.76-.44,.05-.88,.12-1.33,.17-.04-.11-.09-.22-.13-.34,.26-.18,.5-.47,.78-.53,2.86-.55,5.73-1.05,8.59-1.58,1.67-.31,3.33-.65,4.99-.97,2.71-.53,5.41-1.06,8.25-1.61Z"/>
      <path class="cls-4" d="M243.82,208.62c-1.13-.03-2.14-.05-3.14-.18-.36-.05-.91-.3-.97-.55-.14-.57,.38-.84,.87-.91,.63-.08,1.27-.08,1.91-.09,2.66-.01,5.32,.02,7.98-.02,2.39-.04,4.77-.25,7.16-.2,2.38,.05,4.76,.42,7.14,.46,3.18,.05,6.37-.05,9.55-.14,1-.03,2-.24,3-.31,.26-.02,.53,.21,1.13,.48-.64,.3-.97,.55-1.33,.61-4.8,.82-9.63,.77-14.47,.61-1.74-.06-3.48-.02-5.23-.02-.11,0-.22,.02-.32,0-3.08-.49-6.14,.23-9.22,.1-1.31-.06-2.63,.07-4.07,.14Z"/>
      <path class="cls-4" d="M301.57,307.07c-.83,2.6-1.71,5.05-2.42,7.55-.78,2.7-1.42,5.44-2.09,8.17-.48,1.96-.87,3.94-1.37,5.9-.15,.6-.25,1.44-1.45,1.24,2.07-10.31,4.79-20.37,8.37-30.19,.11-.29,.43-.5,.71-.81,.33,1,.13,2.04-.56,4.05-.45,1.3-.78,2.65-1.19,4.1Z"/>
      <path class="cls-4" d="M364.47,89.38c-.42,1.78-.88,3.46-1.37,5.12-.68,2.29-1.38,4.57-2.09,6.85-.48,1.55-.98,3.1-1.51,4.76-.86-.52-1.05-1.05-.84-1.73,1.5-4.82,2.99-9.64,4.51-14.44,.17-.53,.3-1.46,1.3-.56Z"/>
      <path class="cls-4" d="M151.86,5.59c-.07-1.54-.13-2.92-.23-4.29-.07-1.02,.28-1.33,1.61-1.29,.34,1.28,.29,2.56,.17,3.9-.24,2.59-.27,5.2-.41,7.8-.03,.5,.2,1.25-.49,1.35-.87,.12-.75-.78-.84-1.27-.14-.78-.13-1.59-.09-2.39,.06-1.22,.19-2.43,.28-3.81Z"/>
      <path class="cls-4" d="M222.52,205.04c2,.09,3.85,.16,5.69,.28,.34,.02,.66,.25,1.01,.38-.12,1.02-.8,1.13-1.51,1.11-2.43-.07-4.85-.18-7.28-.27-.62-.02-1.25-.06-1.85-.09-.35-.92-.04-1.36,.77-1.4,1-.05,2.01-.01,3.18-.01Z"/>
      <path class="cls-4" d="M81.65,89.52c-.19-.8-.35-1.47-.48-2.14-.1-.54-.15-1.07,.68-1.38,.22,.27,.6,.54,.69,.89,.6,2.25,1.18,4.5,1.68,6.77,.17,.77,.09,1.58-.66,2.18-.72-.21-.75-.84-.87-1.38-.35-1.6-.67-3.21-1.05-4.94Z"/>
      <path class="cls-3" d="M155.5,326.34c-.55-.28-1.09-.52-1.42-.94-.56-.69-.35-1.4,.42-1.85,.68-.4,1.23-.2,1.67,.6,.52,.96,.48,1.08-.66,2.19Z"/>
      <path class="cls-4" d="M352.55,121.47c.03-.21,.04-.35,.11-.4,.45-.3,.94-.85,1.36-.8,.67,.08,.63,.82,.63,1.47-.74,.46-1.43,.51-2.11-.27Z"/>
      <path class="cls-4" d="M96.19,49.8q.27,1.3-.93,1.8c-.22-.42-.44-.86-.68-1.3,.5-.49,.89-.88,1.61-.5Z"/>
      <path class="cls-3" d="M355.13,111.78c.22-.36,.43-.73,.72-.8,.29-.07,.7,.08,.97,.27,.11,.08,.11,.58-.03,.71-.23,.23-.59,.44-.9,.44-.25,0-.49-.32-.76-.62Z"/>
      <path class="cls-4" d="M304.97,295.22c.34,.74,.13,1.19-.63,1.19-.56,0-1.16-.65-.97-1.03,.37-.73,.96-.46,1.6-.17Z"/>
      <path class="cls-4" d="M.42,197.19c.45-.04,.81,0,1.43,.05-.4,.7-.65,1.13-.94,1.63-.83-.45-1.29-.84-.49-1.69Z"/>
      <path class="cls-4" d="M447.26,214.29c.73-.04,1.1,.22,1.13,1.02-.46,.14-.92,.29-1.38,.44-.6-.61-.51-1.06,.25-1.46Z"/>
      <path class="cls-4" d="M85.17,103.02c-.61-.16-.97-.44-.89-1.03,.07-.51,.34-.76,.98-.64,.12,.54,.94,1.04-.09,1.67Z"/>
      <path class="cls-4" d="M99.26,50.23c.42-1.32,.55-1.4,1.85-1.15-.39,.76-.82,1.34-1.85,1.15Z"/>
      <path class="cls-4" d="M72.69,24.56c.63,.26,1,.6,.85,1.26-.44,.34-.94,.39-1.25-.05-.28-.4-.27-.92,.41-1.21Z"/>
      <path class="cls-4" d="M233.94,207.61c-.52,.56-.92,.43-1.03-.16-.05-.24,.21-.76,.41-.8,.66-.14,.74,.34,.63,.97Z"/>
      <path class="cls-4" d="M61.81,66.44c.48,.36,.42,.7-.02,.82-.21,.06-.67-.11-.73-.28-.16-.51,.25-.56,.75-.54Z"/>
      <path class="cls-5" d="M87.16,181.6c.85-.79,1.71-1.57,2.56-2.36,2.16-2.03,4.26-4.12,6.48-6.07,2.2-1.93,4.02-4.19,5.91-6.39,2.76-3.23,5.36-6.57,7.68-10.14,1.12-1.73,2.51-3.3,3.65-5.02,1.45-2.21,2.77-4.51,4.15-6.77,.77-1.27,1.55-2.53,2.33-3.79,2.98-4.83,6.04-9.62,8.93-14.5,2.49-4.21,4.73-8.56,6.46-13.15,1.91-5.07,3.85-10.14,5.6-15.27,1.94-5.67,3.35-11.5,4.5-17.39,.46-2.34,.98-4.67,1.42-7.01,.71-3.8,1.42-7.6,2.05-11.41,.49-2.98,.91-5.97,1.28-8.96,.2-1.63,.22-3.28,.36-4.92,.11-1.28,.28-2.56,.72-3.87,.08,.38,.17,.75,.23,1.13,.42,2.98,.79,5.98,1.27,8.95,.48,2.97,1.01,5.95,1.64,8.89,.83,3.83,1.8,7.63,2.67,11.45,.43,1.86,.66,3.76,1.2,5.58,1.08,3.65,1.65,7.45,3.2,10.97,.62,1.4,.91,2.93,1.43,4.38,1.02,2.84,2.01,5.71,3.17,8.49,1.46,3.48,2.97,6.95,4.68,10.31,1.4,2.74,3.06,5.35,4.74,7.93,1.77,2.71,3.64,5.36,5.6,7.93,1.25,1.64,2.79,3.07,4.15,4.62,1.65,1.88,3.41,3.65,5.45,5.08,3.98,2.77,8.28,4.88,13.09,5.8,2.75,.53,5.5,1.09,8.28,1.5,1.36,.2,2.77,.07,4.15,.09,.3,0,.6,.03,1.25,.07-.55,.38-.81,.6-1.1,.77-2.73,1.54-5.59,2.9-8.18,4.65-2.76,1.87-5.68,3.54-8.11,5.89-1.26,1.21-2.72,2.21-3.98,3.43-1.18,1.14-2.23,2.42-3.29,3.68-2.34,2.8-4.65,5.62-6.94,8.46-.63,.78-1.17,1.64-1.72,2.48-1.67,2.58-3.44,5.1-4.94,7.77-2.52,4.49-4.95,9.03-7,13.77-.95,2.19-2.17,4.28-3.01,6.51-1.35,3.56-3.01,7-4.03,10.69-.52,1.88-1.44,3.66-2.01,5.53-1.07,3.56-2.14,7.12-3,10.73-1.46,6.18-2.8,12.38-4.11,18.59-.47,2.22-.71,4.49-1.06,6.74-.04,.24-.15,.47-.48,.71-.05-.26-.11-.52-.15-.78-.19-1.52-.37-3.05-.56-4.57-.24-1.94-.49-3.88-.74-5.82-.04-.31-.08-.63-.13-.94-.6-3.44-1.18-6.88-1.81-10.31-.29-1.56-.68-3.1-1.02-4.66-.3-1.34-.55-2.7-.89-4.03-1.18-4.69-2.56-9.34-4.66-13.71-2.31-4.79-5-9.38-8.4-13.49-1.82-2.21-3.82-4.29-5.9-6.26-2.5-2.37-5.05-4.74-8.09-6.42-3.03-1.67-6.31-2.79-9.67-3.6-3.71-.9-7.42-1.81-11.17-2.45-3.56-.61-7.17-.75-10.76,.05-1.03,.23-2.1,.31-3.28,.45-.14,0-.13,0-.13,0Z"/>
      <path class="cls-5" d="M87.16,181.6s-.06,.02-.05,.02c.05-.02,.05-.02,.05-.02Z"/>
      <path class="cls-5" d="M314.35,256.15c.45-1.63,.79-3.3,1.39-4.88,.71-1.87,.81-3.83,1.16-5.75,.47-2.65,.96-5.31,1.22-7.99,.27-2.79,.55-5.56,.2-8.41-.27-2.21-.56-4.41-1.09-6.57-.48-1.95-1.21-3.75-2.56-5.36-1.9-2.27-4.1-4.15-6.39-5.96-.7-.56-1.5-.99-2.26-1.48-.4-.26-.92-.42-1.19-.77-.88-1.15-2.11-1.51-3.43-1.76-1.45-.27-2.9-.55-4.52-.86,.34-.18,.59-.44,.81-.42,1.93,.18,3.54-.72,5.09-1.63,2.6-1.54,5.21-3.09,7.69-4.81,2-1.38,3.89-2.95,5.72-4.56,1.96-1.71,3.87-3.5,5.68-5.37,2.91-3.02,5.52-6.3,7.95-9.73,3.71-5.26,7.05-10.75,10.12-16.41,1.22-2.24,2.34-4.52,3.03-6.99,.07-.24,.26-.44,.48-.8,.52,.73,.61,1.32,.52,2.12-.12,1.03,.02,2.1,.17,3.14,.27,1.83,.62,3.65,.95,5.47,.87,4.77,2.23,9.39,4.4,13.74,1.46,2.94,2.9,5.89,4.56,8.72,1.04,1.77,2.38,3.38,3.73,4.94,1.54,1.79,3.63,2.93,5.62,4.15,.86,.53,1.73,1.05,2.64,1.48,.71,.33,1.49,.51,2.23,.78,.53,.19,1.03,.44,1.82,.77-4.24,.54-7.97,1.78-11.62,3.11-2.56,.93-4.88,2.53-7.27,3.89-1.24,.71-2.44,1.5-3.62,2.31-3.06,2.11-6.05,4.32-8.74,6.89-2.29,2.19-4.62,4.37-6.71,6.74-1.99,2.26-3.77,4.73-5.52,7.18-2.98,4.17-5.27,8.69-6.86,13.57-.34,1.06-.9,2.04-1.32,3.08-.43,1.08-.77,2.2-1.24,3.27-.4,.91-.94,1.75-1.41,2.63-.42,.79-.82,1.6-1.32,2.46-.09,.06-.1,.06-.1,.06Z"/>
      <path class="cls-5" d="M314.04,257.12l-.22,1.42c-.15-.04-.3-.08-.45-.12,.16-.4,.32-.79,.57-1.25,.09-.06,.1-.06,.1-.06Z"/>
      <path class="cls-5" d="M314.36,256.16c-.05,.28-.1,.55-.23,.89-.09,.06-.09,.06-.09,.06,.05-.28,.1-.56,.23-.9,.08-.06,.09-.06,.1-.05Z"/>
      <path class="cls-5" d="M313.2,259.26c.05,.04,.06,.12,.07,.2-.04-.05-.08-.11-.07-.2Z"/>
      <path class="cls-5" d="M76.36,63.21c-1.72,.06-3.3,.14-5.08,.22,3.16-3.81,5.72-7.87,7.2-12.84,1.33,2.25,3.25,3.38,5.54,4.12-2.41,3.74-3.32,7.85-4.7,11.96-1.03-1.19-1.28-2.88-2.96-3.45Z"/>
    </g>
  </g>
</svg>